<?xml version="1.0" encoding="UTF-8"?>
<svg xmlns="http://www.w3.org/2000/svg" width="800" height="600" viewBox="0 0 800 600">
  <g id="Tallo">
    <line x1="546.023" y1="577" x2="546.023" y2="77" fill="#0c0d0b" stroke="#0c0d0b" stroke-miterlimit="10" stroke-width="2.835"/>
    <line x1="195.5" y1="578" x2="195.5" y2="78" fill="#0c0d0b" stroke="#0c0d0b" stroke-miterlimit="10" stroke-width="2.835"/>
  </g>
  <g id="Hojas">
    <path d="M634.691,210.456c-17.538-2.339-35.712,1.374-50.971,10.026,0,0-.784.445-.784.445-2.006,1.133-3.379,2.743-4.462,4.899-1.447,2.917-2.132,6.398-2.661,9.823-.559,3.664-.986,7.867-1.738,11.42-.826,3.849-2.082,7.707-5.018,10.13l-23.094,13.216-22.67-12.973c-3.155-2.403-4.469-6.392-5.323-10.372-.752-3.554-1.179-7.757-1.738-11.42-.528-3.425-1.213-6.906-2.661-9.823-1.082-2.156-2.455-3.766-4.462-4.899,0,0-.784-.445-.784-.445-15.259-8.652-33.433-12.365-50.971-10.026-3.79.522-7.656,1.258-11.332,2.491.77,3.799,2.065,7.516,3.509,11.059,6.743,16.358,19.046,30.24,34.168,39.129,0,0,.778.457.778.457,1.984,1.172,4.065,1.556,6.474,1.414,3.249-.202,6.609-1.351,9.837-2.607,3.452-1.348,7.307-3.079,10.759-4.205,3.56-1.151,7.321-1.968,10.749-.903l23.656,13.537.011-.02.011.02,23.497-13.447c3.501-1.199,7.369-.37,11.025.812,3.453,1.126,7.308,2.857,10.759,4.205,3.228,1.256,6.588,2.405,9.837,2.607,2.408.141,4.49-.242,6.474-1.414,0,0,.778-.457.778-.457,15.122-8.889,27.425-22.771,34.168-39.129,1.444-3.543,2.739-7.259,3.509-11.059-3.676-1.233-7.541-1.969-11.332-2.491Z" fill="#0c0d0b"/>
    <path d="M634.691,278.456c-17.538-2.339-35.712,1.374-50.971,10.026,0,0-.784.445-.784.445-2.006,1.133-3.379,2.743-4.462,4.899-1.447,2.917-2.132,6.398-2.661,9.823-.559,3.664-.986,7.867-1.738,11.42-.826,3.849-2.082,7.707-5.018,10.13l-23.094,13.216-22.67-12.973c-3.155-2.403-4.469-6.392-5.323-10.372-.752-3.554-1.179-7.757-1.738-11.42-.528-3.425-1.213-6.906-2.661-9.823-1.082-2.156-2.455-3.766-4.462-4.899,0,0-.784-.445-.784-.445-15.259-8.652-33.433-12.365-50.971-10.026-3.79.522-7.656,1.258-11.332,2.491.77,3.799,2.065,7.516,3.509,11.059,6.743,16.358,19.046,30.24,34.168,39.129,0,0,.778.457.778.457,1.984,1.172,4.065,1.556,6.474,1.414,3.249-.202,6.609-1.351,9.837-2.607,3.452-1.348,7.307-3.079,10.759-4.205,3.56-1.151,7.321-1.968,10.749-.903l23.656,13.537.011-.02.011.02,23.497-13.447c3.501-1.199,7.369-.37,11.025.812,3.453,1.126,7.308,2.857,10.759,4.205,3.228,1.256,6.588,2.405,9.837,2.607,2.408.141,4.49-.242,6.474-1.414,0,0,.778-.457.778-.457,15.122-8.889,27.425-22.771,34.168-39.129,1.444-3.543,2.739-7.259,3.509-11.059-3.676-1.233-7.541-1.969-11.332-2.491Z" fill="#0c0d0b"/>
    <path d="M289.892,328.456c-17.538-2.339-35.712,1.374-50.971,10.026,0,0-.784.445-.784.445-2.006,1.133-3.379,2.743-4.462,4.899-1.447,2.917-2.132,6.398-2.661,9.823-.559,3.664-.986,7.867-1.738,11.42-.826,3.849-2.082,7.707-5.018,10.13l-23.094,13.216-22.67-12.973c-3.155-2.403-4.469-6.392-5.323-10.372-.752-3.554-1.179-7.757-1.738-11.42-.528-3.425-1.213-6.906-2.661-9.823-1.082-2.156-2.455-3.766-4.462-4.899,0,0-.784-.445-.784-.445-15.259-8.652-33.433-12.365-50.971-10.026-3.79.522-7.656,1.258-11.332,2.491.77,3.799,2.065,7.516,3.509,11.059,6.743,16.358,19.046,30.24,34.168,39.129,0,0,.778.457.778.457,1.984,1.172,4.065,1.556,6.474,1.414,3.249-.202,6.609-1.351,9.837-2.607,3.452-1.348,7.307-3.079,10.759-4.205,3.56-1.151,7.321-1.968,10.749-.903l23.656,13.537.011-.02.011.02,23.497-13.447c3.501-1.199,7.369-.37,11.025.812,3.453,1.126,7.308,2.857,10.759,4.205,3.228,1.256,6.588,2.405,9.837,2.607,2.408.141,4.49-.242,6.474-1.414,0,0,.778-.457.778-.457,15.122-8.889,27.425-22.771,34.168-39.129,1.444-3.543,2.739-7.259,3.509-11.059-3.676-1.233-7.541-1.969-11.332-2.491Z" fill="#0c0d0b"/>
    <path d="M301.216,420.62c-.395-1.957-.951-3.893-1.674-5.759-.309-.866-.756-1.845-1.127-2.686-1.527-3.202-3.26-5.955-5.656-8.887-2.038-2.405-4.103-4.532-6.74-6.565-.622.124-1.897.414-2.509.56-5.084,1.227-10.389,2.718-15.128,4.233-.394.116-1.122.362-1.5.487-1.374.449-2.768.927-4.117,1.421-.739.273-1.56.582-2.291.873-4.683,1.913-8.545,3.746-11.763,6.996-1.255,1.288-2.247,2.787-3.181,4.318-3.284,5.346-4.986,11.279-7.063,17.392-.903,2.719-1.934,5.557-3.024,8.212-.977,2.304-2.078,4.652-3.29,6.841-5.721,10.578-15.119,18.796-27.046,21.237-1.059.218-2.122.422-3.188.612-1.065-.19-2.128-.394-3.188-.612-11.927-2.441-21.325-10.659-27.046-21.237-1.212-2.189-2.313-4.537-3.29-6.841-1.09-2.655-2.12-5.493-3.024-8.212-2.077-6.113-3.779-12.045-7.063-17.392-.935-1.531-1.926-3.03-3.181-4.318-3.218-3.251-7.08-5.083-11.763-6.996-.731-.291-1.552-.6-2.291-.873-1.349-.494-2.743-.972-4.117-1.421-.378-.125-1.107-.371-1.5-.487-4.739-1.516-10.044-3.006-15.128-4.233-.612-.146-1.887-.436-2.509-.56-2.637,2.033-4.702,4.159-6.74,6.565-2.396,2.932-4.129,5.684-5.656,8.887-.371.841-.818,1.82-1.127,2.686-.723,1.866-1.279,3.801-1.674,5.759-1.637,7.933-.393,16.266,3.482,23.36,1.078,1.983,2.364,3.843,3.741,5.628,1.694,2.175,3.561,4.237,5.578,6.116,11.603,10.829,26.178,14.719,41.717,14.968,8.011.17,16.439-.562,24.329-.737,4.356-.1,8.718-.026,13.041.34.708.056,1.431.129,2.161.209,3.404.001,6.969.004,10.433.007.751-.083,1.496-.157,2.224-.215,4.323-.367,8.685-.441,13.041-.34,7.89.175,16.318.907,24.329.737,15.539-.249,30.113-4.139,41.717-14.968,2.017-1.879,3.884-3.941,5.578-6.116,1.377-1.785,2.663-3.645,3.741-5.628,3.876-7.094,5.119-15.427,3.482-23.36Z" fill="#0c0d0b"/>
    <path d="M297.216,258.62c-.395-1.957-.951-3.893-1.674-5.759-.309-.866-.756-1.845-1.127-2.686-1.527-3.202-3.26-5.955-5.656-8.887-2.038-2.405-4.103-4.532-6.74-6.565-.622.124-1.897.414-2.509.56-5.084,1.227-10.389,2.718-15.128,4.233-.394.116-1.122.362-1.5.487-1.374.449-2.768.927-4.117,1.421-.739.273-1.56.582-2.291.873-4.683,1.913-8.545,3.746-11.763,6.996-1.255,1.288-2.247,2.787-3.181,4.318-3.284,5.346-4.986,11.279-7.063,17.392-.903,2.719-1.934,5.557-3.024,8.212-.977,2.304-2.078,4.652-3.29,6.841-5.721,10.578-15.119,18.796-27.046,21.237-1.059.218-2.122.422-3.188.612-1.065-.19-2.128-.394-3.188-.612-11.927-2.441-21.325-10.659-27.046-21.237-1.212-2.189-2.313-4.537-3.29-6.841-1.09-2.655-2.12-5.493-3.024-8.212-2.077-6.113-3.779-12.045-7.063-17.392-.935-1.531-1.926-3.03-3.181-4.318-3.218-3.251-7.08-5.083-11.763-6.996-.731-.291-1.552-.6-2.291-.873-1.349-.494-2.743-.972-4.117-1.421-.378-.125-1.107-.371-1.5-.487-4.739-1.516-10.044-3.006-15.128-4.233-.612-.146-1.887-.436-2.509-.56-2.637,2.033-4.702,4.159-6.74,6.565-2.396,2.932-4.129,5.684-5.656,8.887-.371.841-.818,1.82-1.127,2.686-.723,1.866-1.279,3.801-1.674,5.759-1.637,7.933-.393,16.266,3.482,23.36,1.078,1.983,2.364,3.843,3.741,5.628,1.694,2.175,3.561,4.237,5.578,6.116,11.603,10.829,26.178,14.719,41.717,14.968,8.011.17,16.439-.562,24.329-.737,4.356-.1,8.718-.026,13.041.34.708.056,1.431.129,2.161.209,3.404.001,6.969.004,10.433.007.751-.083,1.496-.157,2.224-.215,4.323-.367,8.685-.441,13.041-.34,7.89.175,16.318.907,24.329.737,15.539-.249,30.113-4.139,41.717-14.968,2.017-1.879,3.884-3.941,5.578-6.116,1.377-1.785,2.663-3.645,3.741-5.628,3.876-7.094,5.119-15.427,3.482-23.36Z" fill="#0c0d0b"/>
    <circle cx="275.149" cy="430.055" r="11" fill="#cb1e1a"/>
    <path d="M610.136,452.895c-7.124-15.891-20.823-15.343-35.618-13.151-15.216,2.254-27.399,26.303-27.399,26.303l.548-16.439c12.055-21.371,42.175-25.823,46.03-26.851,8.22-2.192,9.864-4.932,9.864-4.932,0,0,12.603-19.727-13.151-20.275s-43.29,39.454-43.29,39.454v-25.019c.148-.911.328-1.72.548-2.38,2.192-6.576,21.915-17.562,29.043-18.631,10.96-1.644,13.699-3.836,13.699-3.836,0,0,14.247-9.864,7.124-21.371-19.667-31.651-53.044,18.76-50.251,19.179h-2.518c2.793-.418-30.584-50.83-50.251-19.179-7.123,11.507,7.124,21.371,7.124,21.371,0,0,2.74,2.192,13.699,3.836,7.128,1.069,26.851,12.055,29.043,18.631.22.66.4,1.469.548,2.38v25.019s-17.535-40.002-43.29-39.454-13.151,20.275-13.151,20.275c0,0,1.644,2.74,9.864,4.932,3.855,1.028,33.975,5.48,46.03,26.851l.548,16.439s-12.183-24.049-27.399-26.303c-14.795-2.192-28.495-2.74-35.618,13.151-7.124,15.891,8.22,24.111,8.22,24.111,0,0,8.768,4.384,14.795,4.932,5.403.491,35.019.102,41.098.016,6.08.086,35.695.475,41.098-.016,6.028-.548,14.795-4.932,14.795-4.932,0,0,15.343-8.22,8.22-24.111Z" fill="#0c0d0b"/>
  </g>
  <g id="Flores">
    <g>
      <polygon points="229.458 159.082 196.291 192.248 196.291 181.973 196.291 181.86 196.291 69.817 195.744 69.817 195.744 181.312 162.625 148.193 162.238 148.58 195.744 182.086 195.744 242.025 195.791 242.025 195.791 252.913 196.339 252.913 196.339 192.975 229.845 159.469 229.458 159.082" fill="#0c0d0b"/>
      <circle cx="162.213" cy="147.47" r="9.562" fill="#0c0d0b"/>
      <circle cx="196.018" cy="69.817" r="11.952" fill="#0c0d0b"/>
      <circle cx="212.244" cy="107.677" r="11.952" fill="#0c0d0b"/>
      <g>
        <circle cx="226.15" cy="163.854" r="6.375" fill="#0c0d0b"/>
        <circle cx="228.566" cy="148.146" r="6.375" fill="#0c0d0b"/>
        <circle cx="244.502" cy="163.502" r="9.562" fill="#0c0d0b"/>
        <circle cx="249.332" cy="139.163" r="11.952" fill="#0c0d0b"/>
      </g>
      <g>
        <circle cx="195.436" cy="210.407" r="6.375" fill="#0c0d0b"/>
        <circle cx="197.853" cy="194.699" r="6.375" fill="#0c0d0b"/>
        <circle cx="213.789" cy="210.056" r="9.562" fill="#0c0d0b"/>
        <circle cx="218.618" cy="185.717" r="11.952" fill="#0c0d0b"/>
      </g>
      <g>
        <circle cx="189.834" cy="158.832" r="6.375" fill="#0c0d0b"/>
        <circle cx="192.251" cy="143.123" r="6.375" fill="#0c0d0b"/>
        <circle cx="208.187" cy="158.48" r="9.562" fill="#0c0d0b"/>
        <circle cx="213.016" cy="134.141" r="11.952" fill="#0c0d0b"/>
      </g>
      <g>
        <circle cx="186.142" cy="107.256" r="6.375" fill="#0c0d0b"/>
        <circle cx="183.725" cy="91.548" r="6.375" fill="#0c0d0b"/>
        <circle cx="167.789" cy="106.905" r="9.562" fill="#0c0d0b"/>
        <circle cx="162.96" cy="82.566" r="11.952" fill="#0c0d0b"/>
      </g>
      <circle cx="182.085" cy="199.397" r="6.375" fill="#0c0d0b"/>
      <circle cx="179.669" cy="183.688" r="6.375" fill="#0c0d0b"/>
      <circle cx="177.377" cy="129.602" r="6.375" fill="#0c0d0b"/>
      <circle cx="211.374" cy="85.173" r="6.375" fill="#0c0d0b"/>
      <circle cx="234.941" cy="122.261" r="6.375" fill="#0c0d0b"/>
      <circle cx="207.897" cy="231.787" r="6.375" fill="#0c0d0b"/>
      <circle cx="195.342" cy="251.49" r="6.375" fill="#0c0d0b"/>
      <circle cx="184.138" cy="225.412" r="6.375" fill="#0c0d0b"/>
      <circle cx="173.321" cy="215.175" r="6.375" fill="#0c0d0b"/>
      <circle cx="154.197" cy="129.602" r="6.375" fill="#0c0d0b"/>
      <circle cx="163.733" cy="199.045" r="9.562" fill="#0c0d0b"/>
      <circle cx="158.903" cy="174.706" r="11.952" fill="#0c0d0b"/>
    </g>
    <g>
      <g>
        <ellipse cx="546.357" cy="60.045" rx="17.5" ry="12.25" fill="#0c0d0b"/>
        <path d="M591.54,141.376c-13.982-6.434-30.985,2.311-39.316,14.22-1.781,2.164-3.391,5.56-4.368,6.318v-13.328c3.824-10.904,15.928-15.728,28.313-20.06,8.466-2.76,27.934-8.154,24.578-19.613-6.565-9.578-22.286-8.439-31.556-2.4-10.381,6.518-16.408,16.781-21.335,24.28v-17.378c4.008-9.677,14.228-14.478,27.958-19.358,5.813-2.096,10.596-1.92,13.542-5.26,14.689-26.582-17.221-41.793-36.5-2-1.05,2.354-3.834,7.381-5,10.655v-20.155h-3v26.242c-3.03-7.884-8.381-25.899-17.001-29.2-14.631-3.298-10.693,13.9-5.276,21.28,3.958,6.25,10.427,12.169,15.426,16.447,5.026,3.844,6.878,8.302,6.852,14.73-.066,1.994-.032,4.201,0,6.458v6.195c-.055,2.073-.193,4.066-.5,5.847-.455.791-2.597-.821-3.058-1.451-6.686-10.919-13.693-27.479-22.231-38.247-7.804-11.765-27.873-2.55-19.311,11.149,5.05,9.004,14.574,13.859,22.667,20.535,5.616,5.489,18.585,11.204,22.433,18.855v7.16c-2.049,1.361-6.332-.853-9.103-2.54-12.96-8.533-69.16-47.621-65.008-10.167,5.509,22.671,27.774,29.133,47.436,27.435,23.16-.492,51.205,1.01,69.18-.643,20.51-5.914,25.971-26.306,4.178-36.005Z" fill="#0c0d0b"/>
      </g>
      <circle cx="546.357" cy="61.295" r="5.5" fill="#0c0d0b"/>
    </g>
  </g>
</svg>