<?xml version="1.0" encoding="UTF-8"?>
<svg xmlns="http://www.w3.org/2000/svg" width="100" height="100" viewBox="0 0 100 100">
  <g id="Tallo">
    <g>
      <g>
        <line x1="49.92" y1="99.995" x2="49.92" y2="7.402" fill="none" stroke="#0c0d0b" stroke-miterlimit="10" stroke-width=".525"/>
        <g>
          <polygon points="49.92 98.329 49.056 98.124 49.92 97.92 49.92 98.329 49.92 98.329" fill="#0c0d0b"/>
          <polygon points="49.92 99.44 50.783 99.235 49.92 99.031 49.92 99.44 49.92 99.44" fill="#0c0d0b"/>
        </g>
        <g>
          <polygon points="49.92 94.936 49.056 94.732 49.92 94.527 49.92 94.936 49.92 94.936" fill="#0c0d0b"/>
          <polygon points="49.92 96.047 50.783 95.843 49.92 95.638 49.92 96.047 49.92 96.047" fill="#0c0d0b"/>
        </g>
        <g>
          <polygon points="49.92 91.563 49.056 91.359 49.92 91.154 49.92 91.563 49.92 91.563" fill="#0c0d0b"/>
          <polygon points="49.92 92.674 50.783 92.47 49.92 92.265 49.92 92.674 49.92 92.674" fill="#0c0d0b"/>
        </g>
        <g>
          <polygon points="49.92 88.174 49.056 87.97 49.92 87.765 49.92 88.174 49.92 88.174" fill="#0c0d0b"/>
          <polygon points="49.92 89.286 50.783 89.081 49.92 88.876 49.92 89.286 49.92 89.286" fill="#0c0d0b"/>
        </g>
        <g>
          <polygon points="49.92 84.78 49.056 84.575 49.92 84.371 49.92 84.78 49.92 84.78" fill="#0c0d0b"/>
          <polygon points="49.92 85.891 50.783 85.686 49.92 85.482 49.92 85.891 49.92 85.891" fill="#0c0d0b"/>
        </g>
        <g>
          <polygon points="49.92 81.376 49.056 81.172 49.92 80.967 49.92 81.376 49.92 81.376" fill="#0c0d0b"/>
          <polygon points="49.92 82.487 50.783 82.283 49.92 82.078 49.92 82.487 49.92 82.487" fill="#0c0d0b"/>
        </g>
        <g>
          <polygon points="49.92 78.064 49.056 77.859 49.92 77.655 49.92 78.064 49.92 78.064" fill="#0c0d0b"/>
          <polygon points="49.92 79.175 50.783 78.97 49.92 78.766 49.92 79.175 49.92 79.175" fill="#0c0d0b"/>
        </g>
        <g>
          <polygon points="49.92 74.63 49.056 74.425 49.92 74.221 49.92 74.63 49.92 74.63" fill="#0c0d0b"/>
          <polygon points="49.92 75.741 50.783 75.537 49.92 75.332 49.92 75.741 49.92 75.741" fill="#0c0d0b"/>
        </g>
        <g>
          <polygon points="49.92 71.22 49.056 71.015 49.92 70.811 49.92 71.22 49.92 71.22" fill="#0c0d0b"/>
          <polygon points="49.92 72.331 50.783 72.126 49.92 71.922 49.92 72.331 49.92 72.331" fill="#0c0d0b"/>
        </g>
        <g>
          <polygon points="49.92 67.924 49.056 67.719 49.92 67.515 49.92 67.924 49.92 67.924" fill="#0c0d0b"/>
          <polygon points="49.92 69.035 50.783 68.83 49.92 68.626 49.92 69.035 49.92 69.035" fill="#0c0d0b"/>
        </g>
        <g>
          <polygon points="49.92 64.524 49.056 64.32 49.92 64.115 49.92 64.524 49.92 64.524" fill="#0c0d0b"/>
          <polygon points="49.92 65.636 50.783 65.431 49.92 65.226 49.92 65.636 49.92 65.636" fill="#0c0d0b"/>
        </g>
        <g>
          <polygon points="49.92 61.167 49.056 60.962 49.92 60.758 49.92 61.167 49.92 61.167" fill="#0c0d0b"/>
          <polygon points="49.92 62.278 50.783 62.074 49.92 61.869 49.92 62.278 49.92 62.278" fill="#0c0d0b"/>
        </g>
        <g>
          <polygon points="49.92 57.779 49.056 57.574 49.92 57.37 49.92 57.779 49.92 57.779" fill="#0c0d0b"/>
          <polygon points="49.92 58.89 50.783 58.686 49.92 58.481 49.92 58.89 49.92 58.89" fill="#0c0d0b"/>
        </g>
        <g>
          <polygon points="49.92 54.398 49.056 54.194 49.92 53.989 49.92 54.398 49.92 54.398" fill="#0c0d0b"/>
          <polygon points="49.92 55.51 50.783 55.305 49.92 55.1 49.92 55.51 49.92 55.51" fill="#0c0d0b"/>
        </g>
        <g>
          <polygon points="49.92 50.988 49.056 50.784 49.92 50.579 49.92 50.988 49.92 50.988" fill="#0c0d0b"/>
          <polygon points="49.92 52.099 50.783 51.895 49.92 51.69 49.92 52.099 49.92 52.099" fill="#0c0d0b"/>
        </g>
        <g>
          <polygon points="49.92 47.635 49.056 47.431 49.92 47.226 49.92 47.635 49.92 47.635" fill="#0c0d0b"/>
          <polygon points="49.92 48.747 50.783 48.542 49.92 48.337 49.92 48.747 49.92 48.747" fill="#0c0d0b"/>
        </g>
        <g>
          <polygon points="49.92 44.192 49.056 43.987 49.92 43.782 49.92 44.192 49.92 44.192" fill="#0c0d0b"/>
          <polygon points="49.92 45.303 50.783 45.098 49.92 44.894 49.92 45.303 49.92 45.303" fill="#0c0d0b"/>
        </g>
        <g>
          <polygon points="49.92 40.812 49.056 40.607 49.92 40.403 49.92 40.812 49.92 40.812" fill="#0c0d0b"/>
          <polygon points="49.92 41.923 50.783 41.718 49.92 41.514 49.92 41.923 49.92 41.923" fill="#0c0d0b"/>
        </g>
        <g>
          <polygon points="49.92 37.467 49.056 37.262 49.92 37.058 49.92 37.467 49.92 37.467" fill="#0c0d0b"/>
          <polygon points="49.92 38.578 50.783 38.373 49.92 38.169 49.92 38.578 49.92 38.578" fill="#0c0d0b"/>
        </g>
        <g>
          <polygon points="49.92 34.111 49.056 33.907 49.92 33.702 49.92 34.111 49.92 34.111" fill="#0c0d0b"/>
          <polygon points="49.92 35.222 50.783 35.018 49.92 34.813 49.92 35.222 49.92 35.222" fill="#0c0d0b"/>
        </g>
        <g>
          <polygon points="49.92 30.704 49.056 30.5 49.92 30.295 49.92 30.704 49.92 30.704" fill="#0c0d0b"/>
          <polygon points="49.92 31.815 50.783 31.611 49.92 31.406 49.92 31.815 49.92 31.815" fill="#0c0d0b"/>
        </g>
        <g>
          <polygon points="49.92 27.302 49.056 27.097 49.92 26.893 49.92 27.302 49.92 27.302" fill="#0c0d0b"/>
          <polygon points="49.92 28.413 50.783 28.208 49.92 28.004 49.92 28.413 49.92 28.413" fill="#0c0d0b"/>
        </g>
        <g>
          <polygon points="49.92 23.978 49.056 23.773 49.92 23.569 49.92 23.978 49.92 23.978" fill="#0c0d0b"/>
          <polygon points="49.92 25.089 50.783 24.884 49.92 24.68 49.92 25.089 49.92 25.089" fill="#0c0d0b"/>
        </g>
        <g>
          <polygon points="49.92 20.567 49.056 20.362 49.92 20.158 49.92 20.567 49.92 20.567" fill="#0c0d0b"/>
          <polygon points="49.92 21.678 50.783 21.473 49.92 21.269 49.92 21.678 49.92 21.678" fill="#0c0d0b"/>
        </g>
        <g>
          <polygon points="49.92 17.183 49.056 16.978 49.92 16.774 49.92 17.183 49.92 17.183" fill="#0c0d0b"/>
          <polygon points="49.92 18.294 50.783 18.089 49.92 17.885 49.92 18.294 49.92 18.294" fill="#0c0d0b"/>
        </g>
        <g>
          <polygon points="49.92 13.793 49.056 13.589 49.92 13.384 49.92 13.793 49.92 13.793" fill="#0c0d0b"/>
          <polygon points="49.92 14.904 50.783 14.7 49.92 14.495 49.92 14.904 49.92 14.904" fill="#0c0d0b"/>
        </g>
        <g>
          <polygon points="49.92 10.403 49.056 10.198 49.92 9.994 49.92 10.403 49.92 10.403" fill="#0c0d0b"/>
          <polygon points="49.92 11.514 50.783 11.309 49.92 11.105 49.92 11.514 49.92 11.514" fill="#0c0d0b"/>
        </g>
        <g>
          <polygon points="49.92 7.051 49.056 6.847 49.92 6.642 49.92 7.051 49.92 7.051" fill="#0c0d0b"/>
          <polygon points="49.92 8.162 50.783 7.958 49.92 7.753 49.92 8.162 49.92 8.162" fill="#0c0d0b"/>
        </g>
      </g>
      <g>
        <path d="M34.343,69.985v10.888c0,1.735,1.406,3.141,3.141,3.141h25.278c1.735,0,3.141-1.406,3.141-3.141v-10.888" fill="none" stroke="#0c0d0b" stroke-miterlimit="10" stroke-width=".262"/>
        <g>
          <polygon points="34.351 71.153 33.493 70.929 34.361 70.744 34.351 71.153 34.351 71.153" fill="#0c0d0b"/>
          <polygon points="34.326 72.264 35.194 72.079 34.335 71.855 34.326 72.264 34.326 72.264" fill="#0c0d0b"/>
        </g>
        <g>
          <polygon points="34.351 74.258 33.493 74.034 34.361 73.849 34.351 74.258 34.351 74.258" fill="#0c0d0b"/>
          <polygon points="34.326 75.369 35.194 75.184 34.335 74.96 34.326 75.369 34.326 75.369" fill="#0c0d0b"/>
        </g>
        <g>
          <polygon points="34.351 77.328 33.493 77.103 34.361 76.918 34.351 77.328 34.351 77.328" fill="#0c0d0b"/>
          <polygon points="34.326 78.438 35.194 78.253 34.335 78.029 34.326 78.438 34.326 78.438" fill="#0c0d0b"/>
        </g>
        <g>
          <polygon points="34.351 80.437 33.493 80.213 34.361 80.028 34.351 80.437 34.351 80.437" fill="#0c0d0b"/>
          <polygon points="34.326 81.548 35.194 81.363 34.335 81.139 34.326 81.548 34.326 81.548" fill="#0c0d0b"/>
        </g>
        <g>
          <polygon points="35.345 83.188 34.655 83.747 35.021 82.938 35.345 83.188 35.345 83.188" fill="#0c0d0b"/>
          <polygon points="36.224 83.868 36.59 83.059 35.9 83.618 36.224 83.868 36.224 83.868" fill="#0c0d0b"/>
        </g>
        <g>
          <polygon points="38.201 84.006 37.977 84.865 37.792 83.997 38.201 84.006 38.201 84.006" fill="#0c0d0b"/>
          <polygon points="39.312 84.031 39.127 83.163 38.903 84.022 39.312 84.031 39.312 84.031" fill="#0c0d0b"/>
        </g>
        <g>
          <polygon points="41.308 84.006 41.084 84.865 40.899 83.997 41.308 84.006 41.308 84.006" fill="#0c0d0b"/>
          <polygon points="42.419 84.031 42.234 83.163 42.01 84.022 42.419 84.031 42.419 84.031" fill="#0c0d0b"/>
        </g>
        <g>
          <polygon points="44.364 84.006 44.14 84.865 43.955 83.997 44.364 84.006 44.364 84.006" fill="#0c0d0b"/>
          <polygon points="45.475 84.031 45.29 83.163 45.066 84.022 45.475 84.031 45.475 84.031" fill="#0c0d0b"/>
        </g>
        <g>
          <polygon points="47.485 84.006 47.261 84.865 47.076 83.997 47.485 84.006 47.485 84.006" fill="#0c0d0b"/>
          <polygon points="48.596 84.031 48.411 83.163 48.187 84.022 48.596 84.031 48.596 84.031" fill="#0c0d0b"/>
        </g>
        <g>
          <polygon points="50.503 84.006 50.279 84.865 50.094 83.997 50.503 84.006 50.503 84.006" fill="#0c0d0b"/>
          <polygon points="51.614 84.031 51.429 83.163 51.205 84.022 51.614 84.031 51.614 84.031" fill="#0c0d0b"/>
        </g>
        <g>
          <polygon points="53.626 84.006 53.402 84.865 53.217 83.997 53.626 84.006 53.626 84.006" fill="#0c0d0b"/>
          <polygon points="54.737 84.031 54.552 83.163 54.328 84.022 54.737 84.031 54.737 84.031" fill="#0c0d0b"/>
        </g>
        <g>
          <polygon points="56.702 84.006 56.478 84.865 56.293 83.997 56.702 84.006 56.702 84.006" fill="#0c0d0b"/>
          <polygon points="57.813 84.031 57.628 83.163 57.404 84.022 57.813 84.031 57.813 84.031" fill="#0c0d0b"/>
        </g>
        <g>
          <polygon points="59.788 84.006 59.564 84.865 59.379 83.997 59.788 84.006 59.788 84.006" fill="#0c0d0b"/>
          <polygon points="60.899 84.031 60.714 83.163 60.49 84.022 60.899 84.031 60.899 84.031" fill="#0c0d0b"/>
        </g>
        <g>
          <polygon points="62.865 84.024 62.765 84.906 62.459 84.073 62.865 84.024 62.865 84.024" fill="#0c0d0b"/>
          <polygon points="63.968 83.89 63.661 83.058 63.562 83.94 63.968 83.89 63.968 83.89" fill="#0c0d0b"/>
        </g>
        <g>
          <polygon points="65.416 82.575 66.086 83.157 65.226 82.938 65.416 82.575 65.416 82.575" fill="#0c0d0b"/>
          <polygon points="65.931 81.591 65.071 81.371 65.741 81.953 65.931 81.591 65.931 81.591" fill="#0c0d0b"/>
        </g>
        <g>
          <polygon points="65.895 79.572 66.753 79.796 65.885 79.981 65.895 79.572 65.895 79.572" fill="#0c0d0b"/>
          <polygon points="65.92 78.461 65.052 78.646 65.911 78.87 65.92 78.461 65.92 78.461" fill="#0c0d0b"/>
        </g>
        <g>
          <polygon points="65.895 76.472 66.753 76.696 65.885 76.881 65.895 76.472 65.895 76.472" fill="#0c0d0b"/>
          <polygon points="65.92 75.361 65.052 75.546 65.911 75.77 65.92 75.361 65.92 75.361" fill="#0c0d0b"/>
        </g>
        <g>
          <polygon points="65.895 73.405 66.753 73.629 65.885 73.814 65.895 73.405 65.895 73.405" fill="#0c0d0b"/>
          <polygon points="65.92 72.294 65.052 72.479 65.911 72.703 65.92 72.294 65.92 72.294" fill="#0c0d0b"/>
        </g>
        <g>
          <polygon points="65.895 70.336 66.753 70.56 65.885 70.745 65.895 70.336 65.895 70.336" fill="#0c0d0b"/>
          <polygon points="65.92 69.225 65.052 69.41 65.911 69.634 65.92 69.225 65.92 69.225" fill="#0c0d0b"/>
        </g>
      </g>
      <g>
        <path d="M31.063,35.625v11.465c0,1.083.878,1.961,1.961,1.961h33.915c1.234,0,2.235-1,2.235-2.235v-11.191" fill="none" stroke="#0c0d0b" stroke-miterlimit="10" stroke-width=".187"/>
        <g>
          <polygon points="31.067 40.397 31.684 40.532 31.072 40.688 31.067 40.397 31.067 40.397" fill="#0c0d0b"/>
          <polygon points="31.053 39.607 30.441 39.763 31.058 39.898 31.053 39.607 31.053 39.607" fill="#0c0d0b"/>
        </g>
        <g>
          <polygon points="31.067 37.954 31.684 38.089 31.072 38.245 31.067 37.954 31.067 37.954" fill="#0c0d0b"/>
          <polygon points="31.053 37.164 30.441 37.32 31.058 37.455 31.053 37.164 31.053 37.164" fill="#0c0d0b"/>
        </g>
        <g>
          <polygon points="31.067 42.835 31.684 42.97 31.072 43.126 31.067 42.835 31.067 42.835" fill="#0c0d0b"/>
          <polygon points="31.053 42.045 30.441 42.201 31.058 42.336 31.053 42.045 31.053 42.045" fill="#0c0d0b"/>
        </g>
        <g>
          <polygon points="31.067 45.277 31.684 45.412 31.072 45.568 31.067 45.277 31.067 45.277" fill="#0c0d0b"/>
          <polygon points="31.053 44.487 30.441 44.643 31.058 44.778 31.053 44.487 31.053 44.487" fill="#0c0d0b"/>
        </g>
        <g>
          <polygon points="31.157 47.729 31.788 47.737 31.22 48.013 31.157 47.729 31.157 47.729" fill="#0c0d0b"/>
          <polygon points="30.985 46.957 30.417 47.233 31.048 47.241 30.985 46.957 30.985 46.957" fill="#0c0d0b"/>
        </g>
        <g>
          <polygon points="33.01 49.062 33.225 48.468 33.299 49.095 33.01 49.062 33.01 49.062" fill="#0c0d0b"/>
          <polygon points="32.225 48.971 32.299 49.598 32.514 49.005 32.225 48.971 32.225 48.971" fill="#0c0d0b"/>
        </g>
        <g>
          <polygon points="35.428 49.046 35.563 48.429 35.719 49.041 35.428 49.046 35.428 49.046" fill="#0c0d0b"/>
          <polygon points="34.638 49.06 34.794 49.672 34.929 49.055 34.638 49.06 34.638 49.06" fill="#0c0d0b"/>
        </g>
        <g>
          <polygon points="37.862 49.046 37.996 48.429 38.153 49.041 37.862 49.046 37.862 49.046" fill="#0c0d0b"/>
          <polygon points="37.071 49.06 37.228 49.672 37.362 49.055 37.071 49.06 37.071 49.06" fill="#0c0d0b"/>
        </g>
        <g>
          <polygon points="40.364 49.046 40.499 48.429 40.655 49.041 40.364 49.046 40.364 49.046" fill="#0c0d0b"/>
          <polygon points="39.574 49.06 39.73 49.672 39.865 49.055 39.574 49.06 39.574 49.06" fill="#0c0d0b"/>
        </g>
        <g>
          <polygon points="42.769 49.046 42.904 48.429 43.06 49.041 42.769 49.046 42.769 49.046" fill="#0c0d0b"/>
          <polygon points="41.979 49.06 42.135 49.672 42.27 49.055 41.979 49.06 41.979 49.06" fill="#0c0d0b"/>
        </g>
        <g>
          <polygon points="45.224 49.046 45.358 48.429 45.515 49.041 45.224 49.046 45.224 49.046" fill="#0c0d0b"/>
          <polygon points="44.433 49.06 44.59 49.672 44.724 49.055 44.433 49.06 44.433 49.06" fill="#0c0d0b"/>
        </g>
        <g>
          <polygon points="47.678 49.046 47.813 48.429 47.969 49.041 47.678 49.046 47.678 49.046" fill="#0c0d0b"/>
          <polygon points="46.888 49.06 47.044 49.672 47.179 49.055 46.888 49.06 46.888 49.06" fill="#0c0d0b"/>
        </g>
        <g>
          <polygon points="50.151 49.046 50.286 48.429 50.442 49.041 50.151 49.046 50.151 49.046" fill="#0c0d0b"/>
          <polygon points="49.361 49.06 49.517 49.672 49.652 49.055 49.361 49.06 49.361 49.06" fill="#0c0d0b"/>
        </g>
        <g>
          <polygon points="52.614 49.046 52.749 48.429 52.905 49.041 52.614 49.046 52.614 49.046" fill="#0c0d0b"/>
          <polygon points="51.824 49.06 51.98 49.672 52.115 49.055 51.824 49.06 51.824 49.06" fill="#0c0d0b"/>
        </g>
        <g>
          <polygon points="55.025 49.046 55.159 48.429 55.316 49.041 55.025 49.046 55.025 49.046" fill="#0c0d0b"/>
          <polygon points="54.235 49.06 54.391 49.672 54.526 49.055 54.235 49.06 54.235 49.06" fill="#0c0d0b"/>
        </g>
        <g>
          <polygon points="57.481 49.046 57.615 48.429 57.772 49.041 57.481 49.046 57.481 49.046" fill="#0c0d0b"/>
          <polygon points="56.69 49.06 56.847 49.672 56.981 49.055 56.69 49.06 56.69 49.06" fill="#0c0d0b"/>
        </g>
        <g>
          <polygon points="59.905 49.046 60.04 48.429 60.196 49.041 59.905 49.046 59.905 49.046" fill="#0c0d0b"/>
          <polygon points="59.115 49.06 59.271 49.672 59.406 49.055 59.115 49.06 59.115 49.06" fill="#0c0d0b"/>
        </g>
        <g>
          <polygon points="62.373 49.046 62.508 48.429 62.664 49.041 62.373 49.046 62.373 49.046" fill="#0c0d0b"/>
          <polygon points="61.583 49.06 61.739 49.672 61.874 49.055 61.583 49.06 61.583 49.06" fill="#0c0d0b"/>
        </g>
        <g>
          <polygon points="64.812 49.046 64.947 48.429 65.103 49.041 64.812 49.046 64.812 49.046" fill="#0c0d0b"/>
          <polygon points="64.022 49.06 64.178 49.672 64.313 49.055 64.022 49.06 64.022 49.06" fill="#0c0d0b"/>
        </g>
        <g>
          <polygon points="67.231 49.041 67.354 48.422 67.522 49.03 67.231 49.041 67.231 49.041" fill="#0c0d0b"/>
          <polygon points="66.441 49.07 66.609 49.679 66.732 49.059 66.441 49.07 66.441 49.07" fill="#0c0d0b"/>
        </g>
        <g>
          <polygon points="69.044 47.594 68.554 47.197 69.17 47.332 69.044 47.594 69.044 47.594" fill="#0c0d0b"/>
          <polygon points="68.701 48.307 69.318 48.442 68.827 48.044 68.701 48.307 68.701 48.307" fill="#0c0d0b"/>
        </g>
        <g>
          <polygon points="69.169 45.174 68.552 45.04 69.163 44.883 69.169 45.174 69.169 45.174" fill="#0c0d0b"/>
          <polygon points="69.183 45.965 69.794 45.808 69.178 45.674 69.183 45.965 69.183 45.965" fill="#0c0d0b"/>
        </g>
        <g>
          <polygon points="69.169 42.711 68.552 42.577 69.163 42.42 69.169 42.711 69.169 42.711" fill="#0c0d0b"/>
          <polygon points="69.183 43.502 69.794 43.345 69.178 43.211 69.183 43.502 69.183 43.502" fill="#0c0d0b"/>
        </g>
        <g>
          <polygon points="69.169 40.281 68.552 40.147 69.163 39.99 69.169 40.281 69.169 40.281" fill="#0c0d0b"/>
          <polygon points="69.183 41.072 69.794 40.915 69.178 40.781 69.183 41.072 69.183 41.072" fill="#0c0d0b"/>
        </g>
        <g>
          <polygon points="69.169 37.849 68.552 37.714 69.163 37.558 69.169 37.849 69.169 37.849" fill="#0c0d0b"/>
          <polygon points="69.183 38.639 69.794 38.483 69.178 38.348 69.183 38.639 69.183 38.639" fill="#0c0d0b"/>
        </g>
        <g>
          <polygon points="69.169 35.376 68.552 35.241 69.163 35.085 69.169 35.376 69.169 35.376" fill="#0c0d0b"/>
          <polygon points="69.183 36.166 69.794 36.009 69.178 35.875 69.183 36.166 69.183 36.166" fill="#0c0d0b"/>
        </g>
      </g>
    </g>
  </g>
  <g id="Hojas">
    <path d="M58.401,19.46c-.034-.166-.081-.331-.142-.489-.026-.074-.064-.157-.096-.228-.13-.272-.277-.506-.481-.755-.173-.204-.349-.385-.573-.558-.053.011-.161.035-.213.048-.432.104-.883.231-1.286.36-.033.01-.095.031-.128.041-.117.038-.235.079-.35.121-.063.023-.133.05-.195.074-.398.163-.726.318-1,.595-.107.109-.191.237-.27.367-.279.454-.424.959-.6,1.478-.077.231-.164.472-.257.698-.083.196-.177.395-.28.581-.486.899-1.285,1.598-2.299,1.805-.09.019-.18.036-.271.052-.091-.016-.181-.033-.271-.052-1.014-.207-1.812-.906-2.299-1.805-.103-.186-.197-.386-.28-.581-.093-.226-.18-.467-.257-.698-.177-.52-.321-1.024-.6-1.478-.079-.13-.164-.258-.27-.367-.274-.276-.602-.432-1-.595-.062-.025-.132-.051-.195-.074-.115-.042-.233-.083-.35-.121-.032-.011-.094-.032-.128-.041-.403-.129-.854-.256-1.286-.36-.052-.012-.16-.037-.213-.048-.224.173-.4.354-.573.558-.204.249-.351.483-.481.755-.032.071-.07.155-.096.228-.061.159-.109.323-.142.489-.139.674-.033,1.383.296,1.985.092.169.201.327.318.478.144.185.303.36.474.52.986.92,2.225,1.251,3.546,1.272.681.014,1.397-.048,2.068-.063.37-.009.741-.002,1.108.029.06.005.122.011.184.018.289,0,.592,0,.887,0,.064-.007.127-.013.189-.018.367-.031.738-.037,1.108-.029.671.015,1.387.077,2.068.063,1.321-.021,2.559-.352,3.546-1.272.171-.16.33-.335.474-.52.117-.152.226-.31.318-.478.329-.603.435-1.311.296-1.985Z" fill="#0c0d0b"/>
    <path d="M58.401,30.849c-.034-.166-.081-.331-.142-.489-.026-.074-.064-.157-.096-.228-.13-.272-.277-.506-.481-.755-.173-.204-.349-.385-.573-.558-.053.011-.161.035-.213.048-.432.104-.883.231-1.286.36-.033.01-.095.031-.128.041-.117.038-.235.079-.35.121-.063.023-.133.05-.195.074-.398.163-.726.318-1,.595-.107.109-.191.237-.27.367-.279.454-.424.959-.6,1.478-.077.231-.164.472-.257.698-.083.196-.177.395-.28.581-.486.899-1.285,1.598-2.299,1.805-.09.019-.18.036-.271.052-.091-.016-.181-.033-.271-.052-1.014-.207-1.812-.906-2.299-1.805-.103-.186-.197-.386-.28-.581-.093-.226-.18-.467-.257-.698-.177-.52-.321-1.024-.6-1.478-.079-.13-.164-.258-.27-.367-.274-.276-.602-.432-1-.595-.062-.025-.132-.051-.195-.074-.115-.042-.233-.083-.35-.121-.032-.011-.094-.032-.128-.041-.403-.129-.854-.256-1.286-.36-.052-.012-.16-.037-.213-.048-.224.173-.4.354-.573.558-.204.249-.351.483-.481.755-.032.071-.07.155-.096.228-.061.159-.109.323-.142.489-.139.674-.033,1.383.296,1.985.092.169.201.327.318.478.144.185.303.36.474.52.986.92,2.225,1.251,3.546,1.272.681.014,1.397-.048,2.068-.063.37-.009.741-.002,1.108.029.06.005.122.011.184.018.289,0,.592,0,.887,0,.064-.007.127-.013.189-.018.367-.031.738-.037,1.108-.029.671.015,1.387.077,2.068.063,1.321-.021,2.559-.352,3.546-1.272.171-.16.33-.335.474-.52.117-.152.226-.31.318-.478.329-.603.435-1.311.296-1.985Z" fill="#0c0d0b"/>
    <path d="M58.401,42.238c-.034-.166-.081-.331-.142-.489-.026-.074-.064-.157-.096-.228-.13-.272-.277-.506-.481-.755-.173-.204-.349-.385-.573-.558-.053.011-.161.035-.213.048-.432.104-.883.231-1.286.36-.033.01-.095.031-.128.041-.117.038-.235.079-.35.121-.063.023-.133.05-.195.074-.398.163-.726.318-1,.595-.107.109-.191.237-.27.367-.279.454-.424.959-.6,1.478-.077.231-.164.472-.257.698-.083.196-.177.395-.28.581-.486.899-1.285,1.598-2.299,1.805-.09.019-.18.036-.271.052-.091-.016-.181-.033-.271-.052-1.014-.207-1.812-.906-2.299-1.805-.103-.186-.197-.386-.28-.581-.093-.226-.18-.467-.257-.698-.177-.52-.321-1.024-.6-1.478-.079-.13-.164-.258-.27-.367-.274-.276-.602-.432-1-.595-.062-.025-.132-.051-.195-.074-.115-.042-.233-.083-.35-.121-.032-.011-.094-.032-.128-.041-.403-.129-.854-.256-1.286-.36-.052-.012-.16-.037-.213-.048-.224.173-.4.354-.573.558-.204.249-.351.483-.481.755-.032.071-.07.155-.096.228-.061.159-.109.323-.142.489-.139.674-.033,1.383.296,1.985.092.169.201.327.318.478.144.185.303.36.474.52.986.92,2.225,1.251,3.546,1.272.681.014,1.397-.048,2.068-.063.37-.009.741-.002,1.108.029.06.005.122.011.184.018.289,0,.592,0,.887,0,.064-.007.127-.013.189-.018.367-.031.738-.037,1.108-.029.671.015,1.387.077,2.068.063,1.321-.021,2.559-.352,3.546-1.272.171-.16.33-.335.474-.52.117-.152.226-.31.318-.478.329-.603.435-1.311.296-1.985Z" fill="#0c0d0b"/>
    <path d="M58.401,60.257c-.034-.166-.081-.331-.142-.489-.026-.074-.064-.157-.096-.228-.13-.272-.277-.506-.481-.755-.173-.204-.349-.385-.573-.558-.053.011-.161.035-.213.048-.432.104-.883.231-1.286.36-.033.01-.095.031-.128.041-.117.038-.235.079-.35.121-.063.023-.133.05-.195.074-.398.163-.726.318-1,.595-.107.109-.191.237-.27.367-.279.454-.424.959-.6,1.478-.077.231-.164.472-.257.698-.083.196-.177.395-.28.581-.486.899-1.285,1.598-2.299,1.805-.09.019-.18.036-.271.052-.091-.016-.181-.033-.271-.052-1.014-.207-1.812-.906-2.299-1.805-.103-.186-.197-.386-.28-.581-.093-.226-.18-.467-.257-.698-.177-.52-.321-1.024-.6-1.478-.079-.13-.164-.258-.27-.367-.274-.276-.602-.432-1-.595-.062-.025-.132-.051-.195-.074-.115-.042-.233-.083-.35-.121-.032-.011-.094-.032-.128-.041-.403-.129-.854-.256-1.286-.36-.052-.012-.16-.037-.213-.048-.224.173-.4.354-.573.558-.204.249-.351.483-.481.755-.032.071-.07.155-.096.228-.061.159-.109.323-.142.489-.139.674-.033,1.383.296,1.985.092.169.201.327.318.478.144.185.303.36.474.52.986.92,2.225,1.251,3.546,1.272.681.014,1.397-.048,2.068-.063.37-.009.741-.002,1.108.029.06.005.122.011.184.018.289,0,.592,0,.887,0,.064-.007.127-.013.189-.018.367-.031.738-.037,1.108-.029.671.015,1.387.077,2.068.063,1.321-.021,2.559-.352,3.546-1.272.171-.16.33-.335.474-.52.117-.152.226-.31.318-.478.329-.603.435-1.311.296-1.985Z" fill="#0c0d0b"/>
    <path d="M58.401,71.646c-.034-.166-.081-.331-.142-.489-.026-.074-.064-.157-.096-.228-.13-.272-.277-.506-.481-.755-.173-.204-.349-.385-.573-.558-.053.011-.161.035-.213.048-.432.104-.883.231-1.286.36-.033.01-.095.031-.128.041-.117.038-.235.079-.35.121-.063.023-.133.05-.195.074-.398.163-.726.318-1,.595-.107.109-.191.237-.27.367-.279.454-.424.959-.6,1.478-.077.231-.164.472-.257.698-.083.196-.177.395-.28.581-.486.899-1.285,1.598-2.299,1.805-.09.019-.18.036-.271.052-.091-.016-.181-.033-.271-.052-1.014-.207-1.812-.906-2.299-1.805-.103-.186-.197-.386-.28-.581-.093-.226-.18-.467-.257-.698-.177-.52-.321-1.024-.6-1.478-.079-.13-.164-.258-.27-.367-.274-.276-.602-.432-1-.595-.062-.025-.132-.051-.195-.074-.115-.042-.233-.083-.35-.121-.032-.011-.094-.032-.128-.041-.403-.129-.854-.256-1.286-.36-.052-.012-.16-.037-.213-.048-.224.173-.4.354-.573.558-.204.249-.351.483-.481.755-.032.071-.07.155-.096.228-.061.159-.109.323-.142.489-.139.674-.033,1.383.296,1.985.092.169.201.327.318.478.144.185.303.36.474.52.986.92,2.225,1.251,3.546,1.272.681.014,1.397-.048,2.068-.063.37-.009.741-.002,1.108.029.06.005.122.011.184.018.289,0,.592,0,.887,0,.064-.007.127-.013.189-.018.367-.031.738-.037,1.108-.029.671.015,1.387.077,2.068.063,1.321-.021,2.559-.352,3.546-1.272.171-.16.33-.335.474-.52.117-.152.226-.31.318-.478.329-.603.435-1.311.296-1.985Z" fill="#0c0d0b"/>
    <path d="M41.479,77.494c-.027-.133-.065-.265-.114-.392-.021-.059-.051-.125-.077-.183-.104-.218-.222-.405-.385-.604-.139-.164-.279-.308-.458-.446-.042.008-.129.028-.171.038-.346.083-.706.185-1.029.288-.027.008-.076.025-.102.033-.093.031-.188.063-.28.097-.05.019-.106.04-.156.059-.318.13-.581.255-.8.476-.085.088-.153.189-.216.294-.223.364-.339.767-.48,1.183-.061.185-.131.378-.206.558-.066.157-.141.316-.224.465-.389.719-1.028,1.278-1.839,1.444-.072.015-.144.029-.217.042-.072-.013-.145-.027-.217-.042-.811-.166-1.45-.725-1.839-1.444-.082-.149-.157-.308-.224-.465-.074-.181-.144-.373-.206-.558-.141-.416-.257-.819-.48-1.183-.064-.104-.131-.206-.216-.294-.219-.221-.481-.346-.8-.476-.05-.02-.105-.041-.156-.059-.092-.034-.187-.066-.28-.097-.026-.009-.075-.025-.102-.033-.322-.103-.683-.204-1.029-.288-.042-.01-.128-.03-.171-.038-.179.138-.32.283-.458.446-.163.199-.281.387-.385.604-.025.057-.056.124-.077.183-.049.127-.087.258-.114.392-.111.539-.027,1.106.237,1.588.073.135.161.261.254.383.115.148.242.288.379.416.789.736,1.78,1.001,2.837,1.018.545.012,1.118-.038,1.654-.05.296-.007.593-.002.887.023.048.004.097.009.147.014.231,0,.474,0,.709,0,.051-.006.102-.011.151-.015.294-.025.591-.03.887-.023.536.012,1.11.062,1.654.05,1.057-.017,2.048-.281,2.837-1.018.137-.128.264-.268.379-.416.094-.121.181-.248.254-.383.264-.482.348-1.049.237-1.588Z" fill="#0c0d0b"/>
    <path d="M72.275,77.478c-.027-.133-.065-.265-.114-.392-.021-.059-.051-.125-.077-.183-.104-.218-.222-.405-.385-.604-.139-.164-.279-.308-.458-.446-.042.008-.129.028-.171.038-.346.083-.706.185-1.029.288-.027.008-.076.025-.102.033-.093.031-.188.063-.28.097-.05.019-.106.04-.156.059-.318.13-.581.255-.8.476-.085.088-.153.189-.216.294-.223.364-.339.767-.48,1.183-.061.185-.131.378-.206.558-.066.157-.141.316-.224.465-.389.719-1.028,1.278-1.839,1.444-.072.015-.144.029-.217.042-.072-.013-.145-.027-.217-.042-.811-.166-1.45-.725-1.839-1.444-.082-.149-.157-.308-.224-.465-.074-.181-.144-.373-.206-.558-.141-.416-.257-.819-.48-1.183-.064-.104-.131-.206-.216-.294-.219-.221-.481-.346-.8-.476-.05-.02-.105-.041-.156-.059-.092-.034-.187-.066-.28-.097-.026-.009-.075-.025-.102-.033-.322-.103-.683-.204-1.029-.288-.042-.01-.128-.03-.171-.038-.179.138-.32.283-.458.446-.163.199-.281.387-.385.604-.025.057-.056.124-.077.183-.049.127-.087.258-.114.392-.111.539-.027,1.106.237,1.588.073.135.161.261.254.383.115.148.242.288.379.416.789.736,1.78,1.001,2.837,1.018.545.012,1.118-.038,1.654-.05.296-.007.593-.002.887.023.048.004.097.009.147.014.231,0,.474,0,.709,0,.051-.006.102-.011.151-.015.294-.025.591-.03.887-.023.536.012,1.11.062,1.654.05,1.057-.017,2.048-.281,2.837-1.018.137-.128.264-.268.379-.416.094-.121.181-.248.254-.383.264-.482.348-1.049.237-1.588Z" fill="#0c0d0b"/>
    <path d="M74.552,40.407c-.021-.106-.052-.212-.091-.313-.017-.047-.041-.1-.061-.146-.083-.174-.177-.324-.308-.483-.111-.131-.223-.247-.367-.357-.034.007-.103.022-.136.03-.277.067-.565.148-.823.23-.021.006-.061.02-.082.026-.075.024-.151.05-.224.077-.04.015-.085.032-.125.048-.255.104-.465.204-.64.381-.068.07-.122.152-.173.235-.179.291-.271.614-.384.946-.049.148-.105.302-.164.447-.053.125-.113.253-.179.372-.311.575-.822,1.022-1.471,1.155-.058.012-.115.023-.173.033-.058-.01-.116-.021-.173-.033-.649-.133-1.16-.58-1.471-1.155-.066-.119-.126-.247-.179-.372-.059-.144-.115-.299-.164-.447-.113-.333-.206-.655-.384-.946-.051-.083-.105-.165-.173-.235-.175-.177-.385-.277-.64-.381-.04-.016-.084-.033-.125-.048-.073-.027-.149-.053-.224-.077-.021-.007-.06-.02-.082-.026-.258-.082-.546-.164-.823-.23-.033-.008-.103-.024-.136-.03-.143.111-.256.226-.367.357-.13.16-.225.309-.308.483-.02.046-.045.099-.061.146-.039.102-.07.207-.091.313-.089.432-.021.885.189,1.271.059.108.129.209.203.306.092.118.194.23.303.333.631.589,1.424.801,2.269.814.436.009.894-.031,1.323-.04.237-.005.474-.001.709.019.039.003.078.007.118.011.185,0,.379,0,.567,0,.041-.005.081-.009.121-.012.235-.02.472-.024.709-.019.429.01.888.049,1.323.04.845-.014,1.638-.225,2.269-.814.11-.102.211-.214.303-.333.075-.097.145-.198.203-.306.211-.386.278-.839.189-1.271Z" fill="#0c0d0b"/>
    <path d="M74.416,44.709c-.021-.106-.052-.212-.091-.313-.017-.047-.041-.1-.061-.146-.083-.174-.177-.324-.308-.483-.111-.131-.223-.247-.367-.357-.034.007-.103.022-.136.03-.277.067-.565.148-.823.23-.021.006-.061.02-.082.026-.075.024-.151.05-.224.077-.04.015-.085.032-.125.048-.255.104-.465.204-.64.381-.068.07-.122.152-.173.235-.179.291-.271.614-.384.946-.049.148-.105.302-.164.447-.053.125-.113.253-.179.372-.311.575-.822,1.022-1.471,1.155-.058.012-.115.023-.173.033-.058-.01-.116-.021-.173-.033-.649-.133-1.16-.58-1.471-1.155-.066-.119-.126-.247-.179-.372-.059-.144-.115-.299-.164-.447-.113-.333-.206-.655-.384-.946-.051-.083-.105-.165-.173-.235-.175-.177-.385-.277-.64-.381-.04-.016-.084-.033-.125-.048-.073-.027-.149-.053-.224-.077-.021-.007-.06-.02-.082-.026-.258-.082-.546-.164-.823-.23-.033-.008-.103-.024-.136-.03-.143.111-.256.226-.367.357-.13.16-.225.309-.308.483-.02.046-.045.099-.061.146-.039.102-.07.207-.091.313-.089.432-.021.885.189,1.271.059.108.129.209.203.306.092.118.194.23.303.333.631.589,1.424.801,2.269.814.436.009.894-.031,1.323-.04.237-.005.474-.001.709.019.039.003.078.007.118.011.185,0,.379,0,.567,0,.041-.005.081-.009.121-.012.235-.02.472-.024.709-.019.429.01.888.049,1.323.04.845-.014,1.638-.225,2.269-.814.11-.102.211-.214.303-.333.075-.097.145-.198.203-.306.211-.386.278-.839.189-1.271Z" fill="#0c0d0b"/>
    <path d="M25.448,40.407c.021-.106.052-.212.091-.313.017-.047.041-.1.061-.146.083-.174.177-.324.308-.483.111-.131.223-.247.367-.357.034.007.103.022.136.03.277.067.565.148.823.23.021.006.061.02.082.026.075.024.151.05.224.077.04.015.085.032.125.048.255.104.465.204.64.381.068.07.122.152.173.235.179.291.271.614.384.946.049.148.105.302.164.447.053.125.113.253.179.372.311.575.822,1.022,1.471,1.155.058.012.115.023.173.033.058-.01.116-.021.173-.033.649-.133,1.16-.58,1.471-1.155.066-.119.126-.247.179-.372.059-.144.115-.299.164-.447.113-.333.206-.655.384-.946.051-.083.105-.165.173-.235.175-.177.385-.277.64-.381.04-.016.084-.033.125-.048.073-.027.149-.053.224-.077.021-.007.06-.02.082-.026.258-.082.546-.164.823-.23.033-.008.103-.024.136-.03.143.111.256.226.367.357.13.16.225.309.308.483.02.046.045.099.061.146.039.102.07.207.091.313.089.432.021.885-.189,1.271-.059.108-.129.209-.203.306-.092.118-.194.23-.303.333-.631.589-1.424.801-2.269.814-.436.009-.894-.031-1.323-.04-.237-.005-.474-.001-.709.019-.039.003-.078.007-.118.011-.185,0-.379,0-.567,0-.041-.005-.081-.009-.121-.012-.235-.02-.472-.024-.709-.019-.429.01-.888.049-1.323.04-.845-.014-1.638-.225-2.269-.814-.11-.102-.211-.214-.303-.333-.075-.097-.145-.198-.203-.306-.211-.386-.278-.839-.189-1.271Z" fill="#0c0d0b"/>
    <path d="M25.584,44.709c.021-.106.052-.212.091-.313.017-.047.041-.1.061-.146.083-.174.177-.324.308-.483.111-.131.223-.247.367-.357.034.007.103.022.136.03.277.067.565.148.823.23.021.006.061.02.082.026.075.024.151.05.224.077.04.015.085.032.125.048.255.104.465.204.64.381.068.07.122.152.173.235.179.291.271.614.384.946.049.148.105.302.164.447.053.125.113.253.179.372.311.575.822,1.022,1.471,1.155.058.012.115.023.173.033.058-.01.116-.021.173-.033.649-.133,1.16-.58,1.471-1.155.066-.119.126-.247.179-.372.059-.144.115-.299.164-.447.113-.333.206-.655.384-.946.051-.083.105-.165.173-.235.175-.177.385-.277.64-.381.04-.016.084-.033.125-.048.073-.027.149-.053.224-.077.021-.007.06-.02.082-.026.258-.082.546-.164.823-.23.033-.008.103-.024.136-.03.143.111.256.226.367.357.13.16.225.309.308.483.02.046.045.099.061.146.039.102.07.207.091.313.089.432.021.885-.189,1.271-.059.108-.129.209-.203.306-.092.118-.194.23-.303.333-.631.589-1.424.801-2.269.814-.436.009-.894-.031-1.323-.04-.237-.005-.474-.001-.709.019-.039.003-.078.007-.118.011-.185,0-.379,0-.567,0-.041-.005-.081-.009-.121-.012-.235-.02-.472-.024-.709-.019-.429.01-.888.049-1.323.04-.845-.014-1.638-.225-2.269-.814-.11-.102-.211-.214-.303-.333-.075-.097-.145-.198-.203-.306-.211-.386-.278-.839-.189-1.271Z" fill="#0c0d0b"/>
  </g>
  <g id="Flores">
    <g>
      <g>
        <ellipse cx="69.079" cy="26.337" rx="1.763" ry="1.234" fill="#0c0d0b"/>
        <path d="M73.631,34.53c-1.409-.648-3.121.233-3.961,1.433-.179.218-.342.56-.44.636v-1.343c.385-1.099,1.605-1.584,2.852-2.021.853-.278,2.814-.821,2.476-1.976-.661-.965-2.245-.85-3.179-.242-1.046.657-1.653,1.69-2.149,2.446v-1.751c.404-.975,1.433-1.459,2.816-1.95.586-.211,1.067-.193,1.364-.53,1.48-2.678-1.735-4.21-3.677-.201-.106.237-.386.744-.504,1.073v-2.03h-.302v2.644c-.305-.794-.844-2.609-1.713-2.942-1.474-.332-1.077,1.4-.532,2.144.399.63,1.05,1.226,1.554,1.657.506.387.693.836.69,1.484-.007.201-.003.423,0,.651v.624c-.006.209-.019.41-.05.589-.046.08-.262-.083-.308-.146-.674-1.1-1.379-2.768-2.24-3.853-.786-1.185-2.808-.257-1.945,1.123.509.907,1.468,1.396,2.283,2.069.566.553,1.872,1.129,2.26,1.899v.721c-.206.137-.638-.086-.917-.256-1.306-.86-6.967-4.797-6.549-1.024.555,2.284,2.798,2.935,4.779,2.764,2.333-.05,5.158.102,6.969-.065,2.066-.596,2.616-2.65.421-3.627Z" fill="#0c0d0b"/>
      </g>
      <circle cx="69.079" cy="26.463" r=".554" fill="#cb1e1a"/>
    </g>
    <g>
      <g>
        <ellipse cx="30.921" cy="26.337" rx="1.763" ry="1.234" fill="#0c0d0b"/>
        <path d="M26.369,34.53c1.409-.648,3.121.233,3.961,1.433.179.218.342.56.44.636v-1.343c-.385-1.099-1.605-1.584-2.852-2.021-.853-.278-2.814-.821-2.476-1.976.661-.965,2.245-.85,3.179-.242,1.046.657,1.653,1.69,2.149,2.446v-1.751c-.404-.975-1.433-1.459-2.816-1.95-.586-.211-1.067-.193-1.364-.53-1.48-2.678,1.735-4.21,3.677-.201.106.237.386.744.504,1.073v-2.03h.302v2.644c.305-.794.844-2.609,1.713-2.942,1.474-.332,1.077,1.4.532,2.144-.399.63-1.05,1.226-1.554,1.657-.506.387-.693.836-.69,1.484.007.201.003.423,0,.651v.624c.006.209.019.41.05.589.046.08.262-.083.308-.146.674-1.1,1.379-2.768,2.24-3.853.786-1.185,2.808-.257,1.945,1.123-.509.907-1.468,1.396-2.283,2.069-.566.553-1.872,1.129-2.26,1.899v.721c.206.137.638-.086.917-.256,1.306-.86,6.967-4.797,6.549-1.024-.555,2.284-2.798,2.935-4.779,2.764-2.333-.05-5.158.102-6.969-.065-2.066-.596-2.616-2.65-.421-3.627Z" fill="#0c0d0b"/>
      </g>
      <circle cx="30.921" cy="26.463" r=".554" fill="#cb1e1a"/>
    </g>
    <g>
      <g>
        <polygon points="52.795 8.608 49.977 11.427 49.977 10.553 49.977 10.544 49.977 1.021 49.93 1.021 49.93 10.497 47.115 7.682 47.082 7.715 49.93 10.563 49.93 15.657 49.934 15.657 49.934 16.583 49.981 16.583 49.981 11.489 52.828 8.641 52.795 8.608" fill="#0c0d0b"/>
        <circle cx="47.08" cy="7.621" r=".813" fill="#0c0d0b"/>
        <circle cx="49.953" cy="1.021" r="1.016" fill="#0c0d0b"/>
        <circle cx="51.332" cy="4.239" r="1.016" fill="#0c0d0b"/>
        <g>
          <circle cx="52.514" cy="9.013" r=".542" fill="#0c0d0b"/>
          <circle cx="52.72" cy="7.678" r=".542" fill="#0c0d0b"/>
          <circle cx="54.074" cy="8.984" r=".813" fill="#0c0d0b"/>
          <circle cx="54.485" cy="6.915" r="1.016" fill="#0c0d0b"/>
        </g>
        <g>
          <circle cx="49.904" cy="12.97" r=".542" fill="#0c0d0b"/>
          <circle cx="50.109" cy="11.635" r=".542" fill="#0c0d0b"/>
          <circle cx="51.464" cy="12.94" r=".813" fill="#0c0d0b"/>
          <circle cx="51.874" cy="10.872" r="1.016" fill="#0c0d0b"/>
        </g>
        <g>
          <circle cx="49.428" cy="8.587" r=".542" fill="#0c0d0b"/>
          <circle cx="49.633" cy="7.251" r=".542" fill="#0c0d0b"/>
          <circle cx="50.988" cy="8.557" r=".813" fill="#0c0d0b"/>
          <circle cx="51.398" cy="6.488" r="1.016" fill="#0c0d0b"/>
        </g>
        <g>
          <circle cx="49.114" cy="4.203" r=".542" fill="#0c0d0b"/>
          <circle cx="48.909" cy="2.868" r=".542" fill="#0c0d0b"/>
          <circle cx="47.554" cy="4.173" r=".813" fill="#0c0d0b"/>
          <circle cx="47.144" cy="2.104" r="1.016" fill="#0c0d0b"/>
        </g>
        <circle cx="48.769" cy="12.034" r=".542" fill="#0c0d0b"/>
        <circle cx="48.564" cy="10.699" r=".542" fill="#0c0d0b"/>
        <circle cx="48.369" cy="6.102" r=".542" fill="#0c0d0b"/>
        <circle cx="51.259" cy="2.326" r=".542" fill="#0c0d0b"/>
        <circle cx="53.262" cy="5.478" r=".542" fill="#0c0d0b"/>
        <circle cx="50.963" cy="14.787" r=".542" fill="#0c0d0b"/>
        <circle cx="49.896" cy="16.462" r=".542" fill="#0c0d0b"/>
        <circle cx="48.944" cy="14.246" r=".542" fill="#0c0d0b"/>
        <circle cx="48.024" cy="13.375" r=".542" fill="#0c0d0b"/>
        <circle cx="46.399" cy="6.102" r=".542" fill="#0c0d0b"/>
        <circle cx="47.209" cy="12.004" r=".813" fill="#0c0d0b"/>
        <circle cx="46.799" cy="9.936" r="1.016" fill="#0c0d0b"/>
      </g>
      <circle cx="49.962" cy="1.025" r=".68" fill="#cb1e1a"/>
      <circle cx="47.157" cy="2.13" r=".68" fill="#cb1e1a"/>
      <circle cx="51.322" cy="4.255" r=".68" fill="#cb1e1a"/>
      <circle cx="46.817" cy="9.949" r=".68" fill="#cb1e1a"/>
      <circle cx="51.917" cy="10.884" r=".68" fill="#cb1e1a"/>
    </g>
    <g>
      <g>
        <polygon points="67.383 70.601 65.973 72.011 65.973 71.574 65.973 71.569 65.973 66.808 65.95 66.808 65.95 71.546 64.543 70.139 64.526 70.155 65.95 71.579 65.95 74.126 65.952 74.126 65.952 74.589 65.976 74.589 65.976 72.042 67.399 70.618 67.383 70.601" fill="#0c0d0b"/>
        <circle cx="64.525" cy="70.108" r=".406" fill="#0c0d0b"/>
        <circle cx="65.962" cy="66.808" r=".508" fill="#0c0d0b"/>
        <circle cx="66.651" cy="68.417" r=".508" fill="#0c0d0b"/>
        <g>
          <circle cx="67.242" cy="70.804" r=".271" fill="#0c0d0b"/>
          <circle cx="67.345" cy="70.137" r=".271" fill="#0c0d0b"/>
          <circle cx="68.022" cy="70.789" r=".406" fill="#0c0d0b"/>
          <circle cx="68.228" cy="69.755" r=".508" fill="#0c0d0b"/>
        </g>
        <g>
          <circle cx="65.937" cy="72.783" r=".271" fill="#0c0d0b"/>
          <circle cx="66.04" cy="72.115" r=".271" fill="#0c0d0b"/>
          <circle cx="66.717" cy="72.768" r=".406" fill="#0c0d0b"/>
          <circle cx="66.922" cy="71.733" r=".508" fill="#0c0d0b"/>
        </g>
        <g>
          <circle cx="65.699" cy="70.591" r=".271" fill="#0c0d0b"/>
          <circle cx="65.802" cy="69.923" r=".271" fill="#0c0d0b"/>
          <circle cx="66.479" cy="70.576" r=".406" fill="#0c0d0b"/>
          <circle cx="66.684" cy="69.542" r=".508" fill="#0c0d0b"/>
        </g>
        <g>
          <circle cx="65.542" cy="68.399" r=".271" fill="#0c0d0b"/>
          <circle cx="65.439" cy="67.731" r=".271" fill="#0c0d0b"/>
          <circle cx="64.762" cy="68.384" r=".406" fill="#0c0d0b"/>
          <circle cx="64.557" cy="67.35" r=".508" fill="#0c0d0b"/>
        </g>
        <circle cx="65.37" cy="72.315" r=".271" fill="#0c0d0b"/>
        <circle cx="65.267" cy="71.647" r=".271" fill="#0c0d0b"/>
        <circle cx="65.17" cy="69.349" r=".271" fill="#0c0d0b"/>
        <circle cx="66.614" cy="67.461" r=".271" fill="#0c0d0b"/>
        <circle cx="67.616" cy="69.037" r=".271" fill="#0c0d0b"/>
        <circle cx="66.467" cy="73.691" r=".271" fill="#0c0d0b"/>
        <circle cx="65.933" cy="74.528" r=".271" fill="#0c0d0b"/>
        <circle cx="65.457" cy="73.42" r=".271" fill="#0c0d0b"/>
        <circle cx="64.997" cy="72.985" r=".271" fill="#0c0d0b"/>
        <circle cx="64.185" cy="69.349" r=".271" fill="#0c0d0b"/>
        <circle cx="64.59" cy="72.3" r=".406" fill="#0c0d0b"/>
        <circle cx="64.385" cy="71.265" r=".508" fill="#0c0d0b"/>
      </g>
      <circle cx="65.966" cy="66.81" r=".34" fill="#cb1e1a"/>
      <circle cx="64.564" cy="67.362" r=".34" fill="#cb1e1a"/>
      <circle cx="66.646" cy="68.425" r=".34" fill="#cb1e1a"/>
      <circle cx="64.394" cy="71.272" r=".34" fill="#cb1e1a"/>
      <circle cx="66.944" cy="71.74" r=".34" fill="#cb1e1a"/>
    </g>
    <g>
      <g>
        <polygon points="35.871 70.601 34.461 72.011 34.461 71.574 34.461 71.569 34.461 66.808 34.438 66.808 34.438 71.546 33.031 70.139 33.014 70.155 34.438 71.579 34.438 74.126 34.44 74.126 34.44 74.589 34.463 74.589 34.463 72.042 35.887 70.618 35.871 70.601" fill="#0c0d0b"/>
        <circle cx="33.013" cy="70.108" r=".406" fill="#0c0d0b"/>
        <circle cx="34.45" cy="66.808" r=".508" fill="#0c0d0b"/>
        <circle cx="35.139" cy="68.417" r=".508" fill="#0c0d0b"/>
        <g>
          <circle cx="35.73" cy="70.804" r=".271" fill="#0c0d0b"/>
          <circle cx="35.833" cy="70.137" r=".271" fill="#0c0d0b"/>
          <circle cx="36.51" cy="70.789" r=".406" fill="#0c0d0b"/>
          <circle cx="36.716" cy="69.755" r=".508" fill="#0c0d0b"/>
        </g>
        <g>
          <circle cx="34.425" cy="72.783" r=".271" fill="#0c0d0b"/>
          <circle cx="34.528" cy="72.115" r=".271" fill="#0c0d0b"/>
          <circle cx="35.205" cy="72.768" r=".406" fill="#0c0d0b"/>
          <circle cx="35.41" cy="71.733" r=".508" fill="#0c0d0b"/>
        </g>
        <g>
          <circle cx="34.187" cy="70.591" r=".271" fill="#0c0d0b"/>
          <circle cx="34.29" cy="69.923" r=".271" fill="#0c0d0b"/>
          <circle cx="34.967" cy="70.576" r=".406" fill="#0c0d0b"/>
          <circle cx="35.172" cy="69.542" r=".508" fill="#0c0d0b"/>
        </g>
        <g>
          <circle cx="34.03" cy="68.399" r=".271" fill="#0c0d0b"/>
          <circle cx="33.927" cy="67.731" r=".271" fill="#0c0d0b"/>
          <circle cx="33.25" cy="68.384" r=".406" fill="#0c0d0b"/>
          <circle cx="33.045" cy="67.35" r=".508" fill="#0c0d0b"/>
        </g>
        <circle cx="33.858" cy="72.315" r=".271" fill="#0c0d0b"/>
        <circle cx="33.755" cy="71.647" r=".271" fill="#0c0d0b"/>
        <circle cx="33.658" cy="69.349" r=".271" fill="#0c0d0b"/>
        <circle cx="35.102" cy="67.461" r=".271" fill="#0c0d0b"/>
        <circle cx="36.104" cy="69.037" r=".271" fill="#0c0d0b"/>
        <circle cx="34.955" cy="73.691" r=".271" fill="#0c0d0b"/>
        <circle cx="34.421" cy="74.528" r=".271" fill="#0c0d0b"/>
        <circle cx="33.945" cy="73.42" r=".271" fill="#0c0d0b"/>
        <circle cx="33.485" cy="72.985" r=".271" fill="#0c0d0b"/>
        <circle cx="32.673" cy="69.349" r=".271" fill="#0c0d0b"/>
        <circle cx="33.078" cy="72.3" r=".406" fill="#0c0d0b"/>
        <circle cx="32.873" cy="71.265" r=".508" fill="#0c0d0b"/>
      </g>
      <circle cx="34.454" cy="66.81" r=".34" fill="#cb1e1a"/>
      <circle cx="33.052" cy="67.362" r=".34" fill="#cb1e1a"/>
      <circle cx="35.134" cy="68.425" r=".34" fill="#cb1e1a"/>
      <circle cx="32.882" cy="71.272" r=".34" fill="#cb1e1a"/>
      <circle cx="35.432" cy="71.74" r=".34" fill="#cb1e1a"/>
    </g>
  </g>
</svg>