<?xml version="1.0" encoding="UTF-8"?>
<svg xmlns="http://www.w3.org/2000/svg" width="275.651" height="450" viewBox="0 0 275.651 450">
  <g id="Tallo">
    <g>
      <g>
        <line x1="137.496" y1="450" x2="137.496" y2="23.568" fill="none" stroke="#0c0d0b" stroke-miterlimit="10" stroke-width="2.418"/>
        <g>
          <polygon points="137.496 442.201 133.519 441.259 137.496 440.317 137.496 442.201 137.496 442.201" fill="#0c0d0b"/>
          <polygon points="137.496 447.318 141.473 446.376 137.496 445.434 137.496 447.318 137.496 447.318" fill="#0c0d0b"/>
        </g>
        <g>
          <polygon points="137.496 426.634 133.519 425.692 137.496 424.75 137.496 426.634 137.496 426.634" fill="#0c0d0b"/>
          <polygon points="137.496 431.751 141.473 430.809 137.496 429.867 137.496 431.751 137.496 431.751" fill="#0c0d0b"/>
        </g>
        <g>
          <polygon points="137.496 411.06 133.519 410.117 137.496 409.175 137.496 411.06 137.496 411.06" fill="#0c0d0b"/>
          <polygon points="137.496 416.177 141.473 415.235 137.496 414.293 137.496 416.177 137.496 416.177" fill="#0c0d0b"/>
        </g>
        <g>
          <polygon points="137.496 395.477 133.519 394.535 137.496 393.593 137.496 395.477 137.496 395.477" fill="#0c0d0b"/>
          <polygon points="137.496 400.594 141.473 399.652 137.496 398.71 137.496 400.594 137.496 400.594" fill="#0c0d0b"/>
        </g>
        <g>
          <polygon points="137.496 379.928 133.519 378.985 137.496 378.043 137.496 379.928 137.496 379.928" fill="#0c0d0b"/>
          <polygon points="137.496 385.045 141.473 384.103 137.496 383.161 137.496 385.045 137.496 385.045" fill="#0c0d0b"/>
        </g>
        <g>
          <polygon points="137.496 364.324 133.519 363.382 137.496 362.44 137.496 364.324 137.496 364.324" fill="#0c0d0b"/>
          <polygon points="137.496 369.441 141.473 368.499 137.496 367.557 137.496 369.441 137.496 369.441" fill="#0c0d0b"/>
        </g>
        <g>
          <polygon points="137.496 348.824 133.519 347.882 137.496 346.94 137.496 348.824 137.496 348.824" fill="#0c0d0b"/>
          <polygon points="137.496 353.941 141.473 352.999 137.496 352.057 137.496 353.941 137.496 353.941" fill="#0c0d0b"/>
        </g>
        <g>
          <polygon points="137.496 333.182 133.519 332.24 137.496 331.298 137.496 333.182 137.496 333.182" fill="#0c0d0b"/>
          <polygon points="137.496 338.3 141.473 337.358 137.496 336.415 137.496 338.3 137.496 338.3" fill="#0c0d0b"/>
        </g>
        <g>
          <polygon points="137.496 317.652 133.519 316.71 137.496 315.768 137.496 317.652 137.496 317.652" fill="#0c0d0b"/>
          <polygon points="137.496 322.769 141.473 321.827 137.496 320.885 137.496 322.769 137.496 322.769" fill="#0c0d0b"/>
        </g>
        <g>
          <polygon points="137.496 302.104 133.519 301.161 137.496 300.219 137.496 302.104 137.496 302.104" fill="#0c0d0b"/>
          <polygon points="137.496 307.221 141.473 306.279 137.496 305.337 137.496 307.221 137.496 307.221" fill="#0c0d0b"/>
        </g>
        <g>
          <polygon points="137.496 286.518 133.519 285.576 137.496 284.634 137.496 286.518 137.496 286.518" fill="#0c0d0b"/>
          <polygon points="137.496 291.635 141.473 290.693 137.496 289.751 137.496 291.635 137.496 291.635" fill="#0c0d0b"/>
        </g>
        <g>
          <polygon points="137.496 270.991 133.519 270.049 137.496 269.107 137.496 270.991 137.496 270.991" fill="#0c0d0b"/>
          <polygon points="137.496 276.108 141.473 275.166 137.496 274.224 137.496 276.108 137.496 276.108" fill="#0c0d0b"/>
        </g>
        <g>
          <polygon points="137.496 255.351 133.519 254.409 137.496 253.467 137.496 255.351 137.496 255.351" fill="#0c0d0b"/>
          <polygon points="137.496 260.469 141.473 259.527 137.496 258.584 137.496 260.469 137.496 260.469" fill="#0c0d0b"/>
        </g>
        <g>
          <polygon points="137.496 239.79 133.519 238.848 137.496 237.906 137.496 239.79 137.496 239.79" fill="#0c0d0b"/>
          <polygon points="137.496 244.907 141.473 243.965 137.496 243.023 137.496 244.907 137.496 244.907" fill="#0c0d0b"/>
        </g>
        <g>
          <polygon points="137.496 224.301 133.519 223.359 137.496 222.417 137.496 224.301 137.496 224.301" fill="#0c0d0b"/>
          <polygon points="137.496 229.418 141.473 228.476 137.496 227.534 137.496 229.418 137.496 229.418" fill="#0c0d0b"/>
        </g>
        <g>
          <polygon points="137.496 208.716 133.519 207.774 137.496 206.832 137.496 208.716 137.496 208.716" fill="#0c0d0b"/>
          <polygon points="137.496 213.834 141.473 212.891 137.496 211.949 137.496 213.834 137.496 213.834" fill="#0c0d0b"/>
        </g>
        <g>
          <polygon points="137.496 193.107 133.519 192.165 137.496 191.223 137.496 193.107 137.496 193.107" fill="#0c0d0b"/>
          <polygon points="137.496 198.225 141.473 197.283 137.496 196.34 137.496 198.225 137.496 198.225" fill="#0c0d0b"/>
        </g>
        <g>
          <polygon points="137.496 177.561 133.519 176.619 137.496 175.677 137.496 177.561 137.496 177.561" fill="#0c0d0b"/>
          <polygon points="137.496 182.679 141.473 181.736 137.496 180.794 137.496 182.679 137.496 182.679" fill="#0c0d0b"/>
        </g>
        <g>
          <polygon points="137.496 162.029 133.519 161.087 137.496 160.145 137.496 162.029 137.496 162.029" fill="#0c0d0b"/>
          <polygon points="137.496 167.146 141.473 166.204 137.496 165.262 137.496 167.146 137.496 167.146" fill="#0c0d0b"/>
        </g>
        <g>
          <polygon points="137.496 146.467 133.519 145.525 137.496 144.583 137.496 146.467 137.496 146.467" fill="#0c0d0b"/>
          <polygon points="137.496 151.584 141.473 150.642 137.496 149.7 137.496 151.584 137.496 151.584" fill="#0c0d0b"/>
        </g>
        <g>
          <polygon points="137.496 130.884 133.519 129.942 137.496 129 137.496 130.884 137.496 130.884" fill="#0c0d0b"/>
          <polygon points="137.496 136.001 141.473 135.059 137.496 134.117 137.496 136.001 137.496 136.001" fill="#0c0d0b"/>
        </g>
        <g>
          <polygon points="137.496 115.378 133.519 114.436 137.496 113.494 137.496 115.378 137.496 115.378" fill="#0c0d0b"/>
          <polygon points="137.496 120.495 141.473 119.553 137.496 118.611 137.496 120.495 137.496 120.495" fill="#0c0d0b"/>
        </g>
        <g>
          <polygon points="137.496 99.73 133.519 98.788 137.496 97.846 137.496 99.73 137.496 99.73" fill="#0c0d0b"/>
          <polygon points="137.496 104.847 141.473 103.905 137.496 102.963 137.496 104.847 137.496 104.847" fill="#0c0d0b"/>
        </g>
        <g>
          <polygon points="137.496 84.196 133.519 83.254 137.496 82.312 137.496 84.196 137.496 84.196" fill="#0c0d0b"/>
          <polygon points="137.496 89.313 141.473 88.371 137.496 87.429 137.496 89.313 137.496 89.313" fill="#0c0d0b"/>
        </g>
        <g>
          <polygon points="137.496 68.611 133.519 67.669 137.496 66.727 137.496 68.611 137.496 68.611" fill="#0c0d0b"/>
          <polygon points="137.496 73.728 141.473 72.786 137.496 71.844 137.496 73.728 137.496 73.728" fill="#0c0d0b"/>
        </g>
        <g>
          <polygon points="137.496 53.058 133.519 52.116 137.496 51.174 137.496 53.058 137.496 53.058" fill="#0c0d0b"/>
          <polygon points="137.496 58.175 141.473 57.233 137.496 56.291 137.496 58.175 137.496 58.175" fill="#0c0d0b"/>
        </g>
        <g>
          <polygon points="137.496 37.489 133.519 36.547 137.496 35.605 137.496 37.489 137.496 37.489" fill="#0c0d0b"/>
          <polygon points="137.496 42.607 141.473 41.665 137.496 40.722 137.496 42.607 137.496 42.607" fill="#0c0d0b"/>
        </g>
        <g>
          <polygon points="137.496 21.951 133.519 21.009 137.496 20.067 137.496 21.951 137.496 21.951" fill="#0c0d0b"/>
          <polygon points="137.496 27.068 141.473 26.126 137.496 25.184 137.496 27.068 137.496 27.068" fill="#0c0d0b"/>
        </g>
      </g>
      <g>
        <path d="M65.76,311.789v50.146c0,7.989,6.476,14.465,14.465,14.465h116.415c7.989,0,14.465-6.476,14.465-14.465v-50.146" fill="none" stroke="#0c0d0b" stroke-miterlimit="10" stroke-width="1.209"/>
        <g>
          <polygon points="65.797 317.222 61.842 316.19 65.839 315.338 65.797 317.222 65.797 317.222" fill="#0c0d0b"/>
          <polygon points="65.68 322.338 69.678 321.486 65.723 320.454 65.68 322.338 65.68 322.338" fill="#0c0d0b"/>
        </g>
        <g>
          <polygon points="65.797 331.388 61.842 330.356 65.839 329.504 65.797 331.388 65.797 331.388" fill="#0c0d0b"/>
          <polygon points="65.68 336.504 69.678 335.653 65.723 334.62 65.68 336.504 65.68 336.504" fill="#0c0d0b"/>
        </g>
        <g>
          <polygon points="65.797 345.606 61.842 344.574 65.839 343.722 65.797 345.606 65.797 345.606" fill="#0c0d0b"/>
          <polygon points="65.68 350.722 69.678 349.87 65.723 348.838 65.68 350.722 65.68 350.722" fill="#0c0d0b"/>
        </g>
        <g>
          <polygon points="65.797 359.784 61.842 358.752 65.839 357.9 65.797 359.784 65.797 359.784" fill="#0c0d0b"/>
          <polygon points="65.68 364.9 69.678 364.049 65.723 363.016 65.68 364.9 65.68 364.9" fill="#0c0d0b"/>
        </g>
        <g>
          <polygon points="70.372 372.597 67.195 375.168 68.881 371.445 70.372 372.597 70.372 372.597" fill="#0c0d0b"/>
          <polygon points="74.421 375.726 76.107 372.004 72.93 374.574 74.421 375.726 74.421 375.726" fill="#0c0d0b"/>
        </g>
        <g>
          <polygon points="83.632 376.363 82.6 380.317 81.749 376.32 83.632 376.363 83.632 376.363" fill="#0c0d0b"/>
          <polygon points="88.748 376.479 87.897 372.482 86.864 376.436 88.748 376.479 88.748 376.479" fill="#0c0d0b"/>
        </g>
        <g>
          <polygon points="97.835 376.363 96.803 380.317 95.951 376.32 97.835 376.363 97.835 376.363" fill="#0c0d0b"/>
          <polygon points="102.951 376.479 102.099 372.482 101.067 376.436 102.951 376.479 102.951 376.479" fill="#0c0d0b"/>
        </g>
        <g>
          <polygon points="112.024 376.363 110.991 380.317 110.14 376.32 112.024 376.363 112.024 376.363" fill="#0c0d0b"/>
          <polygon points="117.139 376.479 116.288 372.482 115.256 376.436 117.139 376.479 117.139 376.479" fill="#0c0d0b"/>
        </g>
        <g>
          <polygon points="126.174 376.363 125.141 380.317 124.29 376.32 126.174 376.363 126.174 376.363" fill="#0c0d0b"/>
          <polygon points="131.289 376.479 130.438 372.482 129.406 376.436 131.289 376.479 131.289 376.479" fill="#0c0d0b"/>
        </g>
        <g>
          <polygon points="140.342 376.363 139.31 380.317 138.458 376.32 140.342 376.363 140.342 376.363" fill="#0c0d0b"/>
          <polygon points="145.458 376.479 144.606 372.482 143.574 376.436 145.458 376.479 145.458 376.479" fill="#0c0d0b"/>
        </g>
        <g>
          <polygon points="154.497 376.363 153.465 380.317 152.613 376.32 154.497 376.363 154.497 376.363" fill="#0c0d0b"/>
          <polygon points="159.613 376.479 158.762 372.482 157.729 376.436 159.613 376.479 159.613 376.479" fill="#0c0d0b"/>
        </g>
        <g>
          <polygon points="168.734 376.363 167.702 380.317 166.85 376.32 168.734 376.363 168.734 376.363" fill="#0c0d0b"/>
          <polygon points="173.85 376.479 172.998 372.482 171.966 376.436 173.85 376.479 173.85 376.479" fill="#0c0d0b"/>
        </g>
        <g>
          <polygon points="182.872 376.363 181.839 380.317 180.988 376.32 182.872 376.363 182.872 376.363" fill="#0c0d0b"/>
          <polygon points="187.987 376.479 187.136 372.482 186.104 376.436 187.987 376.479 187.987 376.479" fill="#0c0d0b"/>
        </g>
        <g>
          <polygon points="197.037 376.447 196.557 380.506 195.165 376.663 197.037 376.447 197.037 376.447" fill="#0c0d0b"/>
          <polygon points="202.121 375.861 200.729 372.018 200.249 376.077 202.121 375.861 202.121 375.861" fill="#0c0d0b"/>
        </g>
        <g>
          <polygon points="208.911 369.697 212.015 372.357 208.048 371.372 208.911 369.697 208.911 369.697" fill="#0c0d0b"/>
          <polygon points="211.256 365.149 207.29 364.164 210.393 366.823 211.256 365.149 211.256 365.149" fill="#0c0d0b"/>
        </g>
        <g>
          <polygon points="211.068 355.942 215.023 356.974 211.025 357.826 211.068 355.942 211.068 355.942" fill="#0c0d0b"/>
          <polygon points="211.185 350.826 207.187 351.678 211.142 352.71 211.185 350.826 211.185 350.826" fill="#0c0d0b"/>
        </g>
        <g>
          <polygon points="211.068 341.737 215.023 342.769 211.025 343.62 211.068 341.737 211.068 341.737" fill="#0c0d0b"/>
          <polygon points="211.185 336.621 207.187 337.472 211.142 338.505 211.185 336.621 211.185 336.621" fill="#0c0d0b"/>
        </g>
        <g>
          <polygon points="211.068 327.539 215.023 328.572 211.025 329.423 211.068 327.539 211.068 327.539" fill="#0c0d0b"/>
          <polygon points="211.185 322.424 207.187 323.275 211.142 324.307 211.185 322.424 211.185 322.424" fill="#0c0d0b"/>
        </g>
        <g>
          <polygon points="211.068 313.405 215.023 314.437 211.025 315.288 211.068 313.405 211.068 313.405" fill="#0c0d0b"/>
          <polygon points="211.185 308.289 207.187 309.14 211.142 310.173 211.185 308.289 211.185 308.289" fill="#0c0d0b"/>
        </g>
      </g>
      <g>
        <path d="M50.65,153.548v52.8c0,4.987,4.043,9.03,9.03,9.03h156.196c5.684,0,10.291-4.607,10.291-10.291v-51.539" fill="none" stroke="#0c0d0b" stroke-miterlimit="10" stroke-width=".86"/>
        <g>
          <polygon points="50.671 175.525 53.512 176.145 50.695 176.866 50.671 175.525 50.671 175.525" fill="#0c0d0b"/>
          <polygon points="50.606 171.885 47.789 172.606 50.63 173.226 50.606 171.885 50.606 171.885" fill="#0c0d0b"/>
        </g>
        <g>
          <polygon points="50.671 164.274 53.512 164.894 50.695 165.615 50.671 164.274 50.671 164.274" fill="#0c0d0b"/>
          <polygon points="50.606 160.634 47.789 161.355 50.63 161.975 50.606 160.634 50.606 160.634" fill="#0c0d0b"/>
        </g>
        <g>
          <polygon points="50.671 186.753 53.512 187.373 50.695 188.094 50.671 186.753 50.671 186.753" fill="#0c0d0b"/>
          <polygon points="50.606 183.113 47.789 183.834 50.63 184.454 50.606 183.113 50.606 183.113" fill="#0c0d0b"/>
        </g>
        <g>
          <polygon points="50.671 198 53.512 198.62 50.695 199.34 50.671 198 50.671 198" fill="#0c0d0b"/>
          <polygon points="50.606 194.36 47.789 195.081 50.63 195.7 50.606 194.36 50.606 194.36" fill="#0c0d0b"/>
        </g>
        <g>
          <polygon points="51.066 209.234 53.973 209.29 51.349 210.544 51.066 209.234 51.066 209.234" fill="#0c0d0b"/>
          <polygon points="50.295 205.676 47.672 206.929 50.579 206.986 50.295 205.676 50.295 205.676" fill="#0c0d0b"/>
        </g>
        <g>
          <polygon points="59.619 215.429 60.609 212.695 60.951 215.583 59.619 215.429 59.619 215.429" fill="#0c0d0b"/>
          <polygon points="56.003 215.013 56.345 217.901 57.334 215.167 56.003 215.013 56.003 215.013" fill="#0c0d0b"/>
        </g>
        <g>
          <polygon points="70.874 215.357 71.494 212.516 72.214 215.333 70.874 215.357 70.874 215.357" fill="#0c0d0b"/>
          <polygon points="67.234 215.422 67.955 218.239 68.574 215.398 67.234 215.422 67.234 215.422" fill="#0c0d0b"/>
        </g>
        <g>
          <polygon points="82.165 215.357 82.785 212.516 83.505 215.333 82.165 215.357 82.165 215.357" fill="#0c0d0b"/>
          <polygon points="78.525 215.422 79.246 218.239 79.865 215.398 78.525 215.422 78.525 215.422" fill="#0c0d0b"/>
        </g>
        <g>
          <polygon points="93.423 215.357 94.042 212.516 94.763 215.333 93.423 215.357 93.423 215.357" fill="#0c0d0b"/>
          <polygon points="89.783 215.422 90.503 218.239 91.123 215.398 89.783 215.422 89.783 215.422" fill="#0c0d0b"/>
        </g>
        <g>
          <polygon points="104.709 215.357 105.329 212.516 106.049 215.333 104.709 215.357 104.709 215.357" fill="#0c0d0b"/>
          <polygon points="101.069 215.422 101.789 218.239 102.409 215.398 101.069 215.422 101.069 215.422" fill="#0c0d0b"/>
        </g>
        <g>
          <polygon points="115.963 215.357 116.583 212.516 117.304 215.333 115.963 215.357 115.963 215.357" fill="#0c0d0b"/>
          <polygon points="112.323 215.422 113.044 218.239 113.664 215.398 112.323 215.422 112.323 215.422" fill="#0c0d0b"/>
        </g>
        <g>
          <polygon points="127.173 215.357 127.792 212.516 128.513 215.333 127.173 215.357 127.173 215.357" fill="#0c0d0b"/>
          <polygon points="123.533 215.422 124.253 218.239 124.873 215.398 123.533 215.422 123.533 215.422" fill="#0c0d0b"/>
        </g>
        <g>
          <polygon points="138.471 215.357 139.091 212.516 139.811 215.333 138.471 215.357 138.471 215.357" fill="#0c0d0b"/>
          <polygon points="134.831 215.422 135.552 218.239 136.171 215.398 134.831 215.422 134.831 215.422" fill="#0c0d0b"/>
        </g>
        <g>
          <polygon points="149.673 215.357 150.293 212.516 151.014 215.333 149.673 215.357 149.673 215.357" fill="#0c0d0b"/>
          <polygon points="146.033 215.422 146.754 218.239 147.374 215.398 146.033 215.422 146.033 215.422" fill="#0c0d0b"/>
        </g>
        <g>
          <polygon points="160.914 215.357 161.534 212.516 162.254 215.333 160.914 215.357 160.914 215.357" fill="#0c0d0b"/>
          <polygon points="157.274 215.422 157.995 218.239 158.614 215.398 157.274 215.422 157.274 215.422" fill="#0c0d0b"/>
        </g>
        <g>
          <polygon points="172.165 215.357 172.785 212.516 173.505 215.333 172.165 215.357 172.165 215.357" fill="#0c0d0b"/>
          <polygon points="168.525 215.422 169.246 218.239 169.865 215.398 168.525 215.422 168.525 215.422" fill="#0c0d0b"/>
        </g>
        <g>
          <polygon points="183.483 215.357 184.103 212.516 184.824 215.333 183.483 215.357 183.483 215.357" fill="#0c0d0b"/>
          <polygon points="179.843 215.422 180.564 218.239 181.184 215.398 179.843 215.422 179.843 215.422" fill="#0c0d0b"/>
        </g>
        <g>
          <polygon points="194.712 215.357 195.332 212.516 196.052 215.333 194.712 215.357 194.712 215.357" fill="#0c0d0b"/>
          <polygon points="191.072 215.422 191.793 218.239 192.412 215.398 191.072 215.422 191.072 215.422" fill="#0c0d0b"/>
        </g>
        <g>
          <polygon points="205.993 215.357 206.612 212.516 207.333 215.333 205.993 215.357 205.993 215.357" fill="#0c0d0b"/>
          <polygon points="202.353 215.422 203.073 218.239 203.693 215.398 202.353 215.422 202.353 215.422" fill="#0c0d0b"/>
        </g>
        <g>
          <polygon points="217.223 215.334 217.789 212.482 218.562 215.284 217.223 215.334 217.223 215.334" fill="#0c0d0b"/>
          <polygon points="213.584 215.467 214.358 218.27 214.924 215.418 213.584 215.467 213.584 215.467" fill="#0c0d0b"/>
        </g>
        <g>
          <polygon points="225.594 208.611 223.324 206.794 226.168 207.4 225.594 208.611 225.594 208.611" fill="#0c0d0b"/>
          <polygon points="224.036 211.901 226.88 212.507 224.61 210.69 224.036 211.901 224.036 211.901" fill="#0c0d0b"/>
        </g>
        <g>
          <polygon points="226.147 197.419 223.306 196.8 226.123 196.079 226.147 197.419 226.147 197.419" fill="#0c0d0b"/>
          <polygon points="226.211 201.059 229.028 200.339 226.187 199.719 226.211 201.059 226.211 201.059" fill="#0c0d0b"/>
        </g>
        <g>
          <polygon points="226.147 186.182 223.306 185.562 226.123 184.841 226.147 186.182 226.147 186.182" fill="#0c0d0b"/>
          <polygon points="226.211 189.822 229.028 189.101 226.187 188.481 226.211 189.822 226.211 189.822" fill="#0c0d0b"/>
        </g>
        <g>
          <polygon points="226.147 174.92 223.306 174.301 226.123 173.58 226.147 174.92 226.147 174.92" fill="#0c0d0b"/>
          <polygon points="226.211 178.56 229.028 177.84 226.187 177.22 226.211 178.56 226.211 178.56" fill="#0c0d0b"/>
        </g>
        <g>
          <polygon points="226.147 163.638 223.306 163.018 226.123 162.297 226.147 163.638 226.147 163.638" fill="#0c0d0b"/>
          <polygon points="226.211 167.278 229.028 166.557 226.187 165.937 226.211 167.278 226.211 167.278" fill="#0c0d0b"/>
        </g>
        <g>
          <polygon points="226.147 152.398 223.306 151.778 226.123 151.058 226.147 152.398 226.147 152.398" fill="#0c0d0b"/>
          <polygon points="226.211 156.038 229.028 155.317 226.187 154.698 226.211 156.038 226.211 156.038" fill="#0c0d0b"/>
        </g>
      </g>
    </g>
  </g>
  <g id="Hojas">
    <path d="M175.008,69c-7.479-.998-15.229.586-21.736,4.275,0,0-.334.19-.334.19-.856.483-1.441,1.17-1.903,2.089-.617,1.244-.909,2.728-1.135,4.189-.238,1.562-.421,3.355-.741,4.87-.352,1.641-.888,3.286-2.14,4.32l-9.848,5.636-9.667-5.532c-1.345-1.025-1.906-2.726-2.27-4.423-.321-1.515-.503-3.308-.741-4.87-.225-1.461-.517-2.945-1.135-4.189-.462-.92-1.047-1.606-1.903-2.089,0,0-.334-.19-.334-.19-6.507-3.689-14.257-5.273-21.736-4.275-1.616.222-3.265.536-4.832,1.062.328,1.62.881,3.205,1.496,4.716,2.875,6.976,8.122,12.895,14.57,16.686,0,0,.332.195.332.195.846.5,1.734.663,2.761.603,1.385-.086,2.818-.576,4.195-1.112,1.472-.575,3.116-1.313,4.588-1.793,1.518-.491,3.122-.839,4.584-.385l10.088,5.773.005-.008.005.008,10.02-5.734c1.493-.511,3.142-.158,4.701.346,1.472.48,3.116,1.218,4.588,1.793,1.376.536,2.809,1.026,4.195,1.112,1.027.06,1.915-.103,2.761-.603,0,0,.332-.195.332-.195,6.449-3.791,11.695-9.71,14.57-16.686.616-1.511,1.168-3.096,1.496-4.716-1.567-.526-3.216-.84-4.832-1.062Z" fill="#0c0d0b"/>
    <path d="M175.008,102.261c-7.479-.998-15.229.586-21.736,4.275,0,0-.334.19-.334.19-.856.483-1.441,1.17-1.903,2.089-.617,1.244-.909,2.728-1.135,4.189-.238,1.562-.421,3.355-.741,4.87-.352,1.641-.888,3.286-2.14,4.32l-9.848,5.636-9.667-5.532c-1.345-1.025-1.906-2.726-2.27-4.423-.321-1.515-.503-3.308-.741-4.87-.225-1.461-.517-2.945-1.135-4.189-.462-.92-1.047-1.606-1.903-2.089,0,0-.334-.19-.334-.19-6.507-3.689-14.257-5.273-21.736-4.275-1.616.222-3.265.536-4.832,1.062.328,1.62.881,3.205,1.496,4.716,2.875,6.976,8.122,12.895,14.57,16.686,0,0,.332.195.332.195.846.5,1.734.663,2.761.603,1.385-.086,2.818-.576,4.195-1.112,1.472-.575,3.116-1.313,4.588-1.793,1.518-.491,3.122-.839,4.584-.385l10.088,5.773.005-.008.005.008,10.02-5.734c1.493-.511,3.142-.158,4.701.346,1.472.48,3.116,1.218,4.588,1.793,1.376.536,2.809,1.026,4.195,1.112,1.027.06,1.915-.103,2.761-.603,0,0,.332-.195.332-.195,6.449-3.791,11.695-9.71,14.57-16.686.616-1.511,1.168-3.096,1.496-4.716-1.567-.526-3.216-.84-4.832-1.062Z" fill="#0c0d0b"/>
    <path d="M175.008,135.523c-7.479-.998-15.229.586-21.736,4.275,0,0-.334.19-.334.19-.856.483-1.441,1.17-1.903,2.089-.617,1.244-.909,2.728-1.135,4.189-.238,1.562-.421,3.355-.741,4.87-.352,1.641-.888,3.286-2.14,4.32l-9.848,5.636-9.667-5.532c-1.345-1.025-1.906-2.726-2.27-4.423-.321-1.515-.503-3.308-.741-4.87-.225-1.461-.517-2.945-1.135-4.189-.462-.92-1.047-1.606-1.903-2.089,0,0-.334-.19-.334-.19-6.507-3.689-14.257-5.273-21.736-4.275-1.616.222-3.265.536-4.832,1.062.328,1.62.881,3.205,1.496,4.716,2.875,6.976,8.122,12.895,14.57,16.686,0,0,.332.195.332.195.846.5,1.734.663,2.761.603,1.385-.086,2.818-.576,4.195-1.112,1.472-.575,3.116-1.313,4.588-1.793,1.518-.491,3.122-.839,4.584-.385l10.088,5.773.005-.008.005.008,10.02-5.734c1.493-.511,3.142-.158,4.701.346,1.472.48,3.116,1.218,4.588,1.793,1.376.536,2.809,1.026,4.195,1.112,1.027.06,1.915-.103,2.761-.603,0,0,.332-.195.332-.195,6.449-3.791,11.695-9.71,14.57-16.686.616-1.511,1.168-3.096,1.496-4.716-1.567-.526-3.216-.84-4.832-1.062Z" fill="#0c0d0b"/>
    <path d="M175.008,168.785c-7.479-.998-15.229.586-21.736,4.275,0,0-.334.19-.334.19-.856.483-1.441,1.17-1.903,2.089-.617,1.244-.909,2.728-1.135,4.189-.238,1.562-.421,3.355-.741,4.87-.352,1.641-.888,3.286-2.14,4.32l-9.848,5.636-9.667-5.532c-1.345-1.025-1.906-2.726-2.27-4.423-.321-1.515-.503-3.308-.741-4.87-.225-1.461-.517-2.945-1.135-4.189-.462-.92-1.047-1.606-1.903-2.089,0,0-.334-.19-.334-.19-6.507-3.689-14.257-5.273-21.736-4.275-1.616.222-3.265.536-4.832,1.062.328,1.62.881,3.205,1.496,4.716,2.875,6.976,8.122,12.895,14.57,16.686,0,0,.332.195.332.195.846.5,1.734.663,2.761.603,1.385-.086,2.818-.576,4.195-1.112,1.472-.575,3.116-1.313,4.588-1.793,1.518-.491,3.122-.839,4.584-.385l10.088,5.773.005-.008.005.008,10.02-5.734c1.493-.511,3.142-.158,4.701.346,1.472.48,3.116,1.218,4.588,1.793,1.376.536,2.809,1.026,4.195,1.112,1.027.06,1.915-.103,2.761-.603,0,0,.332-.195.332-.195,6.449-3.791,11.695-9.71,14.57-16.686.616-1.511,1.168-3.096,1.496-4.716-1.567-.526-3.216-.84-4.832-1.062Z" fill="#0c0d0b"/>
    <path d="M255.741,186.937c-5.983-.798-12.183.469-17.388,3.42,0,0-.268.152-.268.152-.685.386-1.153.936-1.522,1.671-.494.995-.727,2.183-.908,3.351-.191,1.25-.336,2.684-.593,3.896-.282,1.313-.71,2.629-1.712,3.456l-7.878,4.509-7.734-4.426c-1.076-.82-1.525-2.181-1.816-3.538-.257-1.212-.402-2.646-.593-3.896-.18-1.168-.414-2.356-.908-3.351-.369-.736-.838-1.285-1.522-1.671,0,0-.268-.152-.268-.152-5.206-2.952-11.405-4.218-17.388-3.42-1.293.178-2.612.429-3.866.85.263,1.296.705,2.564,1.197,3.773,2.3,5.58,6.497,10.316,11.656,13.349,0,0,.265.156.265.156.677.4,1.387.531,2.208.482,1.108-.069,2.255-.461,3.356-.889,1.178-.46,2.493-1.05,3.671-1.435,1.215-.393,2.498-.671,3.667-.308l8.07,4.618.004-.007.004.007,8.016-4.587c1.194-.409,2.514-.126,3.761.277,1.178.384,2.493.975,3.671,1.435,1.101.428,2.248.82,3.356.889.822.048,1.532-.083,2.208-.482,0,0,.265-.156.265-.156,5.159-3.032,9.356-7.768,11.656-13.349.492-1.209.934-2.477,1.197-3.773-1.254-.421-2.573-.672-3.866-.85Z" fill="#0c0d0b"/>
    <path d="M80.408,186.937c-5.983-.798-12.183.469-17.388,3.42,0,0-.268.152-.268.152-.685.386-1.153.936-1.522,1.671-.494.995-.727,2.183-.908,3.351-.191,1.25-.336,2.684-.593,3.896-.282,1.313-.71,2.629-1.712,3.456l-7.878,4.509-7.734-4.426c-1.076-.82-1.525-2.181-1.816-3.538-.257-1.212-.402-2.646-.593-3.896-.18-1.168-.414-2.356-.908-3.351-.369-.736-.838-1.285-1.522-1.671,0,0-.268-.152-.268-.152-5.206-2.952-11.405-4.218-17.388-3.42-1.293.178-2.612.429-3.866.85.263,1.296.705,2.564,1.197,3.773,2.3,5.58,6.497,10.316,11.656,13.349,0,0,.265.156.265.156.677.4,1.387.531,2.208.482,1.108-.069,2.255-.461,3.356-.889,1.178-.46,2.493-1.05,3.671-1.435,1.215-.393,2.498-.671,3.667-.308l8.07,4.618.004-.007.004.007,8.016-4.587c1.194-.409,2.514-.126,3.761.277,1.178.384,2.493.975,3.671,1.435,1.101.428,2.248.82,3.356.889.822.048,1.532-.083,2.208-.482,0,0,.265-.156.265-.156,5.159-3.032,9.356-7.768,11.656-13.349.492-1.209.934-2.477,1.197-3.773-1.254-.421-2.573-.672-3.866-.85Z" fill="#0c0d0b"/>
    <path d="M175.008,238.72c-7.479-.998-15.229.586-21.736,4.275,0,0-.334.19-.334.19-.856.483-1.441,1.17-1.903,2.089-.617,1.244-.909,2.728-1.135,4.189-.238,1.562-.421,3.355-.741,4.87-.352,1.641-.888,3.286-2.14,4.32l-9.848,5.636-9.667-5.532c-1.345-1.025-1.906-2.726-2.27-4.423-.321-1.515-.503-3.308-.741-4.87-.225-1.461-.517-2.945-1.135-4.189-.462-.92-1.047-1.606-1.903-2.089,0,0-.334-.19-.334-.19-6.507-3.689-14.257-5.273-21.736-4.275-1.616.222-3.265.536-4.832,1.062.328,1.62.881,3.205,1.496,4.716,2.875,6.976,8.122,12.895,14.57,16.686,0,0,.332.195.332.195.846.5,1.734.663,2.761.603,1.385-.086,2.818-.576,4.195-1.112,1.472-.575,3.116-1.313,4.588-1.793,1.518-.491,3.122-.839,4.584-.385l10.088,5.773.005-.008.005.008,10.02-5.734c1.493-.511,3.142-.158,4.701.346,1.472.48,3.116,1.218,4.588,1.793,1.376.536,2.809,1.026,4.195,1.112,1.027.06,1.915-.103,2.761-.603,0,0,.332-.195.332-.195,6.449-3.791,11.695-9.71,14.57-16.686.616-1.511,1.168-3.096,1.496-4.716-1.567-.526-3.216-.84-4.832-1.062Z" fill="#0c0d0b"/>
    <path d="M175.008,271.982c-7.479-.998-15.229.586-21.736,4.275,0,0-.334.19-.334.19-.856.483-1.441,1.17-1.903,2.089-.617,1.244-.909,2.728-1.135,4.189-.238,1.562-.421,3.355-.741,4.87-.352,1.641-.888,3.286-2.14,4.32l-9.848,5.636-9.667-5.532c-1.345-1.025-1.906-2.726-2.27-4.423-.321-1.515-.503-3.308-.741-4.87-.225-1.461-.517-2.945-1.135-4.189-.462-.92-1.047-1.606-1.903-2.089,0,0-.334-.19-.334-.19-6.507-3.689-14.257-5.273-21.736-4.275-1.616.222-3.265.536-4.832,1.062.328,1.62.881,3.205,1.496,4.716,2.875,6.976,8.122,12.895,14.57,16.686,0,0,.332.195.332.195.846.5,1.734.663,2.761.603,1.385-.086,2.818-.576,4.195-1.112,1.472-.575,3.116-1.313,4.588-1.793,1.518-.491,3.122-.839,4.584-.385l10.088,5.773.005-.008.005.008,10.02-5.734c1.493-.511,3.142-.158,4.701.346,1.472.48,3.116,1.218,4.588,1.793,1.376.536,2.809,1.026,4.195,1.112,1.027.06,1.915-.103,2.761-.603,0,0,.332-.195.332-.195,6.449-3.791,11.695-9.71,14.57-16.686.616-1.511,1.168-3.096,1.496-4.716-1.567-.526-3.216-.84-4.832-1.062Z" fill="#0c0d0b"/>
    <path d="M175.008,305.243c-7.479-.998-15.229.586-21.736,4.275,0,0-.334.19-.334.19-.856.483-1.441,1.17-1.903,2.089-.617,1.244-.909,2.728-1.135,4.189-.238,1.562-.421,3.355-.741,4.87-.352,1.641-.888,3.286-2.14,4.32l-9.848,5.636-9.667-5.532c-1.345-1.025-1.906-2.726-2.27-4.423-.321-1.515-.503-3.308-.741-4.87-.225-1.461-.517-2.945-1.135-4.189-.462-.92-1.047-1.606-1.903-2.089,0,0-.334-.19-.334-.19-6.507-3.689-14.257-5.273-21.736-4.275-1.616.222-3.265.536-4.832,1.062.328,1.62.881,3.205,1.496,4.716,2.875,6.976,8.122,12.895,14.57,16.686,0,0,.332.195.332.195.846.5,1.734.663,2.761.603,1.385-.086,2.818-.576,4.195-1.112,1.472-.575,3.116-1.313,4.588-1.793,1.518-.491,3.122-.839,4.584-.385l10.088,5.773.005-.008.005.008,10.02-5.734c1.493-.511,3.142-.158,4.701.346,1.472.48,3.116,1.218,4.588,1.793,1.376.536,2.809,1.026,4.195,1.112,1.027.06,1.915-.103,2.761-.603,0,0,.332-.195.332-.195,6.449-3.791,11.695-9.71,14.57-16.686.616-1.511,1.168-3.096,1.496-4.716-1.567-.526-3.216-.84-4.832-1.062Z" fill="#0c0d0b"/>
    <g>
      <path d="M84.28,339.448c1.038,0,1.879-.841,1.879-1.879s-.841-1.878-1.879-1.878-1.878.841-1.878,1.878.841,1.879,1.878,1.879Z"/>
      <path d="M94.298,332.686c1.037,0,1.878-.841,1.878-1.879s-.841-1.879-1.878-1.879-1.879.841-1.879,1.879.841,1.879,1.879,1.879Z"/>
      <circle cx="94.925" cy="341.327" r="1.879"/>
      <path d="M83.779,349.968c1.037,0,1.878-.841,1.878-1.878s-.841-1.879-1.878-1.879-1.879.841-1.879,1.879.841,1.878,1.879,1.878Z"/>
      <path d="M107.448,339.448c-.224,0-.425.099-.562.254l-10.208-2.917,2.742-2.3c.273.257.701.275.996.029.318-.266.361-.74.095-1.058-.266-.318-.74-.361-1.058-.095-.247.206-.327.537-.227.824l-8.165,6.849c.033-.117.068-.234.1-.35.464-1.711.761-3.363.906-5.051.281-3.275-.091-5.995-.391-8.181-.138-1.008-.26-1.907-.308-2.731.055-.026.108-.059.157-.1.318-.266.361-.74.095-1.058-.266-.318-.74-.361-1.058-.095s-.361.74-.095,1.058c.142.17.344.261.549.268.05.823.172,1.713.308,2.706.297,2.168.667,4.866.389,8.102-.143,1.667-.436,3.299-.895,4.989-.049.182-.103.365-.156.549l-5.48-7.885,1.66-6.71c.023,0,.045.003.068.003,1.037,0,1.878-.841,1.878-1.879s-.841-1.879-1.878-1.879-1.879.841-1.879,1.879c0,.892.622,1.637,1.456,1.829l-1.576,6.368-1.831-2.635c.204-.3.323-.663.323-1.053,0-1.037-.841-1.879-1.879-1.879s-1.879.841-1.879,1.879.841,1.879,1.879,1.879c.515,0,.98-.207,1.32-.542l1.953,2.811v.006s.005.002.005.002l5.728,8.241c-.477,1.554-1.093,3.147-1.841,4.749-1.945,4.169-6.175,6.685-10.272,8.195v-10.702c.118-.024.233-.077.332-.16.318-.266.361-.74.095-1.058-.266-.318-.74-.361-1.058-.095s-.361.74-.095,1.058c.101.12.231.201.371.241v10.844c-1.13.401-2.245.728-3.293.992-2.675.674-5.217,1.027-7.103,1.212-.11-1.074-1.007-1.914-2.11-1.914s-2,.841-2.11,1.914c-1.887-.185-4.428-.538-7.103-1.212-1.048-.264-2.163-.591-3.293-.992v-10.844c.14-.04.271-.121.371-.241.266-.318.224-.792-.095-1.058s-.792-.224-1.058.095c-.266.318-.224.792.095,1.058.099.083.214.136.332.16v10.702c-4.097-1.51-8.327-4.026-10.272-8.195-.748-1.602-1.363-3.195-1.841-4.749l5.728-8.241.007-.002v-.006s1.952-2.811,1.952-2.811c.339.335.805.542,1.32.542,1.037,0,1.879-.841,1.879-1.879s-.841-1.879-1.879-1.879-1.879.841-1.879,1.879c0,.39.119.753.323,1.053l-1.831,2.635-1.576-6.368c.834-.192,1.456-.937,1.456-1.829,0-1.038-.841-1.879-1.879-1.879s-1.878.841-1.878,1.879.841,1.879,1.878,1.879c.023,0,.046-.003.068-.003l1.66,6.71-5.48,7.885c-.053-.183-.107-.367-.156-.549-.459-1.69-.751-3.322-.895-4.989-.278-3.236.092-5.934.389-8.102.136-.994.258-1.883.308-2.706.206-.008.407-.098.549-.268.266-.318.224-.792-.095-1.058s-.792-.224-1.058.095c-.266.318-.224.792.095,1.058.049.041.102.074.157.1-.047.824-.17,1.724-.308,2.731-.299,2.185-.672,4.905-.391,8.181.145,1.688.441,3.341.906,5.051.032.116.066.233.1.35l-8.165-6.849c.1-.287.02-.618-.227-.824-.318-.266-.792-.224-1.058.095-.266.318-.224.792.095,1.058.295.246.723.228.996-.029l2.742,2.3-10.208,2.917c-.138-.156-.338-.254-.562-.254-.415,0-.751.336-.751.751s.336.751.751.751.751-.336.751-.751c0-.061-.008-.119-.022-.176l10.368-2.963,5.471,4.589c.483,1.579,1.108,3.197,1.867,4.824,2.6,5.57,9.136,8.247,14.162,9.511,2.705.681,5.272,1.036,7.175,1.221.072,1.112.988,1.995,2.118,1.995s2.046-.882,2.118-1.995c1.903-.186,4.469-.541,7.175-1.221,5.026-1.264,11.563-3.941,14.162-9.511.759-1.627,1.384-3.244,1.867-4.824l5.471-4.589,10.368,2.963c-.014.057-.022.115-.022.176,0,.415.336.751.751.751s.751-.336.751-.751-.336-.751-.751-.751Z"/>
      <path d="M48.711,337.57c0-1.037-.841-1.878-1.878-1.878s-1.879.841-1.879,1.878.841,1.879,1.879,1.879,1.878-.841,1.878-1.879Z"/>
      <path d="M36.814,332.686c1.038,0,1.879-.841,1.879-1.879s-.841-1.879-1.879-1.879-1.878.841-1.878,1.879.841,1.879,1.878,1.879Z"/>
      <circle cx="36.188" cy="341.327" r="1.879"/>
      <path d="M47.334,349.968c1.037,0,1.879-.841,1.879-1.878s-.841-1.879-1.879-1.879-1.878.841-1.878,1.879.841,1.878,1.878,1.878Z"/>
    </g>
    <g>
      <path d="M230.119,337.743c1.038,0,1.879-.841,1.879-1.879s-.841-1.878-1.879-1.878-1.878.841-1.878,1.878.841,1.879,1.878,1.879Z"/>
      <path d="M240.138,330.98c1.037,0,1.878-.841,1.878-1.879s-.841-1.879-1.878-1.879-1.879.841-1.879,1.879.841,1.879,1.879,1.879Z"/>
      <circle cx="240.764" cy="339.621" r="1.879"/>
      <path d="M229.619,348.262c1.037,0,1.878-.841,1.878-1.878s-.841-1.879-1.878-1.879-1.879.841-1.879,1.879.841,1.878,1.879,1.878Z"/>
      <path d="M253.288,337.743c-.224,0-.425.099-.562.254l-10.208-2.917,2.742-2.3c.273.257.701.275.996.029.318-.266.361-.74.095-1.058-.266-.318-.74-.361-1.058-.095-.247.206-.327.537-.227.824l-8.165,6.849c.033-.117.068-.234.1-.35.464-1.711.761-3.363.906-5.051.281-3.275-.091-5.995-.391-8.181-.138-1.008-.26-1.907-.308-2.731.055-.026.108-.059.157-.1.318-.266.361-.74.095-1.058-.266-.318-.74-.361-1.058-.095s-.361.74-.095,1.058c.142.17.344.261.549.268.05.823.172,1.713.308,2.706.297,2.168.667,4.866.389,8.102-.143,1.667-.436,3.299-.895,4.989-.049.182-.103.365-.156.549l-5.48-7.885,1.66-6.71c.023,0,.045.003.068.003,1.037,0,1.878-.841,1.878-1.879s-.841-1.879-1.878-1.879-1.879.841-1.879,1.879c0,.892.622,1.637,1.456,1.829l-1.576,6.368-1.831-2.635c.204-.3.323-.663.323-1.053,0-1.037-.841-1.879-1.879-1.879s-1.879.841-1.879,1.879.841,1.879,1.879,1.879c.515,0,.98-.207,1.32-.542l1.953,2.811v.006s.005.002.005.002l5.728,8.241c-.477,1.554-1.093,3.147-1.841,4.749-1.945,4.169-6.175,6.685-10.272,8.195v-10.702c.118-.024.233-.077.332-.16.318-.266.361-.74.095-1.058-.266-.318-.74-.361-1.058-.095s-.361.74-.095,1.058c.101.12.231.201.371.241v10.844c-1.13.401-2.245.728-3.293.992-2.675.674-5.217,1.027-7.103,1.212-.11-1.074-1.007-1.914-2.11-1.914s-2,.841-2.11,1.914c-1.887-.185-4.428-.538-7.103-1.212-1.048-.264-2.163-.591-3.293-.992v-10.844c.14-.04.271-.121.371-.241.266-.318.224-.792-.095-1.058s-.792-.224-1.058.095c-.266.318-.224.792.095,1.058.099.083.214.136.332.16v10.702c-4.097-1.51-8.327-4.026-10.272-8.195-.748-1.602-1.363-3.195-1.841-4.749l5.728-8.241.007-.002v-.006s1.952-2.811,1.952-2.811c.339.335.805.542,1.32.542,1.037,0,1.879-.841,1.879-1.879s-.841-1.879-1.879-1.879-1.879.841-1.879,1.879c0,.39.119.753.323,1.053l-1.831,2.635-1.576-6.368c.834-.192,1.456-.937,1.456-1.829,0-1.038-.841-1.879-1.879-1.879s-1.878.841-1.878,1.879.841,1.879,1.878,1.879c.023,0,.046-.003.068-.003l1.66,6.71-5.48,7.885c-.053-.183-.107-.367-.156-.549-.459-1.69-.751-3.322-.895-4.989-.278-3.236.092-5.934.389-8.102.136-.994.258-1.883.308-2.706.206-.008.407-.098.549-.268.266-.318.224-.792-.095-1.058s-.792-.224-1.058.095c-.266.318-.224.792.095,1.058.049.041.102.074.157.1-.047.824-.17,1.724-.308,2.731-.299,2.185-.672,4.905-.391,8.181.145,1.688.441,3.341.906,5.051.032.116.066.233.1.35l-8.165-6.849c.1-.287.02-.618-.227-.824-.318-.266-.792-.224-1.058.095-.266.318-.224.792.095,1.058.295.246.723.228.996-.029l2.742,2.3-10.208,2.917c-.138-.156-.338-.254-.562-.254-.415,0-.751.336-.751.751s.336.751.751.751.751-.336.751-.751c0-.061-.008-.119-.022-.176l10.368-2.963,5.471,4.589c.483,1.579,1.108,3.197,1.867,4.824,2.6,5.57,9.136,8.247,14.162,9.511,2.705.681,5.272,1.036,7.175,1.221.072,1.112.988,1.995,2.118,1.995s2.046-.882,2.118-1.995c1.903-.186,4.469-.541,7.175-1.221,5.026-1.264,11.563-3.941,14.162-9.511.759-1.627,1.384-3.244,1.867-4.824l5.471-4.589,10.368,2.963c-.014.057-.022.115-.022.176,0,.415.336.751.751.751s.751-.336.751-.751-.336-.751-.751-.751Z"/>
      <path d="M194.551,335.864c0-1.037-.841-1.878-1.878-1.878s-1.879.841-1.879,1.878.841,1.879,1.879,1.879,1.878-.841,1.878-1.879Z"/>
      <path d="M182.654,330.98c1.038,0,1.879-.841,1.879-1.879s-.841-1.879-1.879-1.879-1.878.841-1.878,1.879.841,1.879,1.878,1.879Z"/>
      <circle cx="182.028" cy="339.621" r="1.879"/>
      <path d="M193.174,348.262c1.037,0,1.879-.841,1.879-1.878s-.841-1.879-1.879-1.879-1.878.841-1.878,1.879.841,1.878,1.878,1.878Z"/>
    </g>
  </g>
  <g id="Flores">
    <g>
      <g>
        <polygon points="82.496 291.704 65.913 308.288 65.913 303.15 65.913 303.093 65.913 247.072 65.639 247.072 65.639 302.82 49.079 286.26 48.886 286.454 65.639 303.207 65.639 333.176 65.663 333.176 65.663 338.62 65.936 338.62 65.936 308.651 82.689 291.898 82.496 291.704" fill="#0c0d0b"/>
        <circle cx="48.874" cy="285.898" r="4.781" fill="#0c0d0b"/>
        <circle cx="65.776" cy="247.072" r="5.976" fill="#0c0d0b"/>
        <circle cx="73.889" cy="266.002" r="5.976" fill="#0c0d0b"/>
        <g>
          <circle cx="80.842" cy="294.09" r="3.187" fill="#0c0d0b"/>
          <circle cx="82.05" cy="286.236" r="3.187" fill="#0c0d0b"/>
          <circle cx="90.018" cy="293.915" r="4.781" fill="#0c0d0b"/>
          <circle cx="92.433" cy="281.745" r="5.976" fill="#0c0d0b"/>
        </g>
        <g>
          <circle cx="65.485" cy="317.367" r="3.187" fill="#0c0d0b"/>
          <circle cx="66.693" cy="309.513" r="3.187" fill="#0c0d0b"/>
          <circle cx="74.661" cy="317.191" r="4.781" fill="#0c0d0b"/>
          <circle cx="77.076" cy="305.022" r="5.976" fill="#0c0d0b"/>
        </g>
        <g>
          <circle cx="62.684" cy="291.579" r="3.187" fill="#0c0d0b"/>
          <circle cx="63.892" cy="283.725" r="3.187" fill="#0c0d0b"/>
          <circle cx="71.86" cy="291.404" r="4.781" fill="#0c0d0b"/>
          <circle cx="74.275" cy="279.234" r="5.976" fill="#0c0d0b"/>
        </g>
        <g>
          <circle cx="60.838" cy="265.792" r="3.187" fill="#0c0d0b"/>
          <circle cx="59.63" cy="257.937" r="3.187" fill="#0c0d0b"/>
          <circle cx="51.661" cy="265.616" r="4.781" fill="#0c0d0b"/>
          <circle cx="49.247" cy="253.446" r="5.976" fill="#0c0d0b"/>
        </g>
        <circle cx="58.81" cy="311.862" r="3.187" fill="#0c0d0b"/>
        <circle cx="57.601" cy="304.008" r="3.187" fill="#0c0d0b"/>
        <circle cx="56.455" cy="276.964" r="3.187" fill="#0c0d0b"/>
        <circle cx="73.454" cy="254.75" r="3.187" fill="#0c0d0b"/>
        <circle cx="85.237" cy="273.294" r="3.187" fill="#0c0d0b"/>
        <circle cx="71.716" cy="328.057" r="3.187" fill="#0c0d0b"/>
        <circle cx="65.438" cy="337.908" r="3.187" fill="#0c0d0b"/>
        <circle cx="59.836" cy="324.87" r="3.187" fill="#0c0d0b"/>
        <circle cx="54.427" cy="319.751" r="3.187" fill="#0c0d0b"/>
        <circle cx="44.865" cy="276.964" r="3.187" fill="#0c0d0b"/>
        <circle cx="49.633" cy="311.686" r="4.781" fill="#0c0d0b"/>
        <circle cx="47.219" cy="299.517" r="5.976" fill="#0c0d0b"/>
      </g>
      <circle cx="65.826" cy="247.096" r="4" fill="#cb1e1a"/>
      <circle cx="49.326" cy="253.596" r="4" fill="#cb1e1a"/>
      <circle cx="73.826" cy="266.096" r="4" fill="#cb1e1a"/>
      <circle cx="47.326" cy="299.596" r="4" fill="#cb1e1a"/>
      <circle cx="77.326" cy="305.096" r="4" fill="#cb1e1a"/>
    </g>
    <g>
      <g>
        <polygon points="227.496 291.704 210.913 308.288 210.913 303.15 210.913 303.093 210.913 247.072 210.639 247.072 210.639 302.82 194.079 286.26 193.886 286.454 210.639 303.207 210.639 333.176 210.663 333.176 210.663 338.62 210.936 338.62 210.936 308.651 227.689 291.898 227.496 291.704" fill="#0c0d0b"/>
        <circle cx="193.874" cy="285.898" r="4.781" fill="#0c0d0b"/>
        <circle cx="210.776" cy="247.072" r="5.976" fill="#0c0d0b"/>
        <circle cx="218.889" cy="266.002" r="5.976" fill="#0c0d0b"/>
        <g>
          <circle cx="225.842" cy="294.09" r="3.187" fill="#0c0d0b"/>
          <circle cx="227.05" cy="286.236" r="3.187" fill="#0c0d0b"/>
          <circle cx="235.018" cy="293.915" r="4.781" fill="#0c0d0b"/>
          <circle cx="237.433" cy="281.745" r="5.976" fill="#0c0d0b"/>
        </g>
        <g>
          <circle cx="210.485" cy="317.367" r="3.187" fill="#0c0d0b"/>
          <circle cx="211.693" cy="309.513" r="3.187" fill="#0c0d0b"/>
          <circle cx="219.661" cy="317.191" r="4.781" fill="#0c0d0b"/>
          <circle cx="222.076" cy="305.022" r="5.976" fill="#0c0d0b"/>
        </g>
        <g>
          <circle cx="207.684" cy="291.579" r="3.187" fill="#0c0d0b"/>
          <circle cx="208.892" cy="283.725" r="3.187" fill="#0c0d0b"/>
          <circle cx="216.86" cy="291.404" r="4.781" fill="#0c0d0b"/>
          <circle cx="219.275" cy="279.234" r="5.976" fill="#0c0d0b"/>
        </g>
        <g>
          <circle cx="205.838" cy="265.792" r="3.187" fill="#0c0d0b"/>
          <circle cx="204.63" cy="257.937" r="3.187" fill="#0c0d0b"/>
          <circle cx="196.661" cy="265.616" r="4.781" fill="#0c0d0b"/>
          <circle cx="194.247" cy="253.446" r="5.976" fill="#0c0d0b"/>
        </g>
        <circle cx="203.81" cy="311.862" r="3.187" fill="#0c0d0b"/>
        <circle cx="202.601" cy="304.008" r="3.187" fill="#0c0d0b"/>
        <circle cx="201.455" cy="276.964" r="3.187" fill="#0c0d0b"/>
        <circle cx="218.454" cy="254.75" r="3.187" fill="#0c0d0b"/>
        <circle cx="230.237" cy="273.294" r="3.187" fill="#0c0d0b"/>
        <circle cx="216.716" cy="328.057" r="3.187" fill="#0c0d0b"/>
        <circle cx="210.438" cy="337.908" r="3.187" fill="#0c0d0b"/>
        <circle cx="204.836" cy="324.87" r="3.187" fill="#0c0d0b"/>
        <circle cx="199.427" cy="319.751" r="3.187" fill="#0c0d0b"/>
        <circle cx="189.865" cy="276.964" r="3.187" fill="#0c0d0b"/>
        <circle cx="194.633" cy="311.686" r="4.781" fill="#0c0d0b"/>
        <circle cx="192.219" cy="299.517" r="5.976" fill="#0c0d0b"/>
      </g>
      <circle cx="210.826" cy="247.096" r="4" fill="#cb1e1a"/>
      <circle cx="194.326" cy="253.596" r="4" fill="#cb1e1a"/>
      <circle cx="218.826" cy="266.096" r="4" fill="#cb1e1a"/>
      <circle cx="192.326" cy="299.596" r="4" fill="#cb1e1a"/>
      <circle cx="222.326" cy="305.096" r="4" fill="#cb1e1a"/>
    </g>
    <g>
      <g>
        <polygon points="65.535 148.065 51.391 162.208 51.391 157.826 51.391 157.778 51.391 109.999 51.158 109.999 51.158 157.545 37.035 143.421 36.87 143.587 51.158 157.875 51.158 183.434 51.178 183.434 51.178 188.078 51.412 188.078 51.412 162.518 65.7 148.23 65.535 148.065" fill="#0c0d0b"/>
        <circle cx="36.86" cy="143.113" r="4.077" fill="#0c0d0b"/>
        <circle cx="51.275" cy="109.999" r="5.097" fill="#0c0d0b"/>
        <circle cx="58.194" cy="126.144" r="5.097" fill="#0c0d0b"/>
        <g>
          <circle cx="64.124" cy="150.1" r="2.718" fill="#0c0d0b"/>
          <circle cx="65.155" cy="143.401" r="2.718" fill="#0c0d0b"/>
          <circle cx="71.95" cy="149.95" r="4.077" fill="#0c0d0b"/>
          <circle cx="74.01" cy="139.571" r="5.097" fill="#0c0d0b"/>
        </g>
        <g>
          <circle cx="51.027" cy="169.952" r="2.718" fill="#0c0d0b"/>
          <circle cx="52.057" cy="163.253" r="2.718" fill="#0c0d0b"/>
          <circle cx="58.853" cy="169.802" r="4.077" fill="#0c0d0b"/>
          <circle cx="60.912" cy="159.423" r="5.097" fill="#0c0d0b"/>
        </g>
        <g>
          <circle cx="48.638" cy="147.958" r="2.718" fill="#0c0d0b"/>
          <circle cx="49.668" cy="141.26" r="2.718" fill="#0c0d0b"/>
          <circle cx="56.464" cy="147.808" r="4.077" fill="#0c0d0b"/>
          <circle cx="58.524" cy="137.429" r="5.097" fill="#0c0d0b"/>
        </g>
        <g>
          <circle cx="47.063" cy="125.965" r="2.718" fill="#0c0d0b"/>
          <circle cx="46.033" cy="119.266" r="2.718" fill="#0c0d0b"/>
          <circle cx="39.237" cy="125.815" r="4.077" fill="#0c0d0b"/>
          <circle cx="37.178" cy="115.436" r="5.097" fill="#0c0d0b"/>
        </g>
        <circle cx="45.334" cy="165.256" r="2.718" fill="#0c0d0b"/>
        <circle cx="44.303" cy="158.558" r="2.718" fill="#0c0d0b"/>
        <circle cx="43.326" cy="135.493" r="2.718" fill="#0c0d0b"/>
        <circle cx="57.823" cy="116.548" r="2.718" fill="#0c0d0b"/>
        <circle cx="67.873" cy="132.363" r="2.718" fill="#0c0d0b"/>
        <circle cx="56.341" cy="179.069" r="2.718" fill="#0c0d0b"/>
        <circle cx="50.986" cy="187.471" r="2.718" fill="#0c0d0b"/>
        <circle cx="46.209" cy="176.35" r="2.718" fill="#0c0d0b"/>
        <circle cx="41.596" cy="171.985" r="2.718" fill="#0c0d0b"/>
        <circle cx="33.441" cy="135.493" r="2.718" fill="#0c0d0b"/>
        <circle cx="37.507" cy="165.106" r="4.077" fill="#0c0d0b"/>
        <circle cx="35.448" cy="154.727" r="5.097" fill="#0c0d0b"/>
      </g>
      <circle cx="51.317" cy="110.02" r="3.411" fill="#cb1e1a"/>
      <circle cx="37.245" cy="115.563" r="3.411" fill="#cb1e1a"/>
      <circle cx="58.14" cy="126.224" r="3.411" fill="#cb1e1a"/>
      <circle cx="35.539" cy="154.795" r="3.411" fill="#cb1e1a"/>
      <circle cx="61.125" cy="159.486" r="3.411" fill="#cb1e1a"/>
    </g>
    <g>
      <g>
        <polygon points="152.416 43.162 138.273 57.306 138.273 52.924 138.273 52.876 138.273 5.097 138.04 5.097 138.04 52.642 123.917 38.519 123.752 38.684 138.04 52.972 138.04 78.532 138.06 78.532 138.06 83.175 138.293 83.175 138.293 57.616 152.581 43.328 152.416 43.162" fill="#0c0d0b"/>
        <circle cx="123.741" cy="38.211" r="4.077" fill="#0c0d0b"/>
        <circle cx="138.156" cy="5.097" r="5.097" fill="#0c0d0b"/>
        <circle cx="145.076" cy="21.242" r="5.097" fill="#0c0d0b"/>
        <g>
          <circle cx="151.006" cy="45.197" r="2.718" fill="#0c0d0b"/>
          <circle cx="152.036" cy="38.499" r="2.718" fill="#0c0d0b"/>
          <circle cx="158.832" cy="45.047" r="4.077" fill="#0c0d0b"/>
          <circle cx="160.891" cy="34.669" r="5.097" fill="#0c0d0b"/>
        </g>
        <g>
          <circle cx="137.908" cy="65.049" r="2.718" fill="#0c0d0b"/>
          <circle cx="138.939" cy="58.351" r="2.718" fill="#0c0d0b"/>
          <circle cx="145.735" cy="64.899" r="4.077" fill="#0c0d0b"/>
          <circle cx="147.794" cy="54.52" r="5.097" fill="#0c0d0b"/>
        </g>
        <g>
          <circle cx="135.52" cy="43.056" r="2.718" fill="#0c0d0b"/>
          <circle cx="136.55" cy="36.357" r="2.718" fill="#0c0d0b"/>
          <circle cx="143.346" cy="42.906" r="4.077" fill="#0c0d0b"/>
          <circle cx="145.405" cy="32.527" r="5.097" fill="#0c0d0b"/>
        </g>
        <g>
          <circle cx="133.945" cy="21.062" r="2.718" fill="#0c0d0b"/>
          <circle cx="132.915" cy="14.364" r="2.718" fill="#0c0d0b"/>
          <circle cx="126.119" cy="20.912" r="4.077" fill="#0c0d0b"/>
          <circle cx="124.06" cy="10.533" r="5.097" fill="#0c0d0b"/>
        </g>
        <circle cx="132.215" cy="60.354" r="2.718" fill="#0c0d0b"/>
        <circle cx="131.185" cy="53.655" r="2.718" fill="#0c0d0b"/>
        <circle cx="130.208" cy="30.591" r="2.718" fill="#0c0d0b"/>
        <circle cx="144.705" cy="11.645" r="2.718" fill="#0c0d0b"/>
        <circle cx="154.755" cy="27.461" r="2.718" fill="#0c0d0b"/>
        <circle cx="143.222" cy="74.166" r="2.718" fill="#0c0d0b"/>
        <circle cx="137.868" cy="82.568" r="2.718" fill="#0c0d0b"/>
        <circle cx="133.091" cy="71.448" r="2.718" fill="#0c0d0b"/>
        <circle cx="128.478" cy="67.082" r="2.718" fill="#0c0d0b"/>
        <circle cx="120.323" cy="30.591" r="2.718" fill="#0c0d0b"/>
        <circle cx="124.389" cy="60.204" r="4.077" fill="#0c0d0b"/>
        <circle cx="122.33" cy="49.825" r="5.097" fill="#0c0d0b"/>
      </g>
      <circle cx="138.199" cy="5.117" r="3.411" fill="#cb1e1a"/>
      <circle cx="124.127" cy="10.661" r="3.411" fill="#cb1e1a"/>
      <circle cx="145.022" cy="21.322" r="3.411" fill="#cb1e1a"/>
      <circle cx="122.421" cy="49.893" r="3.411" fill="#cb1e1a"/>
      <circle cx="148.007" cy="54.583" r="3.411" fill="#cb1e1a"/>
    </g>
    <g>
      <g>
        <polygon points="239.852 148.065 225.709 162.208 225.709 157.826 225.709 157.778 225.709 109.999 225.476 109.999 225.476 157.545 211.353 143.421 211.188 143.587 225.476 157.875 225.476 183.434 225.496 183.434 225.496 188.078 225.729 188.078 225.729 162.518 240.017 148.23 239.852 148.065" fill="#0c0d0b"/>
        <circle cx="211.177" cy="143.113" r="4.077" fill="#0c0d0b"/>
        <circle cx="225.592" cy="109.999" r="5.097" fill="#0c0d0b"/>
        <circle cx="232.512" cy="126.144" r="5.097" fill="#0c0d0b"/>
        <g>
          <circle cx="238.442" cy="150.1" r="2.718" fill="#0c0d0b"/>
          <circle cx="239.472" cy="143.401" r="2.718" fill="#0c0d0b"/>
          <circle cx="246.268" cy="149.95" r="4.077" fill="#0c0d0b"/>
          <circle cx="248.327" cy="139.571" r="5.097" fill="#0c0d0b"/>
        </g>
        <g>
          <circle cx="225.344" cy="169.952" r="2.718" fill="#0c0d0b"/>
          <circle cx="226.375" cy="163.253" r="2.718" fill="#0c0d0b"/>
          <circle cx="233.171" cy="169.802" r="4.077" fill="#0c0d0b"/>
          <circle cx="235.23" cy="159.423" r="5.097" fill="#0c0d0b"/>
        </g>
        <g>
          <circle cx="222.956" cy="147.958" r="2.718" fill="#0c0d0b"/>
          <circle cx="223.986" cy="141.26" r="2.718" fill="#0c0d0b"/>
          <circle cx="230.782" cy="147.808" r="4.077" fill="#0c0d0b"/>
          <circle cx="232.841" cy="137.429" r="5.097" fill="#0c0d0b"/>
        </g>
        <g>
          <circle cx="221.381" cy="125.965" r="2.718" fill="#0c0d0b"/>
          <circle cx="220.351" cy="119.266" r="2.718" fill="#0c0d0b"/>
          <circle cx="213.555" cy="125.815" r="4.077" fill="#0c0d0b"/>
          <circle cx="211.495" cy="115.436" r="5.097" fill="#0c0d0b"/>
        </g>
        <circle cx="219.651" cy="165.256" r="2.718" fill="#0c0d0b"/>
        <circle cx="218.621" cy="158.558" r="2.718" fill="#0c0d0b"/>
        <circle cx="217.643" cy="135.493" r="2.718" fill="#0c0d0b"/>
        <circle cx="232.141" cy="116.548" r="2.718" fill="#0c0d0b"/>
        <circle cx="242.19" cy="132.363" r="2.718" fill="#0c0d0b"/>
        <circle cx="230.658" cy="179.069" r="2.718" fill="#0c0d0b"/>
        <circle cx="225.304" cy="187.471" r="2.718" fill="#0c0d0b"/>
        <circle cx="220.526" cy="176.35" r="2.718" fill="#0c0d0b"/>
        <circle cx="215.914" cy="171.985" r="2.718" fill="#0c0d0b"/>
        <circle cx="207.759" cy="135.493" r="2.718" fill="#0c0d0b"/>
        <circle cx="211.825" cy="165.106" r="4.077" fill="#0c0d0b"/>
        <circle cx="209.766" cy="154.727" r="5.097" fill="#0c0d0b"/>
      </g>
      <circle cx="225.635" cy="110.02" r="3.411" fill="#cb1e1a"/>
      <circle cx="211.563" cy="115.563" r="3.411" fill="#cb1e1a"/>
      <circle cx="232.458" cy="126.224" r="3.411" fill="#cb1e1a"/>
      <circle cx="209.857" cy="154.795" r="3.411" fill="#cb1e1a"/>
      <circle cx="235.443" cy="159.486" r="3.411" fill="#cb1e1a"/>
    </g>
  </g>
</svg>