<?xml version="1.0" encoding="UTF-8"?>
<svg xmlns="http://www.w3.org/2000/svg" width="100" height="100" viewBox="0 0 100 100">
  <g id="Tallo">
    <g>
      <line x1="50.003" y1="99.995" x2="50.003" y2="4.143" fill="none" stroke="#0c0d0b" stroke-miterlimit="10" stroke-width=".543"/>
      <g>
        <polygon points="50.003 98.27 49.109 98.058 50.003 97.847 50.003 98.27 50.003 98.27" fill="#0c0d0b"/>
        <polygon points="50.003 99.42 50.897 99.209 50.003 98.997 50.003 99.42 50.003 99.42" fill="#0c0d0b"/>
      </g>
      <g>
        <polygon points="50.003 94.758 49.109 94.547 50.003 94.335 50.003 94.758 50.003 94.758" fill="#0c0d0b"/>
        <polygon points="50.003 95.909 50.897 95.697 50.003 95.485 50.003 95.909 50.003 95.909" fill="#0c0d0b"/>
      </g>
      <g>
        <polygon points="50.003 91.266 49.109 91.055 50.003 90.843 50.003 91.266 50.003 91.266" fill="#0c0d0b"/>
        <polygon points="50.003 92.417 50.897 92.205 50.003 91.993 50.003 92.417 50.003 92.417" fill="#0c0d0b"/>
      </g>
      <g>
        <polygon points="50.003 87.758 49.109 87.547 50.003 87.335 50.003 87.758 50.003 87.758" fill="#0c0d0b"/>
        <polygon points="50.003 88.909 50.897 88.697 50.003 88.485 50.003 88.909 50.003 88.909" fill="#0c0d0b"/>
      </g>
      <g>
        <polygon points="50.003 84.244 49.109 84.033 50.003 83.821 50.003 84.244 50.003 84.244" fill="#0c0d0b"/>
        <polygon points="50.003 85.395 50.897 85.183 50.003 84.971 50.003 85.395 50.003 85.395" fill="#0c0d0b"/>
      </g>
      <g>
        <polygon points="50.003 80.721 49.109 80.509 50.003 80.297 50.003 80.721 50.003 80.721" fill="#0c0d0b"/>
        <polygon points="50.003 81.871 50.897 81.659 50.003 81.448 50.003 81.871 50.003 81.871" fill="#0c0d0b"/>
      </g>
      <g>
        <polygon points="50.003 77.292 49.109 77.08 50.003 76.868 50.003 77.292 50.003 77.292" fill="#0c0d0b"/>
        <polygon points="50.003 78.442 50.897 78.23 50.003 78.019 50.003 78.442 50.003 78.442" fill="#0c0d0b"/>
      </g>
      <g>
        <polygon points="50.003 73.737 49.109 73.526 50.003 73.314 50.003 73.737 50.003 73.737" fill="#0c0d0b"/>
        <polygon points="50.003 74.887 50.897 74.676 50.003 74.464 50.003 74.887 50.003 74.887" fill="#0c0d0b"/>
      </g>
      <g>
        <polygon points="50.003 70.207 49.109 69.995 50.003 69.783 50.003 70.207 50.003 70.207" fill="#0c0d0b"/>
        <polygon points="50.003 71.357 50.897 71.145 50.003 70.934 50.003 71.357 50.003 71.357" fill="#0c0d0b"/>
      </g>
      <g>
        <polygon points="50.003 66.795 49.109 66.583 50.003 66.371 50.003 66.795 50.003 66.795" fill="#0c0d0b"/>
        <polygon points="50.003 67.945 50.897 67.733 50.003 67.522 50.003 67.945 50.003 67.945" fill="#0c0d0b"/>
      </g>
      <g>
        <polygon points="50.003 63.276 49.109 63.064 50.003 62.853 50.003 63.276 50.003 63.276" fill="#0c0d0b"/>
        <polygon points="50.003 64.426 50.897 64.215 50.003 64.003 50.003 64.426 50.003 64.426" fill="#0c0d0b"/>
      </g>
      <g>
        <polygon points="50.003 59.8 49.109 59.589 50.003 59.377 50.003 59.8 50.003 59.8" fill="#0c0d0b"/>
        <polygon points="50.003 60.951 50.897 60.739 50.003 60.527 50.003 60.951 50.003 60.951" fill="#0c0d0b"/>
      </g>
      <g>
        <polygon points="50.003 56.293 49.109 56.081 50.003 55.87 50.003 56.293 50.003 56.293" fill="#0c0d0b"/>
        <polygon points="50.003 57.443 50.897 57.232 50.003 57.02 50.003 57.443 50.003 57.443" fill="#0c0d0b"/>
      </g>
      <g>
        <polygon points="50.003 52.794 49.109 52.582 50.003 52.37 50.003 52.794 50.003 52.794" fill="#0c0d0b"/>
        <polygon points="50.003 53.944 50.897 53.732 50.003 53.52 50.003 53.944 50.003 53.944" fill="#0c0d0b"/>
      </g>
      <g>
        <polygon points="50.003 49.263 49.109 49.052 50.003 48.84 50.003 49.263 50.003 49.263" fill="#0c0d0b"/>
        <polygon points="50.003 50.414 50.897 50.202 50.003 49.99 50.003 50.414 50.003 50.414" fill="#0c0d0b"/>
      </g>
      <g>
        <polygon points="50.003 45.793 49.109 45.581 50.003 45.369 50.003 45.793 50.003 45.793" fill="#0c0d0b"/>
        <polygon points="50.003 46.943 50.897 46.731 50.003 46.519 50.003 46.943 50.003 46.943" fill="#0c0d0b"/>
      </g>
      <g>
        <polygon points="50.003 42.228 49.109 42.016 50.003 41.804 50.003 42.228 50.003 42.228" fill="#0c0d0b"/>
        <polygon points="50.003 43.378 50.897 43.166 50.003 42.954 50.003 43.378 50.003 43.378" fill="#0c0d0b"/>
      </g>
      <g>
        <polygon points="50.003 38.729 49.109 38.517 50.003 38.305 50.003 38.729 50.003 38.729" fill="#0c0d0b"/>
        <polygon points="50.003 39.879 50.897 39.667 50.003 39.455 50.003 39.879 50.003 39.879" fill="#0c0d0b"/>
      </g>
      <g>
        <polygon points="50.003 35.266 49.109 35.054 50.003 34.843 50.003 35.266 50.003 35.266" fill="#0c0d0b"/>
        <polygon points="50.003 36.416 50.897 36.205 50.003 35.993 50.003 36.416 50.003 36.416" fill="#0c0d0b"/>
      </g>
      <g>
        <polygon points="50.003 31.792 49.109 31.581 50.003 31.369 50.003 31.792 50.003 31.792" fill="#0c0d0b"/>
        <polygon points="50.003 32.943 50.897 32.731 50.003 32.519 50.003 32.943 50.003 32.943" fill="#0c0d0b"/>
      </g>
      <g>
        <polygon points="50.003 28.265 49.109 28.054 50.003 27.842 50.003 28.265 50.003 28.265" fill="#0c0d0b"/>
        <polygon points="50.003 29.416 50.897 29.204 50.003 28.992 50.003 29.416 50.003 29.416" fill="#0c0d0b"/>
      </g>
      <g>
        <polygon points="50.003 24.743 49.109 24.532 50.003 24.32 50.003 24.743 50.003 24.743" fill="#0c0d0b"/>
        <polygon points="50.003 25.894 50.897 25.682 50.003 25.47 50.003 25.894 50.003 25.894" fill="#0c0d0b"/>
      </g>
      <g>
        <polygon points="50.003 21.302 49.109 21.091 50.003 20.879 50.003 21.302 50.003 21.302" fill="#0c0d0b"/>
        <polygon points="50.003 22.453 50.897 22.241 50.003 22.029 50.003 22.453 50.003 22.453" fill="#0c0d0b"/>
      </g>
      <g>
        <polygon points="50.003 17.771 49.109 17.56 50.003 17.348 50.003 17.771 50.003 17.771" fill="#0c0d0b"/>
        <polygon points="50.003 18.921 50.897 18.71 50.003 18.498 50.003 18.921 50.003 18.921" fill="#0c0d0b"/>
      </g>
      <g>
        <polygon points="50.003 14.268 49.109 14.056 50.003 13.845 50.003 14.268 50.003 14.268" fill="#0c0d0b"/>
        <polygon points="50.003 15.418 50.897 15.207 50.003 14.995 50.003 15.418 50.003 15.418" fill="#0c0d0b"/>
      </g>
      <g>
        <polygon points="50.003 10.759 49.109 10.548 50.003 10.336 50.003 10.759 50.003 10.759" fill="#0c0d0b"/>
        <polygon points="50.003 11.91 50.897 11.698 50.003 11.486 50.003 11.91 50.003 11.91" fill="#0c0d0b"/>
      </g>
      <g>
        <polygon points="50.003 7.25 49.109 7.038 50.003 6.826 50.003 7.25 50.003 7.25" fill="#0c0d0b"/>
        <polygon points="50.003 8.4 50.897 8.188 50.003 7.976 50.003 8.4 50.003 8.4" fill="#0c0d0b"/>
      </g>
      <g>
        <polygon points="50.003 3.78 49.109 3.568 50.003 3.357 50.003 3.78 50.003 3.78" fill="#0c0d0b"/>
        <polygon points="50.003 4.93 50.897 4.719 50.003 4.507 50.003 4.93 50.003 4.93" fill="#0c0d0b"/>
      </g>
    </g>
  </g>
  <g id="Hojas">
    <path d="M58.499,87.203c-1.681-.224-3.423.132-4.886.961,0,0-.075.043-.075.043-.192.109-.324.263-.428.47-.139.28-.204.613-.255.942-.054.351-.095.754-.167,1.095-.079.369-.2.739-.481.971l-2.214,1.267-2.173-1.244c-.302-.23-.428-.613-.51-.994-.072-.341-.113-.743-.167-1.095-.051-.328-.116-.662-.255-.942-.104-.207-.235-.361-.428-.47,0,0-.075-.043-.075-.043-1.463-.829-3.205-1.185-4.886-.961-.363.05-.734.121-1.086.239.074.364.198.72.336,1.06.646,1.568,1.826,2.899,3.275,3.751,0,0,.075.044.075.044.19.112.39.149.621.136.311-.019.634-.13.943-.25.331-.129.7-.295,1.031-.403.341-.11.702-.189,1.03-.087l2.267,1.298v-.002s.002.002.002.002l2.252-1.289c.336-.115.706-.036,1.057.078.331.108.7.274,1.031.403.309.12.631.231.943.25.231.014.43-.023.621-.136,0,0,.075-.044.075-.044,1.449-.852,2.629-2.183,3.275-3.751.138-.34.263-.696.336-1.06-.352-.118-.723-.189-1.086-.239Z" fill="#0c0d0b"/>
    <g>
      <path d="M56.313,80.531c.35,0,.633-.284.633-.633s-.284-.633-.633-.633-.633.284-.633.633.284.633.633.633Z"/>
      <path d="M59.691,78.251c.35,0,.633-.284.633-.633s-.284-.633-.633-.633-.633.284-.633.633.284.633.633.633Z"/>
      <circle cx="59.902" cy="81.164" r=".633"/>
      <path d="M56.144,84.078c.35,0,.633-.284.633-.633s-.284-.633-.633-.633-.633.284-.633.633.284.633.633.633Z"/>
      <path d="M64.124,80.531c-.076,0-.143.033-.19.086l-3.442-.983.925-.776c.092.087.236.093.336.01.107-.09.122-.249.032-.357-.09-.107-.25-.122-.357-.032-.083.07-.11.181-.077.278l-2.753,2.309c.011-.039.023-.079.034-.118.157-.577.256-1.134.305-1.703.095-1.104-.031-2.021-.132-2.758-.047-.34-.088-.643-.104-.921.019-.009.037-.02.053-.034.107-.09.122-.249.032-.357-.09-.107-.249-.122-.357-.032s-.122.249-.032.357c.048.057.116.088.185.09.017.277.058.577.104.912.1.731.225,1.641.131,2.732-.048.562-.147,1.112-.302,1.682-.017.061-.035.123-.053.185l-1.848-2.659.56-2.262c.008,0,.015.001.023.001.35,0,.633-.284.633-.633s-.284-.633-.633-.633-.633.284-.633.633c0,.301.21.552.491.617l-.531,2.147-.617-.888c.069-.101.109-.224.109-.355,0-.35-.284-.633-.633-.633s-.633.284-.633.633.284.633.633.633c.173,0,.331-.07.445-.183l.659.948v.002s.002,0,.002,0l1.931,2.779c-.161.524-.369,1.061-.621,1.601-.656,1.406-2.082,2.254-3.463,2.763v-3.608c.04-.008.079-.026.112-.054.107-.09.122-.249.032-.357-.09-.107-.249-.122-.357-.032s-.122.249-.032.357c.034.041.078.068.125.081v3.656c-.381.135-.757.246-1.11.335-.902.227-1.759.346-2.395.409-.037-.362-.34-.645-.711-.645s-.674.283-.711.645c-.636-.062-1.493-.182-2.395-.409-.353-.089-.729-.199-1.11-.335v-3.656c.047-.013.091-.041.125-.081.09-.107.075-.267-.032-.357s-.267-.075-.357.032c-.09.107-.075.267.032.357.033.028.072.046.112.054v3.608c-1.381-.509-2.807-1.357-3.463-2.763-.252-.54-.46-1.077-.621-1.601l1.931-2.779h.002s0-.002,0-.002l.659-.948c.114.113.271.183.445.183.35,0,.633-.284.633-.633s-.284-.633-.633-.633-.633.284-.633.633c0,.132.04.254.109.355l-.617.888-.531-2.147c.281-.065.491-.316.491-.617,0-.35-.284-.633-.633-.633s-.633.284-.633.633.284.633.633.633c.008,0,.015,0,.023-.001l.56,2.262-1.848,2.659c-.018-.062-.036-.124-.053-.185-.155-.57-.253-1.12-.302-1.682-.094-1.091.031-2.001.131-2.732.046-.335.087-.635.104-.912.069-.003.137-.033.185-.09.09-.107.075-.267-.032-.357s-.267-.075-.357.032c-.09.107-.075.267.032.357.017.014.034.025.053.034-.016.278-.057.581-.104.921-.101.737-.227,1.654-.132,2.758.049.569.149,1.126.305,1.703.011.039.022.079.034.118l-2.753-2.309c.034-.097.007-.208-.077-.278-.107-.09-.267-.075-.357.032-.09.107-.075.267.032.357.099.083.244.077.336-.01l.925.776-3.442.983c-.046-.052-.114-.086-.19-.086-.14,0-.253.113-.253.253s.113.253.253.253.253-.113.253-.253c0-.02-.003-.04-.007-.059l3.496-.999,1.845,1.547c.163.532.374,1.078.63,1.626.876,1.878,3.08,2.781,4.775,3.207.912.229,1.778.349,2.419.412.024.375.333.673.714.673s.69-.298.714-.673c.642-.063,1.507-.182,2.419-.412,1.695-.426,3.899-1.329,4.775-3.207.256-.548.467-1.094.63-1.626l1.845-1.547,3.496.999c-.005.019-.007.039-.007.059,0,.14.113.253.253.253s.253-.113.253-.253-.113-.253-.253-.253Z"/>
      <path d="M44.321,79.898c0-.35-.284-.633-.633-.633s-.633.284-.633.633.284.633.633.633.633-.284.633-.633Z"/>
      <path d="M40.309,78.251c.35,0,.633-.284.633-.633s-.284-.633-.633-.633-.633.284-.633.633.284.633.633.633Z"/>
      <circle cx="40.098" cy="81.164" r=".633"/>
      <path d="M43.856,84.078c.35,0,.633-.284.633-.633s-.284-.633-.633-.633-.633.284-.633.633.284.633.633.633Z"/>
    </g>
    <path d="M58.499,68.607c-1.681-.224-3.423.132-4.886.961,0,0-.075.043-.075.043-.192.109-.324.263-.428.47-.139.28-.204.613-.255.942-.054.351-.095.754-.167,1.095-.079.369-.2.739-.481.971l-2.214,1.267-2.173-1.244c-.302-.23-.428-.613-.51-.994-.072-.341-.113-.743-.167-1.095-.051-.328-.116-.662-.255-.942-.104-.207-.235-.361-.428-.47,0,0-.075-.043-.075-.043-1.463-.829-3.205-1.185-4.886-.961-.363.05-.734.121-1.086.239.074.364.198.72.336,1.06.646,1.568,1.826,2.899,3.275,3.751,0,0,.075.044.075.044.19.112.39.149.621.136.311-.019.634-.13.943-.25.331-.129.7-.295,1.031-.403.341-.11.702-.189,1.03-.087l2.267,1.298v-.002s.002.002.002.002l2.252-1.289c.336-.115.706-.036,1.057.078.331.108.7.274,1.031.403.309.12.631.231.943.25.231.014.43-.023.621-.136,0,0,.075-.044.075-.044,1.449-.852,2.629-2.183,3.275-3.751.138-.34.263-.696.336-1.06-.352-.118-.723-.189-1.086-.239Z" fill="#0c0d0b"/>
    <g>
      <path d="M56.313,61.936c.35,0,.633-.284.633-.633s-.284-.633-.633-.633-.633.284-.633.633.284.633.633.633Z"/>
      <path d="M59.691,59.656c.35,0,.633-.284.633-.633s-.284-.633-.633-.633-.633.284-.633.633.284.633.633.633Z"/>
      <circle cx="59.902" cy="62.569" r=".633"/>
      <path d="M56.144,65.483c.35,0,.633-.284.633-.633s-.284-.633-.633-.633-.633.284-.633.633.284.633.633.633Z"/>
      <path d="M64.124,61.936c-.076,0-.143.033-.19.086l-3.442-.983.925-.776c.092.087.236.093.336.01.107-.09.122-.249.032-.357-.09-.107-.25-.122-.357-.032-.083.07-.11.181-.077.278l-2.753,2.309c.011-.039.023-.079.034-.118.157-.577.256-1.134.305-1.703.095-1.104-.031-2.021-.132-2.758-.047-.34-.088-.643-.104-.921.019-.009.037-.02.053-.034.107-.09.122-.249.032-.357-.09-.107-.249-.122-.357-.032s-.122.249-.032.357c.048.057.116.088.185.09.017.277.058.577.104.912.1.731.225,1.641.131,2.732-.048.562-.147,1.112-.302,1.682-.017.061-.035.123-.053.185l-1.848-2.659.56-2.262c.008,0,.015.001.023.001.35,0,.633-.284.633-.633s-.284-.633-.633-.633-.633.284-.633.633c0,.301.21.552.491.617l-.531,2.147-.617-.888c.069-.101.109-.224.109-.355,0-.35-.284-.633-.633-.633s-.633.284-.633.633.284.633.633.633c.173,0,.331-.07.445-.183l.659.948v.002s.002,0,.002,0l1.931,2.779c-.161.524-.369,1.061-.621,1.601-.656,1.406-2.082,2.254-3.463,2.763v-3.608c.04-.008.079-.026.112-.054.107-.09.122-.249.032-.357-.09-.107-.249-.122-.357-.032s-.122.249-.032.357c.034.041.078.068.125.081v3.656c-.381.135-.757.246-1.11.335-.902.227-1.759.346-2.395.409-.037-.362-.34-.645-.711-.645s-.674.283-.711.645c-.636-.062-1.493-.182-2.395-.409-.353-.089-.729-.199-1.11-.335v-3.656c.047-.013.091-.041.125-.081.09-.107.075-.267-.032-.357s-.267-.075-.357.032c-.09.107-.075.267.032.357.033.028.072.046.112.054v3.608c-1.381-.509-2.807-1.357-3.463-2.763-.252-.54-.46-1.077-.621-1.601l1.931-2.779h.002s0-.002,0-.002l.659-.948c.114.113.271.183.445.183.35,0,.633-.284.633-.633s-.284-.633-.633-.633-.633.284-.633.633c0,.132.04.254.109.355l-.617.888-.531-2.147c.281-.065.491-.316.491-.617,0-.35-.284-.633-.633-.633s-.633.284-.633.633.284.633.633.633c.008,0,.015,0,.023-.001l.56,2.262-1.848,2.659c-.018-.062-.036-.124-.053-.185-.155-.57-.253-1.12-.302-1.682-.094-1.091.031-2.001.131-2.732.046-.335.087-.635.104-.912.069-.003.137-.033.185-.09.09-.107.075-.267-.032-.357s-.267-.075-.357.032c-.09.107-.075.267.032.357.017.014.034.025.053.034-.016.278-.057.581-.104.921-.101.737-.227,1.654-.132,2.758.049.569.149,1.126.305,1.703.011.039.022.079.034.118l-2.753-2.309c.034-.097.007-.208-.077-.278-.107-.09-.267-.075-.357.032-.09.107-.075.267.032.357.099.083.244.077.336-.01l.925.776-3.442.983c-.046-.052-.114-.086-.19-.086-.14,0-.253.113-.253.253s.113.253.253.253.253-.113.253-.253c0-.02-.003-.04-.007-.059l3.496-.999,1.845,1.547c.163.532.374,1.078.63,1.626.876,1.878,3.08,2.781,4.775,3.207.912.229,1.778.349,2.419.412.024.375.333.673.714.673s.69-.298.714-.673c.642-.063,1.507-.182,2.419-.412,1.695-.426,3.899-1.329,4.775-3.207.256-.548.467-1.094.63-1.626l1.845-1.547,3.496.999c-.005.019-.007.039-.007.059,0,.14.113.253.253.253s.253-.113.253-.253-.113-.253-.253-.253Z"/>
      <path d="M44.321,61.302c0-.35-.284-.633-.633-.633s-.633.284-.633.633.284.633.633.633.633-.284.633-.633Z"/>
      <path d="M40.309,59.656c.35,0,.633-.284.633-.633s-.284-.633-.633-.633-.633.284-.633.633.284.633.633.633Z"/>
      <circle cx="40.098" cy="62.569" r=".633"/>
      <path d="M43.856,65.483c.35,0,.633-.284.633-.633s-.284-.633-.633-.633-.633.284-.633.633.284.633.633.633Z"/>
    </g>
    <path d="M58.499,50.012c-1.681-.224-3.423.132-4.886.961,0,0-.075.043-.075.043-.192.109-.324.263-.428.47-.139.28-.204.613-.255.942-.054.351-.095.754-.167,1.095-.079.369-.2.739-.481.971l-2.214,1.267-2.173-1.244c-.302-.23-.428-.613-.51-.994-.072-.341-.113-.743-.167-1.095-.051-.328-.116-.662-.255-.942-.104-.207-.235-.361-.428-.47,0,0-.075-.043-.075-.043-1.463-.829-3.205-1.185-4.886-.961-.363.05-.734.121-1.086.239.074.364.198.72.336,1.06.646,1.568,1.826,2.899,3.275,3.751,0,0,.075.044.075.044.19.112.39.149.621.136.311-.019.634-.13.943-.25.331-.129.7-.295,1.031-.403.341-.11.702-.189,1.03-.087l2.267,1.298v-.002s.002.002.002.002l2.252-1.289c.336-.115.706-.036,1.057.078.331.108.7.274,1.031.403.309.12.631.231.943.25.231.014.43-.023.621-.136,0,0,.075-.044.075-.044,1.449-.852,2.629-2.183,3.275-3.751.138-.34.263-.696.336-1.06-.352-.118-.723-.189-1.086-.239Z" fill="#0c0d0b"/>
    <g>
      <path d="M56.313,43.341c.35,0,.633-.284.633-.633s-.284-.633-.633-.633-.633.284-.633.633.284.633.633.633Z"/>
      <path d="M59.691,41.061c.35,0,.633-.284.633-.633s-.284-.633-.633-.633-.633.284-.633.633.284.633.633.633Z"/>
      <circle cx="59.902" cy="43.974" r=".633"/>
      <path d="M56.144,46.888c.35,0,.633-.284.633-.633s-.284-.633-.633-.633-.633.284-.633.633.284.633.633.633Z"/>
      <path d="M64.124,43.341c-.076,0-.143.033-.19.086l-3.442-.983.925-.776c.092.087.236.093.336.01.107-.09.122-.249.032-.357-.09-.107-.25-.122-.357-.032-.083.07-.11.181-.077.278l-2.753,2.309c.011-.039.023-.079.034-.118.157-.577.256-1.134.305-1.703.095-1.104-.031-2.021-.132-2.758-.047-.34-.088-.643-.104-.921.019-.009.037-.02.053-.034.107-.09.122-.249.032-.357-.09-.107-.249-.122-.357-.032s-.122.249-.032.357c.048.057.116.088.185.09.017.277.058.577.104.912.1.731.225,1.641.131,2.732-.048.562-.147,1.112-.302,1.682-.017.061-.035.123-.053.185l-1.848-2.659.56-2.262c.008,0,.015.001.023.001.35,0,.633-.284.633-.633s-.284-.633-.633-.633-.633.284-.633.633c0,.301.21.552.491.617l-.531,2.147-.617-.888c.069-.101.109-.224.109-.355,0-.35-.284-.633-.633-.633s-.633.284-.633.633.284.633.633.633c.173,0,.331-.07.445-.183l.659.948v.002s.002,0,.002,0l1.931,2.779c-.161.524-.369,1.061-.621,1.601-.656,1.406-2.082,2.254-3.463,2.763v-3.608c.04-.008.079-.026.112-.054.107-.09.122-.249.032-.357-.09-.107-.249-.122-.357-.032s-.122.249-.032.357c.034.041.078.068.125.081v3.656c-.381.135-.757.246-1.11.335-.902.227-1.759.346-2.395.409-.037-.362-.34-.645-.711-.645s-.674.283-.711.645c-.636-.062-1.493-.182-2.395-.409-.353-.089-.729-.199-1.11-.335v-3.656c.047-.013.091-.041.125-.081.09-.107.075-.267-.032-.357s-.267-.075-.357.032c-.09.107-.075.267.032.357.033.028.072.046.112.054v3.608c-1.381-.509-2.807-1.357-3.463-2.763-.252-.54-.46-1.077-.621-1.601l1.931-2.779h.002s0-.002,0-.002l.659-.948c.114.113.271.183.445.183.35,0,.633-.284.633-.633s-.284-.633-.633-.633-.633.284-.633.633c0,.132.04.254.109.355l-.617.888-.531-2.147c.281-.065.491-.316.491-.617,0-.35-.284-.633-.633-.633s-.633.284-.633.633.284.633.633.633c.008,0,.015,0,.023-.001l.56,2.262-1.848,2.659c-.018-.062-.036-.124-.053-.185-.155-.57-.253-1.12-.302-1.682-.094-1.091.031-2.001.131-2.732.046-.335.087-.635.104-.912.069-.003.137-.033.185-.09.09-.107.075-.267-.032-.357s-.267-.075-.357.032c-.09.107-.075.267.032.357.017.014.034.025.053.034-.016.278-.057.581-.104.921-.101.737-.227,1.654-.132,2.758.049.569.149,1.126.305,1.703.011.039.022.079.034.118l-2.753-2.309c.034-.097.007-.208-.077-.278-.107-.09-.267-.075-.357.032-.09.107-.075.267.032.357.099.083.244.077.336-.01l.925.776-3.442.983c-.046-.052-.114-.086-.19-.086-.14,0-.253.113-.253.253s.113.253.253.253.253-.113.253-.253c0-.02-.003-.04-.007-.059l3.496-.999,1.845,1.547c.163.532.374,1.078.63,1.626.876,1.878,3.08,2.781,4.775,3.207.912.229,1.778.349,2.419.412.024.375.333.673.714.673s.69-.298.714-.673c.642-.063,1.507-.182,2.419-.412,1.695-.426,3.899-1.329,4.775-3.207.256-.548.467-1.094.63-1.626l1.845-1.547,3.496.999c-.005.019-.007.039-.007.059,0,.14.113.253.253.253s.253-.113.253-.253-.113-.253-.253-.253Z"/>
      <path d="M44.321,42.707c0-.35-.284-.633-.633-.633s-.633.284-.633.633.284.633.633.633.633-.284.633-.633Z"/>
      <path d="M40.309,41.061c.35,0,.633-.284.633-.633s-.284-.633-.633-.633-.633.284-.633.633.284.633.633.633Z"/>
      <circle cx="40.098" cy="43.974" r=".633"/>
      <path d="M43.856,46.888c.35,0,.633-.284.633-.633s-.284-.633-.633-.633-.633.284-.633.633.284.633.633.633Z"/>
    </g>
    <path d="M58.499,31.417c-1.681-.224-3.423.132-4.886.961,0,0-.075.043-.075.043-.192.109-.324.263-.428.47-.139.28-.204.613-.255.942-.054.351-.095.754-.167,1.095-.079.369-.2.739-.481.971l-2.214,1.267-2.173-1.244c-.302-.23-.428-.613-.51-.994-.072-.341-.113-.743-.167-1.095-.051-.328-.116-.662-.255-.942-.104-.207-.235-.361-.428-.47,0,0-.075-.043-.075-.043-1.463-.829-3.205-1.185-4.886-.961-.363.05-.734.121-1.086.239.074.364.198.72.336,1.06.646,1.568,1.826,2.899,3.275,3.751,0,0,.075.044.075.044.19.112.39.149.621.136.311-.019.634-.13.943-.25.331-.129.7-.295,1.031-.403.341-.11.702-.189,1.03-.087l2.267,1.298v-.002s.002.002.002.002l2.252-1.289c.336-.115.706-.036,1.057.078.331.108.7.274,1.031.403.309.12.631.231.943.25.231.014.43-.023.621-.136,0,0,.075-.044.075-.044,1.449-.852,2.629-2.183,3.275-3.751.138-.34.263-.696.336-1.06-.352-.118-.723-.189-1.086-.239Z" fill="#0c0d0b"/>
    <g>
      <path d="M56.313,24.745c.35,0,.633-.284.633-.633s-.284-.633-.633-.633-.633.284-.633.633.284.633.633.633Z"/>
      <path d="M59.691,22.465c.35,0,.633-.284.633-.633s-.284-.633-.633-.633-.633.284-.633.633.284.633.633.633Z"/>
      <circle cx="59.902" cy="25.379" r=".633"/>
      <path d="M56.144,28.292c.35,0,.633-.284.633-.633s-.284-.633-.633-.633-.633.284-.633.633.284.633.633.633Z"/>
      <path d="M64.124,24.745c-.076,0-.143.033-.19.086l-3.442-.983.925-.776c.092.087.236.093.336.01.107-.09.122-.249.032-.357-.09-.107-.25-.122-.357-.032-.083.07-.11.181-.077.278l-2.753,2.309c.011-.039.023-.079.034-.118.157-.577.256-1.134.305-1.703.095-1.104-.031-2.021-.132-2.758-.047-.34-.088-.643-.104-.921.019-.009.037-.02.053-.034.107-.09.122-.249.032-.357-.09-.107-.249-.122-.357-.032s-.122.249-.032.357c.048.057.116.088.185.09.017.277.058.577.104.912.1.731.225,1.641.131,2.732-.048.562-.147,1.112-.302,1.682-.017.061-.035.123-.053.185l-1.848-2.659.56-2.262c.008,0,.015.001.023.001.35,0,.633-.284.633-.633s-.284-.633-.633-.633-.633.284-.633.633c0,.301.21.552.491.617l-.531,2.147-.617-.888c.069-.101.109-.224.109-.355,0-.35-.284-.633-.633-.633s-.633.284-.633.633.284.633.633.633c.173,0,.331-.07.445-.183l.659.948v.002s.002,0,.002,0l1.931,2.779c-.161.524-.369,1.061-.621,1.601-.656,1.406-2.082,2.254-3.463,2.763v-3.608c.04-.008.079-.026.112-.054.107-.09.122-.249.032-.357-.09-.107-.249-.122-.357-.032s-.122.249-.032.357c.034.041.078.068.125.081v3.656c-.381.135-.757.246-1.11.335-.902.227-1.759.346-2.395.409-.037-.362-.34-.645-.711-.645s-.674.283-.711.645c-.636-.062-1.493-.182-2.395-.409-.353-.089-.729-.199-1.11-.335v-3.656c.047-.013.091-.041.125-.081.09-.107.075-.267-.032-.357s-.267-.075-.357.032c-.09.107-.075.267.032.357.033.028.072.046.112.054v3.608c-1.381-.509-2.807-1.357-3.463-2.763-.252-.54-.46-1.077-.621-1.601l1.931-2.779h.002s0-.002,0-.002l.659-.948c.114.113.271.183.445.183.35,0,.633-.284.633-.633s-.284-.633-.633-.633-.633.284-.633.633c0,.132.04.254.109.355l-.617.888-.531-2.147c.281-.065.491-.316.491-.617,0-.35-.284-.633-.633-.633s-.633.284-.633.633.284.633.633.633c.008,0,.015,0,.023-.001l.56,2.262-1.848,2.659c-.018-.062-.036-.124-.053-.185-.155-.57-.253-1.12-.302-1.682-.094-1.091.031-2.001.131-2.732.046-.335.087-.635.104-.912.069-.003.137-.033.185-.09.09-.107.075-.267-.032-.357s-.267-.075-.357.032c-.09.107-.075.267.032.357.017.014.034.025.053.034-.016.278-.057.581-.104.921-.101.737-.227,1.654-.132,2.758.049.569.149,1.126.305,1.703.011.039.022.079.034.118l-2.753-2.309c.034-.097.007-.208-.077-.278-.107-.09-.267-.075-.357.032-.09.107-.075.267.032.357.099.083.244.077.336-.01l.925.776-3.442.983c-.046-.052-.114-.086-.19-.086-.14,0-.253.113-.253.253s.113.253.253.253.253-.113.253-.253c0-.02-.003-.04-.007-.059l3.496-.999,1.845,1.547c.163.532.374,1.078.63,1.626.876,1.878,3.08,2.781,4.775,3.207.912.229,1.778.349,2.419.412.024.375.333.673.714.673s.69-.298.714-.673c.642-.063,1.507-.182,2.419-.412,1.695-.426,3.899-1.329,4.775-3.207.256-.548.467-1.094.63-1.626l1.845-1.547,3.496.999c-.005.019-.007.039-.007.059,0,.14.113.253.253.253s.253-.113.253-.253-.113-.253-.253-.253Z"/>
      <path d="M44.321,24.112c0-.35-.284-.633-.633-.633s-.633.284-.633.633.284.633.633.633.633-.284.633-.633Z"/>
      <path d="M40.309,22.465c.35,0,.633-.284.633-.633s-.284-.633-.633-.633-.633.284-.633.633.284.633.633.633Z"/>
      <circle cx="40.098" cy="25.379" r=".633"/>
      <path d="M43.856,28.292c.35,0,.633-.284.633-.633s-.284-.633-.633-.633-.633.284-.633.633.284.633.633.633Z"/>
    </g>
  </g>
  <g id="Flores">
    <g>
      <g>
        <ellipse cx="49.937" cy="1.745" rx="2.485" ry="1.74" fill="#0c0d0b"/>
        <path d="M56.354,13.295c-1.986-.914-4.4.328-5.583,2.019-.253.307-.482.79-.62.897v-1.893c.543-1.549,2.262-2.234,4.021-2.849,1.202-.392,3.967-1.158,3.49-2.785-.932-1.36-3.165-1.198-4.481-.341-1.474.926-2.33,2.383-3.03,3.448v-2.468c.569-1.374,2.021-2.056,3.97-2.749.826-.298,1.505-.273,1.923-.747,2.086-3.775-2.446-5.935-5.183-.284-.149.334-.544,1.048-.71,1.513v-2.862h-.426v3.727c-.43-1.12-1.19-3.678-2.414-4.147-2.078-.468-1.519,1.974-.749,3.022.562.888,1.481,1.728,2.191,2.336.714.546.977,1.179.973,2.092-.009.283-.004.597,0,.917v.88c-.008.294-.027.577-.071.83-.065.112-.369-.117-.434-.206-.949-1.551-1.945-3.902-3.157-5.432-1.108-1.671-3.958-.362-2.742,1.583.717,1.279,2.07,1.968,3.219,2.916.797.78,2.639,1.591,3.186,2.678v1.017c-.291.193-.899-.121-1.293-.361-1.841-1.212-9.822-6.763-9.232-1.444.782,3.219,3.944,4.137,6.736,3.896,3.289-.07,7.272.143,9.824-.091,2.913-.84,3.688-3.736.593-5.113Z" fill="#0c0d0b"/>
      </g>
      <circle cx="49.937" cy="1.922" r=".781" fill="#cb1e1a"/>
    </g>
  </g>
</svg>