<?xml version="1.0" encoding="UTF-8"?>
<svg xmlns="http://www.w3.org/2000/svg" width="100" height="100" viewBox="0 0 100 100">
  <g id="Tallo">
    <g>
      <g>
        <line x1="50" y1="100.056" x2="50" y2="16.61" fill="none" stroke="#0c0d0b" stroke-miterlimit="10" stroke-width=".473"/>
        <g>
          <polygon points="50 98.554 49.222 98.37 50 98.186 50 98.554 50 98.554" fill="#0c0d0b"/>
          <polygon points="50 99.556 50.778 99.371 50 99.187 50 99.556 50 99.556" fill="#0c0d0b"/>
        </g>
        <g>
          <polygon points="50 95.497 49.222 95.313 50 95.128 50 95.497 50 95.497" fill="#0c0d0b"/>
          <polygon points="50 96.498 50.778 96.314 50 96.13 50 96.498 50 96.498" fill="#0c0d0b"/>
        </g>
        <g>
          <polygon points="50 92.457 49.222 92.273 50 92.088 50 92.457 50 92.457" fill="#0c0d0b"/>
          <polygon points="50 93.458 50.778 93.274 50 93.09 50 93.458 50 93.458" fill="#0c0d0b"/>
        </g>
        <g>
          <polygon points="50 89.403 49.222 89.219 50 89.034 50 89.403 50 89.403" fill="#0c0d0b"/>
          <polygon points="50 90.404 50.778 90.22 50 90.036 50 90.404 50 90.404" fill="#0c0d0b"/>
        </g>
        <g>
          <polygon points="50 86.344 49.222 86.159 50 85.975 50 86.344 50 86.344" fill="#0c0d0b"/>
          <polygon points="50 87.345 50.778 87.161 50 86.976 50 87.345 50 87.345" fill="#0c0d0b"/>
        </g>
        <g>
          <polygon points="50 83.276 49.222 83.092 50 82.908 50 83.276 50 83.276" fill="#0c0d0b"/>
          <polygon points="50 84.278 50.778 84.093 50 83.909 50 84.278 50 84.278" fill="#0c0d0b"/>
        </g>
        <g>
          <polygon points="50 80.291 49.222 80.107 50 79.923 50 80.291 50 80.291" fill="#0c0d0b"/>
          <polygon points="50 81.293 50.778 81.108 50 80.924 50 81.293 50 81.293" fill="#0c0d0b"/>
        </g>
        <g>
          <polygon points="50 77.197 49.222 77.012 50 76.828 50 77.197 50 77.197" fill="#0c0d0b"/>
          <polygon points="50 78.198 50.778 78.014 50 77.829 50 78.198 50 78.198" fill="#0c0d0b"/>
        </g>
        <g>
          <polygon points="50 74.123 49.222 73.939 50 73.755 50 74.123 50 74.123" fill="#0c0d0b"/>
          <polygon points="50 75.125 50.778 74.94 50 74.756 50 75.125 50 75.125" fill="#0c0d0b"/>
        </g>
        <g>
          <polygon points="50 71.153 49.222 70.968 50 70.784 50 71.153 50 71.153" fill="#0c0d0b"/>
          <polygon points="50 72.154 50.778 71.97 50 71.785 50 72.154 50 72.154" fill="#0c0d0b"/>
        </g>
        <g>
          <polygon points="50 68.089 49.222 67.905 50 67.721 50 68.089 50 68.089" fill="#0c0d0b"/>
          <polygon points="50 69.091 50.778 68.906 50 68.722 50 69.091 50 69.091" fill="#0c0d0b"/>
        </g>
        <g>
          <polygon points="50 65.064 49.222 64.879 50 64.695 50 65.064 50 65.064" fill="#0c0d0b"/>
          <polygon points="50 66.065 50.778 65.881 50 65.696 50 66.065 50 66.065" fill="#0c0d0b"/>
        </g>
        <g>
          <polygon points="50 62.01 49.222 61.826 50 61.642 50 62.01 50 62.01" fill="#0c0d0b"/>
          <polygon points="50 63.012 50.778 62.827 50 62.643 50 63.012 50 63.012" fill="#0c0d0b"/>
        </g>
        <g>
          <polygon points="50 58.964 49.222 58.779 50 58.595 50 58.964 50 58.964" fill="#0c0d0b"/>
          <polygon points="50 59.965 50.778 59.781 50 59.596 50 59.965 50 59.965" fill="#0c0d0b"/>
        </g>
        <g>
          <polygon points="50 55.89 49.222 55.706 50 55.522 50 55.89 50 55.89" fill="#0c0d0b"/>
          <polygon points="50 56.892 50.778 56.707 50 56.523 50 56.892 50 56.892" fill="#0c0d0b"/>
        </g>
        <g>
          <polygon points="50 52.869 49.222 52.684 50 52.5 50 52.869 50 52.869" fill="#0c0d0b"/>
          <polygon points="50 53.87 50.778 53.686 50 53.501 50 53.87 50 53.87" fill="#0c0d0b"/>
        </g>
        <g>
          <polygon points="50 49.765 49.222 49.581 50 49.396 50 49.765 50 49.765" fill="#0c0d0b"/>
          <polygon points="50 50.766 50.778 50.582 50 50.398 50 50.766 50 50.766" fill="#0c0d0b"/>
        </g>
        <g>
          <polygon points="50 46.719 49.222 46.535 50 46.35 50 46.719 50 46.719" fill="#0c0d0b"/>
          <polygon points="50 47.72 50.778 47.536 50 47.352 50 47.72 50 47.72" fill="#0c0d0b"/>
        </g>
        <g>
          <polygon points="50 43.655 49.222 43.471 50 43.287 50 43.655 50 43.655" fill="#0c0d0b"/>
          <polygon points="50 44.657 50.778 44.472 50 44.288 50 44.657 50 44.657" fill="#0c0d0b"/>
        </g>
        <g>
          <polygon points="50 40.681 49.222 40.496 50 40.312 50 40.681 50 40.681" fill="#0c0d0b"/>
          <polygon points="50 41.682 50.778 41.498 50 41.313 50 41.682 50 41.682" fill="#0c0d0b"/>
        </g>
        <g>
          <polygon points="50 37.61 49.222 37.426 50 37.241 50 37.61 50 37.61" fill="#0c0d0b"/>
          <polygon points="50 38.611 50.778 38.427 50 38.243 50 38.611 50 38.611" fill="#0c0d0b"/>
        </g>
        <g>
          <polygon points="50 34.544 49.222 34.36 50 34.175 50 34.544 50 34.544" fill="#0c0d0b"/>
          <polygon points="50 35.545 50.778 35.361 50 35.177 50 35.545 50 35.545" fill="#0c0d0b"/>
        </g>
        <g>
          <polygon points="50 31.548 49.222 31.364 50 31.18 50 31.548 50 31.548" fill="#0c0d0b"/>
          <polygon points="50 32.55 50.778 32.365 50 32.181 50 32.55 50 32.55" fill="#0c0d0b"/>
        </g>
        <g>
          <polygon points="50 28.474 49.222 28.29 50 28.105 50 28.474 50 28.474" fill="#0c0d0b"/>
          <polygon points="50 29.475 50.778 29.291 50 29.107 50 29.475 50 29.475" fill="#0c0d0b"/>
        </g>
        <g>
          <polygon points="50 25.384 49.222 25.2 50 25.016 50 25.384 50 25.384" fill="#0c0d0b"/>
          <polygon points="50 26.386 50.778 26.201 50 26.017 50 26.386 50 26.386" fill="#0c0d0b"/>
        </g>
        <g>
          <polygon points="50 22.37 49.222 22.185 50 22.001 50 22.37 50 22.37" fill="#0c0d0b"/>
          <polygon points="50 23.371 50.778 23.187 50 23.002 50 23.371 50 23.371" fill="#0c0d0b"/>
        </g>
        <g>
          <polygon points="50 19.314 49.222 19.13 50 18.945 50 19.314 50 19.314" fill="#0c0d0b"/>
          <polygon points="50 20.315 50.778 20.131 50 19.947 50 20.315 50 20.315" fill="#0c0d0b"/>
        </g>
        <g>
          <polygon points="50 16.294 49.222 16.109 50 15.925 50 16.294 50 16.294" fill="#0c0d0b"/>
          <polygon points="50 17.295 50.778 17.111 50 16.926 50 17.295 50 17.295" fill="#0c0d0b"/>
        </g>
      </g>
      <g>
        <polyline points="30.809 22.172 30.809 37.068 39.39 37.068 39.39 52.155 60.454 52.155 60.454 37.163 69.191 37.163 69.191 22.172" fill="none" stroke="#0c0d0b" stroke-miterlimit="10" stroke-width=".217"/>
        <g>
          <polygon points="30.813 24.022 30.103 23.844 30.817 23.685 30.813 24.022 30.813 24.022" fill="#0c0d0b"/>
          <polygon points="30.801 24.939 31.516 24.779 30.805 24.601 30.801 24.939 30.801 24.939" fill="#0c0d0b"/>
        </g>
        <g>
          <polygon points="30.813 27.594 30.103 27.416 30.817 27.256 30.813 27.594 30.813 27.594" fill="#0c0d0b"/>
          <polygon points="30.801 28.51 31.516 28.351 30.805 28.173 30.801 28.51 30.801 28.51" fill="#0c0d0b"/>
        </g>
        <g>
          <polygon points="30.813 31.164 30.103 30.986 30.817 30.827 30.813 31.164 30.813 31.164" fill="#0c0d0b"/>
          <polygon points="30.801 32.081 31.516 31.921 30.805 31.743 30.801 32.081 30.801 32.081" fill="#0c0d0b"/>
        </g>
        <g>
          <polygon points="30.813 34.742 30.103 34.564 30.817 34.404 30.813 34.742 30.813 34.742" fill="#0c0d0b"/>
          <polygon points="30.801 35.658 31.516 35.499 30.805 35.321 30.801 35.658 30.801 35.658" fill="#0c0d0b"/>
        </g>
        <g>
          <polygon points="32.03 37.064 31.852 37.774 31.692 37.059 32.03 37.064 32.03 37.064" fill="#0c0d0b"/>
          <polygon points="32.946 37.076 32.787 36.361 32.609 37.071 32.946 37.076 32.946 37.076" fill="#0c0d0b"/>
        </g>
        <g>
          <polygon points="35.581 37.064 35.403 37.774 35.244 37.059 35.581 37.064 35.581 37.064" fill="#0c0d0b"/>
          <polygon points="36.498 37.076 36.338 36.361 36.16 37.071 36.498 37.076 36.498 37.076" fill="#0c0d0b"/>
        </g>
        <g>
          <polygon points="39.394 36.78 38.684 36.602 39.399 36.443 39.394 36.78 39.394 36.78" fill="#0c0d0b"/>
          <polygon points="39.382 37.697 40.097 37.537 39.387 37.359 39.382 37.697 39.382 37.697" fill="#0c0d0b"/>
        </g>
        <g>
          <polygon points="39.394 40.384 38.684 40.206 39.399 40.046 39.394 40.384 39.394 40.384" fill="#0c0d0b"/>
          <polygon points="39.382 41.3 40.097 41.141 39.387 40.963 39.382 41.3 39.382 41.3" fill="#0c0d0b"/>
        </g>
        <g>
          <polygon points="39.394 43.906 38.684 43.728 39.399 43.569 39.394 43.906 39.394 43.906" fill="#0c0d0b"/>
          <polygon points="39.382 44.823 40.097 44.663 39.387 44.485 39.382 44.823 39.382 44.823" fill="#0c0d0b"/>
        </g>
        <g>
          <polygon points="39.394 47.529 38.684 47.351 39.399 47.192 39.394 47.529 39.394 47.529" fill="#0c0d0b"/>
          <polygon points="39.382 48.446 40.097 48.286 39.387 48.108 39.382 48.446 39.382 48.446" fill="#0c0d0b"/>
        </g>
        <g>
          <polygon points="39.394 51.109 38.684 50.931 39.399 50.771 39.394 51.109 39.394 51.109" fill="#0c0d0b"/>
          <polygon points="39.382 52.025 40.097 51.866 39.387 51.688 39.382 52.025 39.382 52.025" fill="#0c0d0b"/>
        </g>
        <g>
          <polygon points="41.843 52.151 41.665 52.861 41.505 52.146 41.843 52.151 41.843 52.151" fill="#0c0d0b"/>
          <polygon points="42.759 52.163 42.6 51.448 42.422 52.158 42.759 52.163 42.759 52.163" fill="#0c0d0b"/>
        </g>
        <g>
          <polygon points="45.427 52.151 45.249 52.861 45.09 52.146 45.427 52.151 45.427 52.151" fill="#0c0d0b"/>
          <polygon points="46.344 52.163 46.184 51.448 46.006 52.158 46.344 52.163 46.344 52.163" fill="#0c0d0b"/>
        </g>
        <g>
          <polygon points="49.034 52.151 48.856 52.861 48.696 52.146 49.034 52.151 49.034 52.151" fill="#0c0d0b"/>
          <polygon points="49.95 52.163 49.791 51.448 49.613 52.158 49.95 52.163 49.95 52.163" fill="#0c0d0b"/>
        </g>
        <g>
          <polygon points="52.576 52.151 52.398 52.861 52.238 52.146 52.576 52.151 52.576 52.151" fill="#0c0d0b"/>
          <polygon points="53.492 52.163 53.333 51.448 53.155 52.158 53.492 52.163 53.492 52.163" fill="#0c0d0b"/>
        </g>
        <g>
          <polygon points="56.124 52.151 55.946 52.861 55.787 52.146 56.124 52.151 56.124 52.151" fill="#0c0d0b"/>
          <polygon points="57.041 52.163 56.882 51.448 56.704 52.158 57.041 52.163 57.041 52.163" fill="#0c0d0b"/>
        </g>
        <g>
          <polygon points="59.727 52.151 59.549 52.861 59.39 52.146 59.727 52.151 59.727 52.151" fill="#0c0d0b"/>
          <polygon points="60.644 52.163 60.484 51.448 60.306 52.158 60.644 52.163 60.644 52.163" fill="#0c0d0b"/>
        </g>
        <g>
          <polygon points="60.45 49.355 61.16 49.533 60.445 49.693 60.45 49.355 60.45 49.355" fill="#0c0d0b"/>
          <polygon points="60.462 48.439 59.747 48.598 60.457 48.776 60.462 48.439 60.462 48.439" fill="#0c0d0b"/>
        </g>
        <g>
          <polygon points="60.45 45.763 61.16 45.941 60.445 46.101 60.45 45.763 60.45 45.763" fill="#0c0d0b"/>
          <polygon points="60.462 44.847 59.747 45.006 60.457 45.184 60.462 44.847 60.462 44.847" fill="#0c0d0b"/>
        </g>
        <g>
          <polygon points="60.45 42.217 61.16 42.395 60.445 42.555 60.45 42.217 60.45 42.217" fill="#0c0d0b"/>
          <polygon points="60.462 41.301 59.747 41.46 60.457 41.638 60.462 41.301 60.462 41.301" fill="#0c0d0b"/>
        </g>
        <g>
          <polygon points="60.45 38.633 61.16 38.811 60.445 38.971 60.45 38.633 60.45 38.633" fill="#0c0d0b"/>
          <polygon points="60.462 37.717 59.747 37.876 60.457 38.054 60.462 37.717 60.462 37.717" fill="#0c0d0b"/>
        </g>
        <g>
          <polygon points="62.509 37.16 62.331 37.87 62.172 37.155 62.509 37.16 62.509 37.16" fill="#0c0d0b"/>
          <polygon points="63.426 37.172 63.266 36.457 63.088 37.167 63.426 37.172 63.426 37.172" fill="#0c0d0b"/>
        </g>
        <g>
          <polygon points="66.084 37.16 65.906 37.87 65.746 37.155 66.084 37.16 66.084 37.16" fill="#0c0d0b"/>
          <polygon points="67 37.172 66.841 36.457 66.663 37.167 67 37.172 67 37.172" fill="#0c0d0b"/>
        </g>
        <g>
          <polygon points="69.187 36.744 69.897 36.922 69.183 37.081 69.187 36.744 69.187 36.744" fill="#0c0d0b"/>
          <polygon points="69.199 35.827 68.484 35.987 69.195 36.165 69.199 35.827 69.199 35.827" fill="#0c0d0b"/>
        </g>
        <g>
          <polygon points="69.187 33.161 69.897 33.339 69.183 33.499 69.187 33.161 69.187 33.161" fill="#0c0d0b"/>
          <polygon points="69.199 32.245 68.484 32.404 69.195 32.582 69.199 32.245 69.199 32.245" fill="#0c0d0b"/>
        </g>
        <g>
          <polygon points="69.187 29.538 69.897 29.716 69.183 29.875 69.187 29.538 69.187 29.538" fill="#0c0d0b"/>
          <polygon points="69.199 28.621 68.484 28.781 69.195 28.959 69.199 28.621 69.199 28.621" fill="#0c0d0b"/>
        </g>
        <g>
          <polygon points="69.187 26.016 69.897 26.194 69.183 26.354 69.187 26.016 69.187 26.016" fill="#0c0d0b"/>
          <polygon points="69.199 25.1 68.484 25.259 69.195 25.437 69.199 25.1 69.199 25.1" fill="#0c0d0b"/>
        </g>
        <g>
          <polygon points="69.187 22.462 69.897 22.64 69.183 22.799 69.187 22.462 69.187 22.462" fill="#0c0d0b"/>
          <polygon points="69.199 21.545 68.484 21.705 69.195 21.883 69.199 21.545 69.199 21.545" fill="#0c0d0b"/>
        </g>
      </g>
      <g>
        <polyline points="31.904 61.041 31.904 66.519 50.059 84.299 68.096 66.262 68.096 61.041" fill="none" stroke="#0c0d0b" stroke-miterlimit="10" stroke-width=".259"/>
        <g>
          <polygon points="31.889 61.332 32.595 61.538 31.871 61.67 31.889 61.332 31.889 61.332" fill="#0c0d0b"/>
          <polygon points="31.937 60.412 31.214 60.544 31.92 60.751 31.937 60.412 31.937 60.412" fill="#0c0d0b"/>
        </g>
        <g>
          <polygon points="31.889 62.907 32.595 63.114 31.871 63.246 31.889 62.907 31.889 62.907" fill="#0c0d0b"/>
          <polygon points="31.937 61.988 31.214 62.12 31.92 62.327 31.937 61.988 31.937 61.988" fill="#0c0d0b"/>
        </g>
        <g>
          <polygon points="31.889 64.483 32.595 64.69 31.871 64.822 31.889 64.483 31.889 64.483" fill="#0c0d0b"/>
          <polygon points="31.937 63.564 31.214 63.696 31.92 63.903 31.937 63.564 31.937 63.564" fill="#0c0d0b"/>
        </g>
        <g>
          <polygon points="31.889 66.08 32.595 66.286 31.871 66.418 31.889 66.08 31.889 66.08" fill="#0c0d0b"/>
          <polygon points="31.937 65.16 31.214 65.292 31.92 65.499 31.937 65.16 31.937 65.16" fill="#0c0d0b"/>
        </g>
        <g>
          <polygon points="32.67 67.29 33.312 66.931 32.9 67.54 32.67 67.29 32.67 67.29" fill="#0c0d0b"/>
          <polygon points="32.047 66.612 31.635 67.221 32.277 66.862 32.047 66.612 32.047 66.612" fill="#0c0d0b"/>
        </g>
        <g>
          <polygon points="33.811 68.408 34.453 68.048 34.041 68.657 33.811 68.408 33.811 68.408" fill="#0c0d0b"/>
          <polygon points="33.188 67.73 32.776 68.339 33.418 67.979 33.188 67.73 33.188 67.73" fill="#0c0d0b"/>
        </g>
        <g>
          <polygon points="34.957 69.53 35.599 69.171 35.187 69.78 34.957 69.53 34.957 69.53" fill="#0c0d0b"/>
          <polygon points="34.334 68.852 33.922 69.461 34.564 69.102 34.334 68.852 34.334 68.852" fill="#0c0d0b"/>
        </g>
        <g>
          <polygon points="36.084 70.633 36.725 70.274 36.313 70.883 36.084 70.633 36.084 70.633" fill="#0c0d0b"/>
          <polygon points="35.461 69.956 35.049 70.565 35.69 70.205 35.461 69.956 35.461 69.956" fill="#0c0d0b"/>
        </g>
        <g>
          <polygon points="37.204 71.73 37.846 71.371 37.434 71.98 37.204 71.73 37.204 71.73" fill="#0c0d0b"/>
          <polygon points="36.581 71.053 36.169 71.662 36.81 71.302 36.581 71.053 36.581 71.053" fill="#0c0d0b"/>
        </g>
        <g>
          <polygon points="38.338 72.841 38.979 72.481 38.567 73.09 38.338 72.841 38.338 72.841" fill="#0c0d0b"/>
          <polygon points="37.715 72.163 37.303 72.772 37.944 72.413 37.715 72.163 37.715 72.163" fill="#0c0d0b"/>
        </g>
        <g>
          <polygon points="39.491 73.971 40.133 73.611 39.721 74.22 39.491 73.971 39.491 73.971" fill="#0c0d0b"/>
          <polygon points="38.868 73.293 38.456 73.902 39.098 73.542 38.868 73.293 38.868 73.293" fill="#0c0d0b"/>
        </g>
        <g>
          <polygon points="40.63 75.085 41.271 74.726 40.859 75.335 40.63 75.085 40.63 75.085" fill="#0c0d0b"/>
          <polygon points="40.007 74.408 39.595 75.017 40.236 74.657 40.007 74.408 40.007 74.408" fill="#0c0d0b"/>
        </g>
        <g>
          <polygon points="41.708 76.141 42.349 75.782 41.937 76.391 41.708 76.141 41.708 76.141" fill="#0c0d0b"/>
          <polygon points="41.085 75.463 40.673 76.072 41.314 75.713 41.085 75.463 41.085 75.463" fill="#0c0d0b"/>
        </g>
        <g>
          <polygon points="42.845 77.255 43.486 76.895 43.074 77.504 42.845 77.255 42.845 77.255" fill="#0c0d0b"/>
          <polygon points="42.222 76.577 41.81 77.186 42.451 76.826 42.222 76.577 42.222 76.577" fill="#0c0d0b"/>
        </g>
        <g>
          <polygon points="43.999 78.385 44.64 78.026 44.228 78.635 43.999 78.385 43.999 78.385" fill="#0c0d0b"/>
          <polygon points="43.376 77.707 42.964 78.316 43.605 77.957 43.376 77.707 43.376 77.707" fill="#0c0d0b"/>
        </g>
        <g>
          <polygon points="45.133 79.496 45.774 79.136 45.362 79.745 45.133 79.496 45.133 79.496" fill="#0c0d0b"/>
          <polygon points="44.51 78.818 44.098 79.427 44.739 79.067 44.51 78.818 44.51 78.818" fill="#0c0d0b"/>
        </g>
        <g>
          <polygon points="46.253 80.593 46.895 80.234 46.483 80.843 46.253 80.593 46.253 80.593" fill="#0c0d0b"/>
          <polygon points="45.63 79.915 45.218 80.524 45.86 80.165 45.63 79.915 45.63 79.915" fill="#0c0d0b"/>
        </g>
        <g>
          <polygon points="47.379 81.695 48.02 81.336 47.608 81.945 47.379 81.695 47.379 81.695" fill="#0c0d0b"/>
          <polygon points="46.756 81.018 46.344 81.627 46.985 81.267 46.756 81.018 46.756 81.018" fill="#0c0d0b"/>
        </g>
        <g>
          <polygon points="48.525 82.818 49.166 82.458 48.754 83.067 48.525 82.818 48.525 82.818" fill="#0c0d0b"/>
          <polygon points="47.902 82.14 47.49 82.749 48.131 82.389 47.902 82.14 47.902 82.14" fill="#0c0d0b"/>
        </g>
        <g>
          <polygon points="49.665 83.934 50.306 83.575 49.894 84.184 49.665 83.934 49.665 83.934" fill="#0c0d0b"/>
          <polygon points="49.042 83.256 48.63 83.865 49.271 83.506 49.042 83.256 49.042 83.256" fill="#0c0d0b"/>
        </g>
        <g>
          <polygon points="50.756 83.623 50.403 82.978 51.008 83.396 50.756 83.623 50.756 83.623" fill="#0c0d0b"/>
          <polygon points="50.072 84.239 50.676 84.657 50.324 84.012 50.072 84.239 50.072 84.239" fill="#0c0d0b"/>
        </g>
        <g>
          <polygon points="51.868 82.51 51.516 81.865 52.12 82.284 51.868 82.51 51.868 82.51" fill="#0c0d0b"/>
          <polygon points="51.184 83.126 51.789 83.545 51.436 82.899 51.184 83.126 51.184 83.126" fill="#0c0d0b"/>
        </g>
        <g>
          <polygon points="53.004 81.375 52.651 80.73 53.256 81.148 53.004 81.375 53.004 81.375" fill="#0c0d0b"/>
          <polygon points="52.32 81.991 52.924 82.409 52.571 81.764 52.32 81.991 52.32 81.991" fill="#0c0d0b"/>
        </g>
        <g>
          <polygon points="54.157 80.222 53.804 79.577 54.409 79.995 54.157 80.222 54.157 80.222" fill="#0c0d0b"/>
          <polygon points="53.472 80.838 54.077 81.256 53.724 80.611 53.472 80.838 53.472 80.838" fill="#0c0d0b"/>
        </g>
        <g>
          <polygon points="55.232 79.147 54.879 78.502 55.484 78.92 55.232 79.147 55.232 79.147" fill="#0c0d0b"/>
          <polygon points="54.548 79.763 55.152 80.181 54.8 79.536 54.548 79.763 54.548 79.763" fill="#0c0d0b"/>
        </g>
        <g>
          <polygon points="56.353 78.025 56.001 77.38 56.605 77.798 56.353 78.025 56.353 78.025" fill="#0c0d0b"/>
          <polygon points="55.669 78.641 56.274 79.06 55.921 78.414 55.669 78.641 55.669 78.641" fill="#0c0d0b"/>
        </g>
        <g>
          <polygon points="57.49 76.889 57.137 76.243 57.742 76.662 57.49 76.889 57.49 76.889" fill="#0c0d0b"/>
          <polygon points="56.806 77.505 57.411 77.923 57.058 77.278 56.806 77.505 56.806 77.505" fill="#0c0d0b"/>
        </g>
        <g>
          <polygon points="58.625 75.753 58.273 75.108 58.877 75.526 58.625 75.753 58.625 75.753" fill="#0c0d0b"/>
          <polygon points="57.941 76.369 58.546 76.788 58.193 76.142 57.941 76.369 57.941 76.369" fill="#0c0d0b"/>
        </g>
        <g>
          <polygon points="59.694 74.685 59.341 74.04 59.945 74.458 59.694 74.685 59.694 74.685" fill="#0c0d0b"/>
          <polygon points="59.009 75.301 59.614 75.72 59.261 75.074 59.009 75.301 59.009 75.301" fill="#0c0d0b"/>
        </g>
        <g>
          <polygon points="60.81 73.569 60.457 72.924 61.061 73.342 60.81 73.569 60.81 73.569" fill="#0c0d0b"/>
          <polygon points="60.125 74.185 60.73 74.603 60.377 73.958 60.125 74.185 60.125 74.185" fill="#0c0d0b"/>
        </g>
        <g>
          <polygon points="61.956 72.422 61.604 71.777 62.208 72.196 61.956 72.422 61.956 72.422" fill="#0c0d0b"/>
          <polygon points="61.272 73.038 61.877 73.457 61.524 72.812 61.272 73.038 61.272 73.038" fill="#0c0d0b"/>
        </g>
        <g>
          <polygon points="63.079 71.3 62.726 70.654 63.331 71.073 63.079 71.3 63.079 71.3" fill="#0c0d0b"/>
          <polygon points="62.395 71.916 63 72.334 62.647 71.689 62.395 71.916 62.395 71.916" fill="#0c0d0b"/>
        </g>
        <g>
          <polygon points="64.191 70.188 63.838 69.543 64.443 69.961 64.191 70.188 64.191 70.188" fill="#0c0d0b"/>
          <polygon points="63.507 70.804 64.111 71.222 63.759 70.577 63.507 70.804 63.507 70.804" fill="#0c0d0b"/>
        </g>
        <g>
          <polygon points="65.298 69.081 64.945 68.436 65.55 68.854 65.298 69.081 65.298 69.081" fill="#0c0d0b"/>
          <polygon points="64.614 69.697 65.218 70.115 64.865 69.47 64.614 69.697 64.614 69.697" fill="#0c0d0b"/>
        </g>
        <g>
          <polygon points="66.43 67.949 66.077 67.304 66.682 67.722 66.43 67.949 66.43 67.949" fill="#0c0d0b"/>
          <polygon points="65.746 68.565 66.35 68.983 65.998 68.338 65.746 68.565 65.746 68.565" fill="#0c0d0b"/>
        </g>
        <g>
          <polygon points="67.554 66.825 67.201 66.18 67.806 66.598 67.554 66.825 67.554 66.825" fill="#0c0d0b"/>
          <polygon points="66.87 67.441 67.474 67.859 67.122 67.214 66.87 67.441 66.87 67.441" fill="#0c0d0b"/>
        </g>
        <g>
          <polygon points="68.111 65.525 67.405 65.318 68.129 65.186 68.111 65.525 68.111 65.525" fill="#0c0d0b"/>
          <polygon points="68.063 66.444 68.786 66.312 68.08 66.106 68.063 66.444 68.063 66.444" fill="#0c0d0b"/>
        </g>
        <g>
          <polygon points="68.111 63.909 67.405 63.702 68.129 63.57 68.111 63.909 68.111 63.909" fill="#0c0d0b"/>
          <polygon points="68.063 64.828 68.786 64.696 68.08 64.49 68.063 64.828 68.063 64.828" fill="#0c0d0b"/>
        </g>
        <g>
          <polygon points="68.111 62.327 67.405 62.12 68.129 61.988 68.111 62.327 68.111 62.327" fill="#0c0d0b"/>
          <polygon points="68.063 63.246 68.786 63.115 68.08 62.908 68.063 63.246 68.063 63.246" fill="#0c0d0b"/>
        </g>
        <g>
          <polygon points="68.111 60.751 67.405 60.544 68.129 60.412 68.111 60.751 68.111 60.751" fill="#0c0d0b"/>
          <polygon points="68.063 61.67 68.786 61.538 68.08 61.332 68.063 61.67 68.063 61.67" fill="#0c0d0b"/>
        </g>
      </g>
    </g>
  </g>
  <g id="Hojas">
    <path d="M57.152,58.012c-1.383-.185-2.817.108-4.021.791,0,0-.062.035-.062.035-.158.089-.267.216-.352.386-.114.23-.168.505-.21.775-.044.289-.078.621-.137.901-.065.304-.164.608-.396.799l-1.822,1.042-1.788-1.023c-.249-.19-.353-.504-.42-.818-.059-.28-.093-.612-.137-.901-.042-.27-.096-.545-.21-.775-.085-.17-.194-.297-.352-.386,0,0-.062-.035-.062-.035-1.204-.682-2.637-.975-4.021-.791-.299.041-.604.099-.894.196.061.3.163.593.277.872.532,1.29,1.502,2.385,2.695,3.087,0,0,.061.036.061.036.156.092.321.123.511.112.256-.016.521-.107.776-.206.272-.106.576-.243.849-.332.281-.091.578-.155.848-.071l1.866,1.068v-.002s.002.002.002.002l1.853-1.061c.276-.095.581-.029.87.064.272.089.576.225.849.332.255.099.52.19.776.206.19.011.354-.019.511-.112,0,0,.061-.036.061-.036,1.193-.701,2.163-1.796,2.695-3.087.114-.279.216-.573.277-.872-.29-.097-.595-.155-.894-.196Z" fill="#0c0d0b"/>
    <path d="M75.008,59.906c-1.383-.185-2.817.108-4.021.791,0,0-.062.035-.062.035-.158.089-.267.216-.352.386-.114.23-.168.505-.21.775-.044.289-.078.621-.137.901-.065.304-.164.608-.396.799l-1.822,1.042-1.788-1.023c-.249-.19-.353-.504-.42-.818-.059-.28-.093-.612-.137-.901-.042-.27-.096-.545-.21-.775-.085-.17-.194-.297-.352-.386,0,0-.062-.035-.062-.035-1.204-.682-2.637-.975-4.021-.791-.299.041-.604.099-.894.196.061.3.163.593.277.872.532,1.29,1.502,2.385,2.695,3.087,0,0,.061.036.061.036.156.092.321.123.511.112.256-.016.521-.107.776-.206.272-.106.576-.243.849-.332.281-.091.578-.155.848-.071l1.866,1.068v-.002s.002.002.002.002l1.853-1.061c.276-.095.581-.029.87.064.272.089.576.225.849.332.255.099.52.19.776.206.19.011.354-.019.511-.112,0,0,.061-.036.061-.036,1.193-.701,2.163-1.796,2.695-3.087.114-.279.216-.573.277-.872-.29-.097-.595-.155-.894-.196Z" fill="#0c0d0b"/>
    <path d="M40.345,65.431c-1.109.848-1.915,2.069-2.284,3.402,0,0-.019.069-.019.069-.049.175-.036.341.024.522.082.243.238.476.399.696.173.236.384.494.54.734.169.261.314.546.285.845l-.551,2.025-1.988.541c-.31.042-.606-.107-.875-.282-.24-.156-.498-.367-.734-.54-.221-.162-.453-.318-.696-.399-.181-.06-.347-.073-.522-.024,0,0-.069.019-.069.019-1.334.369-2.554,1.175-3.402,2.284-.182.241-.357.497-.493.771.255.169.534.304.813.421,1.288.536,2.749.624,4.088.277,0,0,.069-.018.069-.018.176-.045.314-.14.44-.282.17-.192.293-.444.403-.694.117-.268.236-.579.366-.835.134-.263.299-.518.549-.65l2.075-.564v-.002s.001,0,.001,0l.561-2.061c.128-.262.39-.432.66-.57.255-.13.567-.248.835-.366.25-.11.502-.233.694-.403.142-.126.237-.264.282-.44,0,0,.018-.069.018-.069.348-1.339.26-2.8-.277-4.088-.117-.278-.252-.558-.421-.813-.274.136-.53.311-.771.493Z" fill="#0c0d0b"/>
    <path d="M47.128,72.056c-1.109.848-1.915,2.069-2.284,3.402,0,0-.019.069-.019.069-.049.175-.036.341.024.522.082.243.238.476.399.696.173.236.384.494.54.734.169.261.314.546.285.845l-.551,2.025-1.988.541c-.31.042-.606-.107-.875-.282-.24-.156-.498-.367-.734-.54-.221-.162-.453-.318-.696-.399-.181-.06-.347-.073-.522-.024,0,0-.069.019-.069.019-1.334.369-2.554,1.175-3.402,2.284-.182.241-.357.497-.493.771.255.169.534.304.813.421,1.288.536,2.749.624,4.088.277,0,0,.069-.018.069-.018.176-.045.314-.14.44-.282.17-.192.293-.444.403-.694.117-.268.236-.579.366-.835.134-.263.299-.518.549-.65l2.075-.564v-.002s.001,0,.001,0l.561-2.061c.128-.262.39-.432.66-.57.255-.13.567-.248.835-.366.25-.11.502-.233.694-.403.142-.126.237-.264.282-.44,0,0,.018-.069.018-.069.348-1.339.26-2.8-.277-4.088-.117-.278-.252-.558-.421-.813-.274.136-.53.311-.771.493Z" fill="#0c0d0b"/>
    <path d="M59.244,65.431c1.109.848,1.915,2.069,2.284,3.402,0,0,.019.069.019.069.049.175.036.341-.024.522-.082.243-.238.476-.399.696-.173.236-.384.494-.54.734-.169.261-.314.546-.285.845l.551,2.025,1.988.541c.31.042.606-.107.875-.282.24-.156.498-.367.734-.54.221-.162.453-.318.696-.399.181-.06.347-.073.522-.024,0,0,.069.019.069.019,1.334.369,2.554,1.175,3.402,2.284.182.241.357.497.493.771-.255.169-.534.304-.813.421-1.288.536-2.749.624-4.088.277,0,0-.069-.018-.069-.018-.176-.045-.314-.14-.44-.282-.17-.192-.293-.444-.403-.694-.117-.268-.236-.579-.366-.835-.134-.263-.299-.518-.549-.65l-2.075-.564v-.002s-.001,0-.001,0l-.561-2.061c-.128-.262-.39-.432-.66-.57-.255-.13-.567-.248-.835-.366-.25-.11-.502-.233-.694-.403-.142-.126-.237-.264-.282-.44,0,0-.018-.069-.018-.069-.348-1.339-.26-2.8.277-4.088.117-.278.252-.558.421-.813.274.136.53.311.771.493Z" fill="#0c0d0b"/>
    <path d="M52.461,72.056c1.109.848,1.915,2.069,2.284,3.402,0,0,.019.069.019.069.049.175.036.341-.024.522-.082.243-.238.476-.399.696-.173.236-.384.494-.54.734-.169.261-.314.546-.285.845l.551,2.025,1.988.541c.31.042.606-.107.875-.282.24-.156.498-.367.734-.54.221-.162.453-.318.696-.399.181-.06.347-.073.522-.024,0,0,.069.019.069.019,1.334.369,2.554,1.175,3.402,2.284.182.241.357.497.493.771-.255.169-.534.304-.813.421-1.288.536-2.749.624-4.088.277,0,0-.069-.018-.069-.018-.176-.045-.314-.14-.44-.282-.17-.192-.293-.444-.403-.694-.117-.268-.236-.579-.366-.835-.134-.263-.299-.518-.549-.65l-2.075-.564v-.002s-.001,0-.001,0l-.561-2.061c-.128-.262-.39-.432-.66-.57-.255-.13-.567-.248-.835-.366-.25-.11-.502-.233-.694-.403-.142-.126-.237-.264-.282-.44,0,0-.018-.069-.018-.069-.348-1.339-.26-2.8.277-4.088.117-.278.252-.558.421-.813.274.136.53.311.771.493Z" fill="#0c0d0b"/>
    <path d="M38.981,59.906c-1.383-.185-2.817.108-4.021.791,0,0-.062.035-.062.035-.158.089-.267.216-.352.386-.114.23-.168.505-.21.775-.044.289-.078.621-.137.901-.065.304-.164.608-.396.799l-1.822,1.042-1.788-1.023c-.249-.19-.353-.504-.42-.818-.059-.28-.093-.612-.137-.901-.042-.27-.096-.545-.21-.775-.085-.17-.194-.297-.352-.386,0,0-.062-.035-.062-.035-1.204-.682-2.637-.975-4.021-.791-.299.041-.604.099-.894.196.061.3.163.593.277.872.532,1.29,1.502,2.385,2.695,3.087,0,0,.061.036.061.036.156.092.321.123.511.112.256-.016.521-.107.776-.206.272-.106.576-.243.849-.332.281-.091.578-.155.848-.071l1.866,1.068v-.002s.002.002.002.002l1.853-1.061c.276-.095.581-.029.87.064.272.089.576.225.849.332.255.099.52.19.776.206.19.011.354-.019.511-.112,0,0,.061-.036.061-.036,1.193-.701,2.163-1.796,2.695-3.087.114-.279.216-.573.277-.872-.29-.097-.595-.155-.894-.196Z" fill="#0c0d0b"/>
    <g>
      <path d="M53.463,34.207c.192,0,.347-.156.347-.347s-.156-.347-.347-.347-.347.156-.347.347.156.347.347.347Z"/>
      <path d="M55.317,32.956c.192,0,.347-.156.347-.347s-.156-.347-.347-.347-.347.156-.347.347.156.347.347.347Z"/>
      <circle cx="55.432" cy="34.555" r=".347"/>
      <path d="M53.371,36.153c.192,0,.347-.156.347-.347s-.156-.347-.347-.347-.347.156-.347.347.156.347.347.347Z"/>
      <path d="M57.749,34.207c-.041,0-.079.018-.104.047l-1.888-.54.507-.425c.051.047.13.051.184.005.059-.049.067-.137.018-.196-.049-.059-.137-.067-.196-.018-.046.038-.061.099-.042.152l-1.51,1.267c.006-.022.013-.043.018-.065.086-.316.141-.622.168-.934.052-.606-.017-1.109-.072-1.513-.026-.186-.048-.353-.057-.505.01-.005.02-.011.029-.019.059-.049.067-.137.018-.196-.049-.059-.137-.067-.196-.018s-.067.137-.018.196c.026.031.064.048.102.05.009.152.032.317.057.501.055.401.123.9.072,1.499-.026.308-.081.61-.165.923-.009.034-.019.068-.029.102l-1.014-1.459.307-1.241s.008,0,.013,0c.192,0,.347-.156.347-.347s-.156-.347-.347-.347-.347.156-.347.347c0,.165.115.303.269.338l-.291,1.178-.339-.487c.038-.056.06-.123.06-.195,0-.192-.156-.347-.347-.347s-.347.156-.347.347.156.347.347.347c.095,0,.181-.038.244-.1l.361.52h0s.001.001.001.001l1.06,1.524c-.088.288-.202.582-.34.878-.36.771-1.142,1.237-1.9,1.516v-1.98c.022-.004.043-.014.061-.03.059-.049.067-.137.018-.196-.049-.059-.137-.067-.196-.018s-.067.137-.018.196c.019.022.043.037.069.045v2.006c-.209.074-.415.135-.609.184-.495.125-.965.19-1.314.224-.02-.199-.186-.354-.39-.354s-.37.156-.39.354c-.349-.034-.819-.1-1.314-.224-.194-.049-.4-.109-.609-.184v-2.006c.026-.007.05-.022.069-.045.049-.059.041-.147-.018-.196s-.147-.041-.196.018c-.049.059-.041.147.018.196.018.015.04.025.061.03v1.98c-.758-.279-1.54-.745-1.9-1.516-.138-.296-.252-.591-.34-.878l1.06-1.524h.001s0-.001,0-.001l.361-.52c.063.062.149.1.244.1.192,0,.347-.156.347-.347s-.156-.347-.347-.347-.347.156-.347.347c0,.072.022.139.06.195l-.339.487-.291-1.178c.154-.036.269-.173.269-.338,0-.192-.156-.347-.347-.347s-.347.156-.347.347.156.347.347.347c.004,0,.008,0,.013,0l.307,1.241-1.014,1.459c-.01-.034-.02-.068-.029-.102-.085-.313-.139-.615-.165-.923-.051-.599.017-1.098.072-1.499.025-.184.048-.348.057-.501.038-.001.075-.018.102-.05.049-.059.041-.147-.018-.196s-.147-.041-.196.018c-.049.059-.041.147.018.196.009.008.019.014.029.019-.009.152-.031.319-.057.505-.055.404-.124.907-.072,1.513.027.312.082.618.168.934.006.022.012.043.018.065l-1.51-1.267c.019-.053.004-.114-.042-.152-.059-.049-.147-.041-.196.018-.049.059-.041.147.018.196.055.046.134.042.184-.005l.507.425-1.888.54c-.025-.029-.063-.047-.104-.047-.077,0-.139.062-.139.139s.062.139.139.139.139-.062.139-.139c0-.011-.001-.022-.004-.033l1.918-.548,1.012.849c.089.292.205.591.345.892.481,1.03,1.69,1.525,2.62,1.759.5.126.975.192,1.327.226.013.206.183.369.392.369s.378-.163.392-.369c.352-.034.827-.1,1.327-.226.93-.234,2.139-.729,2.62-1.759.14-.301.256-.6.345-.892l1.012-.849,1.918.548c-.003.01-.004.021-.004.033,0,.077.062.139.139.139s.139-.062.139-.139-.062-.139-.139-.139Z"/>
      <path d="M46.884,33.86c0-.192-.156-.347-.347-.347s-.347.156-.347.347.156.347.347.347.347-.156.347-.347Z"/>
      <path d="M44.683,32.956c.192,0,.347-.156.347-.347s-.156-.347-.347-.347-.347.156-.347.347.156.347.347.347Z"/>
      <circle cx="44.568" cy="34.555" r=".347"/>
      <path d="M46.629,36.153c.192,0,.347-.156.347-.347s-.156-.347-.347-.347-.347.156-.347.347.156.347.347.347Z"/>
    </g>
    <g>
      <path d="M53.463,42.569c.192,0,.347-.156.347-.347s-.156-.347-.347-.347-.347.156-.347.347.156.347.347.347Z"/>
      <path d="M55.317,41.318c.192,0,.347-.156.347-.347s-.156-.347-.347-.347-.347.156-.347.347.156.347.347.347Z"/>
      <circle cx="55.432" cy="42.916" r=".347"/>
      <path d="M53.371,44.515c.192,0,.347-.156.347-.347s-.156-.347-.347-.347-.347.156-.347.347.156.347.347.347Z"/>
      <path d="M57.749,42.569c-.041,0-.079.018-.104.047l-1.888-.54.507-.425c.051.047.13.051.184.005.059-.049.067-.137.018-.196-.049-.059-.137-.067-.196-.018-.046.038-.061.099-.042.152l-1.51,1.267c.006-.022.013-.043.018-.065.086-.316.141-.622.168-.934.052-.606-.017-1.109-.072-1.513-.026-.186-.048-.353-.057-.505.01-.005.02-.011.029-.019.059-.049.067-.137.018-.196-.049-.059-.137-.067-.196-.018s-.067.137-.018.196c.026.031.064.048.102.05.009.152.032.317.057.501.055.401.123.9.072,1.499-.026.308-.081.61-.165.923-.009.034-.019.068-.029.102l-1.014-1.459.307-1.241s.008,0,.013,0c.192,0,.347-.156.347-.347s-.156-.347-.347-.347-.347.156-.347.347c0,.165.115.303.269.338l-.291,1.178-.339-.487c.038-.056.06-.123.06-.195,0-.192-.156-.347-.347-.347s-.347.156-.347.347.156.347.347.347c.095,0,.181-.038.244-.1l.361.52h0s.001.001.001.001l1.06,1.524c-.088.288-.202.582-.34.878-.36.771-1.142,1.237-1.9,1.516v-1.98c.022-.004.043-.014.061-.03.059-.049.067-.137.018-.196-.049-.059-.137-.067-.196-.018s-.067.137-.018.196c.019.022.043.037.069.045v2.006c-.209.074-.415.135-.609.184-.495.125-.965.19-1.314.224-.02-.199-.186-.354-.39-.354s-.37.156-.39.354c-.349-.034-.819-.1-1.314-.224-.194-.049-.4-.109-.609-.184v-2.006c.026-.007.05-.022.069-.045.049-.059.041-.147-.018-.196s-.147-.041-.196.018c-.049.059-.041.147.018.196.018.015.04.025.061.03v1.98c-.758-.279-1.54-.745-1.9-1.516-.138-.296-.252-.591-.34-.878l1.06-1.524h.001s0-.001,0-.001l.361-.52c.063.062.149.1.244.1.192,0,.347-.156.347-.347s-.156-.347-.347-.347-.347.156-.347.347c0,.072.022.139.06.195l-.339.487-.291-1.178c.154-.036.269-.173.269-.338,0-.192-.156-.347-.347-.347s-.347.156-.347.347.156.347.347.347c.004,0,.008,0,.013,0l.307,1.241-1.014,1.459c-.01-.034-.02-.068-.029-.102-.085-.313-.139-.615-.165-.923-.051-.599.017-1.098.072-1.499.025-.184.048-.348.057-.501.038-.001.075-.018.102-.05.049-.059.041-.147-.018-.196s-.147-.041-.196.018c-.049.059-.041.147.018.196.009.008.019.014.029.019-.009.152-.031.319-.057.505-.055.404-.124.907-.072,1.513.027.312.082.618.168.934.006.022.012.043.018.065l-1.51-1.267c.019-.053.004-.114-.042-.152-.059-.049-.147-.041-.196.018-.049.059-.041.147.018.196.055.046.134.042.184-.005l.507.425-1.888.54c-.025-.029-.063-.047-.104-.047-.077,0-.139.062-.139.139s.062.139.139.139.139-.062.139-.139c0-.011-.001-.022-.004-.033l1.918-.548,1.012.849c.089.292.205.591.345.892.481,1.03,1.69,1.525,2.62,1.759.5.126.975.192,1.327.226.013.206.183.369.392.369s.378-.163.392-.369c.352-.034.827-.1,1.327-.226.93-.234,2.139-.729,2.62-1.759.14-.301.256-.6.345-.892l1.012-.849,1.918.548c-.003.01-.004.021-.004.033,0,.077.062.139.139.139s.139-.062.139-.139-.062-.139-.139-.139Z"/>
      <path d="M46.884,42.221c0-.192-.156-.347-.347-.347s-.347.156-.347.347.156.347.347.347.347-.156.347-.347Z"/>
      <path d="M44.683,41.318c.192,0,.347-.156.347-.347s-.156-.347-.347-.347-.347.156-.347.347.156.347.347.347Z"/>
      <circle cx="44.568" cy="42.916" r=".347"/>
      <path d="M46.629,44.515c.192,0,.347-.156.347-.347s-.156-.347-.347-.347-.347.156-.347.347.156.347.347.347Z"/>
    </g>
    <g>
      <path d="M42.578,46.828c.192,0,.347-.156.347-.347s-.156-.347-.347-.347-.347.156-.347.347.156.347.347.347Z"/>
      <path d="M44.431,45.577c.192,0,.347-.156.347-.347s-.156-.347-.347-.347-.347.156-.347.347.156.347.347.347Z"/>
      <circle cx="44.547" cy="47.176" r=".347"/>
      <path d="M42.485,48.774c.192,0,.347-.156.347-.347s-.156-.347-.347-.347-.347.156-.347.347.156.347.347.347Z"/>
      <path d="M46.864,46.828c-.041,0-.079.018-.104.047l-1.888-.54.507-.425c.051.047.13.051.184.005.059-.049.067-.137.018-.196-.049-.059-.137-.067-.196-.018-.046.038-.061.099-.042.152l-1.51,1.267c.006-.022.013-.043.018-.065.086-.316.141-.622.168-.934.052-.606-.017-1.109-.072-1.513-.026-.186-.048-.353-.057-.505.01-.005.02-.011.029-.019.059-.049.067-.137.018-.196-.049-.059-.137-.067-.196-.018s-.067.137-.018.196c.026.031.064.048.102.05.009.152.032.317.057.501.055.401.123.9.072,1.499-.026.308-.081.61-.165.923-.009.034-.019.068-.029.102l-1.014-1.459.307-1.241s.008,0,.013,0c.192,0,.347-.156.347-.347s-.156-.347-.347-.347-.347.156-.347.347c0,.165.115.303.269.338l-.291,1.178-.339-.487c.038-.056.06-.123.06-.195,0-.192-.156-.347-.347-.347s-.347.156-.347.347.156.347.347.347c.095,0,.181-.038.244-.1l.361.52h0s.001.001.001.001l1.06,1.524c-.088.288-.202.582-.34.878-.36.771-1.142,1.237-1.9,1.516v-1.98c.022-.004.043-.014.061-.03.059-.049.067-.137.018-.196-.049-.059-.137-.067-.196-.018s-.067.137-.018.196c.019.022.043.037.069.045v2.006c-.209.074-.415.135-.609.184-.495.125-.965.19-1.314.224-.02-.199-.186-.354-.39-.354s-.37.156-.39.354c-.349-.034-.819-.1-1.314-.224-.194-.049-.4-.109-.609-.184v-2.006c.026-.007.05-.022.069-.045.049-.059.041-.147-.018-.196s-.147-.041-.196.018c-.049.059-.041.147.018.196.018.015.04.025.061.03v1.98c-.758-.279-1.54-.745-1.9-1.516-.138-.296-.252-.591-.34-.878l1.06-1.524h.001s0-.001,0-.001l.361-.52c.063.062.149.1.244.1.192,0,.347-.156.347-.347s-.156-.347-.347-.347-.347.156-.347.347c0,.072.022.139.06.195l-.339.487-.291-1.178c.154-.036.269-.173.269-.338,0-.192-.156-.347-.347-.347s-.347.156-.347.347.156.347.347.347c.004,0,.008,0,.013,0l.307,1.241-1.014,1.459c-.01-.034-.02-.068-.029-.102-.085-.313-.139-.615-.165-.923-.051-.599.017-1.098.072-1.499.025-.184.048-.348.057-.501.038-.001.075-.018.102-.05.049-.059.041-.147-.018-.196s-.147-.041-.196.018c-.049.059-.041.147.018.196.009.008.019.014.029.019-.009.152-.031.319-.057.505-.055.404-.124.907-.072,1.513.027.312.082.618.168.934.006.022.012.043.018.065l-1.51-1.267c.019-.053.004-.114-.042-.152-.059-.049-.147-.041-.196.018-.049.059-.041.147.018.196.055.046.134.042.184-.005l.507.425-1.888.54c-.025-.029-.063-.047-.104-.047-.077,0-.139.062-.139.139s.062.139.139.139.139-.062.139-.139c0-.011-.001-.022-.004-.033l1.918-.548,1.012.849c.089.292.205.591.345.892.481,1.03,1.69,1.525,2.62,1.759.5.126.975.192,1.327.226.013.206.183.369.392.369s.378-.163.392-.369c.352-.034.827-.1,1.327-.226.93-.234,2.139-.729,2.62-1.759.14-.301.256-.6.345-.892l1.012-.849,1.918.548c-.003.01-.004.021-.004.033,0,.077.062.139.139.139s.139-.062.139-.139-.062-.139-.139-.139Z"/>
      <path d="M35.999,46.481c0-.192-.156-.347-.347-.347s-.347.156-.347.347.156.347.347.347.347-.156.347-.347Z"/>
      <path d="M33.798,45.577c.192,0,.347-.156.347-.347s-.156-.347-.347-.347-.347.156-.347.347.156.347.347.347Z"/>
      <circle cx="33.682" cy="47.176" r=".347"/>
      <path d="M35.744,48.774c.192,0,.347-.156.347-.347s-.156-.347-.347-.347-.347.156-.347.347.156.347.347.347Z"/>
    </g>
    <g>
      <path d="M64.349,46.355c.192,0,.347-.156.347-.347s-.156-.347-.347-.347-.347.156-.347.347.156.347.347.347Z"/>
      <path d="M66.202,45.104c.192,0,.347-.156.347-.347s-.156-.347-.347-.347-.347.156-.347.347.156.347.347.347Z"/>
      <circle cx="66.318" cy="46.702" r=".347"/>
      <path d="M64.256,48.301c.192,0,.347-.156.347-.347s-.156-.347-.347-.347-.347.156-.347.347.156.347.347.347Z"/>
      <path d="M68.635,46.355c-.041,0-.079.018-.104.047l-1.888-.54.507-.425c.051.047.13.051.184.005.059-.049.067-.137.018-.196-.049-.059-.137-.067-.196-.018-.046.038-.061.099-.042.152l-1.51,1.267c.006-.022.013-.043.018-.065.086-.316.141-.622.168-.934.052-.606-.017-1.109-.072-1.513-.026-.186-.048-.353-.057-.505.01-.005.02-.011.029-.019.059-.049.067-.137.018-.196-.049-.059-.137-.067-.196-.018s-.067.137-.018.196c.026.031.064.048.102.05.009.152.032.317.057.501.055.401.123.9.072,1.499-.026.308-.081.61-.165.923-.009.034-.019.068-.029.102l-1.014-1.459.307-1.241s.008,0,.013,0c.192,0,.347-.156.347-.347s-.156-.347-.347-.347-.347.156-.347.347c0,.165.115.303.269.338l-.291,1.178-.339-.487c.038-.056.06-.123.06-.195,0-.192-.156-.347-.347-.347s-.347.156-.347.347.156.347.347.347c.095,0,.181-.038.244-.1l.361.52h0s.001.001.001.001l1.06,1.524c-.088.288-.202.582-.34.878-.36.771-1.142,1.237-1.9,1.516v-1.98c.022-.004.043-.014.061-.03.059-.049.067-.137.018-.196-.049-.059-.137-.067-.196-.018s-.067.137-.018.196c.019.022.043.037.069.045v2.006c-.209.074-.415.135-.609.184-.495.125-.965.19-1.314.224-.02-.199-.186-.354-.39-.354s-.37.156-.39.354c-.349-.034-.819-.1-1.314-.224-.194-.049-.4-.109-.609-.184v-2.006c.026-.007.05-.022.069-.045.049-.059.041-.147-.018-.196s-.147-.041-.196.018c-.049.059-.041.147.018.196.018.015.04.025.061.03v1.98c-.758-.279-1.54-.745-1.9-1.516-.138-.296-.252-.591-.34-.878l1.06-1.524h.001s0-.001,0-.001l.361-.52c.063.062.149.1.244.1.192,0,.347-.156.347-.347s-.156-.347-.347-.347-.347.156-.347.347c0,.072.022.139.06.195l-.339.487-.291-1.178c.154-.036.269-.173.269-.338,0-.192-.156-.347-.347-.347s-.347.156-.347.347.156.347.347.347c.004,0,.008,0,.013,0l.307,1.241-1.014,1.459c-.01-.034-.02-.068-.029-.102-.085-.313-.139-.615-.165-.923-.051-.599.017-1.098.072-1.499.025-.184.048-.348.057-.501.038-.001.075-.018.102-.05.049-.059.041-.147-.018-.196s-.147-.041-.196.018c-.049.059-.041.147.018.196.009.008.019.014.029.019-.009.152-.031.319-.057.505-.055.404-.124.907-.072,1.513.027.312.082.618.168.934.006.022.012.043.018.065l-1.51-1.267c.019-.053.004-.114-.042-.152-.059-.049-.147-.041-.196.018-.049.059-.041.147.018.196.055.046.134.042.184-.005l.507.425-1.888.54c-.025-.029-.063-.047-.104-.047-.077,0-.139.062-.139.139s.062.139.139.139.139-.062.139-.139c0-.011-.001-.022-.004-.033l1.918-.548,1.012.849c.089.292.205.591.345.892.481,1.03,1.69,1.525,2.62,1.759.5.126.975.192,1.327.226.013.206.183.369.392.369s.378-.163.392-.369c.352-.034.827-.1,1.327-.226.93-.234,2.139-.729,2.62-1.759.14-.301.256-.6.345-.892l1.012-.849,1.918.548c-.003.01-.004.021-.004.033,0,.077.062.139.139.139s.139-.062.139-.139-.062-.139-.139-.139Z"/>
      <path d="M57.77,46.007c0-.192-.156-.347-.347-.347s-.347.156-.347.347.156.347.347.347.347-.156.347-.347Z"/>
      <path d="M55.569,45.104c.192,0,.347-.156.347-.347s-.156-.347-.347-.347-.347.156-.347.347.156.347.347.347Z"/>
      <circle cx="55.453" cy="46.702" r=".347"/>
      <path d="M57.515,48.301c.192,0,.347-.156.347-.347s-.156-.347-.347-.347-.347.156-.347.347.156.347.347.347Z"/>
    </g>
    <g>
      <path d="M53.621,89.581c.192,0,.347-.156.347-.347s-.156-.347-.347-.347-.347.156-.347.347.156.347.347.347Z"/>
      <path d="M55.474,88.33c.192,0,.347-.156.347-.347s-.156-.347-.347-.347-.347.156-.347.347.156.347.347.347Z"/>
      <circle cx="55.59" cy="89.929" r=".347"/>
      <path d="M53.529,91.527c.192,0,.347-.156.347-.347s-.156-.347-.347-.347-.347.156-.347.347.156.347.347.347Z"/>
      <path d="M57.907,89.581c-.041,0-.079.018-.104.047l-1.888-.54.507-.425c.051.047.13.051.184.005.059-.049.067-.137.018-.196-.049-.059-.137-.067-.196-.018-.046.038-.061.099-.042.152l-1.51,1.267c.006-.022.013-.043.018-.065.086-.316.141-.622.168-.934.052-.606-.017-1.109-.072-1.513-.026-.186-.048-.353-.057-.505.01-.005.02-.011.029-.019.059-.049.067-.137.018-.196-.049-.059-.137-.067-.196-.018s-.067.137-.018.196c.026.031.064.048.102.05.009.152.032.317.057.501.055.401.123.9.072,1.499-.026.308-.081.61-.165.923-.009.034-.019.068-.029.102l-1.014-1.459.307-1.241s.008,0,.013,0c.192,0,.347-.156.347-.347s-.156-.347-.347-.347-.347.156-.347.347c0,.165.115.303.269.338l-.291,1.178-.339-.487c.038-.056.06-.123.06-.195,0-.192-.156-.347-.347-.347s-.347.156-.347.347.156.347.347.347c.095,0,.181-.038.244-.1l.361.52h0s.001.001.001.001l1.06,1.524c-.088.288-.202.582-.34.878-.36.771-1.142,1.237-1.9,1.516v-1.98c.022-.004.043-.014.061-.03.059-.049.067-.137.018-.196-.049-.059-.137-.067-.196-.018s-.067.137-.018.196c.019.022.043.037.069.045v2.006c-.209.074-.415.135-.609.184-.495.125-.965.19-1.314.224-.02-.199-.186-.354-.39-.354s-.37.156-.39.354c-.349-.034-.819-.1-1.314-.224-.194-.049-.4-.109-.609-.184v-2.006c.026-.007.05-.022.069-.045.049-.059.041-.147-.018-.196s-.147-.041-.196.018c-.049.059-.041.147.018.196.018.015.04.025.061.03v1.98c-.758-.279-1.54-.745-1.9-1.516-.138-.296-.252-.591-.34-.878l1.06-1.524h.001s0-.001,0-.001l.361-.52c.063.062.149.1.244.1.192,0,.347-.156.347-.347s-.156-.347-.347-.347-.347.156-.347.347c0,.072.022.139.06.195l-.339.487-.291-1.178c.154-.036.269-.173.269-.338,0-.192-.156-.347-.347-.347s-.347.156-.347.347.156.347.347.347c.004,0,.008,0,.013,0l.307,1.241-1.014,1.459c-.01-.034-.02-.068-.029-.102-.085-.313-.139-.615-.165-.923-.051-.599.017-1.098.072-1.499.025-.184.048-.348.057-.501.038-.001.075-.018.102-.05.049-.059.041-.147-.018-.196s-.147-.041-.196.018c-.049.059-.041.147.018.196.009.008.019.014.029.019-.009.152-.031.319-.057.505-.055.404-.124.907-.072,1.513.027.312.082.618.168.934.006.022.012.043.018.065l-1.51-1.267c.019-.053.004-.114-.042-.152-.059-.049-.147-.041-.196.018-.049.059-.041.147.018.196.055.046.134.042.184-.005l.507.425-1.888.54c-.025-.029-.063-.047-.104-.047-.077,0-.139.062-.139.139s.062.139.139.139.139-.062.139-.139c0-.011-.001-.022-.004-.033l1.918-.548,1.012.849c.089.292.205.591.345.892.481,1.03,1.69,1.525,2.62,1.759.5.126.975.192,1.327.226.013.206.183.369.392.369s.378-.163.392-.369c.352-.034.827-.1,1.327-.226.93-.234,2.139-.729,2.62-1.759.14-.301.256-.6.345-.892l1.012-.849,1.918.548c-.003.01-.004.021-.004.033,0,.077.062.139.139.139s.139-.062.139-.139-.062-.139-.139-.139Z"/>
      <path d="M47.042,89.234c0-.192-.156-.347-.347-.347s-.347.156-.347.347.156.347.347.347.347-.156.347-.347Z"/>
      <path d="M44.841,88.33c.192,0,.347-.156.347-.347s-.156-.347-.347-.347-.347.156-.347.347.156.347.347.347Z"/>
      <circle cx="44.725" cy="89.929" r=".347"/>
      <path d="M46.787,91.527c.192,0,.347-.156.347-.347s-.156-.347-.347-.347-.347.156-.347.347.156.347.347.347Z"/>
    </g>
  </g>
  <g id="Flores">
    <g>
      <g>
        <polygon points="55.26 15.912 50.027 21.145 50.027 19.524 50.027 19.506 50.027 1.83 49.941 1.83 49.941 19.419 44.716 14.194 44.655 14.256 49.941 19.541 49.941 28.997 49.949 28.997 49.949 30.715 50.035 30.715 50.035 21.259 55.321 15.973 55.26 15.912" fill="#0c0d0b"/>
        <circle cx="44.651" cy="14.08" r="1.508" fill="#0c0d0b"/>
        <circle cx="49.984" cy="1.83" r="1.886" fill="#0c0d0b"/>
        <circle cx="52.544" cy="7.803" r="1.886" fill="#0c0d0b"/>
        <g>
          <circle cx="54.738" cy="16.665" r="1.006" fill="#0c0d0b"/>
          <circle cx="55.119" cy="14.187" r="1.006" fill="#0c0d0b"/>
          <circle cx="57.633" cy="16.61" r="1.508" fill="#0c0d0b"/>
          <circle cx="58.395" cy="12.77" r="1.886" fill="#0c0d0b"/>
        </g>
        <g>
          <circle cx="49.892" cy="24.009" r="1.006" fill="#0c0d0b"/>
          <circle cx="50.274" cy="21.531" r="1.006" fill="#0c0d0b"/>
          <circle cx="52.788" cy="23.954" r="1.508" fill="#0c0d0b"/>
          <circle cx="53.55" cy="20.114" r="1.886" fill="#0c0d0b"/>
        </g>
        <g>
          <circle cx="49.009" cy="15.873" r="1.006" fill="#0c0d0b"/>
          <circle cx="49.39" cy="13.395" r="1.006" fill="#0c0d0b"/>
          <circle cx="51.904" cy="15.817" r="1.508" fill="#0c0d0b"/>
          <circle cx="52.666" cy="11.978" r="1.886" fill="#0c0d0b"/>
        </g>
        <g>
          <circle cx="48.426" cy="7.736" r="1.006" fill="#0c0d0b"/>
          <circle cx="48.045" cy="5.258" r="1.006" fill="#0c0d0b"/>
          <circle cx="45.531" cy="7.681" r="1.508" fill="#0c0d0b"/>
          <circle cx="44.769" cy="3.841" r="1.886" fill="#0c0d0b"/>
        </g>
        <circle cx="47.786" cy="22.272" r="1.006" fill="#0c0d0b"/>
        <circle cx="47.405" cy="19.794" r="1.006" fill="#0c0d0b"/>
        <circle cx="47.043" cy="11.261" r="1.006" fill="#0c0d0b"/>
        <circle cx="52.407" cy="4.252" r="1.006" fill="#0c0d0b"/>
        <circle cx="56.125" cy="10.103" r="1.006" fill="#0c0d0b"/>
        <circle cx="51.858" cy="27.382" r="1.006" fill="#0c0d0b"/>
        <circle cx="49.878" cy="30.491" r="1.006" fill="#0c0d0b"/>
        <circle cx="48.11" cy="26.377" r="1.006" fill="#0c0d0b"/>
        <circle cx="46.404" cy="24.761" r="1.006" fill="#0c0d0b"/>
        <circle cx="43.387" cy="11.261" r="1.006" fill="#0c0d0b"/>
        <circle cx="44.891" cy="22.217" r="1.508" fill="#0c0d0b"/>
        <circle cx="44.129" cy="18.377" r="1.886" fill="#0c0d0b"/>
      </g>
      <circle cx="50" cy="1.837" r="1.262" fill="#cb1e1a"/>
      <circle cx="44.794" cy="3.888" r="1.262" fill="#cb1e1a"/>
      <circle cx="52.524" cy="7.832" r="1.262" fill="#cb1e1a"/>
      <circle cx="44.163" cy="18.402" r="1.262" fill="#cb1e1a"/>
      <circle cx="53.628" cy="20.137" r="1.262" fill="#cb1e1a"/>
    </g>
    <g>
      <g>
        <polygon points="71.841 21.811 69.225 24.427 69.225 23.617 69.225 23.608 69.225 14.77 69.182 14.77 69.182 23.565 66.569 20.952 66.539 20.983 69.182 23.626 69.182 28.354 69.185 28.354 69.185 29.213 69.229 29.213 69.229 24.485 71.872 21.842 71.841 21.811" fill="#0c0d0b"/>
        <circle cx="66.537" cy="20.895" r=".754" fill="#0c0d0b"/>
        <circle cx="69.203" cy="14.77" r=".943" fill="#0c0d0b"/>
        <circle cx="70.483" cy="17.756" r=".943" fill="#0c0d0b"/>
        <g>
          <circle cx="71.58" cy="22.188" r=".503" fill="#0c0d0b"/>
          <circle cx="71.771" cy="20.948" r=".503" fill="#0c0d0b"/>
          <circle cx="73.028" cy="22.16" r=".754" fill="#0c0d0b"/>
          <circle cx="73.409" cy="20.24" r=".943" fill="#0c0d0b"/>
        </g>
        <g>
          <circle cx="69.157" cy="25.86" r=".503" fill="#0c0d0b"/>
          <circle cx="69.348" cy="24.621" r=".503" fill="#0c0d0b"/>
          <circle cx="70.605" cy="25.832" r=".754" fill="#0c0d0b"/>
          <circle cx="70.986" cy="23.912" r=".943" fill="#0c0d0b"/>
        </g>
        <g>
          <circle cx="68.716" cy="21.791" r=".503" fill="#0c0d0b"/>
          <circle cx="68.906" cy="20.552" r=".503" fill="#0c0d0b"/>
          <circle cx="70.163" cy="21.764" r=".754" fill="#0c0d0b"/>
          <circle cx="70.544" cy="19.844" r=".943" fill="#0c0d0b"/>
        </g>
        <g>
          <circle cx="68.424" cy="17.723" r=".503" fill="#0c0d0b"/>
          <circle cx="68.234" cy="16.484" r=".503" fill="#0c0d0b"/>
          <circle cx="66.977" cy="17.695" r=".754" fill="#0c0d0b"/>
          <circle cx="66.596" cy="15.776" r=".943" fill="#0c0d0b"/>
        </g>
        <circle cx="68.104" cy="24.991" r=".503" fill="#0c0d0b"/>
        <circle cx="67.914" cy="23.752" r=".503" fill="#0c0d0b"/>
        <circle cx="67.733" cy="19.486" r=".503" fill="#0c0d0b"/>
        <circle cx="70.415" cy="15.981" r=".503" fill="#0c0d0b"/>
        <circle cx="72.274" cy="18.907" r=".503" fill="#0c0d0b"/>
        <circle cx="70.14" cy="27.546" r=".503" fill="#0c0d0b"/>
        <circle cx="69.15" cy="29.1" r=".503" fill="#0c0d0b"/>
        <circle cx="68.266" cy="27.043" r=".503" fill="#0c0d0b"/>
        <circle cx="67.413" cy="26.236" r=".503" fill="#0c0d0b"/>
        <circle cx="65.905" cy="19.486" r=".503" fill="#0c0d0b"/>
        <circle cx="66.657" cy="24.963" r=".754" fill="#0c0d0b"/>
        <circle cx="66.276" cy="23.044" r=".943" fill="#0c0d0b"/>
      </g>
      <circle cx="69.211" cy="14.774" r=".631" fill="#cb1e1a"/>
      <circle cx="66.608" cy="15.799" r=".631" fill="#cb1e1a"/>
      <circle cx="70.473" cy="17.771" r=".631" fill="#cb1e1a"/>
      <circle cx="66.293" cy="23.056" r=".631" fill="#cb1e1a"/>
      <circle cx="71.025" cy="23.924" r=".631" fill="#cb1e1a"/>
    </g>
    <g>
      <g>
        <polygon points="33.576 21.811 30.96 24.427 30.96 23.617 30.96 23.608 30.96 14.77 30.917 14.77 30.917 23.565 28.305 20.952 28.274 20.983 30.917 23.626 30.917 28.354 30.921 28.354 30.921 29.213 30.964 29.213 30.964 24.485 33.607 21.842 33.576 21.811" fill="#0c0d0b"/>
        <circle cx="28.272" cy="20.895" r=".754" fill="#0c0d0b"/>
        <circle cx="30.939" cy="14.77" r=".943" fill="#0c0d0b"/>
        <circle cx="32.219" cy="17.756" r=".943" fill="#0c0d0b"/>
        <g>
          <circle cx="33.315" cy="22.188" r=".503" fill="#0c0d0b"/>
          <circle cx="33.506" cy="20.948" r=".503" fill="#0c0d0b"/>
          <circle cx="34.763" cy="22.16" r=".754" fill="#0c0d0b"/>
          <circle cx="35.144" cy="20.24" r=".943" fill="#0c0d0b"/>
        </g>
        <g>
          <circle cx="30.893" cy="25.86" r=".503" fill="#0c0d0b"/>
          <circle cx="31.083" cy="24.621" r=".503" fill="#0c0d0b"/>
          <circle cx="32.34" cy="25.832" r=".754" fill="#0c0d0b"/>
          <circle cx="32.721" cy="23.912" r=".943" fill="#0c0d0b"/>
        </g>
        <g>
          <circle cx="30.451" cy="21.791" r=".503" fill="#0c0d0b"/>
          <circle cx="30.642" cy="20.552" r=".503" fill="#0c0d0b"/>
          <circle cx="31.899" cy="21.764" r=".754" fill="#0c0d0b"/>
          <circle cx="32.28" cy="19.844" r=".943" fill="#0c0d0b"/>
        </g>
        <g>
          <circle cx="30.16" cy="17.723" r=".503" fill="#0c0d0b"/>
          <circle cx="29.969" cy="16.484" r=".503" fill="#0c0d0b"/>
          <circle cx="28.712" cy="17.695" r=".754" fill="#0c0d0b"/>
          <circle cx="28.331" cy="15.776" r=".943" fill="#0c0d0b"/>
        </g>
        <circle cx="29.84" cy="24.991" r=".503" fill="#0c0d0b"/>
        <circle cx="29.649" cy="23.752" r=".503" fill="#0c0d0b"/>
        <circle cx="29.468" cy="19.486" r=".503" fill="#0c0d0b"/>
        <circle cx="32.15" cy="15.981" r=".503" fill="#0c0d0b"/>
        <circle cx="34.009" cy="18.907" r=".503" fill="#0c0d0b"/>
        <circle cx="31.876" cy="27.546" r=".503" fill="#0c0d0b"/>
        <circle cx="30.885" cy="29.1" r=".503" fill="#0c0d0b"/>
        <circle cx="30.002" cy="27.043" r=".503" fill="#0c0d0b"/>
        <circle cx="29.148" cy="26.236" r=".503" fill="#0c0d0b"/>
        <circle cx="27.64" cy="19.486" r=".503" fill="#0c0d0b"/>
        <circle cx="28.392" cy="24.963" r=".754" fill="#0c0d0b"/>
        <circle cx="28.011" cy="23.044" r=".943" fill="#0c0d0b"/>
      </g>
      <circle cx="30.947" cy="14.774" r=".631" fill="#cb1e1a"/>
      <circle cx="28.343" cy="15.799" r=".631" fill="#cb1e1a"/>
      <circle cx="32.209" cy="17.771" r=".631" fill="#cb1e1a"/>
      <circle cx="28.028" cy="23.056" r=".631" fill="#cb1e1a"/>
      <circle cx="32.761" cy="23.924" r=".631" fill="#cb1e1a"/>
    </g>
    <circle cx="68.171" cy="59.42" r="2.366" fill="#e53320"/>
    <circle cx="31.986" cy="59.735" r="2.366" fill="#e53320"/>
  </g>
</svg>