<?xml version="1.0" encoding="UTF-8"?>
<svg xmlns="http://www.w3.org/2000/svg" width="275.651" height="450" viewBox="0 0 275.651 450">
  <g id="Tallo">
    <g>
      <line x1="126.467" y1="450" x2="126.467" y2="10.382" fill="none" stroke="#0c0d0b" stroke-miterlimit="10" stroke-width="2.492"/>
      <g>
        <polygon points="126.467 441.96 122.367 440.988 126.467 440.017 126.467 441.96 126.467 441.96" fill="#0c0d0b"/>
        <polygon points="126.466 447.235 130.566 446.264 126.466 445.293 126.466 447.235 126.466 447.235" fill="#0c0d0b"/>
      </g>
      <g>
        <polygon points="126.467 425.912 122.367 424.94 126.467 423.969 126.467 425.912 126.467 425.912" fill="#0c0d0b"/>
        <polygon points="126.466 431.187 130.566 430.216 126.466 429.244 126.466 431.187 126.466 431.187" fill="#0c0d0b"/>
      </g>
      <g>
        <polygon points="126.467 409.856 122.367 408.884 126.467 407.913 126.467 409.856 126.467 409.856" fill="#0c0d0b"/>
        <polygon points="126.466 415.131 130.566 414.16 126.466 413.189 126.466 415.131 126.466 415.131" fill="#0c0d0b"/>
      </g>
      <g>
        <polygon points="126.467 393.791 122.367 392.82 126.467 391.849 126.467 393.791 126.467 393.791" fill="#0c0d0b"/>
        <polygon points="126.466 399.067 130.566 398.096 126.466 397.124 126.466 399.067 126.466 399.067" fill="#0c0d0b"/>
      </g>
      <g>
        <polygon points="126.467 377.761 122.367 376.79 126.467 375.819 126.467 377.761 126.467 377.761" fill="#0c0d0b"/>
        <polygon points="126.466 383.036 130.566 382.065 126.466 381.094 126.466 383.036 126.466 383.036" fill="#0c0d0b"/>
      </g>
      <g>
        <polygon points="126.467 361.675 122.367 360.704 126.467 359.732 126.467 361.675 126.467 361.675" fill="#0c0d0b"/>
        <polygon points="126.466 366.95 130.566 365.979 126.466 365.008 126.466 366.95 126.466 366.95" fill="#0c0d0b"/>
      </g>
      <g>
        <polygon points="126.467 345.696 122.367 344.724 126.467 343.753 126.467 345.696 126.467 345.696" fill="#0c0d0b"/>
        <polygon points="126.466 350.971 130.566 350 126.466 349.029 126.466 350.971 126.466 350.971" fill="#0c0d0b"/>
      </g>
      <g>
        <polygon points="126.467 329.57 122.367 328.599 126.467 327.628 126.467 329.57 126.467 329.57" fill="#0c0d0b"/>
        <polygon points="126.466 334.846 130.566 333.875 126.466 332.903 126.466 334.846 126.466 334.846" fill="#0c0d0b"/>
      </g>
      <g>
        <polygon points="126.467 313.56 122.367 312.589 126.467 311.618 126.467 313.56 126.467 313.56" fill="#0c0d0b"/>
        <polygon points="126.466 318.836 130.566 317.864 126.466 316.893 126.466 318.836 126.466 318.836" fill="#0c0d0b"/>
      </g>
      <g>
        <polygon points="126.467 297.531 122.367 296.559 126.467 295.588 126.467 297.531 126.467 297.531" fill="#0c0d0b"/>
        <polygon points="126.466 302.806 130.566 301.835 126.466 300.864 126.466 302.806 126.466 302.806" fill="#0c0d0b"/>
      </g>
      <g>
        <polygon points="126.467 281.463 122.367 280.492 126.467 279.521 126.467 281.463 126.467 281.463" fill="#0c0d0b"/>
        <polygon points="126.466 286.739 130.566 285.767 126.466 284.796 126.466 286.739 126.466 286.739" fill="#0c0d0b"/>
      </g>
      <g>
        <polygon points="126.467 265.456 122.367 264.485 126.467 263.514 126.467 265.456 126.467 265.456" fill="#0c0d0b"/>
        <polygon points="126.466 270.732 130.566 269.76 126.466 268.789 126.466 270.732 126.466 270.732" fill="#0c0d0b"/>
      </g>
      <g>
        <polygon points="126.467 249.391 122.367 248.42 126.467 247.448 126.467 249.391 126.467 249.391" fill="#0c0d0b"/>
        <polygon points="126.466 254.666 130.566 253.695 126.466 252.724 126.466 254.666 126.466 254.666" fill="#0c0d0b"/>
      </g>
      <g>
        <polygon points="126.467 233.291 122.367 232.319 126.467 231.348 126.467 233.291 126.467 233.291" fill="#0c0d0b"/>
        <polygon points="126.466 238.566 130.566 237.595 126.466 236.624 126.466 238.566 126.466 238.566" fill="#0c0d0b"/>
      </g>
      <g>
        <polygon points="126.467 217.322 122.367 216.351 126.467 215.38 126.467 217.322 126.467 217.322" fill="#0c0d0b"/>
        <polygon points="126.466 222.598 130.566 221.626 126.466 220.655 126.466 222.598 126.466 222.598" fill="#0c0d0b"/>
      </g>
      <g>
        <polygon points="126.467 201.256 122.367 200.285 126.467 199.314 126.467 201.256 126.467 201.256" fill="#0c0d0b"/>
        <polygon points="126.466 206.531 130.566 205.56 126.466 204.589 126.466 206.531 126.466 206.531" fill="#0c0d0b"/>
      </g>
      <g>
        <polygon points="126.467 185.164 122.367 184.193 126.467 183.222 126.467 185.164 126.467 185.164" fill="#0c0d0b"/>
        <polygon points="126.466 190.44 130.566 189.469 126.466 188.497 126.466 190.44 126.466 190.44" fill="#0c0d0b"/>
      </g>
      <g>
        <polygon points="126.467 169.138 122.367 168.166 126.467 167.195 126.467 169.138 126.467 169.138" fill="#0c0d0b"/>
        <polygon points="126.466 174.413 130.566 173.442 126.466 172.471 126.466 174.413 126.466 174.413" fill="#0c0d0b"/>
      </g>
      <g>
        <polygon points="126.467 153.125 122.367 152.154 126.467 151.182 126.467 153.125 126.467 153.125" fill="#0c0d0b"/>
        <polygon points="126.466 158.4 130.566 157.429 126.466 156.458 126.466 158.4 126.466 158.4" fill="#0c0d0b"/>
      </g>
      <g>
        <polygon points="126.467 137.082 122.367 136.11 126.467 135.139 126.467 137.082 126.467 137.082" fill="#0c0d0b"/>
        <polygon points="126.466 142.357 130.566 141.386 126.466 140.415 126.466 142.357 126.466 142.357" fill="#0c0d0b"/>
      </g>
      <g>
        <polygon points="126.467 121.017 122.367 120.046 126.467 119.074 126.467 121.017 126.467 121.017" fill="#0c0d0b"/>
        <polygon points="126.466 126.292 130.566 125.321 126.466 124.35 126.466 126.292 126.466 126.292" fill="#0c0d0b"/>
      </g>
      <g>
        <polygon points="126.467 105.032 122.367 104.061 126.467 103.089 126.467 105.032 126.467 105.032" fill="#0c0d0b"/>
        <polygon points="126.466 110.307 130.566 109.336 126.466 108.365 126.466 110.307 126.466 110.307" fill="#0c0d0b"/>
      </g>
      <g>
        <polygon points="126.467 88.9 122.367 87.929 126.467 86.957 126.467 88.9 126.467 88.9" fill="#0c0d0b"/>
        <polygon points="126.466 94.175 130.566 93.204 126.466 92.233 126.466 94.175 126.466 94.175" fill="#0c0d0b"/>
      </g>
      <g>
        <polygon points="126.467 72.886 122.367 71.914 126.467 70.943 126.467 72.886 126.467 72.886" fill="#0c0d0b"/>
        <polygon points="126.466 78.161 130.566 77.19 126.466 76.219 126.466 78.161 126.466 78.161" fill="#0c0d0b"/>
      </g>
      <g>
        <polygon points="126.467 56.819 122.367 55.848 126.467 54.876 126.467 56.819 126.467 56.819" fill="#0c0d0b"/>
        <polygon points="126.466 62.094 130.566 61.123 126.466 60.152 126.466 62.094 126.466 62.094" fill="#0c0d0b"/>
      </g>
      <g>
        <polygon points="126.467 40.785 122.367 39.813 126.467 38.842 126.467 40.785 126.467 40.785" fill="#0c0d0b"/>
        <polygon points="126.466 46.06 130.566 45.089 126.466 44.118 126.466 46.06 126.466 46.06" fill="#0c0d0b"/>
      </g>
      <g>
        <polygon points="126.467 24.735 122.367 23.764 126.467 22.792 126.467 24.735 126.467 24.735" fill="#0c0d0b"/>
        <polygon points="126.466 30.01 130.566 29.039 126.466 28.068 126.466 30.01 126.466 30.01" fill="#0c0d0b"/>
      </g>
      <g>
        <polygon points="126.467 8.716 122.367 7.745 126.467 6.774 126.467 8.716 126.467 8.716" fill="#0c0d0b"/>
        <polygon points="126.466 13.991 130.566 13.02 126.466 12.049 126.466 13.991 126.466 13.991" fill="#0c0d0b"/>
      </g>
    </g>
  </g>
  <g id="Hojas">
    <path d="M173.863,418.395c-4.745-10.585-13.87-10.22-23.725-8.76-10.135,1.502-18.25,17.52-18.25,17.52l.365-10.95c8.03-14.235,28.093-17.2,30.66-17.885,5.475-1.46,6.57-3.285,6.57-3.285,0,0,8.395-13.14-8.76-13.505s-28.835,26.28-28.835,26.28v-16.665c.099-.607.219-1.146.365-1.585,1.46-4.38,14.597-11.698,19.345-12.41,7.3-1.095,9.125-2.555,9.125-2.555,0,0,9.49-6.57,4.746-14.235-13.1-21.083-35.332,12.496-33.472,12.775h-1.677c1.86-.279-20.372-33.857-33.472-12.775-4.744,7.665,4.746,14.235,4.746,14.235,0,0,1.825,1.46,9.125,2.555,4.748.712,17.885,8.03,19.345,12.41.146.44.266.978.365,1.585v16.665s-11.68-26.645-28.835-26.28-8.76,13.505-8.76,13.505c0,0,1.095,1.825,6.57,3.285,2.567.685,22.63,3.65,30.66,17.885l.365,10.95s-8.115-16.018-18.25-17.52c-9.855-1.46-18.98-1.825-23.725,8.76-4.745,10.585,5.475,16.06,5.475,16.06,0,0,5.84,2.92,9.855,3.285,3.599.327,23.325.068,27.375.011,4.05.057,23.776.317,27.375-.011,4.015-.365,9.855-3.285,9.855-3.285,0,0,10.22-5.475,5.475-16.06Z" fill="#0c0d0b"/>
    <path d="M173.863,324.316c-4.745-10.585-13.87-10.22-23.725-8.76-10.135,1.502-18.25,17.52-18.25,17.52l.365-10.95c8.03-14.235,28.093-17.2,30.66-17.885,5.475-1.46,6.57-3.285,6.57-3.285,0,0,8.395-13.14-8.76-13.505s-28.835,26.28-28.835,26.28v-16.665c.099-.607.219-1.146.365-1.585,1.46-4.38,14.597-11.698,19.345-12.41,7.3-1.095,9.125-2.555,9.125-2.555,0,0,9.49-6.57,4.746-14.235-13.1-21.083-35.332,12.496-33.472,12.775h-1.677c1.86-.279-20.372-33.857-33.472-12.775-4.744,7.665,4.746,14.235,4.746,14.235,0,0,1.825,1.46,9.125,2.555,4.748.712,17.885,8.03,19.345,12.41.146.44.266.978.365,1.585v16.665s-11.68-26.645-28.835-26.28-8.76,13.505-8.76,13.505c0,0,1.095,1.825,6.57,3.285,2.567.685,22.63,3.65,30.66,17.885l.365,10.95s-8.115-16.018-18.25-17.52c-9.855-1.46-18.98-1.825-23.725,8.76-4.745,10.585,5.475,16.06,5.475,16.06,0,0,5.84,2.92,9.855,3.285,3.599.327,23.325.068,27.375.011,4.05.057,23.776.317,27.375-.011,4.015-.365,9.855-3.285,9.855-3.285,0,0,10.22-5.475,5.475-16.06Z" fill="#0c0d0b"/>
    <path d="M173.863,230.238c-4.745-10.585-13.87-10.22-23.725-8.76-10.135,1.502-18.25,17.52-18.25,17.52l.365-10.95c8.03-14.235,28.093-17.2,30.66-17.885,5.475-1.46,6.57-3.285,6.57-3.285,0,0,8.395-13.14-8.76-13.505s-28.835,26.28-28.835,26.28v-16.665c.099-.607.219-1.146.365-1.585,1.46-4.38,14.597-11.698,19.345-12.41,7.3-1.095,9.125-2.555,9.125-2.555,0,0,9.49-6.57,4.746-14.235-13.1-21.083-35.332,12.496-33.472,12.775h-1.677c1.86-.279-20.372-33.857-33.472-12.775-4.744,7.665,4.746,14.235,4.746,14.235,0,0,1.825,1.46,9.125,2.555,4.748.712,17.885,8.03,19.345,12.41.146.44.266.978.365,1.585v16.665s-11.68-26.645-28.835-26.28-8.76,13.505-8.76,13.505c0,0,1.095,1.825,6.57,3.285,2.567.685,22.63,3.65,30.66,17.885l.365,10.95s-8.115-16.018-18.25-17.52c-9.855-1.46-18.98-1.825-23.725,8.76-4.745,10.585,5.475,16.06,5.475,16.06,0,0,5.84,2.92,9.855,3.285,3.599.327,23.325.068,27.375.011,4.05.057,23.776.317,27.375-.011,4.015-.365,9.855-3.285,9.855-3.285,0,0,10.22-5.475,5.475-16.06Z" fill="#0c0d0b"/>
  </g>
  <g id="Flores">
    <g>
      <g>
        <polygon points="160.472 88.994 131.311 118.155 131.311 109.121 131.311 109.021 131.311 10.509 130.83 10.509 130.83 108.54 101.71 79.42 101.37 79.761 130.83 109.22 130.83 161.92 130.871 161.92 130.871 171.494 131.353 171.494 131.353 118.794 160.813 89.334 160.472 88.994" fill="#0c0d0b"/>
        <circle cx="101.349" cy="78.784" r="8.407" fill="#0c0d0b"/>
        <circle cx="131.07" cy="10.509" r="10.509" fill="#0c0d0b"/>
        <circle cx="145.337" cy="43.797" r="10.509" fill="#0c0d0b"/>
        <g>
          <circle cx="157.564" cy="93.19" r="5.605" fill="#0c0d0b"/>
          <circle cx="159.688" cy="79.378" r="5.605" fill="#0c0d0b"/>
          <circle cx="173.7" cy="92.881" r="8.407" fill="#0c0d0b"/>
          <circle cx="177.946" cy="71.481" r="10.509" fill="#0c0d0b"/>
        </g>
        <g>
          <circle cx="130.559" cy="134.121" r="5.605" fill="#0c0d0b"/>
          <circle cx="132.684" cy="120.31" r="5.605" fill="#0c0d0b"/>
          <circle cx="146.696" cy="133.812" r="8.407" fill="#0c0d0b"/>
          <circle cx="150.942" cy="112.412" r="10.509" fill="#0c0d0b"/>
        </g>
        <g>
          <circle cx="125.634" cy="88.774" r="5.605" fill="#0c0d0b"/>
          <circle cx="127.759" cy="74.963" r="5.605" fill="#0c0d0b"/>
          <circle cx="141.77" cy="88.465" r="8.407" fill="#0c0d0b"/>
          <circle cx="146.016" cy="67.065" r="10.509" fill="#0c0d0b"/>
        </g>
        <g>
          <circle cx="122.387" cy="43.427" r="5.605" fill="#0c0d0b"/>
          <circle cx="120.263" cy="29.616" r="5.605" fill="#0c0d0b"/>
          <circle cx="106.251" cy="43.118" r="8.407" fill="#0c0d0b"/>
          <circle cx="102.005" cy="21.718" r="10.509" fill="#0c0d0b"/>
        </g>
        <circle cx="118.821" cy="124.44" r="5.605" fill="#0c0d0b"/>
        <circle cx="116.696" cy="110.629" r="5.605" fill="#0c0d0b"/>
        <circle cx="114.681" cy="63.074" r="5.605" fill="#0c0d0b"/>
        <circle cx="144.573" cy="24.011" r="5.605" fill="#0c0d0b"/>
        <circle cx="165.293" cy="56.62" r="5.605" fill="#0c0d0b"/>
        <circle cx="141.516" cy="152.919" r="5.605" fill="#0c0d0b"/>
        <circle cx="130.476" cy="170.242" r="5.605" fill="#0c0d0b"/>
        <circle cx="120.625" cy="147.314" r="5.605" fill="#0c0d0b"/>
        <circle cx="111.114" cy="138.313" r="5.605" fill="#0c0d0b"/>
        <circle cx="94.3" cy="63.074" r="5.605" fill="#0c0d0b"/>
        <circle cx="102.684" cy="124.131" r="8.407" fill="#0c0d0b"/>
        <circle cx="98.438" cy="102.731" r="10.509" fill="#0c0d0b"/>
      </g>
      <circle cx="131.158" cy="10.551" r="7.034" fill="#cb1e1a"/>
      <circle cx="102.144" cy="21.981" r="7.034" fill="#cb1e1a"/>
      <circle cx="145.226" cy="43.962" r="7.034" fill="#cb1e1a"/>
      <circle cx="98.627" cy="102.871" r="7.034" fill="#cb1e1a"/>
      <circle cx="151.381" cy="112.542" r="7.034" fill="#cb1e1a"/>
    </g>
  </g>
</svg>