<?xml version="1.0" encoding="UTF-8"?>
<svg xmlns="http://www.w3.org/2000/svg" width="100" height="100" viewBox="0 0 100 100">
  <g id="Tallo">
    <g>
      <line x1="48.587" y1="99.995" x2="48.587" y2="2.312" fill="none" stroke="#0c0d0b" stroke-miterlimit="10" stroke-width=".554"/>
      <g>
        <polygon points="48.587 98.237 47.676 98.021 48.587 97.806 48.587 98.237 48.587 98.237" fill="#0c0d0b"/>
        <polygon points="48.587 99.409 49.498 99.194 48.587 98.978 48.587 99.409 48.587 99.409" fill="#0c0d0b"/>
      </g>
      <g>
        <polygon points="48.587 94.658 47.676 94.442 48.587 94.227 48.587 94.658 48.587 94.658" fill="#0c0d0b"/>
        <polygon points="48.587 95.83 49.498 95.615 48.587 95.399 48.587 95.83 48.587 95.83" fill="#0c0d0b"/>
      </g>
      <g>
        <polygon points="48.587 91.1 47.676 90.884 48.587 90.668 48.587 91.1 48.587 91.1" fill="#0c0d0b"/>
        <polygon points="48.587 92.272 49.498 92.056 48.587 91.84 48.587 92.272 48.587 92.272" fill="#0c0d0b"/>
      </g>
      <g>
        <polygon points="48.587 87.525 47.676 87.309 48.587 87.093 48.587 87.525 48.587 87.525" fill="#0c0d0b"/>
        <polygon points="48.587 88.697 49.498 88.481 48.587 88.265 48.587 88.697 48.587 88.697" fill="#0c0d0b"/>
      </g>
      <g>
        <polygon points="48.587 83.943 47.676 83.728 48.587 83.512 48.587 83.943 48.587 83.943" fill="#0c0d0b"/>
        <polygon points="48.587 85.116 49.498 84.9 48.587 84.684 48.587 85.116 48.587 85.116" fill="#0c0d0b"/>
      </g>
      <g>
        <polygon points="48.587 80.353 47.676 80.137 48.587 79.921 48.587 80.353 48.587 80.353" fill="#0c0d0b"/>
        <polygon points="48.587 81.525 49.498 81.309 48.587 81.093 48.587 81.525 48.587 81.525" fill="#0c0d0b"/>
      </g>
      <g>
        <polygon points="48.587 76.858 47.676 76.642 48.587 76.427 48.587 76.858 48.587 76.858" fill="#0c0d0b"/>
        <polygon points="48.587 78.03 49.498 77.815 48.587 77.599 48.587 78.03 48.587 78.03" fill="#0c0d0b"/>
      </g>
      <g>
        <polygon points="48.587 73.236 47.676 73.02 48.587 72.804 48.587 73.236 48.587 73.236" fill="#0c0d0b"/>
        <polygon points="48.587 74.408 49.498 74.192 48.587 73.976 48.587 74.408 48.587 74.408" fill="#0c0d0b"/>
      </g>
      <g>
        <polygon points="48.587 69.638 47.676 69.422 48.587 69.206 48.587 69.638 48.587 69.638" fill="#0c0d0b"/>
        <polygon points="48.587 70.81 49.498 70.594 48.587 70.378 48.587 70.81 48.587 70.81" fill="#0c0d0b"/>
      </g>
      <g>
        <polygon points="48.587 66.161 47.676 65.945 48.587 65.729 48.587 66.161 48.587 66.161" fill="#0c0d0b"/>
        <polygon points="48.587 67.333 49.498 67.117 48.587 66.901 48.587 67.333 48.587 67.333" fill="#0c0d0b"/>
      </g>
      <g>
        <polygon points="48.587 62.574 47.676 62.359 48.587 62.143 48.587 62.574 48.587 62.574" fill="#0c0d0b"/>
        <polygon points="48.587 63.747 49.498 63.531 48.587 63.315 48.587 63.747 48.587 63.747" fill="#0c0d0b"/>
      </g>
      <g>
        <polygon points="48.587 59.032 47.676 58.817 48.587 58.601 48.587 59.032 48.587 59.032" fill="#0c0d0b"/>
        <polygon points="48.587 60.205 49.498 59.989 48.587 59.773 48.587 60.205 48.587 60.205" fill="#0c0d0b"/>
      </g>
      <g>
        <polygon points="48.587 55.458 47.676 55.242 48.587 55.027 48.587 55.458 48.587 55.458" fill="#0c0d0b"/>
        <polygon points="48.587 56.63 49.498 56.415 48.587 56.199 48.587 56.63 48.587 56.63" fill="#0c0d0b"/>
      </g>
      <g>
        <polygon points="48.587 51.892 47.676 51.676 48.587 51.46 48.587 51.892 48.587 51.892" fill="#0c0d0b"/>
        <polygon points="48.587 53.064 49.498 52.848 48.587 52.632 48.587 53.064 48.587 53.064" fill="#0c0d0b"/>
      </g>
      <g>
        <polygon points="48.587 48.294 47.676 48.078 48.587 47.862 48.587 48.294 48.587 48.294" fill="#0c0d0b"/>
        <polygon points="48.587 49.466 49.498 49.25 48.587 49.035 48.587 49.466 48.587 49.466" fill="#0c0d0b"/>
      </g>
      <g>
        <polygon points="48.587 44.757 47.676 44.541 48.587 44.325 48.587 44.757 48.587 44.757" fill="#0c0d0b"/>
        <polygon points="48.587 45.929 49.498 45.713 48.587 45.498 48.587 45.929 48.587 45.929" fill="#0c0d0b"/>
      </g>
      <g>
        <polygon points="48.587 41.124 47.676 40.908 48.587 40.692 48.587 41.124 48.587 41.124" fill="#0c0d0b"/>
        <polygon points="48.587 42.296 49.498 42.08 48.587 41.864 48.587 42.296 48.587 42.296" fill="#0c0d0b"/>
      </g>
      <g>
        <polygon points="48.587 37.558 47.676 37.342 48.587 37.127 48.587 37.558 48.587 37.558" fill="#0c0d0b"/>
        <polygon points="48.587 38.73 49.498 38.515 48.587 38.299 48.587 38.73 48.587 38.73" fill="#0c0d0b"/>
      </g>
      <g>
        <polygon points="48.587 34.029 47.676 33.814 48.587 33.598 48.587 34.029 48.587 34.029" fill="#0c0d0b"/>
        <polygon points="48.587 35.202 49.498 34.986 48.587 34.77 48.587 35.202 48.587 35.202" fill="#0c0d0b"/>
      </g>
      <g>
        <polygon points="48.587 30.489 47.676 30.273 48.587 30.058 48.587 30.489 48.587 30.489" fill="#0c0d0b"/>
        <polygon points="48.587 31.661 49.498 31.446 48.587 31.23 48.587 31.661 48.587 31.661" fill="#0c0d0b"/>
      </g>
      <g>
        <polygon points="48.587 26.895 47.676 26.679 48.587 26.463 48.587 26.895 48.587 26.895" fill="#0c0d0b"/>
        <polygon points="48.587 28.067 49.498 27.851 48.587 27.636 48.587 28.067 48.587 28.067" fill="#0c0d0b"/>
      </g>
      <g>
        <polygon points="48.587 23.306 47.676 23.09 48.587 22.874 48.587 23.306 48.587 23.306" fill="#0c0d0b"/>
        <polygon points="48.587 24.478 49.498 24.262 48.587 24.046 48.587 24.478 48.587 24.478" fill="#0c0d0b"/>
      </g>
      <g>
        <polygon points="48.587 19.799 47.676 19.583 48.587 19.367 48.587 19.799 48.587 19.799" fill="#0c0d0b"/>
        <polygon points="48.587 20.971 49.498 20.755 48.587 20.539 48.587 20.971 48.587 20.971" fill="#0c0d0b"/>
      </g>
      <g>
        <polygon points="48.587 16.2 47.676 15.984 48.587 15.769 48.587 16.2 48.587 16.2" fill="#0c0d0b"/>
        <polygon points="48.587 17.372 49.498 17.157 48.587 16.941 48.587 17.372 48.587 17.372" fill="#0c0d0b"/>
      </g>
      <g>
        <polygon points="48.587 12.63 47.676 12.414 48.587 12.199 48.587 12.63 48.587 12.63" fill="#0c0d0b"/>
        <polygon points="48.587 13.802 49.498 13.587 48.587 13.371 48.587 13.802 48.587 13.802" fill="#0c0d0b"/>
      </g>
      <g>
        <polygon points="48.587 9.054 47.676 8.838 48.587 8.623 48.587 9.054 48.587 9.054" fill="#0c0d0b"/>
        <polygon points="48.587 10.226 49.498 10.011 48.587 9.795 48.587 10.226 48.587 10.226" fill="#0c0d0b"/>
      </g>
      <g>
        <polygon points="48.587 5.477 47.676 5.262 48.587 5.046 48.587 5.477 48.587 5.477" fill="#0c0d0b"/>
        <polygon points="48.587 6.65 49.498 6.434 48.587 6.218 48.587 6.65 48.587 6.65" fill="#0c0d0b"/>
      </g>
      <g>
        <polygon points="48.587 1.942 47.676 1.726 48.587 1.51 48.587 1.942 48.587 1.942" fill="#0c0d0b"/>
        <polygon points="48.587 3.114 49.498 2.898 48.587 2.682 48.587 3.114 48.587 3.114" fill="#0c0d0b"/>
      </g>
    </g>
  </g>
  <g id="Hojas">
    <path d="M58.008,92.972c-1.054-2.352-3.082-2.271-5.272-1.946-2.252.334-4.055,3.893-4.055,3.893l.081-2.433c1.784-3.163,6.242-3.822,6.813-3.974,1.217-.324,1.46-.73,1.46-.73,0,0,1.865-2.92-1.946-3.001s-6.407,5.839-6.407,5.839v-3.703c.022-.135.049-.255.081-.352.324-.973,3.244-2.599,4.298-2.758,1.622-.243,2.028-.568,2.028-.568,0,0,2.109-1.46,1.054-3.163-2.911-4.685-7.851,2.777-7.437,2.839h-.373c.413-.062-4.527-7.523-7.437-2.839-1.054,1.703,1.054,3.163,1.054,3.163,0,0,.406.324,2.028.568,1.055.158,3.974,1.784,4.298,2.758.033.098.059.217.081.352v3.703s-2.595-5.921-6.407-5.839-1.946,3.001-1.946,3.001c0,0,.243.406,1.46.73.57.152,5.028.811,6.813,3.974l.081,2.433s-1.803-3.559-4.055-3.893c-2.19-.324-4.217-.406-5.272,1.946s1.217,3.569,1.217,3.569c0,0,1.298.649,2.19.73.8.073,5.183.015,6.083.002.9.013,5.283.07,6.083-.002.892-.081,2.19-.73,2.19-.73,0,0,2.271-1.217,1.217-3.569Z" fill="#0c0d0b"/>
    <path d="M58.008,72.068c-1.054-2.352-3.082-2.271-5.272-1.946-2.252.334-4.055,3.893-4.055,3.893l.081-2.433c1.784-3.163,6.242-3.822,6.813-3.974,1.217-.324,1.46-.73,1.46-.73,0,0,1.865-2.92-1.946-3.001s-6.407,5.839-6.407,5.839v-3.703c.022-.135.049-.255.081-.352.324-.973,3.244-2.599,4.298-2.758,1.622-.243,2.028-.568,2.028-.568,0,0,2.109-1.46,1.054-3.163-2.911-4.685-7.851,2.777-7.437,2.839h-.373c.413-.062-4.527-7.523-7.437-2.839-1.054,1.703,1.054,3.163,1.054,3.163,0,0,.406.324,2.028.568,1.055.158,3.974,1.784,4.298,2.758.033.098.059.217.081.352v3.703s-2.595-5.921-6.407-5.839-1.946,3.001-1.946,3.001c0,0,.243.406,1.46.73.57.152,5.028.811,6.813,3.974l.081,2.433s-1.803-3.559-4.055-3.893c-2.19-.324-4.217-.406-5.272,1.946s1.217,3.569,1.217,3.569c0,0,1.298.649,2.19.73.8.073,5.183.015,6.083.002.9.013,5.283.07,6.083-.002.892-.081,2.19-.73,2.19-.73,0,0,2.271-1.217,1.217-3.569Z" fill="#0c0d0b"/>
    <path d="M58.008,51.164c-1.054-2.352-3.082-2.271-5.272-1.946-2.252.334-4.055,3.893-4.055,3.893l.081-2.433c1.784-3.163,6.242-3.822,6.813-3.974,1.217-.324,1.46-.73,1.46-.73,0,0,1.865-2.92-1.946-3.001s-6.407,5.839-6.407,5.839v-3.703c.022-.135.049-.255.081-.352.324-.973,3.244-2.599,4.298-2.758,1.622-.243,2.028-.568,2.028-.568,0,0,2.109-1.46,1.054-3.163-2.911-4.685-7.851,2.777-7.437,2.839h-.373c.413-.062-4.527-7.523-7.437-2.839-1.054,1.703,1.054,3.163,1.054,3.163,0,0,.406.324,2.028.568,1.055.158,3.974,1.784,4.298,2.758.033.098.059.217.081.352v3.703s-2.595-5.921-6.407-5.839-1.946,3.001-1.946,3.001c0,0,.243.406,1.46.73.57.152,5.028.811,6.813,3.974l.081,2.433s-1.803-3.559-4.055-3.893c-2.19-.324-4.217-.406-5.272,1.946s1.217,3.569,1.217,3.569c0,0,1.298.649,2.19.73.8.073,5.183.015,6.083.002.9.013,5.283.07,6.083-.002.892-.081,2.19-.73,2.19-.73,0,0,2.271-1.217,1.217-3.569Z" fill="#0c0d0b"/>
  </g>
  <g id="Flores">
    <g>
      <g>
        <polygon points="55.032 19.779 48.552 26.259 48.552 24.252 48.552 24.229 48.552 2.34 48.446 2.34 48.446 24.123 41.975 17.652 41.9 17.728 48.446 24.274 48.446 35.984 48.455 35.984 48.455 38.111 48.562 38.111 48.562 26.401 55.108 19.855 55.032 19.779" fill="#0c0d0b"/>
        <circle cx="41.895" cy="17.511" r="1.868" fill="#0c0d0b"/>
        <circle cx="48.499" cy="2.34" r="2.335" fill="#0c0d0b"/>
        <circle cx="51.669" cy="9.737" r="2.335" fill="#0c0d0b"/>
        <g>
          <circle cx="54.386" cy="20.712" r="1.245" fill="#0c0d0b"/>
          <circle cx="54.858" cy="17.643" r="1.245" fill="#0c0d0b"/>
          <circle cx="57.971" cy="20.643" r="1.868" fill="#0c0d0b"/>
          <circle cx="58.915" cy="15.888" r="2.335" fill="#0c0d0b"/>
        </g>
        <g>
          <circle cx="48.385" cy="29.807" r="1.245" fill="#0c0d0b"/>
          <circle cx="48.858" cy="26.738" r="1.245" fill="#0c0d0b"/>
          <circle cx="51.971" cy="29.738" r="1.868" fill="#0c0d0b"/>
          <circle cx="52.914" cy="24.983" r="2.335" fill="#0c0d0b"/>
        </g>
        <g>
          <circle cx="47.291" cy="19.731" r="1.245" fill="#0c0d0b"/>
          <circle cx="47.763" cy="16.662" r="1.245" fill="#0c0d0b"/>
          <circle cx="50.876" cy="19.662" r="1.868" fill="#0c0d0b"/>
          <circle cx="51.82" cy="14.907" r="2.335" fill="#0c0d0b"/>
        </g>
        <g>
          <circle cx="46.57" cy="9.654" r="1.245" fill="#0c0d0b"/>
          <circle cx="46.097" cy="6.586" r="1.245" fill="#0c0d0b"/>
          <circle cx="42.984" cy="9.586" r="1.868" fill="#0c0d0b"/>
          <circle cx="42.041" cy="4.831" r="2.335" fill="#0c0d0b"/>
        </g>
        <circle cx="45.777" cy="27.656" r="1.245" fill="#0c0d0b"/>
        <circle cx="45.305" cy="24.587" r="1.245" fill="#0c0d0b"/>
        <circle cx="44.857" cy="14.02" r="1.245" fill="#0c0d0b"/>
        <circle cx="51.499" cy="5.34" r="1.245" fill="#0c0d0b"/>
        <circle cx="56.103" cy="12.586" r="1.245" fill="#0c0d0b"/>
        <circle cx="50.82" cy="33.984" r="1.245" fill="#0c0d0b"/>
        <circle cx="48.367" cy="37.833" r="1.245" fill="#0c0d0b"/>
        <circle cx="46.178" cy="32.738" r="1.245" fill="#0c0d0b"/>
        <circle cx="44.065" cy="30.738" r="1.245" fill="#0c0d0b"/>
        <circle cx="40.329" cy="14.02" r="1.245" fill="#0c0d0b"/>
        <circle cx="42.192" cy="27.587" r="1.868" fill="#0c0d0b"/>
        <circle cx="41.248" cy="22.832" r="2.335" fill="#0c0d0b"/>
      </g>
      <circle cx="48.519" cy="2.349" r="1.563" fill="#cb1e1a"/>
      <circle cx="42.071" cy="4.889" r="1.563" fill="#cb1e1a"/>
      <circle cx="51.644" cy="9.773" r="1.563" fill="#cb1e1a"/>
      <circle cx="41.29" cy="22.863" r="1.563" fill="#cb1e1a"/>
      <circle cx="53.012" cy="25.012" r="1.563" fill="#cb1e1a"/>
    </g>
  </g>
</svg>