<?xml version="1.0" encoding="UTF-8"?>
<svg xmlns="http://www.w3.org/2000/svg" width="275.651" height="450" viewBox="0 0 275.651 450">
  <g id="Tallo">
    <g>
      <line x1="130.545" y1="450" x2="130.545" y2="7.79" fill="none" stroke="#0c0d0b" stroke-miterlimit="10" stroke-width="2.507"/>
      <g>
        <polygon points="130.545 441.912 126.421 440.935 130.545 439.958 130.545 441.912 130.545 441.912" fill="#0c0d0b"/>
        <polygon points="130.545 447.219 134.669 446.242 130.545 445.265 130.545 447.219 130.545 447.219" fill="#0c0d0b"/>
      </g>
      <g>
        <polygon points="130.545 425.77 126.421 424.793 130.545 423.816 130.545 425.77 130.545 425.77" fill="#0c0d0b"/>
        <polygon points="130.545 431.076 134.669 430.099 130.545 429.122 130.545 431.076 130.545 431.076" fill="#0c0d0b"/>
      </g>
      <g>
        <polygon points="130.545 409.619 126.421 408.642 130.545 407.665 130.545 409.619 130.545 409.619" fill="#0c0d0b"/>
        <polygon points="130.545 414.925 134.669 413.948 130.545 412.971 130.545 414.925 130.545 414.925" fill="#0c0d0b"/>
      </g>
      <g>
        <polygon points="130.545 393.46 126.421 392.483 130.545 391.506 130.545 393.46 130.545 393.46" fill="#0c0d0b"/>
        <polygon points="130.545 398.766 134.669 397.79 130.545 396.813 130.545 398.766 130.545 398.766" fill="#0c0d0b"/>
      </g>
      <g>
        <polygon points="130.545 377.335 126.421 376.358 130.545 375.381 130.545 377.335 130.545 377.335" fill="#0c0d0b"/>
        <polygon points="130.545 382.642 134.669 381.665 130.545 380.688 130.545 382.642 130.545 382.642" fill="#0c0d0b"/>
      </g>
      <g>
        <polygon points="130.545 361.154 126.421 360.177 130.545 359.2 130.545 361.154 130.545 361.154" fill="#0c0d0b"/>
        <polygon points="130.545 366.461 134.669 365.484 130.545 364.507 130.545 366.461 130.545 366.461" fill="#0c0d0b"/>
      </g>
      <g>
        <polygon points="130.545 345.081 126.421 344.104 130.545 343.127 130.545 345.081 130.545 345.081" fill="#0c0d0b"/>
        <polygon points="130.545 350.387 134.669 349.41 130.545 348.433 130.545 350.387 130.545 350.387" fill="#0c0d0b"/>
      </g>
      <g>
        <polygon points="130.545 328.86 126.421 327.883 130.545 326.907 130.545 328.86 130.545 328.86" fill="#0c0d0b"/>
        <polygon points="130.545 334.167 134.669 333.19 130.545 332.213 130.545 334.167 130.545 334.167" fill="#0c0d0b"/>
      </g>
      <g>
        <polygon points="130.545 312.756 126.421 311.779 130.545 310.802 130.545 312.756 130.545 312.756" fill="#0c0d0b"/>
        <polygon points="130.545 318.062 134.669 317.085 130.545 316.108 130.545 318.062 130.545 318.062" fill="#0c0d0b"/>
      </g>
      <g>
        <polygon points="130.545 296.632 126.421 295.655 130.545 294.678 130.545 296.632 130.545 296.632" fill="#0c0d0b"/>
        <polygon points="130.545 301.938 134.669 300.961 130.545 299.984 130.545 301.938 130.545 301.938" fill="#0c0d0b"/>
      </g>
      <g>
        <polygon points="130.545 280.469 126.421 279.492 130.545 278.515 130.545 280.469 130.545 280.469" fill="#0c0d0b"/>
        <polygon points="130.545 285.776 134.669 284.799 130.545 283.822 130.545 285.776 130.545 285.776" fill="#0c0d0b"/>
      </g>
      <g>
        <polygon points="130.545 264.368 126.421 263.391 130.545 262.414 130.545 264.368 130.545 264.368" fill="#0c0d0b"/>
        <polygon points="130.545 269.675 134.669 268.698 130.545 267.721 130.545 269.675 130.545 269.675" fill="#0c0d0b"/>
      </g>
      <g>
        <polygon points="130.545 248.208 126.421 247.231 130.545 246.254 130.545 248.208 130.545 248.208" fill="#0c0d0b"/>
        <polygon points="130.545 253.515 134.669 252.538 130.545 251.561 130.545 253.515 130.545 253.515" fill="#0c0d0b"/>
      </g>
      <g>
        <polygon points="130.545 232.013 126.421 231.036 130.545 230.059 130.545 232.013 130.545 232.013" fill="#0c0d0b"/>
        <polygon points="130.545 237.319 134.669 236.342 130.545 235.366 130.545 237.319 130.545 237.319" fill="#0c0d0b"/>
      </g>
      <g>
        <polygon points="130.545 215.95 126.421 214.973 130.545 213.996 130.545 215.95 130.545 215.95" fill="#0c0d0b"/>
        <polygon points="130.545 221.257 134.669 220.28 130.545 219.303 130.545 221.257 130.545 221.257" fill="#0c0d0b"/>
      </g>
      <g>
        <polygon points="130.545 199.789 126.421 198.812 130.545 197.835 130.545 199.789 130.545 199.789" fill="#0c0d0b"/>
        <polygon points="130.545 205.096 134.669 204.119 130.545 203.142 130.545 205.096 130.545 205.096" fill="#0c0d0b"/>
      </g>
      <g>
        <polygon points="130.545 183.603 126.421 182.626 130.545 181.649 130.545 183.603 130.545 183.603" fill="#0c0d0b"/>
        <polygon points="130.545 188.909 134.669 187.932 130.545 186.956 130.545 188.909 130.545 188.909" fill="#0c0d0b"/>
      </g>
      <g>
        <polygon points="130.545 167.482 126.421 166.505 130.545 165.528 130.545 167.482 130.545 167.482" fill="#0c0d0b"/>
        <polygon points="130.545 172.788 134.669 171.811 130.545 170.834 130.545 172.788 130.545 172.788" fill="#0c0d0b"/>
      </g>
      <g>
        <polygon points="130.545 151.375 126.421 150.398 130.545 149.421 130.545 151.375 130.545 151.375" fill="#0c0d0b"/>
        <polygon points="130.545 156.681 134.669 155.704 130.545 154.727 130.545 156.681 130.545 156.681" fill="#0c0d0b"/>
      </g>
      <g>
        <polygon points="130.545 135.237 126.421 134.26 130.545 133.283 130.545 135.237 130.545 135.237" fill="#0c0d0b"/>
        <polygon points="130.545 140.543 134.669 139.566 130.545 138.589 130.545 140.543 130.545 140.543" fill="#0c0d0b"/>
      </g>
      <g>
        <polygon points="130.545 119.077 126.421 118.1 130.545 117.123 130.545 119.077 130.545 119.077" fill="#0c0d0b"/>
        <polygon points="130.545 124.384 134.669 123.407 130.545 122.43 130.545 124.384 130.545 124.384" fill="#0c0d0b"/>
      </g>
      <g>
        <polygon points="130.545 102.998 126.421 102.021 130.545 101.044 130.545 102.998 130.545 102.998" fill="#0c0d0b"/>
        <polygon points="130.545 108.304 134.669 107.328 130.545 106.351 130.545 108.304 130.545 108.304" fill="#0c0d0b"/>
      </g>
      <g>
        <polygon points="130.545 86.771 126.421 85.794 130.545 84.817 130.545 86.771 130.545 86.771" fill="#0c0d0b"/>
        <polygon points="130.545 92.077 134.669 91.1 130.545 90.123 130.545 92.077 130.545 92.077" fill="#0c0d0b"/>
      </g>
      <g>
        <polygon points="130.545 70.662 126.421 69.685 130.545 68.708 130.545 70.662 130.545 70.662" fill="#0c0d0b"/>
        <polygon points="130.545 75.969 134.669 74.992 130.545 74.015 130.545 75.969 130.545 75.969" fill="#0c0d0b"/>
      </g>
      <g>
        <polygon points="130.545 54.501 126.421 53.524 130.545 52.547 130.545 54.501 130.545 54.501" fill="#0c0d0b"/>
        <polygon points="130.545 59.807 134.669 58.83 130.545 57.853 130.545 59.807 130.545 59.807" fill="#0c0d0b"/>
      </g>
      <g>
        <polygon points="130.545 38.372 126.421 37.395 130.545 36.418 130.545 38.372 130.545 38.372" fill="#0c0d0b"/>
        <polygon points="130.545 43.678 134.669 42.702 130.545 41.725 130.545 43.678 130.545 43.678" fill="#0c0d0b"/>
      </g>
      <g>
        <polygon points="130.545 22.227 126.421 21.25 130.545 20.273 130.545 22.227 130.545 22.227" fill="#0c0d0b"/>
        <polygon points="130.545 27.534 134.669 26.557 130.545 25.58 130.545 27.534 130.545 27.534" fill="#0c0d0b"/>
      </g>
      <g>
        <polygon points="130.545 6.114 126.421 5.137 130.545 4.16 130.545 6.114 130.545 6.114" fill="#0c0d0b"/>
        <polygon points="130.545 11.421 134.669 10.444 130.545 9.467 130.545 11.421 130.545 11.421" fill="#0c0d0b"/>
      </g>
    </g>
  </g>
  <g id="Hojas">
    <path d="M174.144,164.015c-.175-.866-.42-1.721-.74-2.547-.137-.383-.334-.816-.498-1.188-.675-1.416-1.441-2.633-2.501-3.93-.901-1.064-1.814-2.004-2.98-2.903-.275.055-.839.183-1.109.248-2.248.543-4.594,1.202-6.69,1.872-.174.051-.496.16-.663.215-.608.199-1.224.41-1.821.628-.327.121-.69.258-1.013.386-2.071.846-3.779,1.656-5.202,3.094-.555.57-.993,1.232-1.407,1.909-1.452,2.364-2.205,4.988-3.123,7.691-.4,1.203-.855,2.457-1.337,3.631-.432,1.019-.919,2.057-1.455,3.025-2.53,4.678-6.686,8.312-11.96,9.391-.468.096-.938.186-1.41.27-.471-.084-.941-.174-1.41-.27-5.274-1.079-9.43-4.713-11.96-9.391-.536-.968-1.023-2.006-1.455-3.025-.482-1.174-.938-2.429-1.337-3.631-.918-2.703-1.671-5.327-3.123-7.691-.413-.677-.852-1.34-1.407-1.909-1.423-1.438-3.131-2.248-5.202-3.094-.323-.129-.686-.265-1.013-.386-.597-.218-1.213-.43-1.821-.628-.167-.055-.489-.164-.663-.215-2.096-.67-4.442-1.329-6.69-1.872-.271-.065-.835-.193-1.109-.248-1.166.899-2.079,1.839-2.98,2.903-1.06,1.297-1.826,2.514-2.501,3.93-.164.372-.362.805-.498,1.188-.32.825-.566,1.681-.74,2.547-.724,3.508-.174,7.193,1.54,10.33.477.877,1.045,1.699,1.654,2.489.749.962,1.575,1.874,2.467,2.705,5.131,4.789,11.576,6.509,18.447,6.619,3.543.075,7.27-.248,10.758-.326,1.926-.044,3.855-.012,5.767.151.313.025.633.057.956.092,1.505,0,3.082.002,4.613.003.332-.037.661-.07.984-.095,1.912-.162,3.841-.195,5.767-.151,3.489.078,7.216.401,10.758.326,6.871-.11,13.316-1.83,18.447-6.619.892-.831,1.718-1.743,2.467-2.705.609-.79,1.178-1.612,1.654-2.489,1.714-3.137,2.264-6.822,1.54-10.33Z" fill="#0c0d0b"/>
    <path d="M174.144,210.889c-.175-.866-.42-1.721-.74-2.547-.137-.383-.334-.816-.498-1.188-.675-1.416-1.441-2.633-2.501-3.93-.901-1.064-1.814-2.004-2.98-2.903-.275.055-.839.183-1.109.248-2.248.543-4.594,1.202-6.69,1.872-.174.051-.496.16-.663.215-.608.199-1.224.41-1.821.628-.327.121-.69.258-1.013.386-2.071.846-3.779,1.656-5.202,3.094-.555.57-.993,1.232-1.407,1.909-1.452,2.364-2.205,4.988-3.123,7.691-.4,1.203-.855,2.457-1.337,3.631-.432,1.019-.919,2.057-1.455,3.025-2.53,4.678-6.686,8.312-11.96,9.391-.468.096-.938.186-1.41.27-.471-.084-.941-.174-1.41-.27-5.274-1.079-9.43-4.713-11.96-9.391-.536-.968-1.023-2.006-1.455-3.025-.482-1.174-.938-2.429-1.337-3.631-.918-2.703-1.671-5.327-3.123-7.691-.413-.677-.852-1.34-1.407-1.909-1.423-1.438-3.131-2.248-5.202-3.094-.323-.129-.686-.265-1.013-.386-.597-.218-1.213-.43-1.821-.628-.167-.055-.489-.164-.663-.215-2.096-.67-4.442-1.329-6.69-1.872-.271-.065-.835-.193-1.109-.248-1.166.899-2.079,1.839-2.98,2.903-1.06,1.297-1.826,2.514-2.501,3.93-.164.372-.362.805-.498,1.188-.32.825-.566,1.681-.74,2.547-.724,3.508-.174,7.193,1.54,10.33.477.877,1.045,1.699,1.654,2.489.749.962,1.575,1.874,2.467,2.705,5.131,4.789,11.576,6.509,18.447,6.619,3.543.075,7.27-.248,10.758-.326,1.926-.044,3.855-.012,5.767.151.313.025.633.057.956.092,1.505,0,3.082.002,4.613.003.332-.037.661-.07.984-.095,1.912-.162,3.841-.195,5.767-.151,3.489.078,7.216.401,10.758.326,6.871-.11,13.316-1.83,18.447-6.619.892-.831,1.718-1.743,2.467-2.705.609-.79,1.178-1.612,1.654-2.489,1.714-3.137,2.264-6.822,1.54-10.33Z" fill="#0c0d0b"/>
    <path d="M174.144,257.764c-.175-.866-.42-1.721-.74-2.547-.137-.383-.334-.816-.498-1.188-.675-1.416-1.441-2.633-2.501-3.93-.901-1.064-1.814-2.004-2.98-2.903-.275.055-.839.183-1.109.248-2.248.543-4.594,1.202-6.69,1.872-.174.051-.496.16-.663.215-.608.199-1.224.41-1.821.628-.327.121-.69.258-1.013.386-2.071.846-3.779,1.656-5.202,3.094-.555.57-.993,1.232-1.407,1.909-1.452,2.364-2.205,4.988-3.123,7.691-.4,1.203-.855,2.457-1.337,3.631-.432,1.019-.919,2.057-1.455,3.025-2.53,4.678-6.686,8.312-11.96,9.391-.468.096-.938.186-1.41.27-.471-.084-.941-.174-1.41-.27-5.274-1.079-9.43-4.713-11.96-9.391-.536-.968-1.023-2.006-1.455-3.025-.482-1.174-.938-2.429-1.337-3.631-.918-2.703-1.671-5.327-3.123-7.691-.413-.677-.852-1.34-1.407-1.909-1.423-1.438-3.131-2.248-5.202-3.094-.323-.129-.686-.265-1.013-.386-.597-.218-1.213-.43-1.821-.628-.167-.055-.489-.164-.663-.215-2.096-.67-4.442-1.329-6.69-1.872-.271-.065-.835-.193-1.109-.248-1.166.899-2.079,1.839-2.98,2.903-1.06,1.297-1.826,2.514-2.501,3.93-.164.372-.362.805-.498,1.188-.32.825-.566,1.681-.74,2.547-.724,3.508-.174,7.193,1.54,10.33.477.877,1.045,1.699,1.654,2.489.749.962,1.575,1.874,2.467,2.705,5.131,4.789,11.576,6.509,18.447,6.619,3.543.075,7.27-.248,10.758-.326,1.926-.044,3.855-.012,5.767.151.313.025.633.057.956.092,1.505,0,3.082.002,4.613.003.332-.037.661-.07.984-.095,1.912-.162,3.841-.195,5.767-.151,3.489.078,7.216.401,10.758.326,6.871-.11,13.316-1.83,18.447-6.619.892-.831,1.718-1.743,2.467-2.705.609-.79,1.178-1.612,1.654-2.489,1.714-3.137,2.264-6.822,1.54-10.33Z" fill="#0c0d0b"/>
    <path d="M174.144,304.638c-.175-.866-.42-1.721-.74-2.547-.137-.383-.334-.816-.498-1.188-.675-1.416-1.441-2.633-2.501-3.93-.901-1.064-1.814-2.004-2.98-2.903-.275.055-.839.183-1.109.248-2.248.543-4.594,1.202-6.69,1.872-.174.051-.496.16-.663.215-.608.199-1.224.41-1.821.628-.327.121-.69.258-1.013.386-2.071.846-3.779,1.656-5.202,3.094-.555.57-.993,1.232-1.407,1.909-1.452,2.364-2.205,4.988-3.123,7.691-.4,1.203-.855,2.457-1.337,3.631-.432,1.019-.919,2.057-1.455,3.025-2.53,4.678-6.686,8.312-11.96,9.391-.468.096-.938.186-1.41.27-.471-.084-.941-.174-1.41-.27-5.274-1.079-9.43-4.713-11.96-9.391-.536-.968-1.023-2.006-1.455-3.025-.482-1.174-.938-2.429-1.337-3.631-.918-2.703-1.671-5.327-3.123-7.691-.413-.677-.852-1.34-1.407-1.909-1.423-1.438-3.131-2.248-5.202-3.094-.323-.129-.686-.265-1.013-.386-.597-.218-1.213-.43-1.821-.628-.167-.055-.489-.164-.663-.215-2.096-.67-4.442-1.329-6.69-1.872-.271-.065-.835-.193-1.109-.248-1.166.899-2.079,1.839-2.98,2.903-1.06,1.297-1.826,2.514-2.501,3.93-.164.372-.362.805-.498,1.188-.32.825-.566,1.681-.74,2.547-.724,3.508-.174,7.193,1.54,10.33.477.877,1.045,1.699,1.654,2.489.749.962,1.575,1.874,2.467,2.705,5.131,4.789,11.576,6.509,18.447,6.619,3.543.075,7.27-.248,10.758-.326,1.926-.044,3.855-.012,5.767.151.313.025.633.057.956.092,1.505,0,3.082.002,4.613.003.332-.037.661-.07.984-.095,1.912-.162,3.841-.195,5.767-.151,3.489.078,7.216.401,10.758.326,6.871-.11,13.316-1.83,18.447-6.619.892-.831,1.718-1.743,2.467-2.705.609-.79,1.178-1.612,1.654-2.489,1.714-3.137,2.264-6.822,1.54-10.33Z" fill="#0c0d0b"/>
    <path d="M174.144,351.512c-.175-.866-.42-1.721-.74-2.547-.137-.383-.334-.816-.498-1.188-.675-1.416-1.441-2.633-2.501-3.93-.901-1.064-1.814-2.004-2.98-2.903-.275.055-.839.183-1.109.248-2.248.543-4.594,1.202-6.69,1.872-.174.051-.496.16-.663.215-.608.199-1.224.41-1.821.628-.327.121-.69.258-1.013.386-2.071.846-3.779,1.656-5.202,3.094-.555.57-.993,1.232-1.407,1.909-1.452,2.364-2.205,4.988-3.123,7.691-.4,1.203-.855,2.457-1.337,3.631-.432,1.019-.919,2.057-1.455,3.025-2.53,4.678-6.686,8.312-11.96,9.391-.468.096-.938.186-1.41.27-.471-.084-.941-.174-1.41-.27-5.274-1.079-9.43-4.713-11.96-9.391-.536-.968-1.023-2.006-1.455-3.025-.482-1.174-.938-2.429-1.337-3.631-.918-2.703-1.671-5.327-3.123-7.691-.413-.677-.852-1.34-1.407-1.909-1.423-1.438-3.131-2.248-5.202-3.094-.323-.129-.686-.265-1.013-.386-.597-.218-1.213-.43-1.821-.628-.167-.055-.489-.164-.663-.215-2.096-.67-4.442-1.329-6.69-1.872-.271-.065-.835-.193-1.109-.248-1.166.899-2.079,1.839-2.98,2.903-1.06,1.297-1.826,2.514-2.501,3.93-.164.372-.362.805-.498,1.188-.32.825-.566,1.681-.74,2.547-.724,3.508-.174,7.193,1.54,10.33.477.877,1.045,1.699,1.654,2.489.749.962,1.575,1.874,2.467,2.705,5.131,4.789,11.576,6.509,18.447,6.619,3.543.075,7.27-.248,10.758-.326,1.926-.044,3.855-.012,5.767.151.313.025.633.057.956.092,1.505,0,3.082.002,4.613.003.332-.037.661-.07.984-.095,1.912-.162,3.841-.195,5.767-.151,3.489.078,7.216.401,10.758.326,6.871-.11,13.316-1.83,18.447-6.619.892-.831,1.718-1.743,2.467-2.705.609-.79,1.178-1.612,1.654-2.489,1.714-3.137,2.264-6.822,1.54-10.33Z" fill="#0c0d0b"/>
    <path d="M174.144,398.386c-.175-.866-.42-1.721-.74-2.547-.137-.383-.334-.816-.498-1.188-.675-1.416-1.441-2.633-2.501-3.93-.901-1.064-1.814-2.004-2.98-2.903-.275.055-.839.183-1.109.248-2.248.543-4.594,1.202-6.69,1.872-.174.051-.496.16-.663.215-.608.199-1.224.41-1.821.628-.327.121-.69.258-1.013.386-2.071.846-3.779,1.656-5.202,3.094-.555.57-.993,1.232-1.407,1.909-1.452,2.364-2.205,4.988-3.123,7.691-.4,1.203-.855,2.457-1.337,3.631-.432,1.019-.919,2.057-1.455,3.025-2.53,4.678-6.686,8.312-11.96,9.391-.468.096-.938.186-1.41.27-.471-.084-.941-.174-1.41-.27-5.274-1.079-9.43-4.713-11.96-9.391-.536-.968-1.023-2.006-1.455-3.025-.482-1.174-.938-2.429-1.337-3.631-.918-2.703-1.671-5.327-3.123-7.691-.413-.677-.852-1.34-1.407-1.909-1.423-1.438-3.131-2.248-5.202-3.094-.323-.129-.686-.265-1.013-.386-.597-.218-1.213-.43-1.821-.628-.167-.055-.489-.164-.663-.215-2.096-.67-4.442-1.329-6.69-1.872-.271-.065-.835-.193-1.109-.248-1.166.899-2.079,1.839-2.98,2.903-1.06,1.297-1.826,2.514-2.501,3.93-.164.372-.362.805-.498,1.188-.32.825-.566,1.681-.74,2.547-.724,3.508-.174,7.193,1.54,10.33.477.877,1.045,1.699,1.654,2.489.749.962,1.575,1.874,2.467,2.705,5.131,4.789,11.576,6.509,18.447,6.619,3.543.075,7.27-.248,10.758-.326,1.926-.044,3.855-.012,5.767.151.313.025.633.057.956.092,1.505,0,3.082.002,4.613.003.332-.037.661-.07.984-.095,1.912-.162,3.841-.195,5.767-.151,3.489.078,7.216.401,10.758.326,6.871-.11,13.316-1.83,18.447-6.619.892-.831,1.718-1.743,2.467-2.705.609-.79,1.178-1.612,1.654-2.489,1.714-3.137,2.264-6.822,1.54-10.33Z" fill="#0c0d0b"/>
  </g>
  <g id="Flores">
    <g>
      <g>
        <polygon points="161.49 89.519 132.157 118.852 132.157 109.764 132.157 109.664 132.157 10.571 131.673 10.571 131.673 109.18 102.382 79.888 102.039 80.231 131.673 109.864 131.673 162.875 131.715 162.875 131.715 172.505 132.199 172.505 132.199 119.494 161.832 89.861 161.49 89.519" fill="#0c0d0b"/>
        <circle cx="102.018" cy="79.249" r="8.457" fill="#0c0d0b"/>
        <circle cx="131.915" cy="10.571" r="10.571" fill="#0c0d0b"/>
        <circle cx="146.266" cy="44.055" r="10.571" fill="#0c0d0b"/>
        <g>
          <circle cx="158.564" cy="93.739" r="5.638" fill="#0c0d0b"/>
          <circle cx="160.702" cy="79.847" r="5.638" fill="#0c0d0b"/>
          <circle cx="174.796" cy="93.428" r="8.457" fill="#0c0d0b"/>
          <circle cx="179.067" cy="71.902" r="10.571" fill="#0c0d0b"/>
        </g>
        <g>
          <circle cx="131.401" cy="134.912" r="5.638" fill="#0c0d0b"/>
          <circle cx="133.538" cy="121.019" r="5.638" fill="#0c0d0b"/>
          <circle cx="147.632" cy="134.601" r="8.457" fill="#0c0d0b"/>
          <circle cx="151.903" cy="113.075" r="10.571" fill="#0c0d0b"/>
        </g>
        <g>
          <circle cx="126.446" cy="89.297" r="5.638" fill="#0c0d0b"/>
          <circle cx="128.584" cy="75.405" r="5.638" fill="#0c0d0b"/>
          <circle cx="142.678" cy="88.986" r="8.457" fill="#0c0d0b"/>
          <circle cx="146.949" cy="67.461" r="10.571" fill="#0c0d0b"/>
        </g>
        <g>
          <circle cx="123.181" cy="43.683" r="5.638" fill="#0c0d0b"/>
          <circle cx="121.044" cy="29.79" r="5.638" fill="#0c0d0b"/>
          <circle cx="106.949" cy="43.372" r="8.457" fill="#0c0d0b"/>
          <circle cx="102.678" cy="21.846" r="10.571" fill="#0c0d0b"/>
        </g>
        <circle cx="119.593" cy="125.174" r="5.638" fill="#0c0d0b"/>
        <circle cx="117.456" cy="111.281" r="5.638" fill="#0c0d0b"/>
        <circle cx="115.429" cy="63.446" r="5.638" fill="#0c0d0b"/>
        <circle cx="145.497" cy="24.153" r="5.638" fill="#0c0d0b"/>
        <circle cx="166.339" cy="56.954" r="5.638" fill="#0c0d0b"/>
        <circle cx="142.422" cy="153.82" r="5.638" fill="#0c0d0b"/>
        <circle cx="131.317" cy="171.246" r="5.638" fill="#0c0d0b"/>
        <circle cx="121.408" cy="148.183" r="5.638" fill="#0c0d0b"/>
        <circle cx="111.841" cy="139.128" r="5.638" fill="#0c0d0b"/>
        <circle cx="94.928" cy="63.446" r="5.638" fill="#0c0d0b"/>
        <circle cx="103.362" cy="124.863" r="8.457" fill="#0c0d0b"/>
        <circle cx="99.091" cy="103.337" r="10.571" fill="#0c0d0b"/>
      </g>
      <circle cx="132.003" cy="10.613" r="7.075" fill="#cb1e1a"/>
      <circle cx="102.818" cy="22.11" r="7.075" fill="#cb1e1a"/>
      <circle cx="146.154" cy="44.221" r="7.075" fill="#cb1e1a"/>
      <circle cx="99.28" cy="103.477" r="7.075" fill="#cb1e1a"/>
      <circle cx="152.345" cy="113.206" r="7.075" fill="#cb1e1a"/>
    </g>
  </g>
</svg>