<?xml version="1.0" encoding="UTF-8"?>
<svg xmlns="http://www.w3.org/2000/svg" width="100" height="100" viewBox="0 0 100 100">
  <g id="Tallo">
    <g>
      <g>
        <line x1="49.976" y1="99.884" x2="49.976" y2="6.576" fill="none" stroke="#0c0d0b" stroke-miterlimit="10" stroke-width=".529"/>
        <g>
          <polygon points="49.976 98.205 49.106 97.999 49.976 97.793 49.976 98.205 49.976 98.205" fill="#0c0d0b"/>
          <polygon points="49.976 99.325 50.847 99.118 49.976 98.912 49.976 99.325 49.976 99.325" fill="#0c0d0b"/>
        </g>
        <g>
          <polygon points="49.976 94.786 49.106 94.58 49.976 94.374 49.976 94.786 49.976 94.786" fill="#0c0d0b"/>
          <polygon points="49.976 95.906 50.847 95.7 49.976 95.494 49.976 95.906 49.976 95.906" fill="#0c0d0b"/>
        </g>
        <g>
          <polygon points="49.976 91.387 49.106 91.181 49.976 90.975 49.976 91.387 49.976 91.387" fill="#0c0d0b"/>
          <polygon points="49.976 92.507 50.847 92.3 49.976 92.094 49.976 92.507 49.976 92.507" fill="#0c0d0b"/>
        </g>
        <g>
          <polygon points="49.976 87.972 49.106 87.766 49.976 87.56 49.976 87.972 49.976 87.972" fill="#0c0d0b"/>
          <polygon points="49.976 89.092 50.847 88.886 49.976 88.679 49.976 89.092 49.976 89.092" fill="#0c0d0b"/>
        </g>
        <g>
          <polygon points="49.976 84.551 49.106 84.345 49.976 84.139 49.976 84.551 49.976 84.551" fill="#0c0d0b"/>
          <polygon points="49.976 85.671 50.847 85.465 49.976 85.259 49.976 85.671 49.976 85.671" fill="#0c0d0b"/>
        </g>
        <g>
          <polygon points="49.976 81.121 49.106 80.915 49.976 80.709 49.976 81.121 49.976 81.121" fill="#0c0d0b"/>
          <polygon points="49.976 82.241 50.847 82.035 49.976 81.829 49.976 82.241 49.976 82.241" fill="#0c0d0b"/>
        </g>
        <g>
          <polygon points="49.976 77.783 49.106 77.577 49.976 77.371 49.976 77.783 49.976 77.783" fill="#0c0d0b"/>
          <polygon points="49.976 78.903 50.847 78.697 49.976 78.491 49.976 78.903 49.976 78.903" fill="#0c0d0b"/>
        </g>
        <g>
          <polygon points="49.976 74.323 49.106 74.117 49.976 73.911 49.976 74.323 49.976 74.323" fill="#0c0d0b"/>
          <polygon points="49.976 75.443 50.847 75.237 49.976 75.03 49.976 75.443 49.976 75.443" fill="#0c0d0b"/>
        </g>
        <g>
          <polygon points="49.976 70.886 49.106 70.68 49.976 70.474 49.976 70.886 49.976 70.886" fill="#0c0d0b"/>
          <polygon points="49.976 72.006 50.847 71.8 49.976 71.594 49.976 72.006 49.976 72.006" fill="#0c0d0b"/>
        </g>
        <g>
          <polygon points="49.976 67.565 49.106 67.359 49.976 67.153 49.976 67.565 49.976 67.565" fill="#0c0d0b"/>
          <polygon points="49.976 68.685 50.847 68.478 49.976 68.272 49.976 68.685 49.976 68.685" fill="#0c0d0b"/>
        </g>
        <g>
          <polygon points="49.976 64.14 49.106 63.933 49.976 63.727 49.976 64.14 49.976 64.14" fill="#0c0d0b"/>
          <polygon points="49.976 65.259 50.847 65.053 49.976 64.847 49.976 65.259 49.976 65.259" fill="#0c0d0b"/>
        </g>
        <g>
          <polygon points="49.976 60.756 49.106 60.55 49.976 60.344 49.976 60.756 49.976 60.756" fill="#0c0d0b"/>
          <polygon points="49.976 61.876 50.847 61.67 49.976 61.464 49.976 61.876 49.976 61.876" fill="#0c0d0b"/>
        </g>
        <g>
          <polygon points="49.976 57.342 49.106 57.136 49.976 56.93 49.976 57.342 49.976 57.342" fill="#0c0d0b"/>
          <polygon points="49.976 58.462 50.847 58.256 49.976 58.049 49.976 58.462 49.976 58.462" fill="#0c0d0b"/>
        </g>
        <g>
          <polygon points="49.976 53.935 49.106 53.729 49.976 53.523 49.976 53.935 49.976 53.935" fill="#0c0d0b"/>
          <polygon points="49.976 55.055 50.847 54.849 49.976 54.643 49.976 55.055 49.976 55.055" fill="#0c0d0b"/>
        </g>
        <g>
          <polygon points="49.976 50.499 49.106 50.293 49.976 50.086 49.976 50.499 49.976 50.499" fill="#0c0d0b"/>
          <polygon points="49.976 51.618 50.847 51.412 49.976 51.206 49.976 51.618 49.976 51.618" fill="#0c0d0b"/>
        </g>
        <g>
          <polygon points="49.976 47.12 49.106 46.914 49.976 46.708 49.976 47.12 49.976 47.12" fill="#0c0d0b"/>
          <polygon points="49.976 48.24 50.847 48.034 49.976 47.828 49.976 48.24 49.976 48.24" fill="#0c0d0b"/>
        </g>
        <g>
          <polygon points="49.976 43.65 49.106 43.444 49.976 43.237 49.976 43.65 49.976 43.65" fill="#0c0d0b"/>
          <polygon points="49.976 44.769 50.847 44.563 49.976 44.357 49.976 44.769 49.976 44.769" fill="#0c0d0b"/>
        </g>
        <g>
          <polygon points="49.976 40.244 49.106 40.038 49.976 39.831 49.976 40.244 49.976 40.244" fill="#0c0d0b"/>
          <polygon points="49.976 41.363 50.847 41.157 49.976 40.951 49.976 41.363 49.976 41.363" fill="#0c0d0b"/>
        </g>
        <g>
          <polygon points="49.976 36.873 49.106 36.667 49.976 36.461 49.976 36.873 49.976 36.873" fill="#0c0d0b"/>
          <polygon points="49.976 37.993 50.847 37.787 49.976 37.58 49.976 37.993 49.976 37.993" fill="#0c0d0b"/>
        </g>
        <g>
          <polygon points="49.976 33.491 49.106 33.285 49.976 33.079 49.976 33.491 49.976 33.491" fill="#0c0d0b"/>
          <polygon points="49.976 34.611 50.847 34.405 49.976 34.199 49.976 34.611 49.976 34.611" fill="#0c0d0b"/>
        </g>
        <g>
          <polygon points="49.976 30.058 49.106 29.852 49.976 29.646 49.976 30.058 49.976 30.058" fill="#0c0d0b"/>
          <polygon points="49.976 31.178 50.847 30.972 49.976 30.766 49.976 31.178 49.976 31.178" fill="#0c0d0b"/>
        </g>
        <g>
          <polygon points="49.976 26.63 49.106 26.423 49.976 26.217 49.976 26.63 49.976 26.63" fill="#0c0d0b"/>
          <polygon points="49.976 27.749 50.847 27.543 49.976 27.337 49.976 27.749 49.976 27.749" fill="#0c0d0b"/>
        </g>
        <g>
          <polygon points="49.976 23.28 49.106 23.074 49.976 22.868 49.976 23.28 49.976 23.28" fill="#0c0d0b"/>
          <polygon points="49.976 24.4 50.847 24.193 49.976 23.987 49.976 24.4 49.976 24.4" fill="#0c0d0b"/>
        </g>
        <g>
          <polygon points="49.976 19.842 49.106 19.636 49.976 19.43 49.976 19.842 49.976 19.842" fill="#0c0d0b"/>
          <polygon points="49.976 20.962 50.847 20.756 49.976 20.55 49.976 20.962 49.976 20.962" fill="#0c0d0b"/>
        </g>
        <g>
          <polygon points="49.976 16.432 49.106 16.226 49.976 16.02 49.976 16.432 49.976 16.432" fill="#0c0d0b"/>
          <polygon points="49.976 17.552 50.847 17.346 49.976 17.14 49.976 17.552 49.976 17.552" fill="#0c0d0b"/>
        </g>
        <g>
          <polygon points="49.976 13.017 49.106 12.81 49.976 12.604 49.976 13.017 49.976 13.017" fill="#0c0d0b"/>
          <polygon points="49.976 14.136 50.847 13.93 49.976 13.724 49.976 14.136 49.976 14.136" fill="#0c0d0b"/>
        </g>
        <g>
          <polygon points="49.976 9.6 49.106 9.394 49.976 9.188 49.976 9.6 49.976 9.6" fill="#0c0d0b"/>
          <polygon points="49.976 10.72 50.847 10.514 49.976 10.307 49.976 10.72 49.976 10.72" fill="#0c0d0b"/>
        </g>
        <g>
          <polygon points="49.976 6.223 49.106 6.016 49.976 5.81 49.976 6.223 49.976 6.223" fill="#0c0d0b"/>
          <polygon points="49.976 7.342 50.847 7.136 49.976 6.93 49.976 7.342 49.976 7.342" fill="#0c0d0b"/>
        </g>
      </g>
      <g>
        <polyline points="26.534 6.576 26.534 24.771 37.017 24.771 37.017 43.201 62.746 43.201 62.746 24.888 73.419 24.888 73.419 6.576" fill="none" stroke="#0c0d0b" stroke-miterlimit="10" stroke-width=".264"/>
        <g>
          <polygon points="26.539 8.836 25.672 8.619 26.544 8.424 26.539 8.836 26.539 8.836" fill="#0c0d0b"/>
          <polygon points="26.524 9.956 27.397 9.761 26.53 9.544 26.524 9.956 26.524 9.956" fill="#0c0d0b"/>
        </g>
        <g>
          <polygon points="26.539 13.199 25.672 12.981 26.544 12.786 26.539 13.199 26.539 13.199" fill="#0c0d0b"/>
          <polygon points="26.524 14.318 27.397 14.123 26.53 13.906 26.524 14.318 26.524 14.318" fill="#0c0d0b"/>
        </g>
        <g>
          <polygon points="26.539 17.56 25.672 17.343 26.544 17.148 26.539 17.56 26.539 17.56" fill="#0c0d0b"/>
          <polygon points="26.524 18.68 27.397 18.485 26.53 18.268 26.524 18.68 26.524 18.68" fill="#0c0d0b"/>
        </g>
        <g>
          <polygon points="26.539 21.93 25.672 21.713 26.544 21.518 26.539 21.93 26.539 21.93" fill="#0c0d0b"/>
          <polygon points="26.524 23.05 27.397 22.855 26.53 22.637 26.524 23.05 26.524 23.05" fill="#0c0d0b"/>
        </g>
        <g>
          <polygon points="28.025 24.767 27.808 25.634 27.613 24.761 28.025 24.767 28.025 24.767" fill="#0c0d0b"/>
          <polygon points="29.145 24.781 28.95 23.908 28.733 24.776 29.145 24.781 29.145 24.781" fill="#0c0d0b"/>
        </g>
        <g>
          <polygon points="32.364 24.767 32.146 25.634 31.951 24.761 32.364 24.767 32.364 24.767" fill="#0c0d0b"/>
          <polygon points="33.483 24.781 33.289 23.908 33.071 24.776 33.483 24.781 33.483 24.781" fill="#0c0d0b"/>
        </g>
        <g>
          <polygon points="37.021 24.432 36.154 24.214 37.027 24.02 37.021 24.432 37.021 24.432" fill="#0c0d0b"/>
          <polygon points="37.007 25.551 37.879 25.357 37.012 25.139 37.007 25.551 37.007 25.551" fill="#0c0d0b"/>
        </g>
        <g>
          <polygon points="37.021 28.822 36.154 28.605 37.027 28.41 37.021 28.822 37.021 28.822" fill="#0c0d0b"/>
          <polygon points="37.007 29.942 37.879 29.747 37.012 29.53 37.007 29.942 37.007 29.942" fill="#0c0d0b"/>
        </g>
        <g>
          <polygon points="37.021 33.207 36.154 32.989 37.027 32.795 37.021 33.207 37.021 33.207" fill="#0c0d0b"/>
          <polygon points="37.007 34.326 37.879 34.132 37.012 33.914 37.007 34.326 37.007 34.326" fill="#0c0d0b"/>
        </g>
        <g>
          <polygon points="37.021 37.551 36.154 37.333 37.027 37.138 37.021 37.551 37.021 37.551" fill="#0c0d0b"/>
          <polygon points="37.007 38.67 37.879 38.475 37.012 38.258 37.007 38.67 37.007 38.67" fill="#0c0d0b"/>
        </g>
        <g>
          <polygon points="37.021 41.923 36.154 41.706 37.027 41.511 37.021 41.923 37.021 41.923" fill="#0c0d0b"/>
          <polygon points="37.007 43.043 37.879 42.848 37.012 42.631 37.007 43.043 37.007 43.043" fill="#0c0d0b"/>
        </g>
        <g>
          <polygon points="40.012 43.196 39.795 44.063 39.6 43.191 40.012 43.196 40.012 43.196" fill="#0c0d0b"/>
          <polygon points="41.132 43.21 40.937 42.338 40.72 43.205 41.132 43.21 41.132 43.21" fill="#0c0d0b"/>
        </g>
        <g>
          <polygon points="44.391 43.196 44.173 44.063 43.979 43.191 44.391 43.196 44.391 43.196" fill="#0c0d0b"/>
          <polygon points="45.51 43.21 45.316 42.338 45.098 43.205 45.51 43.21 45.51 43.21" fill="#0c0d0b"/>
        </g>
        <g>
          <polygon points="48.796 43.196 48.579 44.063 48.384 43.191 48.796 43.196 48.796 43.196" fill="#0c0d0b"/>
          <polygon points="49.916 43.21 49.721 42.338 49.503 43.205 49.916 43.21 49.916 43.21" fill="#0c0d0b"/>
        </g>
        <g>
          <polygon points="53.123 43.196 52.905 44.063 52.711 43.191 53.123 43.196 53.123 43.196" fill="#0c0d0b"/>
          <polygon points="54.242 43.21 54.048 42.338 53.83 43.205 54.242 43.21 54.242 43.21" fill="#0c0d0b"/>
        </g>
        <g>
          <polygon points="57.458 43.196 57.24 44.063 57.045 43.191 57.458 43.196 57.458 43.196" fill="#0c0d0b"/>
          <polygon points="58.577 43.21 58.382 42.338 58.165 43.205 58.577 43.21 58.577 43.21" fill="#0c0d0b"/>
        </g>
        <g>
          <polygon points="61.859 43.196 61.641 44.063 61.446 43.191 61.859 43.196 61.859 43.196" fill="#0c0d0b"/>
          <polygon points="62.978 43.21 62.783 42.338 62.566 43.205 62.978 43.21 62.978 43.21" fill="#0c0d0b"/>
        </g>
        <g>
          <polygon points="62.741 39.781 63.609 39.998 62.736 40.193 62.741 39.781 62.741 39.781" fill="#0c0d0b"/>
          <polygon points="62.756 38.661 61.883 38.856 62.75 39.074 62.756 38.661 62.756 38.661" fill="#0c0d0b"/>
        </g>
        <g>
          <polygon points="62.741 35.394 63.609 35.611 62.736 35.806 62.741 35.394 62.741 35.394" fill="#0c0d0b"/>
          <polygon points="62.756 34.274 61.883 34.469 62.75 34.686 62.756 34.274 62.756 34.274" fill="#0c0d0b"/>
        </g>
        <g>
          <polygon points="62.741 31.062 63.609 31.279 62.736 31.474 62.741 31.062 62.741 31.062" fill="#0c0d0b"/>
          <polygon points="62.756 29.942 61.883 30.137 62.75 30.354 62.756 29.942 62.756 29.942" fill="#0c0d0b"/>
        </g>
        <g>
          <polygon points="62.741 26.684 63.609 26.901 62.736 27.096 62.741 26.684 62.741 26.684" fill="#0c0d0b"/>
          <polygon points="62.756 25.564 61.883 25.759 62.75 25.976 62.756 25.564 62.756 25.564" fill="#0c0d0b"/>
        </g>
        <g>
          <polygon points="65.257 24.884 65.039 25.751 64.845 24.878 65.257 24.884 65.257 24.884" fill="#0c0d0b"/>
          <polygon points="66.377 24.898 66.182 24.026 65.964 24.893 66.377 24.898 66.377 24.898" fill="#0c0d0b"/>
        </g>
        <g>
          <polygon points="69.623 24.884 69.406 25.751 69.211 24.878 69.623 24.884 69.623 24.884" fill="#0c0d0b"/>
          <polygon points="70.743 24.898 70.548 24.026 70.331 24.893 70.743 24.898 70.743 24.898" fill="#0c0d0b"/>
        </g>
        <g>
          <polygon points="73.414 24.376 74.281 24.593 73.409 24.788 73.414 24.376 73.414 24.376" fill="#0c0d0b"/>
          <polygon points="73.428 23.256 72.556 23.451 73.423 23.668 73.428 23.256 73.428 23.256" fill="#0c0d0b"/>
        </g>
        <g>
          <polygon points="73.414 20 74.281 20.217 73.409 20.412 73.414 20 73.414 20" fill="#0c0d0b"/>
          <polygon points="73.428 18.88 72.556 19.075 73.423 19.292 73.428 18.88 73.428 18.88" fill="#0c0d0b"/>
        </g>
        <g>
          <polygon points="73.414 15.656 74.281 15.873 73.409 16.068 73.414 15.656 73.414 15.656" fill="#0c0d0b"/>
          <polygon points="73.428 14.536 72.556 14.731 73.423 14.949 73.428 14.536 73.428 14.536" fill="#0c0d0b"/>
        </g>
        <g>
          <polygon points="73.414 11.272 74.281 11.489 73.409 11.684 73.414 11.272 73.414 11.272" fill="#0c0d0b"/>
          <polygon points="73.428 10.152 72.556 10.347 73.423 10.564 73.428 10.152 73.428 10.152" fill="#0c0d0b"/>
        </g>
        <g>
          <polygon points="73.414 6.93 74.281 7.147 73.409 7.342 73.414 6.93 73.414 6.93" fill="#0c0d0b"/>
          <polygon points="73.428 5.81 72.556 6.005 73.423 6.223 73.428 5.81 73.428 5.81" fill="#0c0d0b"/>
        </g>
      </g>
      <g>
        <polyline points="27.969 52.91 27.969 59.572 50.048 81.196 71.984 59.26 71.984 52.91" fill="none" stroke="#0c0d0b" stroke-miterlimit="10" stroke-width=".315"/>
        <g>
          <polygon points="27.95 53.264 28.808 53.515 27.928 53.675 27.95 53.264 27.95 53.264" fill="#0c0d0b"/>
          <polygon points="28.009 52.146 27.129 52.306 27.987 52.557 28.009 52.146 28.009 52.146" fill="#0c0d0b"/>
        </g>
        <g>
          <polygon points="27.95 55.18 28.808 55.432 27.928 55.592 27.95 55.18 27.95 55.18" fill="#0c0d0b"/>
          <polygon points="28.009 54.062 27.129 54.222 27.987 54.474 28.009 54.062 28.009 54.062" fill="#0c0d0b"/>
        </g>
        <g>
          <polygon points="27.95 57.097 28.808 57.348 27.928 57.509 27.95 57.097 27.95 57.097" fill="#0c0d0b"/>
          <polygon points="28.009 55.979 27.129 56.139 27.987 56.391 28.009 55.979 28.009 55.979" fill="#0c0d0b"/>
        </g>
        <g>
          <polygon points="27.95 59.038 28.808 59.29 27.928 59.45 27.95 59.038 27.95 59.038" fill="#0c0d0b"/>
          <polygon points="28.009 57.92 27.129 58.08 27.987 58.332 28.009 57.92 28.009 57.92" fill="#0c0d0b"/>
        </g>
        <g>
          <polygon points="28.921 60.531 29.701 60.094 29.2 60.835 28.921 60.531 28.921 60.531" fill="#0c0d0b"/>
          <polygon points="28.163 59.707 27.662 60.447 28.442 60.01 28.163 59.707 28.163 59.707" fill="#0c0d0b"/>
        </g>
        <g>
          <polygon points="30.288 61.87 31.068 61.432 30.567 62.173 30.288 61.87 30.288 61.87" fill="#0c0d0b"/>
          <polygon points="29.53 61.045 29.029 61.786 29.809 61.349 29.53 61.045 29.53 61.045" fill="#0c0d0b"/>
        </g>
        <g>
          <polygon points="31.682 63.235 32.462 62.798 31.961 63.538 31.682 63.235 31.682 63.235" fill="#0c0d0b"/>
          <polygon points="30.924 62.41 30.423 63.151 31.203 62.714 30.924 62.41 30.924 62.41" fill="#0c0d0b"/>
        </g>
        <g>
          <polygon points="33.052 64.577 33.832 64.139 33.331 64.88 33.052 64.577 33.052 64.577" fill="#0c0d0b"/>
          <polygon points="32.294 63.752 31.793 64.493 32.573 64.056 32.294 63.752 32.294 63.752" fill="#0c0d0b"/>
        </g>
        <g>
          <polygon points="34.414 65.911 35.194 65.474 34.693 66.214 34.414 65.911 34.414 65.911" fill="#0c0d0b"/>
          <polygon points="33.656 65.087 33.155 65.827 33.935 65.39 33.656 65.087 33.656 65.087" fill="#0c0d0b"/>
        </g>
        <g>
          <polygon points="35.793 67.261 36.573 66.824 36.072 67.565 35.793 67.261 35.793 67.261" fill="#0c0d0b"/>
          <polygon points="35.035 66.437 34.534 67.178 35.314 66.741 35.035 66.437 35.035 66.437" fill="#0c0d0b"/>
        </g>
        <g>
          <polygon points="37.196 68.635 37.976 68.198 37.475 68.939 37.196 68.635 37.196 68.635" fill="#0c0d0b"/>
          <polygon points="36.438 67.811 35.937 68.552 36.717 68.114 36.438 67.811 36.438 67.811" fill="#0c0d0b"/>
        </g>
        <g>
          <polygon points="38.58 69.991 39.36 69.554 38.859 70.295 38.58 69.991 38.58 69.991" fill="#0c0d0b"/>
          <polygon points="37.823 69.167 37.321 69.908 38.102 69.47 37.823 69.167 37.823 69.167" fill="#0c0d0b"/>
        </g>
        <g>
          <polygon points="39.891 71.275 40.672 70.838 40.17 71.579 39.891 71.275 39.891 71.275" fill="#0c0d0b"/>
          <polygon points="39.134 70.451 38.632 71.192 39.413 70.754 39.134 70.451 39.134 70.451" fill="#0c0d0b"/>
        </g>
        <g>
          <polygon points="41.274 72.629 42.054 72.192 41.553 72.933 41.274 72.629 41.274 72.629" fill="#0c0d0b"/>
          <polygon points="40.516 71.805 40.015 72.546 40.795 72.109 40.516 71.805 40.516 71.805" fill="#0c0d0b"/>
        </g>
        <g>
          <polygon points="42.678 74.004 43.458 73.567 42.957 74.308 42.678 74.004 42.678 74.004" fill="#0c0d0b"/>
          <polygon points="41.92 73.18 41.419 73.921 42.199 73.483 41.92 73.18 41.92 73.18" fill="#0c0d0b"/>
        </g>
        <g>
          <polygon points="44.057 75.355 44.837 74.918 44.336 75.658 44.057 75.355 44.057 75.355" fill="#0c0d0b"/>
          <polygon points="43.299 74.531 42.798 75.271 43.578 74.834 43.299 74.531 43.299 74.531" fill="#0c0d0b"/>
        </g>
        <g>
          <polygon points="45.42 76.69 46.2 76.252 45.699 76.993 45.42 76.69 45.42 76.69" fill="#0c0d0b"/>
          <polygon points="44.662 75.865 44.161 76.606 44.941 76.169 44.662 75.865 44.662 75.865" fill="#0c0d0b"/>
        </g>
        <g>
          <polygon points="46.789 78.03 47.569 77.593 47.068 78.334 46.789 78.03 46.789 78.03" fill="#0c0d0b"/>
          <polygon points="46.031 77.206 45.53 77.947 46.31 77.509 46.031 77.206 46.031 77.206" fill="#0c0d0b"/>
        </g>
        <g>
          <polygon points="48.182 79.395 48.962 78.958 48.461 79.698 48.182 79.395 48.182 79.395" fill="#0c0d0b"/>
          <polygon points="47.424 78.571 46.923 79.311 47.703 78.874 47.424 78.571 47.424 78.571" fill="#0c0d0b"/>
        </g>
        <g>
          <polygon points="49.549 80.733 50.329 80.296 49.828 81.037 49.549 80.733 49.549 80.733" fill="#0c0d0b"/>
          <polygon points="48.791 79.909 48.29 80.65 49.07 80.213 48.791 79.909 48.791 79.909" fill="#0c0d0b"/>
        </g>
        <g>
          <polygon points="50.896 80.375 50.467 79.59 51.202 80.099 50.896 80.375 50.896 80.375" fill="#0c0d0b"/>
          <polygon points="50.064 81.124 50.799 81.632 50.37 80.848 50.064 81.124 50.064 81.124" fill="#0c0d0b"/>
        </g>
        <g>
          <polygon points="52.249 79.021 51.82 78.237 52.555 78.746 52.249 79.021 52.249 79.021" fill="#0c0d0b"/>
          <polygon points="51.417 79.771 52.152 80.279 51.723 79.495 51.417 79.771 51.417 79.771" fill="#0c0d0b"/>
        </g>
        <g>
          <polygon points="53.63 77.641 53.201 76.856 53.936 77.365 53.63 77.641 53.63 77.641" fill="#0c0d0b"/>
          <polygon points="52.797 78.39 53.533 78.899 53.104 78.114 52.797 78.39 52.797 78.39" fill="#0c0d0b"/>
        </g>
        <g>
          <polygon points="55.032 76.238 54.603 75.454 55.338 75.962 55.032 76.238 55.032 76.238" fill="#0c0d0b"/>
          <polygon points="54.2 76.988 54.935 77.496 54.506 76.712 54.2 76.988 54.2 76.988" fill="#0c0d0b"/>
        </g>
        <g>
          <polygon points="56.34 74.931 55.911 74.146 56.646 74.655 56.34 74.931 56.34 74.931" fill="#0c0d0b"/>
          <polygon points="55.507 75.68 56.243 76.189 55.814 75.404 55.507 75.68 55.507 75.68" fill="#0c0d0b"/>
        </g>
        <g>
          <polygon points="57.704 73.567 57.274 72.782 58.01 73.291 57.704 73.567 57.704 73.567" fill="#0c0d0b"/>
          <polygon points="56.871 74.316 57.607 74.825 57.178 74.04 56.871 74.316 56.871 74.316" fill="#0c0d0b"/>
        </g>
        <g>
          <polygon points="59.086 72.184 58.657 71.4 59.392 71.908 59.086 72.184 59.086 72.184" fill="#0c0d0b"/>
          <polygon points="58.254 72.933 58.989 73.442 58.56 72.657 58.254 72.933 58.254 72.933" fill="#0c0d0b"/>
        </g>
        <g>
          <polygon points="60.467 70.803 60.038 70.019 60.773 70.528 60.467 70.803 60.467 70.803" fill="#0c0d0b"/>
          <polygon points="59.635 71.553 60.37 72.061 59.941 71.277 59.635 71.553 59.635 71.553" fill="#0c0d0b"/>
        </g>
        <g>
          <polygon points="61.766 69.504 61.337 68.72 62.072 69.229 61.766 69.504 61.766 69.504" fill="#0c0d0b"/>
          <polygon points="60.934 70.254 61.669 70.762 61.24 69.978 60.934 70.254 60.934 70.254" fill="#0c0d0b"/>
        </g>
        <g>
          <polygon points="63.123 68.147 62.694 67.362 63.429 67.871 63.123 68.147 63.123 68.147" fill="#0c0d0b"/>
          <polygon points="62.291 68.896 63.026 69.405 62.597 68.62 62.291 68.896 62.291 68.896" fill="#0c0d0b"/>
        </g>
        <g>
          <polygon points="64.518 66.752 64.089 65.968 64.824 66.477 64.518 66.752 64.518 66.752" fill="#0c0d0b"/>
          <polygon points="63.686 67.502 64.421 68.01 63.992 67.226 63.686 67.502 63.686 67.502" fill="#0c0d0b"/>
        </g>
        <g>
          <polygon points="65.883 65.387 65.454 64.602 66.19 65.111 65.883 65.387 65.883 65.387" fill="#0c0d0b"/>
          <polygon points="65.051 66.136 65.787 66.645 65.358 65.86 65.051 66.136 65.051 66.136" fill="#0c0d0b"/>
        </g>
        <g>
          <polygon points="67.236 64.035 66.807 63.25 67.542 63.759 67.236 64.035 67.236 64.035" fill="#0c0d0b"/>
          <polygon points="66.403 64.784 67.139 65.293 66.71 64.508 66.403 64.784 66.403 64.784" fill="#0c0d0b"/>
        </g>
        <g>
          <polygon points="68.582 62.689 68.153 61.904 68.888 62.413 68.582 62.689 68.582 62.689" fill="#0c0d0b"/>
          <polygon points="67.749 63.438 68.485 63.947 68.056 63.162 67.749 63.438 67.749 63.438" fill="#0c0d0b"/>
        </g>
        <g>
          <polygon points="69.959 61.312 69.53 60.527 70.265 61.036 69.959 61.312 69.959 61.312" fill="#0c0d0b"/>
          <polygon points="69.126 62.061 69.862 62.57 69.433 61.785 69.126 62.061 69.126 62.061" fill="#0c0d0b"/>
        </g>
        <g>
          <polygon points="71.326 59.945 70.897 59.16 71.632 59.669 71.326 59.945 71.326 59.945" fill="#0c0d0b"/>
          <polygon points="70.494 60.694 71.229 61.202 70.8 60.418 70.494 60.694 70.494 60.694" fill="#0c0d0b"/>
        </g>
        <g>
          <polygon points="72.003 58.364 71.145 58.112 72.025 57.952 72.003 58.364 72.003 58.364" fill="#0c0d0b"/>
          <polygon points="71.944 59.482 72.824 59.321 71.966 59.07 71.944 59.482 71.944 59.482" fill="#0c0d0b"/>
        </g>
        <g>
          <polygon points="72.003 56.398 71.145 56.147 72.025 55.987 72.003 56.398 72.003 56.398" fill="#0c0d0b"/>
          <polygon points="71.944 57.516 72.824 57.356 71.966 57.105 71.944 57.516 71.944 57.516" fill="#0c0d0b"/>
        </g>
        <g>
          <polygon points="72.003 54.474 71.145 54.223 72.025 54.063 72.003 54.474 72.003 54.474" fill="#0c0d0b"/>
          <polygon points="71.944 55.592 72.824 55.432 71.966 55.181 71.944 55.592 71.944 55.592" fill="#0c0d0b"/>
        </g>
        <g>
          <polygon points="72.003 52.557 71.145 52.306 72.025 52.146 72.003 52.557 72.003 52.557" fill="#0c0d0b"/>
          <polygon points="71.944 53.675 72.824 53.515 71.966 53.264 71.944 53.675 71.944 53.675" fill="#0c0d0b"/>
        </g>
      </g>
    </g>
  </g>
  <g id="Hojas">
    <g>
      <path d="M54.004,21.576c.227,0,.411-.184.411-.411s-.184-.411-.411-.411-.411.184-.411.411.184.411.411.411Z"/>
      <path d="M56.196,20.096c.227,0,.411-.184.411-.411s-.184-.411-.411-.411-.411.184-.411.411.184.411.411.411Z"/>
      <circle cx="56.333" cy="21.987" r=".411"/>
      <path d="M53.894,23.878c.227,0,.411-.184.411-.411s-.184-.411-.411-.411-.411.184-.411.411.184.411.411.411Z"/>
      <path d="M59.073,21.576c-.049,0-.093.022-.123.056l-2.234-.638.6-.503c.06.056.153.06.218.006.07-.058.079-.162.021-.232-.058-.07-.162-.079-.232-.021-.054.045-.072.118-.05.18l-1.787,1.499c.007-.026.015-.051.022-.077.102-.374.166-.736.198-1.105.062-.717-.02-1.312-.086-1.79-.03-.22-.057-.417-.067-.598.012-.006.024-.013.034-.022.07-.058.079-.162.021-.232-.058-.07-.162-.079-.232-.021s-.079.162-.021.232c.031.037.075.057.12.059.011.18.038.375.067.592.065.474.146,1.065.085,1.773-.031.365-.095.722-.196,1.092-.011.04-.022.08-.034.12l-1.199-1.725.363-1.468s.01,0,.015,0c.227,0,.411-.184.411-.411s-.184-.411-.411-.411-.411.184-.411.411c0,.195.136.358.319.4l-.345,1.393-.401-.577c.045-.066.071-.145.071-.231,0-.227-.184-.411-.411-.411s-.411.184-.411.411.184.411.411.411c.113,0,.215-.045.289-.119l.427.615h0s.001.002.001.002l1.253,1.803c-.104.34-.239.689-.403,1.039-.426.912-1.351,1.463-2.248,1.793v-2.342c.026-.005.051-.017.073-.035.07-.058.079-.162.021-.232-.058-.07-.162-.079-.232-.021s-.079.162-.021.232c.022.026.051.044.081.053v2.373c-.247.088-.491.159-.721.217-.585.147-1.141.225-1.554.265-.024-.235-.22-.419-.462-.419s-.438.184-.462.419c-.413-.041-.969-.118-1.554-.265-.229-.058-.473-.129-.721-.217v-2.373c.031-.009.059-.026.081-.053.058-.07.049-.173-.021-.232s-.173-.049-.232.021c-.058.07-.049.173.021.232.022.018.047.03.073.035v2.342c-.896-.33-1.822-.881-2.248-1.793-.164-.351-.298-.699-.403-1.039l1.253-1.803h.001s0-.002,0-.002l.427-.615c.074.073.176.119.289.119.227,0,.411-.184.411-.411s-.184-.411-.411-.411-.411.184-.411.411c0,.085.026.165.071.231l-.401.577-.345-1.393c.182-.042.319-.205.319-.4,0-.227-.184-.411-.411-.411s-.411.184-.411.411.184.411.411.411c.005,0,.01,0,.015,0l.363,1.468-1.199,1.725c-.012-.04-.023-.08-.034-.12-.1-.37-.164-.727-.196-1.092-.061-.708.02-1.298.085-1.773.03-.217.056-.412.067-.592.045-.002.089-.021.12-.059.058-.07.049-.173-.021-.232s-.173-.049-.232.021c-.058.07-.049.173.021.232.011.009.022.016.034.022-.01.18-.037.377-.067.598-.066.478-.147,1.073-.086,1.79.032.369.097.731.198,1.105.007.025.015.051.022.077l-1.787-1.499c.022-.063.004-.135-.05-.18-.07-.058-.173-.049-.232.021-.058.07-.049.173.021.232.065.054.158.05.218-.006l.6.503-2.234.638c-.03-.034-.074-.056-.123-.056-.091,0-.164.074-.164.164s.074.164.164.164.164-.074.164-.164c0-.013-.002-.026-.005-.039l2.269-.648,1.197,1.004c.106.346.242.7.409,1.055.569,1.219,1.999,1.805,3.099,2.081.592.149,1.154.227,1.57.267.016.243.216.436.464.436s.448-.193.464-.436c.416-.041.978-.118,1.57-.267,1.1-.277,2.53-.862,3.099-2.081.166-.356.303-.71.409-1.055l1.197-1.004,2.269.648c-.003.012-.005.025-.005.039,0,.091.074.164.164.164s.164-.074.164-.164-.074-.164-.164-.164Z"/>
      <path d="M46.221,21.165c0-.227-.184-.411-.411-.411s-.411.184-.411.411.184.411.411.411.411-.184.411-.411Z"/>
      <path d="M43.618,20.096c.227,0,.411-.184.411-.411s-.184-.411-.411-.411-.411.184-.411.411.184.411.411.411Z"/>
      <circle cx="43.481" cy="21.987" r=".411"/>
      <path d="M45.919,23.878c.227,0,.411-.184.411-.411s-.184-.411-.411-.411-.411.184-.411.411.184.411.411.411Z"/>
    </g>
    <g>
      <path d="M77.517,17.843c.227,0,.411-.184.411-.411s-.184-.411-.411-.411-.411.184-.411.411.184.411.411.411Z"/>
      <path d="M79.709,16.364c.227,0,.411-.184.411-.411s-.184-.411-.411-.411-.411.184-.411.411.184.411.411.411Z"/>
      <circle cx="79.846" cy="18.254" r=".411"/>
      <path d="M77.407,20.145c.227,0,.411-.184.411-.411s-.184-.411-.411-.411-.411.184-.411.411.184.411.411.411Z"/>
      <path d="M82.587,17.843c-.049,0-.093.022-.123.056l-2.234-.638.6-.503c.06.056.153.06.218.006.07-.058.079-.162.021-.232-.058-.07-.162-.079-.232-.021-.054.045-.072.118-.05.18l-1.787,1.499c.007-.026.015-.051.022-.077.102-.374.166-.736.198-1.105.062-.717-.02-1.312-.086-1.79-.03-.22-.057-.417-.067-.598.012-.006.024-.013.034-.022.07-.058.079-.162.021-.232-.058-.07-.162-.079-.232-.021s-.079.162-.021.232c.031.037.075.057.12.059.011.18.038.375.067.592.065.474.146,1.065.085,1.773-.031.365-.095.722-.196,1.092-.011.04-.022.08-.034.12l-1.199-1.725.363-1.468s.01,0,.015,0c.227,0,.411-.184.411-.411s-.184-.411-.411-.411-.411.184-.411.411c0,.195.136.358.319.4l-.345,1.393-.401-.577c.045-.066.071-.145.071-.231,0-.227-.184-.411-.411-.411s-.411.184-.411.411.184.411.411.411c.113,0,.215-.045.289-.119l.427.615h0s.001.002.001.002l1.253,1.803c-.104.34-.239.689-.403,1.039-.426.912-1.351,1.463-2.248,1.793v-2.342c.026-.005.051-.017.073-.035.07-.058.079-.162.021-.232-.058-.07-.162-.079-.232-.021s-.079.162-.021.232c.022.026.051.044.081.053v2.373c-.247.088-.491.159-.721.217-.585.147-1.141.225-1.554.265-.024-.235-.22-.419-.462-.419s-.438.184-.462.419c-.413-.041-.969-.118-1.554-.265-.229-.058-.473-.129-.721-.217v-2.373c.031-.009.059-.026.081-.053.058-.07.049-.173-.021-.232s-.173-.049-.232.021c-.058.07-.049.173.021.232.022.018.047.03.073.035v2.342c-.896-.33-1.822-.881-2.248-1.793-.164-.351-.298-.699-.403-1.039l1.253-1.803h.001s0-.002,0-.002l.427-.615c.074.073.176.119.289.119.227,0,.411-.184.411-.411s-.184-.411-.411-.411-.411.184-.411.411c0,.085.026.165.071.231l-.401.577-.345-1.393c.182-.042.319-.205.319-.4,0-.227-.184-.411-.411-.411s-.411.184-.411.411.184.411.411.411c.005,0,.01,0,.015,0l.363,1.468-1.199,1.725c-.012-.04-.023-.08-.034-.12-.1-.37-.164-.727-.196-1.092-.061-.708.02-1.298.085-1.773.03-.217.056-.412.067-.592.045-.002.089-.021.12-.059.058-.07.049-.173-.021-.232s-.173-.049-.232.021c-.058.07-.049.173.021.232.011.009.022.016.034.022-.01.18-.037.377-.067.598-.066.478-.147,1.073-.086,1.79.032.369.097.731.198,1.105.007.025.015.051.022.077l-1.787-1.499c.022-.063.004-.135-.05-.18-.07-.058-.173-.049-.232.021-.058.07-.049.173.021.232.065.054.158.05.218-.006l.6.503-2.234.638c-.03-.034-.074-.056-.123-.056-.091,0-.164.074-.164.164s.074.164.164.164.164-.074.164-.164c0-.013-.002-.026-.005-.039l2.269-.648,1.197,1.004c.106.346.242.7.409,1.055.569,1.219,1.999,1.805,3.099,2.081.592.149,1.154.227,1.57.267.016.243.216.436.464.436s.448-.193.464-.436c.416-.041.978-.118,1.57-.267,1.1-.277,2.53-.862,3.099-2.081.166-.356.303-.71.409-1.055l1.197-1.004,2.269.648c-.003.012-.005.025-.005.039,0,.091.074.164.164.164s.164-.074.164-.164-.074-.164-.164-.164Z"/>
      <path d="M69.734,17.432c0-.227-.184-.411-.411-.411s-.411.184-.411.411.184.411.411.411.411-.184.411-.411Z"/>
      <path d="M67.131,16.364c.227,0,.411-.184.411-.411s-.184-.411-.411-.411-.411.184-.411.411.184.411.411.411Z"/>
      <circle cx="66.994" cy="18.254" r=".411"/>
      <path d="M69.433,20.145c.227,0,.411-.184.411-.411s-.184-.411-.411-.411-.411.184-.411.411.184.411.411.411Z"/>
    </g>
    <g>
      <path d="M30.677,17.843c.227,0,.411-.184.411-.411s-.184-.411-.411-.411-.411.184-.411.411.184.411.411.411Z"/>
      <path d="M32.869,16.364c.227,0,.411-.184.411-.411s-.184-.411-.411-.411-.411.184-.411.411.184.411.411.411Z"/>
      <circle cx="33.006" cy="18.254" r=".411"/>
      <path d="M30.567,20.145c.227,0,.411-.184.411-.411s-.184-.411-.411-.411-.411.184-.411.411.184.411.411.411Z"/>
      <path d="M35.746,17.843c-.049,0-.093.022-.123.056l-2.234-.638.6-.503c.06.056.153.06.218.006.07-.058.079-.162.021-.232-.058-.07-.162-.079-.232-.021-.054.045-.072.118-.05.18l-1.787,1.499c.007-.026.015-.051.022-.077.102-.374.166-.736.198-1.105.062-.717-.02-1.312-.086-1.79-.03-.22-.057-.417-.067-.598.012-.006.024-.013.034-.022.07-.058.079-.162.021-.232-.058-.07-.162-.079-.232-.021s-.079.162-.021.232c.031.037.075.057.12.059.011.18.038.375.067.592.065.474.146,1.065.085,1.773-.031.365-.095.722-.196,1.092-.011.04-.022.08-.034.12l-1.199-1.725.363-1.468s.01,0,.015,0c.227,0,.411-.184.411-.411s-.184-.411-.411-.411-.411.184-.411.411c0,.195.136.358.319.4l-.345,1.393-.401-.577c.045-.066.071-.145.071-.231,0-.227-.184-.411-.411-.411s-.411.184-.411.411.184.411.411.411c.113,0,.215-.045.289-.119l.427.615h0s.001.002.001.002l1.253,1.803c-.104.34-.239.689-.403,1.039-.426.912-1.351,1.463-2.248,1.793v-2.342c.026-.005.051-.017.073-.035.07-.058.079-.162.021-.232-.058-.07-.162-.079-.232-.021s-.079.162-.021.232c.022.026.051.044.081.053v2.373c-.247.088-.491.159-.721.217-.585.147-1.141.225-1.554.265-.024-.235-.22-.419-.462-.419s-.438.184-.462.419c-.413-.041-.969-.118-1.554-.265-.229-.058-.473-.129-.721-.217v-2.373c.031-.009.059-.026.081-.053.058-.07.049-.173-.021-.232s-.173-.049-.232.021c-.058.07-.049.173.021.232.022.018.047.03.073.035v2.342c-.896-.33-1.822-.881-2.248-1.793-.164-.351-.298-.699-.403-1.039l1.253-1.803h.001s0-.002,0-.002l.427-.615c.074.073.176.119.289.119.227,0,.411-.184.411-.411s-.184-.411-.411-.411-.411.184-.411.411c0,.085.026.165.071.231l-.401.577-.345-1.393c.182-.042.319-.205.319-.4,0-.227-.184-.411-.411-.411s-.411.184-.411.411.184.411.411.411c.005,0,.01,0,.015,0l.363,1.468-1.199,1.725c-.012-.04-.023-.08-.034-.12-.1-.37-.164-.727-.196-1.092-.061-.708.02-1.298.085-1.773.03-.217.056-.412.067-.592.045-.002.089-.021.12-.059.058-.07.049-.173-.021-.232s-.173-.049-.232.021c-.058.07-.049.173.021.232.011.009.022.016.034.022-.01.18-.037.377-.067.598-.066.478-.147,1.073-.086,1.79.032.369.097.731.198,1.105.007.025.015.051.022.077l-1.787-1.499c.022-.063.004-.135-.05-.18-.07-.058-.173-.049-.232.021-.058.07-.049.173.021.232.065.054.158.05.218-.006l.6.503-2.234.638c-.03-.034-.074-.056-.123-.056-.091,0-.164.074-.164.164s.074.164.164.164.164-.074.164-.164c0-.013-.002-.026-.005-.039l2.269-.648,1.197,1.004c.106.346.242.7.409,1.055.569,1.219,1.999,1.805,3.099,2.081.592.149,1.154.227,1.57.267.016.243.216.436.464.436s.448-.193.464-.436c.416-.041.978-.118,1.57-.267,1.1-.277,2.53-.862,3.099-2.081.166-.356.303-.71.409-1.055l1.197-1.004,2.269.648c-.003.012-.005.025-.005.039,0,.091.074.164.164.164s.164-.074.164-.164-.074-.164-.164-.164Z"/>
      <path d="M22.894,17.432c0-.227-.184-.411-.411-.411s-.411.184-.411.411.184.411.411.411.411-.184.411-.411Z"/>
      <path d="M20.291,16.364c.227,0,.411-.184.411-.411s-.184-.411-.411-.411-.411.184-.411.411.184.411.411.411Z"/>
      <circle cx="20.154" cy="18.254" r=".411"/>
      <path d="M22.593,20.145c.227,0,.411-.184.411-.411s-.184-.411-.411-.411-.411.184-.411.411.184.411.411.411Z"/>
    </g>
    <g>
      <path d="M54.004,30.533c.227,0,.411-.184.411-.411s-.184-.411-.411-.411-.411.184-.411.411.184.411.411.411Z"/>
      <path d="M56.196,29.053c.227,0,.411-.184.411-.411s-.184-.411-.411-.411-.411.184-.411.411.184.411.411.411Z"/>
      <circle cx="56.333" cy="30.944" r=".411"/>
      <path d="M53.894,32.835c.227,0,.411-.184.411-.411s-.184-.411-.411-.411-.411.184-.411.411.184.411.411.411Z"/>
      <path d="M59.073,30.533c-.049,0-.093.022-.123.056l-2.234-.638.6-.503c.06.056.153.06.218.006.07-.058.079-.162.021-.232-.058-.07-.162-.079-.232-.021-.054.045-.072.118-.05.18l-1.787,1.499c.007-.026.015-.051.022-.077.102-.374.166-.736.198-1.105.062-.717-.02-1.312-.086-1.79-.03-.22-.057-.417-.067-.598.012-.006.024-.013.034-.022.07-.058.079-.162.021-.232-.058-.07-.162-.079-.232-.021s-.079.162-.021.232c.031.037.075.057.12.059.011.18.038.375.067.592.065.474.146,1.065.085,1.773-.031.365-.095.722-.196,1.092-.011.04-.022.08-.034.12l-1.199-1.725.363-1.468s.01,0,.015,0c.227,0,.411-.184.411-.411s-.184-.411-.411-.411-.411.184-.411.411c0,.195.136.358.319.4l-.345,1.393-.401-.577c.045-.066.071-.145.071-.231,0-.227-.184-.411-.411-.411s-.411.184-.411.411.184.411.411.411c.113,0,.215-.045.289-.119l.427.615h0s.001.002.001.002l1.253,1.803c-.104.34-.239.689-.403,1.039-.426.912-1.351,1.463-2.248,1.793v-2.342c.026-.005.051-.017.073-.035.07-.058.079-.162.021-.232-.058-.07-.162-.079-.232-.021s-.079.162-.021.232c.022.026.051.044.081.053v2.373c-.247.088-.491.159-.721.217-.585.147-1.141.225-1.554.265-.024-.235-.22-.419-.462-.419s-.438.184-.462.419c-.413-.041-.969-.118-1.554-.265-.229-.058-.473-.129-.721-.217v-2.373c.031-.009.059-.026.081-.053.058-.07.049-.173-.021-.232s-.173-.049-.232.021c-.058.07-.049.173.021.232.022.018.047.03.073.035v2.342c-.896-.33-1.822-.881-2.248-1.793-.164-.351-.298-.699-.403-1.039l1.253-1.803h.001s0-.002,0-.002l.427-.615c.074.073.176.119.289.119.227,0,.411-.184.411-.411s-.184-.411-.411-.411-.411.184-.411.411c0,.085.026.165.071.231l-.401.577-.345-1.393c.182-.042.319-.205.319-.4,0-.227-.184-.411-.411-.411s-.411.184-.411.411.184.411.411.411c.005,0,.01,0,.015,0l.363,1.468-1.199,1.725c-.012-.04-.023-.08-.034-.12-.1-.37-.164-.727-.196-1.092-.061-.708.02-1.298.085-1.773.03-.217.056-.412.067-.592.045-.002.089-.021.12-.059.058-.07.049-.173-.021-.232s-.173-.049-.232.021c-.058.07-.049.173.021.232.011.009.022.016.034.022-.01.18-.037.377-.067.598-.066.478-.147,1.073-.086,1.79.032.369.097.731.198,1.105.007.025.015.051.022.077l-1.787-1.499c.022-.063.004-.135-.05-.18-.07-.058-.173-.049-.232.021-.058.07-.049.173.021.232.065.054.158.05.218-.006l.6.503-2.234.638c-.03-.034-.074-.056-.123-.056-.091,0-.164.074-.164.164s.074.164.164.164.164-.074.164-.164c0-.013-.002-.026-.005-.039l2.269-.648,1.197,1.004c.106.346.242.7.409,1.055.569,1.219,1.999,1.805,3.099,2.081.592.149,1.154.227,1.57.267.016.243.216.436.464.436s.448-.193.464-.436c.416-.041.978-.118,1.57-.267,1.1-.277,2.53-.862,3.099-2.081.166-.356.303-.71.409-1.055l1.197-1.004,2.269.648c-.003.012-.005.025-.005.039,0,.091.074.164.164.164s.164-.074.164-.164-.074-.164-.164-.164Z"/>
      <path d="M46.221,30.122c0-.227-.184-.411-.411-.411s-.411.184-.411.411.184.411.411.411.411-.184.411-.411Z"/>
      <path d="M43.618,29.053c.227,0,.411-.184.411-.411s-.184-.411-.411-.411-.411.184-.411.411.184.411.411.411Z"/>
      <circle cx="43.481" cy="30.944" r=".411"/>
      <path d="M45.919,32.835c.227,0,.411-.184.411-.411s-.184-.411-.411-.411-.411.184-.411.411.184.411.411.411Z"/>
    </g>
    <g>
      <path d="M54.004,39.491c.227,0,.411-.184.411-.411s-.184-.411-.411-.411-.411.184-.411.411.184.411.411.411Z"/>
      <path d="M56.196,38.011c.227,0,.411-.184.411-.411s-.184-.411-.411-.411-.411.184-.411.411.184.411.411.411Z"/>
      <circle cx="56.333" cy="39.902" r=".411"/>
      <path d="M53.894,41.793c.227,0,.411-.184.411-.411s-.184-.411-.411-.411-.411.184-.411.411.184.411.411.411Z"/>
      <path d="M59.073,39.491c-.049,0-.093.022-.123.056l-2.234-.638.6-.503c.06.056.153.06.218.006.07-.058.079-.162.021-.232-.058-.07-.162-.079-.232-.021-.054.045-.072.118-.05.18l-1.787,1.499c.007-.026.015-.051.022-.077.102-.374.166-.736.198-1.105.062-.717-.02-1.312-.086-1.79-.03-.22-.057-.417-.067-.598.012-.006.024-.013.034-.022.07-.058.079-.162.021-.232-.058-.07-.162-.079-.232-.021s-.079.162-.021.232c.031.037.075.057.12.059.011.18.038.375.067.592.065.474.146,1.065.085,1.773-.031.365-.095.722-.196,1.092-.011.04-.022.08-.034.12l-1.199-1.725.363-1.468s.01,0,.015,0c.227,0,.411-.184.411-.411s-.184-.411-.411-.411-.411.184-.411.411c0,.195.136.358.319.4l-.345,1.393-.401-.577c.045-.066.071-.145.071-.231,0-.227-.184-.411-.411-.411s-.411.184-.411.411.184.411.411.411c.113,0,.215-.045.289-.119l.427.615h0s.001.002.001.002l1.253,1.803c-.104.34-.239.689-.403,1.039-.426.912-1.351,1.463-2.248,1.793v-2.342c.026-.005.051-.017.073-.035.07-.058.079-.162.021-.232-.058-.07-.162-.079-.232-.021s-.079.162-.021.232c.022.026.051.044.081.053v2.373c-.247.088-.491.159-.721.217-.585.147-1.141.225-1.554.265-.024-.235-.22-.419-.462-.419s-.438.184-.462.419c-.413-.041-.969-.118-1.554-.265-.229-.058-.473-.129-.721-.217v-2.373c.031-.009.059-.026.081-.053.058-.07.049-.173-.021-.232s-.173-.049-.232.021c-.058.07-.049.173.021.232.022.018.047.03.073.035v2.342c-.896-.33-1.822-.881-2.248-1.793-.164-.351-.298-.699-.403-1.039l1.253-1.803h.001s0-.002,0-.002l.427-.615c.074.073.176.119.289.119.227,0,.411-.184.411-.411s-.184-.411-.411-.411-.411.184-.411.411c0,.085.026.165.071.231l-.401.577-.345-1.393c.182-.042.319-.205.319-.4,0-.227-.184-.411-.411-.411s-.411.184-.411.411.184.411.411.411c.005,0,.01,0,.015,0l.363,1.468-1.199,1.725c-.012-.04-.023-.08-.034-.12-.1-.37-.164-.727-.196-1.092-.061-.708.02-1.298.085-1.773.03-.217.056-.412.067-.592.045-.002.089-.021.12-.059.058-.07.049-.173-.021-.232s-.173-.049-.232.021c-.058.07-.049.173.021.232.011.009.022.016.034.022-.01.18-.037.377-.067.598-.066.478-.147,1.073-.086,1.79.032.369.097.731.198,1.105.007.025.015.051.022.077l-1.787-1.499c.022-.063.004-.135-.05-.18-.07-.058-.173-.049-.232.021-.058.07-.049.173.021.232.065.054.158.05.218-.006l.6.503-2.234.638c-.03-.034-.074-.056-.123-.056-.091,0-.164.074-.164.164s.074.164.164.164.164-.074.164-.164c0-.013-.002-.026-.005-.039l2.269-.648,1.197,1.004c.106.346.242.7.409,1.055.569,1.219,1.999,1.805,3.099,2.081.592.149,1.154.227,1.57.267.016.243.216.436.464.436s.448-.193.464-.436c.416-.041.978-.118,1.57-.267,1.1-.277,2.53-.862,3.099-2.081.166-.356.303-.71.409-1.055l1.197-1.004,2.269.648c-.003.012-.005.025-.005.039,0,.091.074.164.164.164s.164-.074.164-.164-.074-.164-.164-.164Z"/>
      <path d="M46.221,39.08c0-.227-.184-.411-.411-.411s-.411.184-.411.411.184.411.411.411.411-.184.411-.411Z"/>
      <path d="M43.618,38.011c.227,0,.411-.184.411-.411s-.184-.411-.411-.411-.411.184-.411.411.184.411.411.411Z"/>
      <circle cx="43.481" cy="39.902" r=".411"/>
      <path d="M45.919,41.793c.227,0,.411-.184.411-.411s-.184-.411-.411-.411-.411.184-.411.411.184.411.411.411Z"/>
    </g>
    <g>
      <path d="M53.817,51.994c.227,0,.411-.184.411-.411s-.184-.411-.411-.411-.411.184-.411.411.184.411.411.411Z"/>
      <path d="M56.009,50.514c.227,0,.411-.184.411-.411s-.184-.411-.411-.411-.411.184-.411.411.184.411.411.411Z"/>
      <circle cx="56.146" cy="52.405" r=".411"/>
      <path d="M53.707,54.296c.227,0,.411-.184.411-.411s-.184-.411-.411-.411-.411.184-.411.411.184.411.411.411Z"/>
      <path d="M58.886,51.994c-.049,0-.093.022-.123.056l-2.234-.638.6-.503c.06.056.153.06.218.006.07-.058.079-.162.021-.232-.058-.07-.162-.079-.232-.021-.054.045-.072.118-.05.18l-1.787,1.499c.007-.026.015-.051.022-.077.102-.374.166-.736.198-1.105.062-.717-.02-1.312-.086-1.79-.03-.22-.057-.417-.067-.598.012-.006.024-.013.034-.022.07-.058.079-.162.021-.232-.058-.07-.162-.079-.232-.021s-.079.162-.021.232c.031.037.075.057.12.059.011.18.038.375.067.592.065.474.146,1.065.085,1.773-.031.365-.095.722-.196,1.092-.011.04-.022.08-.034.12l-1.199-1.725.363-1.468s.01,0,.015,0c.227,0,.411-.184.411-.411s-.184-.411-.411-.411-.411.184-.411.411c0,.195.136.358.319.4l-.345,1.393-.401-.577c.045-.066.071-.145.071-.231,0-.227-.184-.411-.411-.411s-.411.184-.411.411.184.411.411.411c.113,0,.215-.045.289-.119l.427.615h0s.001.002.001.002l1.253,1.803c-.104.34-.239.689-.403,1.039-.426.912-1.351,1.463-2.248,1.793v-2.342c.026-.005.051-.017.073-.035.07-.058.079-.162.021-.232-.058-.07-.162-.079-.232-.021s-.079.162-.021.232c.022.026.051.044.081.053v2.373c-.247.088-.491.159-.721.217-.585.147-1.141.225-1.554.265-.024-.235-.22-.419-.462-.419s-.438.184-.462.419c-.413-.041-.969-.118-1.554-.265-.229-.058-.473-.129-.721-.217v-2.373c.031-.009.059-.026.081-.053.058-.07.049-.173-.021-.232s-.173-.049-.232.021c-.058.07-.049.173.021.232.022.018.047.03.073.035v2.342c-.896-.33-1.822-.881-2.248-1.793-.164-.351-.298-.699-.403-1.039l1.253-1.803h.001s0-.002,0-.002l.427-.615c.074.073.176.119.289.119.227,0,.411-.184.411-.411s-.184-.411-.411-.411-.411.184-.411.411c0,.085.026.165.071.231l-.401.577-.345-1.393c.182-.042.319-.205.319-.4,0-.227-.184-.411-.411-.411s-.411.184-.411.411.184.411.411.411c.005,0,.01,0,.015,0l.363,1.468-1.199,1.725c-.012-.04-.023-.08-.034-.12-.1-.37-.164-.727-.196-1.092-.061-.708.02-1.298.085-1.773.03-.217.056-.412.067-.592.045-.002.089-.021.12-.059.058-.07.049-.173-.021-.232s-.173-.049-.232.021c-.058.07-.049.173.021.232.011.009.022.016.034.022-.01.18-.037.377-.067.598-.066.478-.147,1.073-.086,1.79.032.369.097.731.198,1.105.007.025.015.051.022.077l-1.787-1.499c.022-.063.004-.135-.05-.18-.07-.058-.173-.049-.232.021-.058.07-.049.173.021.232.065.054.158.05.218-.006l.6.503-2.234.638c-.03-.034-.074-.056-.123-.056-.091,0-.164.074-.164.164s.074.164.164.164.164-.074.164-.164c0-.013-.002-.026-.005-.039l2.269-.648,1.197,1.004c.106.346.242.7.409,1.055.569,1.219,1.999,1.805,3.099,2.081.592.149,1.154.227,1.57.267.016.243.216.436.464.436s.448-.193.464-.436c.416-.041.978-.118,1.57-.267,1.1-.277,2.53-.862,3.099-2.081.166-.356.303-.71.409-1.055l1.197-1.004,2.269.648c-.003.012-.005.025-.005.039,0,.091.074.164.164.164s.164-.074.164-.164-.074-.164-.164-.164Z"/>
      <path d="M46.034,51.583c0-.227-.184-.411-.411-.411s-.411.184-.411.411.184.411.411.411.411-.184.411-.411Z"/>
      <path d="M43.431,50.514c.227,0,.411-.184.411-.411s-.184-.411-.411-.411-.411.184-.411.411.184.411.411.411Z"/>
      <circle cx="43.294" cy="52.405" r=".411"/>
      <path d="M45.733,54.296c.227,0,.411-.184.411-.411s-.184-.411-.411-.411-.411.184-.411.411.184.411.411.411Z"/>
    </g>
    <g>
      <path d="M53.817,60.952c.227,0,.411-.184.411-.411s-.184-.411-.411-.411-.411.184-.411.411.184.411.411.411Z"/>
      <path d="M56.009,59.472c.227,0,.411-.184.411-.411s-.184-.411-.411-.411-.411.184-.411.411.184.411.411.411Z"/>
      <circle cx="56.146" cy="61.363" r=".411"/>
      <path d="M53.707,63.253c.227,0,.411-.184.411-.411s-.184-.411-.411-.411-.411.184-.411.411.184.411.411.411Z"/>
      <path d="M58.886,60.952c-.049,0-.093.022-.123.056l-2.234-.638.6-.503c.06.056.153.06.218.006.07-.058.079-.162.021-.232-.058-.07-.162-.079-.232-.021-.054.045-.072.118-.05.18l-1.787,1.499c.007-.026.015-.051.022-.077.102-.374.166-.736.198-1.105.062-.717-.02-1.312-.086-1.79-.03-.22-.057-.417-.067-.598.012-.006.024-.013.034-.022.07-.058.079-.162.021-.232-.058-.07-.162-.079-.232-.021s-.079.162-.021.232c.031.037.075.057.12.059.011.18.038.375.067.592.065.474.146,1.065.085,1.773-.031.365-.095.722-.196,1.092-.011.04-.022.08-.034.12l-1.199-1.725.363-1.468s.01,0,.015,0c.227,0,.411-.184.411-.411s-.184-.411-.411-.411-.411.184-.411.411c0,.195.136.358.319.4l-.345,1.393-.401-.577c.045-.066.071-.145.071-.231,0-.227-.184-.411-.411-.411s-.411.184-.411.411.184.411.411.411c.113,0,.215-.045.289-.119l.427.615h0s.001.002.001.002l1.253,1.803c-.104.34-.239.689-.403,1.039-.426.912-1.351,1.463-2.248,1.793v-2.342c.026-.005.051-.017.073-.035.07-.058.079-.162.021-.232-.058-.07-.162-.079-.232-.021s-.079.162-.021.232c.022.026.051.044.081.053v2.373c-.247.088-.491.159-.721.217-.585.147-1.141.225-1.554.265-.024-.235-.22-.419-.462-.419s-.438.184-.462.419c-.413-.041-.969-.118-1.554-.265-.229-.058-.473-.129-.721-.217v-2.373c.031-.009.059-.026.081-.053.058-.07.049-.173-.021-.232s-.173-.049-.232.021c-.058.07-.049.173.021.232.022.018.047.03.073.035v2.342c-.896-.33-1.822-.881-2.248-1.793-.164-.351-.298-.699-.403-1.039l1.253-1.803h.001s0-.002,0-.002l.427-.615c.074.073.176.119.289.119.227,0,.411-.184.411-.411s-.184-.411-.411-.411-.411.184-.411.411c0,.085.026.165.071.231l-.401.577-.345-1.393c.182-.042.319-.205.319-.4,0-.227-.184-.411-.411-.411s-.411.184-.411.411.184.411.411.411c.005,0,.01,0,.015,0l.363,1.468-1.199,1.725c-.012-.04-.023-.08-.034-.12-.1-.37-.164-.727-.196-1.092-.061-.708.02-1.298.085-1.773.03-.217.056-.412.067-.592.045-.002.089-.021.12-.059.058-.07.049-.173-.021-.232s-.173-.049-.232.021c-.058.07-.049.173.021.232.011.009.022.016.034.022-.01.18-.037.377-.067.598-.066.478-.147,1.073-.086,1.79.032.369.097.731.198,1.105.007.025.015.051.022.077l-1.787-1.499c.022-.063.004-.135-.05-.18-.07-.058-.173-.049-.232.021-.058.07-.049.173.021.232.065.054.158.05.218-.006l.6.503-2.234.638c-.03-.034-.074-.056-.123-.056-.091,0-.164.074-.164.164s.074.164.164.164.164-.074.164-.164c0-.013-.002-.026-.005-.039l2.269-.648,1.197,1.004c.106.346.242.7.409,1.055.569,1.219,1.999,1.805,3.099,2.081.592.149,1.154.227,1.57.267.016.243.216.436.464.436s.448-.193.464-.436c.416-.041.978-.118,1.57-.267,1.1-.277,2.53-.862,3.099-2.081.166-.356.303-.71.409-1.055l1.197-1.004,2.269.648c-.003.012-.005.025-.005.039,0,.091.074.164.164.164s.164-.074.164-.164-.074-.164-.164-.164Z"/>
      <path d="M46.034,60.54c0-.227-.184-.411-.411-.411s-.411.184-.411.411.184.411.411.411.411-.184.411-.411Z"/>
      <path d="M43.431,59.472c.227,0,.411-.184.411-.411s-.184-.411-.411-.411-.411.184-.411.411.184.411.411.411Z"/>
      <circle cx="43.294" cy="61.363" r=".411"/>
      <path d="M45.733,63.253c.227,0,.411-.184.411-.411s-.184-.411-.411-.411-.411.184-.411.411.184.411.411.411Z"/>
    </g>
    <g>
      <path d="M53.817,69.909c.227,0,.411-.184.411-.411s-.184-.411-.411-.411-.411.184-.411.411.184.411.411.411Z"/>
      <path d="M56.009,68.429c.227,0,.411-.184.411-.411s-.184-.411-.411-.411-.411.184-.411.411.184.411.411.411Z"/>
      <circle cx="56.146" cy="70.32" r=".411"/>
      <path d="M53.707,72.211c.227,0,.411-.184.411-.411s-.184-.411-.411-.411-.411.184-.411.411.184.411.411.411Z"/>
      <path d="M58.886,69.909c-.049,0-.093.022-.123.056l-2.234-.638.6-.503c.06.056.153.06.218.006.07-.058.079-.162.021-.232-.058-.07-.162-.079-.232-.021-.054.045-.072.118-.05.18l-1.787,1.499c.007-.026.015-.051.022-.077.102-.374.166-.736.198-1.105.062-.717-.02-1.312-.086-1.79-.03-.22-.057-.417-.067-.598.012-.006.024-.013.034-.022.07-.058.079-.162.021-.232-.058-.07-.162-.079-.232-.021s-.079.162-.021.232c.031.037.075.057.12.059.011.18.038.375.067.592.065.474.146,1.065.085,1.773-.031.365-.095.722-.196,1.092-.011.04-.022.08-.034.12l-1.199-1.725.363-1.468s.01,0,.015,0c.227,0,.411-.184.411-.411s-.184-.411-.411-.411-.411.184-.411.411c0,.195.136.358.319.4l-.345,1.393-.401-.577c.045-.066.071-.145.071-.231,0-.227-.184-.411-.411-.411s-.411.184-.411.411.184.411.411.411c.113,0,.215-.045.289-.119l.427.615h0s.001.002.001.002l1.253,1.803c-.104.34-.239.689-.403,1.039-.426.912-1.351,1.463-2.248,1.793v-2.342c.026-.005.051-.017.073-.035.07-.058.079-.162.021-.232-.058-.07-.162-.079-.232-.021s-.079.162-.021.232c.022.026.051.044.081.053v2.373c-.247.088-.491.159-.721.217-.585.147-1.141.225-1.554.265-.024-.235-.22-.419-.462-.419s-.438.184-.462.419c-.413-.041-.969-.118-1.554-.265-.229-.058-.473-.129-.721-.217v-2.373c.031-.009.059-.026.081-.053.058-.07.049-.173-.021-.232s-.173-.049-.232.021c-.058.07-.049.173.021.232.022.018.047.03.073.035v2.342c-.896-.33-1.822-.881-2.248-1.793-.164-.351-.298-.699-.403-1.039l1.253-1.803h.001s0-.002,0-.002l.427-.615c.074.073.176.119.289.119.227,0,.411-.184.411-.411s-.184-.411-.411-.411-.411.184-.411.411c0,.085.026.165.071.231l-.401.577-.345-1.393c.182-.042.319-.205.319-.4,0-.227-.184-.411-.411-.411s-.411.184-.411.411.184.411.411.411c.005,0,.01,0,.015,0l.363,1.468-1.199,1.725c-.012-.04-.023-.08-.034-.12-.1-.37-.164-.727-.196-1.092-.061-.708.02-1.298.085-1.773.03-.217.056-.412.067-.592.045-.002.089-.021.12-.059.058-.07.049-.173-.021-.232s-.173-.049-.232.021c-.058.07-.049.173.021.232.011.009.022.016.034.022-.01.18-.037.377-.067.598-.066.478-.147,1.073-.086,1.79.032.369.097.731.198,1.105.007.025.015.051.022.077l-1.787-1.499c.022-.063.004-.135-.05-.18-.07-.058-.173-.049-.232.021-.058.07-.049.173.021.232.065.054.158.05.218-.006l.6.503-2.234.638c-.03-.034-.074-.056-.123-.056-.091,0-.164.074-.164.164s.074.164.164.164.164-.074.164-.164c0-.013-.002-.026-.005-.039l2.269-.648,1.197,1.004c.106.346.242.7.409,1.055.569,1.219,1.999,1.805,3.099,2.081.592.149,1.154.227,1.57.267.016.243.216.436.464.436s.448-.193.464-.436c.416-.041.978-.118,1.57-.267,1.1-.277,2.53-.862,3.099-2.081.166-.356.303-.71.409-1.055l1.197-1.004,2.269.648c-.003.012-.005.025-.005.039,0,.091.074.164.164.164s.164-.074.164-.164-.074-.164-.164-.164Z"/>
      <path d="M46.034,69.498c0-.227-.184-.411-.411-.411s-.411.184-.411.411.184.411.411.411.411-.184.411-.411Z"/>
      <path d="M43.431,68.429c.227,0,.411-.184.411-.411s-.184-.411-.411-.411-.411.184-.411.411.184.411.411.411Z"/>
      <circle cx="43.294" cy="70.32" r=".411"/>
      <path d="M45.733,72.211c.227,0,.411-.184.411-.411s-.184-.411-.411-.411-.411.184-.411.411.184.411.411.411Z"/>
    </g>
    <g>
      <path d="M56.052,85.789c.341,0,.617-.276.617-.617s-.276-.617-.617-.617-.617.276-.617.617.276.617.617.617Z"/>
      <path d="M59.34,83.569c.341,0,.617-.276.617-.617s-.276-.617-.617-.617-.617.276-.617.617.276.617.617.617Z"/>
      <circle cx="59.546" cy="86.405" r=".617"/>
      <path d="M55.888,89.241c.341,0,.617-.276.617-.617s-.276-.617-.617-.617-.617.276-.617.617.276.617.617.617Z"/>
      <path d="M63.656,85.789c-.074,0-.139.032-.185.083l-3.35-.957.9-.755c.09.084.23.09.327.01.105-.087.118-.243.031-.347-.087-.105-.243-.118-.347-.031-.081.068-.107.176-.074.271l-2.68,2.248c.011-.038.022-.077.033-.115.152-.562.25-1.104.297-1.658.092-1.075-.03-1.968-.128-2.685-.045-.331-.085-.626-.101-.896.018-.009.036-.019.052-.033.105-.087.118-.243.031-.347-.087-.105-.243-.118-.347-.031s-.118.243-.031.347c.047.056.113.086.18.088.016.27.056.562.101.888.097.712.219,1.597.128,2.659-.047.547-.143,1.083-.294,1.637-.016.06-.034.12-.051.18l-1.799-2.588.545-2.202c.007,0,.015.001.022.001.341,0,.617-.276.617-.617s-.276-.617-.617-.617-.617.276-.617.617c0,.293.204.537.478.6l-.517,2.09-.601-.865c.067-.099.106-.218.106-.346,0-.341-.276-.617-.617-.617s-.617.276-.617.617.276.617.617.617c.169,0,.322-.068.433-.178l.641.923v.002s.002,0,.002,0l1.88,2.705c-.157.51-.359,1.033-.604,1.559-.639,1.368-2.027,2.194-3.371,2.69v-3.512c.039-.008.076-.025.109-.052.105-.087.118-.243.031-.347-.087-.105-.243-.118-.347-.031s-.118.243-.031.347c.033.04.076.066.122.079v3.559c-.371.132-.737.239-1.081.326-.878.221-1.712.337-2.331.398-.036-.352-.331-.628-.693-.628s-.656.276-.693.628c-.619-.061-1.453-.177-2.331-.398-.344-.087-.71-.194-1.081-.326v-3.559c.046-.013.089-.04.122-.079.087-.105.073-.26-.031-.347s-.26-.073-.347.031c-.087.105-.073.26.031.347.033.027.07.045.109.052v3.512c-1.345-.496-2.733-1.321-3.371-2.69-.245-.526-.447-1.049-.604-1.559l1.88-2.705h.002s0-.002,0-.002l.641-.923c.111.11.264.178.433.178.341,0,.617-.276.617-.617s-.276-.617-.617-.617-.617.276-.617.617c0,.128.039.247.106.346l-.601.865-.517-2.09c.274-.063.478-.308.478-.6,0-.341-.276-.617-.617-.617s-.617.276-.617.617.276.617.617.617c.008,0,.015,0,.022-.001l.545,2.202-1.799,2.588c-.018-.06-.035-.12-.051-.18-.151-.555-.247-1.09-.294-1.637-.091-1.062.03-1.948.128-2.659.045-.326.085-.618.101-.888.067-.002.134-.032.18-.088.087-.105.073-.26-.031-.347s-.26-.073-.347.031c-.087.105-.073.26.031.347.016.013.034.024.052.033-.016.271-.056.566-.101.896-.098.717-.221,1.61-.128,2.685.048.554.145,1.096.297,1.658.01.038.022.077.033.115l-2.68-2.248c.033-.094.007-.203-.074-.271-.105-.087-.26-.073-.347.031-.087.105-.073.26.031.347.097.081.237.075.327-.01l.9.755-3.35.957c-.045-.051-.111-.083-.185-.083-.136,0-.247.11-.247.247s.11.247.247.247.247-.11.247-.247c0-.02-.003-.039-.007-.058l3.403-.972,1.796,1.506c.159.518.364,1.049.613,1.583.853,1.828,2.999,2.707,4.648,3.122.888.223,1.73.34,2.355.401.024.365.324.655.695.655s.672-.29.695-.655c.624-.061,1.467-.177,2.355-.401,1.65-.415,3.795-1.294,4.648-3.122.249-.534.454-1.065.613-1.583l1.796-1.506,3.403.972c-.004.019-.007.038-.007.058,0,.136.11.247.247.247s.247-.11.247-.247-.11-.247-.247-.247Z"/>
      <path d="M44.378,85.172c0-.341-.276-.617-.617-.617s-.617.276-.617.617.276.617.617.617.617-.276.617-.617Z"/>
      <path d="M40.473,83.569c.341,0,.617-.276.617-.617s-.276-.617-.617-.617-.617.276-.617.617.276.617.617.617Z"/>
      <circle cx="40.268" cy="86.405" r=".617"/>
      <path d="M43.926,89.241c.341,0,.617-.276.617-.617s-.276-.617-.617-.617-.617.276-.617.617.276.617.617.617Z"/>
    </g>
    <g>
      <path d="M69.092,68.24c.161.161.421.161.581,0s.161-.421,0-.581-.421-.161-.581,0-.161.421,0,.581Z"/>
      <path d="M71.689,68.744c.161.161.421.161.581,0s.161-.421,0-.581-.421-.161-.581,0-.161.421,0,.581Z"/>
      <circle cx="70.448" cy="70.177" r=".411"/>
      <path d="M67.387,69.79c.161.161.421.161.581,0s.161-.421,0-.581-.421-.161-.581,0-.161.421,0,.581Z"/>
      <path d="M72.677,71.824c-.035-.035-.081-.05-.126-.048l-1.128-2.031.78.068c.003.082.066.151.15.159.09.008.17-.059.178-.149.008-.09-.059-.17-.149-.178-.07-.006-.134.033-.163.092l-2.323-.204c.023-.013.047-.026.07-.039.337-.193.638-.403.922-.641.55-.463.913-.942,1.205-1.326.135-.177.255-.335.375-.47.013.004.026.008.04.009.09.008.17-.059.178-.149.008-.09-.059-.17-.149-.178s-.17.059-.178.149c-.004.048.013.094.043.127-.12.135-.238.292-.371.466-.289.381-.65.856-1.193,1.314-.28.236-.578.443-.91.633-.036.021-.072.041-.109.061l.372-2.068,1.295-.781s.006.008.01.011c.161.161.421.161.581,0s.161-.421,0-.581-.421-.161-.581,0c-.138.138-.157.35-.058.508l-1.229.741.124-.691c.078-.015.153-.053.213-.113.161-.161.161-.421,0-.581s-.421-.161-.581,0-.161.421,0,.581c.08.08.184.12.288.12l-.133.737h-.001s0,.002,0,.002l-.389,2.161c-.314.167-.656.318-1.02.45-.946.344-1.99.079-2.857-.321l1.656-1.656c.022.015.048.024.076.027.09.008.17-.059.178-.149.008-.09-.059-.17-.149-.178s-.17.059-.178.149c-.003.034.005.067.02.095l-1.678,1.678c-.237-.113-.46-.235-.663-.356-.518-.31-.966-.648-1.287-.911.149-.183.14-.452-.03-.623s-.439-.179-.623-.03c-.263-.321-.602-.768-.911-1.287-.121-.203-.243-.426-.356-.663l1.678-1.678c.028.016.061.023.095.02.09-.008.157-.088.149-.178s-.088-.157-.178-.149c-.09.008-.157.088-.149.178.003.028.012.054.027.076l-1.656,1.656c-.4-.868-.665-1.911-.321-2.857.132-.364.283-.705.45-1.02l2.161-.389h.001s0,0,0,0l.737-.133c0,.104.041.208.12.288.161.161.421.161.581,0s.161-.421,0-.581-.421-.161-.581,0c-.06.06-.098.135-.113.213l-.691.124.741-1.229c.159.099.37.08.508-.058.161-.161.161-.421,0-.581s-.421-.161-.581,0-.161.421,0,.581c.004.004.007.007.011.01l-.781,1.295-2.068.372c.02-.037.04-.073.061-.109.191-.333.398-.63.633-.91.458-.544.932-.904,1.314-1.193.175-.133.331-.252.466-.371.033.031.078.048.127.043.09-.008.157-.088.149-.178s-.088-.157-.178-.149c-.09.008-.157.088-.149.178.001.014.004.027.009.04-.135.12-.293.24-.47.375-.384.292-.863.655-1.326,1.205-.239.284-.449.585-.641.922-.013.023-.026.046-.039.07l-.204-2.323c.06-.029.099-.093.092-.163-.008-.09-.088-.157-.178-.149-.09.008-.157.088-.149.178.008.084.077.147.159.15l.068.78-2.031-1.128c.003-.045-.013-.092-.048-.126-.064-.064-.168-.064-.233,0s-.064.168,0,.233.168.064.233,0c.009-.009.017-.02.024-.031l2.063,1.146.136,1.557c-.17.319-.323.666-.457,1.035-.46,1.264.138,2.69.72,3.663.313.524.655.976.921,1.299-.161.183-.156.461.019.636s.453.18.636.019c.323.266.775.608,1.299.921.973.582,2.399,1.179,3.663.72.369-.134.716-.288,1.035-.457l1.557.136,1.146,2.063c-.011.007-.021.015-.031.024-.064.064-.064.168,0,.233s.168.064.233,0,.064-.168,0-.233Z"/>
      <path d="M63.88,62.446c.161-.161.161-.421,0-.581s-.421-.161-.581,0-.161.421,0,.581.421.161.581,0Z"/>
      <path d="M62.794,59.849c.161.161.421.161.581,0s.161-.421,0-.581-.421-.161-.581,0-.161.421,0,.581Z"/>
      <circle cx="61.361" cy="61.09" r=".411"/>
      <path d="M61.748,64.151c.161.161.421.161.581,0s.161-.421,0-.581-.421-.161-.581,0-.161.421,0,.581Z"/>
    </g>
    <g>
      <path d="M30.781,68.24c-.161.161-.421.161-.581,0s-.161-.421,0-.581.421-.161.581,0,.161.421,0,.581Z"/>
      <path d="M28.185,68.744c-.161.161-.421.161-.581,0s-.161-.421,0-.581.421-.161.581,0,.161.421,0,.581Z"/>
      <circle cx="29.425" cy="70.177" r=".411"/>
      <path d="M32.486,69.79c-.161.161-.421.161-.581,0s-.161-.421,0-.581.421-.161.581,0,.161.421,0,.581Z"/>
      <path d="M27.197,71.824c.035-.035.081-.05.126-.048l1.128-2.031-.78.068c-.003.082-.066.151-.15.159-.09.008-.17-.059-.178-.149-.008-.09.059-.17.149-.178.07-.006.134.033.163.092l2.323-.204c-.023-.013-.047-.026-.07-.039-.337-.193-.638-.403-.922-.641-.55-.463-.913-.942-1.205-1.326-.135-.177-.255-.335-.375-.47-.013.004-.026.008-.04.009-.09.008-.17-.059-.178-.149-.008-.09.059-.17.149-.178s.17.059.178.149c.004.048-.013.094-.043.127.12.135.238.292.371.466.289.381.65.856,1.193,1.314.28.236.578.443.91.633.036.021.072.041.109.061l-.372-2.068-1.295-.781s-.006.008-.01.011c-.161.161-.421.161-.581,0s-.161-.421,0-.581.421-.161.581,0c.138.138.157.35.058.508l1.229.741-.124-.691c-.078-.015-.153-.053-.213-.113-.161-.161-.161-.421,0-.581s.421-.161.581,0,.161.421,0,.581c-.08.08-.184.12-.288.12l.133.737h.001s0,.002,0,.002l.389,2.161c.314.167.656.318,1.02.45.946.344,1.99.079,2.857-.321l-1.656-1.656c-.022.015-.048.024-.076.027-.09.008-.17-.059-.178-.149-.008-.09.059-.17.149-.178s.17.059.178.149c.003.034-.005.067-.02.095l1.678,1.678c.237-.113.46-.235.663-.356.518-.31.966-.648,1.287-.911-.149-.183-.14-.452.03-.623s.439-.179.623-.03c.263-.321.602-.768.911-1.287.121-.203.243-.426.356-.663l-1.678-1.678c-.028.016-.061.023-.095.02-.09-.008-.157-.088-.149-.178s.088-.157.178-.149c.09.008.157.088.149.178-.003.028-.012.054-.027.076l1.656,1.656c.4-.868.665-1.911.321-2.857-.132-.364-.283-.705-.45-1.02l-2.161-.389h-.001s0,0,0,0l-.737-.133c0,.104-.041.208-.12.288-.161.161-.421.161-.581,0s-.161-.421,0-.581.421-.161.581,0c.06.06.098.135.113.213l.691.124-.741-1.229c-.159.099-.37.08-.508-.058-.161-.161-.161-.421,0-.581s.421-.161.581,0,.161.421,0,.581c-.004.004-.007.007-.011.01l.781,1.295,2.068.372c-.02-.037-.04-.073-.061-.109-.191-.333-.398-.63-.633-.91-.458-.544-.932-.904-1.314-1.193-.175-.133-.331-.252-.466-.371-.033.031-.078.048-.127.043-.09-.008-.157-.088-.149-.178s.088-.157.178-.149c.09.008.157.088.149.178-.001.014-.004.027-.009.04.135.12.293.24.47.375.384.292.863.655,1.326,1.205.239.284.449.585.641.922.013.023.026.046.039.07l.204-2.323c-.06-.029-.099-.093-.092-.163.008-.09.088-.157.178-.149.09.008.157.088.149.178-.008.084-.077.147-.159.15l-.068.78,2.031-1.128c-.003-.045.013-.092.048-.126.064-.064.168-.064.233,0s.064.168,0,.233-.168.064-.233,0c-.009-.009-.017-.02-.024-.031l-2.063,1.146-.136,1.557c.17.319.323.666.457,1.035.46,1.264-.138,2.69-.72,3.663-.313.524-.655.976-.921,1.299.161.183.156.461-.019.636s-.453.18-.636.019c-.323.266-.775.608-1.299.921-.973.582-2.399,1.179-3.663.72-.369-.134-.716-.288-1.035-.457l-1.557.136-1.146,2.063c.011.007.021.015.031.024.064.064.064.168,0,.233s-.168.064-.233,0-.064-.168,0-.233Z"/>
      <path d="M35.994,62.446c-.161-.161-.161-.421,0-.581s.421-.161.581,0,.161.421,0,.581-.421.161-.581,0Z"/>
      <path d="M37.079,59.849c-.161.161-.421.161-.581,0s-.161-.421,0-.581.421-.161.581,0,.161.421,0,.581Z"/>
      <circle cx="38.513" cy="61.09" r=".411"/>
      <path d="M38.125,64.151c-.161.161-.421.161-.581,0s-.161-.421,0-.581.421-.161.581,0,.161.421,0,.581Z"/>
    </g>
  </g>
  <g id="Flores">
    <g>
      <g>
        <ellipse cx="26.632" cy="4.172" rx="1.21" ry=".847" fill="#0c0d0b"/>
        <path d="M29.755,9.794c-.966-.445-2.142.16-2.718.983-.123.15-.234.384-.302.437v-.921c.264-.754,1.101-1.087,1.957-1.387.585-.191,1.931-.564,1.699-1.356-.454-.662-1.54-.583-2.181-.166-.718.451-1.134,1.16-1.475,1.678v-1.201c.277-.669.983-1.001,1.932-1.338.402-.145.732-.133.936-.364,1.015-1.837-1.19-2.889-2.523-.138-.073.163-.265.51-.346.736v-1.393h-.207v1.814c-.209-.545-.579-1.79-1.175-2.018-1.011-.228-.739.961-.365,1.471.274.432.721.841,1.066,1.137.347.266.475.574.474,1.018-.005.138-.002.29,0,.446v.428c-.004.143-.013.281-.035.404-.031.055-.18-.057-.211-.1-.462-.755-.946-1.899-1.537-2.644-.539-.813-1.927-.176-1.335.771.349.622,1.007.958,1.567,1.419.388.379,1.285.774,1.551,1.303v.495c-.142.094-.438-.059-.629-.176-.896-.59-4.78-3.292-4.493-.703.381,1.567,1.92,2.014,3.279,1.896,1.601-.034,3.539.07,4.782-.044,1.418-.409,1.795-1.818.289-2.489Z" fill="#0c0d0b"/>
      </g>
      <circle cx="26.632" cy="4.258" r=".38" fill="#cb1e1a"/>
    </g>
    <g>
      <g>
        <ellipse cx="27.867" cy="50.266" rx="1.21" ry=".847" fill="#0c0d0b"/>
        <path d="M30.99,55.887c-.966-.445-2.142.16-2.718.983-.123.15-.234.384-.302.437v-.921c.264-.754,1.101-1.087,1.957-1.387.585-.191,1.931-.564,1.699-1.356-.454-.662-1.54-.583-2.181-.166-.718.451-1.134,1.16-1.475,1.678v-1.201c.277-.669.983-1.001,1.932-1.338.402-.145.732-.133.936-.364,1.015-1.837-1.19-2.889-2.523-.138-.073.163-.265.51-.346.736v-1.393h-.207v1.814c-.209-.545-.579-1.79-1.175-2.018-1.011-.228-.739.961-.365,1.471.274.432.721.841,1.066,1.137.347.266.475.574.474,1.018-.005.138-.002.29,0,.446v.428c-.004.143-.013.281-.035.404-.031.055-.18-.057-.211-.1-.462-.755-.946-1.899-1.537-2.644-.539-.813-1.927-.176-1.335.771.349.622,1.007.958,1.567,1.419.388.379,1.285.774,1.551,1.303v.495c-.142.094-.438-.059-.629-.176-.896-.59-4.78-3.292-4.493-.703.381,1.567,1.92,2.014,3.279,1.896,1.601-.034,3.539.07,4.782-.044,1.418-.409,1.795-1.818.289-2.489Z" fill="#0c0d0b"/>
      </g>
      <circle cx="27.867" cy="50.352" r=".38" fill="#cb1e1a"/>
    </g>
    <g>
      <g>
        <ellipse cx="71.979" cy="50.266" rx="1.21" ry=".847" fill="#0c0d0b"/>
        <path d="M75.102,55.887c-.966-.445-2.142.16-2.718.983-.123.15-.234.384-.302.437v-.921c.264-.754,1.101-1.087,1.957-1.387.585-.191,1.931-.564,1.699-1.356-.454-.662-1.54-.583-2.181-.166-.718.451-1.134,1.16-1.475,1.678v-1.201c.277-.669.983-1.001,1.932-1.338.402-.145.732-.133.936-.364,1.015-1.837-1.19-2.889-2.523-.138-.073.163-.265.51-.346.736v-1.393h-.207v1.814c-.209-.545-.579-1.79-1.175-2.018-1.011-.228-.739.961-.365,1.471.274.432.721.841,1.066,1.137.347.266.475.574.474,1.018-.005.138-.002.29,0,.446v.428c-.004.143-.013.281-.035.404-.031.055-.18-.057-.211-.1-.462-.755-.946-1.899-1.537-2.644-.539-.813-1.927-.176-1.335.771.349.622,1.007.958,1.567,1.419.388.379,1.285.774,1.551,1.303v.495c-.142.094-.438-.059-.629-.176-.896-.59-4.78-3.292-4.493-.703.381,1.567,1.92,2.014,3.279,1.896,1.601-.034,3.539.07,4.782-.044,1.418-.409,1.795-1.818.289-2.489Z" fill="#0c0d0b"/>
      </g>
      <circle cx="71.979" cy="50.352" r=".38" fill="#cb1e1a"/>
    </g>
    <g>
      <g>
        <ellipse cx="73.659" cy="4.172" rx="1.21" ry=".847" fill="#0c0d0b"/>
        <path d="M76.782,9.794c-.966-.445-2.142.16-2.718.983-.123.15-.234.384-.302.437v-.921c.264-.754,1.101-1.087,1.957-1.387.585-.191,1.931-.564,1.699-1.356-.454-.662-1.54-.583-2.181-.166-.718.451-1.134,1.16-1.475,1.678v-1.201c.277-.669.983-1.001,1.932-1.338.402-.145.732-.133.936-.364,1.015-1.837-1.19-2.889-2.523-.138-.073.163-.265.51-.346.736v-1.393h-.207v1.814c-.209-.545-.579-1.79-1.175-2.018-1.011-.228-.739.961-.365,1.471.274.432.721.841,1.066,1.137.347.266.475.574.474,1.018-.005.138-.002.29,0,.446v.428c-.004.143-.013.281-.035.404-.031.055-.18-.057-.211-.1-.462-.755-.946-1.899-1.537-2.644-.539-.813-1.927-.176-1.335.771.349.622,1.007.958,1.567,1.419.388.379,1.285.774,1.551,1.303v.495c-.142.094-.438-.059-.629-.176-.896-.59-4.78-3.292-4.493-.703.381,1.567,1.92,2.014,3.279,1.896,1.601-.034,3.539.07,4.782-.044,1.418-.409,1.795-1.818.289-2.489Z" fill="#0c0d0b"/>
      </g>
      <circle cx="73.659" cy="4.258" r=".38" fill="#cb1e1a"/>
    </g>
    <g>
      <g>
        <polygon points="53.24 9.56 50.145 12.655 50.145 11.696 50.145 11.686 50.145 1.231 50.094 1.231 50.094 11.635 47.004 8.544 46.968 8.581 50.094 11.707 50.094 17.3 50.098 17.3 50.098 18.316 50.15 18.316 50.15 12.723 53.276 9.597 53.24 9.56" fill="#0c0d0b"/>
        <circle cx="46.965" cy="8.477" r=".892" fill="#0c0d0b"/>
        <circle cx="50.12" cy="1.231" r="1.115" fill="#0c0d0b"/>
        <circle cx="51.634" cy="4.764" r="1.115" fill="#0c0d0b"/>
        <g>
          <circle cx="52.931" cy="10.006" r=".595" fill="#0c0d0b"/>
          <circle cx="53.157" cy="8.54" r=".595" fill="#0c0d0b"/>
          <circle cx="54.644" cy="9.973" r=".892" fill="#0c0d0b"/>
          <circle cx="55.094" cy="7.702" r="1.115" fill="#0c0d0b"/>
        </g>
        <g>
          <circle cx="50.065" cy="14.349" r=".595" fill="#0c0d0b"/>
          <circle cx="50.291" cy="12.884" r=".595" fill="#0c0d0b"/>
          <circle cx="51.778" cy="14.317" r=".892" fill="#0c0d0b"/>
          <circle cx="52.228" cy="12.046" r="1.115" fill="#0c0d0b"/>
        </g>
        <g>
          <circle cx="49.543" cy="9.537" r=".595" fill="#0c0d0b"/>
          <circle cx="49.768" cy="8.071" r=".595" fill="#0c0d0b"/>
          <circle cx="51.255" cy="9.504" r=".892" fill="#0c0d0b"/>
          <circle cx="51.706" cy="7.233" r="1.115" fill="#0c0d0b"/>
        </g>
        <g>
          <circle cx="49.198" cy="4.725" r=".595" fill="#0c0d0b"/>
          <circle cx="48.973" cy="3.259" r=".595" fill="#0c0d0b"/>
          <circle cx="47.486" cy="4.692" r=".892" fill="#0c0d0b"/>
          <circle cx="47.035" cy="2.421" r="1.115" fill="#0c0d0b"/>
        </g>
        <circle cx="48.82" cy="13.322" r=".595" fill="#0c0d0b"/>
        <circle cx="48.594" cy="11.856" r=".595" fill="#0c0d0b"/>
        <circle cx="48.38" cy="6.81" r=".595" fill="#0c0d0b"/>
        <circle cx="51.552" cy="2.664" r=".595" fill="#0c0d0b"/>
        <circle cx="53.751" cy="6.125" r=".595" fill="#0c0d0b"/>
        <circle cx="51.228" cy="16.344" r=".595" fill="#0c0d0b"/>
        <circle cx="50.056" cy="18.183" r=".595" fill="#0c0d0b"/>
        <circle cx="49.011" cy="15.75" r=".595" fill="#0c0d0b"/>
        <circle cx="48.002" cy="14.794" r=".595" fill="#0c0d0b"/>
        <circle cx="46.217" cy="6.81" r=".595" fill="#0c0d0b"/>
        <circle cx="47.107" cy="13.289" r=".892" fill="#0c0d0b"/>
        <circle cx="46.657" cy="11.018" r="1.115" fill="#0c0d0b"/>
      </g>
      <circle cx="50.129" cy="1.236" r=".746" fill="#cb1e1a"/>
      <circle cx="47.05" cy="2.449" r=".746" fill="#cb1e1a"/>
      <circle cx="51.622" cy="4.781" r=".746" fill="#cb1e1a"/>
      <circle cx="46.677" cy="11.033" r=".746" fill="#cb1e1a"/>
      <circle cx="52.275" cy="12.059" r=".746" fill="#cb1e1a"/>
    </g>
  </g>
</svg>