<?xml version="1.0" encoding="UTF-8"?>
<svg xmlns="http://www.w3.org/2000/svg" width="100" height="100" viewBox="0 0 100 100">
  <g id="Tallo">
    <g>
      <g>
        <line x1="49.927" y1="99.995" x2="49.927" y2="5.242" fill="none" stroke="#0c0d0b" stroke-miterlimit="10" stroke-width=".537"/>
        <g>
          <polygon points="49.927 98.29 49.043 98.081 49.927 97.871 49.927 98.29 49.927 98.29" fill="#0c0d0b"/>
          <polygon points="49.927 99.427 50.81 99.218 49.927 99.008 49.927 99.427 49.927 99.427" fill="#0c0d0b"/>
        </g>
        <g>
          <polygon points="49.927 94.818 49.043 94.609 49.927 94.4 49.927 94.818 49.927 94.818" fill="#0c0d0b"/>
          <polygon points="49.927 95.955 50.81 95.746 49.927 95.537 49.927 95.955 49.927 95.955" fill="#0c0d0b"/>
        </g>
        <g>
          <polygon points="49.927 91.366 49.043 91.157 49.927 90.948 49.927 91.366 49.927 91.366" fill="#0c0d0b"/>
          <polygon points="49.927 92.503 50.81 92.294 49.927 92.085 49.927 92.503 49.927 92.503" fill="#0c0d0b"/>
        </g>
        <g>
          <polygon points="49.927 87.899 49.043 87.689 49.927 87.48 49.927 87.899 49.927 87.899" fill="#0c0d0b"/>
          <polygon points="49.927 89.036 50.81 88.826 49.927 88.617 49.927 89.036 49.927 89.036" fill="#0c0d0b"/>
        </g>
        <g>
          <polygon points="49.927 84.425 49.043 84.216 49.927 84.006 49.927 84.425 49.927 84.425" fill="#0c0d0b"/>
          <polygon points="49.927 85.562 50.81 85.353 49.927 85.143 49.927 85.562 49.927 85.562" fill="#0c0d0b"/>
        </g>
        <g>
          <polygon points="49.927 80.942 49.043 80.732 49.927 80.523 49.927 80.942 49.927 80.942" fill="#0c0d0b"/>
          <polygon points="49.927 82.079 50.81 81.869 49.927 81.66 49.927 82.079 49.927 82.079" fill="#0c0d0b"/>
        </g>
        <g>
          <polygon points="49.927 77.552 49.043 77.343 49.927 77.133 49.927 77.552 49.927 77.552" fill="#0c0d0b"/>
          <polygon points="49.927 78.689 50.81 78.48 49.927 78.271 49.927 78.689 49.927 78.689" fill="#0c0d0b"/>
        </g>
        <g>
          <polygon points="49.927 74.038 49.043 73.829 49.927 73.619 49.927 74.038 49.927 74.038" fill="#0c0d0b"/>
          <polygon points="49.927 75.175 50.81 74.966 49.927 74.757 49.927 75.175 49.927 75.175" fill="#0c0d0b"/>
        </g>
        <g>
          <polygon points="49.927 70.548 49.043 70.339 49.927 70.13 49.927 70.548 49.927 70.548" fill="#0c0d0b"/>
          <polygon points="49.927 71.685 50.81 71.476 49.927 71.267 49.927 71.685 49.927 71.685" fill="#0c0d0b"/>
        </g>
        <g>
          <polygon points="49.927 67.175 49.043 66.966 49.927 66.757 49.927 67.175 49.927 67.175" fill="#0c0d0b"/>
          <polygon points="49.927 68.312 50.81 68.103 49.927 67.894 49.927 68.312 49.927 68.312" fill="#0c0d0b"/>
        </g>
        <g>
          <polygon points="49.927 63.697 49.043 63.487 49.927 63.278 49.927 63.697 49.927 63.697" fill="#0c0d0b"/>
          <polygon points="49.927 64.834 50.81 64.624 49.927 64.415 49.927 64.834 49.927 64.834" fill="#0c0d0b"/>
        </g>
        <g>
          <polygon points="49.927 60.261 49.043 60.052 49.927 59.842 49.927 60.261 49.927 60.261" fill="#0c0d0b"/>
          <polygon points="49.927 61.398 50.81 61.189 49.927 60.979 49.927 61.398 49.927 61.398" fill="#0c0d0b"/>
        </g>
        <g>
          <polygon points="49.927 56.794 49.043 56.585 49.927 56.375 49.927 56.794 49.927 56.794" fill="#0c0d0b"/>
          <polygon points="49.927 57.931 50.81 57.722 49.927 57.512 49.927 57.931 49.927 57.931" fill="#0c0d0b"/>
        </g>
        <g>
          <polygon points="49.927 53.334 49.043 53.125 49.927 52.916 49.927 53.334 49.927 53.334" fill="#0c0d0b"/>
          <polygon points="49.927 54.472 50.81 54.262 49.927 54.053 49.927 54.472 49.927 54.472" fill="#0c0d0b"/>
        </g>
        <g>
          <polygon points="49.927 49.845 49.043 49.635 49.927 49.426 49.927 49.845 49.927 49.845" fill="#0c0d0b"/>
          <polygon points="49.927 50.982 50.81 50.772 49.927 50.563 49.927 50.982 49.927 50.982" fill="#0c0d0b"/>
        </g>
        <g>
          <polygon points="49.927 46.414 49.043 46.204 49.927 45.995 49.927 46.414 49.927 46.414" fill="#0c0d0b"/>
          <polygon points="49.927 47.551 50.81 47.341 49.927 47.132 49.927 47.551 49.927 47.551" fill="#0c0d0b"/>
        </g>
        <g>
          <polygon points="49.927 42.89 49.043 42.68 49.927 42.471 49.927 42.89 49.927 42.89" fill="#0c0d0b"/>
          <polygon points="49.927 44.027 50.81 43.817 49.927 43.608 49.927 44.027 49.927 44.027" fill="#0c0d0b"/>
        </g>
        <g>
          <polygon points="49.927 39.431 49.043 39.221 49.927 39.012 49.927 39.431 49.927 39.431" fill="#0c0d0b"/>
          <polygon points="49.927 40.568 50.81 40.358 49.927 40.149 49.927 40.568 49.927 40.568" fill="#0c0d0b"/>
        </g>
        <g>
          <polygon points="49.927 36.008 49.043 35.798 49.927 35.589 49.927 36.008 49.927 36.008" fill="#0c0d0b"/>
          <polygon points="49.927 37.145 50.81 36.936 49.927 36.726 49.927 37.145 49.927 37.145" fill="#0c0d0b"/>
        </g>
        <g>
          <polygon points="49.927 32.574 49.043 32.365 49.927 32.155 49.927 32.574 49.927 32.574" fill="#0c0d0b"/>
          <polygon points="49.927 33.711 50.81 33.502 49.927 33.292 49.927 33.711 49.927 33.711" fill="#0c0d0b"/>
        </g>
        <g>
          <polygon points="49.927 29.087 49.043 28.878 49.927 28.669 49.927 29.087 49.927 29.087" fill="#0c0d0b"/>
          <polygon points="49.927 30.224 50.81 30.015 49.927 29.806 49.927 30.224 49.927 30.224" fill="#0c0d0b"/>
        </g>
        <g>
          <polygon points="49.927 25.606 49.043 25.396 49.927 25.187 49.927 25.606 49.927 25.606" fill="#0c0d0b"/>
          <polygon points="49.927 26.743 50.81 26.533 49.927 26.324 49.927 26.743 49.927 26.743" fill="#0c0d0b"/>
        </g>
        <g>
          <polygon points="49.927 22.204 49.043 21.995 49.927 21.785 49.927 22.204 49.927 22.204" fill="#0c0d0b"/>
          <polygon points="49.927 23.341 50.81 23.132 49.927 22.922 49.927 23.341 49.927 23.341" fill="#0c0d0b"/>
        </g>
        <g>
          <polygon points="49.927 18.713 49.043 18.504 49.927 18.295 49.927 18.713 49.927 18.713" fill="#0c0d0b"/>
          <polygon points="49.927 19.85 50.81 19.641 49.927 19.432 49.927 19.85 49.927 19.85" fill="#0c0d0b"/>
        </g>
        <g>
          <polygon points="49.927 15.25 49.043 15.041 49.927 14.832 49.927 15.25 49.927 15.25" fill="#0c0d0b"/>
          <polygon points="49.927 16.387 50.81 16.178 49.927 15.969 49.927 16.387 49.927 16.387" fill="#0c0d0b"/>
        </g>
        <g>
          <polygon points="49.927 11.782 49.043 11.572 49.927 11.363 49.927 11.782 49.927 11.782" fill="#0c0d0b"/>
          <polygon points="49.927 12.919 50.81 12.709 49.927 12.5 49.927 12.919 49.927 12.919" fill="#0c0d0b"/>
        </g>
        <g>
          <polygon points="49.927 8.312 49.043 8.103 49.927 7.894 49.927 8.312 49.927 8.312" fill="#0c0d0b"/>
          <polygon points="49.927 9.449 50.81 9.24 49.927 9.031 49.927 9.449 49.927 9.449" fill="#0c0d0b"/>
        </g>
        <g>
          <polygon points="49.927 4.883 49.043 4.673 49.927 4.464 49.927 4.883 49.927 4.883" fill="#0c0d0b"/>
          <polygon points="49.927 6.02 50.81 5.81 49.927 5.601 49.927 6.02 49.927 6.02" fill="#0c0d0b"/>
        </g>
      </g>
      <g>
        <path d="M33.987,69.284v11.142c0,1.775,1.439,3.214,3.214,3.214h25.867c1.775,0,3.214-1.439,3.214-3.214v-11.142" fill="none" stroke="#0c0d0b" stroke-miterlimit="10" stroke-width=".269"/>
        <g>
          <polygon points="33.995 70.48 33.116 70.251 34.005 70.062 33.995 70.48 33.995 70.48" fill="#0c0d0b"/>
          <polygon points="33.969 71.617 34.858 71.428 33.979 71.198 33.969 71.617 33.969 71.617" fill="#0c0d0b"/>
        </g>
        <g>
          <polygon points="33.995 73.658 33.116 73.428 34.005 73.239 33.995 73.658 33.995 73.658" fill="#0c0d0b"/>
          <polygon points="33.969 74.794 34.858 74.605 33.979 74.376 33.969 74.794 33.969 74.794" fill="#0c0d0b"/>
        </g>
        <g>
          <polygon points="33.995 76.799 33.116 76.569 34.005 76.38 33.995 76.799 33.995 76.799" fill="#0c0d0b"/>
          <polygon points="33.969 77.935 34.858 77.746 33.979 77.517 33.969 77.935 33.969 77.935" fill="#0c0d0b"/>
        </g>
        <g>
          <polygon points="33.995 79.981 33.116 79.752 34.005 79.562 33.995 79.981 33.995 79.981" fill="#0c0d0b"/>
          <polygon points="33.969 81.118 34.858 80.929 33.979 80.699 33.969 81.118 33.969 81.118" fill="#0c0d0b"/>
        </g>
        <g>
          <polygon points="35.012 82.796 34.306 83.367 34.681 82.54 35.012 82.796 35.012 82.796" fill="#0c0d0b"/>
          <polygon points="35.912 83.491 36.286 82.664 35.58 83.235 35.912 83.491 35.912 83.491" fill="#0c0d0b"/>
        </g>
        <g>
          <polygon points="37.935 83.633 37.706 84.512 37.516 83.623 37.935 83.633 37.935 83.633" fill="#0c0d0b"/>
          <polygon points="39.072 83.659 38.883 82.77 38.653 83.649 39.072 83.659 39.072 83.659" fill="#0c0d0b"/>
        </g>
        <g>
          <polygon points="41.114 83.633 40.885 84.512 40.695 83.623 41.114 83.633 41.114 83.633" fill="#0c0d0b"/>
          <polygon points="42.251 83.659 42.062 82.77 41.832 83.649 42.251 83.659 42.251 83.659" fill="#0c0d0b"/>
        </g>
        <g>
          <polygon points="44.242 83.633 44.012 84.512 43.823 83.623 44.242 83.633 44.242 83.633" fill="#0c0d0b"/>
          <polygon points="45.378 83.659 45.189 82.77 44.96 83.649 45.378 83.659 45.378 83.659" fill="#0c0d0b"/>
        </g>
        <g>
          <polygon points="47.435 83.633 47.206 84.512 47.017 83.623 47.435 83.633 47.435 83.633" fill="#0c0d0b"/>
          <polygon points="48.572 83.659 48.383 82.77 48.154 83.649 48.572 83.659 48.572 83.659" fill="#0c0d0b"/>
        </g>
        <g>
          <polygon points="50.524 83.633 50.294 84.512 50.105 83.623 50.524 83.633 50.524 83.633" fill="#0c0d0b"/>
          <polygon points="51.66 83.659 51.471 82.77 51.242 83.649 51.66 83.659 51.66 83.659" fill="#0c0d0b"/>
        </g>
        <g>
          <polygon points="53.72 83.633 53.491 84.512 53.302 83.623 53.72 83.633 53.72 83.633" fill="#0c0d0b"/>
          <polygon points="54.857 83.659 54.668 82.77 54.438 83.649 54.857 83.659 54.857 83.659" fill="#0c0d0b"/>
        </g>
        <g>
          <polygon points="56.868 83.633 56.638 84.512 56.449 83.623 56.868 83.633 56.868 83.633" fill="#0c0d0b"/>
          <polygon points="58.005 83.659 57.815 82.77 57.586 83.649 58.005 83.659 58.005 83.659" fill="#0c0d0b"/>
        </g>
        <g>
          <polygon points="60.025 83.633 59.796 84.512 59.607 83.623 60.025 83.633 60.025 83.633" fill="#0c0d0b"/>
          <polygon points="61.162 83.659 60.973 82.77 60.743 83.649 61.162 83.659 61.162 83.659" fill="#0c0d0b"/>
        </g>
        <g>
          <polygon points="63.174 83.651 63.072 84.554 62.758 83.701 63.174 83.651 63.174 83.651" fill="#0c0d0b"/>
          <polygon points="64.303 83.515 63.989 82.663 63.887 83.565 64.303 83.515 64.303 83.515" fill="#0c0d0b"/>
        </g>
        <g>
          <polygon points="65.784 82.169 66.47 82.764 65.59 82.54 65.784 82.169 65.784 82.169" fill="#0c0d0b"/>
          <polygon points="66.312 81.161 65.432 80.937 66.118 81.532 66.312 81.161 66.312 81.161" fill="#0c0d0b"/>
        </g>
        <g>
          <polygon points="66.275 79.095 67.153 79.325 66.265 79.514 66.275 79.095 66.275 79.095" fill="#0c0d0b"/>
          <polygon points="66.3 77.959 65.412 78.148 66.291 78.377 66.3 77.959 66.3 77.959" fill="#0c0d0b"/>
        </g>
        <g>
          <polygon points="66.275 75.923 67.153 76.153 66.265 76.342 66.275 75.923 66.275 75.923" fill="#0c0d0b"/>
          <polygon points="66.3 74.786 65.412 74.976 66.291 75.205 66.3 74.786 66.3 74.786" fill="#0c0d0b"/>
        </g>
        <g>
          <polygon points="66.275 72.784 67.153 73.014 66.265 73.203 66.275 72.784 66.275 72.784" fill="#0c0d0b"/>
          <polygon points="66.3 71.648 65.412 71.837 66.291 72.066 66.3 71.648 66.3 71.648" fill="#0c0d0b"/>
        </g>
        <g>
          <polygon points="66.275 69.644 67.153 69.873 66.265 70.062 66.275 69.644 66.275 69.644" fill="#0c0d0b"/>
          <polygon points="66.3 68.507 65.412 68.696 66.291 68.925 66.3 68.507 66.3 68.507" fill="#0c0d0b"/>
        </g>
      </g>
      <g>
        <path d="M30.63,34.123v11.732c0,1.108.898,2.006,2.006,2.006h34.707c1.263,0,2.287-1.024,2.287-2.287v-11.452" fill="none" stroke="#0c0d0b" stroke-miterlimit="10" stroke-width=".191"/>
        <g>
          <polygon points="30.634 39.007 31.265 39.144 30.64 39.305 30.634 39.007 30.634 39.007" fill="#0c0d0b"/>
          <polygon points="30.62 38.198 29.994 38.358 30.625 38.496 30.62 38.198 30.62 38.198" fill="#0c0d0b"/>
        </g>
        <g>
          <polygon points="30.634 36.507 31.265 36.644 30.64 36.805 30.634 36.507 30.634 36.507" fill="#0c0d0b"/>
          <polygon points="30.62 35.698 29.994 35.858 30.625 35.996 30.62 35.698 30.62 35.698" fill="#0c0d0b"/>
        </g>
        <g>
          <polygon points="30.634 41.502 31.265 41.639 30.64 41.799 30.634 41.502 30.634 41.502" fill="#0c0d0b"/>
          <polygon points="30.62 40.693 29.994 40.853 30.625 40.991 30.62 40.693 30.62 40.693" fill="#0c0d0b"/>
        </g>
        <g>
          <polygon points="30.634 44.001 31.265 44.138 30.64 44.298 30.634 44.001 30.634 44.001" fill="#0c0d0b"/>
          <polygon points="30.62 43.192 29.994 43.352 30.625 43.49 30.62 43.192 30.62 43.192" fill="#0c0d0b"/>
        </g>
        <g>
          <polygon points="30.726 46.509 31.372 46.517 30.791 46.8 30.726 46.509 30.726 46.509" fill="#0c0d0b"/>
          <polygon points="30.55 45.72 29.969 46.002 30.615 46.01 30.55 45.72 30.55 45.72" fill="#0c0d0b"/>
        </g>
        <g>
          <polygon points="32.623 47.873 32.842 47.266 32.918 47.907 32.623 47.873 32.623 47.873" fill="#0c0d0b"/>
          <polygon points="31.819 47.781 31.895 48.423 32.115 47.815 31.819 47.781 31.819 47.781" fill="#0c0d0b"/>
        </g>
        <g>
          <polygon points="35.097 47.857 35.235 47.226 35.395 47.852 35.097 47.857 35.097 47.857" fill="#0c0d0b"/>
          <polygon points="34.289 47.872 34.449 48.498 34.586 47.866 34.289 47.872 34.289 47.872" fill="#0c0d0b"/>
        </g>
        <g>
          <polygon points="37.587 47.857 37.725 47.226 37.885 47.852 37.587 47.857 37.587 47.857" fill="#0c0d0b"/>
          <polygon points="36.779 47.872 36.939 48.498 37.076 47.866 36.779 47.872 36.779 47.872" fill="#0c0d0b"/>
        </g>
        <g>
          <polygon points="40.148 47.857 40.286 47.226 40.446 47.852 40.148 47.857 40.148 47.857" fill="#0c0d0b"/>
          <polygon points="39.34 47.872 39.5 48.498 39.637 47.866 39.34 47.872 39.34 47.872" fill="#0c0d0b"/>
        </g>
        <g>
          <polygon points="42.609 47.857 42.747 47.226 42.907 47.852 42.609 47.857 42.609 47.857" fill="#0c0d0b"/>
          <polygon points="41.8 47.872 41.961 48.498 42.098 47.866 41.8 47.872 41.8 47.872" fill="#0c0d0b"/>
        </g>
        <g>
          <polygon points="45.121 47.857 45.259 47.226 45.419 47.852 45.121 47.857 45.121 47.857" fill="#0c0d0b"/>
          <polygon points="44.312 47.872 44.473 48.498 44.61 47.866 44.312 47.872 44.312 47.872" fill="#0c0d0b"/>
        </g>
        <g>
          <polygon points="47.633 47.857 47.771 47.226 47.931 47.852 47.633 47.857 47.633 47.857" fill="#0c0d0b"/>
          <polygon points="46.824 47.872 46.984 48.498 47.122 47.866 46.824 47.872 46.824 47.872" fill="#0c0d0b"/>
        </g>
        <g>
          <polygon points="50.164 47.857 50.301 47.226 50.461 47.852 50.164 47.857 50.164 47.857" fill="#0c0d0b"/>
          <polygon points="49.355 47.872 49.515 48.498 49.653 47.866 49.355 47.872 49.355 47.872" fill="#0c0d0b"/>
        </g>
        <g>
          <polygon points="52.684 47.857 52.822 47.226 52.982 47.852 52.684 47.857 52.684 47.857" fill="#0c0d0b"/>
          <polygon points="51.875 47.872 52.035 48.498 52.173 47.866 51.875 47.872 51.875 47.872" fill="#0c0d0b"/>
        </g>
        <g>
          <polygon points="55.151 47.857 55.289 47.226 55.449 47.852 55.151 47.857 55.151 47.857" fill="#0c0d0b"/>
          <polygon points="54.342 47.872 54.502 48.498 54.64 47.866 54.342 47.872 54.342 47.872" fill="#0c0d0b"/>
        </g>
        <g>
          <polygon points="57.664 47.857 57.802 47.226 57.962 47.852 57.664 47.857 57.664 47.857" fill="#0c0d0b"/>
          <polygon points="56.855 47.872 57.015 48.498 57.153 47.866 56.855 47.872 56.855 47.872" fill="#0c0d0b"/>
        </g>
        <g>
          <polygon points="60.145 47.857 60.283 47.226 60.443 47.852 60.145 47.857 60.145 47.857" fill="#0c0d0b"/>
          <polygon points="59.336 47.872 59.496 48.498 59.634 47.866 59.336 47.872 59.336 47.872" fill="#0c0d0b"/>
        </g>
        <g>
          <polygon points="62.671 47.857 62.809 47.226 62.969 47.852 62.671 47.857 62.671 47.857" fill="#0c0d0b"/>
          <polygon points="61.862 47.872 62.022 48.498 62.16 47.866 61.862 47.872 61.862 47.872" fill="#0c0d0b"/>
        </g>
        <g>
          <polygon points="65.167 47.857 65.304 47.226 65.465 47.852 65.167 47.857 65.167 47.857" fill="#0c0d0b"/>
          <polygon points="64.358 47.872 64.518 48.498 64.656 47.866 64.358 47.872 64.358 47.872" fill="#0c0d0b"/>
        </g>
        <g>
          <polygon points="67.642 47.852 67.768 47.218 67.94 47.841 67.642 47.852 67.642 47.852" fill="#0c0d0b"/>
          <polygon points="66.834 47.882 67.005 48.505 67.131 47.871 66.834 47.882 66.834 47.882" fill="#0c0d0b"/>
        </g>
        <g>
          <polygon points="69.497 46.372 68.995 45.965 69.626 46.103 69.497 46.372 69.497 46.372" fill="#0c0d0b"/>
          <polygon points="69.147 47.101 69.778 47.239 69.276 46.832 69.147 47.101 69.147 47.101" fill="#0c0d0b"/>
        </g>
        <g>
          <polygon points="69.625 43.895 68.994 43.757 69.62 43.597 69.625 43.895 69.625 43.895" fill="#0c0d0b"/>
          <polygon points="69.639 44.704 70.265 44.544 69.634 44.406 69.639 44.704 69.639 44.704" fill="#0c0d0b"/>
        </g>
        <g>
          <polygon points="69.625 41.375 68.994 41.237 69.62 41.077 69.625 41.375 69.625 41.375" fill="#0c0d0b"/>
          <polygon points="69.639 42.183 70.265 42.023 69.634 41.886 69.639 42.183 69.639 42.183" fill="#0c0d0b"/>
        </g>
        <g>
          <polygon points="69.625 38.888 68.994 38.75 69.62 38.59 69.625 38.888 69.625 38.888" fill="#0c0d0b"/>
          <polygon points="69.639 39.697 70.265 39.537 69.634 39.399 69.639 39.697 69.639 39.697" fill="#0c0d0b"/>
        </g>
        <g>
          <polygon points="69.625 36.399 68.994 36.261 69.62 36.101 69.625 36.399 69.625 36.399" fill="#0c0d0b"/>
          <polygon points="69.639 37.207 70.265 37.047 69.634 36.91 69.639 37.207 69.639 37.207" fill="#0c0d0b"/>
        </g>
        <g>
          <polygon points="69.625 33.868 68.994 33.73 69.62 33.57 69.625 33.868 69.625 33.868" fill="#0c0d0b"/>
          <polygon points="69.639 34.677 70.265 34.516 69.634 34.379 69.639 34.677 69.639 34.677" fill="#0c0d0b"/>
        </g>
      </g>
    </g>
  </g>
  <g id="Hojas">
    <path d="M58.262,15.337c-1.662-.222-3.384.13-4.83.95,0,0-.074.042-.074.042-.19.107-.32.26-.423.464-.137.276-.202.606-.252.931-.053.347-.093.745-.165,1.082-.078.365-.197.73-.475.96l-2.188,1.252-2.148-1.229c-.299-.228-.423-.606-.504-.983-.071-.337-.112-.735-.165-1.082-.05-.325-.115-.654-.252-.931-.103-.204-.233-.357-.423-.464,0,0-.074-.042-.074-.042-1.446-.82-3.168-1.172-4.83-.95-.359.049-.725.119-1.074.236.073.36.196.712.332,1.048.639,1.55,1.805,2.865,3.238,3.708,0,0,.074.043.074.043.188.111.385.147.613.134.308-.019.626-.128.932-.247.327-.128.692-.292,1.019-.398.337-.109.694-.186,1.018-.086l2.241,1.283v-.002s.002.002.002.002l2.226-1.274c.332-.114.698-.035,1.045.077.327.107.692.271,1.019.398.306.119.624.228.932.247.228.013.425-.023.613-.134,0,0,.074-.043.074-.043,1.433-.842,2.599-2.158,3.238-3.708.137-.336.26-.688.332-1.048-.348-.117-.715-.187-1.074-.236Z" fill="#0c0d0b"/>
    <path d="M58.262,22.728c-1.662-.222-3.384.13-4.83.95,0,0-.074.042-.074.042-.19.107-.32.26-.423.464-.137.276-.202.606-.252.931-.053.347-.093.745-.165,1.082-.078.365-.197.73-.475.96l-2.188,1.252-2.148-1.229c-.299-.228-.423-.606-.504-.983-.071-.337-.112-.735-.165-1.082-.05-.325-.115-.654-.252-.931-.103-.204-.233-.357-.423-.464,0,0-.074-.042-.074-.042-1.446-.82-3.168-1.172-4.83-.95-.359.049-.725.119-1.074.236.073.36.196.712.332,1.048.639,1.55,1.805,2.865,3.238,3.708,0,0,.074.043.074.043.188.111.385.147.613.134.308-.019.626-.128.932-.247.327-.128.692-.292,1.019-.398.337-.109.694-.186,1.018-.086l2.241,1.283v-.002s.002.002.002.002l2.226-1.274c.332-.114.698-.035,1.045.077.327.107.692.271,1.019.398.306.119.624.228.932.247.228.013.425-.023.613-.134,0,0,.074-.043.074-.043,1.433-.842,2.599-2.158,3.238-3.708.137-.336.26-.688.332-1.048-.348-.117-.715-.187-1.074-.236Z" fill="#0c0d0b"/>
    <path d="M58.262,30.118c-1.662-.222-3.384.13-4.83.95,0,0-.074.042-.074.042-.19.107-.32.26-.423.464-.137.276-.202.606-.252.931-.053.347-.093.745-.165,1.082-.078.365-.197.73-.475.96l-2.188,1.252-2.148-1.229c-.299-.228-.423-.606-.504-.983-.071-.337-.112-.735-.165-1.082-.05-.325-.115-.654-.252-.931-.103-.204-.233-.357-.423-.464,0,0-.074-.042-.074-.042-1.446-.82-3.168-1.172-4.83-.95-.359.049-.725.119-1.074.236.073.36.196.712.332,1.048.639,1.55,1.805,2.865,3.238,3.708,0,0,.074.043.074.043.188.111.385.147.613.134.308-.019.626-.128.932-.247.327-.128.692-.292,1.019-.398.337-.109.694-.186,1.018-.086l2.241,1.283v-.002s.002.002.002.002l2.226-1.274c.332-.114.698-.035,1.045.077.327.107.692.271,1.019.398.306.119.624.228.932.247.228.013.425-.023.613-.134,0,0,.074-.043.074-.043,1.433-.842,2.599-2.158,3.238-3.708.137-.336.26-.688.332-1.048-.348-.117-.715-.187-1.074-.236Z" fill="#0c0d0b"/>
    <path d="M58.262,37.509c-1.662-.222-3.384.13-4.83.95,0,0-.074.042-.074.042-.19.107-.32.26-.423.464-.137.276-.202.606-.252.931-.053.347-.093.745-.165,1.082-.078.365-.197.73-.475.96l-2.188,1.252-2.148-1.229c-.299-.228-.423-.606-.504-.983-.071-.337-.112-.735-.165-1.082-.05-.325-.115-.654-.252-.931-.103-.204-.233-.357-.423-.464,0,0-.074-.042-.074-.042-1.446-.82-3.168-1.172-4.83-.95-.359.049-.725.119-1.074.236.073.36.196.712.332,1.048.639,1.55,1.805,2.865,3.238,3.708,0,0,.074.043.074.043.188.111.385.147.613.134.308-.019.626-.128.932-.247.327-.128.692-.292,1.019-.398.337-.109.694-.186,1.018-.086l2.241,1.283v-.002s.002.002.002.002l2.226-1.274c.332-.114.698-.035,1.045.077.327.107.692.271,1.019.398.306.119.624.228.932.247.228.013.425-.023.613-.134,0,0,.074-.043.074-.043,1.433-.842,2.599-2.158,3.238-3.708.137-.336.26-.688.332-1.048-.348-.117-.715-.187-1.074-.236Z" fill="#0c0d0b"/>
    <path d="M76.201,41.542c-1.329-.177-2.707.104-3.864.76,0,0-.059.034-.059.034-.152.086-.256.208-.338.371-.11.221-.162.485-.202.745-.042.278-.075.596-.132.866-.063.292-.158.584-.38.768l-1.751,1.002-1.718-.983c-.239-.182-.339-.485-.404-.786-.057-.269-.089-.588-.132-.866-.04-.26-.092-.523-.202-.745-.082-.163-.186-.286-.338-.371,0,0-.059-.034-.059-.034-1.157-.656-2.534-.937-3.864-.76-.287.04-.58.095-.859.189.058.288.157.57.266.838.511,1.24,1.444,2.292,2.59,2.966,0,0,.059.035.059.035.15.089.308.118.491.107.246-.015.501-.102.746-.198.262-.102.554-.233.816-.319.27-.087.555-.149.815-.068l1.793,1.026v-.002s.002.002.002.002l1.781-1.019c.265-.091.559-.028.836.062.262.085.554.217.816.319.245.095.499.182.746.198.183.011.34-.018.491-.107,0,0,.059-.035.059-.035,1.146-.674,2.079-1.726,2.59-2.966.109-.269.208-.55.266-.838-.279-.093-.572-.149-.859-.189Z" fill="#0c0d0b"/>
    <path d="M37.242,41.542c-1.329-.177-2.707.104-3.864.76,0,0-.059.034-.059.034-.152.086-.256.208-.338.371-.11.221-.162.485-.202.745-.042.278-.075.596-.132.866-.063.292-.158.584-.38.768l-1.751,1.002-1.718-.983c-.239-.182-.339-.485-.404-.786-.057-.269-.089-.588-.132-.866-.04-.26-.092-.523-.202-.745-.082-.163-.186-.286-.338-.371,0,0-.059-.034-.059-.034-1.157-.656-2.534-.937-3.864-.76-.287.04-.58.095-.859.189.058.288.157.57.266.838.511,1.24,1.444,2.292,2.59,2.966,0,0,.059.035.059.035.15.089.308.118.491.107.246-.015.501-.102.746-.198.262-.102.554-.233.816-.319.27-.087.555-.149.815-.068l1.793,1.026v-.002s.002.002.002.002l1.781-1.019c.265-.091.559-.028.836.062.262.085.554.217.816.319.245.095.499.182.746.198.183.011.34-.018.491-.107,0,0,.059-.035.059-.035,1.146-.674,2.079-1.726,2.59-2.966.109-.269.208-.55.266-.838-.279-.093-.572-.149-.859-.189Z" fill="#0c0d0b"/>
    <path d="M58.262,53.049c-1.662-.222-3.384.13-4.83.95,0,0-.074.042-.074.042-.19.107-.32.26-.423.464-.137.276-.202.606-.252.931-.053.347-.093.745-.165,1.082-.078.365-.197.73-.475.96l-2.188,1.252-2.148-1.229c-.299-.228-.423-.606-.504-.983-.071-.337-.112-.735-.165-1.082-.05-.325-.115-.654-.252-.931-.103-.204-.233-.357-.423-.464,0,0-.074-.042-.074-.042-1.446-.82-3.168-1.172-4.83-.95-.359.049-.725.119-1.074.236.073.36.196.712.332,1.048.639,1.55,1.805,2.865,3.238,3.708,0,0,.074.043.074.043.188.111.385.147.613.134.308-.019.626-.128.932-.247.327-.128.692-.292,1.019-.398.337-.109.694-.186,1.018-.086l2.241,1.283v-.002s.002.002.002.002l2.226-1.274c.332-.114.698-.035,1.045.077.327.107.692.271,1.019.398.306.119.624.228.932.247.228.013.425-.023.613-.134,0,0,.074-.043.074-.043,1.433-.842,2.599-2.158,3.238-3.708.137-.336.26-.688.332-1.048-.348-.117-.715-.187-1.074-.236Z" fill="#0c0d0b"/>
    <path d="M58.262,60.439c-1.662-.222-3.384.13-4.83.95,0,0-.074.042-.074.042-.19.107-.32.26-.423.464-.137.276-.202.606-.252.931-.053.347-.093.745-.165,1.082-.078.365-.197.73-.475.96l-2.188,1.252-2.148-1.229c-.299-.228-.423-.606-.504-.983-.071-.337-.112-.735-.165-1.082-.05-.325-.115-.654-.252-.931-.103-.204-.233-.357-.423-.464,0,0-.074-.042-.074-.042-1.446-.82-3.168-1.172-4.83-.95-.359.049-.725.119-1.074.236.073.36.196.712.332,1.048.639,1.55,1.805,2.865,3.238,3.708,0,0,.074.043.074.043.188.111.385.147.613.134.308-.019.626-.128.932-.247.327-.128.692-.292,1.019-.398.337-.109.694-.186,1.018-.086l2.241,1.283v-.002s.002.002.002.002l2.226-1.274c.332-.114.698-.035,1.045.077.327.107.692.271,1.019.398.306.119.624.228.932.247.228.013.425-.023.613-.134,0,0,.074-.043.074-.043,1.433-.842,2.599-2.158,3.238-3.708.137-.336.26-.688.332-1.048-.348-.117-.715-.187-1.074-.236Z" fill="#0c0d0b"/>
    <path d="M58.262,67.83c-1.662-.222-3.384.13-4.83.95,0,0-.074.042-.074.042-.19.107-.32.26-.423.464-.137.276-.202.606-.252.931-.053.347-.093.745-.165,1.082-.078.365-.197.73-.475.96l-2.188,1.252-2.148-1.229c-.299-.228-.423-.606-.504-.983-.071-.337-.112-.735-.165-1.082-.05-.325-.115-.654-.252-.931-.103-.204-.233-.357-.423-.464,0,0-.074-.042-.074-.042-1.446-.82-3.168-1.172-4.83-.95-.359.049-.725.119-1.074.236.073.36.196.712.332,1.048.639,1.55,1.805,2.865,3.238,3.708,0,0,.074.043.074.043.188.111.385.147.613.134.308-.019.626-.128.932-.247.327-.128.692-.292,1.019-.398.337-.109.694-.186,1.018-.086l2.241,1.283v-.002s.002.002.002.002l2.226-1.274c.332-.114.698-.035,1.045.077.327.107.692.271,1.019.398.306.119.624.228.932.247.228.013.425-.023.613-.134,0,0,.074-.043.074-.043,1.433-.842,2.599-2.158,3.238-3.708.137-.336.26-.688.332-1.048-.348-.117-.715-.187-1.074-.236Z" fill="#0c0d0b"/>
    <g>
      <path d="M38.102,75.43c.231,0,.417-.187.417-.417s-.187-.417-.417-.417-.417.187-.417.417.187.417.417.417Z"/>
      <path d="M40.328,73.928c.231,0,.417-.187.417-.417s-.187-.417-.417-.417-.417.187-.417.417.187.417.417.417Z"/>
      <circle cx="40.467" cy="75.848" r=".417"/>
      <path d="M37.991,77.768c.231,0,.417-.187.417-.417s-.187-.417-.417-.417-.417.187-.417.417.187.417.417.417Z"/>
      <path d="M43.25,75.43c-.05,0-.094.022-.125.056l-2.268-.648.609-.511c.061.057.156.061.221.006.071-.059.08-.164.021-.235-.059-.071-.164-.08-.235-.021-.055.046-.073.119-.05.183l-1.814,1.522c.007-.026.015-.052.022-.078.103-.38.169-.747.201-1.122.062-.728-.02-1.332-.087-1.818-.031-.224-.058-.424-.068-.607.012-.006.024-.013.035-.022.071-.059.08-.164.021-.235-.059-.071-.164-.08-.235-.021s-.08.164-.021.235c.032.038.076.058.122.06.011.183.038.381.068.601.066.482.148,1.081.086,1.8-.032.37-.097.733-.199,1.109-.011.04-.023.081-.035.122l-1.218-1.752.369-1.491c.005,0,.01,0,.015,0,.231,0,.417-.187.417-.417s-.187-.417-.417-.417-.417.187-.417.417c0,.198.138.364.323.406l-.35,1.415-.407-.585c.045-.067.072-.147.072-.234,0-.231-.187-.417-.417-.417s-.417.187-.417.417.187.417.417.417c.114,0,.218-.046.293-.121l.434.625h0s.001.002.001.002l1.273,1.831c-.106.345-.243.699-.409,1.055-.432.926-1.372,1.485-2.282,1.821v-2.378c.026-.005.052-.017.074-.036.071-.059.08-.164.021-.235-.059-.071-.164-.08-.235-.021s-.08.164-.021.235c.022.027.051.045.082.054v2.41c-.251.089-.499.162-.732.22-.594.15-1.159.228-1.578.269-.025-.239-.224-.425-.469-.425s-.444.187-.469.425c-.419-.041-.984-.12-1.578-.269-.233-.059-.481-.131-.732-.22v-2.41c.031-.009.06-.027.082-.054.059-.071.05-.176-.021-.235s-.176-.05-.235.021c-.059.071-.05.176.021.235.022.018.048.03.074.036v2.378c-.91-.335-1.85-.895-2.282-1.821-.166-.356-.303-.71-.409-1.055l1.273-1.831h.001s0-.002,0-.002l.434-.625c.075.074.179.121.293.121.231,0,.417-.187.417-.417s-.187-.417-.417-.417-.417.187-.417.417c0,.087.027.167.072.234l-.407.585-.35-1.415c.185-.043.323-.208.323-.406,0-.231-.187-.417-.417-.417s-.417.187-.417.417.187.417.417.417c.005,0,.01,0,.015,0l.369,1.491-1.218,1.752c-.012-.041-.024-.081-.035-.122-.102-.376-.167-.738-.199-1.109-.062-.719.02-1.319.086-1.8.03-.221.057-.419.068-.601.046-.002.09-.022.122-.06.059-.071.05-.176-.021-.235s-.176-.05-.235.021c-.059.071-.05.176.021.235.011.009.023.016.035.022-.011.183-.038.383-.068.607-.067.486-.149,1.09-.087,1.818.032.375.098.742.201,1.122.007.026.015.052.022.078l-1.814-1.522c.022-.064.004-.137-.05-.183-.071-.059-.176-.05-.235.021-.059.071-.05.176.021.235.066.055.161.051.221-.006l.609.511-2.268.648c-.031-.035-.075-.056-.125-.056-.092,0-.167.075-.167.167s.075.167.167.167.167-.075.167-.167c0-.013-.002-.027-.005-.039l2.304-.658,1.216,1.02c.107.351.246.71.415,1.072.578,1.238,2.03,1.832,3.147,2.113.601.151,1.171.23,1.594.271.016.247.22.443.471.443s.455-.196.471-.443c.423-.041.993-.12,1.594-.271,1.117-.281,2.569-.876,3.147-2.113.169-.361.307-.721.415-1.072l1.216-1.02,2.304.658c-.003.013-.005.026-.005.039,0,.092.075.167.167.167s.167-.075.167-.167-.075-.167-.167-.167Z"/>
      <path d="M30.199,75.013c0-.231-.187-.417-.417-.417s-.417.187-.417.417.187.417.417.417.417-.187.417-.417Z"/>
      <path d="M27.555,73.928c.231,0,.417-.187.417-.417s-.187-.417-.417-.417-.417.187-.417.417.187.417.417.417Z"/>
      <circle cx="27.416" cy="75.848" r=".417"/>
      <path d="M29.893,77.768c.231,0,.417-.187.417-.417s-.187-.417-.417-.417-.417.187-.417.417.187.417.417.417Z"/>
    </g>
    <g>
      <path d="M70.508,75.051c.231,0,.417-.187.417-.417s-.187-.417-.417-.417-.417.187-.417.417.187.417.417.417Z"/>
      <path d="M72.734,73.549c.231,0,.417-.187.417-.417s-.187-.417-.417-.417-.417.187-.417.417.187.417.417.417Z"/>
      <circle cx="72.873" cy="75.469" r=".417"/>
      <path d="M70.396,77.389c.231,0,.417-.187.417-.417s-.187-.417-.417-.417-.417.187-.417.417.187.417.417.417Z"/>
      <path d="M75.656,75.051c-.05,0-.094.022-.125.056l-2.268-.648.609-.511c.061.057.156.061.221.006.071-.059.08-.164.021-.235-.059-.071-.164-.08-.235-.021-.055.046-.073.119-.05.183l-1.814,1.522c.007-.026.015-.052.022-.078.103-.38.169-.747.201-1.122.062-.728-.02-1.332-.087-1.818-.031-.224-.058-.424-.068-.607.012-.006.024-.013.035-.022.071-.059.08-.164.021-.235-.059-.071-.164-.08-.235-.021s-.08.164-.021.235c.032.038.076.058.122.06.011.183.038.381.068.601.066.482.148,1.081.086,1.8-.032.37-.097.733-.199,1.109-.011.04-.023.081-.035.122l-1.218-1.752.369-1.491c.005,0,.01,0,.015,0,.231,0,.417-.187.417-.417s-.187-.417-.417-.417-.417.187-.417.417c0,.198.138.364.323.406l-.35,1.415-.407-.585c.045-.067.072-.147.072-.234,0-.231-.187-.417-.417-.417s-.417.187-.417.417.187.417.417.417c.114,0,.218-.046.293-.121l.434.625h0s.001.002.001.002l1.273,1.831c-.106.345-.243.699-.409,1.055-.432.926-1.372,1.485-2.282,1.821v-2.378c.026-.005.052-.017.074-.036.071-.059.08-.164.021-.235-.059-.071-.164-.08-.235-.021s-.08.164-.021.235c.022.027.051.045.082.054v2.41c-.251.089-.499.162-.732.22-.594.15-1.159.228-1.578.269-.025-.239-.224-.425-.469-.425s-.444.187-.469.425c-.419-.041-.984-.12-1.578-.269-.233-.059-.481-.131-.732-.22v-2.41c.031-.009.06-.027.082-.054.059-.071.05-.176-.021-.235s-.176-.05-.235.021c-.059.071-.05.176.021.235.022.018.048.03.074.036v2.378c-.91-.335-1.85-.895-2.282-1.821-.166-.356-.303-.71-.409-1.055l1.273-1.831h.001s0-.002,0-.002l.434-.625c.075.074.179.121.293.121.231,0,.417-.187.417-.417s-.187-.417-.417-.417-.417.187-.417.417c0,.087.027.167.072.234l-.407.585-.35-1.415c.185-.043.323-.208.323-.406,0-.231-.187-.417-.417-.417s-.417.187-.417.417.187.417.417.417c.005,0,.01,0,.015,0l.369,1.491-1.218,1.752c-.012-.041-.024-.081-.035-.122-.102-.376-.167-.738-.199-1.109-.062-.719.02-1.319.086-1.8.03-.221.057-.419.068-.601.046-.002.09-.022.122-.06.059-.071.05-.176-.021-.235s-.176-.05-.235.021c-.059.071-.05.176.021.235.011.009.023.016.035.022-.011.183-.038.383-.068.607-.067.486-.149,1.09-.087,1.818.032.375.098.742.201,1.122.007.026.015.052.022.078l-1.814-1.522c.022-.064.004-.137-.05-.183-.071-.059-.176-.05-.235.021-.059.071-.05.176.021.235.066.055.161.051.221-.006l.609.511-2.268.648c-.031-.035-.075-.056-.125-.056-.092,0-.167.075-.167.167s.075.167.167.167.167-.075.167-.167c0-.013-.002-.027-.005-.039l2.304-.658,1.216,1.02c.107.351.246.71.415,1.072.578,1.238,2.03,1.832,3.147,2.113.601.151,1.171.23,1.594.271.016.247.22.443.471.443s.455-.196.471-.443c.423-.041.993-.12,1.594-.271,1.117-.281,2.569-.876,3.147-2.113.169-.361.307-.721.415-1.072l1.216-1.02,2.304.658c-.003.013-.005.026-.005.039,0,.092.075.167.167.167s.167-.075.167-.167-.075-.167-.167-.167Z"/>
      <path d="M62.604,74.634c0-.231-.187-.417-.417-.417s-.417.187-.417.417.187.417.417.417.417-.187.417-.417Z"/>
      <path d="M59.961,73.549c.231,0,.417-.187.417-.417s-.187-.417-.417-.417-.417.187-.417.417.187.417.417.417Z"/>
      <circle cx="59.822" cy="75.469" r=".417"/>
      <path d="M62.298,77.389c.231,0,.417-.187.417-.417s-.187-.417-.417-.417-.417.187-.417.417.187.417.417.417Z"/>
    </g>
  </g>
  <g id="Flores">
    <g>
      <g>
        <polygon points="37.706 64.822 34.021 68.507 34.021 67.365 34.021 67.352 34.021 54.904 33.96 54.904 33.96 67.292 30.281 63.612 30.238 63.655 33.96 67.378 33.96 74.037 33.965 74.037 33.965 75.246 34.026 75.246 34.026 68.587 37.749 64.865 37.706 64.822" fill="#0c0d0b"/>
        <circle cx="30.235" cy="63.532" r="1.062" fill="#0c0d0b"/>
        <circle cx="33.991" cy="54.904" r="1.328" fill="#0c0d0b"/>
        <circle cx="35.793" cy="59.111" r="1.328" fill="#0c0d0b"/>
        <g>
          <circle cx="37.338" cy="65.352" r=".708" fill="#0c0d0b"/>
          <circle cx="37.607" cy="63.607" r=".708" fill="#0c0d0b"/>
          <circle cx="39.377" cy="65.313" r="1.062" fill="#0c0d0b"/>
          <circle cx="39.914" cy="62.609" r="1.328" fill="#0c0d0b"/>
        </g>
        <g>
          <circle cx="33.926" cy="70.524" r=".708" fill="#0c0d0b"/>
          <circle cx="34.194" cy="68.779" r=".708" fill="#0c0d0b"/>
          <circle cx="35.965" cy="70.485" r="1.062" fill="#0c0d0b"/>
          <circle cx="36.501" cy="67.781" r="1.328" fill="#0c0d0b"/>
        </g>
        <g>
          <circle cx="33.304" cy="64.794" r=".708" fill="#0c0d0b"/>
          <circle cx="33.572" cy="63.049" r=".708" fill="#0c0d0b"/>
          <circle cx="35.343" cy="64.755" r="1.062" fill="#0c0d0b"/>
          <circle cx="35.879" cy="62.051" r="1.328" fill="#0c0d0b"/>
        </g>
        <g>
          <circle cx="32.893" cy="59.064" r=".708" fill="#0c0d0b"/>
          <circle cx="32.625" cy="57.319" r=".708" fill="#0c0d0b"/>
          <circle cx="30.854" cy="59.025" r="1.062" fill="#0c0d0b"/>
          <circle cx="30.318" cy="56.321" r="1.328" fill="#0c0d0b"/>
        </g>
        <circle cx="32.443" cy="69.301" r=".708" fill="#0c0d0b"/>
        <circle cx="32.174" cy="67.556" r=".708" fill="#0c0d0b"/>
        <circle cx="31.92" cy="61.546" r=".708" fill="#0c0d0b"/>
        <circle cx="35.697" cy="56.61" r=".708" fill="#0c0d0b"/>
        <circle cx="38.315" cy="60.731" r=".708" fill="#0c0d0b"/>
        <circle cx="35.31" cy="72.899" r=".708" fill="#0c0d0b"/>
        <circle cx="33.915" cy="75.088" r=".708" fill="#0c0d0b"/>
        <circle cx="32.671" cy="72.191" r=".708" fill="#0c0d0b"/>
        <circle cx="31.469" cy="71.054" r=".708" fill="#0c0d0b"/>
        <circle cx="29.344" cy="61.546" r=".708" fill="#0c0d0b"/>
        <circle cx="30.404" cy="69.262" r="1.062" fill="#0c0d0b"/>
        <circle cx="29.867" cy="66.558" r="1.328" fill="#0c0d0b"/>
      </g>
      <circle cx="34.002" cy="54.91" r=".889" fill="#cb1e1a"/>
      <circle cx="30.335" cy="56.354" r=".889" fill="#cb1e1a"/>
      <circle cx="35.779" cy="59.131" r=".889" fill="#cb1e1a"/>
      <circle cx="29.891" cy="66.575" r=".889" fill="#cb1e1a"/>
      <circle cx="36.557" cy="67.797" r=".889" fill="#cb1e1a"/>
    </g>
    <g>
      <g>
        <polygon points="69.925 64.822 66.24 68.507 66.24 67.365 66.24 67.352 66.24 54.904 66.179 54.904 66.179 67.292 62.5 63.612 62.457 63.655 66.179 67.378 66.179 74.037 66.184 74.037 66.184 75.246 66.245 75.246 66.245 68.587 69.968 64.865 69.925 64.822" fill="#0c0d0b"/>
        <circle cx="62.454" cy="63.532" r="1.062" fill="#0c0d0b"/>
        <circle cx="66.21" cy="54.904" r="1.328" fill="#0c0d0b"/>
        <circle cx="68.012" cy="59.111" r="1.328" fill="#0c0d0b"/>
        <g>
          <circle cx="69.557" cy="65.352" r=".708" fill="#0c0d0b"/>
          <circle cx="69.826" cy="63.607" r=".708" fill="#0c0d0b"/>
          <circle cx="71.596" cy="65.313" r="1.062" fill="#0c0d0b"/>
          <circle cx="72.133" cy="62.609" r="1.328" fill="#0c0d0b"/>
        </g>
        <g>
          <circle cx="66.145" cy="70.524" r=".708" fill="#0c0d0b"/>
          <circle cx="66.413" cy="68.779" r=".708" fill="#0c0d0b"/>
          <circle cx="68.184" cy="70.485" r="1.062" fill="#0c0d0b"/>
          <circle cx="68.72" cy="67.781" r="1.328" fill="#0c0d0b"/>
        </g>
        <g>
          <circle cx="65.523" cy="64.794" r=".708" fill="#0c0d0b"/>
          <circle cx="65.791" cy="63.049" r=".708" fill="#0c0d0b"/>
          <circle cx="67.562" cy="64.755" r="1.062" fill="#0c0d0b"/>
          <circle cx="68.098" cy="62.051" r="1.328" fill="#0c0d0b"/>
        </g>
        <g>
          <circle cx="65.112" cy="59.064" r=".708" fill="#0c0d0b"/>
          <circle cx="64.844" cy="57.319" r=".708" fill="#0c0d0b"/>
          <circle cx="63.073" cy="59.025" r="1.062" fill="#0c0d0b"/>
          <circle cx="62.537" cy="56.321" r="1.328" fill="#0c0d0b"/>
        </g>
        <circle cx="64.662" cy="69.301" r=".708" fill="#0c0d0b"/>
        <circle cx="64.393" cy="67.556" r=".708" fill="#0c0d0b"/>
        <circle cx="64.139" cy="61.546" r=".708" fill="#0c0d0b"/>
        <circle cx="67.916" cy="56.61" r=".708" fill="#0c0d0b"/>
        <circle cx="70.534" cy="60.731" r=".708" fill="#0c0d0b"/>
        <circle cx="67.529" cy="72.899" r=".708" fill="#0c0d0b"/>
        <circle cx="66.134" cy="75.088" r=".708" fill="#0c0d0b"/>
        <circle cx="64.89" cy="72.191" r=".708" fill="#0c0d0b"/>
        <circle cx="63.688" cy="71.054" r=".708" fill="#0c0d0b"/>
        <circle cx="61.563" cy="61.546" r=".708" fill="#0c0d0b"/>
        <circle cx="62.623" cy="69.262" r="1.062" fill="#0c0d0b"/>
        <circle cx="62.086" cy="66.558" r="1.328" fill="#0c0d0b"/>
      </g>
      <circle cx="66.221" cy="54.91" r=".889" fill="#cb1e1a"/>
      <circle cx="62.554" cy="56.354" r=".889" fill="#cb1e1a"/>
      <circle cx="67.998" cy="59.131" r=".889" fill="#cb1e1a"/>
      <circle cx="62.11" cy="66.575" r=".889" fill="#cb1e1a"/>
      <circle cx="68.776" cy="67.797" r=".889" fill="#cb1e1a"/>
    </g>
    <g>
      <g>
        <polygon points="33.937 32.905 30.794 36.048 30.794 35.074 30.794 35.063 30.794 24.447 30.742 24.447 30.742 35.011 27.604 31.873 27.568 31.91 30.742 35.085 30.742 40.764 30.747 40.764 30.747 41.796 30.799 41.796 30.799 36.116 33.974 32.942 33.937 32.905" fill="#0c0d0b"/>
        <circle cx="27.565" cy="31.805" r=".906" fill="#0c0d0b"/>
        <circle cx="30.768" cy="24.447" r="1.133" fill="#0c0d0b"/>
        <circle cx="32.306" cy="28.034" r="1.133" fill="#0c0d0b"/>
        <g>
          <circle cx="33.623" cy="33.357" r=".604" fill="#0c0d0b"/>
          <circle cx="33.852" cy="31.869" r=".604" fill="#0c0d0b"/>
          <circle cx="35.362" cy="33.324" r=".906" fill="#0c0d0b"/>
          <circle cx="35.82" cy="31.018" r="1.133" fill="#0c0d0b"/>
        </g>
        <g>
          <circle cx="30.713" cy="37.768" r=".604" fill="#0c0d0b"/>
          <circle cx="30.942" cy="36.28" r=".604" fill="#0c0d0b"/>
          <circle cx="32.452" cy="37.735" r=".906" fill="#0c0d0b"/>
          <circle cx="32.91" cy="35.429" r="1.133" fill="#0c0d0b"/>
        </g>
        <g>
          <circle cx="30.182" cy="32.881" r=".604" fill="#0c0d0b"/>
          <circle cx="30.411" cy="31.393" r=".604" fill="#0c0d0b"/>
          <circle cx="31.921" cy="32.848" r=".906" fill="#0c0d0b"/>
          <circle cx="32.379" cy="30.542" r="1.133" fill="#0c0d0b"/>
        </g>
        <g>
          <circle cx="29.833" cy="27.994" r=".604" fill="#0c0d0b"/>
          <circle cx="29.604" cy="26.506" r=".604" fill="#0c0d0b"/>
          <circle cx="28.094" cy="27.961" r=".906" fill="#0c0d0b"/>
          <circle cx="27.636" cy="25.655" r="1.133" fill="#0c0d0b"/>
        </g>
        <circle cx="29.448" cy="36.725" r=".604" fill="#0c0d0b"/>
        <circle cx="29.219" cy="35.237" r=".604" fill="#0c0d0b"/>
        <circle cx="29.002" cy="30.112" r=".604" fill="#0c0d0b"/>
        <circle cx="32.223" cy="25.902" r=".604" fill="#0c0d0b"/>
        <circle cx="34.456" cy="29.416" r=".604" fill="#0c0d0b"/>
        <circle cx="31.894" cy="39.794" r=".604" fill="#0c0d0b"/>
        <circle cx="30.704" cy="41.661" r=".604" fill="#0c0d0b"/>
        <circle cx="29.643" cy="39.19" r=".604" fill="#0c0d0b"/>
        <circle cx="28.618" cy="38.22" r=".604" fill="#0c0d0b"/>
        <circle cx="26.806" cy="30.112" r=".604" fill="#0c0d0b"/>
        <circle cx="27.709" cy="36.692" r=".906" fill="#0c0d0b"/>
        <circle cx="27.252" cy="34.385" r="1.133" fill="#0c0d0b"/>
      </g>
      <circle cx="30.778" cy="24.451" r=".758" fill="#cb1e1a"/>
      <circle cx="27.651" cy="25.683" r=".758" fill="#cb1e1a"/>
      <circle cx="32.294" cy="28.052" r=".758" fill="#cb1e1a"/>
      <circle cx="27.272" cy="34.4" r=".758" fill="#cb1e1a"/>
      <circle cx="32.957" cy="35.443" r=".758" fill="#cb1e1a"/>
    </g>
    <g>
      <g>
        <polygon points="53.242 9.596 50.099 12.738 50.099 11.765 50.099 11.754 50.099 1.138 50.048 1.138 50.048 11.702 46.909 8.564 46.873 8.601 50.048 11.775 50.048 17.455 50.052 17.455 50.052 18.487 50.104 18.487 50.104 12.807 53.279 9.632 53.242 9.596" fill="#0c0d0b"/>
        <circle cx="46.87" cy="8.495" r=".906" fill="#0c0d0b"/>
        <circle cx="50.074" cy="1.138" r="1.133" fill="#0c0d0b"/>
        <circle cx="51.611" cy="4.725" r="1.133" fill="#0c0d0b"/>
        <g>
          <circle cx="52.929" cy="10.048" r=".604" fill="#0c0d0b"/>
          <circle cx="53.158" cy="8.559" r=".604" fill="#0c0d0b"/>
          <circle cx="54.668" cy="10.015" r=".906" fill="#0c0d0b"/>
          <circle cx="55.125" cy="7.708" r="1.133" fill="#0c0d0b"/>
        </g>
        <g>
          <circle cx="50.018" cy="14.459" r=".604" fill="#0c0d0b"/>
          <circle cx="50.247" cy="12.971" r=".604" fill="#0c0d0b"/>
          <circle cx="51.757" cy="14.426" r=".906" fill="#0c0d0b"/>
          <circle cx="52.215" cy="12.119" r="1.133" fill="#0c0d0b"/>
        </g>
        <g>
          <circle cx="49.488" cy="9.572" r=".604" fill="#0c0d0b"/>
          <circle cx="49.717" cy="8.084" r=".604" fill="#0c0d0b"/>
          <circle cx="51.227" cy="9.539" r=".906" fill="#0c0d0b"/>
          <circle cx="51.684" cy="7.232" r="1.133" fill="#0c0d0b"/>
        </g>
        <g>
          <circle cx="49.138" cy="4.685" r=".604" fill="#0c0d0b"/>
          <circle cx="48.909" cy="3.197" r=".604" fill="#0c0d0b"/>
          <circle cx="47.399" cy="4.652" r=".906" fill="#0c0d0b"/>
          <circle cx="46.941" cy="2.346" r="1.133" fill="#0c0d0b"/>
        </g>
        <circle cx="48.753" cy="13.416" r=".604" fill="#0c0d0b"/>
        <circle cx="48.524" cy="11.927" r=".604" fill="#0c0d0b"/>
        <circle cx="48.307" cy="6.802" r=".604" fill="#0c0d0b"/>
        <circle cx="51.529" cy="2.593" r=".604" fill="#0c0d0b"/>
        <circle cx="53.762" cy="6.107" r=".604" fill="#0c0d0b"/>
        <circle cx="51.199" cy="16.485" r=".604" fill="#0c0d0b"/>
        <circle cx="50.009" cy="18.352" r=".604" fill="#0c0d0b"/>
        <circle cx="48.948" cy="15.881" r=".604" fill="#0c0d0b"/>
        <circle cx="47.923" cy="14.911" r=".604" fill="#0c0d0b"/>
        <circle cx="46.111" cy="6.802" r=".604" fill="#0c0d0b"/>
        <circle cx="47.014" cy="13.382" r=".906" fill="#0c0d0b"/>
        <circle cx="46.557" cy="11.076" r="1.133" fill="#0c0d0b"/>
      </g>
      <circle cx="50.083" cy="1.142" r=".758" fill="#cb1e1a"/>
      <circle cx="46.956" cy="2.374" r=".758" fill="#cb1e1a"/>
      <circle cx="51.599" cy="4.743" r=".758" fill="#cb1e1a"/>
      <circle cx="46.577" cy="11.091" r=".758" fill="#cb1e1a"/>
      <circle cx="52.262" cy="12.133" r=".758" fill="#cb1e1a"/>
    </g>
    <g>
      <g>
        <polygon points="72.67 32.905 69.528 36.048 69.528 35.074 69.528 35.063 69.528 24.447 69.476 24.447 69.476 35.011 66.338 31.873 66.301 31.91 69.476 35.085 69.476 40.764 69.48 40.764 69.48 41.796 69.532 41.796 69.532 36.116 72.707 32.942 72.67 32.905" fill="#0c0d0b"/>
        <circle cx="66.299" cy="31.805" r=".906" fill="#0c0d0b"/>
        <circle cx="69.502" cy="24.447" r="1.133" fill="#0c0d0b"/>
        <circle cx="71.039" cy="28.034" r="1.133" fill="#0c0d0b"/>
        <g>
          <circle cx="72.357" cy="33.357" r=".604" fill="#0c0d0b"/>
          <circle cx="72.586" cy="31.869" r=".604" fill="#0c0d0b"/>
          <circle cx="74.096" cy="33.324" r=".906" fill="#0c0d0b"/>
          <circle cx="74.553" cy="31.018" r="1.133" fill="#0c0d0b"/>
        </g>
        <g>
          <circle cx="69.447" cy="37.768" r=".604" fill="#0c0d0b"/>
          <circle cx="69.676" cy="36.28" r=".604" fill="#0c0d0b"/>
          <circle cx="71.186" cy="37.735" r=".906" fill="#0c0d0b"/>
          <circle cx="71.643" cy="35.429" r="1.133" fill="#0c0d0b"/>
        </g>
        <g>
          <circle cx="68.916" cy="32.881" r=".604" fill="#0c0d0b"/>
          <circle cx="69.145" cy="31.393" r=".604" fill="#0c0d0b"/>
          <circle cx="70.655" cy="32.848" r=".906" fill="#0c0d0b"/>
          <circle cx="71.112" cy="30.542" r="1.133" fill="#0c0d0b"/>
        </g>
        <g>
          <circle cx="68.566" cy="27.994" r=".604" fill="#0c0d0b"/>
          <circle cx="68.337" cy="26.506" r=".604" fill="#0c0d0b"/>
          <circle cx="66.827" cy="27.961" r=".906" fill="#0c0d0b"/>
          <circle cx="66.369" cy="25.655" r="1.133" fill="#0c0d0b"/>
        </g>
        <circle cx="68.182" cy="36.725" r=".604" fill="#0c0d0b"/>
        <circle cx="67.953" cy="35.237" r=".604" fill="#0c0d0b"/>
        <circle cx="67.735" cy="30.112" r=".604" fill="#0c0d0b"/>
        <circle cx="70.957" cy="25.902" r=".604" fill="#0c0d0b"/>
        <circle cx="73.19" cy="29.416" r=".604" fill="#0c0d0b"/>
        <circle cx="70.627" cy="39.794" r=".604" fill="#0c0d0b"/>
        <circle cx="69.438" cy="41.661" r=".604" fill="#0c0d0b"/>
        <circle cx="68.376" cy="39.19" r=".604" fill="#0c0d0b"/>
        <circle cx="67.351" cy="38.22" r=".604" fill="#0c0d0b"/>
        <circle cx="65.539" cy="30.112" r=".604" fill="#0c0d0b"/>
        <circle cx="66.443" cy="36.692" r=".906" fill="#0c0d0b"/>
        <circle cx="65.985" cy="34.385" r="1.133" fill="#0c0d0b"/>
      </g>
      <circle cx="69.511" cy="24.451" r=".758" fill="#cb1e1a"/>
      <circle cx="66.384" cy="25.683" r=".758" fill="#cb1e1a"/>
      <circle cx="71.027" cy="28.052" r=".758" fill="#cb1e1a"/>
      <circle cx="66.005" cy="34.4" r=".758" fill="#cb1e1a"/>
      <circle cx="71.691" cy="35.443" r=".758" fill="#cb1e1a"/>
    </g>
  </g>
</svg>