<?xml version="1.0" encoding="UTF-8"?>
<svg xmlns="http://www.w3.org/2000/svg" width="100" height="100" viewBox="0 0 100 100">
  <g id="Tallo">
    <g>
      <g>
        <line x1="50.291" y1="99.995" x2="50.291" y2="2.062" fill="none" stroke="#0c0d0b" stroke-miterlimit="10" stroke-width=".555"/>
        <g>
          <polygon points="50.291 98.233 49.378 98.016 50.291 97.8 50.291 98.233 50.291 98.233" fill="#0c0d0b"/>
          <polygon points="50.291 99.408 51.205 99.192 50.291 98.975 50.291 99.408 50.291 99.408" fill="#0c0d0b"/>
        </g>
        <g>
          <polygon points="50.291 94.645 49.378 94.428 50.291 94.212 50.291 94.645 50.291 94.645" fill="#0c0d0b"/>
          <polygon points="50.291 95.82 51.205 95.603 50.291 95.387 50.291 95.82 50.291 95.82" fill="#0c0d0b"/>
        </g>
        <g>
          <polygon points="50.291 91.077 49.378 90.86 50.291 90.644 50.291 91.077 50.291 91.077" fill="#0c0d0b"/>
          <polygon points="50.291 92.252 51.205 92.036 50.291 91.819 50.291 92.252 50.291 92.252" fill="#0c0d0b"/>
        </g>
        <g>
          <polygon points="50.291 87.493 49.378 87.276 50.291 87.06 50.291 87.493 50.291 87.493" fill="#0c0d0b"/>
          <polygon points="50.291 88.668 51.205 88.452 50.291 88.235 50.291 88.668 50.291 88.668" fill="#0c0d0b"/>
        </g>
        <g>
          <polygon points="50.291 83.902 49.378 83.686 50.291 83.47 50.291 83.902 50.291 83.902" fill="#0c0d0b"/>
          <polygon points="50.291 85.078 51.205 84.861 50.291 84.645 50.291 85.078 50.291 85.078" fill="#0c0d0b"/>
        </g>
        <g>
          <polygon points="50.291 80.302 49.378 80.086 50.291 79.87 50.291 80.302 50.291 80.302" fill="#0c0d0b"/>
          <polygon points="50.291 81.478 51.205 81.261 50.291 81.045 50.291 81.478 50.291 81.478" fill="#0c0d0b"/>
        </g>
        <g>
          <polygon points="50.291 76.799 49.378 76.583 50.291 76.366 50.291 76.799 50.291 76.799" fill="#0c0d0b"/>
          <polygon points="50.291 77.974 51.205 77.758 50.291 77.541 50.291 77.974 50.291 77.974" fill="#0c0d0b"/>
        </g>
        <g>
          <polygon points="50.291 73.167 49.378 72.951 50.291 72.734 50.291 73.167 50.291 73.167" fill="#0c0d0b"/>
          <polygon points="50.291 74.342 51.205 74.126 50.291 73.91 50.291 74.342 50.291 74.342" fill="#0c0d0b"/>
        </g>
        <g>
          <polygon points="50.291 69.56 49.378 69.344 50.291 69.127 50.291 69.56 50.291 69.56" fill="#0c0d0b"/>
          <polygon points="50.291 70.735 51.205 70.519 50.291 70.303 50.291 70.735 50.291 70.735" fill="#0c0d0b"/>
        </g>
        <g>
          <polygon points="50.291 66.074 49.378 65.858 50.291 65.641 50.291 66.074 50.291 66.074" fill="#0c0d0b"/>
          <polygon points="50.291 67.249 51.205 67.033 50.291 66.816 50.291 67.249 50.291 67.249" fill="#0c0d0b"/>
        </g>
        <g>
          <polygon points="50.291 62.479 49.378 62.262 50.291 62.046 50.291 62.479 50.291 62.479" fill="#0c0d0b"/>
          <polygon points="50.291 63.654 51.205 63.438 50.291 63.221 50.291 63.654 50.291 63.654" fill="#0c0d0b"/>
        </g>
        <g>
          <polygon points="50.291 58.928 49.378 58.711 50.291 58.495 50.291 58.928 50.291 58.928" fill="#0c0d0b"/>
          <polygon points="50.291 60.103 51.205 59.887 50.291 59.67 50.291 60.103 50.291 60.103" fill="#0c0d0b"/>
        </g>
        <g>
          <polygon points="50.291 55.344 49.378 55.128 50.291 54.912 50.291 55.344 50.291 55.344" fill="#0c0d0b"/>
          <polygon points="50.291 56.519 51.205 56.303 50.291 56.087 50.291 56.519 50.291 56.519" fill="#0c0d0b"/>
        </g>
        <g>
          <polygon points="50.291 51.769 49.378 51.552 50.291 51.336 50.291 51.769 50.291 51.769" fill="#0c0d0b"/>
          <polygon points="50.291 52.944 51.205 52.728 50.291 52.511 50.291 52.944 50.291 52.944" fill="#0c0d0b"/>
        </g>
        <g>
          <polygon points="50.291 48.162 49.378 47.945 50.291 47.729 50.291 48.162 50.291 48.162" fill="#0c0d0b"/>
          <polygon points="50.291 49.337 51.205 49.121 50.291 48.904 50.291 49.337 50.291 49.337" fill="#0c0d0b"/>
        </g>
        <g>
          <polygon points="50.291 44.616 49.378 44.399 50.291 44.183 50.291 44.616 50.291 44.616" fill="#0c0d0b"/>
          <polygon points="50.291 45.791 51.205 45.575 50.291 45.358 50.291 45.791 50.291 45.791" fill="#0c0d0b"/>
        </g>
        <g>
          <polygon points="50.291 40.973 49.378 40.757 50.291 40.541 50.291 40.973 50.291 40.973" fill="#0c0d0b"/>
          <polygon points="50.291 42.148 51.205 41.932 50.291 41.716 50.291 42.148 50.291 42.148" fill="#0c0d0b"/>
        </g>
        <g>
          <polygon points="50.291 37.398 49.378 37.182 50.291 36.966 50.291 37.398 50.291 37.398" fill="#0c0d0b"/>
          <polygon points="50.291 38.574 51.205 38.357 50.291 38.141 50.291 38.574 50.291 38.574" fill="#0c0d0b"/>
        </g>
        <g>
          <polygon points="50.291 33.861 49.378 33.644 50.291 33.428 50.291 33.861 50.291 33.861" fill="#0c0d0b"/>
          <polygon points="50.291 35.036 51.205 34.819 50.291 34.603 50.291 35.036 50.291 35.036" fill="#0c0d0b"/>
        </g>
        <g>
          <polygon points="50.291 30.311 49.378 30.095 50.291 29.879 50.291 30.311 50.291 30.311" fill="#0c0d0b"/>
          <polygon points="50.291 31.487 51.205 31.27 50.291 31.054 50.291 31.487 50.291 31.487" fill="#0c0d0b"/>
        </g>
        <g>
          <polygon points="50.291 26.708 49.378 26.492 50.291 26.275 50.291 26.708 50.291 26.708" fill="#0c0d0b"/>
          <polygon points="50.291 27.883 51.205 27.667 50.291 27.45 50.291 27.883 50.291 27.883" fill="#0c0d0b"/>
        </g>
        <g>
          <polygon points="50.291 23.109 49.378 22.893 50.291 22.677 50.291 23.109 50.291 23.109" fill="#0c0d0b"/>
          <polygon points="50.291 24.285 51.205 24.068 50.291 23.852 50.291 24.285 50.291 24.285" fill="#0c0d0b"/>
        </g>
        <g>
          <polygon points="50.291 19.594 49.378 19.377 50.291 19.161 50.291 19.594 50.291 19.594" fill="#0c0d0b"/>
          <polygon points="50.291 20.769 51.205 20.553 50.291 20.336 50.291 20.769 50.291 20.769" fill="#0c0d0b"/>
        </g>
        <g>
          <polygon points="50.291 15.986 49.378 15.769 50.291 15.553 50.291 15.986 50.291 15.986" fill="#0c0d0b"/>
          <polygon points="50.291 17.161 51.205 16.945 50.291 16.728 50.291 17.161 50.291 17.161" fill="#0c0d0b"/>
        </g>
        <g>
          <polygon points="50.291 12.407 49.378 12.19 50.291 11.974 50.291 12.407 50.291 12.407" fill="#0c0d0b"/>
          <polygon points="50.291 13.582 51.205 13.365 50.291 13.149 50.291 13.582 50.291 13.582" fill="#0c0d0b"/>
        </g>
        <g>
          <polygon points="50.291 8.822 49.378 8.605 50.291 8.389 50.291 8.822 50.291 8.822" fill="#0c0d0b"/>
          <polygon points="50.291 9.997 51.205 9.78 50.291 9.564 50.291 9.997 50.291 9.997" fill="#0c0d0b"/>
        </g>
        <g>
          <polygon points="50.291 5.236 49.378 5.019 50.291 4.803 50.291 5.236 50.291 5.236" fill="#0c0d0b"/>
          <polygon points="50.291 6.411 51.205 6.194 50.291 5.978 50.291 6.411 50.291 6.411" fill="#0c0d0b"/>
        </g>
        <g>
          <polygon points="50.291 1.691 49.378 1.474 50.291 1.258 50.291 1.691 50.291 1.691" fill="#0c0d0b"/>
          <polygon points="50.291 2.866 51.205 2.65 50.291 2.433 50.291 2.866 50.291 2.866" fill="#0c0d0b"/>
        </g>
      </g>
      <g>
        <path d="M33.817,68.254v11.516c0,1.835,1.487,3.322,3.322,3.322h26.735c1.835,0,3.322-1.487,3.322-3.322v-11.516" fill="none" stroke="#0c0d0b" stroke-miterlimit="10" stroke-width=".278"/>
        <g>
          <polygon points="33.825 69.49 32.917 69.253 33.835 69.057 33.825 69.49 33.825 69.49" fill="#0c0d0b"/>
          <polygon points="33.798 70.665 34.717 70.469 33.808 70.232 33.798 70.665 33.798 70.665" fill="#0c0d0b"/>
        </g>
        <g>
          <polygon points="33.825 72.774 32.917 72.537 33.835 72.341 33.825 72.774 33.825 72.774" fill="#0c0d0b"/>
          <polygon points="33.798 73.949 34.717 73.753 33.808 73.516 33.798 73.949 33.798 73.949" fill="#0c0d0b"/>
        </g>
        <g>
          <polygon points="33.825 76.02 32.917 75.783 33.835 75.588 33.825 76.02 33.825 76.02" fill="#0c0d0b"/>
          <polygon points="33.798 77.195 34.717 77 33.808 76.762 33.798 77.195 33.798 77.195" fill="#0c0d0b"/>
        </g>
        <g>
          <polygon points="33.825 79.309 32.917 79.072 33.835 78.877 33.825 79.309 33.825 79.309" fill="#0c0d0b"/>
          <polygon points="33.798 80.484 34.717 80.289 33.808 80.052 33.798 80.484 33.798 80.484" fill="#0c0d0b"/>
        </g>
        <g>
          <polygon points="34.876 82.219 34.146 82.809 34.534 81.954 34.876 82.219 34.876 82.219" fill="#0c0d0b"/>
          <polygon points="35.806 82.938 36.193 82.083 35.463 82.673 35.806 82.938 35.806 82.938" fill="#0c0d0b"/>
        </g>
        <g>
          <polygon points="37.897 83.084 37.66 83.992 37.465 83.074 37.897 83.084 37.897 83.084" fill="#0c0d0b"/>
          <polygon points="39.072 83.11 38.877 82.192 38.64 83.101 39.072 83.11 39.072 83.11" fill="#0c0d0b"/>
        </g>
        <g>
          <polygon points="41.183 83.084 40.946 83.992 40.75 83.074 41.183 83.084 41.183 83.084" fill="#0c0d0b"/>
          <polygon points="42.358 83.11 42.162 82.192 41.925 83.101 42.358 83.11 42.358 83.11" fill="#0c0d0b"/>
        </g>
        <g>
          <polygon points="44.415 83.084 44.178 83.992 43.983 83.074 44.415 83.084 44.415 83.084" fill="#0c0d0b"/>
          <polygon points="45.59 83.11 45.395 82.192 45.158 83.101 45.59 83.11 45.59 83.11" fill="#0c0d0b"/>
        </g>
        <g>
          <polygon points="47.717 83.084 47.479 83.992 47.284 83.074 47.717 83.084 47.717 83.084" fill="#0c0d0b"/>
          <polygon points="48.891 83.11 48.696 82.192 48.459 83.101 48.891 83.11 48.891 83.11" fill="#0c0d0b"/>
        </g>
        <g>
          <polygon points="50.908 83.084 50.671 83.992 50.476 83.074 50.908 83.084 50.908 83.084" fill="#0c0d0b"/>
          <polygon points="52.083 83.11 51.888 82.192 51.651 83.101 52.083 83.11 52.083 83.11" fill="#0c0d0b"/>
        </g>
        <g>
          <polygon points="54.212 83.084 53.975 83.992 53.779 83.074 54.212 83.084 54.212 83.084" fill="#0c0d0b"/>
          <polygon points="55.387 83.11 55.191 82.192 54.954 83.101 55.387 83.11 55.387 83.11" fill="#0c0d0b"/>
        </g>
        <g>
          <polygon points="57.465 83.084 57.228 83.992 57.033 83.074 57.465 83.084 57.465 83.084" fill="#0c0d0b"/>
          <polygon points="58.64 83.11 58.445 82.192 58.208 83.101 58.64 83.11 58.64 83.11" fill="#0c0d0b"/>
        </g>
        <g>
          <polygon points="60.729 83.084 60.492 83.992 60.296 83.074 60.729 83.084 60.729 83.084" fill="#0c0d0b"/>
          <polygon points="61.904 83.11 61.708 82.192 61.471 83.101 61.904 83.11 61.904 83.11" fill="#0c0d0b"/>
        </g>
        <g>
          <polygon points="63.983 83.103 63.878 84.035 63.554 83.155 63.983 83.103 63.983 83.103" fill="#0c0d0b"/>
          <polygon points="65.15 82.962 64.825 82.081 64.72 83.014 65.15 82.962 65.15 82.962" fill="#0c0d0b"/>
        </g>
        <g>
          <polygon points="66.681 81.57 67.39 82.186 66.481 81.954 66.681 81.57 66.681 81.57" fill="#0c0d0b"/>
          <polygon points="67.226 80.529 66.317 80.297 67.026 80.913 67.226 80.529 67.226 80.529" fill="#0c0d0b"/>
        </g>
        <g>
          <polygon points="67.188 78.394 68.096 78.631 67.178 78.827 67.188 78.394 67.188 78.394" fill="#0c0d0b"/>
          <polygon points="67.214 77.219 66.296 77.415 67.205 77.652 67.214 77.219 67.214 77.219" fill="#0c0d0b"/>
        </g>
        <g>
          <polygon points="67.188 75.115 68.096 75.352 67.178 75.548 67.188 75.115 67.188 75.115" fill="#0c0d0b"/>
          <polygon points="67.214 73.941 66.296 74.136 67.205 74.373 67.214 73.941 67.214 73.941" fill="#0c0d0b"/>
        </g>
        <g>
          <polygon points="67.188 71.871 68.096 72.108 67.178 72.304 67.188 71.871 67.188 71.871" fill="#0c0d0b"/>
          <polygon points="67.214 70.696 66.296 70.892 67.205 71.129 67.214 70.696 67.214 70.696" fill="#0c0d0b"/>
        </g>
        <g>
          <polygon points="67.188 68.625 68.096 68.862 67.178 69.058 67.188 68.625 67.188 68.625" fill="#0c0d0b"/>
          <polygon points="67.214 67.45 66.296 67.646 67.205 67.883 67.214 67.45 67.214 67.45" fill="#0c0d0b"/>
        </g>
      </g>
      <g>
        <path d="M30.347,31.913v12.126c0,1.145.928,2.074,2.074,2.074h35.871c1.305,0,2.363-1.058,2.363-2.363v-11.836" fill="none" stroke="#0c0d0b" stroke-miterlimit="10" stroke-width=".197"/>
        <g>
          <polygon points="30.351 36.96 31.004 37.102 30.357 37.268 30.351 36.96 30.351 36.96" fill="#0c0d0b"/>
          <polygon points="30.337 36.124 29.69 36.29 30.342 36.432 30.337 36.124 30.337 36.124" fill="#0c0d0b"/>
        </g>
        <g>
          <polygon points="30.351 34.376 31.004 34.519 30.357 34.684 30.351 34.376 30.351 34.376" fill="#0c0d0b"/>
          <polygon points="30.337 33.54 29.69 33.706 30.342 33.848 30.337 33.54 30.337 33.54" fill="#0c0d0b"/>
        </g>
        <g>
          <polygon points="30.351 39.539 31.004 39.681 30.357 39.847 30.351 39.539 30.351 39.539" fill="#0c0d0b"/>
          <polygon points="30.337 38.703 29.69 38.868 30.342 39.011 30.337 38.703 30.337 38.703" fill="#0c0d0b"/>
        </g>
        <g>
          <polygon points="30.351 42.122 31.004 42.264 30.357 42.429 30.351 42.122 30.351 42.122" fill="#0c0d0b"/>
          <polygon points="30.337 41.286 29.69 41.451 30.342 41.594 30.337 41.286 30.337 41.286" fill="#0c0d0b"/>
        </g>
        <g>
          <polygon points="30.446 44.714 31.114 44.723 30.513 45.015 30.446 44.714 30.446 44.714" fill="#0c0d0b"/>
          <polygon points="30.264 43.898 29.664 44.19 30.331 44.199 30.264 43.898 30.264 43.898" fill="#0c0d0b"/>
        </g>
        <g>
          <polygon points="32.407 46.124 32.634 45.496 32.712 46.16 32.407 46.124 32.407 46.124" fill="#0c0d0b"/>
          <polygon points="31.576 46.029 31.655 46.692 31.882 46.064 31.576 46.029 31.576 46.029" fill="#0c0d0b"/>
        </g>
        <g>
          <polygon points="34.964 46.108 35.107 45.455 35.272 46.102 34.964 46.108 34.964 46.108" fill="#0c0d0b"/>
          <polygon points="34.128 46.123 34.294 46.77 34.436 46.117 34.128 46.123 34.128 46.123" fill="#0c0d0b"/>
        </g>
        <g>
          <polygon points="37.538 46.108 37.68 45.455 37.846 46.102 37.538 46.108 37.538 46.108" fill="#0c0d0b"/>
          <polygon points="36.702 46.123 36.868 46.77 37.01 46.117 36.702 46.123 36.702 46.123" fill="#0c0d0b"/>
        </g>
        <g>
          <polygon points="40.185 46.108 40.327 45.455 40.493 46.102 40.185 46.108 40.185 46.108" fill="#0c0d0b"/>
          <polygon points="39.349 46.123 39.515 46.77 39.657 46.117 39.349 46.123 39.349 46.123" fill="#0c0d0b"/>
        </g>
        <g>
          <polygon points="42.728 46.108 42.871 45.455 43.036 46.102 42.728 46.108 42.728 46.108" fill="#0c0d0b"/>
          <polygon points="41.892 46.123 42.058 46.77 42.2 46.117 41.892 46.123 41.892 46.123" fill="#0c0d0b"/>
        </g>
        <g>
          <polygon points="45.325 46.108 45.467 45.455 45.632 46.102 45.325 46.108 45.325 46.108" fill="#0c0d0b"/>
          <polygon points="44.489 46.123 44.654 46.77 44.796 46.117 44.489 46.123 44.489 46.123" fill="#0c0d0b"/>
        </g>
        <g>
          <polygon points="47.921 46.108 48.063 45.455 48.228 46.102 47.921 46.108 47.921 46.108" fill="#0c0d0b"/>
          <polygon points="47.085 46.123 47.25 46.77 47.392 46.117 47.085 46.123 47.085 46.123" fill="#0c0d0b"/>
        </g>
        <g>
          <polygon points="50.536 46.108 50.679 45.455 50.844 46.102 50.536 46.108 50.536 46.108" fill="#0c0d0b"/>
          <polygon points="49.7 46.123 49.866 46.77 50.008 46.117 49.7 46.123 49.7 46.123" fill="#0c0d0b"/>
        </g>
        <g>
          <polygon points="53.141 46.108 53.284 45.455 53.449 46.102 53.141 46.108 53.141 46.108" fill="#0c0d0b"/>
          <polygon points="52.305 46.123 52.471 46.77 52.613 46.117 52.305 46.123 52.305 46.123" fill="#0c0d0b"/>
        </g>
        <g>
          <polygon points="55.691 46.108 55.833 45.455 55.999 46.102 55.691 46.108 55.691 46.108" fill="#0c0d0b"/>
          <polygon points="54.855 46.123 55.021 46.77 55.163 46.117 54.855 46.123 54.855 46.123" fill="#0c0d0b"/>
        </g>
        <g>
          <polygon points="58.288 46.108 58.431 45.455 58.596 46.102 58.288 46.108 58.288 46.108" fill="#0c0d0b"/>
          <polygon points="57.452 46.123 57.618 46.77 57.76 46.117 57.452 46.123 57.452 46.123" fill="#0c0d0b"/>
        </g>
        <g>
          <polygon points="60.853 46.108 60.995 45.455 61.16 46.102 60.853 46.108 60.853 46.108" fill="#0c0d0b"/>
          <polygon points="60.017 46.123 60.182 46.77 60.325 46.117 60.017 46.123 60.017 46.123" fill="#0c0d0b"/>
        </g>
        <g>
          <polygon points="63.463 46.108 63.606 45.455 63.771 46.102 63.463 46.108 63.463 46.108" fill="#0c0d0b"/>
          <polygon points="62.627 46.123 62.793 46.77 62.935 46.117 62.627 46.123 62.627 46.123" fill="#0c0d0b"/>
        </g>
        <g>
          <polygon points="66.043 46.108 66.185 45.455 66.351 46.102 66.043 46.108 66.043 46.108" fill="#0c0d0b"/>
          <polygon points="65.207 46.123 65.372 46.77 65.515 46.117 65.207 46.123 65.207 46.123" fill="#0c0d0b"/>
        </g>
        <g>
          <polygon points="68.601 46.102 68.731 45.447 68.909 46.091 68.601 46.102 68.601 46.102" fill="#0c0d0b"/>
          <polygon points="67.766 46.133 67.943 46.777 68.073 46.122 67.766 46.133 67.766 46.133" fill="#0c0d0b"/>
        </g>
        <g>
          <polygon points="70.519 44.572 70 44.152 70.652 44.295 70.519 44.572 70.519 44.572" fill="#0c0d0b"/>
          <polygon points="70.156 45.326 70.808 45.469 70.29 45.048 70.156 45.326 70.156 45.326" fill="#0c0d0b"/>
        </g>
        <g>
          <polygon points="70.651 42.012 69.998 41.87 70.645 41.705 70.651 42.012 70.651 42.012" fill="#0c0d0b"/>
          <polygon points="70.665 42.848 71.312 42.683 70.66 42.541 70.665 42.848 70.665 42.848" fill="#0c0d0b"/>
        </g>
        <g>
          <polygon points="70.651 39.407 69.998 39.265 70.645 39.1 70.651 39.407 70.651 39.407" fill="#0c0d0b"/>
          <polygon points="70.665 40.243 71.312 40.078 70.66 39.936 70.665 40.243 70.665 40.243" fill="#0c0d0b"/>
        </g>
        <g>
          <polygon points="70.651 36.837 69.998 36.695 70.645 36.53 70.651 36.837 70.651 36.837" fill="#0c0d0b"/>
          <polygon points="70.665 37.673 71.312 37.508 70.66 37.366 70.665 37.673 70.665 37.673" fill="#0c0d0b"/>
        </g>
        <g>
          <polygon points="70.651 34.265 69.998 34.122 70.645 33.957 70.651 34.265 70.651 34.265" fill="#0c0d0b"/>
          <polygon points="70.665 35.101 71.312 34.935 70.66 34.793 70.665 35.101 70.665 35.101" fill="#0c0d0b"/>
        </g>
        <g>
          <polygon points="70.651 31.649 69.998 31.506 70.645 31.341 70.651 31.649 70.651 31.649" fill="#0c0d0b"/>
          <polygon points="70.665 32.485 71.312 32.319 70.66 32.177 70.665 32.485 70.665 32.485" fill="#0c0d0b"/>
        </g>
      </g>
    </g>
  </g>
  <g id="Hojas">
    <path d="M77.999,40.43c-.03-.148-.072-.294-.127-.436-.023-.065-.057-.14-.085-.203-.116-.242-.247-.45-.428-.672-.154-.182-.31-.343-.51-.496-.047.009-.143.031-.19.042-.384.093-.786.206-1.144.32-.03.009-.085.027-.113.037-.104.034-.209.07-.311.107-.056.021-.118.044-.173.066-.354.145-.646.283-.89.529-.095.097-.17.211-.241.327-.248.404-.377.853-.534,1.315-.068.206-.146.42-.229.621-.074.174-.157.352-.249.517-.433.8-1.143,1.422-2.045,1.606-.08.016-.16.032-.241.046-.081-.014-.161-.03-.241-.046-.902-.185-1.613-.806-2.045-1.606-.092-.166-.175-.343-.249-.517-.082-.201-.16-.415-.229-.621-.157-.462-.286-.911-.534-1.315-.071-.116-.146-.229-.241-.327-.243-.246-.535-.384-.89-.529-.055-.022-.117-.045-.173-.066-.102-.037-.207-.074-.311-.107-.029-.009-.084-.028-.113-.037-.358-.115-.76-.227-1.144-.32-.046-.011-.143-.033-.19-.042-.199.154-.356.315-.51.496-.181.222-.312.43-.428.672-.028.064-.062.138-.085.203-.055.141-.097.287-.127.436-.124.6-.03,1.23.263,1.767.082.15.179.291.283.426.128.164.269.32.422.463.878.819,1.98,1.113,3.155,1.132.606.013,1.243-.042,1.84-.056.329-.008.659-.002.986.026.054.004.108.01.163.016.257,0,.527,0,.789,0,.057-.006.113-.012.168-.016.327-.028.657-.033.986-.026.597.013,1.234.069,1.84.056,1.175-.019,2.277-.313,3.155-1.132.153-.142.294-.298.422-.463.104-.135.201-.276.283-.426.293-.537.387-1.167.263-1.767Z" fill="#0c0d0b"/>
    <path d="M77.999,34.077c-.03-.148-.072-.294-.127-.436-.023-.065-.057-.14-.085-.203-.116-.242-.247-.45-.428-.672-.154-.182-.31-.343-.51-.496-.047.009-.143.031-.19.042-.384.093-.786.206-1.144.32-.03.009-.085.027-.113.037-.104.034-.209.07-.311.107-.056.021-.118.044-.173.066-.354.145-.646.283-.89.529-.095.097-.17.211-.241.327-.248.404-.377.853-.534,1.315-.068.206-.146.42-.229.621-.074.174-.157.352-.249.517-.433.8-1.143,1.422-2.045,1.606-.08.016-.16.032-.241.046-.081-.014-.161-.03-.241-.046-.902-.185-1.613-.806-2.045-1.606-.092-.166-.175-.343-.249-.517-.082-.201-.16-.415-.229-.621-.157-.462-.286-.911-.534-1.315-.071-.116-.146-.229-.241-.327-.243-.246-.535-.384-.89-.529-.055-.022-.117-.045-.173-.066-.102-.037-.207-.074-.311-.107-.029-.009-.084-.028-.113-.037-.358-.115-.76-.227-1.144-.32-.046-.011-.143-.033-.19-.042-.199.154-.356.315-.51.496-.181.222-.312.43-.428.672-.028.064-.062.138-.085.203-.055.141-.097.287-.127.436-.124.6-.03,1.23.263,1.767.082.15.179.291.283.426.128.164.269.32.422.463.878.819,1.98,1.113,3.155,1.132.606.013,1.243-.042,1.84-.056.329-.008.659-.002.986.026.054.004.108.01.163.016.257,0,.527,0,.789,0,.057-.006.113-.012.168-.016.327-.028.657-.033.986-.026.597.013,1.234.069,1.84.056,1.175-.019,2.277-.313,3.155-1.132.153-.142.294-.298.422-.463.104-.135.201-.276.283-.426.293-.537.387-1.167.263-1.767Z" fill="#0c0d0b"/>
    <path d="M71.934,75.882c-.019-.093-.045-.184-.079-.272-.015-.041-.036-.087-.053-.127-.072-.151-.154-.281-.267-.42-.096-.114-.194-.214-.319-.31-.029.006-.09.02-.119.026-.24.058-.491.128-.715.2-.019.005-.053.017-.071.023-.065.021-.131.044-.195.067-.035.013-.074.028-.108.041-.221.09-.404.177-.556.331-.059.061-.106.132-.15.204-.155.253-.236.533-.334.822-.043.129-.091.263-.143.388-.046.109-.098.22-.156.323-.27.5-.715.888-1.278,1.004-.05.01-.1.02-.151.029-.05-.009-.101-.019-.151-.029-.564-.115-1.008-.504-1.278-1.004-.057-.103-.109-.214-.156-.323-.052-.126-.1-.26-.143-.388-.098-.289-.179-.569-.334-.822-.044-.072-.091-.143-.15-.204-.152-.154-.335-.24-.556-.331-.035-.014-.073-.028-.108-.041-.064-.023-.13-.046-.195-.067-.018-.006-.052-.018-.071-.023-.224-.072-.475-.142-.715-.2-.029-.007-.089-.021-.119-.026-.125.096-.222.197-.319.31-.113.139-.195.269-.267.42-.018.04-.039.086-.053.127-.034.088-.06.18-.079.272-.077.375-.019.769.165,1.104.051.094.112.182.177.266.08.103.168.2.264.289.548.512,1.237.696,1.972.708.379.008.777-.027,1.15-.035.206-.005.412-.001.616.016.033.003.068.006.102.01.161,0,.329,0,.493,0,.036-.004.071-.007.105-.01.204-.017.411-.021.616-.016.373.008.771.043,1.15.035.735-.012,1.423-.196,1.972-.708.095-.089.184-.186.264-.289.065-.084.126-.172.177-.266.183-.335.242-.729.165-1.104Z" fill="#0c0d0b"/>
    <path d="M38.492,75.882c-.019-.093-.045-.184-.079-.272-.015-.041-.036-.087-.053-.127-.072-.151-.154-.281-.267-.42-.096-.114-.194-.214-.319-.31-.029.006-.09.02-.119.026-.24.058-.491.128-.715.2-.019.005-.053.017-.071.023-.065.021-.131.044-.195.067-.035.013-.074.028-.108.041-.221.09-.404.177-.556.331-.059.061-.106.132-.15.204-.155.253-.236.533-.334.822-.043.129-.091.263-.143.388-.046.109-.098.22-.156.323-.27.5-.715.888-1.278,1.004-.05.01-.1.02-.151.029-.05-.009-.101-.019-.151-.029-.564-.115-1.008-.504-1.278-1.004-.057-.103-.109-.214-.156-.323-.052-.126-.1-.26-.143-.388-.098-.289-.179-.569-.334-.822-.044-.072-.091-.143-.15-.204-.152-.154-.335-.24-.556-.331-.035-.014-.073-.028-.108-.041-.064-.023-.13-.046-.195-.067-.018-.006-.052-.018-.071-.023-.224-.072-.475-.142-.715-.2-.029-.007-.089-.021-.119-.026-.125.096-.222.197-.319.31-.113.139-.195.269-.267.42-.018.04-.039.086-.053.127-.034.088-.06.18-.079.272-.077.375-.019.769.165,1.104.051.094.112.182.177.266.08.103.168.2.264.289.548.512,1.237.696,1.972.708.379.008.777-.027,1.15-.035.206-.005.412-.001.616.016.033.003.068.006.102.01.161,0,.329,0,.493,0,.036-.004.071-.007.105-.01.204-.017.411-.021.616-.016.373.008.771.043,1.15.035.735-.012,1.423-.196,1.972-.708.095-.089.184-.186.264-.289.065-.084.126-.172.177-.266.183-.335.242-.729.165-1.104Z" fill="#0c0d0b"/>
    <path d="M59.624,39.454c-1.02-2.276-2.983-2.198-5.102-1.884-2.18.323-3.925,3.768-3.925,3.768l.078-2.355c1.727-3.061,6.041-3.699,6.593-3.846,1.177-.314,1.413-.706,1.413-.706,0,0,1.805-2.826-1.884-2.904s-6.201,5.651-6.201,5.651v-3.584c.021-.131.047-.246.078-.341.314-.942,3.139-2.516,4.16-2.669,1.57-.235,1.962-.549,1.962-.549,0,0,2.041-1.413,1.02-3.061-2.817-4.534-7.598,2.687-7.198,2.747h-.361c.4-.06-4.381-7.281-7.198-2.747-1.02,1.648,1.02,3.061,1.02,3.061,0,0,.392.314,1.962.549,1.021.153,3.846,1.727,4.16,2.669.032.095.057.21.078.341v3.584s-2.512-5.73-6.201-5.651-1.884,2.904-1.884,2.904c0,0,.235.392,1.413.706.552.147,4.866.785,6.593,3.846l.078,2.355s-1.745-3.445-3.925-3.768c-2.119-.314-4.082-.392-5.102,1.884s1.177,3.454,1.177,3.454c0,0,1.256.628,2.119.706.774.07,5.016.015,5.887.002.871.012,5.113.068,5.887-.002.863-.078,2.119-.706,2.119-.706,0,0,2.198-1.177,1.177-3.454Z" fill="#0c0d0b"/>
    <path d="M59.624,76.512c-1.02-2.276-2.983-2.198-5.102-1.884-2.18.323-3.925,3.768-3.925,3.768l.078-2.355c1.727-3.061,6.041-3.699,6.593-3.846,1.177-.314,1.413-.706,1.413-.706,0,0,1.805-2.826-1.884-2.904s-6.201,5.651-6.201,5.651v-3.584c.021-.131.047-.246.078-.341.314-.942,3.139-2.516,4.16-2.669,1.57-.235,1.962-.549,1.962-.549,0,0,2.041-1.413,1.02-3.061-2.817-4.534-7.598,2.687-7.198,2.747h-.361c.4-.06-4.381-7.281-7.198-2.747-1.02,1.648,1.02,3.061,1.02,3.061,0,0,.392.314,1.962.549,1.021.153,3.846,1.727,4.16,2.669.032.095.057.21.078.341v3.584s-2.512-5.73-6.201-5.651-1.884,2.904-1.884,2.904c0,0,.235.392,1.413.706.552.147,4.866.785,6.593,3.846l.078,2.355s-1.745-3.445-3.925-3.768c-2.119-.314-4.082-.392-5.102,1.884s1.177,3.454,1.177,3.454c0,0,1.256.628,2.119.706.774.07,5.016.015,5.887.002.871.012,5.113.068,5.887-.002.863-.078,2.119-.706,2.119-.706,0,0,2.198-1.177,1.177-3.454Z" fill="#0c0d0b"/>
    <path d="M37.809,40.43c-.03-.148-.072-.294-.127-.436-.023-.065-.057-.14-.085-.203-.116-.242-.247-.45-.428-.672-.154-.182-.31-.343-.51-.496-.047.009-.143.031-.19.042-.384.093-.786.206-1.144.32-.03.009-.085.027-.113.037-.104.034-.209.07-.311.107-.056.021-.118.044-.173.066-.354.145-.646.283-.89.529-.095.097-.17.211-.241.327-.248.404-.377.853-.534,1.315-.068.206-.146.42-.229.621-.074.174-.157.352-.249.517-.433.8-1.143,1.422-2.045,1.606-.08.016-.16.032-.241.046-.081-.014-.161-.03-.241-.046-.902-.185-1.613-.806-2.045-1.606-.092-.166-.175-.343-.249-.517-.082-.201-.16-.415-.229-.621-.157-.462-.286-.911-.534-1.315-.071-.116-.146-.229-.241-.327-.243-.246-.535-.384-.89-.529-.055-.022-.117-.045-.173-.066-.102-.037-.207-.074-.311-.107-.029-.009-.084-.028-.113-.037-.358-.115-.76-.227-1.144-.32-.046-.011-.143-.033-.19-.042-.199.154-.356.315-.51.496-.181.222-.312.43-.428.672-.028.064-.062.138-.085.203-.055.141-.097.287-.127.436-.124.6-.03,1.23.263,1.767.082.15.179.291.283.426.128.164.269.32.422.463.878.819,1.98,1.113,3.155,1.132.606.013,1.243-.042,1.84-.056.329-.008.659-.002.986.026.054.004.108.01.163.016.257,0,.527,0,.789,0,.057-.006.113-.012.168-.016.327-.028.657-.033.986-.026.597.013,1.234.069,1.84.056,1.175-.019,2.277-.313,3.155-1.132.153-.142.294-.298.422-.463.104-.135.201-.276.283-.426.293-.537.387-1.167.263-1.767Z" fill="#0c0d0b"/>
    <path d="M37.809,34.077c-.03-.148-.072-.294-.127-.436-.023-.065-.057-.14-.085-.203-.116-.242-.247-.45-.428-.672-.154-.182-.31-.343-.51-.496-.047.009-.143.031-.19.042-.384.093-.786.206-1.144.32-.03.009-.085.027-.113.037-.104.034-.209.07-.311.107-.056.021-.118.044-.173.066-.354.145-.646.283-.89.529-.095.097-.17.211-.241.327-.248.404-.377.853-.534,1.315-.068.206-.146.42-.229.621-.074.174-.157.352-.249.517-.433.8-1.143,1.422-2.045,1.606-.08.016-.16.032-.241.046-.081-.014-.161-.03-.241-.046-.902-.185-1.613-.806-2.045-1.606-.092-.166-.175-.343-.249-.517-.082-.201-.16-.415-.229-.621-.157-.462-.286-.911-.534-1.315-.071-.116-.146-.229-.241-.327-.243-.246-.535-.384-.89-.529-.055-.022-.117-.045-.173-.066-.102-.037-.207-.074-.311-.107-.029-.009-.084-.028-.113-.037-.358-.115-.76-.227-1.144-.32-.046-.011-.143-.033-.19-.042-.199.154-.356.315-.51.496-.181.222-.312.43-.428.672-.028.064-.062.138-.085.203-.055.141-.097.287-.127.436-.124.6-.03,1.23.263,1.767.082.15.179.291.283.426.128.164.269.32.422.463.878.819,1.98,1.113,3.155,1.132.606.013,1.243-.042,1.84-.056.329-.008.659-.002.986.026.054.004.108.01.163.016.257,0,.527,0,.789,0,.057-.006.113-.012.168-.016.327-.028.657-.033.986-.026.597.013,1.234.069,1.84.056,1.175-.019,2.277-.313,3.155-1.132.153-.142.294-.298.422-.463.104-.135.201-.276.283-.426.293-.537.387-1.167.263-1.767Z" fill="#0c0d0b"/>
  </g>
  <g id="Flores">
    <g>
      <g>
        <ellipse cx="67.341" cy="59.007" rx="1.905" ry="1.334" fill="#0c0d0b"/>
        <path d="M72.261,67.862c-1.522-.701-3.374.252-4.281,1.548-.194.236-.369.605-.476.688v-1.451c.416-1.187,1.734-1.712,3.083-2.184.922-.301,3.041-.888,2.676-2.136-.715-1.043-2.427-.919-3.436-.261-1.13.71-1.787,1.827-2.323,2.644v-1.892c.436-1.054,1.549-1.576,3.044-2.108.633-.228,1.154-.209,1.475-.573,1.599-2.894-1.875-4.551-3.974-.218-.114.256-.417.804-.544,1.16v-2.195h-.327v2.857c-.33-.858-.913-2.82-1.851-3.179-1.593-.359-1.164,1.513-.574,2.317.431.68,1.135,1.325,1.68,1.791.547.419.749.904.746,1.604-.007.217-.003.457,0,.703v.675c-.006.226-.021.443-.054.637-.05.086-.283-.089-.333-.158-.728-1.189-1.491-2.992-2.421-4.164-.85-1.281-3.035-.278-2.103,1.214.55.98,1.587,1.509,2.468,2.236.611.598,2.024,1.22,2.443,2.053v.78c-.223.148-.689-.093-.991-.277-1.411-.929-7.53-5.185-7.078-1.107.6,2.468,3.024,3.172,5.165,2.987,2.522-.054,5.575.11,7.532-.07,2.233-.644,2.828-2.864.455-3.92Z" fill="#0c0d0b"/>
      </g>
      <circle cx="67.341" cy="59.143" r=".599" fill="#cb1e1a"/>
    </g>
    <g>
      <g>
        <ellipse cx="33.811" cy="59.007" rx="1.905" ry="1.334" fill="#0c0d0b"/>
        <path d="M38.731,67.862c-1.522-.701-3.374.252-4.281,1.548-.194.236-.369.605-.476.688v-1.451c.416-1.187,1.734-1.712,3.083-2.184.922-.301,3.041-.888,2.676-2.136-.715-1.043-2.427-.919-3.436-.261-1.13.71-1.787,1.827-2.323,2.644v-1.892c.436-1.054,1.549-1.576,3.044-2.108.633-.228,1.154-.209,1.475-.573,1.599-2.894-1.875-4.551-3.974-.218-.114.256-.417.804-.544,1.16v-2.195h-.327v2.857c-.33-.858-.913-2.82-1.851-3.179-1.593-.359-1.164,1.513-.574,2.317.431.68,1.135,1.325,1.68,1.791.547.419.749.904.746,1.604-.007.217-.003.457,0,.703v.675c-.006.226-.021.443-.054.637-.05.086-.283-.089-.333-.158-.728-1.189-1.491-2.992-2.421-4.164-.85-1.281-3.035-.278-2.103,1.214.55.98,1.587,1.509,2.468,2.236.611.598,2.024,1.22,2.443,2.053v.78c-.223.148-.689-.093-.991-.277-1.411-.929-7.53-5.185-7.078-1.107.6,2.468,3.024,3.172,5.165,2.987,2.522-.054,5.575.11,7.532-.07,2.233-.644,2.828-2.864.455-3.92Z" fill="#0c0d0b"/>
      </g>
      <circle cx="33.811" cy="59.143" r=".599" fill="#cb1e1a"/>
    </g>
    <g>
      <g>
        <ellipse cx="50.473" cy="1.721" rx="2.451" ry="1.716" fill="#0c0d0b"/>
        <path d="M56.802,13.112c-1.958-.901-4.34.324-5.507,1.992-.249.303-.475.779-.612.885v-1.867c.536-1.527,2.231-2.203,3.966-2.81,1.186-.387,3.913-1.142,3.442-2.747-.92-1.342-3.122-1.182-4.42-.336-1.454.913-2.298,2.35-2.988,3.401v-2.434c.561-1.355,1.993-2.028,3.916-2.711.814-.294,1.484-.269,1.897-.737,2.057-3.723-2.412-5.854-5.112-.28-.147.33-.537,1.034-.7,1.492v-2.823h-.42v3.676c-.424-1.104-1.174-3.628-2.381-4.09-2.049-.462-1.498,1.947-.739,2.981.554.875,1.461,1.704,2.161,2.304.704.538.963,1.163.96,2.063-.009.279-.004.588,0,.905v.868c-.008.29-.027.57-.07.819-.064.111-.364-.115-.428-.203-.936-1.529-1.918-3.849-3.114-5.357-1.093-1.648-3.904-.357-2.705,1.562.707,1.261,2.041,1.941,3.175,2.876.787.769,2.603,1.569,3.142,2.641v1.003c-.287.191-.887-.12-1.275-.356-1.815-1.195-9.687-6.67-9.105-1.424.772,3.175,3.89,4.081,6.644,3.843,3.244-.069,7.172.142,9.69-.09,2.873-.828,3.638-3.685.585-5.043Z" fill="#0c0d0b"/>
      </g>
      <circle cx="50.473" cy="1.896" r=".77" fill="#cb1e1a"/>
    </g>
    <g>
      <g>
        <ellipse cx="70.635" cy="19.23" rx="1.961" ry="1.373" fill="#0c0d0b"/>
        <path d="M75.697,28.344c-1.567-.721-3.472.259-4.405,1.593-.2.242-.38.623-.489.708v-1.493c.429-1.222,1.785-1.762,3.173-2.248.949-.309,3.13-.914,2.754-2.198-.736-1.073-2.497-.946-3.536-.269-1.163.73-1.839,1.88-2.391,2.721v-1.947c.449-1.084,1.594-1.622,3.133-2.169.651-.235,1.187-.215,1.517-.589,1.646-2.979-1.93-4.683-4.09-.224-.118.264-.43.827-.56,1.194v-2.258h-.336v2.94c-.34-.883-.939-2.902-1.905-3.272-1.639-.369-1.198,1.558-.591,2.384.444.7,1.168,1.364,1.728,1.843.563.431.771.93.768,1.651-.007.223-.004.471,0,.724v.694c-.006.232-.022.456-.056.655-.051.089-.291-.092-.343-.163-.749-1.223-1.534-3.079-2.491-4.286-.874-1.318-3.123-.286-2.164,1.249.566,1.009,1.633,1.553,2.54,2.301.629.615,2.082,1.255,2.514,2.113v.802c-.23.152-.71-.096-1.02-.285-1.452-.956-7.749-5.336-7.284-1.139.617,2.54,3.112,3.264,5.315,3.074,2.595-.055,5.738.113,7.752-.072,2.298-.663,2.91-2.948.468-4.034Z" fill="#0c0d0b"/>
      </g>
      <circle cx="70.635" cy="19.371" r=".616" fill="#cb1e1a"/>
    </g>
    <g>
      <g>
        <ellipse cx="30.445" cy="19.23" rx="1.961" ry="1.373" fill="#0c0d0b"/>
        <path d="M35.508,28.344c-1.567-.721-3.472.259-4.405,1.593-.2.242-.38.623-.489.708v-1.493c.429-1.222,1.785-1.762,3.173-2.248.949-.309,3.13-.914,2.754-2.198-.736-1.073-2.497-.946-3.536-.269-1.163.73-1.839,1.88-2.391,2.721v-1.947c.449-1.084,1.594-1.622,3.133-2.169.651-.235,1.187-.215,1.517-.589,1.646-2.979-1.93-4.683-4.09-.224-.118.264-.43.827-.56,1.194v-2.258h-.336v2.94c-.34-.883-.939-2.902-1.905-3.272-1.639-.369-1.198,1.558-.591,2.384.444.7,1.168,1.364,1.728,1.843.563.431.771.93.768,1.651-.007.223-.004.471,0,.724v.694c-.006.232-.022.456-.056.655-.051.089-.291-.092-.343-.163-.749-1.223-1.534-3.079-2.491-4.286-.874-1.318-3.123-.286-2.164,1.249.566,1.009,1.633,1.553,2.54,2.301.629.615,2.082,1.255,2.514,2.113v.802c-.23.152-.71-.096-1.02-.285-1.452-.956-7.749-5.336-7.284-1.139.617,2.54,3.112,3.264,5.315,3.074,2.595-.055,5.738.113,7.752-.072,2.298-.663,2.91-2.948.468-4.034Z" fill="#0c0d0b"/>
      </g>
      <circle cx="30.445" cy="19.371" r=".616" fill="#cb1e1a"/>
    </g>
  </g>
</svg>