<?xml version="1.0" encoding="UTF-8"?>
<svg xmlns="http://www.w3.org/2000/svg" width="294.788" height="450" viewBox="0 0 294.788 450">
  <g id="Tallo">
    <g>
      <g>
        <line x1="147.394" y1="450" x2="147.394" y2="30.074" fill="none" stroke="#0c0d0b" stroke-miterlimit="10" stroke-width="2.381"/>
        <g>
          <polygon points="147.394 442.32 143.478 441.392 147.394 440.464 147.394 442.32 147.394 442.32" fill="#0c0d0b"/>
          <polygon points="147.394 447.359 151.31 446.431 147.394 445.503 147.394 447.359 147.394 447.359" fill="#0c0d0b"/>
        </g>
        <g>
          <polygon points="147.394 426.991 143.478 426.063 147.394 425.135 147.394 426.991 147.394 426.991" fill="#0c0d0b"/>
          <polygon points="147.394 432.03 151.31 431.102 147.394 430.174 147.394 432.03 147.394 432.03" fill="#0c0d0b"/>
        </g>
        <g>
          <polygon points="147.394 411.654 143.478 410.726 147.394 409.798 147.394 411.654 147.394 411.654" fill="#0c0d0b"/>
          <polygon points="147.394 416.693 151.31 415.765 147.394 414.837 147.394 416.693 147.394 416.693" fill="#0c0d0b"/>
        </g>
        <g>
          <polygon points="147.394 396.309 143.478 395.381 147.394 394.454 147.394 396.309 147.394 396.309" fill="#0c0d0b"/>
          <polygon points="147.394 401.348 151.31 400.42 147.394 399.493 147.394 401.348 147.394 401.348" fill="#0c0d0b"/>
        </g>
        <g>
          <polygon points="147.394 380.997 143.478 380.069 147.394 379.141 147.394 380.997 147.394 380.997" fill="#0c0d0b"/>
          <polygon points="147.394 386.036 151.31 385.108 147.394 384.18 147.394 386.036 147.394 386.036" fill="#0c0d0b"/>
        </g>
        <g>
          <polygon points="147.394 365.631 143.478 364.703 147.394 363.776 147.394 365.631 147.394 365.631" fill="#0c0d0b"/>
          <polygon points="147.394 370.67 151.31 369.742 147.394 368.815 147.394 370.67 147.394 370.67" fill="#0c0d0b"/>
        </g>
        <g>
          <polygon points="147.394 350.368 143.478 349.44 147.394 348.512 147.394 350.368 147.394 350.368" fill="#0c0d0b"/>
          <polygon points="147.394 355.407 151.31 354.479 147.394 353.551 147.394 355.407 147.394 355.407" fill="#0c0d0b"/>
        </g>
        <g>
          <polygon points="147.394 334.965 143.478 334.037 147.394 333.109 147.394 334.965 147.394 334.965" fill="#0c0d0b"/>
          <polygon points="147.394 340.004 151.31 339.076 147.394 338.148 147.394 340.004 147.394 340.004" fill="#0c0d0b"/>
        </g>
        <g>
          <polygon points="147.394 319.672 143.478 318.744 147.394 317.816 147.394 319.672 147.394 319.672" fill="#0c0d0b"/>
          <polygon points="147.394 324.711 151.31 323.783 147.394 322.855 147.394 324.711 147.394 324.711" fill="#0c0d0b"/>
        </g>
        <g>
          <polygon points="147.394 304.297 143.478 303.369 147.394 302.441 147.394 304.297 147.394 304.297" fill="#0c0d0b"/>
          <polygon points="147.394 309.336 151.31 308.408 147.394 307.48 147.394 309.336 147.394 309.336" fill="#0c0d0b"/>
        </g>
        <g>
          <polygon points="147.394 289.012 143.478 288.085 147.394 287.157 147.394 289.012 147.394 289.012" fill="#0c0d0b"/>
          <polygon points="147.394 294.051 151.31 293.124 147.394 292.196 147.394 294.051 147.394 294.051" fill="#0c0d0b"/>
        </g>
        <g>
          <polygon points="147.394 273.722 143.478 272.795 147.394 271.867 147.394 273.722 147.394 273.722" fill="#0c0d0b"/>
          <polygon points="147.394 278.761 151.31 277.834 147.394 276.906 147.394 278.761 147.394 278.761" fill="#0c0d0b"/>
        </g>
        <g>
          <polygon points="147.394 258.321 143.478 257.394 147.394 256.466 147.394 258.321 147.394 258.321" fill="#0c0d0b"/>
          <polygon points="147.394 263.36 151.31 262.433 147.394 261.505 147.394 263.36 147.394 263.36" fill="#0c0d0b"/>
        </g>
        <g>
          <polygon points="147.394 242.998 143.478 242.07 147.394 241.142 147.394 242.998 147.394 242.998" fill="#0c0d0b"/>
          <polygon points="147.394 248.037 151.31 247.109 147.394 246.181 147.394 248.037 147.394 248.037" fill="#0c0d0b"/>
        </g>
        <g>
          <polygon points="147.394 227.744 143.478 226.817 147.394 225.889 147.394 227.744 147.394 227.744" fill="#0c0d0b"/>
          <polygon points="147.394 232.783 151.31 231.856 147.394 230.928 147.394 232.783 147.394 232.783" fill="#0c0d0b"/>
        </g>
        <g>
          <polygon points="147.394 212.398 143.478 211.47 147.394 210.542 147.394 212.398 147.394 212.398" fill="#0c0d0b"/>
          <polygon points="147.394 217.437 151.31 216.509 147.394 215.581 147.394 217.437 147.394 217.437" fill="#0c0d0b"/>
        </g>
        <g>
          <polygon points="147.394 197.027 143.478 196.099 147.394 195.172 147.394 197.027 147.394 197.027" fill="#0c0d0b"/>
          <polygon points="147.394 202.066 151.31 201.138 147.394 200.211 147.394 202.066 147.394 202.066" fill="#0c0d0b"/>
        </g>
        <g>
          <polygon points="147.394 181.718 143.478 180.79 147.394 179.863 147.394 181.718 147.394 181.718" fill="#0c0d0b"/>
          <polygon points="147.394 186.757 151.31 185.829 147.394 184.902 147.394 186.757 147.394 186.757" fill="#0c0d0b"/>
        </g>
        <g>
          <polygon points="147.394 166.423 143.478 165.495 147.394 164.567 147.394 166.423 147.394 166.423" fill="#0c0d0b"/>
          <polygon points="147.394 171.462 151.31 170.534 147.394 169.606 147.394 171.462 147.394 171.462" fill="#0c0d0b"/>
        </g>
        <g>
          <polygon points="147.394 151.098 143.478 150.17 147.394 149.243 147.394 151.098 147.394 151.098" fill="#0c0d0b"/>
          <polygon points="147.394 156.137 151.31 155.209 147.394 154.282 147.394 156.137 147.394 156.137" fill="#0c0d0b"/>
        </g>
        <g>
          <polygon points="147.394 135.753 143.478 134.825 147.394 133.897 147.394 135.753 147.394 135.753" fill="#0c0d0b"/>
          <polygon points="147.394 140.792 151.31 139.864 147.394 138.936 147.394 140.792 147.394 140.792" fill="#0c0d0b"/>
        </g>
        <g>
          <polygon points="147.394 120.484 143.478 119.556 147.394 118.628 147.394 120.484 147.394 120.484" fill="#0c0d0b"/>
          <polygon points="147.394 125.523 151.31 124.595 147.394 123.667 147.394 125.523 147.394 125.523" fill="#0c0d0b"/>
        </g>
        <g>
          <polygon points="147.394 105.074 143.478 104.147 147.394 103.219 147.394 105.074 147.394 105.074" fill="#0c0d0b"/>
          <polygon points="147.394 110.113 151.31 109.186 147.394 108.258 147.394 110.113 147.394 110.113" fill="#0c0d0b"/>
        </g>
        <g>
          <polygon points="147.394 89.777 143.478 88.85 147.394 87.922 147.394 89.777 147.394 89.777" fill="#0c0d0b"/>
          <polygon points="147.394 94.817 151.31 93.889 147.394 92.961 147.394 94.817 147.394 94.817" fill="#0c0d0b"/>
        </g>
        <g>
          <polygon points="147.394 74.43 143.478 73.503 147.394 72.575 147.394 74.43 147.394 74.43" fill="#0c0d0b"/>
          <polygon points="147.394 79.469 151.31 78.542 147.394 77.614 147.394 79.469 147.394 79.469" fill="#0c0d0b"/>
        </g>
        <g>
          <polygon points="147.394 59.114 143.478 58.187 147.394 57.259 147.394 59.114 147.394 59.114" fill="#0c0d0b"/>
          <polygon points="147.394 64.153 151.31 63.226 147.394 62.298 147.394 64.153 147.394 64.153" fill="#0c0d0b"/>
        </g>
        <g>
          <polygon points="147.394 43.783 143.478 42.856 147.394 41.928 147.394 43.783 147.394 43.783" fill="#0c0d0b"/>
          <polygon points="147.394 48.822 151.31 47.895 147.394 46.967 147.394 48.822 147.394 48.822" fill="#0c0d0b"/>
        </g>
        <g>
          <polygon points="147.394 28.482 143.478 27.554 147.394 26.627 147.394 28.482 147.394 28.482" fill="#0c0d0b"/>
          <polygon points="147.394 33.521 151.31 32.593 147.394 31.666 147.394 33.521 147.394 33.521" fill="#0c0d0b"/>
        </g>
      </g>
      <g>
        <polyline points="41.894 30.074 41.894 111.959 89.069 111.959 89.069 194.899 204.861 194.899 204.861 112.487 252.894 112.487 252.894 30.074" fill="none" stroke="#0c0d0b" stroke-miterlimit="10" stroke-width="1.19"/>
        <g>
          <polygon points="41.915 40.31 38.011 39.331 41.939 38.454 41.915 40.31 41.915 40.31" fill="#0c0d0b"/>
          <polygon points="41.849 45.348 45.777 44.472 41.874 43.493 41.849 45.348 41.849 45.348" fill="#0c0d0b"/>
        </g>
        <g>
          <polygon points="41.915 59.877 38.011 58.899 41.939 58.022 41.915 59.877 41.915 59.877" fill="#0c0d0b"/>
          <polygon points="41.849 64.916 45.777 64.039 41.874 63.061 41.849 64.916 41.849 64.916" fill="#0c0d0b"/>
        </g>
        <g>
          <polygon points="41.915 79.507 38.011 78.528 41.939 77.651 41.915 79.507 41.915 79.507" fill="#0c0d0b"/>
          <polygon points="41.849 84.545 45.777 83.669 41.874 82.69 41.849 84.545 41.849 84.545" fill="#0c0d0b"/>
        </g>
        <g>
          <polygon points="41.915 99.074 38.011 98.096 41.939 97.219 41.915 99.074 41.915 99.074" fill="#0c0d0b"/>
          <polygon points="41.849 104.113 45.777 103.236 41.874 102.258 41.849 104.113 41.849 104.113" fill="#0c0d0b"/>
        </g>
        <g>
          <polygon points="48.604 111.939 47.625 115.843 46.748 111.915 48.604 111.939 48.604 111.939" fill="#0c0d0b"/>
          <polygon points="53.642 112.004 52.766 108.076 51.787 111.98 53.642 112.004 53.642 112.004" fill="#0c0d0b"/>
        </g>
        <g>
          <polygon points="68.129 111.939 67.15 115.843 66.273 111.915 68.129 111.939 68.129 111.939" fill="#0c0d0b"/>
          <polygon points="73.167 112.004 72.291 108.076 71.312 111.98 73.167 112.004 73.167 112.004" fill="#0c0d0b"/>
        </g>
        <g>
          <polygon points="89.09 110.607 85.186 109.628 89.114 108.752 89.09 110.607 89.09 110.607" fill="#0c0d0b"/>
          <polygon points="89.024 115.646 92.952 114.769 89.048 113.79 89.024 115.646 89.024 115.646" fill="#0c0d0b"/>
        </g>
        <g>
          <polygon points="89.09 130.19 85.186 129.212 89.114 128.335 89.09 130.19 89.09 130.19" fill="#0c0d0b"/>
          <polygon points="89.024 135.229 92.952 134.353 89.048 133.374 89.024 135.229 89.024 135.229" fill="#0c0d0b"/>
        </g>
        <g>
          <polygon points="89.09 149.831 85.186 148.852 89.114 147.976 89.09 149.831 89.09 149.831" fill="#0c0d0b"/>
          <polygon points="89.024 154.87 92.952 153.993 89.048 153.014 89.024 154.87 89.024 154.87" fill="#0c0d0b"/>
        </g>
        <g>
          <polygon points="89.09 169.391 85.186 168.412 89.114 167.535 89.09 169.391 89.09 169.391" fill="#0c0d0b"/>
          <polygon points="89.024 174.429 92.952 173.553 89.048 172.574 89.024 174.429 89.024 174.429" fill="#0c0d0b"/>
        </g>
        <g>
          <polygon points="89.09 189.016 85.186 188.037 89.114 187.161 89.09 189.016 89.09 189.016" fill="#0c0d0b"/>
          <polygon points="89.024 194.055 92.952 193.178 89.048 192.199 89.024 194.055 89.024 194.055" fill="#0c0d0b"/>
        </g>
        <g>
          <polygon points="102.739 194.879 101.761 198.782 100.884 194.854 102.739 194.879 102.739 194.879" fill="#0c0d0b"/>
          <polygon points="107.778 194.944 106.901 191.016 105.923 194.92 107.778 194.944 107.778 194.944" fill="#0c0d0b"/>
        </g>
        <g>
          <polygon points="122.38 194.879 121.401 198.782 120.525 194.854 122.38 194.879 122.38 194.879" fill="#0c0d0b"/>
          <polygon points="127.419 194.944 126.542 191.016 125.563 194.92 127.419 194.944 127.419 194.944" fill="#0c0d0b"/>
        </g>
        <g>
          <polygon points="141.925 194.879 140.947 198.782 140.07 194.854 141.925 194.879 141.925 194.879" fill="#0c0d0b"/>
          <polygon points="146.964 194.944 146.087 191.016 145.109 194.92 146.964 194.944 146.964 194.944" fill="#0c0d0b"/>
        </g>
        <g>
          <polygon points="161.554 194.879 160.575 198.782 159.698 194.854 161.554 194.879 161.554 194.879" fill="#0c0d0b"/>
          <polygon points="166.592 194.944 165.716 191.016 164.737 194.92 166.592 194.944 166.592 194.944" fill="#0c0d0b"/>
        </g>
        <g>
          <polygon points="181.063 194.879 180.084 198.782 179.208 194.854 181.063 194.879 181.063 194.879" fill="#0c0d0b"/>
          <polygon points="186.102 194.944 185.225 191.016 184.246 194.92 186.102 194.944 186.102 194.944" fill="#0c0d0b"/>
        </g>
        <g>
          <polygon points="200.714 194.879 199.735 198.782 198.858 194.854 200.714 194.879 200.714 194.879" fill="#0c0d0b"/>
          <polygon points="205.752 194.944 204.876 191.016 203.897 194.92 205.752 194.944 205.752 194.944" fill="#0c0d0b"/>
        </g>
        <g>
          <polygon points="204.841 179.51 208.745 180.488 204.817 181.365 204.841 179.51 204.841 179.51" fill="#0c0d0b"/>
          <polygon points="204.906 174.471 200.978 175.348 204.882 176.326 204.906 174.471 204.906 174.471" fill="#0c0d0b"/>
        </g>
        <g>
          <polygon points="204.841 159.866 208.745 160.844 204.817 161.721 204.841 159.866 204.841 159.866" fill="#0c0d0b"/>
          <polygon points="204.906 154.827 200.978 155.704 204.882 156.682 204.906 154.827 204.906 154.827" fill="#0c0d0b"/>
        </g>
        <g>
          <polygon points="204.841 140.364 208.745 141.343 204.817 142.219 204.841 140.364 204.841 140.364" fill="#0c0d0b"/>
          <polygon points="204.906 135.325 200.978 136.202 204.882 137.181 204.906 135.325 204.906 135.325" fill="#0c0d0b"/>
        </g>
        <g>
          <polygon points="204.841 120.696 208.745 121.675 204.817 122.552 204.841 120.696 204.841 120.696" fill="#0c0d0b"/>
          <polygon points="204.906 115.658 200.978 116.534 204.882 117.513 204.906 115.658 204.906 115.658" fill="#0c0d0b"/>
        </g>
        <g>
          <polygon points="216.163 112.466 215.184 116.37 214.308 112.442 216.163 112.466 216.163 112.466" fill="#0c0d0b"/>
          <polygon points="221.202 112.531 220.325 108.603 219.346 112.507 221.202 112.531 221.202 112.531" fill="#0c0d0b"/>
        </g>
        <g>
          <polygon points="235.814 112.466 234.835 116.37 233.959 112.442 235.814 112.466 235.814 112.466" fill="#0c0d0b"/>
          <polygon points="240.853 112.531 239.976 108.603 238.997 112.507 240.853 112.531 240.853 112.531" fill="#0c0d0b"/>
        </g>
        <g>
          <polygon points="252.873 110.033 256.777 111.011 252.849 111.888 252.873 110.033 252.873 110.033" fill="#0c0d0b"/>
          <polygon points="252.939 104.994 249.011 105.871 252.915 106.849 252.939 104.994 252.939 104.994" fill="#0c0d0b"/>
        </g>
        <g>
          <polygon points="252.873 90.405 256.777 91.383 252.849 92.26 252.873 90.405 252.873 90.405" fill="#0c0d0b"/>
          <polygon points="252.939 85.366 249.011 86.243 252.915 87.221 252.939 85.366 252.939 85.366" fill="#0c0d0b"/>
        </g>
        <g>
          <polygon points="252.873 70.843 256.777 71.822 252.849 72.699 252.873 70.843 252.873 70.843" fill="#0c0d0b"/>
          <polygon points="252.939 65.805 249.011 66.681 252.915 67.66 252.939 65.805 252.939 65.805" fill="#0c0d0b"/>
        </g>
        <g>
          <polygon points="252.873 51.205 256.777 52.184 252.849 53.061 252.873 51.205 252.873 51.205" fill="#0c0d0b"/>
          <polygon points="252.939 46.167 249.011 47.043 252.915 48.022 252.939 46.167 252.939 46.167" fill="#0c0d0b"/>
        </g>
        <g>
          <polygon points="252.873 31.666 256.777 32.644 252.849 33.521 252.873 31.666 252.873 31.666" fill="#0c0d0b"/>
          <polygon points="252.939 26.627 249.011 27.504 252.915 28.482 252.939 26.627 252.939 26.627" fill="#0c0d0b"/>
        </g>
      </g>
      <g>
        <polyline points="48.349 238.598 48.349 268.58 147.715 365.897 246.44 267.172 246.44 238.598" fill="none" stroke="#0c0d0b" stroke-miterlimit="10" stroke-width="1.417"/>
        <g>
          <polygon points="48.265 240.188 52.127 241.32 48.168 242.041 48.265 240.188 48.265 240.188" fill="#0c0d0b"/>
          <polygon points="48.529 235.156 44.57 235.877 48.432 237.009 48.529 235.156 48.529 235.156" fill="#0c0d0b"/>
        </g>
        <g>
          <polygon points="48.265 248.813 52.127 249.945 48.168 250.666 48.265 248.813 48.265 248.813" fill="#0c0d0b"/>
          <polygon points="48.529 243.781 44.57 244.502 48.432 245.634 48.529 243.781 48.529 243.781" fill="#0c0d0b"/>
        </g>
        <g>
          <polygon points="48.265 257.439 52.127 258.571 48.168 259.292 48.265 257.439 48.265 257.439" fill="#0c0d0b"/>
          <polygon points="48.529 252.407 44.57 253.128 48.432 254.26 48.529 252.407 48.529 252.407" fill="#0c0d0b"/>
        </g>
        <g>
          <polygon points="48.265 266.176 52.127 267.308 48.168 268.029 48.265 266.176 48.265 266.176" fill="#0c0d0b"/>
          <polygon points="48.529 261.144 44.57 261.865 48.432 262.997 48.529 261.144 48.529 261.144" fill="#0c0d0b"/>
        </g>
        <g>
          <polygon points="52.701 272.959 56.212 270.991 53.956 274.325 52.701 272.959 52.701 272.959" fill="#0c0d0b"/>
          <polygon points="49.29 269.249 47.035 272.583 50.546 270.615 49.29 269.249 49.29 269.249" fill="#0c0d0b"/>
        </g>
        <g>
          <polygon points="58.878 279.008 62.389 277.041 60.133 280.374 58.878 279.008 58.878 279.008" fill="#0c0d0b"/>
          <polygon points="55.467 275.299 53.212 278.632 56.723 276.665 55.467 275.299 55.467 275.299" fill="#0c0d0b"/>
        </g>
        <g>
          <polygon points="65.059 285.062 68.57 283.095 66.315 286.428 65.059 285.062 65.059 285.062" fill="#0c0d0b"/>
          <polygon points="61.649 281.353 59.393 284.686 62.904 282.719 61.649 281.353 61.649 281.353" fill="#0c0d0b"/>
        </g>
        <g>
          <polygon points="71.225 291.101 74.736 289.134 72.481 292.467 71.225 291.101 71.225 291.101" fill="#0c0d0b"/>
          <polygon points="67.814 287.391 65.559 290.725 69.07 288.757 67.814 287.391 67.814 287.391" fill="#0c0d0b"/>
        </g>
        <g>
          <polygon points="77.449 297.197 80.96 295.23 78.705 298.563 77.449 297.197 77.449 297.197" fill="#0c0d0b"/>
          <polygon points="74.039 293.488 71.784 296.821 75.295 294.853 74.039 293.488 74.039 293.488" fill="#0c0d0b"/>
        </g>
        <g>
          <polygon points="83.622 303.243 87.133 301.275 84.878 304.608 83.622 303.243 83.622 303.243" fill="#0c0d0b"/>
          <polygon points="80.212 299.533 77.956 302.866 81.467 300.899 80.212 299.533 80.212 299.533" fill="#0c0d0b"/>
        </g>
        <g>
          <polygon points="89.779 309.273 93.29 307.305 91.035 310.639 89.779 309.273 89.779 309.273" fill="#0c0d0b"/>
          <polygon points="86.369 305.563 84.114 308.896 87.624 306.929 86.369 305.563 86.369 305.563" fill="#0c0d0b"/>
        </g>
        <g>
          <polygon points="95.964 315.33 99.475 313.362 97.22 316.696 95.964 315.33 95.964 315.33" fill="#0c0d0b"/>
          <polygon points="92.554 311.62 90.298 314.954 93.809 312.986 92.554 311.62 92.554 311.62" fill="#0c0d0b"/>
        </g>
        <g>
          <polygon points="102.144 321.383 105.655 319.415 103.4 322.749 102.144 321.383 102.144 321.383" fill="#0c0d0b"/>
          <polygon points="98.734 317.673 96.479 321.007 99.99 319.039 98.734 317.673 98.734 317.673" fill="#0c0d0b"/>
        </g>
        <g>
          <polygon points="108.325 327.436 111.836 325.469 109.581 328.802 108.325 327.436 108.325 327.436" fill="#0c0d0b"/>
          <polygon points="104.915 323.727 102.66 327.06 106.171 325.093 104.915 323.727 104.915 323.727" fill="#0c0d0b"/>
        </g>
        <g>
          <polygon points="114.487 333.471 117.998 331.504 115.743 334.837 114.487 333.471 114.487 333.471" fill="#0c0d0b"/>
          <polygon points="111.077 329.762 108.822 333.095 112.333 331.127 111.077 329.762 111.077 329.762" fill="#0c0d0b"/>
        </g>
        <g>
          <polygon points="120.66 339.516 124.17 337.549 121.915 340.882 120.66 339.516 120.66 339.516" fill="#0c0d0b"/>
          <polygon points="117.249 335.807 114.994 339.14 118.505 337.172 117.249 335.807 117.249 335.807" fill="#0c0d0b"/>
        </g>
        <g>
          <polygon points="126.887 345.615 130.398 343.648 128.143 346.981 126.887 345.615 126.887 345.615" fill="#0c0d0b"/>
          <polygon points="123.477 341.906 121.221 345.239 124.732 343.272 123.477 341.906 123.477 341.906" fill="#0c0d0b"/>
        </g>
        <g>
          <polygon points="133.047 351.648 136.558 349.681 134.303 353.014 133.047 351.648 133.047 351.648" fill="#0c0d0b"/>
          <polygon points="129.636 347.938 127.381 351.272 130.892 349.304 129.636 347.938 129.636 347.938" fill="#0c0d0b"/>
        </g>
        <g>
          <polygon points="139.231 357.705 142.742 355.737 140.487 359.071 139.231 357.705 139.231 357.705" fill="#0c0d0b"/>
          <polygon points="135.821 353.995 133.565 357.328 137.076 355.361 135.821 353.995 135.821 353.995" fill="#0c0d0b"/>
        </g>
        <g>
          <polygon points="145.407 363.754 148.918 361.786 146.663 365.12 145.407 363.754 145.407 363.754" fill="#0c0d0b"/>
          <polygon points="141.997 360.044 139.742 363.378 143.253 361.41 141.997 360.044 141.997 360.044" fill="#0c0d0b"/>
        </g>
        <g>
          <polygon points="151.617 362.113 149.686 358.582 152.996 360.871 151.617 362.113 151.617 362.113" fill="#0c0d0b"/>
          <polygon points="147.872 365.485 151.182 367.774 149.251 364.243 147.872 365.485 147.872 365.485" fill="#0c0d0b"/>
        </g>
        <g>
          <polygon points="157.734 355.996 155.803 352.464 159.113 354.754 157.734 355.996 157.734 355.996" fill="#0c0d0b"/>
          <polygon points="153.989 359.367 157.299 361.657 155.368 358.126 153.989 359.367 153.989 359.367" fill="#0c0d0b"/>
        </g>
        <g>
          <polygon points="163.876 349.854 161.945 346.323 165.255 348.613 163.876 349.854 163.876 349.854" fill="#0c0d0b"/>
          <polygon points="160.131 353.226 163.44 355.516 161.51 351.984 160.131 353.226 160.131 353.226" fill="#0c0d0b"/>
        </g>
        <g>
          <polygon points="169.975 343.755 168.044 340.223 171.354 342.513 169.975 343.755 169.975 343.755" fill="#0c0d0b"/>
          <polygon points="166.23 347.126 169.54 349.416 167.609 345.885 166.23 347.126 166.23 347.126" fill="#0c0d0b"/>
        </g>
        <g>
          <polygon points="176.118 337.612 174.187 334.08 177.497 336.37 176.118 337.612 176.118 337.612" fill="#0c0d0b"/>
          <polygon points="172.373 340.983 175.683 343.273 173.752 339.742 172.373 340.983 172.373 340.983" fill="#0c0d0b"/>
        </g>
        <g>
          <polygon points="182.229 331.501 180.298 327.97 183.607 330.26 182.229 331.501 182.229 331.501" fill="#0c0d0b"/>
          <polygon points="178.484 334.873 181.793 337.163 179.862 333.631 178.484 334.873 178.484 334.873" fill="#0c0d0b"/>
        </g>
        <g>
          <polygon points="188.34 325.389 186.409 321.858 189.719 324.148 188.34 325.389 188.34 325.389" fill="#0c0d0b"/>
          <polygon points="184.595 328.761 187.905 331.051 185.974 327.52 184.595 328.761 184.595 328.761" fill="#0c0d0b"/>
        </g>
        <g>
          <polygon points="194.434 319.296 192.503 315.764 195.813 318.054 194.434 319.296 194.434 319.296" fill="#0c0d0b"/>
          <polygon points="190.689 322.667 193.999 324.957 192.068 321.426 190.689 322.667 190.689 322.667" fill="#0c0d0b"/>
        </g>
        <g>
          <polygon points="200.556 313.173 198.626 309.642 201.935 311.932 200.556 313.173 200.556 313.173" fill="#0c0d0b"/>
          <polygon points="196.811 316.545 200.121 318.835 198.19 315.303 196.811 316.545 196.811 316.545" fill="#0c0d0b"/>
        </g>
        <g>
          <polygon points="206.648 307.082 204.717 303.551 208.027 305.84 206.648 307.082 206.648 307.082" fill="#0c0d0b"/>
          <polygon points="202.903 310.453 206.213 312.743 204.282 309.212 202.903 310.453 202.903 310.453" fill="#0c0d0b"/>
        </g>
        <g>
          <polygon points="212.777 300.953 210.846 297.422 214.156 299.712 212.777 300.953 212.777 300.953" fill="#0c0d0b"/>
          <polygon points="209.032 304.325 212.341 306.615 210.411 303.083 209.032 304.325 209.032 304.325" fill="#0c0d0b"/>
        </g>
        <g>
          <polygon points="218.883 294.847 216.952 291.316 220.262 293.605 218.883 294.847 218.883 294.847" fill="#0c0d0b"/>
          <polygon points="215.138 298.218 218.448 300.508 216.517 296.977 215.138 298.218 215.138 298.218" fill="#0c0d0b"/>
        </g>
        <g>
          <polygon points="225.001 288.729 223.07 285.198 226.38 287.488 225.001 288.729 225.001 288.729" fill="#0c0d0b"/>
          <polygon points="221.256 292.101 224.565 294.391 222.634 290.859 221.256 292.101 221.256 292.101" fill="#0c0d0b"/>
        </g>
        <g>
          <polygon points="231.125 282.604 229.195 279.073 232.504 281.363 231.125 282.604 231.125 282.604" fill="#0c0d0b"/>
          <polygon points="227.38 285.976 230.69 288.266 228.759 284.734 227.38 285.976 227.38 285.976" fill="#0c0d0b"/>
        </g>
        <g>
          <polygon points="237.263 276.467 235.332 272.935 238.642 275.225 237.263 276.467 237.263 276.467" fill="#0c0d0b"/>
          <polygon points="233.518 279.838 236.828 282.128 234.897 278.597 233.518 279.838 233.518 279.838" fill="#0c0d0b"/>
        </g>
        <g>
          <polygon points="243.386 270.344 241.455 266.813 244.764 269.103 243.386 270.344 243.386 270.344" fill="#0c0d0b"/>
          <polygon points="239.641 273.716 242.95 276.006 241.019 272.474 239.641 273.716 239.641 273.716" fill="#0c0d0b"/>
        </g>
        <g>
          <polygon points="246.523 262.988 242.661 261.857 246.62 261.136 246.523 262.988 246.523 262.988" fill="#0c0d0b"/>
          <polygon points="246.259 268.021 250.218 267.299 246.356 266.168 246.259 268.021 246.259 268.021" fill="#0c0d0b"/>
        </g>
        <g>
          <polygon points="246.523 254.295 242.661 253.163 246.62 252.442 246.523 254.295 246.523 254.295" fill="#0c0d0b"/>
          <polygon points="246.259 259.327 250.218 258.606 246.356 257.474 246.259 259.327 246.259 259.327" fill="#0c0d0b"/>
        </g>
        <g>
          <polygon points="246.523 245.636 242.661 244.505 246.62 243.783 246.523 245.636 246.523 245.636" fill="#0c0d0b"/>
          <polygon points="246.259 250.668 250.218 249.947 246.356 248.816 246.259 250.668 246.259 250.668" fill="#0c0d0b"/>
        </g>
        <g>
          <polygon points="246.523 237.009 242.661 235.877 246.62 235.156 246.523 237.009 246.523 237.009" fill="#0c0d0b"/>
          <polygon points="246.259 242.041 250.218 241.32 246.356 240.188 246.259 242.041 246.259 242.041" fill="#0c0d0b"/>
        </g>
      </g>
    </g>
  </g>
  <g id="Hojas">
    <g>
      <path d="M165.518,97.578c1.022,0,1.85-.828,1.85-1.85s-.828-1.85-1.85-1.85-1.85.828-1.85,1.85.828,1.85,1.85,1.85Z"/>
      <path d="M175.384,90.918c1.022,0,1.85-.828,1.85-1.85s-.828-1.85-1.85-1.85-1.85.828-1.85,1.85.828,1.85,1.85,1.85Z"/>
      <circle cx="176" cy="99.428" r="1.85"/>
      <path d="M165.025,107.937c1.022,0,1.85-.828,1.85-1.85s-.828-1.85-1.85-1.85-1.85.828-1.85,1.85.828,1.85,1.85,1.85Z"/>
      <path d="M188.333,97.578c-.221,0-.418.097-.554.25l-10.052-2.872,2.7-2.265c.269.253.69.271.98.029.314-.262.355-.729.093-1.042-.262-.314-.729-.355-1.042-.093-.243.203-.322.529-.223.812l-8.041,6.745c.033-.115.067-.23.098-.345.457-1.685.749-3.312.892-4.974.277-3.225-.09-5.904-.385-8.056-.136-.992-.256-1.878-.303-2.689.054-.026.107-.058.155-.099.314-.262.355-.729.093-1.042-.262-.314-.729-.355-1.042-.093s-.355.729-.093,1.042c.14.168.339.257.541.264.049.81.169,1.686.303,2.665.292,2.135.657,4.792.383,7.978-.141,1.641-.429,3.248-.881,4.913-.049.179-.101.36-.154.54l-5.397-7.765,1.635-6.607c.022,0,.045.003.067.003,1.022,0,1.85-.828,1.85-1.85s-.828-1.85-1.85-1.85-1.85.828-1.85,1.85c0,.878.613,1.612,1.434,1.801l-1.552,6.27-1.803-2.595c.201-.296.318-.653.318-1.037,0-1.022-.828-1.85-1.85-1.85s-1.85.828-1.85,1.85.828,1.85,1.85,1.85c.507,0,.965-.204,1.3-.534l1.924,2.768v.006s.005.002.005.002l5.641,8.116c-.47,1.531-1.076,3.099-1.813,4.677-1.916,4.105-6.081,6.583-10.115,8.07v-10.538c.117-.024.229-.076.327-.157.314-.262.355-.729.093-1.042-.262-.314-.729-.355-1.042-.093s-.355.729-.093,1.042c.099.119.227.198.365.237v10.679c-1.113.395-2.211.717-3.243.977-2.634.663-5.137,1.011-6.995,1.193-.109-1.057-.992-1.885-2.078-1.885s-1.969.828-2.078,1.885c-1.858-.182-4.36-.53-6.995-1.193-1.032-.26-2.13-.582-3.243-.977v-10.679c.138-.039.266-.119.365-.237.262-.314.22-.78-.093-1.042s-.78-.22-1.042.093c-.262.314-.22.78.093,1.042.098.082.211.134.327.157v10.538c-4.035-1.487-8.2-3.964-10.115-8.07-.736-1.578-1.343-3.146-1.813-4.677l5.641-8.116.006-.002v-.006s1.922-2.768,1.922-2.768c.334.33.793.534,1.3.534,1.022,0,1.85-.828,1.85-1.85s-.828-1.85-1.85-1.85-1.85.828-1.85,1.85c0,.385.117.741.318,1.037l-1.803,2.595-1.552-6.27c.821-.189,1.434-.923,1.434-1.801,0-1.022-.828-1.85-1.85-1.85s-1.85.828-1.85,1.85.828,1.85,1.85,1.85c.023,0,.045-.003.067-.003l1.635,6.607-5.397,7.765c-.053-.181-.105-.361-.154-.54-.452-1.664-.74-3.271-.881-4.913-.274-3.187.091-5.844.383-7.978.134-.979.254-1.855.303-2.665.202-.007.401-.097.541-.264.262-.314.22-.78-.093-1.042s-.78-.22-1.042.093c-.262.314-.22.78.093,1.042.048.04.101.073.155.099-.047.812-.167,1.697-.303,2.689-.295,2.152-.662,4.83-.385,8.056.143,1.662.434,3.29.892,4.974.031.114.065.23.098.345l-8.041-6.745c.099-.282.02-.609-.223-.812-.314-.262-.78-.22-1.042.093-.262.314-.22.78.093,1.042.29.243.711.224.98-.029l2.7,2.265-10.052,2.872c-.136-.153-.333-.25-.554-.25-.409,0-.74.331-.74.74s.331.74.74.74.74-.331.74-.74c0-.06-.008-.118-.021-.173l10.21-2.917,5.388,4.519c.476,1.555,1.091,3.148,1.839,4.75,2.56,5.485,8.997,8.121,13.946,9.366,2.664.67,5.192,1.02,7.065,1.203.071,1.095.973,1.964,2.086,1.964s2.015-.869,2.086-1.964c1.874-.183,4.401-.532,7.065-1.203,4.949-1.245,11.386-3.881,13.946-9.366.747-1.602,1.363-3.195,1.839-4.75l5.388-4.519,10.21,2.917c-.013.056-.021.114-.021.173,0,.409.331.74.74.74s.74-.331.74-.74-.331-.74-.74-.74Z"/>
      <path d="M130.492,95.728c0-1.022-.828-1.85-1.85-1.85s-1.85.828-1.85,1.85.828,1.85,1.85,1.85,1.85-.828,1.85-1.85Z"/>
      <path d="M118.776,90.918c1.022,0,1.85-.828,1.85-1.85s-.828-1.85-1.85-1.85-1.85.828-1.85,1.85.828,1.85,1.85,1.85Z"/>
      <circle cx="118.16" cy="99.428" r="1.85"/>
      <path d="M129.136,107.937c1.022,0,1.85-.828,1.85-1.85s-.828-1.85-1.85-1.85-1.85.828-1.85,1.85.828,1.85,1.85,1.85Z"/>
    </g>
    <g>
      <path d="M271.339,80.781c1.022,0,1.85-.828,1.85-1.85s-.828-1.85-1.85-1.85-1.85.828-1.85,1.85.828,1.85,1.85,1.85Z"/>
      <path d="M281.205,74.121c1.022,0,1.85-.828,1.85-1.85s-.828-1.85-1.85-1.85-1.85.828-1.85,1.85.828,1.85,1.85,1.85Z"/>
      <circle cx="281.822" cy="82.631" r="1.85"/>
      <path d="M270.846,91.14c1.022,0,1.85-.828,1.85-1.85s-.828-1.85-1.85-1.85-1.85.828-1.85,1.85.828,1.85,1.85,1.85Z"/>
      <path d="M294.154,80.781c-.221,0-.418.097-.554.25l-10.052-2.872,2.7-2.265c.269.253.69.271.98.029.314-.262.355-.729.093-1.042-.262-.314-.729-.355-1.042-.093-.243.203-.322.529-.223.812l-8.041,6.745c.033-.115.067-.23.098-.345.457-1.685.749-3.312.892-4.974.277-3.225-.09-5.904-.385-8.056-.136-.992-.256-1.878-.303-2.689.054-.026.107-.058.155-.099.314-.262.355-.729.093-1.042-.262-.314-.729-.355-1.042-.093s-.355.729-.093,1.042c.14.168.339.257.541.264.049.81.169,1.686.303,2.665.292,2.135.657,4.792.383,7.978-.141,1.641-.429,3.248-.881,4.913-.049.179-.101.36-.154.54l-5.397-7.765,1.635-6.607c.022,0,.045.003.067.003,1.022,0,1.85-.828,1.85-1.85s-.828-1.85-1.85-1.85-1.85.828-1.85,1.85c0,.878.613,1.612,1.434,1.801l-1.552,6.27-1.803-2.595c.201-.296.318-.653.318-1.037,0-1.022-.828-1.85-1.85-1.85s-1.85.828-1.85,1.85.828,1.85,1.85,1.85c.507,0,.965-.204,1.3-.534l1.924,2.768v.006s.005.002.005.002l5.641,8.116c-.47,1.531-1.076,3.099-1.813,4.677-1.916,4.105-6.081,6.583-10.115,8.07v-10.538c.117-.024.229-.076.327-.157.314-.262.355-.729.093-1.042-.262-.314-.729-.355-1.042-.093s-.355.729-.093,1.042c.099.119.227.198.365.237v10.679c-1.113.395-2.211.717-3.243.977-2.634.663-5.137,1.011-6.995,1.193-.109-1.057-.992-1.885-2.078-1.885s-1.969.828-2.078,1.885c-1.858-.182-4.36-.53-6.995-1.193-1.032-.26-2.13-.582-3.243-.977v-10.679c.138-.039.266-.119.365-.237.262-.314.22-.78-.093-1.042s-.78-.22-1.042.093c-.262.314-.22.78.093,1.042.098.082.211.134.327.157v10.538c-4.035-1.487-8.2-3.964-10.115-8.07-.736-1.578-1.343-3.146-1.813-4.677l5.641-8.116.006-.002v-.006s1.922-2.768,1.922-2.768c.334.33.793.534,1.3.534,1.022,0,1.85-.828,1.85-1.85s-.828-1.85-1.85-1.85-1.85.828-1.85,1.85c0,.385.117.741.318,1.037l-1.803,2.595-1.552-6.27c.821-.189,1.434-.923,1.434-1.801,0-1.022-.828-1.85-1.85-1.85s-1.85.828-1.85,1.85.828,1.85,1.85,1.85c.023,0,.045-.003.067-.003l1.635,6.607-5.397,7.765c-.053-.181-.105-.361-.154-.54-.452-1.664-.74-3.271-.881-4.913-.274-3.187.091-5.844.383-7.978.134-.979.254-1.855.303-2.665.202-.007.401-.097.541-.264.262-.314.22-.78-.093-1.042s-.78-.22-1.042.093c-.262.314-.22.78.093,1.042.048.04.101.073.155.099-.047.812-.167,1.697-.303,2.689-.295,2.152-.662,4.83-.385,8.056.143,1.662.434,3.29.892,4.974.031.114.065.23.098.345l-8.041-6.745c.099-.282.02-.609-.223-.812-.314-.262-.78-.22-1.042.093-.262.314-.22.78.093,1.042.29.243.711.224.98-.029l2.7,2.265-10.052,2.872c-.136-.153-.333-.25-.554-.25-.409,0-.74.331-.74.74s.331.74.74.74.74-.331.74-.74c0-.06-.008-.118-.021-.173l10.21-2.917,5.388,4.519c.476,1.555,1.091,3.148,1.839,4.75,2.56,5.485,8.997,8.121,13.946,9.366,2.664.67,5.192,1.02,7.065,1.203.071,1.095.973,1.964,2.086,1.964s2.015-.869,2.086-1.964c1.874-.183,4.401-.532,7.065-1.203,4.949-1.245,11.386-3.881,13.946-9.366.747-1.602,1.363-3.195,1.839-4.75l5.388-4.519,10.21,2.917c-.013.056-.021.114-.021.173,0,.409.331.74.74.74s.74-.331.74-.74-.331-.74-.74-.74Z"/>
      <path d="M236.314,78.931c0-1.022-.828-1.85-1.85-1.85s-1.85.828-1.85,1.85.828,1.85,1.85,1.85,1.85-.828,1.85-1.85Z"/>
      <path d="M224.598,74.121c1.022,0,1.85-.828,1.85-1.85s-.828-1.85-1.85-1.85-1.85.828-1.85,1.85.828,1.85,1.85,1.85Z"/>
      <circle cx="223.981" cy="82.631" r="1.85"/>
      <path d="M234.957,91.14c1.022,0,1.85-.828,1.85-1.85s-.828-1.85-1.85-1.85-1.85.828-1.85,1.85.828,1.85,1.85,1.85Z"/>
    </g>
    <g>
      <path d="M60.536,80.781c1.022,0,1.85-.828,1.85-1.85s-.828-1.85-1.85-1.85-1.85.828-1.85,1.85.828,1.85,1.85,1.85Z"/>
      <path d="M70.402,74.121c1.022,0,1.85-.828,1.85-1.85s-.828-1.85-1.85-1.85-1.85.828-1.85,1.85.828,1.85,1.85,1.85Z"/>
      <circle cx="71.019" cy="82.631" r="1.85"/>
      <path d="M60.043,91.14c1.022,0,1.85-.828,1.85-1.85s-.828-1.85-1.85-1.85-1.85.828-1.85,1.85.828,1.85,1.85,1.85Z"/>
      <path d="M83.351,80.781c-.221,0-.418.097-.554.25l-10.052-2.872,2.7-2.265c.269.253.69.271.98.029.314-.262.355-.729.093-1.042-.262-.314-.729-.355-1.042-.093-.243.203-.322.529-.223.812l-8.041,6.745c.033-.115.067-.23.098-.345.457-1.685.749-3.312.892-4.974.277-3.225-.09-5.904-.385-8.056-.136-.992-.256-1.878-.303-2.689.054-.026.107-.058.155-.099.314-.262.355-.729.093-1.042-.262-.314-.729-.355-1.042-.093s-.355.729-.093,1.042c.14.168.339.257.541.264.049.81.169,1.686.303,2.665.292,2.135.657,4.792.383,7.978-.141,1.641-.429,3.248-.881,4.913-.049.179-.101.36-.154.54l-5.397-7.765,1.635-6.607c.022,0,.045.003.067.003,1.022,0,1.85-.828,1.85-1.85s-.828-1.85-1.85-1.85-1.85.828-1.85,1.85c0,.878.613,1.612,1.434,1.801l-1.552,6.27-1.803-2.595c.201-.296.318-.653.318-1.037,0-1.022-.828-1.85-1.85-1.85s-1.85.828-1.85,1.85.828,1.85,1.85,1.85c.507,0,.965-.204,1.3-.534l1.924,2.768v.006s.005.002.005.002l5.641,8.116c-.47,1.531-1.076,3.099-1.813,4.677-1.916,4.105-6.081,6.583-10.115,8.07v-10.538c.117-.024.229-.076.327-.157.314-.262.355-.729.093-1.042-.262-.314-.729-.355-1.042-.093s-.355.729-.093,1.042c.099.119.227.198.365.237v10.679c-1.113.395-2.211.717-3.243.977-2.634.663-5.137,1.011-6.995,1.193-.109-1.057-.992-1.885-2.078-1.885s-1.969.828-2.078,1.885c-1.858-.182-4.36-.53-6.995-1.193-1.032-.26-2.13-.582-3.243-.977v-10.679c.138-.039.266-.119.365-.237.262-.314.22-.78-.093-1.042s-.78-.22-1.042.093c-.262.314-.22.78.093,1.042.098.082.211.134.327.157v10.538c-4.035-1.487-8.2-3.964-10.115-8.07-.736-1.578-1.343-3.146-1.813-4.677l5.641-8.116.006-.002v-.006s1.922-2.768,1.922-2.768c.334.33.793.534,1.3.534,1.022,0,1.85-.828,1.85-1.85s-.828-1.85-1.85-1.85-1.85.828-1.85,1.85c0,.385.117.741.318,1.037l-1.803,2.595-1.552-6.27c.821-.189,1.434-.923,1.434-1.801,0-1.022-.828-1.85-1.85-1.85s-1.85.828-1.85,1.85.828,1.85,1.85,1.85c.023,0,.045-.003.067-.003l1.635,6.607-5.397,7.765c-.053-.181-.105-.361-.154-.54-.452-1.664-.74-3.271-.881-4.913-.274-3.187.091-5.844.383-7.978.134-.979.254-1.855.303-2.665.202-.007.401-.097.541-.264.262-.314.22-.78-.093-1.042s-.78-.22-1.042.093c-.262.314-.22.78.093,1.042.048.04.101.073.155.099-.047.812-.167,1.697-.303,2.689-.295,2.152-.662,4.83-.385,8.056.143,1.662.434,3.29.892,4.974.031.114.065.23.098.345l-8.041-6.745c.099-.282.02-.609-.223-.812-.314-.262-.78-.22-1.042.093-.262.314-.22.78.093,1.042.29.243.711.224.98-.029l2.7,2.265-10.052,2.872c-.136-.153-.333-.25-.554-.25-.409,0-.74.331-.74.74s.331.74.74.74.74-.331.74-.74c0-.06-.008-.118-.021-.173l10.21-2.917,5.388,4.519c.476,1.555,1.091,3.148,1.839,4.75,2.56,5.485,8.997,8.121,13.946,9.366,2.664.67,5.192,1.02,7.065,1.203.071,1.095.973,1.964,2.086,1.964s2.015-.869,2.086-1.964c1.874-.183,4.401-.532,7.065-1.203,4.949-1.245,11.386-3.881,13.946-9.366.747-1.602,1.363-3.195,1.839-4.75l5.388-4.519,10.21,2.917c-.013.056-.021.114-.021.173,0,.409.331.74.74.74s.74-.331.74-.74-.331-.74-.74-.74Z"/>
      <path d="M25.511,78.931c0-1.022-.828-1.85-1.85-1.85s-1.85.828-1.85,1.85.828,1.85,1.85,1.85,1.85-.828,1.85-1.85Z"/>
      <path d="M13.795,74.121c1.022,0,1.85-.828,1.85-1.85s-.828-1.85-1.85-1.85-1.85.828-1.85,1.85.828,1.85,1.85,1.85Z"/>
      <circle cx="13.178" cy="82.631" r="1.85"/>
      <path d="M24.154,91.14c1.022,0,1.85-.828,1.85-1.85s-.828-1.85-1.85-1.85-1.85.828-1.85,1.85.828,1.85,1.85,1.85Z"/>
    </g>
    <g>
      <path d="M165.518,137.891c1.022,0,1.85-.828,1.85-1.85s-.828-1.85-1.85-1.85-1.85.828-1.85,1.85.828,1.85,1.85,1.85Z"/>
      <path d="M175.384,131.231c1.022,0,1.85-.828,1.85-1.85s-.828-1.85-1.85-1.85-1.85.828-1.85,1.85.828,1.85,1.85,1.85Z"/>
      <circle cx="176" cy="139.741" r="1.85"/>
      <path d="M165.025,148.25c1.022,0,1.85-.828,1.85-1.85s-.828-1.85-1.85-1.85-1.85.828-1.85,1.85.828,1.85,1.85,1.85Z"/>
      <path d="M188.333,137.891c-.221,0-.418.097-.554.25l-10.052-2.872,2.7-2.265c.269.253.69.271.98.029.314-.262.355-.729.093-1.042-.262-.314-.729-.355-1.042-.093-.243.203-.322.529-.223.812l-8.041,6.745c.033-.115.067-.23.098-.345.457-1.685.749-3.312.892-4.974.277-3.225-.09-5.904-.385-8.056-.136-.992-.256-1.878-.303-2.689.054-.026.107-.058.155-.099.314-.262.355-.729.093-1.042-.262-.314-.729-.355-1.042-.093s-.355.729-.093,1.042c.14.168.339.257.541.264.049.81.169,1.686.303,2.665.292,2.135.657,4.792.383,7.978-.141,1.641-.429,3.248-.881,4.913-.049.179-.101.36-.154.54l-5.397-7.765,1.635-6.607c.022,0,.045.003.067.003,1.022,0,1.85-.828,1.85-1.85s-.828-1.85-1.85-1.85-1.85.828-1.85,1.85c0,.878.613,1.612,1.434,1.801l-1.552,6.27-1.803-2.595c.201-.296.318-.653.318-1.037,0-1.022-.828-1.85-1.85-1.85s-1.85.828-1.85,1.85.828,1.85,1.85,1.85c.507,0,.965-.204,1.3-.534l1.924,2.768v.006s.005.002.005.002l5.641,8.116c-.47,1.531-1.076,3.099-1.813,4.677-1.916,4.105-6.081,6.583-10.115,8.07v-10.538c.117-.024.229-.076.327-.157.314-.262.355-.729.093-1.042-.262-.314-.729-.355-1.042-.093s-.355.729-.093,1.042c.099.119.227.198.365.237v10.679c-1.113.395-2.211.717-3.243.977-2.634.663-5.137,1.011-6.995,1.193-.109-1.057-.992-1.885-2.078-1.885s-1.969.828-2.078,1.885c-1.858-.182-4.36-.53-6.995-1.193-1.032-.26-2.13-.582-3.243-.977v-10.679c.138-.039.266-.119.365-.237.262-.314.22-.78-.093-1.042s-.78-.22-1.042.093c-.262.314-.22.78.093,1.042.098.082.211.134.327.157v10.538c-4.035-1.487-8.2-3.964-10.115-8.07-.736-1.578-1.343-3.146-1.813-4.677l5.641-8.116.006-.002v-.006s1.922-2.768,1.922-2.768c.334.33.793.534,1.3.534,1.022,0,1.85-.828,1.85-1.85s-.828-1.85-1.85-1.85-1.85.828-1.85,1.85c0,.385.117.741.318,1.037l-1.803,2.595-1.552-6.27c.821-.189,1.434-.923,1.434-1.801,0-1.022-.828-1.85-1.85-1.85s-1.85.828-1.85,1.85.828,1.85,1.85,1.85c.023,0,.045-.003.067-.003l1.635,6.607-5.397,7.765c-.053-.181-.105-.361-.154-.54-.452-1.664-.74-3.271-.881-4.913-.274-3.187.091-5.844.383-7.978.134-.979.254-1.855.303-2.665.202-.007.401-.097.541-.264.262-.314.22-.78-.093-1.042s-.78-.22-1.042.093c-.262.314-.22.78.093,1.042.048.04.101.073.155.099-.047.812-.167,1.697-.303,2.689-.295,2.152-.662,4.83-.385,8.056.143,1.662.434,3.29.892,4.974.031.114.065.23.098.345l-8.041-6.745c.099-.282.02-.609-.223-.812-.314-.262-.78-.22-1.042.093-.262.314-.22.78.093,1.042.29.243.711.224.98-.029l2.7,2.265-10.052,2.872c-.136-.153-.333-.25-.554-.25-.409,0-.74.331-.74.74s.331.74.74.74.74-.331.74-.74c0-.06-.008-.118-.021-.173l10.21-2.917,5.388,4.519c.476,1.555,1.091,3.148,1.839,4.75,2.56,5.485,8.997,8.121,13.946,9.366,2.664.67,5.192,1.02,7.065,1.203.071,1.095.973,1.964,2.086,1.964s2.015-.869,2.086-1.964c1.874-.183,4.401-.532,7.065-1.203,4.949-1.245,11.386-3.881,13.946-9.366.747-1.602,1.363-3.195,1.839-4.75l5.388-4.519,10.21,2.917c-.013.056-.021.114-.021.173,0,.409.331.74.74.74s.74-.331.74-.74-.331-.74-.74-.74Z"/>
      <path d="M130.492,136.041c0-1.022-.828-1.85-1.85-1.85s-1.85.828-1.85,1.85.828,1.85,1.85,1.85,1.85-.828,1.85-1.85Z"/>
      <path d="M118.776,131.231c1.022,0,1.85-.828,1.85-1.85s-.828-1.85-1.85-1.85-1.85.828-1.85,1.85.828,1.85,1.85,1.85Z"/>
      <circle cx="118.16" cy="139.741" r="1.85"/>
      <path d="M129.136,148.25c1.022,0,1.85-.828,1.85-1.85s-.828-1.85-1.85-1.85-1.85.828-1.85,1.85.828,1.85,1.85,1.85Z"/>
    </g>
    <g>
      <path d="M165.518,178.204c1.022,0,1.85-.828,1.85-1.85s-.828-1.85-1.85-1.85-1.85.828-1.85,1.85.828,1.85,1.85,1.85Z"/>
      <path d="M175.384,171.544c1.022,0,1.85-.828,1.85-1.85s-.828-1.85-1.85-1.85-1.85.828-1.85,1.85.828,1.85,1.85,1.85Z"/>
      <circle cx="176" cy="180.054" r="1.85"/>
      <path d="M165.025,188.563c1.022,0,1.85-.828,1.85-1.85s-.828-1.85-1.85-1.85-1.85.828-1.85,1.85.828,1.85,1.85,1.85Z"/>
      <path d="M188.333,178.204c-.221,0-.418.097-.554.25l-10.052-2.872,2.7-2.265c.269.253.69.271.98.029.314-.262.355-.729.093-1.042-.262-.314-.729-.355-1.042-.093-.243.203-.322.529-.223.812l-8.041,6.745c.033-.115.067-.23.098-.345.457-1.685.749-3.312.892-4.974.277-3.225-.09-5.904-.385-8.056-.136-.992-.256-1.878-.303-2.689.054-.026.107-.058.155-.099.314-.262.355-.729.093-1.042-.262-.314-.729-.355-1.042-.093s-.355.729-.093,1.042c.14.168.339.257.541.264.049.81.169,1.686.303,2.665.292,2.135.657,4.792.383,7.978-.141,1.641-.429,3.248-.881,4.913-.049.179-.101.36-.154.54l-5.397-7.765,1.635-6.607c.022,0,.045.003.067.003,1.022,0,1.85-.828,1.85-1.85s-.828-1.85-1.85-1.85-1.85.828-1.85,1.85c0,.878.613,1.612,1.434,1.801l-1.552,6.27-1.803-2.595c.201-.296.318-.653.318-1.037,0-1.022-.828-1.85-1.85-1.85s-1.85.828-1.85,1.85.828,1.85,1.85,1.85c.507,0,.965-.204,1.3-.534l1.924,2.768v.006s.005.002.005.002l5.641,8.116c-.47,1.531-1.076,3.099-1.813,4.677-1.916,4.105-6.081,6.583-10.115,8.07v-10.538c.117-.024.229-.076.327-.157.314-.262.355-.729.093-1.042-.262-.314-.729-.355-1.042-.093s-.355.729-.093,1.042c.099.119.227.198.365.237v10.679c-1.113.395-2.211.717-3.243.977-2.634.663-5.137,1.011-6.995,1.193-.109-1.057-.992-1.885-2.078-1.885s-1.969.828-2.078,1.885c-1.858-.182-4.36-.53-6.995-1.193-1.032-.26-2.13-.582-3.243-.977v-10.679c.138-.039.266-.119.365-.237.262-.314.22-.78-.093-1.042s-.78-.22-1.042.093c-.262.314-.22.78.093,1.042.098.082.211.134.327.157v10.538c-4.035-1.487-8.2-3.964-10.115-8.07-.736-1.578-1.343-3.146-1.813-4.677l5.641-8.116.006-.002v-.006s1.922-2.768,1.922-2.768c.334.33.793.534,1.3.534,1.022,0,1.85-.828,1.85-1.85s-.828-1.85-1.85-1.85-1.85.828-1.85,1.85c0,.385.117.741.318,1.037l-1.803,2.595-1.552-6.27c.821-.189,1.434-.923,1.434-1.801,0-1.022-.828-1.85-1.85-1.85s-1.85.828-1.85,1.85.828,1.85,1.85,1.85c.023,0,.045-.003.067-.003l1.635,6.607-5.397,7.765c-.053-.181-.105-.361-.154-.54-.452-1.664-.74-3.271-.881-4.913-.274-3.187.091-5.844.383-7.978.134-.979.254-1.855.303-2.665.202-.007.401-.097.541-.264.262-.314.22-.78-.093-1.042s-.78-.22-1.042.093c-.262.314-.22.78.093,1.042.048.04.101.073.155.099-.047.812-.167,1.697-.303,2.689-.295,2.152-.662,4.83-.385,8.056.143,1.662.434,3.29.892,4.974.031.114.065.23.098.345l-8.041-6.745c.099-.282.02-.609-.223-.812-.314-.262-.78-.22-1.042.093-.262.314-.22.78.093,1.042.29.243.711.224.98-.029l2.7,2.265-10.052,2.872c-.136-.153-.333-.25-.554-.25-.409,0-.74.331-.74.74s.331.74.74.74.74-.331.74-.74c0-.06-.008-.118-.021-.173l10.21-2.917,5.388,4.519c.476,1.555,1.091,3.148,1.839,4.75,2.56,5.485,8.997,8.121,13.946,9.366,2.664.67,5.192,1.02,7.065,1.203.071,1.095.973,1.964,2.086,1.964s2.015-.869,2.086-1.964c1.874-.183,4.401-.532,7.065-1.203,4.949-1.245,11.386-3.881,13.946-9.366.747-1.602,1.363-3.195,1.839-4.75l5.388-4.519,10.21,2.917c-.013.056-.021.114-.021.173,0,.409.331.74.74.74s.74-.331.74-.74-.331-.74-.74-.74Z"/>
      <path d="M130.492,176.354c0-1.022-.828-1.85-1.85-1.85s-1.85.828-1.85,1.85.828,1.85,1.85,1.85,1.85-.828,1.85-1.85Z"/>
      <path d="M118.776,171.544c1.022,0,1.85-.828,1.85-1.85s-.828-1.85-1.85-1.85-1.85.828-1.85,1.85.828,1.85,1.85,1.85Z"/>
      <circle cx="118.16" cy="180.054" r="1.85"/>
      <path d="M129.136,188.563c1.022,0,1.85-.828,1.85-1.85s-.828-1.85-1.85-1.85-1.85.828-1.85,1.85.828,1.85,1.85,1.85Z"/>
    </g>
    <g>
      <path d="M164.678,234.474c1.022,0,1.85-.828,1.85-1.85s-.828-1.85-1.85-1.85-1.85.828-1.85,1.85.828,1.85,1.85,1.85Z"/>
      <path d="M174.544,227.814c1.022,0,1.85-.828,1.85-1.85s-.828-1.85-1.85-1.85-1.85.828-1.85,1.85.828,1.85,1.85,1.85Z"/>
      <circle cx="175.16" cy="236.324" r="1.85"/>
      <path d="M164.185,244.833c1.022,0,1.85-.828,1.85-1.85s-.828-1.85-1.85-1.85-1.85.828-1.85,1.85.828,1.85,1.85,1.85Z"/>
      <path d="M187.493,234.474c-.221,0-.418.097-.554.25l-10.052-2.872,2.7-2.265c.269.253.69.271.98.029.314-.262.355-.729.093-1.042-.262-.314-.729-.355-1.042-.093-.243.203-.322.529-.223.812l-8.041,6.745c.033-.115.067-.23.098-.345.457-1.685.749-3.312.892-4.974.277-3.225-.09-5.904-.385-8.056-.136-.992-.256-1.878-.303-2.689.054-.026.107-.058.155-.099.314-.262.355-.729.093-1.042-.262-.314-.729-.355-1.042-.093s-.355.729-.093,1.042c.14.168.339.257.541.264.049.81.169,1.686.303,2.665.292,2.135.657,4.792.383,7.978-.141,1.641-.429,3.248-.881,4.913-.049.179-.101.36-.154.54l-5.397-7.765,1.635-6.607c.022,0,.045.003.067.003,1.022,0,1.85-.828,1.85-1.85s-.828-1.85-1.85-1.85-1.85.828-1.85,1.85c0,.878.613,1.612,1.434,1.801l-1.552,6.27-1.803-2.595c.201-.296.318-.653.318-1.037,0-1.022-.828-1.85-1.85-1.85s-1.85.828-1.85,1.85.828,1.85,1.85,1.85c.507,0,.965-.204,1.3-.534l1.924,2.768v.006s.005.002.005.002l5.641,8.116c-.47,1.531-1.076,3.099-1.813,4.677-1.916,4.105-6.081,6.583-10.115,8.07v-10.538c.117-.024.229-.076.327-.157.314-.262.355-.729.093-1.042-.262-.314-.729-.355-1.042-.093s-.355.729-.093,1.042c.099.119.227.198.365.237v10.679c-1.113.395-2.211.717-3.243.977-2.634.663-5.137,1.011-6.995,1.193-.109-1.057-.992-1.885-2.078-1.885s-1.969.828-2.078,1.885c-1.858-.182-4.36-.53-6.995-1.193-1.032-.26-2.13-.582-3.243-.977v-10.679c.138-.039.266-.119.365-.237.262-.314.22-.78-.093-1.042s-.78-.22-1.042.093c-.262.314-.22.78.093,1.042.098.082.211.134.327.157v10.538c-4.035-1.487-8.2-3.964-10.115-8.07-.736-1.578-1.343-3.146-1.813-4.677l5.641-8.116.006-.002v-.006s1.922-2.768,1.922-2.768c.334.33.793.534,1.3.534,1.022,0,1.85-.828,1.85-1.85s-.828-1.85-1.85-1.85-1.85.828-1.85,1.85c0,.385.117.741.318,1.037l-1.803,2.595-1.552-6.27c.821-.189,1.434-.923,1.434-1.801,0-1.022-.828-1.85-1.85-1.85s-1.85.828-1.85,1.85.828,1.85,1.85,1.85c.023,0,.045-.003.067-.003l1.635,6.607-5.397,7.765c-.053-.181-.105-.361-.154-.54-.452-1.664-.74-3.271-.881-4.913-.274-3.187.091-5.844.383-7.978.134-.979.254-1.855.303-2.665.202-.007.401-.097.541-.264.262-.314.22-.78-.093-1.042s-.78-.22-1.042.093c-.262.314-.22.78.093,1.042.048.04.101.073.155.099-.047.812-.167,1.697-.303,2.689-.295,2.152-.662,4.83-.385,8.056.143,1.662.434,3.29.892,4.974.031.114.065.23.098.345l-8.041-6.745c.099-.282.02-.609-.223-.812-.314-.262-.78-.22-1.042.093-.262.314-.22.78.093,1.042.29.243.711.224.98-.029l2.7,2.265-10.052,2.872c-.136-.153-.333-.25-.554-.25-.409,0-.74.331-.74.74s.331.74.74.74.74-.331.74-.74c0-.06-.008-.118-.021-.173l10.21-2.917,5.388,4.519c.476,1.555,1.091,3.148,1.839,4.75,2.56,5.485,8.997,8.121,13.946,9.366,2.664.67,5.192,1.02,7.065,1.203.071,1.095.973,1.964,2.086,1.964s2.015-.869,2.086-1.964c1.874-.183,4.401-.532,7.065-1.203,4.949-1.245,11.386-3.881,13.946-9.366.747-1.602,1.363-3.195,1.839-4.75l5.388-4.519,10.21,2.917c-.013.056-.021.114-.021.173,0,.409.331.74.74.74s.74-.331.74-.74-.331-.74-.74-.74Z"/>
      <path d="M129.652,232.624c0-1.022-.828-1.85-1.85-1.85s-1.85.828-1.85,1.85.828,1.85,1.85,1.85,1.85-.828,1.85-1.85Z"/>
      <path d="M117.937,227.814c1.022,0,1.85-.828,1.85-1.85s-.828-1.85-1.85-1.85-1.85.828-1.85,1.85.828,1.85,1.85,1.85Z"/>
      <circle cx="117.32" cy="236.324" r="1.85"/>
      <path d="M128.296,244.833c1.022,0,1.85-.828,1.85-1.85s-.828-1.85-1.85-1.85-1.85.828-1.85,1.85.828,1.85,1.85,1.85Z"/>
    </g>
    <g>
      <path d="M164.678,274.787c1.022,0,1.85-.828,1.85-1.85s-.828-1.85-1.85-1.85-1.85.828-1.85,1.85.828,1.85,1.85,1.85Z"/>
      <path d="M174.544,268.127c1.022,0,1.85-.828,1.85-1.85s-.828-1.85-1.85-1.85-1.85.828-1.85,1.85.828,1.85,1.85,1.85Z"/>
      <circle cx="175.16" cy="276.637" r="1.85"/>
      <path d="M164.185,285.146c1.022,0,1.85-.828,1.85-1.85s-.828-1.85-1.85-1.85-1.85.828-1.85,1.85.828,1.85,1.85,1.85Z"/>
      <path d="M187.493,274.787c-.221,0-.418.097-.554.25l-10.052-2.872,2.7-2.265c.269.253.69.271.98.029.314-.262.355-.729.093-1.042-.262-.314-.729-.355-1.042-.093-.243.203-.322.529-.223.812l-8.041,6.745c.033-.115.067-.23.098-.345.457-1.685.749-3.312.892-4.974.277-3.225-.09-5.904-.385-8.056-.136-.992-.256-1.878-.303-2.689.054-.026.107-.058.155-.099.314-.262.355-.729.093-1.042-.262-.314-.729-.355-1.042-.093s-.355.729-.093,1.042c.14.168.339.257.541.264.049.81.169,1.686.303,2.665.292,2.135.657,4.792.383,7.978-.141,1.641-.429,3.248-.881,4.913-.049.179-.101.36-.154.54l-5.397-7.765,1.635-6.607c.022,0,.045.003.067.003,1.022,0,1.85-.828,1.85-1.85s-.828-1.85-1.85-1.85-1.85.828-1.85,1.85c0,.878.613,1.612,1.434,1.801l-1.552,6.27-1.803-2.595c.201-.296.318-.653.318-1.037,0-1.022-.828-1.85-1.85-1.85s-1.85.828-1.85,1.85.828,1.85,1.85,1.85c.507,0,.965-.204,1.3-.534l1.924,2.768v.006s.005.002.005.002l5.641,8.116c-.47,1.531-1.076,3.099-1.813,4.677-1.916,4.105-6.081,6.583-10.115,8.07v-10.538c.117-.024.229-.076.327-.157.314-.262.355-.729.093-1.042-.262-.314-.729-.355-1.042-.093s-.355.729-.093,1.042c.099.119.227.198.365.237v10.679c-1.113.395-2.211.717-3.243.977-2.634.663-5.137,1.011-6.995,1.193-.109-1.057-.992-1.885-2.078-1.885s-1.969.828-2.078,1.885c-1.858-.182-4.36-.53-6.995-1.193-1.032-.26-2.13-.582-3.243-.977v-10.679c.138-.039.266-.119.365-.237.262-.314.22-.78-.093-1.042s-.78-.22-1.042.093c-.262.314-.22.78.093,1.042.098.082.211.134.327.157v10.538c-4.035-1.487-8.2-3.964-10.115-8.07-.736-1.578-1.343-3.146-1.813-4.677l5.641-8.116.006-.002v-.006s1.922-2.768,1.922-2.768c.334.33.793.534,1.3.534,1.022,0,1.85-.828,1.85-1.85s-.828-1.85-1.85-1.85-1.85.828-1.85,1.85c0,.385.117.741.318,1.037l-1.803,2.595-1.552-6.27c.821-.189,1.434-.923,1.434-1.801,0-1.022-.828-1.85-1.85-1.85s-1.85.828-1.85,1.85.828,1.85,1.85,1.85c.023,0,.045-.003.067-.003l1.635,6.607-5.397,7.765c-.053-.181-.105-.361-.154-.54-.452-1.664-.74-3.271-.881-4.913-.274-3.187.091-5.844.383-7.978.134-.979.254-1.855.303-2.665.202-.007.401-.097.541-.264.262-.314.22-.78-.093-1.042s-.78-.22-1.042.093c-.262.314-.22.78.093,1.042.048.04.101.073.155.099-.047.812-.167,1.697-.303,2.689-.295,2.152-.662,4.83-.385,8.056.143,1.662.434,3.29.892,4.974.031.114.065.23.098.345l-8.041-6.745c.099-.282.02-.609-.223-.812-.314-.262-.78-.22-1.042.093-.262.314-.22.78.093,1.042.29.243.711.224.98-.029l2.7,2.265-10.052,2.872c-.136-.153-.333-.25-.554-.25-.409,0-.74.331-.74.74s.331.74.74.74.74-.331.74-.74c0-.06-.008-.118-.021-.173l10.21-2.917,5.388,4.519c.476,1.555,1.091,3.148,1.839,4.75,2.56,5.485,8.997,8.121,13.946,9.366,2.664.67,5.192,1.02,7.065,1.203.071,1.095.973,1.964,2.086,1.964s2.015-.869,2.086-1.964c1.874-.183,4.401-.532,7.065-1.203,4.949-1.245,11.386-3.881,13.946-9.366.747-1.602,1.363-3.195,1.839-4.75l5.388-4.519,10.21,2.917c-.013.056-.021.114-.021.173,0,.409.331.74.74.74s.74-.331.74-.74-.331-.74-.74-.74Z"/>
      <path d="M129.652,272.937c0-1.022-.828-1.85-1.85-1.85s-1.85.828-1.85,1.85.828,1.85,1.85,1.85,1.85-.828,1.85-1.85Z"/>
      <path d="M117.937,268.127c1.022,0,1.85-.828,1.85-1.85s-.828-1.85-1.85-1.85-1.85.828-1.85,1.85.828,1.85,1.85,1.85Z"/>
      <circle cx="117.32" cy="276.637" r="1.85"/>
      <path d="M128.296,285.146c1.022,0,1.85-.828,1.85-1.85s-.828-1.85-1.85-1.85-1.85.828-1.85,1.85.828,1.85,1.85,1.85Z"/>
    </g>
    <g>
      <path d="M164.678,315.1c1.022,0,1.85-.828,1.85-1.85s-.828-1.85-1.85-1.85-1.85.828-1.85,1.85.828,1.85,1.85,1.85Z"/>
      <path d="M174.544,308.44c1.022,0,1.85-.828,1.85-1.85s-.828-1.85-1.85-1.85-1.85.828-1.85,1.85.828,1.85,1.85,1.85Z"/>
      <circle cx="175.16" cy="316.949" r="1.85"/>
      <path d="M164.185,325.459c1.022,0,1.85-.828,1.85-1.85s-.828-1.85-1.85-1.85-1.85.828-1.85,1.85.828,1.85,1.85,1.85Z"/>
      <path d="M187.493,315.1c-.221,0-.418.097-.554.25l-10.052-2.872,2.7-2.265c.269.253.69.271.98.029.314-.262.355-.729.093-1.042-.262-.314-.729-.355-1.042-.093-.243.203-.322.529-.223.812l-8.041,6.745c.033-.115.067-.23.098-.345.457-1.685.749-3.312.892-4.974.277-3.225-.09-5.904-.385-8.056-.136-.992-.256-1.878-.303-2.689.054-.026.107-.058.155-.099.314-.262.355-.729.093-1.042-.262-.314-.729-.355-1.042-.093s-.355.729-.093,1.042c.14.168.339.257.541.264.049.81.169,1.686.303,2.665.292,2.135.657,4.792.383,7.978-.141,1.641-.429,3.248-.881,4.913-.049.179-.101.36-.154.54l-5.397-7.765,1.635-6.607c.022,0,.045.003.067.003,1.022,0,1.85-.828,1.85-1.85s-.828-1.85-1.85-1.85-1.85.828-1.85,1.85c0,.878.613,1.612,1.434,1.801l-1.552,6.27-1.803-2.595c.201-.296.318-.653.318-1.037,0-1.022-.828-1.85-1.85-1.85s-1.85.828-1.85,1.85.828,1.85,1.85,1.85c.507,0,.965-.204,1.3-.534l1.924,2.768v.006s.005.002.005.002l5.641,8.116c-.47,1.531-1.076,3.099-1.813,4.677-1.916,4.105-6.081,6.583-10.115,8.07v-10.538c.117-.024.229-.076.327-.157.314-.262.355-.729.093-1.042-.262-.314-.729-.355-1.042-.093s-.355.729-.093,1.042c.099.119.227.198.365.237v10.679c-1.113.395-2.211.717-3.243.977-2.634.663-5.137,1.011-6.995,1.193-.109-1.057-.992-1.885-2.078-1.885s-1.969.828-2.078,1.885c-1.858-.182-4.36-.53-6.995-1.193-1.032-.26-2.13-.582-3.243-.977v-10.679c.138-.039.266-.119.365-.237.262-.314.22-.78-.093-1.042s-.78-.22-1.042.093c-.262.314-.22.78.093,1.042.098.082.211.134.327.157v10.538c-4.035-1.487-8.2-3.964-10.115-8.07-.736-1.578-1.343-3.146-1.813-4.677l5.641-8.116.006-.002v-.006s1.922-2.768,1.922-2.768c.334.33.793.534,1.3.534,1.022,0,1.85-.828,1.85-1.85s-.828-1.85-1.85-1.85-1.85.828-1.85,1.85c0,.385.117.741.318,1.037l-1.803,2.595-1.552-6.27c.821-.189,1.434-.923,1.434-1.801,0-1.022-.828-1.85-1.85-1.85s-1.85.828-1.85,1.85.828,1.85,1.85,1.85c.023,0,.045-.003.067-.003l1.635,6.607-5.397,7.765c-.053-.181-.105-.361-.154-.54-.452-1.664-.74-3.271-.881-4.913-.274-3.187.091-5.844.383-7.978.134-.979.254-1.855.303-2.665.202-.007.401-.097.541-.264.262-.314.22-.78-.093-1.042s-.78-.22-1.042.093c-.262.314-.22.78.093,1.042.048.04.101.073.155.099-.047.812-.167,1.697-.303,2.689-.295,2.152-.662,4.83-.385,8.056.143,1.662.434,3.29.892,4.974.031.114.065.23.098.345l-8.041-6.745c.099-.282.02-.609-.223-.812-.314-.262-.78-.22-1.042.093-.262.314-.22.78.093,1.042.29.243.711.224.98-.029l2.7,2.265-10.052,2.872c-.136-.153-.333-.25-.554-.25-.409,0-.74.331-.74.74s.331.74.74.74.74-.331.74-.74c0-.06-.008-.118-.021-.173l10.21-2.917,5.388,4.519c.476,1.555,1.091,3.148,1.839,4.75,2.56,5.485,8.997,8.121,13.946,9.366,2.664.67,5.192,1.02,7.065,1.203.071,1.095.973,1.964,2.086,1.964s2.015-.869,2.086-1.964c1.874-.183,4.401-.532,7.065-1.203,4.949-1.245,11.386-3.881,13.946-9.366.747-1.602,1.363-3.195,1.839-4.75l5.388-4.519,10.21,2.917c-.013.056-.021.114-.021.173,0,.409.331.74.74.74s.74-.331.74-.74-.331-.74-.74-.74Z"/>
      <path d="M129.652,313.25c0-1.022-.828-1.85-1.85-1.85s-1.85.828-1.85,1.85.828,1.85,1.85,1.85,1.85-.828,1.85-1.85Z"/>
      <path d="M117.937,308.44c1.022,0,1.85-.828,1.85-1.85s-.828-1.85-1.85-1.85-1.85.828-1.85,1.85.828,1.85,1.85,1.85Z"/>
      <circle cx="117.32" cy="316.949" r="1.85"/>
      <path d="M128.296,325.459c1.022,0,1.85-.828,1.85-1.85s-.828-1.85-1.85-1.85-1.85.828-1.85,1.85.828,1.85,1.85,1.85Z"/>
    </g>
    <g>
      <path d="M174.737,386.565c1.533,0,2.775-1.242,2.775-2.775s-1.242-2.775-2.775-2.775-2.775,1.242-2.775,2.775,1.242,2.775,2.775,2.775Z"/>
      <path d="M189.536,376.575c1.532,0,2.775-1.242,2.775-2.775s-1.242-2.775-2.775-2.775-2.775,1.242-2.775,2.775,1.242,2.775,2.775,2.775Z"/>
      <circle cx="190.46" cy="389.339" r="2.775"/>
      <path d="M173.997,402.103c1.532,0,2.775-1.242,2.775-2.775s-1.242-2.775-2.775-2.775-2.775,1.242-2.775,2.775,1.242,2.775,2.775,2.775Z"/>
      <path d="M208.959,386.565c-.331,0-.627.146-.831.375l-15.078-4.308,4.05-3.398c.403.379,1.035.407,1.471.043.47-.393.533-1.093.14-1.563-.393-.47-1.093-.533-1.563-.14-.365.305-.483.794-.335,1.218l-12.061,10.117c.049-.172.1-.346.147-.517.686-2.527,1.124-4.968,1.338-7.462.415-4.838-.135-8.856-.577-12.084-.204-1.488-.385-2.817-.455-4.034.082-.039.16-.088.232-.148.47-.393.533-1.093.14-1.563-.393-.47-1.093-.533-1.563-.14s-.533,1.093-.14,1.563c.21.251.508.385.811.396.074,1.215.253,2.53.455,3.997.439,3.202.985,7.188.575,11.968-.211,2.462-.644,4.873-1.321,7.369-.073.269-.151.54-.23.811l-8.095-11.647,2.453-9.911c.034.001.067.005.101.005,1.532,0,2.775-1.242,2.775-2.775s-1.242-2.775-2.775-2.775-2.775,1.242-2.775,2.775c0,1.317.919,2.418,2.15,2.702l-2.328,9.406-2.705-3.892c.301-.444.477-.979.477-1.556,0-1.532-1.242-2.775-2.775-2.775s-2.775,1.242-2.775,2.775,1.242,2.775,2.775,2.775c.76,0,1.448-.306,1.949-.801l2.885,4.152-.002.009.01.002,8.461,12.173c-.705,2.296-1.615,4.649-2.719,7.015-2.874,6.158-9.121,9.874-15.173,12.104v-15.808c.175-.035.344-.114.491-.236.47-.393.533-1.093.14-1.563-.393-.47-1.093-.533-1.563-.14s-.533,1.093-.14,1.563c.149.178.341.297.548.356v16.018c-1.669.593-3.316,1.076-4.865,1.466-3.952.995-7.705,1.517-10.492,1.79-.163-1.586-1.488-2.828-3.117-2.828s-2.954,1.242-3.117,2.828c-2.787-.274-6.54-.795-10.492-1.79-1.548-.39-3.195-.873-4.865-1.466v-16.018c.207-.059.4-.178.548-.356.393-.47.33-1.17-.14-1.563s-1.17-.33-1.563.14c-.393.47-.33,1.17.14,1.563.147.123.316.201.491.236v15.808c-6.052-2.23-12.299-5.946-15.173-12.104-1.104-2.366-2.014-4.719-2.719-7.015l8.461-12.173.01-.002-.002-.009,2.885-4.152c.501.495,1.189.801,1.949.801,1.532,0,2.775-1.242,2.775-2.775s-1.242-2.775-2.775-2.775-2.775,1.242-2.775,2.775c0,.577.176,1.112.477,1.556l-2.705,3.892-2.328-9.406c1.231-.284,2.15-1.384,2.15-2.702,0-1.533-1.242-2.775-2.775-2.775s-2.775,1.242-2.775,2.775,1.242,2.775,2.775,2.775c.034,0,.067-.004.101-.005l2.453,9.911-8.095,11.647c-.079-.271-.157-.542-.23-.811-.678-2.497-1.11-4.907-1.321-7.369-.41-4.78.136-8.766.575-11.968.201-1.468.38-2.782.455-3.997.304-.011.601-.145.811-.396.393-.47.33-1.17-.14-1.563s-1.17-.33-1.563.14c-.393.47-.33,1.17.14,1.563.072.061.151.109.232.148-.07,1.218-.251,2.546-.455,4.034-.442,3.228-.993,7.246-.577,12.084.214,2.494.652,4.934,1.338,7.462.047.172.098.345.147.517l-12.061-10.117c.148-.424.03-.913-.335-1.218-.47-.393-1.17-.33-1.563.14-.393.47-.33,1.17.14,1.563.436.364,1.067.336,1.471-.043l4.05,3.398-15.078,4.308c-.203-.23-.5-.375-.831-.375-.613,0-1.11.497-1.11,1.11s.497,1.11,1.11,1.11,1.11-.497,1.11-1.11c0-.09-.012-.177-.032-.26l15.315-4.376,8.082,6.779c.714,2.333,1.637,4.722,2.758,7.125,3.84,8.228,13.495,12.182,20.919,14.049,3.996,1.005,7.787,1.53,10.598,1.804.107,1.643,1.459,2.946,3.129,2.946s3.022-1.303,3.129-2.946c2.811-.274,6.602-.799,10.598-1.804,7.424-1.868,17.08-5.821,20.919-14.049,1.121-2.403,2.044-4.792,2.758-7.125l8.082-6.779,15.315,4.376c-.02.084-.032.17-.032.26,0,.613.497,1.11,1.11,1.11s1.11-.497,1.11-1.11-.497-1.11-1.11-1.11Z"/>
      <path d="M122.198,383.79c0-1.532-1.242-2.775-2.775-2.775s-2.775,1.242-2.775,2.775,1.242,2.775,2.775,2.775,2.775-1.242,2.775-2.775Z"/>
      <path d="M104.625,376.575c1.533,0,2.775-1.242,2.775-2.775s-1.242-2.775-2.775-2.775-2.775,1.242-2.775,2.775,1.242,2.775,2.775,2.775Z"/>
      <circle cx="103.7" cy="389.339" r="2.775"/>
      <path d="M120.163,402.103c1.532,0,2.775-1.242,2.775-2.775s-1.242-2.775-2.775-2.775-2.775,1.242-2.775,2.775,1.242,2.775,2.775,2.775Z"/>
    </g>
    <g>
      <path d="M233.423,307.587c.722.722,1.894.722,2.616,0s.722-1.894,0-2.616-1.894-.722-2.616,0-.722,1.894,0,2.616Z"/>
      <path d="M245.108,309.855c.722.722,1.894.722,2.616,0s.722-1.894,0-2.616-1.894-.722-2.616,0-.722,1.894,0,2.616Z"/>
      <circle cx="239.527" cy="316.308" r="1.85" transform="translate(-153.507 262.016) rotate(-45)"/>
      <path d="M225.749,314.564c.722.722,1.894.722,2.616,0s.722-1.894,0-2.616-1.894-.722-2.616,0-.722,1.894,0,2.616Z"/>
      <path d="M249.556,323.72c-.156-.156-.364-.227-.568-.215l-5.077-9.139,3.511.308c.011.369.296.68.673.713.407.036.767-.264.803-.671.036-.407-.264-.767-.671-.803-.316-.028-.602.146-.732.416l-10.455-.916c.104-.058.21-.116.313-.174,1.515-.868,2.872-1.812,4.148-2.887,2.477-2.085,4.111-4.238,5.424-5.968.605-.798,1.146-1.509,1.687-2.116.057.02.117.034.179.04.407.036.767-.264.803-.671.037-.407-.264-.767-.671-.803s-.767.264-.803.671c-.02.218.058.421.196.569-.538.608-1.073,1.312-1.67,2.099-1.303,1.716-2.924,3.853-5.371,5.912-1.26,1.061-2.6,1.994-4.097,2.851-.161.092-.326.183-.491.274l1.675-9.307,5.828-3.516c.015.016.029.034.045.05.722.722,1.894.722,2.616,0s.722-1.894,0-2.616-1.894-.722-2.616,0c-.621.621-.707,1.573-.26,2.287l-5.531,3.337.559-3.11c.351-.067.687-.237.959-.509.722-.722.722-1.894,0-2.616s-1.894-.722-2.616,0-.722,1.894,0,2.616c.358.358.827.538,1.297.541l-.597,3.317-.005.003.003.006-1.75,9.727c-1.415.75-2.952,1.43-4.589,2.025-4.258,1.548-8.954.355-12.859-1.447l7.452-7.452c.099.066.216.109.343.12.407.036.767-.264.803-.671.037-.407-.264-.767-.671-.803s-.767.264-.803.671c-.014.154.021.301.091.426l-7.551,7.551c-1.067-.507-2.07-1.056-2.984-1.602-2.332-1.394-4.347-2.917-5.79-4.102.671-.825.632-2.034-.136-2.802s-1.978-.807-2.802-.136c-1.185-1.443-2.708-3.458-4.102-5.79-.546-.914-1.095-1.918-1.602-2.984l7.551-7.551c.125.07.272.104.426.091.407-.036.707-.396.671-.803s-.396-.707-.803-.671c-.407.036-.707.396-.671.803.011.127.054.244.12.343l-7.452,7.452c-1.802-3.904-2.995-8.601-1.447-12.859.595-1.636,1.275-3.174,2.025-4.589l9.727-1.75.006.003.003-.005,3.317-.597c.003.47.183.938.541,1.297.722.722,1.894.722,2.616,0s.722-1.894,0-2.616-1.894-.722-2.616,0c-.272.272-.441.607-.509.959l-3.11.559,3.337-5.531c.714.447,1.666.361,2.287-.26.722-.722.722-1.894,0-2.616s-1.894-.722-2.616,0-.722,1.894,0,2.616c.016.016.034.03.05.045l-3.516,5.828-9.307,1.675c.091-.165.181-.329.274-.491.857-1.496,1.79-2.837,2.851-4.097,2.06-2.447,4.196-4.068,5.912-5.371.787-.597,1.491-1.132,2.099-1.67.148.138.352.215.569.196.407-.036.707-.396.671-.803s-.396-.707-.803-.671c-.407.036-.707.396-.671.803.006.063.02.123.04.179-.607.541-1.318,1.082-2.116,1.687-1.73,1.313-3.884,2.948-5.968,5.424-1.075,1.276-2.019,2.633-2.887,4.148-.059.103-.116.209-.174.313l-.916-10.455c.269-.13.444-.416.416-.732-.036-.407-.396-.707-.803-.671-.407.037-.707.396-.671.803.034.377.345.662.713.673l.308,3.511-9.139-5.077c.012-.204-.059-.412-.215-.568-.289-.289-.757-.289-1.046,0s-.289.757,0,1.046.758.289,1.046,0c.042-.042.078-.089.108-.138l9.283,5.157.614,7.005c-.763,1.436-1.455,2.998-2.059,4.659-2.069,5.689.619,12.104,3.239,16.484,1.41,2.358,2.95,4.392,4.145,5.846-.724.825-.701,2.077.086,2.864s2.039.81,2.864.086c1.454,1.196,3.489,2.736,5.846,4.145,4.38,2.619,10.796,5.307,16.484,3.239,1.661-.604,3.223-1.296,4.659-2.059l7.005.614,5.157,9.283c-.049.03-.095.065-.138.108-.289.289-.289.758,0,1.046s.757.289,1.046,0,.289-.757,0-1.046Z"/>
      <path d="M209.964,281.512c.722-.722.722-1.894,0-2.616s-1.894-.722-2.616,0-.722,1.894,0,2.616,1.894.722,2.616,0Z"/>
      <path d="M205.081,269.827c.722.722,1.894.722,2.616,0s.722-1.894,0-2.616-1.894-.722-2.616,0-.722,1.894,0,2.616Z"/>
      <circle cx="198.628" cy="275.408" r="1.85" transform="translate(-136.566 221.116) rotate(-45)"/>
      <path d="M200.372,289.186c.722.722,1.894.722,2.616,0s.722-1.894,0-2.616-1.894-.722-2.616,0-.722,1.894,0,2.616Z"/>
    </g>
    <g>
      <path d="M61.007,307.587c-.722.722-1.894.722-2.616,0s-.722-1.894,0-2.616,1.894-.722,2.616,0,.722,1.894,0,2.616Z"/>
      <path d="M49.322,309.855c-.722.722-1.894.722-2.616,0s-.722-1.894,0-2.616,1.894-.722,2.616,0,.722,1.894,0,2.616Z"/>
      <circle cx="54.903" cy="316.308" r="1.85" transform="translate(-207.583 131.467) rotate(-45)"/>
      <path d="M68.681,314.564c-.722.722-1.894.722-2.616,0s-.722-1.894,0-2.616,1.894-.722,2.616,0,.722,1.894,0,2.616Z"/>
      <path d="M44.875,323.72c.156-.156.364-.227.568-.215l5.077-9.139-3.511.308c-.011.369-.296.68-.673.713-.407.036-.767-.264-.803-.671-.036-.407.264-.767.671-.803.316-.028.602.146.732.416l10.455-.916c-.104-.058-.21-.116-.313-.174-1.515-.868-2.872-1.812-4.148-2.887-2.477-2.085-4.111-4.238-5.424-5.968-.605-.798-1.146-1.509-1.687-2.116-.057.02-.117.034-.179.04-.407.036-.767-.264-.803-.671-.037-.407.264-.767.671-.803s.767.264.803.671c.02.218-.058.421-.196.569.538.608,1.073,1.312,1.67,2.099,1.303,1.716,2.924,3.853,5.371,5.912,1.26,1.061,2.6,1.994,4.097,2.851.161.092.326.183.491.274l-1.675-9.307-5.828-3.516c-.015.016-.029.034-.045.05-.722.722-1.894.722-2.616,0s-.722-1.894,0-2.616,1.894-.722,2.616,0c.621.621.707,1.573.26,2.287l5.531,3.337-.559-3.11c-.351-.067-.687-.237-.959-.509-.722-.722-.722-1.894,0-2.616s1.894-.722,2.616,0,.722,1.894,0,2.616c-.358.358-.827.538-1.297.541l.597,3.317.005.003-.003.006,1.75,9.727c1.415.75,2.952,1.43,4.589,2.025,4.258,1.548,8.954.355,12.859-1.447l-7.452-7.452c-.099.066-.216.109-.343.12-.407.036-.767-.264-.803-.671-.037-.407.264-.767.671-.803s.767.264.803.671c.014.154-.021.301-.091.426l7.551,7.551c1.067-.507,2.07-1.056,2.984-1.602,2.332-1.394,4.347-2.917,5.79-4.102-.671-.825-.632-2.034.136-2.802s1.978-.807,2.802-.136c1.185-1.443,2.708-3.458,4.102-5.79.546-.914,1.095-1.918,1.602-2.984l-7.551-7.551c-.125.07-.272.104-.426.091-.407-.036-.707-.396-.671-.803s.396-.707.803-.671c.407.036.707.396.671.803-.011.127-.054.244-.12.343l7.452,7.452c1.802-3.904,2.995-8.601,1.447-12.859-.595-1.636-1.275-3.174-2.025-4.589l-9.727-1.75-.006.003-.003-.005-3.317-.597c-.003.47-.183.938-.541,1.297-.722.722-1.894.722-2.616,0s-.722-1.894,0-2.616,1.894-.722,2.616,0c.272.272.441.607.509.959l3.11.559-3.337-5.531c-.714.447-1.666.361-2.287-.26-.722-.722-.722-1.894,0-2.616s1.894-.722,2.616,0,.722,1.894,0,2.616c-.016.016-.034.03-.05.045l3.516,5.828,9.307,1.675c-.091-.165-.181-.329-.274-.491-.857-1.496-1.79-2.837-2.851-4.097-2.06-2.447-4.196-4.068-5.912-5.371-.787-.597-1.491-1.132-2.099-1.67-.148.138-.352.215-.569.196-.407-.036-.707-.396-.671-.803s.396-.707.803-.671c.407.036.707.396.671.803-.006.063-.02.123-.04.179.607.541,1.318,1.082,2.116,1.687,1.73,1.313,3.884,2.948,5.968,5.424,1.075,1.276,2.019,2.633,2.887,4.148.059.103.116.209.174.313l.916-10.455c-.269-.13-.444-.416-.416-.732.036-.407.396-.707.803-.671.407.037.707.396.671.803-.034.377-.345.662-.713.673l-.308,3.511,9.139-5.077c-.012-.204.059-.412.215-.568.289-.289.757-.289,1.046,0s.289.757,0,1.046-.758.289-1.046,0c-.042-.042-.078-.089-.108-.138l-9.283,5.157-.614,7.005c.763,1.436,1.455,2.998,2.059,4.659,2.069,5.689-.619,12.104-3.239,16.484-1.41,2.358-2.95,4.392-4.145,5.846.724.825.701,2.077-.086,2.864s-2.039.81-2.864.086c-1.454,1.196-3.489,2.736-5.846,4.145-4.38,2.619-10.796,5.307-16.484,3.239-1.661-.604-3.223-1.296-4.659-2.059l-7.005.614-5.157,9.283c.049.03.095.065.138.108.289.289.289.758,0,1.046s-.757.289-1.046,0-.289-.757,0-1.046Z"/>
      <path d="M84.466,281.512c-.722-.722-.722-1.894,0-2.616s1.894-.722,2.616,0,.722,1.894,0,2.616-1.894.722-2.616,0Z"/>
      <path d="M89.349,269.827c-.722.722-1.894.722-2.616,0s-.722-1.894,0-2.616,1.894-.722,2.616,0,.722,1.894,0,2.616Z"/>
      <circle cx="95.802" cy="275.408" r="1.85" transform="translate(-166.683 148.408) rotate(-45)"/>
      <path d="M94.058,289.186c-.722.722-1.894.722-2.616,0s-.722-1.894,0-2.616,1.894-.722,2.616,0,.722,1.894,0,2.616Z"/>
    </g>
  </g>
  <g id="Flores">
    <g>
      <g>
        <ellipse cx="42.332" cy="19.252" rx="5.444" ry="3.811" fill="#0c0d0b"/>
        <path d="M56.387,44.553c-4.349-2.002-9.639.719-12.23,4.424-.554.673-1.055,1.73-1.359,1.965v-4.146c1.19-3.392,4.955-4.893,8.808-6.24,2.634-.859,8.69-2.536,7.646-6.101-2.042-2.98-6.933-2.625-9.816-.746-3.229,2.028-5.104,5.22-6.637,7.553v-5.406c1.247-3.01,4.426-4.504,8.697-6.022,1.808-.652,3.296-.597,4.213-1.636,4.569-8.269-5.357-13.001-11.354-.622-.327.732-1.193,2.296-1.555,3.315v-6.27h-.933v8.163c-.943-2.453-2.607-8.057-5.289-9.083-4.551-1.026-3.326,4.324-1.641,6.62,1.231,1.944,3.244,3.786,4.799,5.116,1.564,1.196,2.14,2.583,2.131,4.582-.02.62-.01,1.307,0,2.009v1.927c-.017.645-.06,1.265-.156,1.819-.142.246-.808-.255-.951-.451-2.08-3.397-4.26-8.548-6.916-11.898-2.428-3.66-8.671-.793-6.007,3.468,1.571,2.801,4.534,4.311,7.051,6.388,1.747,1.708,5.781,3.485,6.978,5.865v2.227c-.637.423-1.97-.265-2.832-.79-4.032-2.654-21.514-14.814-20.222-3.163,1.714,7.052,8.64,9.063,14.756,8.534,7.205-.153,15.929.314,21.52-.2,6.38-1.84,8.079-8.183,1.3-11.2Z" fill="#0c0d0b"/>
      </g>
      <circle cx="42.332" cy="19.641" r="1.711" fill="#cb1e1a"/>
    </g>
    <g>
      <g>
        <ellipse cx="47.89" cy="226.696" rx="5.444" ry="3.811" fill="#0c0d0b"/>
        <path d="M61.946,251.996c-4.349-2.002-9.639.719-12.23,4.424-.554.673-1.055,1.73-1.359,1.965v-4.146c1.19-3.392,4.955-4.893,8.808-6.24,2.634-.859,8.69-2.536,7.646-6.101-2.042-2.98-6.933-2.625-9.816-.746-3.229,2.028-5.104,5.22-6.637,7.553v-5.406c1.247-3.01,4.426-4.504,8.697-6.022,1.808-.652,3.296-.597,4.213-1.636,4.569-8.269-5.357-13.001-11.354-.622-.327.732-1.193,2.296-1.555,3.315v-6.27h-.933v8.163c-.943-2.453-2.607-8.057-5.289-9.083-4.551-1.026-3.326,4.324-1.641,6.62,1.231,1.944,3.244,3.786,4.799,5.116,1.564,1.196,2.14,2.583,2.131,4.582-.02.62-.01,1.307,0,2.009v1.927c-.017.645-.06,1.265-.156,1.819-.142.246-.808-.255-.951-.451-2.08-3.397-4.26-8.548-6.916-11.898-2.428-3.66-8.671-.793-6.007,3.468,1.571,2.801,4.534,4.311,7.051,6.388,1.747,1.708,5.781,3.485,6.978,5.865v2.227c-.637.423-1.97-.265-2.832-.79-4.032-2.654-21.514-14.814-20.222-3.163,1.714,7.052,8.64,9.063,14.756,8.534,7.205-.153,15.929.314,21.52-.2,6.38-1.84,8.079-8.183,1.3-11.2Z" fill="#0c0d0b"/>
      </g>
      <circle cx="47.89" cy="227.085" r="1.711" fill="#cb1e1a"/>
    </g>
    <g>
      <g>
        <ellipse cx="246.416" cy="226.696" rx="5.444" ry="3.811" fill="#0c0d0b"/>
        <path d="M260.471,251.996c-4.349-2.002-9.639.719-12.23,4.424-.554.673-1.055,1.73-1.359,1.965v-4.146c1.19-3.392,4.955-4.893,8.808-6.24,2.634-.859,8.69-2.536,7.646-6.101-2.042-2.98-6.933-2.625-9.816-.746-3.229,2.028-5.104,5.22-6.637,7.553v-5.406c1.247-3.01,4.426-4.504,8.697-6.022,1.808-.652,3.296-.597,4.213-1.636,4.569-8.269-5.357-13.001-11.354-.622-.327.732-1.193,2.296-1.555,3.315v-6.27h-.933v8.163c-.943-2.453-2.607-8.057-5.289-9.083-4.551-1.026-3.326,4.324-1.641,6.62,1.231,1.944,3.244,3.786,4.799,5.116,1.564,1.196,2.14,2.583,2.131,4.582-.02.62-.01,1.307,0,2.009v1.927c-.017.645-.06,1.265-.156,1.819-.142.246-.808-.255-.951-.451-2.08-3.397-4.26-8.548-6.916-11.898-2.428-3.66-8.671-.793-6.007,3.468,1.571,2.801,4.534,4.311,7.051,6.388,1.747,1.708,5.781,3.485,6.978,5.865v2.227c-.637.423-1.97-.265-2.832-.79-4.032-2.654-21.514-14.814-20.222-3.163,1.714,7.052,8.64,9.063,14.756,8.534,7.205-.153,15.929.314,21.52-.2,6.38-1.84,8.079-8.183,1.3-11.2Z" fill="#0c0d0b"/>
      </g>
      <circle cx="246.416" cy="227.085" r="1.711" fill="#cb1e1a"/>
    </g>
    <g>
      <g>
        <ellipse cx="253.974" cy="19.252" rx="5.444" ry="3.811" fill="#0c0d0b"/>
        <path d="M268.03,44.553c-4.349-2.002-9.639.719-12.23,4.424-.554.673-1.055,1.73-1.359,1.965v-4.146c1.19-3.392,4.955-4.893,8.808-6.24,2.634-.859,8.69-2.536,7.646-6.101-2.042-2.98-6.933-2.625-9.816-.746-3.229,2.028-5.104,5.22-6.637,7.553v-5.406c1.247-3.01,4.426-4.504,8.697-6.022,1.808-.652,3.296-.597,4.213-1.636,4.569-8.269-5.357-13.001-11.354-.622-.327.732-1.193,2.296-1.555,3.315v-6.27h-.933v8.163c-.943-2.453-2.607-8.057-5.289-9.083-4.551-1.026-3.326,4.324-1.641,6.62,1.231,1.944,3.244,3.786,4.799,5.116,1.564,1.196,2.14,2.583,2.131,4.582-.02.62-.01,1.307,0,2.009v1.927c-.017.645-.06,1.265-.156,1.819-.142.246-.808-.255-.951-.451-2.08-3.397-4.26-8.548-6.916-11.898-2.428-3.66-8.671-.793-6.007,3.468,1.571,2.801,4.534,4.311,7.051,6.388,1.747,1.708,5.781,3.485,6.978,5.865v2.227c-.637.423-1.97-.265-2.832-.79-4.032-2.654-21.514-14.814-20.222-3.163,1.714,7.052,8.64,9.063,14.756,8.534,7.205-.153,15.929.314,21.52-.2,6.38-1.84,8.079-8.183,1.3-11.2Z" fill="#0c0d0b"/>
      </g>
      <circle cx="253.974" cy="19.641" r="1.711" fill="#cb1e1a"/>
    </g>
    <g>
      <g>
        <polygon points="162.08 43.504 148.153 57.431 148.153 53.116 148.153 53.069 148.153 6.019 147.923 6.019 147.923 52.839 134.016 38.931 133.853 39.094 147.923 53.164 147.923 78.334 147.943 78.334 147.943 82.906 148.173 82.906 148.173 57.737 162.243 43.666 162.08 43.504" fill="#0c0d0b"/>
        <circle cx="133.843" cy="38.628" r="4.015" fill="#0c0d0b"/>
        <circle cx="148.038" cy="6.019" r="5.019" fill="#0c0d0b"/>
        <circle cx="154.852" cy="21.918" r="5.019" fill="#0c0d0b"/>
        <g>
          <circle cx="160.691" cy="45.508" r="2.677" fill="#0c0d0b"/>
          <circle cx="161.706" cy="38.911" r="2.677" fill="#0c0d0b"/>
          <circle cx="168.398" cy="45.36" r="4.015" fill="#0c0d0b"/>
          <circle cx="170.426" cy="35.14" r="5.019" fill="#0c0d0b"/>
        </g>
        <g>
          <circle cx="147.794" cy="65.057" r="2.677" fill="#0c0d0b"/>
          <circle cx="148.809" cy="58.46" r="2.677" fill="#0c0d0b"/>
          <circle cx="155.501" cy="64.909" r="4.015" fill="#0c0d0b"/>
          <circle cx="157.529" cy="54.688" r="5.019" fill="#0c0d0b"/>
        </g>
        <g>
          <circle cx="145.442" cy="43.399" r="2.677" fill="#0c0d0b"/>
          <circle cx="146.456" cy="36.802" r="2.677" fill="#0c0d0b"/>
          <circle cx="153.148" cy="43.251" r="4.015" fill="#0c0d0b"/>
          <circle cx="155.176" cy="33.031" r="5.019" fill="#0c0d0b"/>
        </g>
        <g>
          <circle cx="143.891" cy="21.741" r="2.677" fill="#0c0d0b"/>
          <circle cx="142.876" cy="15.145" r="2.677" fill="#0c0d0b"/>
          <circle cx="136.184" cy="21.593" r="4.015" fill="#0c0d0b"/>
          <circle cx="134.156" cy="11.373" r="5.019" fill="#0c0d0b"/>
        </g>
        <circle cx="142.188" cy="60.433" r="2.677" fill="#0c0d0b"/>
        <circle cx="141.173" cy="53.837" r="2.677" fill="#0c0d0b"/>
        <circle cx="140.21" cy="31.124" r="2.677" fill="#0c0d0b"/>
        <circle cx="154.487" cy="12.468" r="2.677" fill="#0c0d0b"/>
        <circle cx="164.383" cy="28.042" r="2.677" fill="#0c0d0b"/>
        <circle cx="153.027" cy="74.035" r="2.677" fill="#0c0d0b"/>
        <circle cx="147.754" cy="82.308" r="2.677" fill="#0c0d0b"/>
        <circle cx="143.05" cy="71.358" r="2.677" fill="#0c0d0b"/>
        <circle cx="138.507" cy="67.059" r="2.677" fill="#0c0d0b"/>
        <circle cx="130.477" cy="31.124" r="2.677" fill="#0c0d0b"/>
        <circle cx="134.481" cy="60.285" r="4.015" fill="#0c0d0b"/>
        <circle cx="132.453" cy="50.065" r="5.019" fill="#0c0d0b"/>
      </g>
      <circle cx="148.08" cy="6.039" r="3.359" fill="#cb1e1a"/>
      <circle cx="134.223" cy="11.498" r="3.359" fill="#cb1e1a"/>
      <circle cx="154.799" cy="21.996" r="3.359" fill="#cb1e1a"/>
      <circle cx="132.543" cy="50.131" r="3.359" fill="#cb1e1a"/>
      <circle cx="157.738" cy="54.751" r="3.359" fill="#cb1e1a"/>
    </g>
  </g>
</svg>