<?xml version="1.0" encoding="UTF-8"?>
<svg xmlns="http://www.w3.org/2000/svg" width="275.651" height="450" viewBox="0 0 275.651 450">
  <g id="Tallo">
    <g>
      <g>
        <line x1="139.137" y1="450" x2="139.137" y2="9.258" fill="none" stroke="#0c0d0b" stroke-miterlimit="10" stroke-width="2.499"/>
        <g>
          <polygon points="139.137 441.939 135.027 440.965 139.137 439.992 139.137 441.939 139.137 441.939" fill="#0c0d0b"/>
          <polygon points="139.137 447.228 143.247 446.254 139.137 445.28 139.137 447.228 139.137 447.228" fill="#0c0d0b"/>
        </g>
        <g>
          <polygon points="139.137 425.85 135.027 424.876 139.137 423.902 139.137 425.85 139.137 425.85" fill="#0c0d0b"/>
          <polygon points="139.137 431.139 143.247 430.165 139.137 429.191 139.137 431.139 139.137 431.139" fill="#0c0d0b"/>
        </g>
        <g>
          <polygon points="139.137 409.753 135.027 408.779 139.137 407.805 139.137 409.753 139.137 409.753" fill="#0c0d0b"/>
          <polygon points="139.137 415.042 143.247 414.068 139.137 413.094 139.137 415.042 139.137 415.042" fill="#0c0d0b"/>
        </g>
        <g>
          <polygon points="139.137 393.648 135.027 392.674 139.137 391.7 139.137 393.648 139.137 393.648" fill="#0c0d0b"/>
          <polygon points="139.137 398.936 143.247 397.963 139.137 396.989 139.137 398.936 139.137 398.936" fill="#0c0d0b"/>
        </g>
        <g>
          <polygon points="139.137 377.576 135.027 376.602 139.137 375.629 139.137 377.576 139.137 377.576" fill="#0c0d0b"/>
          <polygon points="139.137 382.865 143.247 381.891 139.137 380.918 139.137 382.865 139.137 382.865" fill="#0c0d0b"/>
        </g>
        <g>
          <polygon points="139.137 361.449 135.027 360.475 139.137 359.501 139.137 361.449 139.137 361.449" fill="#0c0d0b"/>
          <polygon points="139.137 366.738 143.247 365.764 139.137 364.79 139.137 366.738 139.137 366.738" fill="#0c0d0b"/>
        </g>
        <g>
          <polygon points="139.137 345.429 135.027 344.455 139.137 343.481 139.137 345.429 139.137 345.429" fill="#0c0d0b"/>
          <polygon points="139.137 350.718 143.247 349.744 139.137 348.77 139.137 350.718 139.137 350.718" fill="#0c0d0b"/>
        </g>
        <g>
          <polygon points="139.137 329.262 135.027 328.289 139.137 327.315 139.137 329.262 139.137 329.262" fill="#0c0d0b"/>
          <polygon points="139.137 334.551 143.247 333.578 139.137 332.604 139.137 334.551 139.137 334.551" fill="#0c0d0b"/>
        </g>
        <g>
          <polygon points="139.137 313.211 135.027 312.237 139.137 311.264 139.137 313.211 139.137 313.211" fill="#0c0d0b"/>
          <polygon points="139.137 318.5 143.247 317.526 139.137 316.553 139.137 318.5 139.137 318.5" fill="#0c0d0b"/>
        </g>
        <g>
          <polygon points="139.137 297.141 135.027 296.167 139.137 295.193 139.137 297.141 139.137 297.141" fill="#0c0d0b"/>
          <polygon points="139.137 302.429 143.247 301.456 139.137 300.482 139.137 302.429 139.137 302.429" fill="#0c0d0b"/>
        </g>
        <g>
          <polygon points="139.137 281.032 135.027 280.058 139.137 279.085 139.137 281.032 139.137 281.032" fill="#0c0d0b"/>
          <polygon points="139.137 286.321 143.247 285.347 139.137 284.373 139.137 286.321 139.137 286.321" fill="#0c0d0b"/>
        </g>
        <g>
          <polygon points="139.137 264.984 135.027 264.01 139.137 263.037 139.137 264.984 139.137 264.984" fill="#0c0d0b"/>
          <polygon points="139.137 270.273 143.247 269.299 139.137 268.326 139.137 270.273 139.137 270.273" fill="#0c0d0b"/>
        </g>
        <g>
          <polygon points="139.137 248.878 135.027 247.904 139.137 246.93 139.137 248.878 139.137 248.878" fill="#0c0d0b"/>
          <polygon points="139.137 254.167 143.247 253.193 139.137 252.219 139.137 254.167 139.137 254.167" fill="#0c0d0b"/>
        </g>
        <g>
          <polygon points="139.137 232.736 135.027 231.763 139.137 230.789 139.137 232.736 139.137 232.736" fill="#0c0d0b"/>
          <polygon points="139.137 238.025 143.247 237.051 139.137 236.078 139.137 238.025 139.137 238.025" fill="#0c0d0b"/>
        </g>
        <g>
          <polygon points="139.137 216.727 135.027 215.753 139.137 214.78 139.137 216.727 139.137 216.727" fill="#0c0d0b"/>
          <polygon points="139.137 222.016 143.247 221.042 139.137 220.068 139.137 222.016 139.137 222.016" fill="#0c0d0b"/>
        </g>
        <g>
          <polygon points="139.137 200.62 135.027 199.646 139.137 198.672 139.137 200.62 139.137 200.62" fill="#0c0d0b"/>
          <polygon points="139.137 205.909 143.247 204.935 139.137 203.961 139.137 205.909 139.137 205.909" fill="#0c0d0b"/>
        </g>
        <g>
          <polygon points="139.137 184.487 135.027 183.513 139.137 182.539 139.137 184.487 139.137 184.487" fill="#0c0d0b"/>
          <polygon points="139.137 189.776 143.247 188.802 139.137 187.828 139.137 189.776 139.137 189.776" fill="#0c0d0b"/>
        </g>
        <g>
          <polygon points="139.137 168.419 135.027 167.445 139.137 166.472 139.137 168.419 139.137 168.419" fill="#0c0d0b"/>
          <polygon points="139.137 173.708 143.247 172.734 139.137 171.761 139.137 173.708 139.137 173.708" fill="#0c0d0b"/>
        </g>
        <g>
          <polygon points="139.137 152.365 135.027 151.392 139.137 150.418 139.137 152.365 139.137 152.365" fill="#0c0d0b"/>
          <polygon points="139.137 157.654 143.247 156.681 139.137 155.707 139.137 157.654 139.137 157.654" fill="#0c0d0b"/>
        </g>
        <g>
          <polygon points="139.137 136.281 135.027 135.307 139.137 134.334 139.137 136.281 139.137 136.281" fill="#0c0d0b"/>
          <polygon points="139.137 141.57 143.247 140.596 139.137 139.623 139.137 141.57 139.137 141.57" fill="#0c0d0b"/>
        </g>
        <g>
          <polygon points="139.137 120.175 135.027 119.201 139.137 118.228 139.137 120.175 139.137 120.175" fill="#0c0d0b"/>
          <polygon points="139.137 125.464 143.247 124.49 139.137 123.517 139.137 125.464 139.137 125.464" fill="#0c0d0b"/>
        </g>
        <g>
          <polygon points="139.137 104.149 135.027 103.176 139.137 102.202 139.137 104.149 139.137 104.149" fill="#0c0d0b"/>
          <polygon points="139.137 109.438 143.247 108.465 139.137 107.491 139.137 109.438 139.137 109.438" fill="#0c0d0b"/>
        </g>
        <g>
          <polygon points="139.137 87.976 135.027 87.002 139.137 86.029 139.137 87.976 139.137 87.976" fill="#0c0d0b"/>
          <polygon points="139.137 93.265 143.247 92.291 139.137 91.318 139.137 93.265 139.137 93.265" fill="#0c0d0b"/>
        </g>
        <g>
          <polygon points="139.137 71.921 135.027 70.947 139.137 69.973 139.137 71.921 139.137 71.921" fill="#0c0d0b"/>
          <polygon points="139.137 77.21 143.247 76.236 139.137 75.262 139.137 77.21 139.137 77.21" fill="#0c0d0b"/>
        </g>
        <g>
          <polygon points="139.137 55.813 135.027 54.839 139.137 53.866 139.137 55.813 139.137 55.813" fill="#0c0d0b"/>
          <polygon points="139.137 61.102 143.247 60.128 139.137 59.155 139.137 61.102 139.137 61.102" fill="#0c0d0b"/>
        </g>
        <g>
          <polygon points="139.137 39.738 135.027 38.764 139.137 37.79 139.137 39.738 139.137 39.738" fill="#0c0d0b"/>
          <polygon points="139.137 45.027 143.247 44.053 139.137 43.079 139.137 45.027 139.137 45.027" fill="#0c0d0b"/>
        </g>
        <g>
          <polygon points="139.137 23.647 135.027 22.673 139.137 21.699 139.137 23.647 139.137 23.647" fill="#0c0d0b"/>
          <polygon points="139.137 28.936 143.247 27.962 139.137 26.988 139.137 28.936 139.137 28.936" fill="#0c0d0b"/>
        </g>
        <g>
          <polygon points="139.137 7.587 135.027 6.613 139.137 5.64 139.137 7.587 139.137 7.587" fill="#0c0d0b"/>
          <polygon points="139.137 12.876 143.247 11.902 139.137 10.929 139.137 12.876 139.137 12.876" fill="#0c0d0b"/>
        </g>
      </g>
      <g>
        <path d="M64.994,307.151v51.829c0,8.257,6.694,14.951,14.951,14.951h120.321c8.257,0,14.951-6.694,14.951-14.951v-51.829" fill="none" stroke="#0c0d0b" stroke-miterlimit="10" stroke-width="1.249"/>
        <g>
          <polygon points="65.032 312.766 60.945 311.7 65.076 310.82 65.032 312.766 65.032 312.766" fill="#0c0d0b"/>
          <polygon points="64.912 318.054 69.043 317.174 64.956 316.107 64.912 318.054 64.912 318.054" fill="#0c0d0b"/>
        </g>
        <g>
          <polygon points="65.032 327.408 60.945 326.341 65.076 325.461 65.032 327.408 65.032 327.408" fill="#0c0d0b"/>
          <polygon points="64.912 332.695 69.043 331.815 64.956 330.749 64.912 332.695 64.912 332.695" fill="#0c0d0b"/>
        </g>
        <g>
          <polygon points="65.032 342.103 60.945 341.036 65.076 340.156 65.032 342.103 65.032 342.103" fill="#0c0d0b"/>
          <polygon points="64.912 347.39 69.043 346.51 64.956 345.443 64.912 347.39 64.912 347.39" fill="#0c0d0b"/>
        </g>
        <g>
          <polygon points="65.032 356.757 60.945 355.69 65.076 354.81 65.032 356.757 65.032 356.757" fill="#0c0d0b"/>
          <polygon points="64.912 362.044 69.043 361.164 64.956 360.097 64.912 362.044 64.912 362.044" fill="#0c0d0b"/>
        </g>
        <g>
          <polygon points="69.797 370.034 66.522 372.701 68.252 368.848 69.797 370.034 69.797 370.034" fill="#0c0d0b"/>
          <polygon points="73.993 373.254 75.723 369.4 72.448 372.068 73.993 373.254 73.993 373.254" fill="#0c0d0b"/>
        </g>
        <g>
          <polygon points="83.466 373.892 82.399 377.979 81.519 373.848 83.466 373.892 83.466 373.892" fill="#0c0d0b"/>
          <polygon points="88.753 374.012 87.873 369.88 86.807 373.968 88.753 374.012 88.753 374.012" fill="#0c0d0b"/>
        </g>
        <g>
          <polygon points="98.145 373.892 97.078 377.979 96.198 373.848 98.145 373.892 98.145 373.892" fill="#0c0d0b"/>
          <polygon points="103.433 374.012 102.552 369.88 101.486 373.968 103.433 374.012 103.433 374.012" fill="#0c0d0b"/>
        </g>
        <g>
          <polygon points="112.81 373.892 111.743 377.979 110.863 373.848 112.81 373.892 112.81 373.892" fill="#0c0d0b"/>
          <polygon points="118.098 374.012 117.218 369.88 116.151 373.968 118.098 374.012 118.098 374.012" fill="#0c0d0b"/>
        </g>
        <g>
          <polygon points="127.435 373.892 126.368 377.979 125.488 373.848 127.435 373.892 127.435 373.892" fill="#0c0d0b"/>
          <polygon points="132.722 374.012 131.842 369.88 130.775 373.968 132.722 374.012 132.722 374.012" fill="#0c0d0b"/>
        </g>
        <g>
          <polygon points="142.079 373.892 141.012 377.979 140.132 373.848 142.079 373.892 142.079 373.892" fill="#0c0d0b"/>
          <polygon points="147.366 374.012 146.486 369.88 145.419 373.968 147.366 374.012 147.366 374.012" fill="#0c0d0b"/>
        </g>
        <g>
          <polygon points="156.709 373.892 155.642 377.979 154.762 373.848 156.709 373.892 156.709 373.892" fill="#0c0d0b"/>
          <polygon points="161.996 374.012 161.116 369.88 160.049 373.968 161.996 374.012 161.996 374.012" fill="#0c0d0b"/>
        </g>
        <g>
          <polygon points="171.423 373.892 170.357 377.979 169.476 373.848 171.423 373.892 171.423 373.892" fill="#0c0d0b"/>
          <polygon points="176.711 374.012 175.831 369.88 174.764 373.968 176.711 374.012 176.711 374.012" fill="#0c0d0b"/>
        </g>
        <g>
          <polygon points="186.035 373.892 184.969 377.979 184.088 373.848 186.035 373.892 186.035 373.892" fill="#0c0d0b"/>
          <polygon points="191.323 374.012 190.443 369.88 189.376 373.968 191.323 374.012 191.323 374.012" fill="#0c0d0b"/>
        </g>
        <g>
          <polygon points="200.676 373.979 200.18 378.174 198.742 374.202 200.676 373.979 200.676 373.979" fill="#0c0d0b"/>
          <polygon points="205.93 373.373 204.492 369.401 203.996 373.596 205.93 373.373 205.93 373.373" fill="#0c0d0b"/>
        </g>
        <g>
          <polygon points="212.949 367.002 216.157 369.751 212.057 368.733 212.949 367.002 212.949 367.002" fill="#0c0d0b"/>
          <polygon points="215.372 362.301 211.273 361.283 214.48 364.032 215.372 362.301 215.372 362.301" fill="#0c0d0b"/>
        </g>
        <g>
          <polygon points="215.178 352.786 219.265 353.853 215.134 354.733 215.178 352.786 215.178 352.786" fill="#0c0d0b"/>
          <polygon points="215.298 347.498 211.167 348.378 215.254 349.445 215.298 347.498 215.298 347.498" fill="#0c0d0b"/>
        </g>
        <g>
          <polygon points="215.178 338.104 219.265 339.171 215.134 340.051 215.178 338.104 215.178 338.104" fill="#0c0d0b"/>
          <polygon points="215.298 332.816 211.167 333.696 215.254 334.763 215.298 332.816 215.298 332.816" fill="#0c0d0b"/>
        </g>
        <g>
          <polygon points="215.178 323.43 219.265 324.497 215.134 325.377 215.178 323.43 215.178 323.43" fill="#0c0d0b"/>
          <polygon points="215.298 318.142 211.167 319.022 215.254 320.089 215.298 318.142 215.298 318.142" fill="#0c0d0b"/>
        </g>
        <g>
          <polygon points="215.178 308.821 219.265 309.888 215.134 310.768 215.178 308.821 215.178 308.821" fill="#0c0d0b"/>
          <polygon points="215.298 303.533 211.167 304.413 215.254 305.48 215.298 303.533 215.298 303.533" fill="#0c0d0b"/>
        </g>
      </g>
      <g>
        <path d="M49.377,143.6v54.572c0,5.155,4.179,9.333,9.333,9.333h161.437c5.874,0,10.636-4.762,10.636-10.636v-53.268" fill="none" stroke="#0c0d0b" stroke-miterlimit="10" stroke-width=".889"/>
        <g>
          <polygon points="49.398 166.315 52.335 166.955 49.423 167.7 49.398 166.315 49.398 166.315" fill="#0c0d0b"/>
          <polygon points="49.331 162.553 46.42 163.298 49.356 163.938 49.331 162.553 49.331 162.553" fill="#0c0d0b"/>
        </g>
        <g>
          <polygon points="49.398 154.686 52.335 155.327 49.423 156.072 49.398 154.686 49.398 154.686" fill="#0c0d0b"/>
          <polygon points="49.331 150.924 46.42 151.669 49.356 152.31 49.331 150.924 49.331 150.924" fill="#0c0d0b"/>
        </g>
        <g>
          <polygon points="49.398 177.92 52.335 178.56 49.423 179.305 49.398 177.92 49.398 177.92" fill="#0c0d0b"/>
          <polygon points="49.331 174.158 46.42 174.902 49.356 175.543 49.331 174.158 49.331 174.158" fill="#0c0d0b"/>
        </g>
        <g>
          <polygon points="49.398 189.544 52.335 190.184 49.423 190.929 49.398 189.544 49.398 189.544" fill="#0c0d0b"/>
          <polygon points="49.331 185.782 46.42 186.526 49.356 187.167 49.331 185.782 49.331 185.782" fill="#0c0d0b"/>
        </g>
        <g>
          <polygon points="49.806 201.155 52.811 201.213 50.099 202.509 49.806 201.155 49.806 201.155" fill="#0c0d0b"/>
          <polygon points="49.01 197.477 46.299 198.773 49.303 198.831 49.01 197.477 49.01 197.477" fill="#0c0d0b"/>
        </g>
        <g>
          <polygon points="58.647 207.558 59.67 204.732 60.024 207.716 58.647 207.558 58.647 207.558" fill="#0c0d0b"/>
          <polygon points="54.909 207.128 55.263 210.112 56.286 207.286 54.909 207.128 54.909 207.128" fill="#0c0d0b"/>
        </g>
        <g>
          <polygon points="70.315 207.483 70.956 204.547 71.7 207.458 70.315 207.483 70.315 207.483" fill="#0c0d0b"/>
          <polygon points="66.553 207.55 67.298 210.462 67.938 207.525 66.553 207.55 66.553 207.55" fill="#0c0d0b"/>
        </g>
        <g>
          <polygon points="81.949 207.483 82.59 204.547 83.335 207.458 81.949 207.483 81.949 207.483" fill="#0c0d0b"/>
          <polygon points="78.187 207.55 78.932 210.462 79.573 207.525 78.187 207.55 78.187 207.55" fill="#0c0d0b"/>
        </g>
        <g>
          <polygon points="93.585 207.483 94.225 204.547 94.97 207.458 93.585 207.483 93.585 207.483" fill="#0c0d0b"/>
          <polygon points="89.823 207.55 90.567 210.462 91.208 207.525 89.823 207.55 89.823 207.55" fill="#0c0d0b"/>
        </g>
        <g>
          <polygon points="105.25 207.483 105.89 204.547 106.635 207.458 105.25 207.483 105.25 207.483" fill="#0c0d0b"/>
          <polygon points="101.488 207.55 102.232 210.462 102.873 207.525 101.488 207.55 101.488 207.55" fill="#0c0d0b"/>
        </g>
        <g>
          <polygon points="116.882 207.483 117.522 204.547 118.267 207.458 116.882 207.483 116.882 207.483" fill="#0c0d0b"/>
          <polygon points="113.12 207.55 113.864 210.462 114.505 207.525 113.12 207.55 113.12 207.55" fill="#0c0d0b"/>
        </g>
        <g>
          <polygon points="128.467 207.483 129.108 204.547 129.852 207.458 128.467 207.483 128.467 207.483" fill="#0c0d0b"/>
          <polygon points="124.705 207.55 125.45 210.462 126.09 207.525 124.705 207.55 124.705 207.55" fill="#0c0d0b"/>
        </g>
        <g>
          <polygon points="140.145 207.483 140.785 204.547 141.53 207.458 140.145 207.483 140.145 207.483" fill="#0c0d0b"/>
          <polygon points="136.383 207.55 137.127 210.462 137.768 207.525 136.383 207.55 136.383 207.55" fill="#0c0d0b"/>
        </g>
        <g>
          <polygon points="151.723 207.483 152.364 204.547 153.108 207.458 151.723 207.483 151.723 207.483" fill="#0c0d0b"/>
          <polygon points="147.961 207.55 148.706 210.462 149.346 207.525 147.961 207.55 147.961 207.55" fill="#0c0d0b"/>
        </g>
        <g>
          <polygon points="163.341 207.483 163.982 204.547 164.726 207.458 163.341 207.483 163.341 207.483" fill="#0c0d0b"/>
          <polygon points="159.579 207.55 160.324 210.462 160.964 207.525 159.579 207.55 159.579 207.55" fill="#0c0d0b"/>
        </g>
        <g>
          <polygon points="174.97 207.483 175.61 204.547 176.355 207.458 174.97 207.483 174.97 207.483" fill="#0c0d0b"/>
          <polygon points="171.208 207.55 171.952 210.462 172.593 207.525 171.208 207.55 171.208 207.55" fill="#0c0d0b"/>
        </g>
        <g>
          <polygon points="186.668 207.483 187.308 204.547 188.053 207.458 186.668 207.483 186.668 207.483" fill="#0c0d0b"/>
          <polygon points="182.905 207.55 183.65 210.462 184.291 207.525 182.905 207.55 182.905 207.55" fill="#0c0d0b"/>
        </g>
        <g>
          <polygon points="198.273 207.483 198.914 204.547 199.658 207.458 198.273 207.483 198.273 207.483" fill="#0c0d0b"/>
          <polygon points="194.511 207.55 195.256 210.462 195.896 207.525 194.511 207.55 194.511 207.55" fill="#0c0d0b"/>
        </g>
        <g>
          <polygon points="209.932 207.483 210.573 204.547 211.318 207.458 209.932 207.483 209.932 207.483" fill="#0c0d0b"/>
          <polygon points="206.17 207.55 206.915 210.462 207.555 207.525 206.17 207.55 206.17 207.55" fill="#0c0d0b"/>
        </g>
        <g>
          <polygon points="221.539 207.459 222.124 204.511 222.924 207.408 221.539 207.459 221.539 207.459" fill="#0c0d0b"/>
          <polygon points="217.779 207.597 218.578 210.494 219.163 207.546 217.779 207.597 217.779 207.597" fill="#0c0d0b"/>
        </g>
        <g>
          <polygon points="230.192 200.511 227.846 198.633 230.785 199.259 230.192 200.511 230.192 200.511" fill="#0c0d0b"/>
          <polygon points="228.581 203.912 231.52 204.537 229.174 202.659 228.581 203.912 228.581 203.912" fill="#0c0d0b"/>
        </g>
        <g>
          <polygon points="230.763 188.944 227.826 188.303 230.738 187.558 230.763 188.944 230.763 188.944" fill="#0c0d0b"/>
          <polygon points="230.83 192.706 233.741 191.961 230.805 191.32 230.83 192.706 230.83 192.706" fill="#0c0d0b"/>
        </g>
        <g>
          <polygon points="230.763 177.329 227.826 176.688 230.738 175.943 230.763 177.329 230.763 177.329" fill="#0c0d0b"/>
          <polygon points="230.83 181.091 233.741 180.346 230.805 179.705 230.83 181.091 230.83 181.091" fill="#0c0d0b"/>
        </g>
        <g>
          <polygon points="230.763 165.689 227.826 165.049 230.738 164.304 230.763 165.689 230.763 165.689" fill="#0c0d0b"/>
          <polygon points="230.83 169.452 233.741 168.707 230.805 168.066 230.83 169.452 230.83 169.452" fill="#0c0d0b"/>
        </g>
        <g>
          <polygon points="230.763 154.028 227.826 153.388 230.738 152.643 230.763 154.028 230.763 154.028" fill="#0c0d0b"/>
          <polygon points="230.83 157.79 233.741 157.046 230.805 156.405 230.83 157.79 230.83 157.79" fill="#0c0d0b"/>
        </g>
        <g>
          <polygon points="230.763 142.411 227.826 141.771 230.738 141.026 230.763 142.411 230.763 142.411" fill="#0c0d0b"/>
          <polygon points="230.83 146.173 233.741 145.429 230.805 144.788 230.83 146.173 230.83 146.173" fill="#0c0d0b"/>
        </g>
      </g>
    </g>
  </g>
  <g id="Hojas">
    <path d="M263.833,181.931c-.134-.666-.324-1.325-.57-1.96-.105-.295-.257-.628-.384-.914-.52-1.09-1.109-2.027-1.925-3.025-.694-.819-1.396-1.542-2.294-2.234-.212.042-.646.141-.854.191-1.73.418-3.536.925-5.149,1.441-.134.039-.382.123-.511.166-.468.153-.942.316-1.401.484-.252.093-.531.198-.78.297-1.594.651-2.908,1.275-4.004,2.381-.427.438-.765.948-1.083,1.47-1.118,1.82-1.697,3.839-2.404,5.92-.308.926-.658,1.891-1.029,2.795-.332.784-.707,1.583-1.12,2.329-1.947,3.6-5.146,6.398-9.206,7.228-.361.074-.722.144-1.085.208-.363-.065-.724-.134-1.085-.208-4.06-.831-7.258-3.628-9.206-7.228-.412-.745-.787-1.544-1.12-2.329-.371-.904-.722-1.869-1.029-2.795-.707-2.081-1.286-4.1-2.404-5.92-.318-.521-.656-1.031-1.083-1.47-1.095-1.106-2.41-1.73-4.004-2.381-.249-.099-.528-.204-.78-.297-.459-.168-.934-.331-1.401-.484-.129-.043-.377-.126-.511-.166-1.613-.516-3.419-1.023-5.149-1.441-.208-.05-.642-.148-.854-.191-.898.692-1.6,1.416-2.294,2.234-.816.998-1.405,1.935-1.925,3.025-.126.286-.278.619-.384.914-.246.635-.435,1.294-.57,1.96-.557,2.7-.134,5.537,1.185,7.951.367.675.805,1.308,1.273,1.916.577.74,1.212,1.442,1.899,2.082,3.949,3.686,8.91,5.01,14.199,5.095,2.727.058,5.595-.191,8.281-.251,1.483-.034,2.967-.009,4.439.116.241.019.487.044.736.071,1.158,0,2.372.001,3.551.002.256-.028.509-.054.757-.073,1.471-.125,2.956-.15,4.439-.116,2.685.06,5.554.309,8.281.251,5.289-.085,10.25-1.409,14.199-5.095.687-.64,1.322-1.342,1.899-2.082.469-.608.906-1.241,1.273-1.916,1.319-2.415,1.742-5.251,1.185-7.951Z" fill="#0c0d0b"/>
    <path d="M263.833,153.34c-.134-.666-.324-1.325-.57-1.96-.105-.295-.257-.628-.384-.914-.52-1.09-1.109-2.027-1.925-3.025-.694-.819-1.396-1.542-2.294-2.234-.212.042-.646.141-.854.191-1.73.418-3.536.925-5.149,1.441-.134.039-.382.123-.511.166-.468.153-.942.316-1.401.484-.252.093-.531.198-.78.297-1.594.651-2.908,1.275-4.004,2.381-.427.438-.765.948-1.083,1.47-1.118,1.82-1.697,3.839-2.404,5.92-.308.926-.658,1.891-1.029,2.795-.332.784-.707,1.583-1.12,2.329-1.947,3.6-5.146,6.398-9.206,7.228-.361.074-.722.144-1.085.208-.363-.065-.724-.134-1.085-.208-4.06-.831-7.258-3.628-9.206-7.228-.412-.745-.787-1.544-1.12-2.329-.371-.904-.722-1.869-1.029-2.795-.707-2.081-1.286-4.1-2.404-5.92-.318-.521-.656-1.031-1.083-1.47-1.095-1.106-2.41-1.73-4.004-2.381-.249-.099-.528-.204-.78-.297-.459-.168-.934-.331-1.401-.484-.129-.043-.377-.126-.511-.166-1.613-.516-3.419-1.023-5.149-1.441-.208-.05-.642-.148-.854-.191-.898.692-1.6,1.416-2.294,2.234-.816.998-1.405,1.935-1.925,3.025-.126.286-.278.619-.384.914-.246.635-.435,1.294-.57,1.96-.557,2.7-.134,5.537,1.185,7.951.367.675.805,1.308,1.273,1.916.577.74,1.212,1.442,1.899,2.082,3.949,3.686,8.91,5.01,14.199,5.095,2.727.058,5.595-.191,8.281-.251,1.483-.034,2.967-.009,4.439.116.241.019.487.044.736.071,1.158,0,2.372.001,3.551.002.256-.028.509-.054.757-.073,1.471-.125,2.956-.15,4.439-.116,2.685.06,5.554.309,8.281.251,5.289-.085,10.25-1.409,14.199-5.095.687-.64,1.322-1.342,1.899-2.082.469-.608.906-1.241,1.273-1.916,1.319-2.415,1.742-5.251,1.185-7.951Z" fill="#0c0d0b"/>
    <path d="M236.54,341.48c-.084-.416-.202-.828-.356-1.225-.066-.184-.161-.393-.24-.571-.325-.681-.693-1.267-1.203-1.89-.434-.512-.873-.964-1.434-1.397-.132.026-.403.088-.534.119-1.081.261-2.21.578-3.218.901-.084.025-.239.077-.319.104-.292.096-.589.197-.876.302-.157.058-.332.124-.487.186-.996.407-1.818.797-2.502,1.488-.267.274-.478.593-.677.919-.699,1.137-1.061,2.399-1.502,3.7-.192.578-.411,1.182-.643,1.747-.208.49-.442.99-.7,1.455-1.217,2.25-3.216,3.998-5.753,4.518-.225.046-.451.09-.678.13-.227-.04-.453-.084-.678-.13-2.537-.519-4.536-2.267-5.753-4.518-.258-.466-.492-.965-.7-1.455-.232-.565-.451-1.168-.643-1.747-.442-1.3-.804-2.562-1.502-3.7-.199-.326-.41-.645-.677-.919-.685-.692-1.506-1.081-2.502-1.488-.155-.062-.33-.128-.487-.186-.287-.105-.583-.207-.876-.302-.08-.027-.235-.079-.319-.104-1.008-.322-2.137-.64-3.218-.901-.13-.031-.402-.093-.534-.119-.561.432-1,.885-1.434,1.397-.51.624-.878,1.209-1.203,1.89-.079.179-.174.387-.24.571-.154.397-.272.809-.356,1.225-.348,1.688-.084,3.46.741,4.969.229.422.503.817.796,1.197.36.463.758.901,1.187,1.301,2.468,2.304,5.569,3.131,8.874,3.184,1.704.036,3.497-.119,5.175-.157.927-.021,1.854-.006,2.774.072.151.012.304.027.46.044.724,0,1.483,0,2.219.001.16-.018.318-.033.473-.046.92-.078,1.848-.094,2.774-.072,1.678.037,3.471.193,5.175.157,3.306-.053,6.406-.881,8.874-3.184.429-.4.826-.838,1.187-1.301.293-.38.567-.775.796-1.197.824-1.509,1.089-3.282.741-4.969Z" fill="#0c0d0b"/>
    <path d="M86.033,341.48c-.084-.416-.202-.828-.356-1.225-.066-.184-.161-.393-.24-.571-.325-.681-.693-1.267-1.203-1.89-.434-.512-.873-.964-1.434-1.397-.132.026-.403.088-.534.119-1.081.261-2.21.578-3.218.901-.084.025-.239.077-.319.104-.292.096-.589.197-.876.302-.157.058-.332.124-.487.186-.996.407-1.818.797-2.502,1.488-.267.274-.478.593-.677.919-.699,1.137-1.061,2.399-1.502,3.7-.192.578-.411,1.182-.643,1.747-.208.49-.442.99-.7,1.455-1.217,2.25-3.216,3.998-5.753,4.518-.225.046-.451.09-.678.13-.227-.04-.453-.084-.678-.13-2.537-.519-4.536-2.267-5.753-4.518-.258-.466-.492-.965-.7-1.455-.232-.565-.451-1.168-.643-1.747-.442-1.3-.804-2.562-1.502-3.7-.199-.326-.41-.645-.677-.919-.685-.692-1.506-1.081-2.502-1.488-.155-.062-.33-.128-.487-.186-.287-.105-.583-.207-.876-.302-.08-.027-.235-.079-.319-.104-1.008-.322-2.137-.64-3.218-.901-.13-.031-.402-.093-.534-.119-.561.432-1,.885-1.434,1.397-.51.624-.878,1.209-1.203,1.89-.079.179-.174.387-.24.571-.154.397-.272.809-.356,1.225-.348,1.688-.084,3.46.741,4.969.229.422.503.817.796,1.197.36.463.758.901,1.187,1.301,2.468,2.304,5.569,3.131,8.874,3.184,1.704.036,3.497-.119,5.175-.157.927-.021,1.854-.006,2.774.072.151.012.304.027.46.044.724,0,1.483,0,2.219.001.16-.018.318-.033.473-.046.92-.078,1.848-.094,2.774-.072,1.678.037,3.471.193,5.175.157,3.306-.053,6.406-.881,8.874-3.184.429-.4.826-.838,1.187-1.301.293-.38.567-.775.796-1.197.824-1.509,1.089-3.282.741-4.969Z" fill="#0c0d0b"/>
    <path d="M181.136,177.536c-4.592-10.244-13.423-9.891-22.961-8.478-9.809,1.453-17.662,16.956-17.662,16.956l.353-10.597c7.771-13.777,27.188-16.646,29.672-17.309,5.299-1.413,6.358-3.179,6.358-3.179,0,0,8.125-12.717-8.478-13.07-16.602-.353-27.906,25.434-27.906,25.434v-16.128c.096-.588.211-1.109.353-1.534,1.413-4.239,14.127-11.321,18.722-12.01,7.065-1.06,8.831-2.473,8.831-2.473,0,0,9.184-6.358,4.593-13.776-12.678-20.404-34.194,12.093-32.394,12.363h-1.623c1.8-.27-19.716-32.767-32.394-12.363-4.592,7.418,4.593,13.776,4.593,13.776,0,0,1.766,1.413,8.831,2.473,4.595.689,17.309,7.771,18.722,12.01.142.425.258.947.353,1.534v16.128s-11.304-25.787-27.906-25.434c-16.602.353-8.478,13.07-8.478,13.07,0,0,1.06,1.766,6.358,3.179,2.485.663,21.901,3.532,29.672,17.309l.353,10.597s-7.853-15.503-17.662-16.956c-9.538-1.413-18.369-1.766-22.961,8.478-4.592,10.244,5.299,15.543,5.299,15.543,0,0,5.652,2.826,9.538,3.179,3.483.317,22.574.066,26.493.01,3.919.055,23.01.306,26.493-.01,3.886-.353,9.538-3.179,9.538-3.179,0,0,9.891-5.299,5.299-15.543Z" fill="#0c0d0b"/>
    <path d="M181.136,344.316c-4.592-10.244-13.423-9.891-22.961-8.478-9.809,1.453-17.662,16.956-17.662,16.956l.353-10.597c7.771-13.777,27.188-16.646,29.672-17.309,5.299-1.413,6.358-3.179,6.358-3.179,0,0,8.125-12.717-8.478-13.07-16.602-.353-27.906,25.434-27.906,25.434v-16.128c.096-.588.211-1.109.353-1.534,1.413-4.239,14.127-11.321,18.722-12.01,7.065-1.06,8.831-2.473,8.831-2.473,0,0,9.184-6.358,4.593-13.776-12.678-20.404-34.194,12.093-32.394,12.363h-1.623c1.8-.27-19.716-32.767-32.394-12.363-4.592,7.418,4.593,13.776,4.593,13.776,0,0,1.766,1.413,8.831,2.473,4.595.689,17.309,7.771,18.722,12.01.142.425.258.947.353,1.534v16.128s-11.304-25.787-27.906-25.434c-16.602.353-8.478,13.07-8.478,13.07,0,0,1.06,1.766,6.358,3.179,2.485.663,21.901,3.532,29.672,17.309l.353,10.597s-7.853-15.503-17.662-16.956c-9.538-1.413-18.369-1.766-22.961,8.478-4.592,10.244,5.299,15.543,5.299,15.543,0,0,5.652,2.826,9.538,3.179,3.483.317,22.574.066,26.493.01,3.919.055,23.01.306,26.493-.01,3.886-.353,9.538-3.179,9.538-3.179,0,0,9.891-5.299,5.299-15.543Z" fill="#0c0d0b"/>
    <path d="M82.961,181.931c-.134-.666-.324-1.325-.57-1.96-.105-.295-.257-.628-.384-.914-.52-1.09-1.109-2.027-1.925-3.025-.694-.819-1.396-1.542-2.294-2.234-.212.042-.646.141-.854.191-1.73.418-3.536.925-5.149,1.441-.134.039-.382.123-.511.166-.468.153-.942.316-1.401.484-.252.093-.531.198-.78.297-1.594.651-2.908,1.275-4.004,2.381-.427.438-.765.948-1.083,1.47-1.118,1.82-1.697,3.839-2.404,5.92-.308.926-.658,1.891-1.029,2.795-.332.784-.707,1.583-1.12,2.329-1.947,3.6-5.146,6.398-9.206,7.228-.361.074-.722.144-1.085.208-.363-.065-.724-.134-1.085-.208-4.06-.831-7.258-3.628-9.206-7.228-.412-.745-.787-1.544-1.12-2.329-.371-.904-.722-1.869-1.029-2.795-.707-2.081-1.286-4.1-2.404-5.92-.318-.521-.656-1.031-1.083-1.47-1.095-1.106-2.41-1.73-4.004-2.381-.249-.099-.528-.204-.78-.297-.459-.168-.934-.331-1.401-.484-.129-.043-.377-.126-.511-.166-1.613-.516-3.419-1.023-5.149-1.441-.208-.05-.642-.148-.854-.191-.898.692-1.6,1.416-2.294,2.234-.816.998-1.405,1.935-1.925,3.025-.126.286-.278.619-.384.914-.246.635-.435,1.294-.57,1.96-.557,2.7-.134,5.537,1.185,7.951.367.675.805,1.308,1.273,1.916.577.74,1.212,1.442,1.899,2.082,3.949,3.686,8.91,5.01,14.199,5.095,2.727.058,5.595-.191,8.281-.251,1.483-.034,2.967-.009,4.439.116.241.019.487.044.736.071,1.158,0,2.372.001,3.551.002.256-.028.509-.054.757-.073,1.471-.125,2.956-.15,4.439-.116,2.685.06,5.554.309,8.281.251,5.289-.085,10.25-1.409,14.199-5.095.687-.64,1.322-1.342,1.899-2.082.469-.608.906-1.241,1.273-1.916,1.319-2.415,1.742-5.251,1.185-7.951Z" fill="#0c0d0b"/>
    <path d="M82.961,153.34c-.134-.666-.324-1.325-.57-1.96-.105-.295-.257-.628-.384-.914-.52-1.09-1.109-2.027-1.925-3.025-.694-.819-1.396-1.542-2.294-2.234-.212.042-.646.141-.854.191-1.73.418-3.536.925-5.149,1.441-.134.039-.382.123-.511.166-.468.153-.942.316-1.401.484-.252.093-.531.198-.78.297-1.594.651-2.908,1.275-4.004,2.381-.427.438-.765.948-1.083,1.47-1.118,1.82-1.697,3.839-2.404,5.92-.308.926-.658,1.891-1.029,2.795-.332.784-.707,1.583-1.12,2.329-1.947,3.6-5.146,6.398-9.206,7.228-.361.074-.722.144-1.085.208-.363-.065-.724-.134-1.085-.208-4.06-.831-7.258-3.628-9.206-7.228-.412-.745-.787-1.544-1.12-2.329-.371-.904-.722-1.869-1.029-2.795-.707-2.081-1.286-4.1-2.404-5.92-.318-.521-.656-1.031-1.083-1.47-1.095-1.106-2.41-1.73-4.004-2.381-.249-.099-.528-.204-.78-.297-.459-.168-.934-.331-1.401-.484-.129-.043-.377-.126-.511-.166-1.613-.516-3.419-1.023-5.149-1.441-.208-.05-.642-.148-.854-.191-.898.692-1.6,1.416-2.294,2.234-.816.998-1.405,1.935-1.925,3.025-.126.286-.278.619-.384.914-.246.635-.435,1.294-.57,1.96-.557,2.7-.134,5.537,1.185,7.951.367.675.805,1.308,1.273,1.916.577.74,1.212,1.442,1.899,2.082,3.949,3.686,8.91,5.01,14.199,5.095,2.727.058,5.595-.191,8.281-.251,1.483-.034,2.967-.009,4.439.116.241.019.487.044.736.071,1.158,0,2.372.001,3.551.002.256-.028.509-.054.757-.073,1.471-.125,2.956-.15,4.439-.116,2.685.06,5.554.309,8.281.251,5.289-.085,10.25-1.409,14.199-5.095.687-.64,1.322-1.342,1.899-2.082.469-.608.906-1.241,1.273-1.916,1.319-2.415,1.742-5.251,1.185-7.951Z" fill="#0c0d0b"/>
  </g>
  <g id="Flores">
    <g>
      <g>
        <ellipse cx="215.868" cy="265.534" rx="8.575" ry="6.003" fill="#0c0d0b"/>
        <path d="M238.009,305.388c-6.851-3.153-15.183,1.132-19.265,6.968-.873,1.06-1.662,2.725-2.14,3.096v-6.531c1.874-5.343,7.805-7.707,13.874-9.83,4.149-1.353,13.688-3.995,12.044-9.611-3.217-4.693-10.921-4.135-15.463-1.176-5.087,3.194-8.04,8.223-10.454,11.897v-8.516c1.964-4.742,6.972-7.095,13.7-9.486,2.849-1.027,5.192-.941,6.636-2.577,7.198-13.025-8.439-20.479-17.886-.98-.515,1.154-1.879,3.617-2.45,5.221v-9.876h-1.47v12.859c-1.485-3.863-4.107-12.691-8.331-14.308-7.169-1.616-5.24,6.811-2.585,10.428,1.94,3.062,5.11,5.963,7.559,8.06,2.463,1.884,3.37,4.068,3.357,7.218-.032.977-.015,2.059,0,3.165v3.036c-.027,1.016-.094,1.993-.245,2.865-.223.387-1.273-.402-1.498-.711-3.276-5.35-6.71-13.465-10.894-18.742-3.824-5.765-13.658-1.25-9.462,5.463,2.475,4.412,7.141,6.791,11.107,10.063,2.752,2.69,9.107,5.49,10.992,9.239v3.509c-1.004.667-3.103-.418-4.461-1.245-6.351-4.181-33.889-23.335-31.855-4.982,2.7,11.109,13.61,14.276,23.244,13.444,11.349-.241,25.091.495,33.899-.315,10.05-2.898,12.726-12.89,2.047-17.643Z" fill="#0c0d0b"/>
      </g>
      <circle cx="215.868" cy="266.147" r="2.695" fill="#cb1e1a"/>
    </g>
    <g>
      <g>
        <ellipse cx="64.969" cy="265.534" rx="8.575" ry="6.003" fill="#0c0d0b"/>
        <path d="M87.11,305.388c-6.851-3.153-15.183,1.132-19.265,6.968-.873,1.06-1.662,2.725-2.14,3.096v-6.531c1.874-5.343,7.805-7.707,13.874-9.83,4.149-1.353,13.688-3.995,12.044-9.611-3.217-4.693-10.921-4.135-15.463-1.176-5.087,3.194-8.04,8.223-10.454,11.897v-8.516c1.964-4.742,6.972-7.095,13.7-9.486,2.849-1.027,5.192-.941,6.636-2.577,7.198-13.025-8.439-20.479-17.886-.98-.515,1.154-1.879,3.617-2.45,5.221v-9.876h-1.47v12.859c-1.485-3.863-4.107-12.691-8.331-14.308-7.169-1.616-5.24,6.811-2.585,10.428,1.94,3.062,5.11,5.963,7.559,8.06,2.463,1.884,3.37,4.068,3.357,7.218-.032.977-.015,2.059,0,3.165v3.036c-.027,1.016-.094,1.993-.245,2.865-.223.387-1.273-.402-1.498-.711-3.276-5.35-6.71-13.465-10.894-18.742-3.824-5.765-13.658-1.25-9.462,5.463,2.475,4.412,7.141,6.791,11.107,10.063,2.752,2.69,9.107,5.49,10.992,9.239v3.509c-1.004.667-3.103-.418-4.461-1.245-6.351-4.181-33.889-23.335-31.855-4.982,2.7,11.109,13.61,14.276,23.244,13.444,11.349-.241,25.091.495,33.899-.315,10.05-2.898,12.726-12.89,2.047-17.643Z" fill="#0c0d0b"/>
      </g>
      <circle cx="64.969" cy="266.147" r="2.695" fill="#cb1e1a"/>
    </g>
    <g>
      <g>
        <ellipse cx="139.955" cy="7.722" rx="11.031" ry="7.722" fill="#0c0d0b"/>
        <path d="M168.436,58.989c-8.814-4.056-19.532,1.457-24.783,8.964-1.123,1.364-2.138,3.505-2.753,3.983v-8.402c2.411-6.874,10.04-9.914,17.847-12.645,5.337-1.74,17.608-5.14,15.493-12.363-4.139-6.038-14.048-5.319-19.891-1.513-6.544,4.109-10.343,10.578-13.449,15.305v-10.954c2.527-6.1,8.969-9.126,17.623-12.203,3.664-1.321,6.679-1.21,8.536-3.316,9.259-16.756-10.856-26.345-23.008-1.261-.662,1.484-2.417,4.653-3.152,6.716v-12.705h-1.891v16.542c-1.91-4.97-5.283-16.325-10.717-18.406-9.222-2.079-6.74,8.762-3.326,13.414,2.495,3.939,6.573,7.671,9.724,10.368,3.168,2.423,4.335,5.233,4.319,9.285-.041,1.257-.02,2.648,0,4.071v3.905c-.035,1.307-.121,2.563-.315,3.685-.287.498-1.637-.517-1.927-.915-4.214-6.883-8.631-17.322-14.014-24.109-4.919-7.416-17.57-1.608-12.172,7.028,3.183,5.675,9.187,8.736,14.288,12.944,3.54,3.46,11.715,7.062,14.141,11.885v4.513c-1.291.858-3.992-.538-5.738-1.601-8.17-5.379-43.595-30.018-40.978-6.409,3.473,14.29,17.508,18.364,29.901,17.294,14.599-.31,32.277.637,43.608-.405,12.928-3.728,16.371-16.582,2.634-22.696Z" fill="#0c0d0b"/>
      </g>
      <circle cx="139.955" cy="8.51" r="3.467" fill="#cb1e1a"/>
    </g>
    <g>
      <g>
        <ellipse cx="230.69" cy="86.523" rx="8.825" ry="6.177" fill="#0c0d0b"/>
        <path d="M253.476,127.537c-7.051-3.245-15.625,1.165-19.826,7.171-.898,1.091-1.71,2.804-2.202,3.186v-6.721c1.929-5.499,8.032-7.931,14.278-10.116,4.269-1.392,14.086-4.112,12.394-9.891-3.311-4.83-11.239-4.256-15.913-1.21-5.235,3.287-8.274,8.462-10.759,12.244v-8.764c2.021-4.88,7.175-7.301,14.099-9.762,2.931-1.057,5.343-.968,6.829-2.653,7.407-13.405-8.684-21.076-18.406-1.009-.53,1.187-1.933,3.722-2.521,5.373v-10.164h-1.513v13.233c-1.528-3.976-4.226-13.06-8.573-14.725-7.378-1.663-5.392,7.01-2.661,10.731,1.996,3.152,5.258,6.137,7.779,8.294,2.535,1.939,3.468,4.187,3.455,7.428-.033,1.006-.016,2.118,0,3.257v3.124c-.028,1.045-.097,2.051-.252,2.948-.229.399-1.31-.414-1.542-.732-3.372-5.506-6.905-13.857-11.211-19.287-3.936-5.933-14.056-1.286-9.738,5.622,2.547,4.54,7.349,6.989,11.43,10.356,2.832,2.768,9.372,5.65,11.312,9.508v3.611c-1.033.686-3.193-.43-4.591-1.281-6.536-4.303-34.876-24.014-32.782-5.127,2.778,11.432,14.006,14.691,23.921,13.835,11.679-.248,25.822.509,34.886-.324,10.343-2.982,13.097-13.266,2.107-18.157Z" fill="#0c0d0b"/>
      </g>
      <circle cx="230.69" cy="87.154" r="2.774" fill="#cb1e1a"/>
    </g>
    <g>
      <g>
        <ellipse cx="49.818" cy="86.523" rx="8.825" ry="6.177" fill="#0c0d0b"/>
        <path d="M72.603,127.537c-7.051-3.245-15.625,1.165-19.826,7.171-.898,1.091-1.71,2.804-2.202,3.186v-6.721c1.929-5.499,8.032-7.931,14.278-10.116,4.269-1.392,14.086-4.112,12.394-9.891-3.311-4.83-11.239-4.256-15.913-1.21-5.235,3.287-8.274,8.462-10.759,12.244v-8.764c2.021-4.88,7.175-7.301,14.099-9.762,2.931-1.057,5.343-.968,6.829-2.653,7.407-13.405-8.684-21.076-18.406-1.009-.53,1.187-1.933,3.722-2.521,5.373v-10.164h-1.513v13.233c-1.528-3.976-4.226-13.06-8.573-14.725-7.378-1.663-5.392,7.01-2.661,10.731,1.996,3.152,5.258,6.137,7.779,8.294,2.535,1.939,3.468,4.187,3.455,7.428-.033,1.006-.016,2.118,0,3.257v3.124c-.028,1.045-.097,2.051-.252,2.948-.229.399-1.31-.414-1.542-.732-3.372-5.506-6.905-13.857-11.211-19.287-3.936-5.933-14.056-1.286-9.738,5.622,2.547,4.54,7.349,6.989,11.43,10.356,2.832,2.768,9.372,5.65,11.312,9.508v3.611c-1.033.686-3.193-.43-4.591-1.281-6.536-4.303-34.876-24.014-32.782-5.127,2.778,11.432,14.006,14.691,23.921,13.835,11.679-.248,25.822.509,34.886-.324,10.343-2.982,13.097-13.266,2.107-18.157Z" fill="#0c0d0b"/>
      </g>
      <circle cx="49.818" cy="87.154" r="2.774" fill="#cb1e1a"/>
    </g>
  </g>
</svg>