<?xml version="1.0" encoding="UTF-8"?>
<svg xmlns="http://www.w3.org/2000/svg" width="275.651" height="450" viewBox="0 0 275.651 450">
  <g id="Tallo">
    <g>
      <g>
        <line x1="137.826" y1="450" x2="137.826" y2="74.456" fill="none" stroke="#0c0d0b" stroke-miterlimit="10" stroke-width="2.129"/>
        <g>
          <polygon points="137.826 443.131 134.323 442.302 137.826 441.472 137.826 443.131 137.826 443.131" fill="#0c0d0b"/>
          <polygon points="137.826 447.638 141.328 446.808 137.826 445.979 137.826 447.638 137.826 447.638" fill="#0c0d0b"/>
        </g>
        <g>
          <polygon points="137.826 429.422 134.323 428.593 137.826 427.763 137.826 429.422 137.826 429.422" fill="#0c0d0b"/>
          <polygon points="137.826 433.929 141.328 433.099 137.826 432.27 137.826 433.929 137.826 433.929" fill="#0c0d0b"/>
        </g>
        <g>
          <polygon points="137.826 415.707 134.323 414.877 137.826 414.047 137.826 415.707 137.826 415.707" fill="#0c0d0b"/>
          <polygon points="137.826 420.213 141.328 419.383 137.826 418.554 137.826 420.213 137.826 420.213" fill="#0c0d0b"/>
        </g>
        <g>
          <polygon points="137.826 401.984 134.323 401.154 137.826 400.324 137.826 401.984 137.826 401.984" fill="#0c0d0b"/>
          <polygon points="137.826 406.49 141.328 405.661 137.826 404.831 137.826 406.49 137.826 406.49" fill="#0c0d0b"/>
        </g>
        <g>
          <polygon points="137.826 388.29 134.323 387.46 137.826 386.63 137.826 388.29 137.826 388.29" fill="#0c0d0b"/>
          <polygon points="137.826 392.796 141.328 391.967 137.826 391.137 137.826 392.796 137.826 392.796" fill="#0c0d0b"/>
        </g>
        <g>
          <polygon points="137.826 374.612 134.323 373.782 137.826 372.952 137.826 374.612 137.826 374.612" fill="#0c0d0b"/>
          <polygon points="137.826 379.118 141.328 378.288 137.826 377.459 137.826 379.118 137.826 379.118" fill="#0c0d0b"/>
        </g>
        <g>
          <polygon points="137.826 360.898 134.323 360.068 137.826 359.239 137.826 360.898 137.826 360.898" fill="#0c0d0b"/>
          <polygon points="137.826 365.404 141.328 364.575 137.826 363.745 137.826 365.404 137.826 365.404" fill="#0c0d0b"/>
        </g>
        <g>
          <polygon points="137.826 347.123 134.323 346.293 137.826 345.464 137.826 347.123 137.826 347.123" fill="#0c0d0b"/>
          <polygon points="137.826 351.63 141.328 350.8 137.826 349.97 137.826 351.63 137.826 351.63" fill="#0c0d0b"/>
        </g>
        <g>
          <polygon points="137.826 333.446 134.323 332.616 137.826 331.787 137.826 333.446 137.826 333.446" fill="#0c0d0b"/>
          <polygon points="137.826 337.953 141.328 337.123 137.826 336.293 137.826 337.953 137.826 337.953" fill="#0c0d0b"/>
        </g>
        <g>
          <polygon points="137.826 319.696 134.323 318.867 137.826 318.037 137.826 319.696 137.826 319.696" fill="#0c0d0b"/>
          <polygon points="137.826 324.203 141.328 323.373 137.826 322.543 137.826 324.203 137.826 324.203" fill="#0c0d0b"/>
        </g>
        <g>
          <polygon points="137.826 306.027 134.323 305.198 137.826 304.368 137.826 306.027 137.826 306.027" fill="#0c0d0b"/>
          <polygon points="137.826 310.534 141.328 309.704 137.826 308.874 137.826 310.534 137.826 310.534" fill="#0c0d0b"/>
        </g>
        <g>
          <polygon points="137.826 292.353 134.323 291.524 137.826 290.694 137.826 292.353 137.826 292.353" fill="#0c0d0b"/>
          <polygon points="137.826 296.86 141.328 296.03 137.826 295.201 137.826 296.86 137.826 296.86" fill="#0c0d0b"/>
        </g>
        <g>
          <polygon points="137.826 278.58 134.323 277.75 137.826 276.921 137.826 278.58 137.826 278.58" fill="#0c0d0b"/>
          <polygon points="137.826 283.087 141.328 282.257 137.826 281.427 137.826 283.087 137.826 283.087" fill="#0c0d0b"/>
        </g>
        <g>
          <polygon points="137.826 264.876 134.323 264.046 137.826 263.217 137.826 264.876 137.826 264.876" fill="#0c0d0b"/>
          <polygon points="137.826 269.382 141.328 268.553 137.826 267.723 137.826 269.382 137.826 269.382" fill="#0c0d0b"/>
        </g>
        <g>
          <polygon points="137.826 251.235 134.323 250.405 137.826 249.575 137.826 251.235 137.826 251.235" fill="#0c0d0b"/>
          <polygon points="137.826 255.741 141.328 254.912 137.826 254.082 137.826 255.741 137.826 255.741" fill="#0c0d0b"/>
        </g>
        <g>
          <polygon points="137.826 237.51 134.323 236.681 137.826 235.851 137.826 237.51 137.826 237.51" fill="#0c0d0b"/>
          <polygon points="137.826 242.017 141.328 241.187 137.826 240.357 137.826 242.017 137.826 242.017" fill="#0c0d0b"/>
        </g>
        <g>
          <polygon points="137.826 223.764 134.323 222.934 137.826 222.105 137.826 223.764 137.826 223.764" fill="#0c0d0b"/>
          <polygon points="137.826 228.271 141.328 227.441 137.826 226.611 137.826 228.271 137.826 228.271" fill="#0c0d0b"/>
        </g>
        <g>
          <polygon points="137.826 210.073 134.323 209.243 137.826 208.414 137.826 210.073 137.826 210.073" fill="#0c0d0b"/>
          <polygon points="137.826 214.58 141.328 213.75 137.826 212.92 137.826 214.58 137.826 214.58" fill="#0c0d0b"/>
        </g>
        <g>
          <polygon points="137.826 196.394 134.323 195.565 137.826 194.735 137.826 196.394 137.826 196.394" fill="#0c0d0b"/>
          <polygon points="137.826 200.901 141.328 200.071 137.826 199.241 137.826 200.901 137.826 200.901" fill="#0c0d0b"/>
        </g>
        <g>
          <polygon points="137.826 182.689 134.323 181.86 137.826 181.03 137.826 182.689 137.826 182.689" fill="#0c0d0b"/>
          <polygon points="137.826 187.196 141.328 186.366 137.826 185.536 137.826 187.196 137.826 187.196" fill="#0c0d0b"/>
        </g>
        <g>
          <polygon points="137.826 168.966 134.323 168.136 137.826 167.306 137.826 168.966 137.826 168.966" fill="#0c0d0b"/>
          <polygon points="137.826 173.472 141.328 172.643 137.826 171.813 137.826 173.472 137.826 173.472" fill="#0c0d0b"/>
        </g>
        <g>
          <polygon points="137.826 155.311 134.323 154.481 137.826 153.651 137.826 155.311 137.826 155.311" fill="#0c0d0b"/>
          <polygon points="137.826 159.817 141.328 158.988 137.826 158.158 137.826 159.817 137.826 159.817" fill="#0c0d0b"/>
        </g>
        <g>
          <polygon points="137.826 141.53 134.323 140.7 137.826 139.871 137.826 141.53 137.826 141.53" fill="#0c0d0b"/>
          <polygon points="137.826 146.036 141.328 145.207 137.826 144.377 137.826 146.036 137.826 146.036" fill="#0c0d0b"/>
        </g>
        <g>
          <polygon points="137.826 127.85 134.323 127.02 137.826 126.19 137.826 127.85 137.826 127.85" fill="#0c0d0b"/>
          <polygon points="137.826 132.356 141.328 131.527 137.826 130.697 137.826 132.356 137.826 132.356" fill="#0c0d0b"/>
        </g>
        <g>
          <polygon points="137.826 114.125 134.323 113.295 137.826 112.465 137.826 114.125 137.826 114.125" fill="#0c0d0b"/>
          <polygon points="137.826 118.631 141.328 117.802 137.826 116.972 137.826 118.631 137.826 118.631" fill="#0c0d0b"/>
        </g>
        <g>
          <polygon points="137.826 100.428 134.323 99.598 137.826 98.768 137.826 100.428 137.826 100.428" fill="#0c0d0b"/>
          <polygon points="137.826 104.934 141.328 104.104 137.826 103.275 137.826 104.934 137.826 104.934" fill="#0c0d0b"/>
        </g>
        <g>
          <polygon points="137.826 86.689 134.323 85.859 137.826 85.03 137.826 86.689 137.826 86.689" fill="#0c0d0b"/>
          <polygon points="137.826 91.196 141.328 90.366 137.826 89.536 137.826 91.196 137.826 91.196" fill="#0c0d0b"/>
        </g>
        <g>
          <polygon points="137.826 73.033 134.323 72.203 137.826 71.373 137.826 73.033 137.826 73.033" fill="#0c0d0b"/>
          <polygon points="137.826 77.539 141.328 76.71 137.826 75.88 137.826 77.539 137.826 77.539" fill="#0c0d0b"/>
        </g>
      </g>
      <g>
        <polyline points="51.458 99.489 51.458 166.524 90.078 166.524 90.078 234.423 184.871 234.423 184.871 166.956 224.193 166.956 224.193 99.489" fill="none" stroke="#0c0d0b" stroke-miterlimit="10" stroke-width=".974"/>
        <g>
          <polygon points="51.475 107.868 48.28 107.067 51.495 106.349 51.475 107.868 51.475 107.868" fill="#0c0d0b"/>
          <polygon points="51.422 111.993 54.637 111.275 51.442 110.474 51.422 111.993 51.422 111.993" fill="#0c0d0b"/>
        </g>
        <g>
          <polygon points="51.475 123.887 48.28 123.086 51.495 122.368 51.475 123.887 51.475 123.887" fill="#0c0d0b"/>
          <polygon points="51.422 128.012 54.637 127.294 51.442 126.493 51.422 128.012 51.422 128.012" fill="#0c0d0b"/>
        </g>
        <g>
          <polygon points="51.475 139.957 48.28 139.156 51.495 138.438 51.475 139.957 51.475 139.957" fill="#0c0d0b"/>
          <polygon points="51.422 144.082 54.637 143.364 51.442 142.563 51.422 144.082 51.422 144.082" fill="#0c0d0b"/>
        </g>
        <g>
          <polygon points="51.475 155.976 48.28 155.175 51.495 154.457 51.475 155.976 51.475 155.976" fill="#0c0d0b"/>
          <polygon points="51.422 160.101 54.637 159.383 51.442 158.582 51.422 160.101 51.422 160.101" fill="#0c0d0b"/>
        </g>
        <g>
          <polygon points="56.951 166.507 56.15 169.703 55.432 166.487 56.951 166.507 56.951 166.507" fill="#0c0d0b"/>
          <polygon points="61.076 166.561 60.358 163.345 59.557 166.541 61.076 166.561 61.076 166.561" fill="#0c0d0b"/>
        </g>
        <g>
          <polygon points="72.935 166.507 72.134 169.703 71.416 166.487 72.935 166.507 72.935 166.507" fill="#0c0d0b"/>
          <polygon points="77.06 166.561 76.342 163.345 75.541 166.541 77.06 166.561 77.06 166.561" fill="#0c0d0b"/>
        </g>
        <g>
          <polygon points="90.095 165.409 86.899 164.608 90.115 163.89 90.095 165.409 90.095 165.409" fill="#0c0d0b"/>
          <polygon points="90.041 169.534 93.257 168.816 90.061 168.015 90.041 169.534 90.041 169.534" fill="#0c0d0b"/>
        </g>
        <g>
          <polygon points="90.095 181.449 86.899 180.648 90.115 179.93 90.095 181.449 90.095 181.449" fill="#0c0d0b"/>
          <polygon points="90.041 185.574 93.257 184.856 90.061 184.055 90.041 185.574 90.041 185.574" fill="#0c0d0b"/>
        </g>
        <g>
          <polygon points="90.095 197.528 86.899 196.726 90.115 196.009 90.095 197.528 90.095 197.528" fill="#0c0d0b"/>
          <polygon points="90.041 201.653 93.257 200.935 90.061 200.134 90.041 201.653 90.041 201.653" fill="#0c0d0b"/>
        </g>
        <g>
          <polygon points="90.095 213.54 86.899 212.739 90.115 212.021 90.095 213.54 90.095 213.54" fill="#0c0d0b"/>
          <polygon points="90.041 217.665 93.257 216.947 90.061 216.146 90.041 217.665 90.041 217.665" fill="#0c0d0b"/>
        </g>
        <g>
          <polygon points="90.095 229.635 86.899 228.834 90.115 228.117 90.095 229.635 90.095 229.635" fill="#0c0d0b"/>
          <polygon points="90.041 233.76 93.257 233.043 90.061 232.242 90.041 233.76 90.041 233.76" fill="#0c0d0b"/>
        </g>
        <g>
          <polygon points="101.269 234.406 100.468 237.602 99.75 234.386 101.269 234.406 101.269 234.406" fill="#0c0d0b"/>
          <polygon points="105.394 234.459 104.676 231.244 103.875 234.44 105.394 234.459 105.394 234.459" fill="#0c0d0b"/>
        </g>
        <g>
          <polygon points="117.348 234.406 116.547 237.602 115.829 234.386 117.348 234.406 117.348 234.406" fill="#0c0d0b"/>
          <polygon points="121.473 234.459 120.755 231.244 119.954 234.44 121.473 234.459 121.473 234.459" fill="#0c0d0b"/>
        </g>
        <g>
          <polygon points="133.349 234.406 132.547 237.602 131.83 234.386 133.349 234.406 133.349 234.406" fill="#0c0d0b"/>
          <polygon points="137.473 234.459 136.756 231.244 135.955 234.44 137.473 234.459 137.473 234.459" fill="#0c0d0b"/>
        </g>
        <g>
          <polygon points="149.417 234.406 148.616 237.602 147.899 234.386 149.417 234.406 149.417 234.406" fill="#0c0d0b"/>
          <polygon points="153.542 234.459 152.825 231.244 152.024 234.44 153.542 234.459 153.542 234.459" fill="#0c0d0b"/>
        </g>
        <g>
          <polygon points="165.389 234.406 164.587 237.602 163.87 234.386 165.389 234.406 165.389 234.406" fill="#0c0d0b"/>
          <polygon points="169.513 234.459 168.796 231.244 167.995 234.44 169.513 234.459 169.513 234.459" fill="#0c0d0b"/>
        </g>
        <g>
          <polygon points="181.497 234.406 180.696 237.602 179.978 234.386 181.497 234.406 181.497 234.406" fill="#0c0d0b"/>
          <polygon points="185.622 234.459 184.904 231.244 184.103 234.44 185.622 234.459 185.622 234.459" fill="#0c0d0b"/>
        </g>
        <g>
          <polygon points="184.854 221.824 188.05 222.625 184.834 223.343 184.854 221.824 184.854 221.824" fill="#0c0d0b"/>
          <polygon points="184.908 217.699 181.692 218.417 184.888 219.218 184.908 217.699 184.908 217.699" fill="#0c0d0b"/>
        </g>
        <g>
          <polygon points="184.854 205.826 188.05 206.627 184.834 207.344 184.854 205.826 184.854 205.826" fill="#0c0d0b"/>
          <polygon points="184.908 201.701 181.692 202.418 184.888 203.22 184.908 201.701 184.908 201.701" fill="#0c0d0b"/>
        </g>
        <g>
          <polygon points="184.854 189.7 188.05 190.501 184.834 191.219 184.854 189.7 184.854 189.7" fill="#0c0d0b"/>
          <polygon points="184.908 185.575 181.692 186.293 184.888 187.094 184.908 185.575 184.908 185.575" fill="#0c0d0b"/>
        </g>
        <g>
          <polygon points="184.854 173.677 188.05 174.478 184.834 175.196 184.854 173.677 184.854 173.677" fill="#0c0d0b"/>
          <polygon points="184.908 169.552 181.692 170.27 184.888 171.071 184.908 169.552 184.908 169.552" fill="#0c0d0b"/>
        </g>
        <g>
          <polygon points="194.123 166.939 193.322 170.135 192.604 166.919 194.123 166.939 194.123 166.939" fill="#0c0d0b"/>
          <polygon points="198.248 166.992 197.53 163.777 196.729 166.973 198.248 166.992 198.248 166.992" fill="#0c0d0b"/>
        </g>
        <g>
          <polygon points="210.21 166.939 209.409 170.135 208.692 166.919 210.21 166.939 210.21 166.939" fill="#0c0d0b"/>
          <polygon points="214.335 166.992 213.618 163.777 212.817 166.973 214.335 166.992 214.335 166.992" fill="#0c0d0b"/>
        </g>
        <g>
          <polygon points="224.176 164.947 227.372 165.748 224.156 166.466 224.176 164.947 224.176 164.947" fill="#0c0d0b"/>
          <polygon points="224.23 160.822 221.014 161.54 224.21 162.341 224.23 160.822 224.23 160.822" fill="#0c0d0b"/>
        </g>
        <g>
          <polygon points="224.176 148.878 227.372 149.68 224.156 150.397 224.176 148.878 224.176 148.878" fill="#0c0d0b"/>
          <polygon points="224.23 144.753 221.014 145.471 224.21 146.272 224.23 144.753 224.23 144.753" fill="#0c0d0b"/>
        </g>
        <g>
          <polygon points="224.176 132.865 227.372 133.666 224.156 134.384 224.176 132.865 224.176 132.865" fill="#0c0d0b"/>
          <polygon points="224.23 128.74 221.014 129.457 224.21 130.259 224.23 128.74 224.23 128.74" fill="#0c0d0b"/>
        </g>
        <g>
          <polygon points="224.176 116.788 227.372 117.589 224.156 118.307 224.176 116.788 224.176 116.788" fill="#0c0d0b"/>
          <polygon points="224.23 112.663 221.014 113.381 224.21 114.182 224.23 112.663 224.23 112.663" fill="#0c0d0b"/>
        </g>
        <g>
          <polygon points="224.176 100.792 227.372 101.593 224.156 102.311 224.176 100.792 224.176 100.792" fill="#0c0d0b"/>
          <polygon points="224.23 96.667 221.014 97.385 224.21 98.186 224.23 96.667 224.23 96.667" fill="#0c0d0b"/>
        </g>
      </g>
      <g>
        <polyline points="56.387 274.416 56.387 299.068 138.089 379.085 219.264 297.91 219.264 274.416" fill="none" stroke="#0c0d0b" stroke-miterlimit="10" stroke-width="1.165"/>
        <g>
          <polygon points="56.319 275.723 59.494 276.654 56.239 277.247 56.319 275.723 56.319 275.723" fill="#0c0d0b"/>
          <polygon points="56.536 271.585 53.28 272.178 56.456 273.109 56.536 271.585 56.536 271.585" fill="#0c0d0b"/>
        </g>
        <g>
          <polygon points="56.319 282.815 59.494 283.745 56.239 284.339 56.319 282.815 56.319 282.815" fill="#0c0d0b"/>
          <polygon points="56.536 278.677 53.28 279.27 56.456 280.201 56.536 278.677 56.536 278.677" fill="#0c0d0b"/>
        </g>
        <g>
          <polygon points="56.319 289.908 59.494 290.838 56.239 291.431 56.319 289.908 56.319 289.908" fill="#0c0d0b"/>
          <polygon points="56.536 285.77 53.28 286.363 56.456 287.294 56.536 285.77 56.536 285.77" fill="#0c0d0b"/>
        </g>
        <g>
          <polygon points="56.319 297.091 59.494 298.022 56.239 298.615 56.319 297.091 56.319 297.091" fill="#0c0d0b"/>
          <polygon points="56.536 292.954 53.28 293.547 56.456 294.477 56.536 292.954 56.536 292.954" fill="#0c0d0b"/>
        </g>
        <g>
          <polygon points="59.948 302.651 62.835 301.034 60.981 303.775 59.948 302.651 59.948 302.651" fill="#0c0d0b"/>
          <polygon points="57.144 299.601 55.29 302.342 58.177 300.724 57.144 299.601 57.144 299.601" fill="#0c0d0b"/>
        </g>
        <g>
          <polygon points="65.045 307.642 67.931 306.025 66.077 308.766 65.045 307.642 65.045 307.642" fill="#0c0d0b"/>
          <polygon points="62.24 304.592 60.386 307.333 63.273 305.715 62.24 304.592 62.24 304.592" fill="#0c0d0b"/>
        </g>
        <g>
          <polygon points="70.127 312.62 73.014 311.002 71.16 313.743 70.127 312.62 70.127 312.62" fill="#0c0d0b"/>
          <polygon points="67.323 309.57 65.469 312.311 68.355 310.693 67.323 309.57 67.323 309.57" fill="#0c0d0b"/>
        </g>
        <g>
          <polygon points="75.197 317.585 78.084 315.968 76.229 318.708 75.197 317.585 75.197 317.585" fill="#0c0d0b"/>
          <polygon points="72.393 314.535 70.538 317.276 73.425 315.658 72.393 314.535 72.393 314.535" fill="#0c0d0b"/>
        </g>
        <g>
          <polygon points="80.315 322.598 83.202 320.98 81.347 323.721 80.315 322.598 80.315 322.598" fill="#0c0d0b"/>
          <polygon points="77.511 319.548 75.656 322.288 78.543 320.671 77.511 319.548 77.511 319.548" fill="#0c0d0b"/>
        </g>
        <g>
          <polygon points="85.39 327.568 88.277 325.951 86.423 328.692 85.39 327.568 85.39 327.568" fill="#0c0d0b"/>
          <polygon points="82.586 324.518 80.732 327.259 83.619 325.641 82.586 324.518 82.586 324.518" fill="#0c0d0b"/>
        </g>
        <g>
          <polygon points="90.453 332.527 93.34 330.909 91.485 333.65 90.453 332.527 90.453 332.527" fill="#0c0d0b"/>
          <polygon points="87.649 329.476 85.794 332.217 88.681 330.6 87.649 329.476 87.649 329.476" fill="#0c0d0b"/>
        </g>
        <g>
          <polygon points="95.538 337.507 98.425 335.889 96.571 338.63 95.538 337.507 95.538 337.507" fill="#0c0d0b"/>
          <polygon points="92.734 334.457 90.88 337.198 93.766 335.58 92.734 334.457 92.734 334.457" fill="#0c0d0b"/>
        </g>
        <g>
          <polygon points="100.62 342.484 103.507 340.866 101.652 343.607 100.62 342.484 100.62 342.484" fill="#0c0d0b"/>
          <polygon points="97.816 339.434 95.961 342.175 98.848 340.557 97.816 339.434 97.816 339.434" fill="#0c0d0b"/>
        </g>
        <g>
          <polygon points="105.702 347.461 108.589 345.844 106.734 348.584 105.702 347.461 105.702 347.461" fill="#0c0d0b"/>
          <polygon points="102.898 344.411 101.044 347.152 103.93 345.534 102.898 344.411 102.898 344.411" fill="#0c0d0b"/>
        </g>
        <g>
          <polygon points="110.769 352.423 113.655 350.806 111.801 353.547 110.769 352.423 110.769 352.423" fill="#0c0d0b"/>
          <polygon points="107.964 349.373 106.11 352.114 108.997 350.496 107.964 349.373 107.964 349.373" fill="#0c0d0b"/>
        </g>
        <g>
          <polygon points="115.844 357.394 118.73 355.776 116.876 358.517 115.844 357.394 115.844 357.394" fill="#0c0d0b"/>
          <polygon points="113.039 354.344 111.185 357.085 114.072 355.467 113.039 354.344 113.039 354.344" fill="#0c0d0b"/>
        </g>
        <g>
          <polygon points="120.964 362.409 123.851 360.791 121.997 363.532 120.964 362.409 120.964 362.409" fill="#0c0d0b"/>
          <polygon points="118.16 359.359 116.306 362.099 119.193 360.482 118.16 359.359 118.16 359.359" fill="#0c0d0b"/>
        </g>
        <g>
          <polygon points="126.029 367.369 128.916 365.751 127.061 368.492 126.029 367.369 126.029 367.369" fill="#0c0d0b"/>
          <polygon points="123.225 364.319 121.37 367.06 124.257 365.442 123.225 364.319 123.225 364.319" fill="#0c0d0b"/>
        </g>
        <g>
          <polygon points="131.114 372.349 134 370.731 132.146 373.472 131.114 372.349 131.114 372.349" fill="#0c0d0b"/>
          <polygon points="128.31 369.299 126.455 372.04 129.342 370.422 128.31 369.299 128.31 369.299" fill="#0c0d0b"/>
        </g>
        <g>
          <polygon points="136.208 377.338 139.095 375.721 137.241 378.462 136.208 377.338 136.208 377.338" fill="#0c0d0b"/>
          <polygon points="133.404 374.288 131.55 377.029 134.437 375.411 133.404 374.288 133.404 374.288" fill="#0c0d0b"/>
        </g>
        <g>
          <polygon points="141.298 375.974 139.71 373.07 142.432 374.953 141.298 375.974 141.298 375.974" fill="#0c0d0b"/>
          <polygon points="138.218 378.746 140.94 380.629 139.352 377.725 138.218 378.746 138.218 378.746" fill="#0c0d0b"/>
        </g>
        <g>
          <polygon points="146.328 370.944 144.74 368.04 147.461 369.923 146.328 370.944 146.328 370.944" fill="#0c0d0b"/>
          <polygon points="143.248 373.716 145.97 375.599 144.382 372.695 143.248 373.716 143.248 373.716" fill="#0c0d0b"/>
        </g>
        <g>
          <polygon points="151.344 365.928 149.756 363.024 152.478 364.907 151.344 365.928 151.344 365.928" fill="#0c0d0b"/>
          <polygon points="148.265 368.7 150.986 370.583 149.398 367.679 148.265 368.7 148.265 368.7" fill="#0c0d0b"/>
        </g>
        <g>
          <polygon points="156.392 360.879 154.805 357.975 157.526 359.858 156.392 360.879 156.392 360.879" fill="#0c0d0b"/>
          <polygon points="153.313 363.651 156.035 365.534 154.447 362.63 153.313 363.651 153.313 363.651" fill="#0c0d0b"/>
        </g>
        <g>
          <polygon points="161.443 355.828 159.856 352.924 162.577 354.807 161.443 355.828 161.443 355.828" fill="#0c0d0b"/>
          <polygon points="158.364 358.6 161.086 360.483 159.498 357.579 158.364 358.6 158.364 358.6" fill="#0c0d0b"/>
        </g>
        <g>
          <polygon points="166.468 350.804 164.88 347.9 167.601 349.783 166.468 350.804 166.468 350.804" fill="#0c0d0b"/>
          <polygon points="163.388 353.576 166.11 355.459 164.522 352.555 163.388 353.576 163.388 353.576" fill="#0c0d0b"/>
        </g>
        <g>
          <polygon points="171.493 345.778 169.905 342.875 172.627 344.758 171.493 345.778 171.493 345.778" fill="#0c0d0b"/>
          <polygon points="168.414 348.551 171.135 350.433 169.548 347.53 168.414 348.551 168.414 348.551" fill="#0c0d0b"/>
        </g>
        <g>
          <polygon points="176.503 340.768 174.916 337.864 177.637 339.747 176.503 340.768 176.503 340.768" fill="#0c0d0b"/>
          <polygon points="173.424 343.54 176.146 345.423 174.558 342.519 173.424 343.54 173.424 343.54" fill="#0c0d0b"/>
        </g>
        <g>
          <polygon points="181.537 335.734 179.95 332.83 182.671 334.713 181.537 335.734 181.537 335.734" fill="#0c0d0b"/>
          <polygon points="178.458 338.506 181.18 340.389 179.592 337.485 178.458 338.506 178.458 338.506" fill="#0c0d0b"/>
        </g>
        <g>
          <polygon points="186.546 330.725 184.959 327.822 187.68 329.704 186.546 330.725 186.546 330.725" fill="#0c0d0b"/>
          <polygon points="183.467 333.497 186.188 335.38 184.601 332.477 183.467 333.497 183.467 333.497" fill="#0c0d0b"/>
        </g>
        <g>
          <polygon points="191.634 325.637 190.047 322.734 192.768 324.616 191.634 325.637 191.634 325.637" fill="#0c0d0b"/>
          <polygon points="188.555 328.409 191.277 330.292 189.689 327.388 188.555 328.409 188.555 328.409" fill="#0c0d0b"/>
        </g>
        <g>
          <polygon points="196.606 320.665 195.019 317.762 197.74 319.644 196.606 320.665 196.606 320.665" fill="#0c0d0b"/>
          <polygon points="193.527 323.437 196.248 325.32 194.661 322.417 193.527 323.437 193.527 323.437" fill="#0c0d0b"/>
        </g>
        <g>
          <polygon points="201.636 315.635 200.049 312.732 202.77 314.614 201.636 315.635 201.636 315.635" fill="#0c0d0b"/>
          <polygon points="198.557 318.407 201.278 320.29 199.691 317.387 198.557 318.407 198.557 318.407" fill="#0c0d0b"/>
        </g>
        <g>
          <polygon points="206.672 310.599 205.085 307.696 207.806 309.578 206.672 310.599 206.672 310.599" fill="#0c0d0b"/>
          <polygon points="203.593 313.371 206.314 315.254 204.727 312.351 203.593 313.371 203.593 313.371" fill="#0c0d0b"/>
        </g>
        <g>
          <polygon points="211.719 305.552 210.131 302.649 212.853 304.532 211.719 305.552 211.719 305.552" fill="#0c0d0b"/>
          <polygon points="208.64 308.325 211.361 310.207 209.773 307.304 208.64 308.325 208.64 308.325" fill="#0c0d0b"/>
        </g>
        <g>
          <polygon points="216.753 300.518 215.165 297.615 217.887 299.498 216.753 300.518 216.753 300.518" fill="#0c0d0b"/>
          <polygon points="213.674 303.291 216.395 305.173 214.807 302.27 213.674 303.291 213.674 303.291" fill="#0c0d0b"/>
        </g>
        <g>
          <polygon points="219.333 294.47 216.157 293.54 219.413 292.947 219.333 294.47 219.333 294.47" fill="#0c0d0b"/>
          <polygon points="219.116 298.608 222.371 298.015 219.195 297.084 219.116 298.608 219.116 298.608" fill="#0c0d0b"/>
        </g>
        <g>
          <polygon points="219.333 287.322 216.157 286.392 219.413 285.799 219.333 287.322 219.333 287.322" fill="#0c0d0b"/>
          <polygon points="219.116 291.46 222.371 290.867 219.195 289.936 219.116 291.46 219.116 291.46" fill="#0c0d0b"/>
        </g>
        <g>
          <polygon points="219.333 280.203 216.157 279.272 219.413 278.679 219.333 280.203 219.333 280.203" fill="#0c0d0b"/>
          <polygon points="219.116 284.34 222.371 283.747 219.195 282.817 219.116 284.34 219.116 284.34" fill="#0c0d0b"/>
        </g>
        <g>
          <polygon points="219.333 273.109 216.157 272.178 219.413 271.585 219.333 273.109 219.333 273.109" fill="#0c0d0b"/>
          <polygon points="219.116 277.247 222.371 276.654 219.195 275.723 219.116 277.247 219.116 277.247" fill="#0c0d0b"/>
        </g>
      </g>
    </g>
  </g>
  <g id="Hojas">
    <path d="M170.013,260.786c-6.226-.83-12.678.488-18.094,3.559,0,0-.278.158-.278.158-.712.402-1.2.974-1.584,1.739-.514,1.035-.757,2.271-.944,3.487-.198,1.301-.35,2.793-.617,4.054-.293,1.366-.739,2.736-1.781,3.596l-8.198,4.692-8.048-4.606c-1.12-.853-1.587-2.269-1.89-3.682-.267-1.262-.419-2.754-.617-4.054-.188-1.216-.431-2.452-.944-3.487-.384-.766-.872-1.337-1.584-1.739,0,0-.278-.158-.278-.158-5.417-3.071-11.869-4.39-18.094-3.559-1.346.185-2.718.446-4.023.884.273,1.349.733,2.668,1.246,3.926,2.394,5.807,6.761,10.735,12.13,13.891,0,0,.276.162.276.162.704.416,1.443.552,2.298.502,1.153-.072,2.346-.48,3.492-.926,1.225-.478,2.594-1.093,3.82-1.493,1.264-.409,2.599-.699,3.816-.32l8.398,4.806.004-.007.004.007,8.342-4.774c1.243-.426,2.616-.132,3.914.288,1.226.4,2.594,1.014,3.82,1.493,1.146.446,2.339.854,3.492.926.855.05,1.594-.086,2.298-.502,0,0,.276-.162.276-.162,5.368-3.156,9.736-8.084,12.13-13.891.512-1.258.972-2.577,1.246-3.926-1.305-.438-2.677-.699-4.023-.884Z" fill="#0c0d0b"/>
    <path d="M250.372,269.306c-6.226-.83-12.678.488-18.094,3.559,0,0-.278.158-.278.158-.712.402-1.2.974-1.584,1.739-.514,1.035-.757,2.271-.944,3.487-.198,1.301-.35,2.793-.617,4.054-.293,1.366-.739,2.736-1.781,3.596l-8.198,4.692-8.048-4.606c-1.12-.853-1.587-2.269-1.89-3.682-.267-1.262-.419-2.754-.617-4.054-.188-1.216-.431-2.452-.944-3.487-.384-.766-.872-1.337-1.584-1.739,0,0-.278-.158-.278-.158-5.417-3.071-11.869-4.39-18.094-3.559-1.346.185-2.718.446-4.023.884.273,1.349.733,2.668,1.246,3.926,2.394,5.807,6.761,10.735,12.13,13.891,0,0,.276.162.276.162.704.416,1.443.552,2.298.502,1.153-.072,2.346-.48,3.492-.926,1.225-.478,2.594-1.093,3.82-1.493,1.264-.409,2.599-.699,3.816-.32l8.398,4.806.004-.007.004.007,8.342-4.774c1.243-.426,2.616-.132,3.914.288,1.226.4,2.594,1.014,3.82,1.493,1.146.446,2.339.854,3.492.926.855.05,1.594-.086,2.298-.502,0,0,.276-.162.276-.162,5.368-3.156,9.736-8.084,12.13-13.891.512-1.258.972-2.577,1.246-3.926-1.305-.438-2.677-.699-4.023-.884Z" fill="#0c0d0b"/>
    <path d="M94.373,294.171c-4.99,3.815-8.619,9.309-10.278,15.311,0,0-.085.309-.085.309-.219.788-.16,1.537.11,2.35.369,1.095,1.071,2.141,1.798,3.134.779,1.06,1.727,2.222,2.43,3.303.759,1.173,1.412,2.457,1.283,3.802l-2.48,9.115-8.947,2.434c-1.395.189-2.726-.483-3.94-1.267-1.081-.703-2.243-1.651-3.303-2.43-.992-.727-2.038-1.429-3.134-1.798-.813-.27-1.562-.329-2.35-.11,0,0-.309.085-.309.085-6.002,1.659-11.496,5.288-15.311,10.278-.821,1.082-1.606,2.238-2.219,3.47,1.147.76,2.405,1.368,3.657,1.895,5.799,2.414,12.372,2.81,18.399,1.245,0,0,.31-.081.31-.081.792-.204,1.411-.63,1.98-1.27.765-.866,1.32-1.998,1.815-3.124.528-1.205,1.061-2.607,1.645-3.756.605-1.183,1.344-2.332,2.472-2.925l9.336-2.54-.002-.008.008.002,2.523-9.274c.578-1.18,1.757-1.943,2.971-2.564,1.149-.584,2.552-1.117,3.756-1.645,1.125-.495,2.258-1.05,3.124-1.815.64-.569,1.066-1.188,1.27-1.98,0,0,.081-.31.081-.31,1.565-6.027,1.168-12.6-1.245-18.399-.527-1.252-1.135-2.51-1.895-3.657-1.232.613-2.387,1.399-3.47,2.219Z" fill="#0c0d0b"/>
    <path d="M124.902,323.99c-4.99,3.815-8.619,9.309-10.278,15.311,0,0-.085.309-.085.309-.219.788-.16,1.537.11,2.35.369,1.095,1.071,2.141,1.798,3.134.779,1.06,1.727,2.222,2.43,3.303.759,1.173,1.412,2.457,1.283,3.802l-2.48,9.115-8.947,2.434c-1.395.189-2.726-.483-3.94-1.267-1.081-.703-2.243-1.651-3.303-2.43-.992-.727-2.038-1.429-3.134-1.798-.813-.27-1.562-.329-2.35-.11,0,0-.309.085-.309.085-6.002,1.659-11.496,5.288-15.311,10.278-.821,1.082-1.606,2.238-2.219,3.47,1.147.76,2.405,1.368,3.657,1.895,5.799,2.414,12.372,2.81,18.399,1.245,0,0,.31-.081.31-.081.792-.204,1.411-.63,1.98-1.27.765-.866,1.32-1.998,1.815-3.124.528-1.205,1.061-2.607,1.645-3.756.605-1.183,1.344-2.332,2.472-2.925l9.336-2.54-.002-.008.008.002,2.523-9.274c.578-1.18,1.757-1.943,2.971-2.564,1.149-.584,2.552-1.117,3.756-1.645,1.125-.495,2.258-1.05,3.124-1.815.64-.569,1.066-1.188,1.27-1.98,0,0,.081-.31.081-.31,1.565-6.027,1.168-12.6-1.245-18.399-.527-1.252-1.135-2.51-1.895-3.657-1.232.613-2.387,1.399-3.47,2.219Z" fill="#0c0d0b"/>
    <path d="M179.43,294.171c4.99,3.815,8.619,9.309,10.278,15.311,0,0,.085.309.085.309.219.788.16,1.537-.11,2.35-.369,1.095-1.071,2.141-1.798,3.134-.779,1.06-1.727,2.222-2.43,3.303-.759,1.173-1.412,2.457-1.283,3.802l2.48,9.115,8.947,2.434c1.395.189,2.726-.483,3.94-1.267,1.081-.703,2.243-1.651,3.303-2.43.992-.727,2.038-1.429,3.134-1.798.813-.27,1.562-.329,2.35-.11,0,0,.309.085.309.085,6.002,1.659,11.496,5.288,15.311,10.278.821,1.082,1.606,2.238,2.219,3.47-1.147.76-2.405,1.368-3.657,1.895-5.799,2.414-12.372,2.81-18.399,1.245,0,0-.31-.081-.31-.081-.792-.204-1.411-.63-1.98-1.27-.765-.866-1.32-1.998-1.815-3.124-.528-1.205-1.061-2.607-1.645-3.756-.605-1.183-1.344-2.332-2.472-2.925l-9.336-2.54.002-.008-.008.002-2.523-9.274c-.578-1.18-1.757-1.943-2.971-2.564-1.149-.584-2.552-1.117-3.756-1.645-1.125-.495-2.258-1.05-3.124-1.815-.64-.569-1.066-1.188-1.27-1.98,0,0-.081-.31-.081-.31-1.565-6.027-1.168-12.6,1.245-18.399.527-1.252,1.135-2.51,1.895-3.657,1.232.613,2.387,1.399,3.47,2.219Z" fill="#0c0d0b"/>
    <path d="M148.9,323.99c4.99,3.815,8.619,9.309,10.278,15.311,0,0,.085.309.085.309.219.788.16,1.537-.11,2.35-.369,1.095-1.071,2.141-1.798,3.134-.779,1.06-1.727,2.222-2.43,3.303-.759,1.173-1.412,2.457-1.283,3.802l2.48,9.115,8.947,2.434c1.395.189,2.726-.483,3.94-1.267,1.081-.703,2.243-1.651,3.303-2.43.992-.727,2.038-1.429,3.134-1.798.813-.27,1.562-.329,2.35-.11,0,0,.309.085.309.085,6.002,1.659,11.496,5.288,15.311,10.278.821,1.082,1.606,2.238,2.219,3.47-1.147.76-2.405,1.368-3.657,1.895-5.799,2.414-12.372,2.81-18.399,1.245,0,0-.31-.081-.31-.081-.792-.204-1.411-.63-1.98-1.27-.765-.866-1.32-1.998-1.815-3.124-.528-1.205-1.061-2.607-1.645-3.756-.605-1.183-1.344-2.332-2.472-2.925l-9.336-2.54.002-.008-.008.002-2.523-9.274c-.578-1.18-1.757-1.943-2.971-2.564-1.149-.584-2.552-1.117-3.756-1.645-1.125-.495-2.258-1.05-3.124-1.815-.64-.569-1.066-1.188-1.27-1.98,0,0-.081-.31-.081-.31-1.565-6.027-1.168-12.6,1.245-18.399.527-1.252,1.135-2.51,1.895-3.657,1.232.613,2.387,1.399,3.47,2.219Z" fill="#0c0d0b"/>
    <path d="M88.233,269.306c-6.226-.83-12.678.488-18.094,3.559,0,0-.278.158-.278.158-.712.402-1.2.974-1.584,1.739-.514,1.035-.757,2.271-.944,3.487-.198,1.301-.35,2.793-.617,4.054-.293,1.366-.739,2.736-1.781,3.596l-8.198,4.692-8.048-4.606c-1.12-.853-1.587-2.269-1.89-3.682-.267-1.262-.419-2.754-.617-4.054-.188-1.216-.431-2.452-.944-3.487-.384-.766-.872-1.337-1.584-1.739,0,0-.278-.158-.278-.158-5.417-3.071-11.869-4.39-18.094-3.559-1.346.185-2.718.446-4.023.884.273,1.349.733,2.668,1.246,3.926,2.394,5.807,6.761,10.735,12.13,13.891,0,0,.276.162.276.162.704.416,1.443.552,2.298.502,1.153-.072,2.346-.48,3.492-.926,1.225-.478,2.594-1.093,3.82-1.493,1.264-.409,2.599-.699,3.816-.32l8.398,4.806.004-.007.004.007,8.342-4.774c1.243-.426,2.616-.132,3.914.288,1.226.4,2.594,1.014,3.82,1.493,1.146.446,2.339.854,3.492.926.855.05,1.594-.086,2.298-.502,0,0,.276-.162.276-.162,5.368-3.156,9.736-8.084,12.13-13.891.512-1.258.972-2.577,1.246-3.926-1.305-.438-2.677-.699-4.023-.884Z" fill="#0c0d0b"/>
    <g>
      <path d="M153.412,153.652c.864,0,1.564-.7,1.564-1.564s-.7-1.564-1.564-1.564-1.564.7-1.564,1.564.7,1.564,1.564,1.564Z"/>
      <path d="M161.753,148.022c.864,0,1.564-.7,1.564-1.564s-.7-1.564-1.564-1.564-1.564.7-1.564,1.564.7,1.564,1.564,1.564Z"/>
      <circle cx="162.274" cy="155.216" r="1.564"/>
      <path d="M152.996,162.409c.864,0,1.564-.7,1.564-1.564s-.7-1.564-1.564-1.564-1.564.7-1.564,1.564.7,1.564,1.564,1.564Z"/>
      <path d="M172.7,153.652c-.187,0-.354.082-.468.212l-8.498-2.428,2.283-1.915c.227.214.583.229.829.024.265-.222.3-.616.079-.881-.222-.265-.616-.3-.881-.079-.206.172-.272.447-.189.686l-6.797,5.702c.028-.097.057-.195.083-.292.387-1.424.633-2.8.754-4.205.234-2.727-.076-4.991-.325-6.81-.115-.839-.217-1.587-.256-2.274.046-.022.09-.049.131-.084.265-.222.3-.616.079-.881-.221-.265-.616-.3-.881-.079s-.3.616-.079.881c.118.142.286.217.457.223.042.685.143,1.426.256,2.253.247,1.805.555,4.051.324,6.745-.119,1.388-.363,2.746-.745,4.153-.041.152-.085.304-.13.457l-4.562-6.564,1.382-5.586c.019,0,.038.003.057.003.864,0,1.564-.7,1.564-1.564s-.7-1.564-1.564-1.564-1.564.7-1.564,1.564c0,.742.518,1.363,1.212,1.523l-1.312,5.301-1.525-2.193c.17-.25.269-.552.269-.877,0-.864-.7-1.564-1.564-1.564s-1.564.7-1.564,1.564.7,1.564,1.564,1.564c.428,0,.816-.173,1.099-.451l1.626,2.34v.005s.004.001.004.001l4.768,6.861c-.397,1.294-.91,2.62-1.532,3.953-1.62,3.47-5.141,5.565-8.551,6.822v-8.909c.099-.02.194-.064.277-.133.265-.222.3-.616.079-.881-.221-.265-.616-.3-.881-.079s-.3.616-.079.881c.084.1.192.167.309.201v9.028c-.941.334-1.869.606-2.742.826-2.227.561-4.343.855-5.913,1.009-.092-.894-.838-1.594-1.757-1.594s-1.665.7-1.757,1.594c-1.571-.154-3.686-.448-5.913-1.009-.873-.22-1.801-.492-2.742-.826v-9.028c.117-.033.225-.1.309-.201.222-.265.186-.66-.079-.881s-.66-.186-.881.079c-.222.265-.186.66.079.881.083.069.178.113.277.133v8.909c-3.411-1.257-6.932-3.351-8.551-6.822-.622-1.334-1.135-2.659-1.532-3.953l4.768-6.861h.005s-.001-.006-.001-.006l1.626-2.34c.282.279.67.451,1.099.451.864,0,1.564-.7,1.564-1.564s-.7-1.564-1.564-1.564-1.564.7-1.564,1.564c0,.325.099.627.269.877l-1.525,2.193-1.312-5.301c.694-.16,1.212-.78,1.212-1.523,0-.864-.7-1.564-1.564-1.564s-1.564.7-1.564,1.564.7,1.564,1.564,1.564c.019,0,.038-.002.057-.003l1.382,5.586-4.562,6.564c-.044-.153-.089-.305-.13-.457-.382-1.407-.626-2.766-.745-4.153-.231-2.694.077-4.94.324-6.745.113-.827.214-1.568.256-2.253.171-.006.339-.082.457-.223.222-.265.186-.66-.079-.881s-.66-.186-.881.079c-.222.265-.186.66.079.881.041.034.085.061.131.084-.039.686-.141,1.435-.256,2.274-.249,1.819-.559,4.083-.325,6.81.121,1.405.367,2.781.754,4.205.026.097.055.194.083.292l-6.797-5.702c.083-.239.017-.514-.189-.686-.265-.222-.66-.186-.881.079-.221.265-.186.66.079.881.245.205.601.19.829-.024l2.283,1.915-8.498,2.428c-.115-.129-.282-.212-.468-.212-.345,0-.625.28-.625.626s.28.626.625.626.626-.28.626-.626c0-.051-.007-.099-.018-.147l8.631-2.466,4.555,3.821c.402,1.315.922,2.661,1.554,4.016,2.164,4.637,7.606,6.865,11.79,7.918,2.252.567,4.389.862,5.973,1.017.06.926.822,1.66,1.763,1.66s1.703-.735,1.763-1.66c1.584-.155,3.721-.45,5.973-1.017,4.184-1.053,9.626-3.281,11.79-7.918.632-1.354,1.152-2.701,1.554-4.016l4.555-3.821,8.631,2.466c-.011.047-.018.096-.018.147,0,.345.28.626.626.626s.625-.28.625-.626-.28-.626-.625-.626Z"/>
      <path d="M123.803,152.088c0-.864-.7-1.564-1.564-1.564s-1.564.7-1.564,1.564.7,1.564,1.564,1.564,1.564-.7,1.564-1.564Z"/>
      <path d="M113.898,148.022c.864,0,1.564-.7,1.564-1.564s-.7-1.564-1.564-1.564-1.564.7-1.564,1.564.7,1.564,1.564,1.564Z"/>
      <circle cx="113.377" cy="155.216" r="1.564"/>
      <path d="M122.656,162.409c.864,0,1.564-.7,1.564-1.564s-.7-1.564-1.564-1.564-1.564.7-1.564,1.564.7,1.564,1.564,1.564Z"/>
    </g>
    <g>
      <path d="M153.412,191.281c.864,0,1.564-.7,1.564-1.564s-.7-1.564-1.564-1.564-1.564.7-1.564,1.564.7,1.564,1.564,1.564Z"/>
      <path d="M161.753,185.652c.864,0,1.564-.7,1.564-1.564s-.7-1.564-1.564-1.564-1.564.7-1.564,1.564.7,1.564,1.564,1.564Z"/>
      <circle cx="162.274" cy="192.845" r="1.564"/>
      <path d="M152.996,200.039c.864,0,1.564-.7,1.564-1.564s-.7-1.564-1.564-1.564-1.564.7-1.564,1.564.7,1.564,1.564,1.564Z"/>
      <path d="M172.7,191.281c-.187,0-.354.082-.468.212l-8.498-2.428,2.283-1.915c.227.214.583.229.829.024.265-.222.3-.616.079-.881-.222-.265-.616-.3-.881-.079-.206.172-.272.447-.189.686l-6.797,5.702c.028-.097.057-.195.083-.292.387-1.424.633-2.8.754-4.205.234-2.727-.076-4.991-.325-6.81-.115-.839-.217-1.587-.256-2.274.046-.022.09-.049.131-.084.265-.222.3-.616.079-.881-.221-.265-.616-.3-.881-.079s-.3.616-.079.881c.118.142.286.217.457.223.042.685.143,1.426.256,2.253.247,1.805.555,4.051.324,6.745-.119,1.388-.363,2.746-.745,4.153-.041.152-.085.304-.13.457l-4.562-6.564,1.382-5.586c.019,0,.038.003.057.003.864,0,1.564-.7,1.564-1.564s-.7-1.564-1.564-1.564-1.564.7-1.564,1.564c0,.742.518,1.363,1.212,1.523l-1.312,5.301-1.525-2.193c.17-.25.269-.552.269-.877,0-.864-.7-1.564-1.564-1.564s-1.564.7-1.564,1.564.7,1.564,1.564,1.564c.428,0,.816-.173,1.099-.451l1.626,2.34v.005s.004.001.004.001l4.768,6.861c-.397,1.294-.91,2.62-1.532,3.953-1.62,3.47-5.141,5.565-8.551,6.822v-8.909c.099-.02.194-.064.277-.133.265-.222.3-.616.079-.881-.221-.265-.616-.3-.881-.079s-.3.616-.079.881c.084.1.192.167.309.201v9.028c-.941.334-1.869.606-2.742.826-2.227.561-4.343.855-5.913,1.009-.092-.894-.838-1.594-1.757-1.594s-1.665.7-1.757,1.594c-1.571-.154-3.686-.448-5.913-1.009-.873-.22-1.801-.492-2.742-.826v-9.028c.117-.033.225-.1.309-.201.222-.265.186-.66-.079-.881s-.66-.186-.881.079c-.222.265-.186.66.079.881.083.069.178.113.277.133v8.909c-3.411-1.257-6.932-3.351-8.551-6.822-.622-1.334-1.135-2.659-1.532-3.953l4.768-6.861h.005s-.001-.006-.001-.006l1.626-2.34c.282.279.67.451,1.099.451.864,0,1.564-.7,1.564-1.564s-.7-1.564-1.564-1.564-1.564.7-1.564,1.564c0,.325.099.627.269.877l-1.525,2.193-1.312-5.301c.694-.16,1.212-.78,1.212-1.523,0-.864-.7-1.564-1.564-1.564s-1.564.7-1.564,1.564.7,1.564,1.564,1.564c.019,0,.038-.002.057-.003l1.382,5.586-4.562,6.564c-.044-.153-.089-.305-.13-.457-.382-1.407-.626-2.766-.745-4.153-.231-2.694.077-4.94.324-6.745.113-.827.214-1.568.256-2.253.171-.006.339-.082.457-.223.222-.265.186-.66-.079-.881s-.66-.186-.881.079c-.222.265-.186.66.079.881.041.034.085.061.131.084-.039.686-.141,1.435-.256,2.274-.249,1.819-.559,4.083-.325,6.81.121,1.405.367,2.781.754,4.205.026.097.055.194.083.292l-6.797-5.702c.083-.239.017-.514-.189-.686-.265-.222-.66-.186-.881.079-.221.265-.186.66.079.881.245.205.601.19.829-.024l2.283,1.915-8.498,2.428c-.115-.129-.282-.212-.468-.212-.345,0-.625.28-.625.626s.28.626.625.626.626-.28.626-.626c0-.051-.007-.099-.018-.147l8.631-2.466,4.555,3.821c.402,1.315.922,2.661,1.554,4.016,2.164,4.637,7.606,6.865,11.79,7.918,2.252.567,4.389.862,5.973,1.017.06.926.822,1.66,1.763,1.66s1.703-.735,1.763-1.66c1.584-.155,3.721-.45,5.973-1.017,4.184-1.053,9.626-3.281,11.79-7.918.632-1.354,1.152-2.701,1.554-4.016l4.555-3.821,8.631,2.466c-.011.047-.018.096-.018.147,0,.345.28.626.626.626s.625-.28.625-.626-.28-.626-.625-.626Z"/>
      <path d="M123.803,189.718c0-.864-.7-1.564-1.564-1.564s-1.564.7-1.564,1.564.7,1.564,1.564,1.564,1.564-.7,1.564-1.564Z"/>
      <path d="M113.898,185.652c.864,0,1.564-.7,1.564-1.564s-.7-1.564-1.564-1.564-1.564.7-1.564,1.564.7,1.564,1.564,1.564Z"/>
      <circle cx="113.377" cy="192.845" r="1.564"/>
      <path d="M122.656,200.039c.864,0,1.564-.7,1.564-1.564s-.7-1.564-1.564-1.564-1.564.7-1.564,1.564.7,1.564,1.564,1.564Z"/>
    </g>
    <g>
      <path d="M104.423,210.451c.864,0,1.564-.7,1.564-1.564s-.7-1.564-1.564-1.564-1.564.7-1.564,1.564.7,1.564,1.564,1.564Z"/>
      <path d="M112.763,204.821c.864,0,1.564-.7,1.564-1.564s-.7-1.564-1.564-1.564-1.564.7-1.564,1.564.7,1.564,1.564,1.564Z"/>
      <circle cx="113.285" cy="212.015" r="1.564"/>
      <path d="M104.006,219.209c.864,0,1.564-.7,1.564-1.564s-.7-1.564-1.564-1.564-1.564.7-1.564,1.564.7,1.564,1.564,1.564Z"/>
      <path d="M123.71,210.451c-.187,0-.354.082-.468.212l-8.498-2.428,2.283-1.915c.227.214.583.229.829.024.265-.222.3-.616.079-.881-.222-.265-.616-.3-.881-.079-.206.172-.272.447-.189.686l-6.797,5.702c.028-.097.057-.195.083-.292.387-1.424.633-2.8.754-4.205.234-2.727-.076-4.991-.325-6.81-.115-.839-.217-1.587-.256-2.274.046-.022.09-.049.131-.084.265-.222.3-.616.079-.881-.221-.265-.616-.3-.881-.079s-.3.616-.079.881c.118.142.286.217.457.223.042.685.143,1.426.256,2.253.247,1.805.555,4.051.324,6.745-.119,1.388-.363,2.746-.745,4.153-.041.152-.085.304-.13.457l-4.562-6.564,1.382-5.586c.019,0,.038.003.057.003.864,0,1.564-.7,1.564-1.564s-.7-1.564-1.564-1.564-1.564.7-1.564,1.564c0,.742.518,1.363,1.212,1.523l-1.312,5.301-1.525-2.193c.17-.25.269-.552.269-.877,0-.864-.7-1.564-1.564-1.564s-1.564.7-1.564,1.564.7,1.564,1.564,1.564c.428,0,.816-.173,1.099-.451l1.626,2.34v.005s.004.001.004.001l4.768,6.861c-.397,1.294-.91,2.62-1.532,3.953-1.62,3.47-5.141,5.565-8.551,6.822v-8.909c.099-.02.194-.064.277-.133.265-.222.3-.616.079-.881-.221-.265-.616-.3-.881-.079s-.3.616-.079.881c.084.1.192.167.309.201v9.028c-.941.334-1.869.606-2.742.826-2.227.561-4.343.855-5.913,1.009-.092-.894-.838-1.594-1.757-1.594s-1.665.7-1.757,1.594c-1.571-.154-3.686-.448-5.913-1.009-.873-.22-1.801-.492-2.742-.826v-9.028c.117-.033.225-.1.309-.201.222-.265.186-.66-.079-.881s-.66-.186-.881.079c-.222.265-.186.66.079.881.083.069.178.113.277.133v8.909c-3.411-1.257-6.932-3.351-8.551-6.822-.622-1.334-1.135-2.659-1.532-3.953l4.768-6.861h.005s-.001-.006-.001-.006l1.626-2.34c.282.279.67.451,1.099.451.864,0,1.564-.7,1.564-1.564s-.7-1.564-1.564-1.564-1.564.7-1.564,1.564c0,.325.099.627.269.877l-1.525,2.193-1.312-5.301c.694-.16,1.212-.78,1.212-1.523,0-.864-.7-1.564-1.564-1.564s-1.564.7-1.564,1.564.7,1.564,1.564,1.564c.019,0,.038-.002.057-.003l1.382,5.586-4.562,6.564c-.044-.153-.089-.305-.13-.457-.382-1.407-.626-2.766-.745-4.153-.231-2.694.077-4.94.324-6.745.113-.827.214-1.568.256-2.253.171-.006.339-.082.457-.223.222-.265.186-.66-.079-.881s-.66-.186-.881.079c-.222.265-.186.66.079.881.041.034.085.061.131.084-.039.686-.141,1.435-.256,2.274-.249,1.819-.559,4.083-.325,6.81.121,1.405.367,2.781.754,4.205.026.097.055.194.083.292l-6.797-5.702c.083-.239.017-.514-.189-.686-.265-.222-.66-.186-.881.079-.221.265-.186.66.079.881.245.205.601.19.829-.024l2.283,1.915-8.498,2.428c-.115-.129-.282-.212-.468-.212-.345,0-.625.28-.625.626s.28.626.625.626.626-.28.626-.626c0-.051-.007-.099-.018-.147l8.631-2.466,4.555,3.821c.402,1.315.922,2.661,1.554,4.016,2.164,4.637,7.606,6.865,11.79,7.918,2.252.567,4.389.862,5.973,1.017.06.926.822,1.66,1.763,1.66s1.703-.735,1.763-1.66c1.584-.155,3.721-.45,5.973-1.017,4.184-1.053,9.626-3.281,11.79-7.918.632-1.354,1.152-2.701,1.554-4.016l4.555-3.821,8.631,2.466c-.011.047-.018.096-.018.147,0,.345.28.626.626.626s.625-.28.625-.626-.28-.626-.625-.626Z"/>
      <path d="M74.813,208.887c0-.864-.7-1.564-1.564-1.564s-1.564.7-1.564,1.564.7,1.564,1.564,1.564,1.564-.7,1.564-1.564Z"/>
      <path d="M64.909,204.821c.864,0,1.564-.7,1.564-1.564s-.7-1.564-1.564-1.564-1.564.7-1.564,1.564.7,1.564,1.564,1.564Z"/>
      <circle cx="64.388" cy="212.015" r="1.564"/>
      <path d="M73.666,219.209c.864,0,1.564-.7,1.564-1.564s-.7-1.564-1.564-1.564-1.564.7-1.564,1.564.7,1.564,1.564,1.564Z"/>
    </g>
    <g>
      <path d="M202.402,208.321c.864,0,1.564-.7,1.564-1.564s-.7-1.564-1.564-1.564-1.564.7-1.564,1.564.7,1.564,1.564,1.564Z"/>
      <path d="M210.743,202.692c.864,0,1.564-.7,1.564-1.564s-.7-1.564-1.564-1.564-1.564.7-1.564,1.564.7,1.564,1.564,1.564Z"/>
      <circle cx="211.264" cy="209.885" r="1.564"/>
      <path d="M201.985,217.079c.864,0,1.564-.7,1.564-1.564s-.7-1.564-1.564-1.564-1.564.7-1.564,1.564.7,1.564,1.564,1.564Z"/>
      <path d="M221.689,208.321c-.187,0-.354.082-.468.212l-8.498-2.428,2.283-1.915c.227.214.583.229.829.024.265-.222.3-.616.079-.881-.222-.265-.616-.3-.881-.079-.206.172-.272.447-.189.686l-6.797,5.702c.028-.097.057-.195.083-.292.387-1.424.633-2.8.754-4.205.234-2.727-.076-4.991-.325-6.81-.115-.839-.217-1.587-.256-2.274.046-.022.09-.049.131-.084.265-.222.3-.616.079-.881-.221-.265-.616-.3-.881-.079s-.3.616-.079.881c.118.142.286.217.457.223.042.685.143,1.426.256,2.253.247,1.805.555,4.051.324,6.745-.119,1.388-.363,2.746-.745,4.153-.041.152-.085.304-.13.457l-4.562-6.564,1.382-5.586c.019,0,.038.003.057.003.864,0,1.564-.7,1.564-1.564s-.7-1.564-1.564-1.564-1.564.7-1.564,1.564c0,.742.518,1.363,1.212,1.523l-1.312,5.301-1.525-2.193c.17-.25.269-.552.269-.877,0-.864-.7-1.564-1.564-1.564s-1.564.7-1.564,1.564.7,1.564,1.564,1.564c.428,0,.816-.173,1.099-.451l1.626,2.34v.005s.004.001.004.001l4.768,6.861c-.397,1.294-.91,2.62-1.532,3.953-1.62,3.47-5.141,5.565-8.551,6.822v-8.909c.099-.02.194-.064.277-.133.265-.222.3-.616.079-.881-.221-.265-.616-.3-.881-.079s-.3.616-.079.881c.084.1.192.167.309.201v9.028c-.941.334-1.869.606-2.742.826-2.227.561-4.343.855-5.913,1.009-.092-.894-.838-1.594-1.757-1.594s-1.665.7-1.757,1.594c-1.571-.154-3.686-.448-5.913-1.009-.873-.22-1.801-.492-2.742-.826v-9.028c.117-.033.225-.1.309-.201.222-.265.186-.66-.079-.881s-.66-.186-.881.079c-.222.265-.186.66.079.881.083.069.178.113.277.133v8.909c-3.411-1.257-6.932-3.351-8.551-6.822-.622-1.334-1.135-2.659-1.532-3.953l4.768-6.861h.005s-.001-.006-.001-.006l1.626-2.34c.282.279.67.451,1.099.451.864,0,1.564-.7,1.564-1.564s-.7-1.564-1.564-1.564-1.564.7-1.564,1.564c0,.325.099.627.269.877l-1.525,2.193-1.312-5.301c.694-.16,1.212-.78,1.212-1.523,0-.864-.7-1.564-1.564-1.564s-1.564.7-1.564,1.564.7,1.564,1.564,1.564c.019,0,.038-.002.057-.003l1.382,5.586-4.562,6.564c-.044-.153-.089-.305-.13-.457-.382-1.407-.626-2.766-.745-4.153-.231-2.694.077-4.94.324-6.745.113-.827.214-1.568.256-2.253.171-.006.339-.082.457-.223.222-.265.186-.66-.079-.881s-.66-.186-.881.079c-.222.265-.186.66.079.881.041.034.085.061.131.084-.039.686-.141,1.435-.256,2.274-.249,1.819-.559,4.083-.325,6.81.121,1.405.367,2.781.754,4.205.026.097.055.194.083.292l-6.797-5.702c.083-.239.017-.514-.189-.686-.265-.222-.66-.186-.881.079-.221.265-.186.66.079.881.245.205.601.19.829-.024l2.283,1.915-8.498,2.428c-.115-.129-.282-.212-.468-.212-.345,0-.625.28-.625.626s.28.626.625.626.626-.28.626-.626c0-.051-.007-.099-.018-.147l8.631-2.466,4.555,3.821c.402,1.315.922,2.661,1.554,4.016,2.164,4.637,7.606,6.865,11.79,7.918,2.252.567,4.389.862,5.973,1.017.06.926.822,1.66,1.763,1.66s1.703-.735,1.763-1.66c1.584-.155,3.721-.45,5.973-1.017,4.184-1.053,9.626-3.281,11.79-7.918.632-1.354,1.152-2.701,1.554-4.016l4.555-3.821,8.631,2.466c-.011.047-.018.096-.018.147,0,.345.28.626.626.626s.625-.28.625-.626-.28-.626-.625-.626Z"/>
      <path d="M172.792,206.757c0-.864-.7-1.564-1.564-1.564s-1.564.7-1.564,1.564.7,1.564,1.564,1.564,1.564-.7,1.564-1.564Z"/>
      <path d="M162.888,202.692c.864,0,1.564-.7,1.564-1.564s-.7-1.564-1.564-1.564-1.564.7-1.564,1.564.7,1.564,1.564,1.564Z"/>
      <circle cx="162.367" cy="209.885" r="1.564"/>
      <path d="M171.645,217.079c.864,0,1.564-.7,1.564-1.564s-.7-1.564-1.564-1.564-1.564.7-1.564,1.564.7,1.564,1.564,1.564Z"/>
    </g>
    <g>
      <path d="M154.122,402.86c.864,0,1.564-.7,1.564-1.564s-.7-1.564-1.564-1.564-1.564.7-1.564,1.564.7,1.564,1.564,1.564Z"/>
      <path d="M162.463,397.23c.864,0,1.564-.7,1.564-1.564s-.7-1.564-1.564-1.564-1.564.7-1.564,1.564.7,1.564,1.564,1.564Z"/>
      <circle cx="162.984" cy="404.423" r="1.564"/>
      <path d="M153.706,411.617c.864,0,1.564-.7,1.564-1.564s-.7-1.564-1.564-1.564-1.564.7-1.564,1.564.7,1.564,1.564,1.564Z"/>
      <path d="M173.41,402.86c-.187,0-.354.082-.468.212l-8.498-2.428,2.283-1.915c.227.214.583.229.829.024.265-.222.3-.616.079-.881-.222-.265-.616-.3-.881-.079-.206.172-.272.447-.189.686l-6.797,5.702c.028-.097.057-.195.083-.292.387-1.424.633-2.8.754-4.205.234-2.727-.076-4.991-.325-6.81-.115-.839-.217-1.587-.256-2.274.046-.022.09-.049.131-.084.265-.222.3-.616.079-.881-.221-.265-.616-.3-.881-.079s-.3.616-.079.881c.118.142.286.217.457.223.042.685.143,1.426.256,2.253.247,1.805.555,4.051.324,6.745-.119,1.388-.363,2.746-.745,4.153-.041.152-.085.304-.13.457l-4.562-6.564,1.382-5.586c.019,0,.038.003.057.003.864,0,1.564-.7,1.564-1.564s-.7-1.564-1.564-1.564-1.564.7-1.564,1.564c0,.742.518,1.363,1.212,1.523l-1.312,5.301-1.525-2.193c.17-.25.269-.552.269-.877,0-.864-.7-1.564-1.564-1.564s-1.564.7-1.564,1.564.7,1.564,1.564,1.564c.428,0,.816-.173,1.099-.451l1.626,2.34v.005s.004.001.004.001l4.768,6.861c-.397,1.294-.91,2.62-1.532,3.953-1.62,3.47-5.141,5.565-8.551,6.822v-8.909c.099-.02.194-.064.277-.133.265-.222.3-.616.079-.881-.221-.265-.616-.3-.881-.079s-.3.616-.079.881c.084.1.192.167.309.201v9.028c-.941.334-1.869.606-2.742.826-2.227.561-4.343.855-5.913,1.009-.092-.894-.838-1.594-1.757-1.594s-1.665.7-1.757,1.594c-1.571-.154-3.686-.448-5.913-1.009-.873-.22-1.801-.492-2.742-.826v-9.028c.117-.033.225-.1.309-.201.222-.265.186-.66-.079-.881s-.66-.186-.881.079c-.222.265-.186.66.079.881.083.069.178.113.277.133v8.909c-3.411-1.257-6.932-3.351-8.551-6.822-.622-1.334-1.135-2.659-1.532-3.953l4.768-6.861h.005s-.001-.006-.001-.006l1.626-2.34c.282.279.67.451,1.099.451.864,0,1.564-.7,1.564-1.564s-.7-1.564-1.564-1.564-1.564.7-1.564,1.564c0,.325.099.627.269.877l-1.525,2.193-1.312-5.301c.694-.16,1.212-.78,1.212-1.523,0-.864-.7-1.564-1.564-1.564s-1.564.7-1.564,1.564.7,1.564,1.564,1.564c.019,0,.038-.002.057-.003l1.382,5.586-4.562,6.564c-.044-.153-.089-.305-.13-.457-.382-1.407-.626-2.766-.745-4.153-.231-2.694.077-4.94.324-6.745.113-.827.214-1.568.256-2.253.171-.006.339-.082.457-.223.222-.265.186-.66-.079-.881s-.66-.186-.881.079c-.222.265-.186.66.079.881.041.034.085.061.131.084-.039.686-.141,1.435-.256,2.274-.249,1.819-.559,4.083-.325,6.81.121,1.405.367,2.781.754,4.205.026.097.055.194.083.292l-6.797-5.702c.083-.239.017-.514-.189-.686-.265-.222-.66-.186-.881.079-.221.265-.186.66.079.881.245.205.601.19.829-.024l2.283,1.915-8.498,2.428c-.115-.129-.282-.212-.468-.212-.345,0-.625.28-.625.626s.28.626.625.626.626-.28.626-.626c0-.051-.007-.099-.018-.147l8.631-2.466,4.555,3.821c.402,1.315.922,2.661,1.554,4.016,2.164,4.637,7.606,6.865,11.79,7.918,2.252.567,4.389.862,5.973,1.017.06.926.822,1.66,1.763,1.66s1.703-.735,1.763-1.66c1.584-.155,3.721-.45,5.973-1.017,4.184-1.053,9.626-3.281,11.79-7.918.632-1.354,1.152-2.701,1.554-4.016l4.555-3.821,8.631,2.466c-.011.047-.018.096-.018.147,0,.345.28.626.626.626s.625-.28.625-.626-.28-.626-.625-.626Z"/>
      <path d="M124.513,401.296c0-.864-.7-1.564-1.564-1.564s-1.564.7-1.564,1.564.7,1.564,1.564,1.564,1.564-.7,1.564-1.564Z"/>
      <path d="M114.608,397.23c.864,0,1.564-.7,1.564-1.564s-.7-1.564-1.564-1.564-1.564.7-1.564,1.564.7,1.564,1.564,1.564Z"/>
      <circle cx="114.087" cy="404.423" r="1.564"/>
      <path d="M123.366,411.617c.864,0,1.564-.7,1.564-1.564s-.7-1.564-1.564-1.564-1.564.7-1.564,1.564.7,1.564,1.564,1.564Z"/>
    </g>
  </g>
  <g id="Flores">
    <g>
      <g>
        <polygon points="161.497 71.316 137.949 94.864 137.949 87.568 137.949 87.488 137.949 7.938 137.56 7.938 137.56 87.099 114.046 63.585 113.771 63.86 137.56 87.649 137.56 130.205 137.594 130.205 137.594 137.936 137.983 137.936 137.983 95.38 161.772 71.591 161.497 71.316" fill="#0c0d0b"/>
        <circle cx="113.754" cy="63.071" r="6.789" fill="#0c0d0b"/>
        <circle cx="137.755" cy="7.938" r="8.486" fill="#0c0d0b"/>
        <circle cx="149.275" cy="34.819" r="8.486" fill="#0c0d0b"/>
        <g>
          <circle cx="159.148" cy="74.704" r="4.526" fill="#0c0d0b"/>
          <circle cx="160.864" cy="63.551" r="4.526" fill="#0c0d0b"/>
          <circle cx="172.179" cy="74.454" r="6.789" fill="#0c0d0b"/>
          <circle cx="175.607" cy="57.174" r="8.486" fill="#0c0d0b"/>
        </g>
        <g>
          <circle cx="137.342" cy="107.756" r="4.526" fill="#0c0d0b"/>
          <circle cx="139.058" cy="96.604" r="4.526" fill="#0c0d0b"/>
          <circle cx="150.372" cy="107.507" r="6.789" fill="#0c0d0b"/>
          <circle cx="153.801" cy="90.226" r="8.486" fill="#0c0d0b"/>
        </g>
        <g>
          <circle cx="133.365" cy="71.138" r="4.526" fill="#0c0d0b"/>
          <circle cx="135.08" cy="59.985" r="4.526" fill="#0c0d0b"/>
          <circle cx="146.395" cy="70.889" r="6.789" fill="#0c0d0b"/>
          <circle cx="149.824" cy="53.608" r="8.486" fill="#0c0d0b"/>
        </g>
        <g>
          <circle cx="130.743" cy="34.52" r="4.526" fill="#0c0d0b"/>
          <circle cx="129.027" cy="23.367" r="4.526" fill="#0c0d0b"/>
          <circle cx="117.713" cy="34.27" r="6.789" fill="#0c0d0b"/>
          <circle cx="114.284" cy="16.99" r="8.486" fill="#0c0d0b"/>
        </g>
        <circle cx="127.863" cy="99.939" r="4.526" fill="#0c0d0b"/>
        <circle cx="126.147" cy="88.786" r="4.526" fill="#0c0d0b"/>
        <circle cx="124.52" cy="50.385" r="4.526" fill="#0c0d0b"/>
        <circle cx="148.658" cy="18.841" r="4.526" fill="#0c0d0b"/>
        <circle cx="165.39" cy="45.174" r="4.526" fill="#0c0d0b"/>
        <circle cx="146.189" cy="122.936" r="4.526" fill="#0c0d0b"/>
        <circle cx="137.275" cy="136.925" r="4.526" fill="#0c0d0b"/>
        <circle cx="129.32" cy="118.41" r="4.526" fill="#0c0d0b"/>
        <circle cx="121.64" cy="111.141" r="4.526" fill="#0c0d0b"/>
        <circle cx="108.062" cy="50.385" r="4.526" fill="#0c0d0b"/>
        <circle cx="114.833" cy="99.69" r="6.789" fill="#0c0d0b"/>
        <circle cx="111.404" cy="82.409" r="8.486" fill="#0c0d0b"/>
      </g>
      <circle cx="137.826" cy="7.972" r="5.68" fill="#cb1e1a"/>
      <circle cx="114.396" cy="17.202" r="5.68" fill="#cb1e1a"/>
      <circle cx="149.186" cy="34.952" r="5.68" fill="#cb1e1a"/>
      <circle cx="111.556" cy="82.521" r="5.68" fill="#cb1e1a"/>
      <circle cx="154.156" cy="90.331" r="5.68" fill="#cb1e1a"/>
    </g>
    <g>
      <g>
        <polygon points="236.121 97.863 224.347 109.637 224.347 105.99 224.347 105.95 224.347 66.175 224.152 66.175 224.152 105.755 212.395 93.998 212.258 94.135 224.152 106.03 224.152 127.308 224.169 127.308 224.169 131.173 224.363 131.173 224.363 109.895 236.258 98.001 236.121 97.863" fill="#0c0d0b"/>
        <circle cx="212.249" cy="93.741" r="3.394" fill="#0c0d0b"/>
        <circle cx="224.249" cy="66.175" r="4.243" fill="#0c0d0b"/>
        <circle cx="230.01" cy="79.615" r="4.243" fill="#0c0d0b"/>
        <g>
          <circle cx="234.946" cy="99.557" r="2.263" fill="#0c0d0b"/>
          <circle cx="235.804" cy="93.981" r="2.263" fill="#0c0d0b"/>
          <circle cx="241.461" cy="99.433" r="3.394" fill="#0c0d0b"/>
          <circle cx="243.176" cy="90.792" r="4.243" fill="#0c0d0b"/>
        </g>
        <g>
          <circle cx="224.043" cy="116.084" r="2.263" fill="#0c0d0b"/>
          <circle cx="224.901" cy="110.507" r="2.263" fill="#0c0d0b"/>
          <circle cx="230.558" cy="115.959" r="3.394" fill="#0c0d0b"/>
          <circle cx="232.272" cy="107.319" r="4.243" fill="#0c0d0b"/>
        </g>
        <g>
          <circle cx="222.054" cy="97.775" r="2.263" fill="#0c0d0b"/>
          <circle cx="222.912" cy="92.198" r="2.263" fill="#0c0d0b"/>
          <circle cx="228.57" cy="97.65" r="3.394" fill="#0c0d0b"/>
          <circle cx="230.284" cy="89.01" r="4.243" fill="#0c0d0b"/>
        </g>
        <g>
          <circle cx="220.744" cy="79.465" r="2.263" fill="#0c0d0b"/>
          <circle cx="219.886" cy="73.889" r="2.263" fill="#0c0d0b"/>
          <circle cx="214.228" cy="79.341" r="3.394" fill="#0c0d0b"/>
          <circle cx="212.514" cy="70.7" r="4.243" fill="#0c0d0b"/>
        </g>
        <circle cx="219.304" cy="112.175" r="2.263" fill="#0c0d0b"/>
        <circle cx="218.446" cy="106.599" r="2.263" fill="#0c0d0b"/>
        <circle cx="217.632" cy="87.398" r="2.263" fill="#0c0d0b"/>
        <circle cx="229.701" cy="71.626" r="2.263" fill="#0c0d0b"/>
        <circle cx="238.067" cy="84.792" r="2.263" fill="#0c0d0b"/>
        <circle cx="228.467" cy="123.673" r="2.263" fill="#0c0d0b"/>
        <circle cx="224.009" cy="130.668" r="2.263" fill="#0c0d0b"/>
        <circle cx="220.032" cy="121.411" r="2.263" fill="#0c0d0b"/>
        <circle cx="216.192" cy="117.776" r="2.263" fill="#0c0d0b"/>
        <circle cx="209.403" cy="87.398" r="2.263" fill="#0c0d0b"/>
        <circle cx="212.788" cy="112.05" r="3.394" fill="#0c0d0b"/>
        <circle cx="211.074" cy="103.41" r="4.243" fill="#0c0d0b"/>
      </g>
      <circle cx="224.285" cy="66.192" r="2.84" fill="#cb1e1a"/>
      <circle cx="212.57" cy="70.806" r="2.84" fill="#cb1e1a"/>
      <circle cx="229.965" cy="79.681" r="2.84" fill="#cb1e1a"/>
      <circle cx="211.15" cy="103.466" r="2.84" fill="#cb1e1a"/>
      <circle cx="232.45" cy="107.371" r="2.84" fill="#cb1e1a"/>
    </g>
    <g>
      <g>
        <polygon points="63.912 97.863 52.138 109.637 52.138 105.99 52.138 105.95 52.138 66.175 51.944 66.175 51.944 105.755 40.187 93.998 40.049 94.135 51.944 106.03 51.944 127.308 51.961 127.308 51.961 131.173 52.155 131.173 52.155 109.895 64.05 98.001 63.912 97.863" fill="#0c0d0b"/>
        <circle cx="40.041" cy="93.741" r="3.394" fill="#0c0d0b"/>
        <circle cx="52.041" cy="66.175" r="4.243" fill="#0c0d0b"/>
        <circle cx="57.801" cy="79.615" r="4.243" fill="#0c0d0b"/>
        <g>
          <circle cx="62.738" cy="99.557" r="2.263" fill="#0c0d0b"/>
          <circle cx="63.596" cy="93.981" r="2.263" fill="#0c0d0b"/>
          <circle cx="69.253" cy="99.433" r="3.394" fill="#0c0d0b"/>
          <circle cx="70.967" cy="90.792" r="4.243" fill="#0c0d0b"/>
        </g>
        <g>
          <circle cx="51.835" cy="116.084" r="2.263" fill="#0c0d0b"/>
          <circle cx="52.692" cy="110.507" r="2.263" fill="#0c0d0b"/>
          <circle cx="58.35" cy="115.959" r="3.394" fill="#0c0d0b"/>
          <circle cx="60.064" cy="107.319" r="4.243" fill="#0c0d0b"/>
        </g>
        <g>
          <circle cx="49.846" cy="97.775" r="2.263" fill="#0c0d0b"/>
          <circle cx="50.704" cy="92.198" r="2.263" fill="#0c0d0b"/>
          <circle cx="56.361" cy="97.65" r="3.394" fill="#0c0d0b"/>
          <circle cx="58.075" cy="89.01" r="4.243" fill="#0c0d0b"/>
        </g>
        <g>
          <circle cx="48.535" cy="79.465" r="2.263" fill="#0c0d0b"/>
          <circle cx="47.677" cy="73.889" r="2.263" fill="#0c0d0b"/>
          <circle cx="42.02" cy="79.341" r="3.394" fill="#0c0d0b"/>
          <circle cx="40.306" cy="70.7" r="4.243" fill="#0c0d0b"/>
        </g>
        <circle cx="47.095" cy="112.175" r="2.263" fill="#0c0d0b"/>
        <circle cx="46.237" cy="106.599" r="2.263" fill="#0c0d0b"/>
        <circle cx="45.424" cy="87.398" r="2.263" fill="#0c0d0b"/>
        <circle cx="57.493" cy="71.626" r="2.263" fill="#0c0d0b"/>
        <circle cx="65.859" cy="84.792" r="2.263" fill="#0c0d0b"/>
        <circle cx="56.258" cy="123.673" r="2.263" fill="#0c0d0b"/>
        <circle cx="51.801" cy="130.668" r="2.263" fill="#0c0d0b"/>
        <circle cx="47.824" cy="121.411" r="2.263" fill="#0c0d0b"/>
        <circle cx="43.984" cy="117.776" r="2.263" fill="#0c0d0b"/>
        <circle cx="37.195" cy="87.398" r="2.263" fill="#0c0d0b"/>
        <circle cx="40.58" cy="112.05" r="3.394" fill="#0c0d0b"/>
        <circle cx="38.866" cy="103.41" r="4.243" fill="#0c0d0b"/>
      </g>
      <circle cx="52.076" cy="66.192" r="2.84" fill="#cb1e1a"/>
      <circle cx="40.362" cy="70.806" r="2.84" fill="#cb1e1a"/>
      <circle cx="57.756" cy="79.681" r="2.84" fill="#cb1e1a"/>
      <circle cx="38.942" cy="103.466" r="2.84" fill="#cb1e1a"/>
      <circle cx="60.241" cy="107.371" r="2.84" fill="#cb1e1a"/>
    </g>
    <circle cx="219.605" cy="267.12" r="10.65" fill="#e53320"/>
    <circle cx="56.756" cy="268.54" r="10.65" fill="#e53320"/>
  </g>
</svg>