<?xml version="1.0" encoding="UTF-8"?>
<svg xmlns="http://www.w3.org/2000/svg" width="275.651" height="450" viewBox="0 0 275.651 450">
  <g id="Tallo">
    <g>
      <line x1="137.841" y1="450" x2="137.841" y2="18.625" fill="none" stroke="#0c0d0b" stroke-miterlimit="10" stroke-width="2.446"/>
      <g>
        <polygon points="137.841 442.11 133.818 441.157 137.841 440.204 137.841 442.11 137.841 442.11" fill="#0c0d0b"/>
        <polygon points="137.841 447.287 141.864 446.334 137.841 445.381 137.841 447.287 137.841 447.287" fill="#0c0d0b"/>
      </g>
      <g>
        <polygon points="137.841 426.363 133.818 425.41 137.841 424.457 137.841 426.363 137.841 426.363" fill="#0c0d0b"/>
        <polygon points="137.841 431.54 141.864 430.587 137.841 429.634 137.841 431.54 137.841 431.54" fill="#0c0d0b"/>
      </g>
      <g>
        <polygon points="137.841 410.608 133.818 409.655 137.841 408.702 137.841 410.608 137.841 410.608" fill="#0c0d0b"/>
        <polygon points="137.841 415.785 141.864 414.832 137.841 413.879 137.841 415.785 137.841 415.785" fill="#0c0d0b"/>
      </g>
      <g>
        <polygon points="137.841 394.845 133.818 393.892 137.841 392.939 137.841 394.845 137.841 394.845" fill="#0c0d0b"/>
        <polygon points="137.841 400.022 141.864 399.069 137.841 398.116 137.841 400.022 137.841 400.022" fill="#0c0d0b"/>
      </g>
      <g>
        <polygon points="137.841 379.115 133.818 378.162 137.841 377.209 137.841 379.115 137.841 379.115" fill="#0c0d0b"/>
        <polygon points="137.841 384.292 141.864 383.339 137.841 382.386 137.841 384.292 137.841 384.292" fill="#0c0d0b"/>
      </g>
      <g>
        <polygon points="137.841 363.331 133.818 362.378 137.841 361.425 137.841 363.331 137.841 363.331" fill="#0c0d0b"/>
        <polygon points="137.841 368.507 141.864 367.554 137.841 366.601 137.841 368.507 137.841 368.507" fill="#0c0d0b"/>
      </g>
      <g>
        <polygon points="137.841 347.651 133.818 346.698 137.841 345.745 137.841 347.651 137.841 347.651" fill="#0c0d0b"/>
        <polygon points="137.841 352.828 141.864 351.875 137.841 350.922 137.841 352.828 137.841 352.828" fill="#0c0d0b"/>
      </g>
      <g>
        <polygon points="137.841 331.828 133.818 330.875 137.841 329.922 137.841 331.828 137.841 331.828" fill="#0c0d0b"/>
        <polygon points="137.841 337.005 141.864 336.052 137.841 335.099 137.841 337.005 137.841 337.005" fill="#0c0d0b"/>
      </g>
      <g>
        <polygon points="137.841 316.118 133.818 315.165 137.841 314.212 137.841 316.118 137.841 316.118" fill="#0c0d0b"/>
        <polygon points="137.841 321.295 141.864 320.342 137.841 319.389 137.841 321.295 137.841 321.295" fill="#0c0d0b"/>
      </g>
      <g>
        <polygon points="137.841 300.389 133.818 299.436 137.841 298.483 137.841 300.389 137.841 300.389" fill="#0c0d0b"/>
        <polygon points="137.841 305.566 141.864 304.613 137.841 303.66 137.841 305.566 137.841 305.566" fill="#0c0d0b"/>
      </g>
      <g>
        <polygon points="137.841 284.623 133.818 283.67 137.841 282.717 137.841 284.623 137.841 284.623" fill="#0c0d0b"/>
        <polygon points="137.841 289.8 141.864 288.847 137.841 287.894 137.841 289.8 137.841 289.8" fill="#0c0d0b"/>
      </g>
      <g>
        <polygon points="137.841 268.916 133.818 267.963 137.841 267.01 137.841 268.916 137.841 268.916" fill="#0c0d0b"/>
        <polygon points="137.841 274.093 141.864 273.14 137.841 272.187 137.841 274.093 137.841 274.093" fill="#0c0d0b"/>
      </g>
      <g>
        <polygon points="137.841 253.095 133.818 252.142 137.841 251.189 137.841 253.095 137.841 253.095" fill="#0c0d0b"/>
        <polygon points="137.841 258.272 141.864 257.319 137.841 256.366 137.841 258.272 137.841 258.272" fill="#0c0d0b"/>
      </g>
      <g>
        <polygon points="137.841 237.354 133.818 236.401 137.841 235.448 137.841 237.354 137.841 237.354" fill="#0c0d0b"/>
        <polygon points="137.841 242.53 141.864 241.577 137.841 240.624 137.841 242.53 137.841 242.53" fill="#0c0d0b"/>
      </g>
      <g>
        <polygon points="137.841 221.685 133.818 220.732 137.841 219.779 137.841 221.685 137.841 221.685" fill="#0c0d0b"/>
        <polygon points="137.841 226.861 141.864 225.908 137.841 224.955 137.841 226.861 137.841 226.861" fill="#0c0d0b"/>
      </g>
      <g>
        <polygon points="137.841 205.92 133.818 204.967 137.841 204.014 137.841 205.92 137.841 205.92" fill="#0c0d0b"/>
        <polygon points="137.841 211.096 141.864 210.143 137.841 209.19 137.841 211.096 137.841 211.096" fill="#0c0d0b"/>
      </g>
      <g>
        <polygon points="137.841 190.13 133.818 189.177 137.841 188.224 137.841 190.13 137.841 190.13" fill="#0c0d0b"/>
        <polygon points="137.841 195.306 141.864 194.353 137.841 193.4 137.841 195.306 137.841 195.306" fill="#0c0d0b"/>
      </g>
      <g>
        <polygon points="137.841 174.404 133.818 173.451 137.841 172.498 137.841 174.404 137.841 174.404" fill="#0c0d0b"/>
        <polygon points="137.841 179.58 141.864 178.627 137.841 177.674 137.841 179.58 137.841 179.58" fill="#0c0d0b"/>
      </g>
      <g>
        <polygon points="137.841 158.691 133.818 157.738 137.841 156.785 137.841 158.691 137.841 158.691" fill="#0c0d0b"/>
        <polygon points="137.841 163.868 141.864 162.915 137.841 161.962 137.841 163.868 137.841 163.868" fill="#0c0d0b"/>
      </g>
      <g>
        <polygon points="137.841 142.949 133.818 141.996 137.841 141.043 137.841 142.949 137.841 142.949" fill="#0c0d0b"/>
        <polygon points="137.841 148.125 141.864 147.172 137.841 146.219 137.841 148.125 137.841 148.125" fill="#0c0d0b"/>
      </g>
      <g>
        <polygon points="137.841 127.185 133.818 126.232 137.841 125.279 137.841 127.185 137.841 127.185" fill="#0c0d0b"/>
        <polygon points="137.841 132.361 141.864 131.408 137.841 130.455 137.841 132.361 137.841 132.361" fill="#0c0d0b"/>
      </g>
      <g>
        <polygon points="137.841 111.5 133.818 110.547 137.841 109.594 137.841 111.5 137.841 111.5" fill="#0c0d0b"/>
        <polygon points="137.841 116.676 141.864 115.723 137.841 114.77 137.841 116.676 137.841 116.676" fill="#0c0d0b"/>
      </g>
      <g>
        <polygon points="137.841 95.67 133.818 94.717 137.841 93.764 137.841 95.67 137.841 95.67" fill="#0c0d0b"/>
        <polygon points="137.841 100.847 141.864 99.894 137.841 98.941 137.841 100.847 137.841 100.847" fill="#0c0d0b"/>
      </g>
      <g>
        <polygon points="137.841 79.956 133.818 79.003 137.841 78.05 137.841 79.956 137.841 79.956" fill="#0c0d0b"/>
        <polygon points="137.841 85.133 141.864 84.18 137.841 83.227 137.841 85.133 137.841 85.133" fill="#0c0d0b"/>
      </g>
      <g>
        <polygon points="137.841 64.191 133.818 63.238 137.841 62.285 137.841 64.191 137.841 64.191" fill="#0c0d0b"/>
        <polygon points="137.841 69.367 141.864 68.414 137.841 67.461 137.841 69.367 137.841 69.367" fill="#0c0d0b"/>
      </g>
      <g>
        <polygon points="137.841 48.457 133.818 47.504 137.841 46.551 137.841 48.457 137.841 48.457" fill="#0c0d0b"/>
        <polygon points="137.841 53.634 141.864 52.681 137.841 51.728 137.841 53.634 137.841 53.634" fill="#0c0d0b"/>
      </g>
      <g>
        <polygon points="137.841 32.708 133.818 31.755 137.841 30.802 137.841 32.708 137.841 32.708" fill="#0c0d0b"/>
        <polygon points="137.841 37.885 141.864 36.932 137.841 35.979 137.841 37.885 137.841 37.885" fill="#0c0d0b"/>
      </g>
      <g>
        <polygon points="137.841 16.99 133.818 16.037 137.841 15.084 137.841 16.99 137.841 16.99" fill="#0c0d0b"/>
        <polygon points="137.841 22.166 141.864 21.213 137.841 20.26 137.841 22.166 137.841 22.166" fill="#0c0d0b"/>
      </g>
    </g>
  </g>
  <g id="Hojas">
    <path d="M176.075,392.429c-7.565-1.009-15.405.593-21.988,4.325,0,0-.338.192-.338.192-.866.489-1.458,1.183-1.925,2.113-.624,1.258-.92,2.76-1.148,4.237-.241,1.58-.425,3.393-.75,4.926-.356,1.66-.898,3.324-2.164,4.37l-9.962,5.701-9.779-5.596c-1.361-1.036-1.928-2.757-2.296-4.474-.324-1.533-.509-3.346-.75-4.926-.228-1.477-.523-2.979-1.148-4.237-.467-.93-1.059-1.625-1.925-2.113,0,0-.338-.192-.338-.192-6.582-3.732-14.422-5.334-21.988-4.325-1.635.225-3.303.543-4.888,1.074.332,1.639.891,3.242,1.514,4.771,2.909,7.056,8.216,13.045,14.739,16.879,0,0,.336.197.336.197.856.506,1.754.671,2.793.61,1.401-.087,2.851-.583,4.243-1.125,1.489-.581,3.152-1.328,4.641-1.814,1.536-.497,3.158-.849,4.637-.389l10.205,5.84.005-.009.005.009,10.136-5.801c1.51-.517,3.179-.16,4.756.35,1.489.486,3.152,1.232,4.641,1.814,1.392.542,2.842,1.037,4.243,1.125,1.039.061,1.937-.104,2.793-.61,0,0,.336-.197.336-.197,6.523-3.834,11.831-9.823,14.739-16.879.623-1.528,1.182-3.132,1.514-4.771-1.586-.532-3.253-.849-4.888-1.074Z" fill="#0c0d0b"/>
    <g>
      <path d="M166.236,362.404c1.574,0,2.85-1.276,2.85-2.85s-1.276-2.85-2.85-2.85-2.85,1.276-2.85,2.85,1.276,2.85,2.85,2.85Z"/>
      <path d="M181.439,352.142c1.574,0,2.85-1.276,2.85-2.85s-1.276-2.85-2.85-2.85-2.85,1.276-2.85,2.85,1.276,2.85,2.85,2.85Z"/>
      <circle cx="182.389" cy="365.254" r="2.85"/>
      <path d="M165.476,378.366c1.574,0,2.85-1.276,2.85-2.85s-1.276-2.85-2.85-2.85-2.85,1.276-2.85,2.85,1.276,2.85,2.85,2.85Z"/>
      <path d="M201.392,362.404c-.34,0-.644.15-.853.386l-15.489-4.426,4.161-3.49c.414.39,1.063.418,1.511.044.483-.404.548-1.123.144-1.606-.404-.483-1.123-.548-1.606-.144-.375.313-.496.815-.344,1.251l-12.39,10.393c.05-.177.103-.355.151-.531.705-2.596,1.154-5.103,1.374-7.665.427-4.97-.139-9.097-.593-12.413-.21-1.529-.395-2.893-.467-4.144.084-.04.164-.09.239-.152.483-.404.548-1.123.144-1.606-.404-.483-1.123-.548-1.606-.144s-.548,1.123-.144,1.606c.216.258.522.396.833.407.076,1.248.26,2.599.467,4.106.451,3.289,1.012,7.384.59,12.294-.217,2.529-.661,5.005-1.357,7.57-.075.276-.156.554-.237.833l-8.316-11.965,2.52-10.181c.035.001.069.005.104.005,1.574,0,2.85-1.276,2.85-2.85s-1.276-2.85-2.85-2.85-2.85,1.276-2.85,2.85c0,1.353.944,2.484,2.209,2.775l-2.391,9.662-2.779-3.998c.309-.456.49-1.006.49-1.598,0-1.574-1.276-2.85-2.85-2.85s-2.85,1.276-2.85,2.85,1.276,2.85,2.85,2.85c.781,0,1.488-.314,2.002-.823l2.964,4.265-.002.009.01.002,8.691,12.505c-.724,2.359-1.659,4.775-2.793,7.206-2.952,6.326-9.37,10.143-15.587,12.434v-16.239c.18-.036.354-.117.504-.243.483-.404.548-1.123.144-1.606-.404-.483-1.123-.548-1.606-.144s-.548,1.123-.144,1.606c.153.183.35.305.563.366v16.455c-1.715.609-3.407,1.105-4.997,1.506-4.059,1.022-7.915,1.558-10.778,1.839-.168-1.629-1.528-2.905-3.202-2.905s-3.034,1.276-3.202,2.905c-2.863-.281-6.719-.817-10.778-1.839-1.59-.4-3.282-.896-4.997-1.506v-16.455c.213-.06.411-.183.563-.366.404-.483.339-1.202-.144-1.606s-1.202-.339-1.606.144c-.404.483-.339,1.202.144,1.606.151.126.324.206.504.243v16.239c-6.217-2.291-12.635-6.109-15.587-12.434-1.134-2.431-2.069-4.848-2.793-7.206l8.691-12.505.01-.002-.002-.009,2.964-4.265c.515.508,1.222.823,2.002.823,1.574,0,2.85-1.276,2.85-2.85s-1.276-2.85-2.85-2.85-2.85,1.276-2.85,2.85c0,.592.181,1.143.49,1.598l-2.779,3.998-2.391-9.662c1.265-.291,2.209-1.422,2.209-2.775,0-1.574-1.276-2.85-2.85-2.85s-2.85,1.276-2.85,2.85,1.276,2.85,2.85,2.85c.035,0,.069-.004.104-.005l2.52,10.181-8.316,11.965c-.081-.278-.162-.556-.237-.833-.696-2.565-1.14-5.041-1.357-7.57-.421-4.91.139-9.004.59-12.294.207-1.508.391-2.858.467-4.106.312-.011.618-.149.833-.407.404-.483.339-1.202-.144-1.606s-1.202-.339-1.606.144c-.404.483-.339,1.202.144,1.606.074.062.155.112.239.152-.072,1.251-.257,2.615-.467,4.144-.454,3.316-1.02,7.443-.593,12.413.22,2.562.669,5.069,1.374,7.665.048.176.101.354.151.531l-12.39-10.393c.152-.435.03-.938-.344-1.251-.483-.404-1.202-.339-1.606.144-.404.483-.339,1.202.144,1.606.447.374,1.096.345,1.511-.044l4.161,3.49-15.489,4.426c-.209-.236-.513-.386-.853-.386-.63,0-1.14.51-1.14,1.14s.51,1.14,1.14,1.14,1.14-.51,1.14-1.14c0-.092-.012-.181-.033-.267l15.733-4.495,8.302,6.964c.733,2.396,1.681,4.851,2.833,7.319,3.944,8.452,13.863,12.514,21.49,14.432,4.105,1.033,8,1.571,10.887,1.853.11,1.688,1.499,3.027,3.214,3.027s3.105-1.339,3.214-3.027c2.887-.282,6.782-.82,10.887-1.853,7.626-1.919,17.545-5.98,21.49-14.432,1.152-2.468,2.1-4.923,2.833-7.319l8.302-6.964,15.733,4.495c-.021.086-.033.175-.033.267,0,.63.511,1.14,1.14,1.14s1.14-.51,1.14-1.14-.51-1.14-1.14-1.14Z"/>
      <path d="M112.265,359.553c0-1.574-1.276-2.85-2.85-2.85s-2.85,1.276-2.85,2.85,1.276,2.85,2.85,2.85,2.85-1.276,2.85-2.85Z"/>
      <path d="M94.213,352.142c1.574,0,2.85-1.276,2.85-2.85s-1.276-2.85-2.85-2.85-2.85,1.276-2.85,2.85,1.276,2.85,2.85,2.85Z"/>
      <circle cx="93.263" cy="365.254" r="2.85"/>
      <path d="M110.175,378.366c1.574,0,2.85-1.276,2.85-2.85s-1.276-2.85-2.85-2.85-2.85,1.276-2.85,2.85,1.276,2.85,2.85,2.85Z"/>
    </g>
    <path d="M176.075,308.742c-7.565-1.009-15.405.593-21.988,4.325,0,0-.338.192-.338.192-.866.489-1.458,1.183-1.925,2.113-.624,1.258-.92,2.76-1.148,4.237-.241,1.58-.425,3.393-.75,4.926-.356,1.66-.898,3.324-2.164,4.37l-9.962,5.701-9.779-5.596c-1.361-1.036-1.928-2.757-2.296-4.474-.324-1.533-.509-3.346-.75-4.926-.228-1.477-.523-2.979-1.148-4.237-.467-.93-1.059-1.625-1.925-2.113,0,0-.338-.192-.338-.192-6.582-3.732-14.422-5.334-21.988-4.325-1.635.225-3.303.543-4.888,1.074.332,1.639.891,3.242,1.514,4.771,2.909,7.056,8.216,13.045,14.739,16.879,0,0,.336.197.336.197.856.506,1.754.671,2.793.61,1.401-.087,2.851-.583,4.243-1.125,1.489-.581,3.152-1.328,4.641-1.814,1.536-.497,3.158-.849,4.637-.389l10.205,5.84.005-.009.005.009,10.136-5.801c1.51-.517,3.179-.16,4.756.35,1.489.486,3.152,1.232,4.641,1.814,1.392.542,2.842,1.037,4.243,1.125,1.039.061,1.937-.104,2.793-.61,0,0,.336-.197.336-.197,6.523-3.834,11.831-9.823,14.739-16.879.623-1.528,1.182-3.132,1.514-4.771-1.586-.532-3.253-.849-4.888-1.074Z" fill="#0c0d0b"/>
    <g>
      <path d="M166.236,278.717c1.574,0,2.85-1.276,2.85-2.85s-1.276-2.85-2.85-2.85-2.85,1.276-2.85,2.85,1.276,2.85,2.85,2.85Z"/>
      <path d="M181.439,268.455c1.574,0,2.85-1.276,2.85-2.85s-1.276-2.85-2.85-2.85-2.85,1.276-2.85,2.85,1.276,2.85,2.85,2.85Z"/>
      <circle cx="182.389" cy="281.567" r="2.85"/>
      <path d="M165.476,294.679c1.574,0,2.85-1.276,2.85-2.85s-1.276-2.85-2.85-2.85-2.85,1.276-2.85,2.85,1.276,2.85,2.85,2.85Z"/>
      <path d="M201.392,278.717c-.34,0-.644.15-.853.386l-15.489-4.426,4.161-3.49c.414.39,1.063.418,1.511.044.483-.404.548-1.123.144-1.606-.404-.483-1.123-.548-1.606-.144-.375.313-.496.815-.344,1.251l-12.39,10.393c.05-.177.103-.355.151-.531.705-2.596,1.154-5.103,1.374-7.665.427-4.97-.139-9.097-.593-12.413-.21-1.529-.395-2.893-.467-4.144.084-.04.164-.09.239-.152.483-.404.548-1.123.144-1.606-.404-.483-1.123-.548-1.606-.144s-.548,1.123-.144,1.606c.216.258.522.396.833.407.076,1.248.26,2.599.467,4.106.451,3.289,1.012,7.384.59,12.294-.217,2.529-.661,5.005-1.357,7.57-.075.276-.156.554-.237.833l-8.316-11.965,2.52-10.181c.035.001.069.005.104.005,1.574,0,2.85-1.276,2.85-2.85s-1.276-2.85-2.85-2.85-2.85,1.276-2.85,2.85c0,1.353.944,2.484,2.209,2.775l-2.391,9.662-2.779-3.998c.309-.456.49-1.006.49-1.598,0-1.574-1.276-2.85-2.85-2.85s-2.85,1.276-2.85,2.85,1.276,2.85,2.85,2.85c.781,0,1.488-.314,2.002-.823l2.964,4.265-.002.009.01.002,8.691,12.505c-.724,2.359-1.659,4.775-2.793,7.206-2.952,6.326-9.37,10.143-15.587,12.434v-16.239c.18-.036.354-.117.504-.243.483-.404.548-1.123.144-1.606-.404-.483-1.123-.548-1.606-.144s-.548,1.123-.144,1.606c.153.183.35.305.563.366v16.455c-1.715.609-3.407,1.105-4.997,1.506-4.059,1.022-7.915,1.558-10.778,1.839-.168-1.629-1.528-2.905-3.202-2.905s-3.034,1.276-3.202,2.905c-2.863-.281-6.719-.817-10.778-1.839-1.59-.4-3.282-.896-4.997-1.506v-16.455c.213-.06.411-.183.563-.366.404-.483.339-1.202-.144-1.606s-1.202-.339-1.606.144c-.404.483-.339,1.202.144,1.606.151.126.324.206.504.243v16.239c-6.217-2.291-12.635-6.109-15.587-12.434-1.134-2.431-2.069-4.848-2.793-7.206l8.691-12.505.01-.002-.002-.009,2.964-4.265c.515.508,1.222.823,2.002.823,1.574,0,2.85-1.276,2.85-2.85s-1.276-2.85-2.85-2.85-2.85,1.276-2.85,2.85c0,.592.181,1.143.49,1.598l-2.779,3.998-2.391-9.662c1.265-.291,2.209-1.422,2.209-2.775,0-1.574-1.276-2.85-2.85-2.85s-2.85,1.276-2.85,2.85,1.276,2.85,2.85,2.85c.035,0,.069-.004.104-.005l2.52,10.181-8.316,11.965c-.081-.278-.162-.556-.237-.833-.696-2.565-1.14-5.041-1.357-7.57-.421-4.91.139-9.004.59-12.294.207-1.508.391-2.858.467-4.106.312-.011.618-.149.833-.407.404-.483.339-1.202-.144-1.606s-1.202-.339-1.606.144c-.404.483-.339,1.202.144,1.606.074.062.155.112.239.152-.072,1.251-.257,2.615-.467,4.144-.454,3.316-1.02,7.443-.593,12.413.22,2.562.669,5.069,1.374,7.665.048.176.101.354.151.531l-12.39-10.393c.152-.435.03-.938-.344-1.251-.483-.404-1.202-.339-1.606.144-.404.483-.339,1.202.144,1.606.447.374,1.096.345,1.511-.044l4.161,3.49-15.489,4.426c-.209-.236-.513-.386-.853-.386-.63,0-1.14.51-1.14,1.14s.51,1.14,1.14,1.14,1.14-.51,1.14-1.14c0-.092-.012-.181-.033-.267l15.733-4.495,8.302,6.964c.733,2.396,1.681,4.851,2.833,7.319,3.944,8.452,13.863,12.514,21.49,14.432,4.105,1.033,8,1.571,10.887,1.853.11,1.688,1.499,3.027,3.214,3.027s3.105-1.339,3.214-3.027c2.887-.282,6.782-.82,10.887-1.853,7.626-1.919,17.545-5.98,21.49-14.432,1.152-2.468,2.1-4.923,2.833-7.319l8.302-6.964,15.733,4.495c-.021.086-.033.175-.033.267,0,.63.511,1.14,1.14,1.14s1.14-.51,1.14-1.14-.51-1.14-1.14-1.14Z"/>
      <path d="M112.265,275.866c0-1.574-1.276-2.85-2.85-2.85s-2.85,1.276-2.85,2.85,1.276,2.85,2.85,2.85,2.85-1.276,2.85-2.85Z"/>
      <path d="M94.213,268.455c1.574,0,2.85-1.276,2.85-2.85s-1.276-2.85-2.85-2.85-2.85,1.276-2.85,2.85,1.276,2.85,2.85,2.85Z"/>
      <circle cx="93.263" cy="281.567" r="2.85"/>
      <path d="M110.175,294.679c1.574,0,2.85-1.276,2.85-2.85s-1.276-2.85-2.85-2.85-2.85,1.276-2.85,2.85,1.276,2.85,2.85,2.85Z"/>
    </g>
    <path d="M176.075,225.055c-7.565-1.009-15.405.593-21.988,4.325,0,0-.338.192-.338.192-.866.489-1.458,1.183-1.925,2.113-.624,1.258-.92,2.76-1.148,4.237-.241,1.58-.425,3.393-.75,4.926-.356,1.66-.898,3.324-2.164,4.37l-9.962,5.701-9.779-5.596c-1.361-1.036-1.928-2.757-2.296-4.474-.324-1.533-.509-3.346-.75-4.926-.228-1.477-.523-2.979-1.148-4.237-.467-.93-1.059-1.625-1.925-2.113,0,0-.338-.192-.338-.192-6.582-3.732-14.422-5.334-21.988-4.325-1.635.225-3.303.543-4.888,1.074.332,1.639.891,3.242,1.514,4.771,2.909,7.056,8.216,13.045,14.739,16.879,0,0,.336.197.336.197.856.506,1.754.671,2.793.61,1.401-.087,2.851-.583,4.243-1.125,1.489-.581,3.152-1.328,4.641-1.814,1.536-.497,3.158-.849,4.637-.389l10.205,5.84.005-.009.005.009,10.136-5.801c1.51-.517,3.179-.16,4.756.35,1.489.486,3.152,1.232,4.641,1.814,1.392.542,2.842,1.037,4.243,1.125,1.039.061,1.937-.104,2.793-.61,0,0,.336-.197.336-.197,6.523-3.834,11.831-9.823,14.739-16.879.623-1.528,1.182-3.132,1.514-4.771-1.586-.532-3.253-.849-4.888-1.074Z" fill="#0c0d0b"/>
    <g>
      <path d="M166.236,195.03c1.574,0,2.85-1.276,2.85-2.85s-1.276-2.85-2.85-2.85-2.85,1.276-2.85,2.85,1.276,2.85,2.85,2.85Z"/>
      <path d="M181.439,184.768c1.574,0,2.85-1.276,2.85-2.85s-1.276-2.85-2.85-2.85-2.85,1.276-2.85,2.85,1.276,2.85,2.85,2.85Z"/>
      <circle cx="182.389" cy="197.88" r="2.85"/>
      <path d="M165.476,210.992c1.574,0,2.85-1.276,2.85-2.85s-1.276-2.85-2.85-2.85-2.85,1.276-2.85,2.85,1.276,2.85,2.85,2.85Z"/>
      <path d="M201.392,195.03c-.34,0-.644.15-.853.386l-15.489-4.426,4.161-3.49c.414.39,1.063.418,1.511.044.483-.404.548-1.123.144-1.606-.404-.483-1.123-.548-1.606-.144-.375.313-.496.815-.344,1.251l-12.39,10.393c.05-.177.103-.355.151-.531.705-2.596,1.154-5.103,1.374-7.665.427-4.97-.139-9.097-.593-12.413-.21-1.529-.395-2.893-.467-4.144.084-.04.164-.09.239-.152.483-.404.548-1.123.144-1.606-.404-.483-1.123-.548-1.606-.144s-.548,1.123-.144,1.606c.216.258.522.396.833.407.076,1.248.26,2.599.467,4.106.451,3.289,1.012,7.384.59,12.294-.217,2.529-.661,5.005-1.357,7.57-.075.276-.156.554-.237.833l-8.316-11.965,2.52-10.181c.035.001.069.005.104.005,1.574,0,2.85-1.276,2.85-2.85s-1.276-2.85-2.85-2.85-2.85,1.276-2.85,2.85c0,1.353.944,2.484,2.209,2.775l-2.391,9.662-2.779-3.998c.309-.456.49-1.006.49-1.598,0-1.574-1.276-2.85-2.85-2.85s-2.85,1.276-2.85,2.85,1.276,2.85,2.85,2.85c.781,0,1.488-.314,2.002-.823l2.964,4.265-.002.009.01.002,8.691,12.505c-.724,2.359-1.659,4.775-2.793,7.206-2.952,6.326-9.37,10.143-15.587,12.434v-16.239c.18-.036.354-.117.504-.243.483-.404.548-1.123.144-1.606-.404-.483-1.123-.548-1.606-.144s-.548,1.123-.144,1.606c.153.183.35.305.563.366v16.455c-1.715.609-3.407,1.105-4.997,1.506-4.059,1.022-7.915,1.558-10.778,1.839-.168-1.629-1.528-2.905-3.202-2.905s-3.034,1.276-3.202,2.905c-2.863-.281-6.719-.817-10.778-1.839-1.59-.4-3.282-.896-4.997-1.506v-16.455c.213-.06.411-.183.563-.366.404-.483.339-1.202-.144-1.606s-1.202-.339-1.606.144c-.404.483-.339,1.202.144,1.606.151.126.324.206.504.243v16.239c-6.217-2.291-12.635-6.109-15.587-12.434-1.134-2.431-2.069-4.848-2.793-7.206l8.691-12.505.01-.002-.002-.009,2.964-4.265c.515.508,1.222.823,2.002.823,1.574,0,2.85-1.276,2.85-2.85s-1.276-2.85-2.85-2.85-2.85,1.276-2.85,2.85c0,.592.181,1.143.49,1.598l-2.779,3.998-2.391-9.662c1.265-.291,2.209-1.422,2.209-2.775,0-1.574-1.276-2.85-2.85-2.85s-2.85,1.276-2.85,2.85,1.276,2.85,2.85,2.85c.035,0,.069-.004.104-.005l2.52,10.181-8.316,11.965c-.081-.278-.162-.556-.237-.833-.696-2.565-1.14-5.041-1.357-7.57-.421-4.91.139-9.004.59-12.294.207-1.508.391-2.858.467-4.106.312-.011.618-.149.833-.407.404-.483.339-1.202-.144-1.606s-1.202-.339-1.606.144c-.404.483-.339,1.202.144,1.606.074.062.155.112.239.152-.072,1.251-.257,2.615-.467,4.144-.454,3.316-1.02,7.443-.593,12.413.22,2.562.669,5.069,1.374,7.665.048.176.101.354.151.531l-12.39-10.393c.152-.435.03-.938-.344-1.251-.483-.404-1.202-.339-1.606.144-.404.483-.339,1.202.144,1.606.447.374,1.096.345,1.511-.044l4.161,3.49-15.489,4.426c-.209-.236-.513-.386-.853-.386-.63,0-1.14.51-1.14,1.14s.51,1.14,1.14,1.14,1.14-.51,1.14-1.14c0-.092-.012-.181-.033-.267l15.733-4.495,8.302,6.964c.733,2.396,1.681,4.851,2.833,7.319,3.944,8.452,13.863,12.514,21.49,14.432,4.105,1.033,8,1.571,10.887,1.853.11,1.688,1.499,3.027,3.214,3.027s3.105-1.339,3.214-3.027c2.887-.282,6.782-.82,10.887-1.853,7.626-1.919,17.545-5.98,21.49-14.432,1.152-2.468,2.1-4.923,2.833-7.319l8.302-6.964,15.733,4.495c-.021.086-.033.175-.033.267,0,.63.511,1.14,1.14,1.14s1.14-.51,1.14-1.14-.51-1.14-1.14-1.14Z"/>
      <path d="M112.265,192.18c0-1.574-1.276-2.85-2.85-2.85s-2.85,1.276-2.85,2.85,1.276,2.85,2.85,2.85,2.85-1.276,2.85-2.85Z"/>
      <path d="M94.213,184.768c1.574,0,2.85-1.276,2.85-2.85s-1.276-2.85-2.85-2.85-2.85,1.276-2.85,2.85,1.276,2.85,2.85,2.85Z"/>
      <circle cx="93.263" cy="197.88" r="2.85"/>
      <path d="M110.175,210.992c1.574,0,2.85-1.276,2.85-2.85s-1.276-2.85-2.85-2.85-2.85,1.276-2.85,2.85,1.276,2.85,2.85,2.85Z"/>
    </g>
    <path d="M176.075,141.368c-7.565-1.009-15.405.593-21.988,4.325,0,0-.338.192-.338.192-.866.489-1.458,1.183-1.925,2.113-.624,1.258-.92,2.76-1.148,4.237-.241,1.58-.425,3.393-.75,4.926-.356,1.66-.898,3.324-2.164,4.37l-9.962,5.701-9.779-5.596c-1.361-1.036-1.928-2.757-2.296-4.474-.324-1.533-.509-3.346-.75-4.926-.228-1.477-.523-2.979-1.148-4.237-.467-.93-1.059-1.625-1.925-2.113,0,0-.338-.192-.338-.192-6.582-3.732-14.422-5.334-21.988-4.325-1.635.225-3.303.543-4.888,1.074.332,1.639.891,3.242,1.514,4.771,2.909,7.056,8.216,13.045,14.739,16.879,0,0,.336.197.336.197.856.506,1.754.671,2.793.61,1.401-.087,2.851-.583,4.243-1.125,1.489-.581,3.152-1.328,4.641-1.814,1.536-.497,3.158-.849,4.637-.389l10.205,5.84.005-.009.005.009,10.136-5.801c1.51-.517,3.179-.16,4.756.35,1.489.486,3.152,1.232,4.641,1.814,1.392.542,2.842,1.037,4.243,1.125,1.039.061,1.937-.104,2.793-.61,0,0,.336-.197.336-.197,6.523-3.834,11.831-9.823,14.739-16.879.623-1.528,1.182-3.132,1.514-4.771-1.586-.532-3.253-.849-4.888-1.074Z" fill="#0c0d0b"/>
    <g>
      <path d="M166.236,111.343c1.574,0,2.85-1.276,2.85-2.85s-1.276-2.85-2.85-2.85-2.85,1.276-2.85,2.85,1.276,2.85,2.85,2.85Z"/>
      <path d="M181.439,101.082c1.574,0,2.85-1.276,2.85-2.85s-1.276-2.85-2.85-2.85-2.85,1.276-2.85,2.85,1.276,2.85,2.85,2.85Z"/>
      <circle cx="182.389" cy="114.194" r="2.85"/>
      <path d="M165.476,127.306c1.574,0,2.85-1.276,2.85-2.85s-1.276-2.85-2.85-2.85-2.85,1.276-2.85,2.85,1.276,2.85,2.85,2.85Z"/>
      <path d="M201.392,111.343c-.34,0-.644.15-.853.386l-15.489-4.426,4.161-3.49c.414.39,1.063.418,1.511.044.483-.404.548-1.123.144-1.606-.404-.483-1.123-.548-1.606-.144-.375.313-.496.815-.344,1.251l-12.39,10.393c.05-.177.103-.355.151-.531.705-2.596,1.154-5.103,1.374-7.665.427-4.97-.139-9.097-.593-12.413-.21-1.529-.395-2.893-.467-4.144.084-.04.164-.09.239-.152.483-.404.548-1.123.144-1.606-.404-.483-1.123-.548-1.606-.144s-.548,1.123-.144,1.606c.216.258.522.396.833.407.076,1.248.26,2.599.467,4.106.451,3.289,1.012,7.384.59,12.294-.217,2.529-.661,5.005-1.357,7.57-.075.276-.156.554-.237.833l-8.316-11.965,2.52-10.181c.035.001.069.005.104.005,1.574,0,2.85-1.276,2.85-2.85s-1.276-2.85-2.85-2.85-2.85,1.276-2.85,2.85c0,1.353.944,2.484,2.209,2.775l-2.391,9.662-2.779-3.998c.309-.456.49-1.006.49-1.598,0-1.574-1.276-2.85-2.85-2.85s-2.85,1.276-2.85,2.85,1.276,2.85,2.85,2.85c.781,0,1.488-.314,2.002-.823l2.964,4.265-.002.009.01.002,8.691,12.505c-.724,2.359-1.659,4.775-2.793,7.206-2.952,6.326-9.37,10.143-15.587,12.434v-16.239c.18-.036.354-.117.504-.243.483-.404.548-1.123.144-1.606-.404-.483-1.123-.548-1.606-.144s-.548,1.123-.144,1.606c.153.183.35.305.563.366v16.455c-1.715.609-3.407,1.105-4.997,1.506-4.059,1.022-7.915,1.558-10.778,1.839-.168-1.629-1.528-2.905-3.202-2.905s-3.034,1.276-3.202,2.905c-2.863-.281-6.719-.817-10.778-1.839-1.59-.4-3.282-.896-4.997-1.506v-16.455c.213-.06.411-.183.563-.366.404-.483.339-1.202-.144-1.606s-1.202-.339-1.606.144c-.404.483-.339,1.202.144,1.606.151.126.324.206.504.243v16.239c-6.217-2.291-12.635-6.109-15.587-12.434-1.134-2.431-2.069-4.848-2.793-7.206l8.691-12.505.01-.002-.002-.009,2.964-4.265c.515.508,1.222.823,2.002.823,1.574,0,2.85-1.276,2.85-2.85s-1.276-2.85-2.85-2.85-2.85,1.276-2.85,2.85c0,.592.181,1.143.49,1.598l-2.779,3.998-2.391-9.662c1.265-.291,2.209-1.422,2.209-2.775,0-1.574-1.276-2.85-2.85-2.85s-2.85,1.276-2.85,2.85,1.276,2.85,2.85,2.85c.035,0,.069-.004.104-.005l2.52,10.181-8.316,11.965c-.081-.278-.162-.556-.237-.833-.696-2.565-1.14-5.041-1.357-7.57-.421-4.91.139-9.004.59-12.294.207-1.508.391-2.858.467-4.106.312-.011.618-.149.833-.407.404-.483.339-1.202-.144-1.606s-1.202-.339-1.606.144c-.404.483-.339,1.202.144,1.606.074.062.155.112.239.152-.072,1.251-.257,2.615-.467,4.144-.454,3.316-1.02,7.443-.593,12.413.22,2.562.669,5.069,1.374,7.665.048.176.101.354.151.531l-12.39-10.393c.152-.435.03-.938-.344-1.251-.483-.404-1.202-.339-1.606.144-.404.483-.339,1.202.144,1.606.447.374,1.096.345,1.511-.044l4.161,3.49-15.489,4.426c-.209-.236-.513-.386-.853-.386-.63,0-1.14.51-1.14,1.14s.51,1.14,1.14,1.14,1.14-.51,1.14-1.14c0-.092-.012-.181-.033-.267l15.733-4.495,8.302,6.964c.733,2.396,1.681,4.851,2.833,7.319,3.944,8.452,13.863,12.514,21.49,14.432,4.105,1.033,8,1.571,10.887,1.853.11,1.688,1.499,3.027,3.214,3.027s3.105-1.339,3.214-3.027c2.887-.282,6.782-.82,10.887-1.853,7.626-1.919,17.545-5.98,21.49-14.432,1.152-2.468,2.1-4.923,2.833-7.319l8.302-6.964,15.733,4.495c-.021.086-.033.175-.033.267,0,.63.511,1.14,1.14,1.14s1.14-.51,1.14-1.14-.51-1.14-1.14-1.14Z"/>
      <path d="M112.265,108.493c0-1.574-1.276-2.85-2.85-2.85s-2.85,1.276-2.85,2.85,1.276,2.85,2.85,2.85,2.85-1.276,2.85-2.85Z"/>
      <path d="M94.213,101.082c1.574,0,2.85-1.276,2.85-2.85s-1.276-2.85-2.85-2.85-2.85,1.276-2.85,2.85,1.276,2.85,2.85,2.85Z"/>
      <circle cx="93.263" cy="114.194" r="2.85"/>
      <path d="M110.175,127.306c1.574,0,2.85-1.276,2.85-2.85s-1.276-2.85-2.85-2.85-2.85,1.276-2.85,2.85,1.276,2.85,2.85,2.85Z"/>
    </g>
  </g>
  <g id="Flores">
    <g>
      <g>
        <ellipse cx="137.544" cy="7.829" rx="11.185" ry="7.829" fill="#0c0d0b"/>
        <path d="M166.422,59.809c-8.936-4.112-19.803,1.477-25.127,9.088-1.138,1.383-2.168,3.554-2.791,4.038v-8.518c2.444-6.969,10.18-10.052,18.095-12.821,5.411-1.764,17.853-5.211,15.708-12.535-4.196-6.121-14.244-5.393-20.168-1.534-6.635,4.166-10.487,10.725-13.636,15.517v-11.107c2.562-6.185,9.094-9.253,17.868-12.372,3.715-1.339,6.772-1.227,8.655-3.362,9.388-16.989-11.007-26.711-23.328-1.278-.671,1.504-2.45,4.717-3.196,6.81v-12.882h-1.917v16.772c-1.937-5.039-5.356-16.553-10.866-18.662-9.351-2.108-6.834,8.884-3.372,13.601,2.53,3.994,6.664,7.778,9.859,10.512,3.213,2.457,4.396,5.306,4.379,9.414-.042,1.275-.02,2.685,0,4.128v3.959c-.035,1.325-.123,2.599-.32,3.737-.291.505-1.66-.524-1.954-.927-4.273-6.978-8.751-17.562-14.208-24.444-4.988-7.519-17.814-1.63-12.342,7.125,3.228,5.754,9.314,8.858,14.487,13.124,3.589,3.508,11.878,7.161,14.337,12.051v4.576c-1.309.87-4.047-.545-5.818-1.623-8.283-5.454-44.201-30.435-41.548-6.498,3.521,14.489,17.751,18.62,30.317,17.534,14.802-.315,32.726.646,44.214-.411,13.108-3.78,16.598-16.813,2.67-23.011Z" fill="#0c0d0b"/>
      </g>
      <circle cx="137.544" cy="8.628" r="3.515" fill="#cb1e1a"/>
    </g>
  </g>
</svg>