<?xml version="1.0" encoding="UTF-8"?>
<svg xmlns="http://www.w3.org/2000/svg" width="275.651" height="450" viewBox="0 0 275.651 450">
  <g id="Tallo">
    <g>
      <g>
        <line x1="137.826" y1="450" x2="137.826" y2="30.074" fill="none" stroke="#0c0d0b" stroke-miterlimit="10" stroke-width="2.381"/>
        <g>
          <polygon points="137.826 442.32 133.909 441.392 137.826 440.464 137.826 442.32 137.826 442.32" fill="#0c0d0b"/>
          <polygon points="137.826 447.359 141.742 446.431 137.826 445.503 137.826 447.359 137.826 447.359" fill="#0c0d0b"/>
        </g>
        <g>
          <polygon points="137.826 426.991 133.909 426.063 137.826 425.135 137.826 426.991 137.826 426.991" fill="#0c0d0b"/>
          <polygon points="137.826 432.03 141.742 431.102 137.826 430.174 137.826 432.03 137.826 432.03" fill="#0c0d0b"/>
        </g>
        <g>
          <polygon points="137.826 411.654 133.909 410.726 137.826 409.798 137.826 411.654 137.826 411.654" fill="#0c0d0b"/>
          <polygon points="137.826 416.693 141.742 415.765 137.826 414.837 137.826 416.693 137.826 416.693" fill="#0c0d0b"/>
        </g>
        <g>
          <polygon points="137.826 396.309 133.909 395.381 137.826 394.454 137.826 396.309 137.826 396.309" fill="#0c0d0b"/>
          <polygon points="137.826 401.348 141.742 400.42 137.826 399.493 137.826 401.348 137.826 401.348" fill="#0c0d0b"/>
        </g>
        <g>
          <polygon points="137.826 380.997 133.909 380.069 137.826 379.141 137.826 380.997 137.826 380.997" fill="#0c0d0b"/>
          <polygon points="137.826 386.036 141.742 385.108 137.826 384.18 137.826 386.036 137.826 386.036" fill="#0c0d0b"/>
        </g>
        <g>
          <polygon points="137.826 365.631 133.909 364.703 137.826 363.776 137.826 365.631 137.826 365.631" fill="#0c0d0b"/>
          <polygon points="137.826 370.67 141.742 369.742 137.826 368.815 137.826 370.67 137.826 370.67" fill="#0c0d0b"/>
        </g>
        <g>
          <polygon points="137.826 350.368 133.909 349.44 137.826 348.512 137.826 350.368 137.826 350.368" fill="#0c0d0b"/>
          <polygon points="137.826 355.407 141.742 354.479 137.826 353.551 137.826 355.407 137.826 355.407" fill="#0c0d0b"/>
        </g>
        <g>
          <polygon points="137.826 334.965 133.909 334.037 137.826 333.109 137.826 334.965 137.826 334.965" fill="#0c0d0b"/>
          <polygon points="137.826 340.004 141.742 339.076 137.826 338.148 137.826 340.004 137.826 340.004" fill="#0c0d0b"/>
        </g>
        <g>
          <polygon points="137.826 319.672 133.909 318.744 137.826 317.816 137.826 319.672 137.826 319.672" fill="#0c0d0b"/>
          <polygon points="137.826 324.711 141.742 323.783 137.826 322.855 137.826 324.711 137.826 324.711" fill="#0c0d0b"/>
        </g>
        <g>
          <polygon points="137.826 304.297 133.909 303.369 137.826 302.441 137.826 304.297 137.826 304.297" fill="#0c0d0b"/>
          <polygon points="137.826 309.336 141.742 308.408 137.826 307.48 137.826 309.336 137.826 309.336" fill="#0c0d0b"/>
        </g>
        <g>
          <polygon points="137.826 289.012 133.909 288.085 137.826 287.157 137.826 289.012 137.826 289.012" fill="#0c0d0b"/>
          <polygon points="137.826 294.051 141.742 293.124 137.826 292.196 137.826 294.051 137.826 294.051" fill="#0c0d0b"/>
        </g>
        <g>
          <polygon points="137.826 273.722 133.909 272.795 137.826 271.867 137.826 273.722 137.826 273.722" fill="#0c0d0b"/>
          <polygon points="137.826 278.761 141.742 277.834 137.826 276.906 137.826 278.761 137.826 278.761" fill="#0c0d0b"/>
        </g>
        <g>
          <polygon points="137.826 258.321 133.909 257.394 137.826 256.466 137.826 258.321 137.826 258.321" fill="#0c0d0b"/>
          <polygon points="137.826 263.36 141.742 262.433 137.826 261.505 137.826 263.36 137.826 263.36" fill="#0c0d0b"/>
        </g>
        <g>
          <polygon points="137.826 242.998 133.909 242.07 137.826 241.142 137.826 242.998 137.826 242.998" fill="#0c0d0b"/>
          <polygon points="137.826 248.037 141.742 247.109 137.826 246.181 137.826 248.037 137.826 248.037" fill="#0c0d0b"/>
        </g>
        <g>
          <polygon points="137.826 227.744 133.909 226.817 137.826 225.889 137.826 227.744 137.826 227.744" fill="#0c0d0b"/>
          <polygon points="137.826 232.783 141.742 231.856 137.826 230.928 137.826 232.783 137.826 232.783" fill="#0c0d0b"/>
        </g>
        <g>
          <polygon points="137.826 212.398 133.909 211.47 137.826 210.542 137.826 212.398 137.826 212.398" fill="#0c0d0b"/>
          <polygon points="137.826 217.437 141.742 216.509 137.826 215.581 137.826 217.437 137.826 217.437" fill="#0c0d0b"/>
        </g>
        <g>
          <polygon points="137.826 197.027 133.909 196.099 137.826 195.172 137.826 197.027 137.826 197.027" fill="#0c0d0b"/>
          <polygon points="137.826 202.066 141.742 201.138 137.826 200.211 137.826 202.066 137.826 202.066" fill="#0c0d0b"/>
        </g>
        <g>
          <polygon points="137.826 181.718 133.909 180.79 137.826 179.863 137.826 181.718 137.826 181.718" fill="#0c0d0b"/>
          <polygon points="137.826 186.757 141.742 185.829 137.826 184.902 137.826 186.757 137.826 186.757" fill="#0c0d0b"/>
        </g>
        <g>
          <polygon points="137.826 166.423 133.909 165.495 137.826 164.567 137.826 166.423 137.826 166.423" fill="#0c0d0b"/>
          <polygon points="137.826 171.462 141.742 170.534 137.826 169.606 137.826 171.462 137.826 171.462" fill="#0c0d0b"/>
        </g>
        <g>
          <polygon points="137.826 151.098 133.909 150.17 137.826 149.243 137.826 151.098 137.826 151.098" fill="#0c0d0b"/>
          <polygon points="137.826 156.137 141.742 155.209 137.826 154.282 137.826 156.137 137.826 156.137" fill="#0c0d0b"/>
        </g>
        <g>
          <polygon points="137.826 135.753 133.909 134.825 137.826 133.897 137.826 135.753 137.826 135.753" fill="#0c0d0b"/>
          <polygon points="137.826 140.792 141.742 139.864 137.826 138.936 137.826 140.792 137.826 140.792" fill="#0c0d0b"/>
        </g>
        <g>
          <polygon points="137.826 120.484 133.909 119.556 137.826 118.628 137.826 120.484 137.826 120.484" fill="#0c0d0b"/>
          <polygon points="137.826 125.523 141.742 124.595 137.826 123.667 137.826 125.523 137.826 125.523" fill="#0c0d0b"/>
        </g>
        <g>
          <polygon points="137.826 105.074 133.909 104.147 137.826 103.219 137.826 105.074 137.826 105.074" fill="#0c0d0b"/>
          <polygon points="137.826 110.113 141.742 109.186 137.826 108.258 137.826 110.113 137.826 110.113" fill="#0c0d0b"/>
        </g>
        <g>
          <polygon points="137.826 89.777 133.909 88.85 137.826 87.922 137.826 89.777 137.826 89.777" fill="#0c0d0b"/>
          <polygon points="137.826 94.817 141.742 93.889 137.826 92.961 137.826 94.817 137.826 94.817" fill="#0c0d0b"/>
        </g>
        <g>
          <polygon points="137.826 74.43 133.909 73.503 137.826 72.575 137.826 74.43 137.826 74.43" fill="#0c0d0b"/>
          <polygon points="137.826 79.469 141.742 78.542 137.826 77.614 137.826 79.469 137.826 79.469" fill="#0c0d0b"/>
        </g>
        <g>
          <polygon points="137.826 59.114 133.909 58.187 137.826 57.259 137.826 59.114 137.826 59.114" fill="#0c0d0b"/>
          <polygon points="137.826 64.153 141.742 63.226 137.826 62.298 137.826 64.153 137.826 64.153" fill="#0c0d0b"/>
        </g>
        <g>
          <polygon points="137.826 43.783 133.909 42.856 137.826 41.928 137.826 43.783 137.826 43.783" fill="#0c0d0b"/>
          <polygon points="137.826 48.822 141.742 47.895 137.826 46.967 137.826 48.822 137.826 48.822" fill="#0c0d0b"/>
        </g>
        <g>
          <polygon points="137.826 28.482 133.909 27.554 137.826 26.627 137.826 28.482 137.826 28.482" fill="#0c0d0b"/>
          <polygon points="137.826 33.521 141.742 32.593 137.826 31.666 137.826 33.521 137.826 33.521" fill="#0c0d0b"/>
        </g>
      </g>
      <g>
        <polyline points="41.251 58.065 41.251 133.022 84.435 133.022 84.435 208.945 190.431 208.945 190.431 133.505 234.4 133.505 234.4 58.065" fill="none" stroke="#0c0d0b" stroke-miterlimit="10" stroke-width="1.09"/>
        <g>
          <polygon points="41.27 67.434 37.697 66.539 41.293 65.736 41.27 67.434 41.27 67.434" fill="#0c0d0b"/>
          <polygon points="41.21 72.047 44.806 71.244 41.232 70.348 41.21 72.047 41.21 72.047" fill="#0c0d0b"/>
        </g>
        <g>
          <polygon points="41.27 85.347 37.697 84.451 41.293 83.648 41.27 85.347 41.27 85.347" fill="#0c0d0b"/>
          <polygon points="41.21 89.959 44.806 89.156 41.232 88.261 41.21 89.959 41.21 89.959" fill="#0c0d0b"/>
        </g>
        <g>
          <polygon points="41.27 103.315 37.697 102.419 41.293 101.617 41.27 103.315 41.27 103.315" fill="#0c0d0b"/>
          <polygon points="41.21 107.928 44.806 107.125 41.232 106.229 41.21 107.928 41.21 107.928" fill="#0c0d0b"/>
        </g>
        <g>
          <polygon points="41.27 121.227 37.697 120.332 41.293 119.529 41.27 121.227 41.27 121.227" fill="#0c0d0b"/>
          <polygon points="41.21 125.84 44.806 125.037 41.232 124.142 41.21 125.84 41.21 125.84" fill="#0c0d0b"/>
        </g>
        <g>
          <polygon points="47.393 133.004 46.497 136.577 45.695 132.981 47.393 133.004 47.393 133.004" fill="#0c0d0b"/>
          <polygon points="52.006 133.064 51.203 129.468 50.307 133.041 52.006 133.064 52.006 133.064" fill="#0c0d0b"/>
        </g>
        <g>
          <polygon points="65.266 133.004 64.371 136.577 63.568 132.981 65.266 133.004 65.266 133.004" fill="#0c0d0b"/>
          <polygon points="69.879 133.064 69.076 129.468 68.18 133.041 69.879 133.064 69.879 133.064" fill="#0c0d0b"/>
        </g>
        <g>
          <polygon points="84.454 131.784 80.88 130.889 84.476 130.086 84.454 131.784 84.454 131.784" fill="#0c0d0b"/>
          <polygon points="84.394 136.397 87.99 135.594 84.416 134.699 84.394 136.397 84.394 136.397" fill="#0c0d0b"/>
        </g>
        <g>
          <polygon points="84.454 149.711 80.88 148.815 84.476 148.013 84.454 149.711 84.454 149.711" fill="#0c0d0b"/>
          <polygon points="84.394 154.324 87.99 153.521 84.416 152.625 84.394 154.324 84.394 154.324" fill="#0c0d0b"/>
        </g>
        <g>
          <polygon points="84.454 167.69 80.88 166.794 84.476 165.992 84.454 167.69 84.454 167.69" fill="#0c0d0b"/>
          <polygon points="84.394 172.302 87.99 171.5 84.416 170.604 84.394 172.302 84.394 172.302" fill="#0c0d0b"/>
        </g>
        <g>
          <polygon points="84.454 185.595 80.88 184.699 84.476 183.897 84.454 185.595 84.454 185.595" fill="#0c0d0b"/>
          <polygon points="84.394 190.207 87.99 189.405 84.416 188.509 84.394 190.207 84.394 190.207" fill="#0c0d0b"/>
        </g>
        <g>
          <polygon points="84.454 203.56 80.88 202.664 84.476 201.861 84.454 203.56 84.454 203.56" fill="#0c0d0b"/>
          <polygon points="84.394 208.172 87.99 207.37 84.416 206.474 84.394 208.172 84.394 208.172" fill="#0c0d0b"/>
        </g>
        <g>
          <polygon points="96.949 208.926 96.053 212.5 95.25 208.904 96.949 208.926 96.949 208.926" fill="#0c0d0b"/>
          <polygon points="101.561 208.986 100.759 205.391 99.863 208.964 101.561 208.986 101.561 208.986" fill="#0c0d0b"/>
        </g>
        <g>
          <polygon points="114.928 208.926 114.032 212.5 113.23 208.904 114.928 208.926 114.928 208.926" fill="#0c0d0b"/>
          <polygon points="119.54 208.986 118.738 205.391 117.842 208.964 119.54 208.986 119.54 208.986" fill="#0c0d0b"/>
        </g>
        <g>
          <polygon points="132.819 208.926 131.924 212.5 131.121 208.904 132.819 208.926 132.819 208.926" fill="#0c0d0b"/>
          <polygon points="137.432 208.986 136.629 205.391 135.734 208.964 137.432 208.986 137.432 208.986" fill="#0c0d0b"/>
        </g>
        <g>
          <polygon points="150.787 208.926 149.892 212.5 149.089 208.904 150.787 208.926 150.787 208.926" fill="#0c0d0b"/>
          <polygon points="155.4 208.986 154.597 205.391 153.701 208.964 155.4 208.986 155.4 208.986" fill="#0c0d0b"/>
        </g>
        <g>
          <polygon points="168.646 208.926 167.75 212.5 166.948 208.904 168.646 208.926 168.646 208.926" fill="#0c0d0b"/>
          <polygon points="173.258 208.986 172.456 205.391 171.56 208.964 173.258 208.986 173.258 208.986" fill="#0c0d0b"/>
        </g>
        <g>
          <polygon points="186.634 208.926 185.738 212.5 184.936 208.904 186.634 208.926 186.634 208.926" fill="#0c0d0b"/>
          <polygon points="191.247 208.986 190.444 205.391 189.548 208.964 191.247 208.986 191.247 208.986" fill="#0c0d0b"/>
        </g>
        <g>
          <polygon points="190.412 194.858 193.986 195.754 190.39 196.556 190.412 194.858 190.412 194.858" fill="#0c0d0b"/>
          <polygon points="190.472 190.245 186.877 191.048 190.45 191.944 190.472 190.245 190.472 190.245" fill="#0c0d0b"/>
        </g>
        <g>
          <polygon points="190.412 176.876 193.986 177.772 190.39 178.574 190.412 176.876 190.412 176.876" fill="#0c0d0b"/>
          <polygon points="190.472 172.263 186.877 173.066 190.45 173.962 190.472 172.263 190.472 172.263" fill="#0c0d0b"/>
        </g>
        <g>
          <polygon points="190.412 158.937 193.986 159.833 190.39 160.635 190.412 158.937 190.412 158.937" fill="#0c0d0b"/>
          <polygon points="190.472 154.325 186.877 155.127 190.45 156.023 190.472 154.325 190.472 154.325" fill="#0c0d0b"/>
        </g>
        <g>
          <polygon points="190.412 141.02 193.986 141.916 190.39 142.719 190.412 141.02 190.412 141.02" fill="#0c0d0b"/>
          <polygon points="190.472 136.408 186.877 137.21 190.45 138.106 190.472 136.408 190.472 136.408" fill="#0c0d0b"/>
        </g>
        <g>
          <polygon points="200.777 133.486 199.881 137.06 199.078 133.464 200.777 133.486 200.777 133.486" fill="#0c0d0b"/>
          <polygon points="205.389 133.546 204.586 129.95 203.691 133.524 205.389 133.546 205.389 133.546" fill="#0c0d0b"/>
        </g>
        <g>
          <polygon points="218.765 133.486 217.869 137.06 217.067 133.464 218.765 133.486 218.765 133.486" fill="#0c0d0b"/>
          <polygon points="223.377 133.546 222.575 129.95 221.679 133.524 223.377 133.546 223.377 133.546" fill="#0c0d0b"/>
        </g>
        <g>
          <polygon points="234.381 131.259 237.954 132.155 234.359 132.957 234.381 131.259 234.381 131.259" fill="#0c0d0b"/>
          <polygon points="234.441 126.646 230.845 127.449 234.419 128.345 234.441 126.646 234.441 126.646" fill="#0c0d0b"/>
        </g>
        <g>
          <polygon points="234.381 113.291 237.954 114.187 234.359 114.99 234.381 113.291 234.381 113.291" fill="#0c0d0b"/>
          <polygon points="234.441 108.679 230.845 109.481 234.419 110.377 234.441 108.679 234.441 108.679" fill="#0c0d0b"/>
        </g>
        <g>
          <polygon points="234.381 95.385 237.954 96.281 234.359 97.083 234.381 95.385 234.381 95.385" fill="#0c0d0b"/>
          <polygon points="234.441 90.773 230.845 91.575 234.419 92.471 234.441 90.773 234.441 90.773" fill="#0c0d0b"/>
        </g>
        <g>
          <polygon points="234.381 77.408 237.954 78.304 234.359 79.107 234.381 77.408 234.381 77.408" fill="#0c0d0b"/>
          <polygon points="234.441 72.796 230.845 73.598 234.419 74.494 234.441 72.796 234.441 72.796" fill="#0c0d0b"/>
        </g>
        <g>
          <polygon points="234.381 59.522 237.954 60.418 234.359 61.22 234.381 59.522 234.381 59.522" fill="#0c0d0b"/>
          <polygon points="234.441 54.909 230.845 55.712 234.419 56.608 234.441 54.909 234.441 54.909" fill="#0c0d0b"/>
        </g>
      </g>
      <g>
        <polyline points="46.763 253.665 46.763 281.23 138.121 370.704 228.889 279.936 228.889 253.665" fill="none" stroke="#0c0d0b" stroke-miterlimit="10" stroke-width="1.303"/>
        <g>
          <polygon points="46.686 255.127 50.237 256.167 46.597 256.83 46.686 255.127 46.686 255.127" fill="#0c0d0b"/>
          <polygon points="46.929 250.5 43.288 251.163 46.839 252.204 46.929 250.5 46.929 250.5" fill="#0c0d0b"/>
        </g>
        <g>
          <polygon points="46.686 263.057 50.237 264.097 46.597 264.76 46.686 263.057 46.686 263.057" fill="#0c0d0b"/>
          <polygon points="46.929 258.43 43.288 259.093 46.839 260.134 46.929 258.43 46.929 258.43" fill="#0c0d0b"/>
        </g>
        <g>
          <polygon points="46.686 270.988 50.237 272.028 46.597 272.691 46.686 270.988 46.686 270.988" fill="#0c0d0b"/>
          <polygon points="46.929 266.361 43.288 267.024 46.839 268.065 46.929 266.361 46.929 266.361" fill="#0c0d0b"/>
        </g>
        <g>
          <polygon points="46.686 279.02 50.237 280.061 46.597 280.724 46.686 279.02 46.686 279.02" fill="#0c0d0b"/>
          <polygon points="46.929 274.394 43.288 275.057 46.839 276.097 46.929 274.394 46.929 274.394" fill="#0c0d0b"/>
        </g>
        <g>
          <polygon points="50.764 285.256 53.992 283.447 51.919 286.512 50.764 285.256 50.764 285.256" fill="#0c0d0b"/>
          <polygon points="47.628 281.846 45.555 284.91 48.783 283.101 47.628 281.846 47.628 281.846" fill="#0c0d0b"/>
        </g>
        <g>
          <polygon points="56.443 290.818 59.671 289.009 57.598 292.074 56.443 290.818 56.443 290.818" fill="#0c0d0b"/>
          <polygon points="53.308 287.408 51.234 290.472 54.462 288.663 53.308 287.408 53.308 287.408" fill="#0c0d0b"/>
        </g>
        <g>
          <polygon points="62.126 296.384 65.354 294.575 63.281 297.64 62.126 296.384 62.126 296.384" fill="#0c0d0b"/>
          <polygon points="58.991 292.974 56.917 296.038 60.145 294.229 58.991 292.974 58.991 292.974" fill="#0c0d0b"/>
        </g>
        <g>
          <polygon points="67.795 301.936 71.023 300.127 68.95 303.192 67.795 301.936 67.795 301.936" fill="#0c0d0b"/>
          <polygon points="64.66 298.526 62.586 301.59 65.814 299.781 64.66 298.526 64.66 298.526" fill="#0c0d0b"/>
        </g>
        <g>
          <polygon points="73.518 307.541 76.746 305.732 74.673 308.797 73.518 307.541 73.518 307.541" fill="#0c0d0b"/>
          <polygon points="70.383 304.13 68.309 307.195 71.537 305.386 70.383 304.13 70.383 304.13" fill="#0c0d0b"/>
        </g>
        <g>
          <polygon points="79.193 313.099 82.421 311.29 80.348 314.355 79.193 313.099 79.193 313.099" fill="#0c0d0b"/>
          <polygon points="76.058 309.689 73.984 312.753 77.212 310.944 76.058 309.689 76.058 309.689" fill="#0c0d0b"/>
        </g>
        <g>
          <polygon points="84.854 318.643 88.082 316.834 86.009 319.899 84.854 318.643 84.854 318.643" fill="#0c0d0b"/>
          <polygon points="81.719 315.233 79.645 318.297 82.873 316.489 81.719 315.233 81.719 315.233" fill="#0c0d0b"/>
        </g>
        <g>
          <polygon points="90.54 324.212 93.768 322.404 91.695 325.468 90.54 324.212 90.54 324.212" fill="#0c0d0b"/>
          <polygon points="87.405 320.802 85.332 323.867 88.559 322.058 87.405 320.802 87.405 320.802" fill="#0c0d0b"/>
        </g>
        <g>
          <polygon points="96.223 329.778 99.451 327.969 97.377 331.033 96.223 329.778 96.223 329.778" fill="#0c0d0b"/>
          <polygon points="93.087 326.367 91.014 329.432 94.242 327.623 93.087 326.367 93.087 326.367" fill="#0c0d0b"/>
        </g>
        <g>
          <polygon points="101.906 335.343 105.133 333.534 103.06 336.599 101.906 335.343 101.906 335.343" fill="#0c0d0b"/>
          <polygon points="98.77 331.932 96.697 334.997 99.925 333.188 98.77 331.932 98.77 331.932" fill="#0c0d0b"/>
        </g>
        <g>
          <polygon points="107.571 340.892 110.799 339.083 108.725 342.148 107.571 340.892 107.571 340.892" fill="#0c0d0b"/>
          <polygon points="104.435 337.481 102.362 340.546 105.59 338.737 104.435 337.481 104.435 337.481" fill="#0c0d0b"/>
        </g>
        <g>
          <polygon points="113.246 346.449 116.474 344.641 114.4 347.705 113.246 346.449 113.246 346.449" fill="#0c0d0b"/>
          <polygon points="110.11 343.039 108.037 346.104 111.265 344.295 110.11 343.039 110.11 343.039" fill="#0c0d0b"/>
        </g>
        <g>
          <polygon points="118.971 352.057 122.199 350.248 120.126 353.313 118.971 352.057 118.971 352.057" fill="#0c0d0b"/>
          <polygon points="115.836 348.646 113.762 351.711 116.99 349.902 115.836 348.646 115.836 348.646" fill="#0c0d0b"/>
        </g>
        <g>
          <polygon points="124.635 357.604 127.863 355.795 125.789 358.859 124.635 357.604 124.635 357.604" fill="#0c0d0b"/>
          <polygon points="121.499 354.193 119.426 357.258 122.654 355.449 121.499 354.193 121.499 354.193" fill="#0c0d0b"/>
        </g>
        <g>
          <polygon points="130.32 363.172 133.548 361.363 131.475 364.428 130.32 363.172 130.32 363.172" fill="#0c0d0b"/>
          <polygon points="127.185 359.761 125.111 362.826 128.339 361.017 127.185 359.761 127.185 359.761" fill="#0c0d0b"/>
        </g>
        <g>
          <polygon points="136.017 368.751 139.245 366.942 137.172 370.007 136.017 368.751 136.017 368.751" fill="#0c0d0b"/>
          <polygon points="132.882 365.34 130.808 368.405 134.036 366.596 132.882 365.34 132.882 365.34" fill="#0c0d0b"/>
        </g>
        <g>
          <polygon points="141.708 367.225 139.933 363.978 142.976 366.084 141.708 367.225 141.708 367.225" fill="#0c0d0b"/>
          <polygon points="138.265 370.325 141.308 372.43 139.533 369.183 138.265 370.325 138.265 370.325" fill="#0c0d0b"/>
        </g>
        <g>
          <polygon points="147.332 361.601 145.557 358.354 148.6 360.459 147.332 361.601 147.332 361.601" fill="#0c0d0b"/>
          <polygon points="143.889 364.701 146.932 366.806 145.157 363.559 143.889 364.701 143.889 364.701" fill="#0c0d0b"/>
        </g>
        <g>
          <polygon points="152.979 355.954 151.204 352.708 154.247 354.813 152.979 355.954 152.979 355.954" fill="#0c0d0b"/>
          <polygon points="149.536 359.054 152.579 361.159 150.803 357.913 149.536 359.054 149.536 359.054" fill="#0c0d0b"/>
        </g>
        <g>
          <polygon points="158.587 350.346 156.812 347.1 159.855 349.205 158.587 350.346 158.587 350.346" fill="#0c0d0b"/>
          <polygon points="155.144 353.446 158.187 355.551 156.411 352.305 155.144 353.446 155.144 353.446" fill="#0c0d0b"/>
        </g>
        <g>
          <polygon points="164.235 344.698 162.459 341.452 165.502 343.557 164.235 344.698 164.235 344.698" fill="#0c0d0b"/>
          <polygon points="160.791 347.798 163.834 349.904 162.059 346.657 160.791 347.798 160.791 347.798" fill="#0c0d0b"/>
        </g>
        <g>
          <polygon points="169.853 339.08 168.077 335.834 171.12 337.939 169.853 339.08 169.853 339.08" fill="#0c0d0b"/>
          <polygon points="166.409 342.18 169.452 344.286 167.677 341.039 166.409 342.18 166.409 342.18" fill="#0c0d0b"/>
        </g>
        <g>
          <polygon points="175.472 333.461 173.697 330.215 176.74 332.32 175.472 333.461 175.472 333.461" fill="#0c0d0b"/>
          <polygon points="172.029 336.561 175.072 338.666 173.296 335.42 172.029 336.561 172.029 336.561" fill="#0c0d0b"/>
        </g>
        <g>
          <polygon points="181.074 327.859 179.299 324.612 182.342 326.717 181.074 327.859 181.074 327.859" fill="#0c0d0b"/>
          <polygon points="177.631 330.959 180.674 333.064 178.899 329.817 177.631 330.959 177.631 330.959" fill="#0c0d0b"/>
        </g>
        <g>
          <polygon points="186.703 322.23 184.928 318.983 187.971 321.088 186.703 322.23 186.703 322.23" fill="#0c0d0b"/>
          <polygon points="183.26 325.33 186.303 327.435 184.528 324.188 183.26 325.33 183.26 325.33" fill="#0c0d0b"/>
        </g>
        <g>
          <polygon points="192.304 316.629 190.529 313.382 193.572 315.488 192.304 316.629 192.304 316.629" fill="#0c0d0b"/>
          <polygon points="188.861 319.729 191.904 321.834 190.129 318.588 188.861 319.729 188.861 319.729" fill="#0c0d0b"/>
        </g>
        <g>
          <polygon points="197.939 310.994 196.163 307.748 199.206 309.853 197.939 310.994 197.939 310.994" fill="#0c0d0b"/>
          <polygon points="194.496 314.094 197.539 316.2 195.763 312.953 194.496 314.094 194.496 314.094" fill="#0c0d0b"/>
        </g>
        <g>
          <polygon points="203.553 305.38 201.778 302.134 204.821 304.239 203.553 305.38 203.553 305.38" fill="#0c0d0b"/>
          <polygon points="200.11 308.48 203.153 310.585 201.378 307.339 200.11 308.48 200.11 308.48" fill="#0c0d0b"/>
        </g>
        <g>
          <polygon points="209.177 299.756 207.402 296.509 210.445 298.614 209.177 299.756 209.177 299.756" fill="#0c0d0b"/>
          <polygon points="205.734 302.856 208.777 304.961 207.002 301.714 205.734 302.856 205.734 302.856" fill="#0c0d0b"/>
        </g>
        <g>
          <polygon points="214.809 294.124 213.033 290.878 216.077 292.983 214.809 294.124 214.809 294.124" fill="#0c0d0b"/>
          <polygon points="211.366 297.224 214.409 299.33 212.633 296.083 211.366 297.224 211.366 297.224" fill="#0c0d0b"/>
        </g>
        <g>
          <polygon points="220.452 288.481 218.677 285.235 221.72 287.34 220.452 288.481 220.452 288.481" fill="#0c0d0b"/>
          <polygon points="217.009 291.581 220.052 293.686 218.276 290.44 217.009 291.581 217.009 291.581" fill="#0c0d0b"/>
        </g>
        <g>
          <polygon points="226.081 282.852 224.305 279.606 227.349 281.711 226.081 282.852 226.081 282.852" fill="#0c0d0b"/>
          <polygon points="222.638 285.952 225.681 288.058 223.905 284.811 222.638 285.952 222.638 285.952" fill="#0c0d0b"/>
        </g>
        <g>
          <polygon points="228.965 276.089 225.414 275.049 229.055 274.386 228.965 276.089 228.965 276.089" fill="#0c0d0b"/>
          <polygon points="228.723 280.716 232.363 280.053 228.812 279.013 228.723 280.716 228.723 280.716" fill="#0c0d0b"/>
        </g>
        <g>
          <polygon points="228.965 268.097 225.414 267.056 229.055 266.393 228.965 268.097 228.965 268.097" fill="#0c0d0b"/>
          <polygon points="228.723 272.723 232.363 272.06 228.812 271.02 228.723 272.723 228.723 272.723" fill="#0c0d0b"/>
        </g>
        <g>
          <polygon points="228.965 260.136 225.414 259.095 229.055 258.432 228.965 260.136 228.965 260.136" fill="#0c0d0b"/>
          <polygon points="228.723 264.762 232.363 264.099 228.812 263.059 228.723 264.762 228.723 264.762" fill="#0c0d0b"/>
        </g>
        <g>
          <polygon points="228.965 252.204 225.414 251.163 229.055 250.5 228.965 252.204 228.965 252.204" fill="#0c0d0b"/>
          <polygon points="228.723 256.83 232.363 256.167 228.812 255.127 228.723 256.83 228.723 256.83" fill="#0c0d0b"/>
        </g>
      </g>
    </g>
  </g>
  <g id="Hojas">
    <path d="M269.061,72.325c-6.889-.919-14.028.54-20.021,3.938,0,0-.308.175-.308.175-.788.445-1.327,1.077-1.753,1.924-.568,1.146-.838,2.513-1.045,3.858-.22,1.439-.387,3.09-.683,4.486-.324,1.512-.818,3.027-1.971,3.979l-9.071,5.191-8.905-5.096c-1.239-.944-1.756-2.511-2.091-4.074-.295-1.396-.463-3.047-.683-4.486-.208-1.345-.477-2.713-1.045-3.858-.425-.847-.964-1.479-1.753-1.924,0,0-.308-.175-.308-.175-5.994-3.398-13.132-4.857-20.021-3.938-1.489.205-3.007.494-4.451.978.302,1.492.811,2.952,1.378,4.344,2.649,6.425,7.481,11.878,13.421,15.37,0,0,.306.179.306.179.779.46,1.597.611,2.543.556,1.276-.079,2.596-.531,3.864-1.024,1.356-.529,2.87-1.209,4.226-1.652,1.398-.452,2.876-.773,4.222-.355l9.292,5.318.004-.008.004.008,9.23-5.282c1.375-.471,2.894-.146,4.331.319,1.356.442,2.87,1.122,4.226,1.652,1.268.493,2.588.945,3.864,1.024.946.056,1.764-.095,2.543-.556,0,0,.306-.179.306-.179,5.94-3.492,10.773-8.945,13.421-15.37.567-1.392,1.076-2.852,1.378-4.344-1.444-.484-2.962-.773-4.451-.978Z" fill="#0c0d0b"/>
    <path d="M269.061,102.178c-6.889-.919-14.028.54-20.021,3.938,0,0-.308.175-.308.175-.788.445-1.327,1.077-1.753,1.924-.568,1.146-.838,2.513-1.045,3.858-.22,1.439-.387,3.09-.683,4.486-.324,1.512-.818,3.027-1.971,3.979l-9.071,5.191-8.905-5.096c-1.239-.944-1.756-2.511-2.091-4.074-.295-1.396-.463-3.047-.683-4.486-.208-1.345-.477-2.713-1.045-3.858-.425-.847-.964-1.479-1.753-1.924,0,0-.308-.175-.308-.175-5.994-3.398-13.132-4.857-20.021-3.938-1.489.205-3.007.494-4.451.978.302,1.492.811,2.952,1.378,4.344,2.649,6.425,7.481,11.878,13.421,15.37,0,0,.306.179.306.179.779.46,1.597.611,2.543.556,1.276-.079,2.596-.531,3.864-1.024,1.356-.529,2.87-1.209,4.226-1.652,1.398-.452,2.876-.773,4.222-.355l9.292,5.318.004-.008.004.008,9.23-5.282c1.375-.471,2.894-.146,4.331.319,1.356.442,2.87,1.122,4.226,1.652,1.268.493,2.588.945,3.864,1.024.946.056,1.764-.095,2.543-.556,0,0,.306-.179.306-.179,5.94-3.492,10.773-8.945,13.421-15.37.567-1.392,1.076-2.852,1.378-4.344-1.444-.484-2.962-.773-4.451-.978Z" fill="#0c0d0b"/>
    <path d="M75.875,72.325c-6.889-.919-14.028.54-20.021,3.938,0,0-.308.175-.308.175-.788.445-1.327,1.077-1.753,1.924-.568,1.146-.838,2.513-1.045,3.858-.22,1.439-.387,3.09-.683,4.486-.324,1.512-.818,3.027-1.971,3.979l-9.071,5.191-8.905-5.096c-1.239-.944-1.756-2.511-2.091-4.074-.295-1.396-.463-3.047-.683-4.486-.208-1.345-.477-2.713-1.045-3.858-.425-.847-.964-1.479-1.753-1.924,0,0-.308-.175-.308-.175-5.994-3.398-13.132-4.857-20.021-3.938-1.489.205-3.007.494-4.451.978.302,1.492.811,2.952,1.378,4.344,2.649,6.425,7.481,11.878,13.421,15.37,0,0,.306.179.306.179.779.46,1.597.611,2.543.556,1.276-.079,2.596-.531,3.864-1.024,1.356-.529,2.87-1.209,4.226-1.652,1.398-.452,2.876-.773,4.222-.355l9.292,5.318.004-.008.004.008,9.23-5.282c1.375-.471,2.894-.146,4.331.319,1.356.442,2.87,1.122,4.226,1.652,1.268.493,2.588.945,3.864,1.024.946.056,1.764-.095,2.543-.556,0,0,.306-.179.306-.179,5.94-3.492,10.773-8.945,13.421-15.37.567-1.392,1.076-2.852,1.378-4.344-1.444-.484-2.962-.773-4.451-.978Z" fill="#0c0d0b"/>
    <path d="M75.875,102.178c-6.889-.919-14.028.54-20.021,3.938,0,0-.308.175-.308.175-.788.445-1.327,1.077-1.753,1.924-.568,1.146-.838,2.513-1.045,3.858-.22,1.439-.387,3.09-.683,4.486-.324,1.512-.818,3.027-1.971,3.979l-9.071,5.191-8.905-5.096c-1.239-.944-1.756-2.511-2.091-4.074-.295-1.396-.463-3.047-.683-4.486-.208-1.345-.477-2.713-1.045-3.858-.425-.847-.964-1.479-1.753-1.924,0,0-.308-.175-.308-.175-5.994-3.398-13.132-4.857-20.021-3.938-1.489.205-3.007.494-4.451.978.302,1.492.811,2.952,1.378,4.344,2.649,6.425,7.481,11.878,13.421,15.37,0,0,.306.179.306.179.779.46,1.597.611,2.543.556,1.276-.079,2.596-.531,3.864-1.024,1.356-.529,2.87-1.209,4.226-1.652,1.398-.452,2.876-.773,4.222-.355l9.292,5.318.004-.008.004.008,9.23-5.282c1.375-.471,2.894-.146,4.331.319,1.356.442,2.87,1.122,4.226,1.652,1.268.493,2.588.945,3.864,1.024.946.056,1.764-.095,2.543-.556,0,0,.306-.179.306-.179,5.94-3.492,10.773-8.945,13.421-15.37.567-1.392,1.076-2.852,1.378-4.344-1.444-.484-2.962-.773-4.451-.978Z" fill="#0c0d0b"/>
    <path d="M171.682,99.035c-6.889-.919-14.028.54-20.021,3.938,0,0-.308.175-.308.175-.788.445-1.327,1.077-1.753,1.924-.568,1.146-.838,2.513-1.045,3.858-.22,1.439-.387,3.09-.683,4.486-.324,1.512-.818,3.027-1.971,3.979l-9.071,5.191-8.905-5.096c-1.239-.944-1.756-2.511-2.091-4.074-.295-1.396-.463-3.047-.683-4.486-.208-1.345-.477-2.713-1.045-3.858-.425-.847-.964-1.479-1.753-1.924,0,0-.308-.175-.308-.175-5.994-3.398-13.132-4.857-20.021-3.938-1.489.205-3.007.494-4.451.978.302,1.492.811,2.952,1.378,4.344,2.649,6.425,7.481,11.878,13.421,15.37,0,0,.306.179.306.179.779.46,1.597.611,2.543.556,1.276-.079,2.596-.531,3.864-1.024,1.356-.529,2.87-1.209,4.226-1.652,1.398-.452,2.876-.773,4.222-.355l9.292,5.318.004-.008.004.008,9.23-5.282c1.375-.471,2.894-.146,4.331.319,1.356.442,2.87,1.122,4.226,1.652,1.268.493,2.588.945,3.864,1.024.946.056,1.764-.095,2.543-.556,0,0,.306-.179.306-.179,5.94-3.492,10.773-8.945,13.421-15.37.567-1.392,1.076-2.852,1.378-4.344-1.444-.484-2.962-.773-4.451-.978Z" fill="#0c0d0b"/>
    <path d="M171.682,128.888c-6.889-.919-14.028.54-20.021,3.938,0,0-.308.175-.308.175-.788.445-1.327,1.077-1.753,1.924-.568,1.146-.838,2.513-1.045,3.858-.22,1.439-.387,3.09-.683,4.486-.324,1.512-.818,3.027-1.971,3.979l-9.071,5.191-8.905-5.096c-1.239-.944-1.756-2.511-2.091-4.074-.295-1.396-.463-3.047-.683-4.486-.208-1.345-.477-2.713-1.045-3.858-.425-.847-.964-1.479-1.753-1.924,0,0-.308-.175-.308-.175-5.994-3.398-13.132-4.857-20.021-3.938-1.489.205-3.007.494-4.451.978.302,1.492.811,2.952,1.378,4.344,2.649,6.425,7.481,11.878,13.421,15.37,0,0,.306.179.306.179.779.46,1.597.611,2.543.556,1.276-.079,2.596-.531,3.864-1.024,1.356-.529,2.87-1.209,4.226-1.652,1.398-.452,2.876-.773,4.222-.355l9.292,5.318.004-.008.004.008,9.23-5.282c1.375-.471,2.894-.146,4.331.319,1.356.442,2.87,1.122,4.226,1.652,1.268.493,2.588.945,3.864,1.024.946.056,1.764-.095,2.543-.556,0,0,.306-.179.306-.179,5.94-3.492,10.773-8.945,13.421-15.37.567-1.392,1.076-2.852,1.378-4.344-1.444-.484-2.962-.773-4.451-.978Z" fill="#0c0d0b"/>
    <path d="M111.903,181.669c-5.511-.735-11.222.432-16.017,3.151,0,0-.246.14-.246.14-.631.356-1.062.862-1.402,1.54-.455.917-.67,2.01-.836,3.087-.176,1.151-.31,2.472-.546,3.589-.259,1.21-.654,2.422-1.577,3.183l-7.257,4.153-7.124-4.077c-.991-.755-1.404-2.009-1.673-3.259-.236-1.117-.371-2.437-.546-3.589-.166-1.076-.381-2.17-.836-3.087-.34-.678-.772-1.184-1.402-1.54,0,0-.246-.14-.246-.14-4.795-2.719-10.506-3.886-16.017-3.151-1.191.164-2.406.395-3.561.783.242,1.194.649,2.362,1.103,3.475,2.119,5.14,5.985,9.503,10.737,12.296,0,0,.244.143.244.144.623.368,1.278.489,2.034.444,1.021-.064,2.077-.425,3.091-.819,1.085-.424,2.296-.967,3.381-1.321,1.119-.362,2.301-.618,3.378-.284l7.434,4.254.004-.006.004.006,7.384-4.225c1.1-.377,2.316-.116,3.465.255,1.085.354,2.296.898,3.381,1.321,1.014.395,2.07.756,3.091.819.757.044,1.411-.076,2.034-.444,0,0,.244-.144.244-.144,4.752-2.793,8.618-7.156,10.737-12.296.454-1.113.861-2.281,1.103-3.475-1.155-.387-2.37-.619-3.561-.783Z" fill="#0c0d0b"/>
    <path d="M111.903,159.672c-5.511-.735-11.222.432-16.017,3.151,0,0-.246.14-.246.14-.631.356-1.062.862-1.402,1.54-.455.917-.67,2.01-.836,3.087-.176,1.151-.31,2.472-.546,3.589-.259,1.21-.654,2.422-1.577,3.183l-7.257,4.153-7.124-4.077c-.991-.755-1.404-2.009-1.673-3.259-.236-1.117-.371-2.437-.546-3.589-.166-1.076-.381-2.17-.836-3.087-.34-.678-.772-1.184-1.402-1.54,0,0-.246-.14-.246-.14-4.795-2.719-10.506-3.886-16.017-3.151-1.191.164-2.406.395-3.561.783.242,1.194.649,2.362,1.103,3.475,2.119,5.14,5.985,9.503,10.737,12.296,0,0,.244.143.244.144.623.368,1.278.489,2.034.444,1.021-.064,2.077-.425,3.091-.819,1.085-.424,2.296-.967,3.381-1.321,1.119-.362,2.301-.618,3.378-.284l7.434,4.254.004-.006.004.006,7.384-4.225c1.1-.377,2.316-.116,3.465.255,1.085.354,2.296.898,3.381,1.321,1.014.395,2.07.756,3.091.819.757.044,1.411-.076,2.034-.444,0,0,.244-.144.244-.144,4.752-2.793,8.618-7.156,10.737-12.296.454-1.113.861-2.281,1.103-3.475-1.155-.387-2.37-.619-3.561-.783Z" fill="#0c0d0b"/>
    <path d="M218.316,181.669c-5.511-.735-11.222.432-16.017,3.151,0,0-.246.14-.246.14-.631.356-1.062.862-1.402,1.54-.455.917-.67,2.01-.836,3.087-.176,1.151-.31,2.472-.546,3.589-.259,1.21-.654,2.422-1.577,3.183l-7.257,4.153-7.124-4.077c-.991-.755-1.404-2.009-1.673-3.259-.236-1.117-.371-2.437-.546-3.589-.166-1.076-.381-2.17-.836-3.087-.34-.678-.772-1.184-1.402-1.54,0,0-.246-.14-.246-.14-4.795-2.719-10.506-3.886-16.017-3.151-1.191.164-2.406.395-3.561.783.242,1.194.649,2.362,1.103,3.475,2.119,5.14,5.985,9.503,10.737,12.296,0,0,.244.143.244.144.623.368,1.278.489,2.034.444,1.021-.064,2.077-.425,3.091-.819,1.085-.424,2.296-.967,3.381-1.321,1.119-.362,2.301-.618,3.378-.284l7.434,4.254.004-.006.004.006,7.384-4.225c1.1-.377,2.316-.116,3.465.255,1.085.354,2.296.898,3.381,1.321,1.014.395,2.07.756,3.091.819.757.044,1.411-.076,2.034-.444,0,0,.244-.144.244-.144,4.752-2.793,8.618-7.156,10.737-12.296.454-1.113.861-2.281,1.103-3.475-1.155-.387-2.37-.619-3.561-.783Z" fill="#0c0d0b"/>
    <path d="M218.316,159.672c-5.511-.735-11.222.432-16.017,3.151,0,0-.246.14-.246.14-.631.356-1.062.862-1.402,1.54-.455.917-.67,2.01-.836,3.087-.176,1.151-.31,2.472-.546,3.589-.259,1.21-.654,2.422-1.577,3.183l-7.257,4.153-7.124-4.077c-.991-.755-1.404-2.009-1.673-3.259-.236-1.117-.371-2.437-.546-3.589-.166-1.076-.381-2.17-.836-3.087-.34-.678-.772-1.184-1.402-1.54,0,0-.246-.14-.246-.14-4.795-2.719-10.506-3.886-16.017-3.151-1.191.164-2.406.395-3.561.783.242,1.194.649,2.362,1.103,3.475,2.119,5.14,5.985,9.503,10.737,12.296,0,0,.244.143.244.144.623.368,1.278.489,2.034.444,1.021-.064,2.077-.425,3.091-.819,1.085-.424,2.296-.967,3.381-1.321,1.119-.362,2.301-.618,3.378-.284l7.434,4.254.004-.006.004.006,7.384-4.225c1.1-.377,2.316-.116,3.465.255,1.085.354,2.296.898,3.381,1.321,1.014.395,2.07.756,3.091.819.757.044,1.411-.076,2.034-.444,0,0,.244-.144.244-.144,4.752-2.793,8.618-7.156,10.737-12.296.454-1.113.861-2.281,1.103-3.475-1.155-.387-2.37-.619-3.561-.783Z" fill="#0c0d0b"/>
    <path d="M171.682,232.588c-6.889-.919-14.028.54-20.021,3.938,0,0-.308.175-.308.175-.788.445-1.327,1.077-1.753,1.924-.568,1.146-.838,2.513-1.045,3.858-.22,1.439-.387,3.09-.683,4.486-.324,1.512-.818,3.027-1.971,3.979l-9.071,5.191-8.905-5.096c-1.239-.944-1.756-2.511-2.091-4.074-.295-1.396-.463-3.047-.683-4.486-.208-1.345-.477-2.713-1.045-3.858-.425-.847-.964-1.479-1.753-1.924,0,0-.308-.175-.308-.175-5.994-3.398-13.132-4.857-20.021-3.938-1.489.205-3.007.494-4.451.978.302,1.492.811,2.952,1.378,4.344,2.649,6.425,7.481,11.878,13.421,15.37,0,0,.306.179.306.179.779.46,1.597.611,2.543.556,1.276-.079,2.596-.531,3.864-1.024,1.356-.529,2.87-1.209,4.226-1.652,1.398-.452,2.876-.773,4.222-.355l9.292,5.318.004-.008.004.008,9.23-5.282c1.375-.471,2.894-.146,4.331.319,1.356.442,2.87,1.122,4.226,1.652,1.268.493,2.588.945,3.864,1.024.946.056,1.764-.095,2.543-.556,0,0,.306-.179.306-.179,5.94-3.492,10.773-8.945,13.421-15.37.567-1.392,1.076-2.852,1.378-4.344-1.444-.484-2.962-.773-4.451-.978Z" fill="#0c0d0b"/>
    <path d="M171.682,392.065c-6.889-.919-14.028.54-20.021,3.938,0,0-.308.175-.308.175-.788.445-1.327,1.077-1.753,1.924-.568,1.146-.838,2.513-1.045,3.858-.22,1.439-.387,3.09-.683,4.486-.324,1.512-.818,3.027-1.971,3.979l-9.071,5.191-8.905-5.096c-1.239-.944-1.756-2.511-2.091-4.074-.295-1.396-.463-3.047-.683-4.486-.208-1.345-.477-2.713-1.045-3.858-.425-.847-.964-1.479-1.753-1.924,0,0-.308-.175-.308-.175-5.994-3.398-13.132-4.857-20.021-3.938-1.489.205-3.007.494-4.451.978.302,1.492.811,2.952,1.378,4.344,2.649,6.425,7.481,11.878,13.421,15.37,0,0,.306.179.306.179.779.46,1.597.611,2.543.556,1.276-.079,2.596-.531,3.864-1.024,1.356-.529,2.87-1.209,4.226-1.652,1.398-.452,2.876-.773,4.222-.355l9.292,5.318.004-.008.004.008,9.23-5.282c1.375-.471,2.894-.146,4.331.319,1.356.442,2.87,1.122,4.226,1.652,1.268.493,2.588.945,3.864,1.024.946.056,1.764-.095,2.543-.556,0,0,.306-.179.306-.179,5.94-3.492,10.773-8.945,13.421-15.37.567-1.392,1.076-2.852,1.378-4.344-1.444-.484-2.962-.773-4.451-.978Z" fill="#0c0d0b"/>
    <path d="M85.38,269.528c-5.521,4.221-9.537,10.301-11.372,16.942,0,0-.094.342-.094.342-.243.872-.177,1.7.122,2.6.408,1.212,1.185,2.369,1.989,3.467.862,1.173,1.911,2.459,2.689,3.655.84,1.298,1.562,2.719,1.42,4.207l-2.744,10.085-9.9,2.693c-1.544.209-3.017-.534-4.359-1.402-1.196-.778-2.482-1.827-3.655-2.689-1.098-.805-2.255-1.581-3.467-1.989-.9-.298-1.728-.364-2.6-.122,0,0-.342.094-.342.094-6.641,1.835-12.721,5.852-16.942,11.372-.908,1.198-1.777,2.476-2.456,3.839,1.269.841,2.661,1.514,4.046,2.097,6.416,2.671,13.689,3.109,20.358,1.378,0,0,.343-.089.343-.089.877-.225,1.561-.697,2.191-1.405.846-.958,1.46-2.211,2.008-3.456.584-1.333,1.174-2.885,1.821-4.156.669-1.309,1.487-2.58,2.735-3.236l10.331-2.81-.002-.009.009.002,2.792-10.261c.639-1.305,1.944-2.15,3.288-2.837,1.272-.646,2.823-1.236,4.156-1.821,1.245-.548,2.498-1.162,3.456-2.008.708-.63,1.18-1.314,1.405-2.191,0,0,.089-.343.089-.343,1.731-6.669,1.293-13.942-1.378-20.358-.583-1.385-1.256-2.777-2.097-4.046-1.363.678-2.642,1.548-3.839,2.456Z" fill="#0c0d0b"/>
    <path d="M119.161,302.523c-5.521,4.221-9.537,10.301-11.372,16.942,0,0-.094.342-.094.342-.243.872-.177,1.7.122,2.6.408,1.212,1.185,2.369,1.989,3.467.862,1.173,1.911,2.459,2.689,3.655.84,1.298,1.562,2.719,1.42,4.207l-2.744,10.085-9.9,2.693c-1.544.209-3.017-.534-4.359-1.402-1.196-.778-2.482-1.827-3.655-2.689-1.098-.805-2.255-1.581-3.467-1.989-.9-.298-1.728-.364-2.6-.122,0,0-.342.094-.342.094-6.641,1.835-12.721,5.852-16.942,11.372-.908,1.198-1.777,2.476-2.456,3.839,1.269.841,2.661,1.514,4.046,2.097,6.416,2.671,13.689,3.109,20.358,1.378,0,0,.343-.089.343-.089.877-.225,1.561-.697,2.191-1.405.846-.958,1.46-2.211,2.008-3.456.584-1.333,1.174-2.885,1.821-4.156.669-1.309,1.487-2.58,2.735-3.236l10.331-2.81-.002-.009.009.002,2.792-10.261c.639-1.305,1.944-2.15,3.288-2.837,1.272-.646,2.823-1.236,4.156-1.821,1.245-.548,2.498-1.162,3.456-2.008.708-.63,1.18-1.314,1.405-2.191,0,0,.089-.343.089-.343,1.731-6.669,1.293-13.942-1.378-20.358-.583-1.385-1.256-2.777-2.097-4.046-1.363.678-2.642,1.548-3.839,2.456Z" fill="#0c0d0b"/>
    <path d="M189.796,269.528c5.521,4.221,9.537,10.301,11.372,16.942,0,0,.094.342.094.342.243.872.177,1.7-.122,2.6-.408,1.212-1.185,2.369-1.989,3.467-.862,1.173-1.911,2.459-2.689,3.655-.84,1.298-1.562,2.719-1.42,4.207l2.744,10.085,9.9,2.693c1.544.209,3.017-.534,4.359-1.402,1.196-.778,2.482-1.827,3.655-2.689,1.098-.805,2.255-1.581,3.467-1.989.9-.298,1.728-.364,2.6-.122,0,0,.342.094.342.094,6.641,1.835,12.721,5.852,16.942,11.372.908,1.198,1.777,2.476,2.456,3.839-1.269.841-2.661,1.514-4.046,2.097-6.416,2.671-13.689,3.109-20.358,1.378,0,0-.343-.089-.343-.089-.877-.225-1.561-.697-2.191-1.405-.846-.958-1.46-2.211-2.008-3.456-.584-1.333-1.174-2.885-1.821-4.156-.669-1.309-1.487-2.58-2.735-3.236l-10.331-2.81.002-.009-.009.002-2.792-10.261c-.639-1.305-1.944-2.15-3.288-2.837-1.272-.646-2.823-1.236-4.156-1.821-1.245-.548-2.498-1.162-3.456-2.008-.708-.63-1.18-1.314-1.405-2.191,0,0-.089-.343-.089-.343-1.731-6.669-1.293-13.942,1.378-20.358.583-1.385,1.256-2.777,2.097-4.046,1.363.678,2.642,1.548,3.839,2.456Z" fill="#0c0d0b"/>
    <path d="M156.015,302.523c5.521,4.221,9.537,10.301,11.372,16.942,0,0,.094.342.094.342.243.872.177,1.7-.122,2.6-.408,1.212-1.185,2.369-1.989,3.467-.862,1.173-1.911,2.459-2.689,3.655-.84,1.298-1.562,2.719-1.42,4.207l2.744,10.085,9.9,2.693c1.544.209,3.017-.534,4.359-1.402,1.196-.778,2.482-1.827,3.655-2.689,1.098-.805,2.255-1.581,3.467-1.989.9-.298,1.728-.364,2.6-.122,0,0,.342.094.342.094,6.641,1.835,12.721,5.852,16.942,11.372.908,1.198,1.777,2.476,2.456,3.839-1.269.841-2.661,1.514-4.046,2.097-6.416,2.671-13.689,3.109-20.358,1.378,0,0-.343-.089-.343-.089-.877-.225-1.561-.697-2.191-1.405-.846-.958-1.46-2.211-2.008-3.456-.584-1.333-1.174-2.885-1.821-4.156-.669-1.309-1.487-2.58-2.735-3.236l-10.331-2.81.002-.009-.009.002-2.792-10.261c-.639-1.305-1.944-2.15-3.288-2.837-1.272-.646-2.823-1.236-4.156-1.821-1.245-.548-2.498-1.162-3.456-2.008-.708-.63-1.18-1.314-1.405-2.191,0,0-.089-.343-.089-.343-1.731-6.669-1.293-13.942,1.378-20.358.583-1.385,1.256-2.777,2.097-4.046,1.363.678,2.642,1.548,3.839,2.456Z" fill="#0c0d0b"/>
  </g>
  <g id="Flores">
    <g>
      <g>
        <ellipse cx="137.383" cy="8.331" rx="10.184" ry="7.129" fill="#0c0d0b"/>
        <path d="M163.678,55.663c-8.137-3.745-18.033,1.345-22.881,8.276-1.036,1.259-1.974,3.236-2.542,3.677v-7.757c2.226-6.346,9.27-9.153,16.477-11.675,4.927-1.607,16.257-4.745,14.304-11.414-3.821-5.574-12.97-4.911-18.365-1.396-6.042,3.793-9.549,9.766-12.416,14.13v-10.114c2.333-5.632,8.28-8.426,16.27-11.266,3.383-1.22,6.167-1.117,7.881-3.061,8.549-15.47-10.022-24.322-21.242-1.164-.611,1.37-2.231,4.295-2.91,6.201v-11.73h-1.746v15.272c-1.763-4.588-4.877-15.072-9.894-16.993-8.515-1.919-6.223,8.089-3.071,12.384,2.304,3.637,6.068,7.082,8.977,9.572,2.925,2.237,4.003,4.832,3.987,8.573-.038,1.161-.018,2.445,0,3.759v3.605c-.032,1.206-.112,2.366-.291,3.403-.265.46-1.511-.478-1.78-.845-3.891-6.354-7.969-15.992-12.938-22.259-4.542-6.847-16.221-1.484-11.238,6.488,2.939,5.24,8.481,8.066,13.191,11.951,3.268,3.195,10.816,6.52,13.055,10.973v4.167c-1.192.792-3.685-.497-5.298-1.478-7.542-4.966-40.249-27.714-37.832-5.917,3.206,13.194,16.164,16.955,27.606,15.966,13.479-.287,29.8.588,40.261-.374,11.936-3.442,15.114-15.309,2.432-20.954Z" fill="#0c0d0b"/>
      </g>
      <circle cx="137.383" cy="9.059" r="3.201" fill="#cb1e1a"/>
    </g>
    <g>
      <g>
        <polygon points="242.258 232.862 229.23 245.89 229.23 241.854 229.23 241.809 229.23 197.798 229.015 197.798 229.015 241.594 216.006 228.585 215.854 228.737 229.015 241.898 229.015 265.442 229.034 265.442 229.034 269.719 229.249 269.719 229.249 246.175 242.41 233.014 242.258 232.862" fill="#0c0d0b"/>
        <circle cx="215.844" cy="228.301" r="3.756" fill="#0c0d0b"/>
        <circle cx="229.123" cy="197.798" r="4.695" fill="#0c0d0b"/>
        <circle cx="235.496" cy="212.67" r="4.695" fill="#0c0d0b"/>
        <g>
          <circle cx="240.958" cy="234.736" r="2.504" fill="#0c0d0b"/>
          <circle cx="241.908" cy="228.566" r="2.504" fill="#0c0d0b"/>
          <circle cx="248.167" cy="234.598" r="3.756" fill="#0c0d0b"/>
          <circle cx="250.064" cy="225.038" r="4.695" fill="#0c0d0b"/>
        </g>
        <g>
          <circle cx="228.894" cy="253.023" r="2.504" fill="#0c0d0b"/>
          <circle cx="229.843" cy="246.852" r="2.504" fill="#0c0d0b"/>
          <circle cx="236.103" cy="252.885" r="3.756" fill="#0c0d0b"/>
          <circle cx="238" cy="243.324" r="4.695" fill="#0c0d0b"/>
        </g>
        <g>
          <circle cx="226.694" cy="232.764" r="2.504" fill="#0c0d0b"/>
          <circle cx="227.643" cy="226.593" r="2.504" fill="#0c0d0b"/>
          <circle cx="233.903" cy="232.626" r="3.756" fill="#0c0d0b"/>
          <circle cx="235.8" cy="223.065" r="4.695" fill="#0c0d0b"/>
        </g>
        <g>
          <circle cx="225.243" cy="212.505" r="2.504" fill="#0c0d0b"/>
          <circle cx="224.294" cy="206.335" r="2.504" fill="#0c0d0b"/>
          <circle cx="218.034" cy="212.367" r="3.756" fill="#0c0d0b"/>
          <circle cx="216.137" cy="202.806" r="4.695" fill="#0c0d0b"/>
        </g>
        <circle cx="223.65" cy="248.698" r="2.504" fill="#0c0d0b"/>
        <circle cx="222.701" cy="242.527" r="2.504" fill="#0c0d0b"/>
        <circle cx="221.8" cy="221.282" r="2.504" fill="#0c0d0b"/>
        <circle cx="235.155" cy="203.831" r="2.504" fill="#0c0d0b"/>
        <circle cx="244.412" cy="218.399" r="2.504" fill="#0c0d0b"/>
        <circle cx="233.789" cy="261.421" r="2.504" fill="#0c0d0b"/>
        <circle cx="228.857" cy="269.16" r="2.504" fill="#0c0d0b"/>
        <circle cx="224.456" cy="258.917" r="2.504" fill="#0c0d0b"/>
        <circle cx="220.207" cy="254.895" r="2.504" fill="#0c0d0b"/>
        <circle cx="212.695" cy="221.282" r="2.504" fill="#0c0d0b"/>
        <circle cx="216.441" cy="248.56" r="3.756" fill="#0c0d0b"/>
        <circle cx="214.544" cy="238.999" r="4.695" fill="#0c0d0b"/>
      </g>
      <circle cx="229.162" cy="197.817" r="3.142" fill="#cb1e1a"/>
      <circle cx="216.199" cy="202.924" r="3.142" fill="#cb1e1a"/>
      <circle cx="235.447" cy="212.744" r="3.142" fill="#cb1e1a"/>
      <circle cx="214.628" cy="239.061" r="3.142" fill="#cb1e1a"/>
      <circle cx="238.196" cy="243.382" r="3.142" fill="#cb1e1a"/>
    </g>
    <g>
      <g>
        <polygon points="60.427 232.862 47.399 245.89 47.399 241.854 47.399 241.809 47.399 197.798 47.184 197.798 47.184 241.594 34.175 228.585 34.023 228.737 47.184 241.898 47.184 265.442 47.203 265.442 47.203 269.719 47.418 269.719 47.418 246.175 60.579 233.014 60.427 232.862" fill="#0c0d0b"/>
        <circle cx="34.013" cy="228.301" r="3.756" fill="#0c0d0b"/>
        <circle cx="47.291" cy="197.798" r="4.695" fill="#0c0d0b"/>
        <circle cx="53.665" cy="212.67" r="4.695" fill="#0c0d0b"/>
        <g>
          <circle cx="59.127" cy="234.736" r="2.504" fill="#0c0d0b"/>
          <circle cx="60.077" cy="228.566" r="2.504" fill="#0c0d0b"/>
          <circle cx="66.336" cy="234.598" r="3.756" fill="#0c0d0b"/>
          <circle cx="68.233" cy="225.038" r="4.695" fill="#0c0d0b"/>
        </g>
        <g>
          <circle cx="47.063" cy="253.023" r="2.504" fill="#0c0d0b"/>
          <circle cx="48.012" cy="246.852" r="2.504" fill="#0c0d0b"/>
          <circle cx="54.272" cy="252.885" r="3.756" fill="#0c0d0b"/>
          <circle cx="56.169" cy="243.324" r="4.695" fill="#0c0d0b"/>
        </g>
        <g>
          <circle cx="44.863" cy="232.764" r="2.504" fill="#0c0d0b"/>
          <circle cx="45.812" cy="226.593" r="2.504" fill="#0c0d0b"/>
          <circle cx="52.072" cy="232.626" r="3.756" fill="#0c0d0b"/>
          <circle cx="53.969" cy="223.065" r="4.695" fill="#0c0d0b"/>
        </g>
        <g>
          <circle cx="43.412" cy="212.505" r="2.504" fill="#0c0d0b"/>
          <circle cx="42.463" cy="206.335" r="2.504" fill="#0c0d0b"/>
          <circle cx="36.203" cy="212.367" r="3.756" fill="#0c0d0b"/>
          <circle cx="34.306" cy="202.806" r="4.695" fill="#0c0d0b"/>
        </g>
        <circle cx="41.819" cy="248.698" r="2.504" fill="#0c0d0b"/>
        <circle cx="40.87" cy="242.527" r="2.504" fill="#0c0d0b"/>
        <circle cx="39.969" cy="221.282" r="2.504" fill="#0c0d0b"/>
        <circle cx="53.324" cy="203.831" r="2.504" fill="#0c0d0b"/>
        <circle cx="62.58" cy="218.399" r="2.504" fill="#0c0d0b"/>
        <circle cx="51.958" cy="261.421" r="2.504" fill="#0c0d0b"/>
        <circle cx="47.026" cy="269.16" r="2.504" fill="#0c0d0b"/>
        <circle cx="42.625" cy="258.917" r="2.504" fill="#0c0d0b"/>
        <circle cx="38.376" cy="254.895" r="2.504" fill="#0c0d0b"/>
        <circle cx="30.864" cy="221.282" r="2.504" fill="#0c0d0b"/>
        <circle cx="34.61" cy="248.56" r="3.756" fill="#0c0d0b"/>
        <circle cx="32.713" cy="238.999" r="4.695" fill="#0c0d0b"/>
      </g>
      <circle cx="47.331" cy="197.817" r="3.142" fill="#cb1e1a"/>
      <circle cx="34.368" cy="202.924" r="3.142" fill="#cb1e1a"/>
      <circle cx="53.615" cy="212.744" r="3.142" fill="#cb1e1a"/>
      <circle cx="32.797" cy="239.061" r="3.142" fill="#cb1e1a"/>
      <circle cx="56.365" cy="243.382" r="3.142" fill="#cb1e1a"/>
    </g>
    <circle cx="41.046" cy="56.551" r="11.784" fill="#e53320"/>
    <circle cx="234.232" cy="56.551" r="11.784" fill="#e53320"/>
  </g>
</svg>