<?xml version="1.0" encoding="UTF-8"?>
<svg xmlns="http://www.w3.org/2000/svg" width="275.651" height="450" viewBox="0 0 275.651 450">
  <g id="Tallo">
    <g>
      <g>
        <line x1="137.464" y1="450" x2="137.464" y2="33.291" fill="none" stroke="#0c0d0b" stroke-miterlimit="10" stroke-width="2.362"/>
        <g>
          <polygon points="137.464 442.379 133.577 441.458 137.464 440.537 137.464 442.379 137.464 442.379" fill="#0c0d0b"/>
          <polygon points="137.464 447.379 141.35 446.458 137.464 445.538 137.464 447.379 137.464 447.379" fill="#0c0d0b"/>
        </g>
        <g>
          <polygon points="137.464 427.167 133.577 426.246 137.464 425.326 137.464 427.167 137.464 427.167" fill="#0c0d0b"/>
          <polygon points="137.464 432.167 141.35 431.247 137.464 430.326 137.464 432.167 137.464 432.167" fill="#0c0d0b"/>
        </g>
        <g>
          <polygon points="137.464 411.947 133.577 411.027 137.464 410.106 137.464 411.947 137.464 411.947" fill="#0c0d0b"/>
          <polygon points="137.464 416.948 141.35 416.027 137.464 415.107 137.464 416.948 137.464 416.948" fill="#0c0d0b"/>
        </g>
        <g>
          <polygon points="137.464 396.72 133.577 395.8 137.464 394.879 137.464 396.72 137.464 396.72" fill="#0c0d0b"/>
          <polygon points="137.464 401.721 141.35 400.8 137.464 399.88 137.464 401.721 137.464 401.721" fill="#0c0d0b"/>
        </g>
        <g>
          <polygon points="137.464 381.525 133.577 380.605 137.464 379.684 137.464 381.525 137.464 381.525" fill="#0c0d0b"/>
          <polygon points="137.464 386.526 141.35 385.605 137.464 384.685 137.464 386.526 137.464 386.526" fill="#0c0d0b"/>
        </g>
        <g>
          <polygon points="137.464 366.277 133.577 365.357 137.464 364.436 137.464 366.277 137.464 366.277" fill="#0c0d0b"/>
          <polygon points="137.464 371.278 141.35 370.357 137.464 369.437 137.464 371.278 137.464 371.278" fill="#0c0d0b"/>
        </g>
        <g>
          <polygon points="137.464 351.131 133.577 350.21 137.464 349.29 137.464 351.131 137.464 351.131" fill="#0c0d0b"/>
          <polygon points="137.464 356.131 141.35 355.211 137.464 354.29 137.464 356.131 137.464 356.131" fill="#0c0d0b"/>
        </g>
        <g>
          <polygon points="137.464 335.846 133.577 334.925 137.464 334.005 137.464 335.846 137.464 335.846" fill="#0c0d0b"/>
          <polygon points="137.464 340.847 141.35 339.926 137.464 339.005 137.464 340.847 137.464 340.847" fill="#0c0d0b"/>
        </g>
        <g>
          <polygon points="137.464 320.67 133.577 319.749 137.464 318.829 137.464 320.67 137.464 320.67" fill="#0c0d0b"/>
          <polygon points="137.464 325.671 141.35 324.75 137.464 323.829 137.464 325.671 137.464 325.671" fill="#0c0d0b"/>
        </g>
        <g>
          <polygon points="137.464 305.413 133.577 304.492 137.464 303.572 137.464 305.413 137.464 305.413" fill="#0c0d0b"/>
          <polygon points="137.464 310.413 141.35 309.493 137.464 308.572 137.464 310.413 137.464 310.413" fill="#0c0d0b"/>
        </g>
        <g>
          <polygon points="137.464 290.246 133.577 289.325 137.464 288.404 137.464 290.246 137.464 290.246" fill="#0c0d0b"/>
          <polygon points="137.464 295.246 141.35 294.325 137.464 293.405 137.464 295.246 137.464 295.246" fill="#0c0d0b"/>
        </g>
        <g>
          <polygon points="137.464 275.073 133.577 274.152 137.464 273.231 137.464 275.073 137.464 275.073" fill="#0c0d0b"/>
          <polygon points="137.464 280.073 141.35 279.153 137.464 278.232 137.464 280.073 137.464 280.073" fill="#0c0d0b"/>
        </g>
        <g>
          <polygon points="137.464 259.79 133.577 258.869 137.464 257.948 137.464 259.79 137.464 259.79" fill="#0c0d0b"/>
          <polygon points="137.464 264.79 141.35 263.87 137.464 262.949 137.464 264.79 137.464 264.79" fill="#0c0d0b"/>
        </g>
        <g>
          <polygon points="137.464 244.583 133.577 243.663 137.464 242.742 137.464 244.583 137.464 244.583" fill="#0c0d0b"/>
          <polygon points="137.464 249.584 141.35 248.663 137.464 247.743 137.464 249.584 137.464 249.584" fill="#0c0d0b"/>
        </g>
        <g>
          <polygon points="137.464 229.447 133.577 228.526 137.464 227.606 137.464 229.447 137.464 229.447" fill="#0c0d0b"/>
          <polygon points="137.464 234.447 141.35 233.527 137.464 232.606 137.464 234.447 137.464 234.447" fill="#0c0d0b"/>
        </g>
        <g>
          <polygon points="137.464 214.218 133.577 213.297 137.464 212.377 137.464 214.218 137.464 214.218" fill="#0c0d0b"/>
          <polygon points="137.464 219.218 141.35 218.298 137.464 217.377 137.464 219.218 137.464 219.218" fill="#0c0d0b"/>
        </g>
        <g>
          <polygon points="137.464 198.965 133.577 198.044 137.464 197.124 137.464 198.965 137.464 198.965" fill="#0c0d0b"/>
          <polygon points="137.464 203.965 141.35 203.045 137.464 202.124 137.464 203.965 137.464 203.965" fill="#0c0d0b"/>
        </g>
        <g>
          <polygon points="137.464 183.773 133.577 182.853 137.464 181.932 137.464 183.773 137.464 183.773" fill="#0c0d0b"/>
          <polygon points="137.464 188.774 141.35 187.853 137.464 186.933 137.464 188.774 137.464 188.774" fill="#0c0d0b"/>
        </g>
        <g>
          <polygon points="137.464 168.595 133.577 167.674 137.464 166.754 137.464 168.595 137.464 168.595" fill="#0c0d0b"/>
          <polygon points="137.464 173.596 141.35 172.675 137.464 171.754 137.464 173.596 137.464 173.596" fill="#0c0d0b"/>
        </g>
        <g>
          <polygon points="137.464 153.388 133.577 152.467 137.464 151.547 137.464 153.388 137.464 153.388" fill="#0c0d0b"/>
          <polygon points="137.464 158.388 141.35 157.468 137.464 156.547 137.464 158.388 137.464 158.388" fill="#0c0d0b"/>
        </g>
        <g>
          <polygon points="137.464 138.16 133.577 137.239 137.464 136.319 137.464 138.16 137.464 138.16" fill="#0c0d0b"/>
          <polygon points="137.464 143.16 141.35 142.24 137.464 141.319 137.464 143.16 137.464 143.16" fill="#0c0d0b"/>
        </g>
        <g>
          <polygon points="137.464 123.008 133.577 122.087 137.464 121.167 137.464 123.008 137.464 123.008" fill="#0c0d0b"/>
          <polygon points="137.464 128.009 141.35 127.088 137.464 126.167 137.464 128.009 137.464 128.009" fill="#0c0d0b"/>
        </g>
        <g>
          <polygon points="137.464 107.717 133.577 106.796 137.464 105.875 137.464 107.717 137.464 107.717" fill="#0c0d0b"/>
          <polygon points="137.464 112.717 141.35 111.797 137.464 110.876 137.464 112.717 137.464 112.717" fill="#0c0d0b"/>
        </g>
        <g>
          <polygon points="137.464 92.537 133.577 91.616 137.464 90.696 137.464 92.537 137.464 92.537" fill="#0c0d0b"/>
          <polygon points="137.464 97.537 141.35 96.617 137.464 95.696 137.464 97.537 137.464 97.537" fill="#0c0d0b"/>
        </g>
        <g>
          <polygon points="137.464 77.307 133.577 76.387 137.464 75.466 137.464 77.307 137.464 77.307" fill="#0c0d0b"/>
          <polygon points="137.464 82.308 141.35 81.387 137.464 80.467 137.464 82.308 137.464 82.308" fill="#0c0d0b"/>
        </g>
        <g>
          <polygon points="137.464 62.109 133.577 61.188 137.464 60.268 137.464 62.109 137.464 62.109" fill="#0c0d0b"/>
          <polygon points="137.464 67.109 141.35 66.189 137.464 65.268 137.464 67.109 137.464 67.109" fill="#0c0d0b"/>
        </g>
        <g>
          <polygon points="137.464 46.895 133.577 45.975 137.464 45.054 137.464 46.895 137.464 46.895" fill="#0c0d0b"/>
          <polygon points="137.464 51.896 141.35 50.975 137.464 50.054 137.464 51.896 137.464 51.896" fill="#0c0d0b"/>
        </g>
        <g>
          <polygon points="137.464 31.711 133.577 30.79 137.464 29.87 137.464 31.711 137.464 31.711" fill="#0c0d0b"/>
          <polygon points="137.464 36.712 141.35 35.791 137.464 34.87 137.464 36.712 137.464 36.712" fill="#0c0d0b"/>
        </g>
      </g>
      <g>
        <path d="M67.363,314.94v49.002c0,7.807,6.329,14.135,14.135,14.135h113.76c7.807,0,14.135-6.329,14.135-14.135v-49.002" fill="none" stroke="#0c0d0b" stroke-miterlimit="10" stroke-width="1.181"/>
        <g>
          <polygon points="67.399 320.25 63.535 319.241 67.441 318.409 67.399 320.25 67.399 320.25" fill="#0c0d0b"/>
          <polygon points="67.286 325.249 71.192 324.417 67.328 323.408 67.286 325.249 67.286 325.249" fill="#0c0d0b"/>
        </g>
        <g>
          <polygon points="67.399 334.093 63.535 333.084 67.441 332.252 67.399 334.093 67.399 334.093" fill="#0c0d0b"/>
          <polygon points="67.286 339.092 71.192 338.26 67.328 337.251 67.286 339.092 67.286 339.092" fill="#0c0d0b"/>
        </g>
        <g>
          <polygon points="67.399 347.986 63.535 346.977 67.441 346.145 67.399 347.986 67.399 347.986" fill="#0c0d0b"/>
          <polygon points="67.286 352.985 71.192 352.153 67.328 351.145 67.286 352.985 67.286 352.985" fill="#0c0d0b"/>
        </g>
        <g>
          <polygon points="67.399 361.841 63.535 360.833 67.441 360 67.399 361.841 67.399 361.841" fill="#0c0d0b"/>
          <polygon points="67.286 366.84 71.192 366.008 67.328 365 67.286 366.84 67.286 366.84" fill="#0c0d0b"/>
        </g>
        <g>
          <polygon points="71.871 374.362 68.766 376.874 70.414 373.236 71.871 374.362 71.871 374.362" fill="#0c0d0b"/>
          <polygon points="75.827 377.42 77.475 373.782 74.37 376.294 75.827 377.42 75.827 377.42" fill="#0c0d0b"/>
        </g>
        <g>
          <polygon points="84.799 378.042 83.79 381.906 82.958 378 84.799 378.042 84.799 378.042" fill="#0c0d0b"/>
          <polygon points="89.798 378.155 88.966 374.249 87.957 378.114 89.798 378.155 89.798 378.155" fill="#0c0d0b"/>
        </g>
        <g>
          <polygon points="98.707 378.042 97.698 381.906 96.866 378 98.707 378.042 98.707 378.042" fill="#0c0d0b"/>
          <polygon points="103.706 378.155 102.874 374.249 101.865 378.114 103.706 378.155 103.706 378.155" fill="#0c0d0b"/>
        </g>
        <g>
          <polygon points="112.572 378.042 111.564 381.906 110.732 378 112.572 378.042 112.572 378.042" fill="#0c0d0b"/>
          <polygon points="117.572 378.155 116.74 374.249 115.731 378.114 117.572 378.155 117.572 378.155" fill="#0c0d0b"/>
        </g>
        <g>
          <polygon points="126.4 378.042 125.391 381.906 124.559 378 126.4 378.042 126.4 378.042" fill="#0c0d0b"/>
          <polygon points="131.399 378.155 130.567 374.249 129.558 378.114 131.399 378.155 131.399 378.155" fill="#0c0d0b"/>
        </g>
        <g>
          <polygon points="140.245 378.042 139.236 381.906 138.404 378 140.245 378.042 140.245 378.042" fill="#0c0d0b"/>
          <polygon points="145.244 378.155 144.412 374.249 143.403 378.114 145.244 378.155 145.244 378.155" fill="#0c0d0b"/>
        </g>
        <g>
          <polygon points="154.077 378.042 153.069 381.906 152.237 378 154.077 378.042 154.077 378.042" fill="#0c0d0b"/>
          <polygon points="159.077 378.155 158.245 374.249 157.236 378.114 159.077 378.155 159.077 378.155" fill="#0c0d0b"/>
        </g>
        <g>
          <polygon points="167.99 378.042 166.981 381.906 166.149 378 167.99 378.042 167.99 378.042" fill="#0c0d0b"/>
          <polygon points="172.989 378.155 172.157 374.249 171.148 378.114 172.989 378.155 172.989 378.155" fill="#0c0d0b"/>
        </g>
        <g>
          <polygon points="181.805 378.042 180.796 381.906 179.964 378 181.805 378.042 181.805 378.042" fill="#0c0d0b"/>
          <polygon points="186.804 378.155 185.972 374.249 184.963 378.114 186.804 378.155 186.804 378.155" fill="#0c0d0b"/>
        </g>
        <g>
          <polygon points="195.647 378.124 195.178 382.091 193.818 378.336 195.647 378.124 195.647 378.124" fill="#0c0d0b"/>
          <polygon points="200.615 377.551 199.255 373.796 198.786 377.762 200.615 377.551 200.615 377.551" fill="#0c0d0b"/>
        </g>
        <g>
          <polygon points="207.251 371.528 210.284 374.127 206.407 373.165 207.251 371.528 207.251 371.528" fill="#0c0d0b"/>
          <polygon points="209.542 367.083 205.666 366.121 208.699 368.72 209.542 367.083 209.542 367.083" fill="#0c0d0b"/>
        </g>
        <g>
          <polygon points="209.359 358.087 213.223 359.095 209.317 359.927 209.359 358.087 209.359 358.087" fill="#0c0d0b"/>
          <polygon points="209.472 353.087 205.566 353.92 209.43 354.928 209.472 353.087 209.472 353.087" fill="#0c0d0b"/>
        </g>
        <g>
          <polygon points="209.359 344.205 213.223 345.214 209.317 346.046 209.359 344.205 209.359 344.205" fill="#0c0d0b"/>
          <polygon points="209.472 339.206 205.566 340.038 209.43 341.047 209.472 339.206 209.472 339.206" fill="#0c0d0b"/>
        </g>
        <g>
          <polygon points="209.359 330.332 213.223 331.34 209.317 332.172 209.359 330.332 209.359 330.332" fill="#0c0d0b"/>
          <polygon points="209.472 325.332 205.566 326.164 209.43 327.173 209.472 325.332 209.472 325.332" fill="#0c0d0b"/>
        </g>
        <g>
          <polygon points="209.359 316.519 213.223 317.528 209.317 318.36 209.359 316.519 209.359 316.519" fill="#0c0d0b"/>
          <polygon points="209.472 311.52 205.566 312.352 209.43 313.361 209.472 311.52 209.472 311.52" fill="#0c0d0b"/>
        </g>
      </g>
      <g>
        <path d="M52.598,160.307v51.596c0,4.873,3.951,8.824,8.824,8.824h152.634c5.554,0,10.056-4.502,10.056-10.056v-50.364" fill="none" stroke="#0c0d0b" stroke-miterlimit="10" stroke-width=".84"/>
        <g>
          <polygon points="52.619 181.784 55.395 182.389 52.642 183.094 52.619 181.784 52.619 181.784" fill="#0c0d0b"/>
          <polygon points="52.555 178.227 49.802 178.931 52.578 179.537 52.555 178.227 52.555 178.227" fill="#0c0d0b"/>
        </g>
        <g>
          <polygon points="52.619 170.789 55.395 171.395 52.642 172.099 52.619 170.789 52.619 170.789" fill="#0c0d0b"/>
          <polygon points="52.555 167.232 49.802 167.937 52.578 168.542 52.555 167.232 52.555 167.232" fill="#0c0d0b"/>
        </g>
        <g>
          <polygon points="52.619 192.756 55.395 193.361 52.642 194.066 52.619 192.756 52.619 192.756" fill="#0c0d0b"/>
          <polygon points="52.555 189.199 49.802 189.903 52.578 190.509 52.555 189.199 52.555 189.199" fill="#0c0d0b"/>
        </g>
        <g>
          <polygon points="52.619 203.746 55.395 204.352 52.642 205.056 52.619 203.746 52.619 203.746" fill="#0c0d0b"/>
          <polygon points="52.555 200.189 49.802 200.893 52.578 201.499 52.555 200.189 52.555 200.189" fill="#0c0d0b"/>
        </g>
        <g>
          <polygon points="53.004 214.724 55.845 214.779 53.281 216.004 53.004 214.724 53.004 214.724" fill="#0c0d0b"/>
          <polygon points="52.252 211.247 49.688 212.472 52.529 212.527 52.252 211.247 52.252 211.247" fill="#0c0d0b"/>
        </g>
        <g>
          <polygon points="61.363 220.778 62.33 218.106 62.664 220.928 61.363 220.778 61.363 220.778" fill="#0c0d0b"/>
          <polygon points="57.829 220.371 58.163 223.193 59.13 220.521 57.829 220.371 57.829 220.371" fill="#0c0d0b"/>
        </g>
        <g>
          <polygon points="72.361 220.707 72.967 217.931 73.671 220.684 72.361 220.707 72.361 220.707" fill="#0c0d0b"/>
          <polygon points="68.804 220.771 69.508 223.523 70.114 220.747 68.804 220.771 68.804 220.771" fill="#0c0d0b"/>
        </g>
        <g>
          <polygon points="83.395 220.707 84 217.931 84.704 220.684 83.395 220.707 83.395 220.707" fill="#0c0d0b"/>
          <polygon points="79.838 220.771 80.542 223.523 81.147 220.747 79.838 220.771 79.838 220.771" fill="#0c0d0b"/>
        </g>
        <g>
          <polygon points="94.395 220.707 95.001 217.931 95.705 220.684 94.395 220.707 94.395 220.707" fill="#0c0d0b"/>
          <polygon points="90.838 220.771 91.543 223.523 92.148 220.747 90.838 220.771 90.838 220.771" fill="#0c0d0b"/>
        </g>
        <g>
          <polygon points="105.424 220.707 106.03 217.931 106.734 220.684 105.424 220.707 105.424 220.707" fill="#0c0d0b"/>
          <polygon points="101.867 220.771 102.571 223.523 103.177 220.747 101.867 220.771 101.867 220.771" fill="#0c0d0b"/>
        </g>
        <g>
          <polygon points="116.422 220.707 117.028 217.931 117.732 220.684 116.422 220.707 116.422 220.707" fill="#0c0d0b"/>
          <polygon points="112.865 220.771 113.569 223.523 114.175 220.747 112.865 220.771 112.865 220.771" fill="#0c0d0b"/>
        </g>
        <g>
          <polygon points="127.376 220.707 127.981 217.931 128.685 220.684 127.376 220.707 127.376 220.707" fill="#0c0d0b"/>
          <polygon points="123.819 220.771 124.523 223.523 125.129 220.747 123.819 220.771 123.819 220.771" fill="#0c0d0b"/>
        </g>
        <g>
          <polygon points="138.417 220.707 139.022 217.931 139.726 220.684 138.417 220.707 138.417 220.707" fill="#0c0d0b"/>
          <polygon points="134.86 220.771 135.564 223.523 136.169 220.747 134.86 220.771 134.86 220.771" fill="#0c0d0b"/>
        </g>
        <g>
          <polygon points="149.364 220.707 149.969 217.931 150.673 220.684 149.364 220.707 149.364 220.707" fill="#0c0d0b"/>
          <polygon points="145.807 220.771 146.511 223.523 147.116 220.747 145.807 220.771 145.807 220.771" fill="#0c0d0b"/>
        </g>
        <g>
          <polygon points="160.348 220.707 160.954 217.931 161.658 220.684 160.348 220.707 160.348 220.707" fill="#0c0d0b"/>
          <polygon points="156.791 220.771 157.495 223.523 158.101 220.747 156.791 220.771 156.791 220.771" fill="#0c0d0b"/>
        </g>
        <g>
          <polygon points="171.343 220.707 171.948 217.931 172.652 220.684 171.343 220.707 171.343 220.707" fill="#0c0d0b"/>
          <polygon points="167.786 220.771 168.49 223.523 169.095 220.747 167.786 220.771 167.786 220.771" fill="#0c0d0b"/>
        </g>
        <g>
          <polygon points="182.403 220.707 183.008 217.931 183.712 220.684 182.403 220.707 182.403 220.707" fill="#0c0d0b"/>
          <polygon points="178.846 220.771 179.55 223.523 180.155 220.747 178.846 220.771 178.846 220.771" fill="#0c0d0b"/>
        </g>
        <g>
          <polygon points="193.375 220.707 193.981 217.931 194.685 220.684 193.375 220.707 193.375 220.707" fill="#0c0d0b"/>
          <polygon points="189.818 220.771 190.522 223.523 191.128 220.747 189.818 220.771 189.818 220.771" fill="#0c0d0b"/>
        </g>
        <g>
          <polygon points="204.399 220.707 205.004 217.931 205.709 220.684 204.399 220.707 204.399 220.707" fill="#0c0d0b"/>
          <polygon points="200.842 220.771 201.546 223.523 202.152 220.747 200.842 220.771 200.842 220.771" fill="#0c0d0b"/>
        </g>
        <g>
          <polygon points="215.373 220.684 215.926 217.897 216.682 220.636 215.373 220.684 215.373 220.684" fill="#0c0d0b"/>
          <polygon points="211.817 220.814 212.573 223.553 213.126 220.766 211.817 220.814 211.817 220.814" fill="#0c0d0b"/>
        </g>
        <g>
          <polygon points="223.554 214.115 221.335 212.34 224.114 212.931 223.554 214.115 223.554 214.115" fill="#0c0d0b"/>
          <polygon points="222.031 217.33 224.81 217.922 222.591 216.147 222.031 217.33 222.031 217.33" fill="#0c0d0b"/>
        </g>
        <g>
          <polygon points="224.093 203.178 221.317 202.573 224.07 201.869 224.093 203.178 224.093 203.178" fill="#0c0d0b"/>
          <polygon points="224.156 206.735 226.909 206.031 224.133 205.426 224.156 206.735 224.156 206.735" fill="#0c0d0b"/>
        </g>
        <g>
          <polygon points="224.093 192.197 221.317 191.591 224.07 190.887 224.093 192.197 224.093 192.197" fill="#0c0d0b"/>
          <polygon points="224.156 195.754 226.909 195.05 224.133 194.444 224.156 195.754 224.156 195.754" fill="#0c0d0b"/>
        </g>
        <g>
          <polygon points="224.093 181.192 221.317 180.587 224.07 179.883 224.093 181.192 224.093 181.192" fill="#0c0d0b"/>
          <polygon points="224.156 184.749 226.909 184.045 224.133 183.44 224.156 184.749 224.156 184.749" fill="#0c0d0b"/>
        </g>
        <g>
          <polygon points="224.093 170.167 221.317 169.561 224.07 168.857 224.093 170.167 224.093 170.167" fill="#0c0d0b"/>
          <polygon points="224.156 173.724 226.909 173.02 224.133 172.414 224.156 173.724 224.156 173.724" fill="#0c0d0b"/>
        </g>
        <g>
          <polygon points="224.093 159.184 221.317 158.578 224.07 157.874 224.093 159.184 224.093 159.184" fill="#0c0d0b"/>
          <polygon points="224.156 162.741 226.909 162.036 224.133 161.431 224.156 162.741 224.156 162.741" fill="#0c0d0b"/>
        </g>
      </g>
    </g>
  </g>
  <g id="Hojas">
    <path d="M175.636,87.556c-.151-.749-.364-1.489-.64-2.203-.118-.331-.289-.706-.431-1.027-.584-1.225-1.247-2.278-2.163-3.399-.78-.92-1.569-1.733-2.578-2.511-.238.047-.726.158-.96.214-1.945.469-3.974,1.04-5.787,1.619-.151.044-.429.138-.574.186-.526.172-1.059.355-1.575.544-.283.104-.597.223-.876.334-1.791.732-3.269,1.433-4.5,2.676-.48.493-.859,1.066-1.217,1.652-1.256,2.045-1.907,4.314-2.702,6.653-.346,1.04-.74,2.125-1.157,3.141-.374.881-.795,1.78-1.258,2.617-2.188,4.046-5.783,7.19-10.345,8.123-.405.083-.812.161-1.219.234-.408-.073-.814-.151-1.219-.234-4.562-.934-8.157-4.077-10.345-8.123-.463-.837-.885-1.735-1.258-2.617-.417-1.016-.811-2.101-1.157-3.141-.794-2.338-1.445-4.607-2.702-6.653-.358-.586-.737-1.159-1.217-1.652-1.231-1.243-2.708-1.944-4.5-2.676-.28-.111-.593-.23-.876-.334-.516-.189-1.049-.372-1.575-.544-.145-.048-.423-.142-.574-.186-1.813-.58-3.842-1.15-5.787-1.619-.234-.056-.722-.167-.96-.214-1.009.778-1.798,1.591-2.578,2.511-.917,1.122-1.579,2.174-2.163,3.399-.142.322-.313.696-.431,1.027-.277.714-.489,1.454-.64,2.203-.626,3.035-.15,6.222,1.332,8.936.412.758.904,1.47,1.431,2.153.648.832,1.362,1.621,2.134,2.339,4.438,4.142,10.013,5.63,15.957,5.726,3.064.065,6.288-.215,9.306-.282,1.666-.038,3.335-.01,4.988.13.271.022.547.049.827.08,1.302,0,2.666.001,3.991.003.287-.032.572-.06.851-.082,1.654-.14,3.322-.169,4.988-.13,3.018.067,6.242.347,9.306.282,5.944-.095,11.519-1.583,15.957-5.726.772-.719,1.486-1.508,2.134-2.339.527-.683,1.019-1.394,1.431-2.153,1.482-2.714,1.958-5.901,1.332-8.936Z" fill="#0c0d0b"/>
    <path d="M175.636,138.812c-.151-.749-.364-1.489-.64-2.203-.118-.331-.289-.706-.431-1.027-.584-1.225-1.247-2.278-2.163-3.399-.78-.92-1.569-1.733-2.578-2.511-.238.047-.726.158-.96.214-1.945.469-3.974,1.04-5.787,1.619-.151.044-.429.138-.574.186-.526.172-1.059.355-1.575.544-.283.104-.597.223-.876.334-1.791.732-3.269,1.433-4.5,2.676-.48.493-.859,1.066-1.217,1.652-1.256,2.045-1.907,4.314-2.702,6.653-.346,1.04-.74,2.125-1.157,3.141-.374.881-.795,1.78-1.258,2.617-2.188,4.046-5.783,7.19-10.345,8.123-.405.083-.812.161-1.219.234-.408-.073-.814-.151-1.219-.234-4.562-.934-8.157-4.077-10.345-8.123-.463-.837-.885-1.735-1.258-2.617-.417-1.016-.811-2.101-1.157-3.141-.794-2.338-1.445-4.607-2.702-6.653-.358-.586-.737-1.159-1.217-1.652-1.231-1.243-2.708-1.944-4.5-2.676-.28-.111-.593-.23-.876-.334-.516-.189-1.049-.372-1.575-.544-.145-.048-.423-.142-.574-.186-1.813-.58-3.842-1.15-5.787-1.619-.234-.056-.722-.167-.96-.214-1.009.778-1.798,1.591-2.578,2.511-.917,1.122-1.579,2.174-2.163,3.399-.142.322-.313.696-.431,1.027-.277.714-.489,1.454-.64,2.203-.626,3.035-.15,6.222,1.332,8.936.412.758.904,1.47,1.431,2.153.648.832,1.362,1.621,2.134,2.339,4.438,4.142,10.013,5.63,15.957,5.726,3.064.065,6.288-.215,9.306-.282,1.666-.038,3.335-.01,4.988.13.271.022.547.049.827.08,1.302,0,2.666.001,3.991.003.287-.032.572-.06.851-.082,1.654-.14,3.322-.169,4.988-.13,3.018.067,6.242.347,9.306.282,5.944-.095,11.519-1.583,15.957-5.726.772-.719,1.486-1.508,2.134-2.339.527-.683,1.019-1.394,1.431-2.153,1.482-2.714,1.958-5.901,1.332-8.936Z" fill="#0c0d0b"/>
    <path d="M175.636,190.069c-.151-.749-.364-1.489-.64-2.203-.118-.331-.289-.706-.431-1.027-.584-1.225-1.247-2.278-2.163-3.399-.78-.92-1.569-1.733-2.578-2.511-.238.047-.726.158-.96.214-1.945.469-3.974,1.04-5.787,1.619-.151.044-.429.138-.574.186-.526.172-1.059.355-1.575.544-.283.104-.597.223-.876.334-1.791.732-3.269,1.433-4.5,2.676-.48.493-.859,1.066-1.217,1.652-1.256,2.045-1.907,4.314-2.702,6.653-.346,1.04-.74,2.125-1.157,3.141-.374.881-.795,1.78-1.258,2.617-2.188,4.046-5.783,7.19-10.345,8.123-.405.083-.812.161-1.219.234-.408-.073-.814-.151-1.219-.234-4.562-.934-8.157-4.077-10.345-8.123-.463-.837-.885-1.735-1.258-2.617-.417-1.016-.811-2.101-1.157-3.141-.794-2.338-1.445-4.607-2.702-6.653-.358-.586-.737-1.159-1.217-1.652-1.231-1.243-2.708-1.944-4.5-2.676-.28-.111-.593-.23-.876-.334-.516-.189-1.049-.372-1.575-.544-.145-.048-.423-.142-.574-.186-1.813-.58-3.842-1.15-5.787-1.619-.234-.056-.722-.167-.96-.214-1.009.778-1.798,1.591-2.578,2.511-.917,1.122-1.579,2.174-2.163,3.399-.142.322-.313.696-.431,1.027-.277.714-.489,1.454-.64,2.203-.626,3.035-.15,6.222,1.332,8.936.412.758.904,1.47,1.431,2.153.648.832,1.362,1.621,2.134,2.339,4.438,4.142,10.013,5.63,15.957,5.726,3.064.065,6.288-.215,9.306-.282,1.666-.038,3.335-.01,4.988.13.271.022.547.049.827.08,1.302,0,2.666.001,3.991.003.287-.032.572-.06.851-.082,1.654-.14,3.322-.169,4.988-.13,3.018.067,6.242.347,9.306.282,5.944-.095,11.519-1.583,15.957-5.726.772-.719,1.486-1.508,2.134-2.339.527-.683,1.019-1.394,1.431-2.153,1.482-2.714,1.958-5.901,1.332-8.936Z" fill="#0c0d0b"/>
    <path d="M175.636,271.161c-.151-.749-.364-1.489-.64-2.203-.118-.331-.289-.706-.431-1.027-.584-1.225-1.247-2.278-2.163-3.399-.78-.92-1.569-1.733-2.578-2.511-.238.047-.726.158-.96.214-1.945.469-3.974,1.04-5.787,1.619-.151.044-.429.138-.574.186-.526.172-1.059.355-1.575.544-.283.104-.597.223-.876.334-1.791.732-3.269,1.433-4.5,2.676-.48.493-.859,1.066-1.217,1.652-1.256,2.045-1.907,4.314-2.702,6.653-.346,1.04-.74,2.125-1.157,3.141-.374.881-.795,1.78-1.258,2.617-2.188,4.046-5.783,7.19-10.345,8.123-.405.083-.812.161-1.219.234-.408-.073-.814-.151-1.219-.234-4.562-.934-8.157-4.077-10.345-8.123-.463-.837-.885-1.735-1.258-2.617-.417-1.016-.811-2.101-1.157-3.141-.794-2.338-1.445-4.607-2.702-6.653-.358-.586-.737-1.159-1.217-1.652-1.231-1.243-2.708-1.944-4.5-2.676-.28-.111-.593-.23-.876-.334-.516-.189-1.049-.372-1.575-.544-.145-.048-.423-.142-.574-.186-1.813-.58-3.842-1.15-5.787-1.619-.234-.056-.722-.167-.96-.214-1.009.778-1.798,1.591-2.578,2.511-.917,1.122-1.579,2.174-2.163,3.399-.142.322-.313.696-.431,1.027-.277.714-.489,1.454-.64,2.203-.626,3.035-.15,6.222,1.332,8.936.412.758.904,1.47,1.431,2.153.648.832,1.362,1.621,2.134,2.339,4.438,4.142,10.013,5.63,15.957,5.726,3.064.065,6.288-.215,9.306-.282,1.666-.038,3.335-.01,4.988.13.271.022.547.049.827.08,1.302,0,2.666.001,3.991.003.287-.032.572-.06.851-.082,1.654-.14,3.322-.169,4.988-.13,3.018.067,6.242.347,9.306.282,5.944-.095,11.519-1.583,15.957-5.726.772-.719,1.486-1.508,2.134-2.339.527-.683,1.019-1.394,1.431-2.153,1.482-2.714,1.958-5.901,1.332-8.936Z" fill="#0c0d0b"/>
    <path d="M175.636,322.417c-.151-.749-.364-1.489-.64-2.203-.118-.331-.289-.706-.431-1.027-.584-1.225-1.247-2.278-2.163-3.399-.78-.92-1.569-1.733-2.578-2.511-.238.047-.726.158-.96.214-1.945.469-3.974,1.04-5.787,1.619-.151.044-.429.138-.574.186-.526.172-1.059.355-1.575.544-.283.104-.597.223-.876.334-1.791.732-3.269,1.433-4.5,2.676-.48.493-.859,1.066-1.217,1.652-1.256,2.045-1.907,4.314-2.702,6.653-.346,1.04-.74,2.125-1.157,3.141-.374.881-.795,1.78-1.258,2.617-2.188,4.046-5.783,7.19-10.345,8.123-.405.083-.812.161-1.219.234-.408-.073-.814-.151-1.219-.234-4.562-.934-8.157-4.077-10.345-8.123-.463-.837-.885-1.735-1.258-2.617-.417-1.016-.811-2.101-1.157-3.141-.794-2.338-1.445-4.607-2.702-6.653-.358-.586-.737-1.159-1.217-1.652-1.231-1.243-2.708-1.944-4.5-2.676-.28-.111-.593-.23-.876-.334-.516-.189-1.049-.372-1.575-.544-.145-.048-.423-.142-.574-.186-1.813-.58-3.842-1.15-5.787-1.619-.234-.056-.722-.167-.96-.214-1.009.778-1.798,1.591-2.578,2.511-.917,1.122-1.579,2.174-2.163,3.399-.142.322-.313.696-.431,1.027-.277.714-.489,1.454-.64,2.203-.626,3.035-.15,6.222,1.332,8.936.412.758.904,1.47,1.431,2.153.648.832,1.362,1.621,2.134,2.339,4.438,4.142,10.013,5.63,15.957,5.726,3.064.065,6.288-.215,9.306-.282,1.666-.038,3.335-.01,4.988.13.271.022.547.049.827.08,1.302,0,2.666.001,3.991.003.287-.032.572-.06.851-.082,1.654-.14,3.322-.169,4.988-.13,3.018.067,6.242.347,9.306.282,5.944-.095,11.519-1.583,15.957-5.726.772-.719,1.486-1.508,2.134-2.339.527-.683,1.019-1.394,1.431-2.153,1.482-2.714,1.958-5.901,1.332-8.936Z" fill="#0c0d0b"/>
    <path d="M99.477,348.735c-.121-.599-.291-1.191-.512-1.762-.095-.265-.231-.565-.345-.822-.467-.98-.997-1.822-1.731-2.719-.624-.736-1.255-1.387-2.062-2.009-.19.038-.58.127-.768.171-1.556.375-3.179.832-4.629,1.295-.12.035-.343.111-.459.149-.42.137-.847.284-1.26.435-.226.084-.477.178-.701.267-1.433.585-2.615,1.146-3.6,2.141-.384.394-.687.853-.974,1.321-1.005,1.636-1.526,3.451-2.161,5.322-.276.832-.592,1.7-.925,2.513-.299.705-.636,1.424-1.007,2.094-1.751,3.237-4.627,5.752-8.276,6.499-.324.067-.649.129-.975.187-.326-.058-.651-.121-.975-.187-3.65-.747-6.526-3.262-8.276-6.499-.371-.67-.708-1.388-1.007-2.094-.334-.813-.649-1.681-.925-2.513-.636-1.871-1.156-3.686-2.161-5.322-.286-.469-.589-.927-.974-1.321-.985-.995-2.167-1.556-3.6-2.141-.224-.089-.475-.184-.701-.267-.413-.151-.839-.297-1.26-.435-.116-.038-.339-.114-.459-.149-1.45-.464-3.074-.92-4.629-1.295-.187-.045-.578-.133-.768-.171-.807.622-1.439,1.273-2.062,2.009-.733.897-1.263,1.739-1.731,2.719-.114.257-.25.557-.345.822-.221.571-.391,1.163-.512,1.762-.501,2.428-.12,4.978,1.066,7.148.33.607.723,1.176,1.145,1.722.518.665,1.09,1.297,1.707,1.872,3.551,3.314,8.011,4.504,12.766,4.58,2.452.052,5.031-.172,7.445-.226,1.333-.031,2.668-.008,3.991.104.217.017.438.039.661.064,1.042,0,2.133.001,3.193.002.23-.025.458-.048.681-.066,1.323-.112,2.658-.135,3.991-.104,2.414.054,4.993.278,7.445.226,4.755-.076,9.215-1.267,12.766-4.58.617-.575,1.189-1.206,1.707-1.872.421-.546.815-1.115,1.145-1.722,1.186-2.171,1.566-4.721,1.066-7.148Z" fill="#0c0d0b"/>
    <path d="M238.071,348.665c-.121-.599-.291-1.191-.512-1.762-.095-.265-.231-.565-.345-.822-.467-.98-.997-1.822-1.731-2.719-.624-.736-1.255-1.387-2.062-2.009-.19.038-.58.127-.768.171-1.556.375-3.179.832-4.629,1.295-.12.035-.343.111-.459.149-.42.137-.847.284-1.26.435-.226.084-.477.178-.701.267-1.433.585-2.615,1.146-3.6,2.141-.384.394-.687.853-.974,1.321-1.005,1.636-1.526,3.451-2.161,5.322-.276.832-.592,1.7-.925,2.513-.299.705-.636,1.424-1.007,2.094-1.751,3.237-4.627,5.752-8.276,6.499-.324.067-.649.129-.975.187-.326-.058-.651-.121-.975-.187-3.65-.747-6.526-3.262-8.276-6.499-.371-.67-.708-1.388-1.007-2.094-.334-.813-.649-1.681-.925-2.513-.636-1.871-1.156-3.686-2.161-5.322-.286-.469-.589-.927-.974-1.321-.985-.995-2.167-1.556-3.6-2.141-.224-.089-.475-.184-.701-.267-.413-.151-.839-.297-1.26-.435-.116-.038-.339-.114-.459-.149-1.45-.464-3.074-.92-4.629-1.295-.187-.045-.578-.133-.768-.171-.807.622-1.439,1.273-2.062,2.009-.733.897-1.263,1.739-1.731,2.719-.114.257-.25.557-.345.822-.221.571-.391,1.163-.512,1.762-.501,2.428-.12,4.978,1.066,7.148.33.607.723,1.176,1.145,1.722.518.665,1.09,1.297,1.707,1.872,3.551,3.314,8.011,4.504,12.766,4.58,2.452.052,5.031-.172,7.445-.226,1.333-.031,2.668-.008,3.991.104.217.017.438.039.661.064,1.042,0,2.133.001,3.193.002.23-.025.458-.048.681-.066,1.323-.112,2.658-.135,3.991-.104,2.414.054,4.993.278,7.445.226,4.755-.076,9.215-1.267,12.766-4.58.617-.575,1.189-1.206,1.707-1.872.421-.546.815-1.115,1.145-1.722,1.186-2.171,1.566-4.721,1.066-7.148Z" fill="#0c0d0b"/>
    <path d="M248.319,181.828c-.097-.479-.233-.953-.41-1.41-.076-.212-.185-.452-.276-.658-.374-.784-.798-1.458-1.385-2.176-.499-.589-1.004-1.109-1.65-1.607-.152.03-.464.101-.614.137-1.245.3-2.543.665-3.703,1.036-.096.028-.275.089-.367.119-.336.11-.678.227-1.008.348-.181.067-.382.143-.561.214-1.146.468-2.092.917-2.88,1.713-.307.315-.55.682-.779,1.057-.804,1.309-1.221,2.761-1.729,4.258-.221.666-.473,1.36-.74,2.01-.239.564-.509,1.139-.805,1.675-1.401,2.59-3.701,4.601-6.621,5.199-.259.053-.52.103-.78.15-.261-.047-.521-.096-.78-.15-2.92-.597-5.22-2.609-6.621-5.199-.297-.536-.566-1.111-.805-1.675-.267-.65-.519-1.345-.74-2.01-.508-1.496-.925-2.949-1.729-4.258-.229-.375-.472-.742-.779-1.057-.788-.796-1.733-1.244-2.88-1.713-.179-.071-.38-.147-.561-.214-.33-.121-.671-.238-1.008-.348-.093-.031-.271-.091-.367-.119-1.16-.371-2.459-.736-3.703-1.036-.15-.036-.462-.107-.614-.137-.646.498-1.151,1.018-1.65,1.607-.587.718-1.011,1.392-1.385,2.176-.091.206-.2.446-.276.658-.177.457-.313.931-.41,1.41-.401,1.942-.096,3.982.852,5.719.264.485.579.941.916,1.378.415.532.872,1.037,1.366,1.497,2.841,2.651,6.408,3.603,10.212,3.664,1.961.042,4.024-.137,5.956-.18,1.066-.025,2.134-.006,3.192.083.173.014.35.032.529.051.833,0,1.706,0,2.554.002.184-.02.366-.039.544-.053,1.058-.09,2.126-.108,3.192-.083,1.931.043,3.995.222,5.956.18,3.804-.061,7.372-1.013,10.212-3.664.494-.46.951-.965,1.366-1.497.337-.437.652-.892.916-1.378.949-1.737,1.253-3.777.852-5.719Z" fill="#0c0d0b"/>
    <path d="M247.707,201.188c-.097-.479-.233-.953-.41-1.41-.076-.212-.185-.452-.276-.658-.374-.784-.798-1.458-1.385-2.176-.499-.589-1.004-1.109-1.65-1.607-.152.03-.464.101-.614.137-1.245.3-2.543.665-3.703,1.036-.096.028-.275.089-.367.119-.336.11-.678.227-1.008.348-.181.067-.382.143-.561.214-1.146.468-2.092.917-2.88,1.713-.307.315-.55.682-.779,1.057-.804,1.309-1.221,2.761-1.729,4.258-.221.666-.473,1.36-.74,2.01-.239.564-.509,1.139-.805,1.675-1.401,2.59-3.701,4.601-6.621,5.199-.259.053-.52.103-.78.15-.261-.047-.521-.096-.78-.15-2.92-.597-5.22-2.609-6.621-5.199-.297-.536-.566-1.111-.805-1.675-.267-.65-.519-1.345-.74-2.01-.508-1.496-.925-2.949-1.729-4.258-.229-.375-.472-.742-.779-1.057-.788-.796-1.733-1.244-2.88-1.713-.179-.071-.38-.147-.561-.214-.33-.121-.671-.238-1.008-.348-.093-.031-.271-.091-.367-.119-1.16-.371-2.459-.736-3.703-1.036-.15-.036-.462-.107-.614-.137-.646.498-1.151,1.018-1.65,1.607-.587.718-1.011,1.392-1.385,2.176-.091.206-.2.446-.276.658-.177.457-.313.931-.41,1.41-.401,1.942-.096,3.982.852,5.719.264.485.579.941.916,1.378.415.532.872,1.037,1.366,1.497,2.841,2.651,6.408,3.603,10.212,3.664,1.961.042,4.024-.137,5.956-.18,1.066-.025,2.134-.006,3.192.083.173.014.35.032.529.051.833,0,1.706,0,2.554.002.184-.02.366-.039.544-.053,1.058-.09,2.126-.108,3.192-.083,1.931.043,3.995.222,5.956.18,3.804-.061,7.372-1.013,10.212-3.664.494-.46.951-.965,1.366-1.497.337-.437.652-.892.916-1.378.949-1.737,1.253-3.777.852-5.719Z" fill="#0c0d0b"/>
    <path d="M27.332,181.828c.097-.479.233-.953.41-1.41.076-.212.185-.452.276-.658.374-.784.798-1.458,1.385-2.176.499-.589,1.004-1.109,1.65-1.607.152.03.464.101.614.137,1.245.3,2.543.665,3.703,1.036.096.028.275.089.367.119.336.11.678.227,1.008.348.181.067.382.143.561.214,1.146.468,2.092.917,2.88,1.713.307.315.55.682.779,1.057.804,1.309,1.221,2.761,1.729,4.258.221.666.473,1.36.74,2.01.239.564.509,1.139.805,1.675,1.401,2.59,3.701,4.601,6.621,5.199.259.053.52.103.78.15.261-.047.521-.096.78-.15,2.92-.597,5.22-2.609,6.621-5.199.297-.536.566-1.111.805-1.675.267-.65.519-1.345.74-2.01.508-1.496.925-2.949,1.729-4.258.229-.375.472-.742.779-1.057.788-.796,1.733-1.244,2.88-1.713.179-.071.38-.147.561-.214.33-.121.671-.238,1.008-.348.093-.031.271-.091.367-.119,1.16-.371,2.459-.736,3.703-1.036.15-.036.462-.107.614-.137.646.498,1.151,1.018,1.65,1.607.587.718,1.011,1.392,1.385,2.176.091.206.2.446.276.658.177.457.313.931.41,1.41.401,1.942.096,3.982-.852,5.719-.264.485-.579.941-.916,1.378-.415.532-.872,1.037-1.366,1.497-2.841,2.651-6.408,3.603-10.212,3.664-1.961.042-4.024-.137-5.956-.18-1.066-.025-2.134-.006-3.192.083-.173.014-.35.032-.529.051-.833,0-1.706,0-2.554.002-.184-.02-.366-.039-.544-.053-1.058-.09-2.126-.108-3.192-.083-1.931.043-3.995.222-5.956.18-3.804-.061-7.372-1.013-10.212-3.664-.494-.46-.951-.965-1.366-1.497-.337-.437-.652-.892-.916-1.378-.949-1.737-1.253-3.777-.852-5.719Z" fill="#0c0d0b"/>
    <path d="M27.944,201.188c.097-.479.233-.953.41-1.41.076-.212.185-.452.276-.658.374-.784.798-1.458,1.385-2.176.499-.589,1.004-1.109,1.65-1.607.152.03.464.101.614.137,1.245.3,2.543.665,3.703,1.036.096.028.275.089.367.119.336.11.678.227,1.008.348.181.067.382.143.561.214,1.146.468,2.092.917,2.88,1.713.307.315.55.682.779,1.057.804,1.309,1.221,2.761,1.729,4.258.221.666.473,1.36.74,2.01.239.564.509,1.139.805,1.675,1.401,2.59,3.701,4.601,6.621,5.199.259.053.52.103.78.15.261-.047.521-.096.78-.15,2.92-.597,5.22-2.609,6.621-5.199.297-.536.566-1.111.805-1.675.267-.65.519-1.345.74-2.01.508-1.496.925-2.949,1.729-4.258.229-.375.472-.742.779-1.057.788-.796,1.733-1.244,2.88-1.713.179-.071.38-.147.561-.214.33-.121.671-.238,1.008-.348.093-.031.271-.091.367-.119,1.16-.371,2.459-.736,3.703-1.036.15-.036.462-.107.614-.137.646.498,1.151,1.018,1.65,1.607.587.718,1.011,1.392,1.385,2.176.091.206.2.446.276.658.177.457.313.931.41,1.41.401,1.942.096,3.982-.852,5.719-.264.485-.579.941-.916,1.378-.415.532-.872,1.037-1.366,1.497-2.841,2.651-6.408,3.603-10.212,3.664-1.961.042-4.024-.137-5.956-.18-1.066-.025-2.134-.006-3.192.083-.173.014-.35.032-.529.051-.833,0-1.706,0-2.554.002-.184-.02-.366-.039-.544-.053-1.058-.09-2.126-.108-3.192-.083-1.931.043-3.995.222-5.956.18-3.804-.061-7.372-1.013-10.212-3.664-.494-.46-.951-.965-1.366-1.497-.337-.437-.652-.892-.916-1.378-.949-1.737-1.253-3.777-.852-5.719Z" fill="#0c0d0b"/>
  </g>
  <g id="Flores">
    <g>
      <g>
        <ellipse cx="223.689" cy="118.506" rx="7.934" ry="5.554" fill="#0c0d0b"/>
        <path d="M244.174,155.38c-6.339-2.917-14.048,1.048-17.825,6.447-.807.981-1.538,2.521-1.98,2.864v-6.043c1.734-4.944,7.221-7.131,12.836-9.095,3.838-1.252,12.664-3.697,11.143-8.892-2.977-4.342-10.104-3.826-14.307-1.088-4.707,2.955-7.439,7.608-9.673,11.008v-7.879c1.817-4.388,6.451-6.564,12.675-8.777,2.636-.95,4.804-.871,6.14-2.385,6.66-12.051-7.808-18.948-16.548-.907-.476,1.067-1.738,3.346-2.267,4.831v-9.138h-1.36v11.897c-1.374-3.575-3.8-11.742-7.708-13.238-6.633-1.495-4.848,6.302-2.392,9.648,1.795,2.833,4.728,5.517,6.994,7.457,2.279,1.743,3.118,3.764,3.106,6.678-.03.904-.014,1.905,0,2.928v2.809c-.025.94-.087,1.844-.227,2.651-.206.358-1.177-.372-1.386-.658-3.031-4.95-6.208-12.458-10.079-17.34-3.538-5.334-12.637-1.156-8.755,5.055,2.29,4.082,6.607,6.284,10.277,9.31,2.546,2.489,8.426,5.08,10.17,8.548v3.246c-.929.617-2.871-.387-4.127-1.152-5.876-3.869-31.355-21.59-29.473-4.61,2.498,10.278,12.592,13.208,21.506,12.438,10.5-.223,23.215.458,31.365-.292,9.299-2.681,11.775-11.927,1.894-16.324Z" fill="#0c0d0b"/>
      </g>
      <circle cx="223.689" cy="119.073" r="2.494" fill="#cb1e1a"/>
    </g>
    <g>
      <g>
        <ellipse cx="51.962" cy="118.506" rx="7.934" ry="5.554" fill="#0c0d0b"/>
        <path d="M31.477,155.38c6.339-2.917,14.048,1.048,17.825,6.447.807.981,1.538,2.521,1.98,2.864v-6.043c-1.734-4.944-7.221-7.131-12.836-9.095-3.838-1.252-12.664-3.697-11.143-8.892,2.977-4.342,10.104-3.826,14.307-1.088,4.707,2.955,7.439,7.608,9.673,11.008v-7.879c-1.817-4.388-6.451-6.564-12.675-8.777-2.636-.95-4.804-.871-6.14-2.385-6.66-12.051,7.808-18.948,16.548-.907.476,1.067,1.738,3.346,2.267,4.831v-9.138h1.36v11.897c1.374-3.575,3.8-11.742,7.708-13.238,6.633-1.495,4.848,6.302,2.392,9.648-1.795,2.833-4.728,5.517-6.994,7.457-2.279,1.743-3.118,3.764-3.106,6.678.03.904.014,1.905,0,2.928v1.379s0,1.43,0,1.43c.025.94.087,1.844.227,2.651.206.358,1.177-.372,1.386-.658,3.031-4.95,6.208-12.458,10.079-17.34,3.538-5.334,12.637-1.156,8.755,5.055-2.29,4.082-6.607,6.284-10.277,9.31-2.546,2.489-8.426,5.08-10.17,8.548v3.246c.929.617,2.871-.387,4.127-1.152,5.876-3.869,31.355-21.59,29.473-4.61-2.498,10.278-12.592,13.208-21.506,12.438-10.5-.223-23.215.458-31.365-.292-9.299-2.681-11.775-11.927-1.894-16.324Z" fill="#0c0d0b"/>
      </g>
      <circle cx="51.962" cy="119.073" r="2.494" fill="#cb1e1a"/>
    </g>
    <g>
      <g>
        <polygon points="150.407 38.717 137.72 51.403 137.72 47.473 137.72 47.429 137.72 4.572 137.511 4.572 137.511 47.22 124.842 34.552 124.694 34.7 137.511 47.516 137.511 70.443 137.529 70.443 137.529 74.608 137.738 74.608 137.738 51.681 150.555 38.865 150.407 38.717" fill="#0c0d0b"/>
        <circle cx="124.685" cy="34.275" r="3.657" fill="#0c0d0b"/>
        <circle cx="137.615" cy="4.572" r="4.572" fill="#0c0d0b"/>
        <circle cx="143.822" cy="19.054" r="4.572" fill="#0c0d0b"/>
        <g>
          <circle cx="149.141" cy="40.542" r="2.438" fill="#0c0d0b"/>
          <circle cx="150.066" cy="34.533" r="2.438" fill="#0c0d0b"/>
          <circle cx="156.161" cy="40.408" r="3.657" fill="#0c0d0b"/>
          <circle cx="158.009" cy="31.098" r="4.572" fill="#0c0d0b"/>
        </g>
        <g>
          <circle cx="137.393" cy="58.349" r="2.438" fill="#0c0d0b"/>
          <circle cx="138.317" cy="52.34" r="2.438" fill="#0c0d0b"/>
          <circle cx="144.413" cy="58.215" r="3.657" fill="#0c0d0b"/>
          <circle cx="146.26" cy="48.905" r="4.572" fill="#0c0d0b"/>
        </g>
        <g>
          <circle cx="135.25" cy="38.621" r="2.438" fill="#0c0d0b"/>
          <circle cx="136.175" cy="32.612" r="2.438" fill="#0c0d0b"/>
          <circle cx="142.27" cy="38.486" r="3.657" fill="#0c0d0b"/>
          <circle cx="144.118" cy="29.177" r="4.572" fill="#0c0d0b"/>
        </g>
        <g>
          <circle cx="133.838" cy="18.893" r="2.438" fill="#0c0d0b"/>
          <circle cx="132.914" cy="12.884" r="2.438" fill="#0c0d0b"/>
          <circle cx="126.818" cy="18.758" r="3.657" fill="#0c0d0b"/>
          <circle cx="124.971" cy="9.448" r="4.572" fill="#0c0d0b"/>
        </g>
        <circle cx="132.286" cy="54.137" r="2.438" fill="#0c0d0b"/>
        <circle cx="131.362" cy="48.129" r="2.438" fill="#0c0d0b"/>
        <circle cx="130.485" cy="27.44" r="2.438" fill="#0c0d0b"/>
        <circle cx="143.49" cy="10.446" r="2.438" fill="#0c0d0b"/>
        <circle cx="152.504" cy="24.632" r="2.438" fill="#0c0d0b"/>
        <circle cx="142.16" cy="66.527" r="2.438" fill="#0c0d0b"/>
        <circle cx="137.357" cy="74.064" r="2.438" fill="#0c0d0b"/>
        <circle cx="133.071" cy="64.089" r="2.438" fill="#0c0d0b"/>
        <circle cx="128.934" cy="60.173" r="2.438" fill="#0c0d0b"/>
        <circle cx="121.619" cy="27.44" r="2.438" fill="#0c0d0b"/>
        <circle cx="125.266" cy="54.003" r="3.657" fill="#0c0d0b"/>
        <circle cx="123.419" cy="44.693" r="4.572" fill="#0c0d0b"/>
      </g>
      <circle cx="137.654" cy="4.59" r="3.06" fill="#cb1e1a"/>
      <circle cx="125.031" cy="9.563" r="3.06" fill="#cb1e1a"/>
      <circle cx="143.774" cy="19.125" r="3.06" fill="#cb1e1a"/>
      <circle cx="123.501" cy="44.754" r="3.06" fill="#cb1e1a"/>
      <circle cx="146.451" cy="48.961" r="3.06" fill="#cb1e1a"/>
    </g>
    <g>
      <g>
        <polygon points="216.057 317.716 209.714 324.059 209.714 322.094 209.714 322.072 209.714 300.643 209.609 300.643 209.609 321.967 203.275 315.633 203.201 315.707 209.609 322.115 209.609 333.579 209.618 333.579 209.618 335.661 209.723 335.661 209.723 324.198 216.131 317.79 216.057 317.716" fill="#0c0d0b"/>
        <circle cx="203.196" cy="315.495" r="1.829" fill="#0c0d0b"/>
        <circle cx="209.661" cy="300.643" r="2.286" fill="#0c0d0b"/>
        <circle cx="212.765" cy="307.884" r="2.286" fill="#0c0d0b"/>
        <g>
          <circle cx="215.424" cy="318.628" r="1.219" fill="#0c0d0b"/>
          <circle cx="215.886" cy="315.624" r="1.219" fill="#0c0d0b"/>
          <circle cx="218.934" cy="318.561" r="1.829" fill="#0c0d0b"/>
          <circle cx="219.858" cy="313.906" r="2.286" fill="#0c0d0b"/>
        </g>
        <g>
          <circle cx="209.55" cy="327.532" r="1.219" fill="#0c0d0b"/>
          <circle cx="210.012" cy="324.528" r="1.219" fill="#0c0d0b"/>
          <circle cx="213.06" cy="327.465" r="1.829" fill="#0c0d0b"/>
          <circle cx="213.984" cy="322.81" r="2.286" fill="#0c0d0b"/>
        </g>
        <g>
          <circle cx="208.479" cy="317.668" r="1.219" fill="#0c0d0b"/>
          <circle cx="208.941" cy="314.664" r="1.219" fill="#0c0d0b"/>
          <circle cx="211.989" cy="317.601" r="1.829" fill="#0c0d0b"/>
          <circle cx="212.912" cy="312.946" r="2.286" fill="#0c0d0b"/>
        </g>
        <g>
          <circle cx="207.772" cy="307.804" r="1.219" fill="#0c0d0b"/>
          <circle cx="207.31" cy="304.8" r="1.219" fill="#0c0d0b"/>
          <circle cx="204.262" cy="307.737" r="1.829" fill="#0c0d0b"/>
          <circle cx="203.339" cy="303.082" r="2.286" fill="#0c0d0b"/>
        </g>
        <circle cx="206.997" cy="325.426" r="1.219" fill="#0c0d0b"/>
        <circle cx="206.534" cy="322.422" r="1.219" fill="#0c0d0b"/>
        <circle cx="206.096" cy="312.077" r="1.219" fill="#0c0d0b"/>
        <circle cx="212.598" cy="303.58" r="1.219" fill="#0c0d0b"/>
        <circle cx="217.105" cy="310.674" r="1.219" fill="#0c0d0b"/>
        <circle cx="211.933" cy="331.621" r="1.219" fill="#0c0d0b"/>
        <circle cx="209.532" cy="335.389" r="1.219" fill="#0c0d0b"/>
        <circle cx="207.389" cy="330.402" r="1.219" fill="#0c0d0b"/>
        <circle cx="205.32" cy="328.444" r="1.219" fill="#0c0d0b"/>
        <circle cx="201.663" cy="312.077" r="1.219" fill="#0c0d0b"/>
        <circle cx="203.487" cy="325.359" r="1.829" fill="#0c0d0b"/>
        <circle cx="202.563" cy="320.704" r="2.286" fill="#0c0d0b"/>
      </g>
      <circle cx="209.68" cy="300.652" r="1.53" fill="#cb1e1a"/>
      <circle cx="203.369" cy="303.139" r="1.53" fill="#cb1e1a"/>
      <circle cx="212.74" cy="307.92" r="1.53" fill="#cb1e1a"/>
      <circle cx="202.604" cy="320.734" r="1.53" fill="#cb1e1a"/>
      <circle cx="214.079" cy="322.838" r="1.53" fill="#cb1e1a"/>
    </g>
    <g>
      <g>
        <polygon points="74.239 317.716 67.895 324.059 67.895 322.094 67.895 322.072 67.895 300.643 67.791 300.643 67.791 321.967 61.456 315.633 61.382 315.707 67.791 322.115 67.791 333.579 67.8 333.579 67.8 335.661 67.904 335.661 67.904 324.198 74.313 317.79 74.239 317.716" fill="#0c0d0b"/>
        <circle cx="61.378" cy="315.495" r="1.829" fill="#0c0d0b"/>
        <circle cx="67.843" cy="300.643" r="2.286" fill="#0c0d0b"/>
        <circle cx="70.946" cy="307.884" r="2.286" fill="#0c0d0b"/>
        <g>
          <circle cx="73.606" cy="318.628" r="1.219" fill="#0c0d0b"/>
          <circle cx="74.068" cy="315.624" r="1.219" fill="#0c0d0b"/>
          <circle cx="77.116" cy="318.561" r="1.829" fill="#0c0d0b"/>
          <circle cx="78.04" cy="313.906" r="2.286" fill="#0c0d0b"/>
        </g>
        <g>
          <circle cx="67.732" cy="327.532" r="1.219" fill="#0c0d0b"/>
          <circle cx="68.194" cy="324.528" r="1.219" fill="#0c0d0b"/>
          <circle cx="71.242" cy="327.465" r="1.829" fill="#0c0d0b"/>
          <circle cx="72.165" cy="322.81" r="2.286" fill="#0c0d0b"/>
        </g>
        <g>
          <circle cx="66.66" cy="317.668" r="1.219" fill="#0c0d0b"/>
          <circle cx="67.123" cy="314.664" r="1.219" fill="#0c0d0b"/>
          <circle cx="70.17" cy="317.601" r="1.829" fill="#0c0d0b"/>
          <circle cx="71.094" cy="312.946" r="2.286" fill="#0c0d0b"/>
        </g>
        <g>
          <circle cx="65.954" cy="307.804" r="1.219" fill="#0c0d0b"/>
          <circle cx="65.492" cy="304.8" r="1.219" fill="#0c0d0b"/>
          <circle cx="62.444" cy="307.737" r="1.829" fill="#0c0d0b"/>
          <circle cx="61.521" cy="303.082" r="2.286" fill="#0c0d0b"/>
        </g>
        <circle cx="65.178" cy="325.426" r="1.219" fill="#0c0d0b"/>
        <circle cx="64.716" cy="322.422" r="1.219" fill="#0c0d0b"/>
        <circle cx="64.278" cy="312.077" r="1.219" fill="#0c0d0b"/>
        <circle cx="70.78" cy="303.58" r="1.219" fill="#0c0d0b"/>
        <circle cx="75.287" cy="310.674" r="1.219" fill="#0c0d0b"/>
        <circle cx="70.115" cy="331.621" r="1.219" fill="#0c0d0b"/>
        <circle cx="67.714" cy="335.389" r="1.219" fill="#0c0d0b"/>
        <circle cx="65.571" cy="330.402" r="1.219" fill="#0c0d0b"/>
        <circle cx="63.502" cy="328.444" r="1.219" fill="#0c0d0b"/>
        <circle cx="59.845" cy="312.077" r="1.219" fill="#0c0d0b"/>
        <circle cx="61.668" cy="325.359" r="1.829" fill="#0c0d0b"/>
        <circle cx="60.745" cy="320.704" r="2.286" fill="#0c0d0b"/>
      </g>
      <circle cx="67.862" cy="300.652" r="1.53" fill="#cb1e1a"/>
      <circle cx="61.551" cy="303.139" r="1.53" fill="#cb1e1a"/>
      <circle cx="70.922" cy="307.92" r="1.53" fill="#cb1e1a"/>
      <circle cx="60.786" cy="320.734" r="1.53" fill="#cb1e1a"/>
      <circle cx="72.261" cy="322.838" r="1.53" fill="#cb1e1a"/>
    </g>
  </g>
</svg>