<?xml version="1.0" encoding="UTF-8"?>
<svg xmlns="http://www.w3.org/2000/svg" width="100" height="100" viewBox="0 0 100 100">
  <g id="Tallo">
    <line x1="47.896" y1="99.995" x2="47.896" y2="2.412" fill="none" stroke="#0c0d0b" stroke-miterlimit="10" stroke-width=".553"/>
  </g>
  <g id="Hojas">
    <path d="M53.558,39.006c-1.725,0-3.123,1.398-3.123,3.123,0,.307.045.603.128.884-.987.488-2.336,1.442-2.762,3.134-.426-1.692-1.775-2.646-2.762-3.134.083-.28.128-.577.128-.884,0-1.725-1.398-3.123-3.123-3.123s-3.123,1.398-3.123,3.123,1.398,3.123,3.123,3.123c1.32,0,2.448-.819,2.905-1.977,1.144.573,2.771,1.798,2.71,4.123v1.852h.286v-1.852c-.061-2.325,1.566-3.551,2.71-4.123.457,1.157,1.585,1.977,2.905,1.977,1.725,0,3.123-1.398,3.123-3.123s-1.398-3.123-3.123-3.123Z" fill="#0c0d0b"/>
    <path d="M53.558,28.759c-1.725,0-3.123,1.398-3.123,3.123,0,.307.045.603.128.884-.987.488-2.336,1.442-2.762,3.134-.426-1.692-1.775-2.646-2.762-3.134.083-.28.128-.577.128-.884,0-1.725-1.398-3.123-3.123-3.123s-3.123,1.398-3.123,3.123,1.398,3.123,3.123,3.123c1.32,0,2.448-.819,2.905-1.977,1.144.573,2.771,1.798,2.71,4.123v1.852h.286v-1.852c-.061-2.325,1.566-3.551,2.71-4.123.457,1.157,1.585,1.977,2.905,1.977,1.725,0,3.123-1.398,3.123-3.123s-1.398-3.123-3.123-3.123Z" fill="#0c0d0b"/>
    <path d="M53.558,49.252c-1.725,0-3.123,1.398-3.123,3.123,0,.307.045.603.128.884-.987.488-2.336,1.442-2.762,3.134-.426-1.692-1.775-2.646-2.762-3.134.083-.28.128-.577.128-.884,0-1.725-1.398-3.123-3.123-3.123s-3.123,1.398-3.123,3.123,1.398,3.123,3.123,3.123c1.32,0,2.448-.819,2.905-1.977,1.144.573,2.771,1.798,2.71,4.123v1.852h.286v-1.852c-.061-2.325,1.566-3.551,2.71-4.123.457,1.157,1.585,1.977,2.905,1.977,1.725,0,3.123-1.398,3.123-3.123s-1.398-3.123-3.123-3.123Z" fill="#0c0d0b"/>
    <path d="M53.558,59.498c-1.725,0-3.123,1.398-3.123,3.123,0,.307.045.603.128.884-.987.488-2.336,1.442-2.762,3.134-.426-1.692-1.775-2.646-2.762-3.134.083-.28.128-.577.128-.884,0-1.725-1.398-3.123-3.123-3.123s-3.123,1.398-3.123,3.123,1.398,3.123,3.123,3.123c1.32,0,2.448-.819,2.905-1.977,1.144.573,2.771,1.798,2.71,4.123v1.852h.286v-1.852c-.061-2.325,1.566-3.551,2.71-4.123.457,1.157,1.585,1.977,2.905,1.977,1.725,0,3.123-1.398,3.123-3.123s-1.398-3.123-3.123-3.123Z" fill="#0c0d0b"/>
    <path d="M53.558,69.744c-1.725,0-3.123,1.398-3.123,3.123,0,.307.045.603.128.884-.987.488-2.336,1.442-2.762,3.134-.426-1.692-1.775-2.646-2.762-3.134.083-.28.128-.577.128-.884,0-1.725-1.398-3.123-3.123-3.123s-3.123,1.398-3.123,3.123,1.398,3.123,3.123,3.123c1.32,0,2.448-.819,2.905-1.977,1.144.573,2.771,1.798,2.71,4.123v1.852h.286v-1.852c-.061-2.325,1.566-3.551,2.71-4.123.457,1.157,1.585,1.977,2.905,1.977,1.725,0,3.123-1.398,3.123-3.123s-1.398-3.123-3.123-3.123Z" fill="#0c0d0b"/>
  </g>
  <g id="Flores">
    <g>
      <g>
        <path d="M63.929,4.682C63.929,2.099,61.836.005,59.253.005s-4.677,2.094-4.677,4.677,2.094,4.677,4.677,4.677c.864,0,1.672-.235,2.367-.643.559,4.239-.643,8.521-3.324,11.649-.366-.295-.903-.28-1.25.055-.359.346-.385.907-.071,1.285-.006.005-.012.011-.018.016-.444.389-.909.745-1.391,1.069-.052-.072-.114-.138-.187-.195-.412-.321-1.007-.247-1.328.165-.223.286-.255.66-.116.969-.535.261-1.085.486-1.647.677-.112-.294-.369-.526-.7-.592-.513-.102-1.011.232-1.112.745-.022.114-.024.226-.006.335-.581.116-1.17.198-1.764.245-.02-.164-.082-.325-.191-.465-.32-.413-.915-.488-1.328-.167-.216.168-.339.411-.361.663-.592-.026-1.184-.087-1.772-.182.003-.026.005-.051.006-.077.016-.522-.395-.959-.917-.975-.427-.013-.796.259-.925.643-.568-.163-1.13-.359-1.682-.588.135-.368.032-.796-.289-1.058-.405-.331-1.001-.271-1.332.134-.027.033-.05.067-.072.102-.514-.289-1.015-.61-1.501-.961.144-.214.2-.486.132-.756-.126-.507-.64-.816-1.147-.69-.507.126-.816.64-.69,1.147.126.507.64.816,1.147.69.195-.048.36-.154.482-.294.489.354.995.679,1.517.973-.171.381-.075.843.263,1.12.405.331,1.001.271,1.332-.134.041-.05.075-.103.104-.158.555.231,1.123.431,1.699.597-.009.048-.015.098-.016.148-.016.522.395.959.917.975.451.014.837-.29.945-.71.593.096,1.191.158,1.793.184.009.187.074.373.197.532.321.413.915.488,1.328.167.236-.183.361-.456.365-.733.604-.048,1.2-.131,1.785-.25.099.323.367.583.722.653.513.102,1.011-.232,1.112-.745.027-.137.023-.273-.007-.401.572-.195,1.129-.425,1.668-.689.058.094.132.18.224.252.412.321,1.007.247,1.328-.165.238-.305.258-.709.087-1.029.491-.329.962-.689,1.408-1.08.007-.006.014-.013.022-.019.365.34.937.34,1.3-.011.375-.361.387-.957.028-1.334,1.467-1.703,2.515-3.761,3.067-6.043.457-1.89.549-3.84.283-5.762,1.316-.828,2.192-2.292,2.192-3.961Z" fill="#ff9b85"/>
        <circle cx="47.623" cy="11.002" r="9.859" fill="#0c0d0b"/>
      </g>
      <circle cx="39.623" cy="14.111" r="3.552" fill="#ffc1b3"/>
    </g>
  </g>
</svg>