<?xml version="1.0" encoding="UTF-8"?>
<svg xmlns="http://www.w3.org/2000/svg" width="275.651" height="450" viewBox="0 0 275.651 450">
  <g id="Tallo">
    <g>
      <line x1="138.542" y1="450" x2="138.542" y2="35.352" fill="none" stroke="#0c0d0b" stroke-miterlimit="10" stroke-width="2.351"/>
      <polyline points="228.672 89.175 228.672 125.932 205.964 125.932 138.045 224.878 138.113 224.878 70.194 125.932 47.486 125.932 47.486 89.175" fill="none" stroke="#000" stroke-miterlimit="10" stroke-width="1.175"/>
      <path d="M228.672,224.878v32.274c0,5.293-4.291,9.584-9.584,9.584h-70.964c-5.298,0-9.591,4.298-9.584,9.596l.056,43.761h-.551s.056-43.761.056-43.761c.007-5.298-4.286-9.596-9.584-9.596H57.553c-5.293,0-9.584-4.291-9.584-9.584v-32.274" fill="none" stroke="#000" stroke-miterlimit="10" stroke-width="1.175"/>
    </g>
  </g>
  <g id="Hojas">
    <path d="M163.29,362.114c-7.328,0-13.269,5.941-13.269,13.269,0,1.305.191,2.564.542,3.755-4.194,2.072-9.926,6.128-11.738,13.317-1.812-7.19-7.544-11.245-11.738-13.317.351-1.191.542-2.45.542-3.755,0-7.328-5.941-13.269-13.269-13.269s-13.269,5.941-13.269,13.269,5.941,13.269,13.269,13.269c5.608,0,10.4-3.481,12.342-8.399,4.86,2.433,11.774,7.641,11.514,17.521v7.869h1.217v-7.869c-.26-9.88,6.653-15.088,11.514-17.521,1.942,4.918,6.734,8.399,12.342,8.399,7.328,0,13.269-5.941,13.269-13.269s-5.941-13.269-13.269-13.269Z" fill="#0c0d0b"/>
    <path d="M163.29,324.382c-7.328,0-13.269,5.941-13.269,13.269,0,1.305.191,2.564.542,3.755-4.194,2.072-9.926,6.128-11.738,13.317-1.812-7.19-7.544-11.245-11.738-13.317.351-1.191.542-2.45.542-3.755,0-7.328-5.941-13.269-13.269-13.269s-13.269,5.941-13.269,13.269,5.941,13.269,13.269,13.269c5.608,0,10.4-3.481,12.342-8.399,4.86,2.433,11.774,7.641,11.514,17.521v7.869h1.217v-7.869c-.26-9.88,6.653-15.088,11.514-17.521,1.942,4.918,6.734,8.399,12.342,8.399,7.328,0,13.269-5.941,13.269-13.269s-5.941-13.269-13.269-13.269Z" fill="#0c0d0b"/>
    <path d="M163.29,286.649c-7.328,0-13.269,5.941-13.269,13.269,0,1.305.191,2.564.542,3.755-4.194,2.072-9.926,6.128-11.738,13.317-1.812-7.19-7.544-11.245-11.738-13.317.351-1.191.542-2.45.542-3.755,0-7.328-5.941-13.269-13.269-13.269s-13.269,5.941-13.269,13.269,5.941,13.269,13.269,13.269c5.608,0,10.4-3.481,12.342-8.399,4.86,2.433,11.774,7.641,11.514,17.521v7.869h1.217v-7.869c-.26-9.88,6.653-15.088,11.514-17.521,1.942,4.918,6.734,8.399,12.342,8.399,7.328,0,13.269-5.941,13.269-13.269s-5.941-13.269-13.269-13.269Z" fill="#0c0d0b"/>
    <g>
      <path d="M71.897,190.45c-7.328,0-13.269,5.941-13.269,13.269,0,1.305.191,2.564.542,3.755-4.194,2.072-9.926,6.128-11.738,13.317-1.812-7.19-7.544-11.245-11.738-13.317.351-1.191.542-2.45.542-3.755,0-7.328-5.941-13.269-13.269-13.269s-13.269,5.941-13.269,13.269,5.941,13.269,13.269,13.269c5.608,0,10.4-3.481,12.342-8.399,4.86,2.433,11.774,7.641,11.514,17.521v7.869h1.217v-7.869c-.26-9.88,6.653-15.088,11.514-17.521,1.942,4.918,6.734,8.399,12.342,8.399,7.328,0,13.269-5.941,13.269-13.269s-5.941-13.269-13.269-13.269Z" fill="#0c0d0b"/>
      <circle cx="47.395" cy="231" r="8" fill="#0c0d0b"/>
    </g>
    <g>
      <path d="M252.683,190.45c-7.328,0-13.269,5.941-13.269,13.269,0,1.305.191,2.564.542,3.755-4.194,2.072-9.926,6.128-11.738,13.317-1.812-7.19-7.544-11.245-11.738-13.317.351-1.191.542-2.45.542-3.755,0-7.328-5.941-13.269-13.269-13.269s-13.269,5.941-13.269,13.269,5.941,13.269,13.269,13.269c5.608,0,10.4-3.481,12.342-8.399,4.86,2.433,11.774,7.641,11.514,17.521v7.869h1.217v-7.869c-.26-9.88,6.653-15.088,11.514-17.521,1.942,4.918,6.734,8.399,12.342,8.399,7.328,0,13.269-5.941,13.269-13.269s-5.941-13.269-13.269-13.269Z" fill="#0c0d0b"/>
      <circle cx="228.395" cy="231" r="8" fill="#0c0d0b"/>
    </g>
  </g>
  <g id="Flores">
    <g>
      <g>
        <path d="M198.215,17.908c0-9.89-8.018-17.908-17.908-17.908s-17.908,8.018-17.908,17.908,8.018,17.908,17.908,17.908c3.307,0,6.403-.9,9.061-2.463,2.141,16.231-2.463,32.625-12.726,44.603-1.401-1.131-3.456-1.072-4.786.21-1.376,1.326-1.474,3.474-.272,4.92-.023.021-.046.042-.07.062-1.698,1.491-3.48,2.853-5.328,4.093-.198-.276-.436-.529-.717-.749-1.579-1.23-3.856-.947-5.086.632-.853,1.096-.977,2.527-.446,3.711-2.048.998-4.155,1.862-6.307,2.592-.43-1.126-1.412-2.014-2.682-2.265-1.963-.389-3.87.888-4.258,2.851-.086.435-.09.867-.023,1.281-2.226.445-4.482.759-6.754.938-.077-.628-.314-1.244-.731-1.78-1.227-1.581-3.504-1.868-5.084-.64-.828.643-1.297,1.573-1.383,2.54-2.265-.101-4.532-.334-6.787-.696.011-.098.019-.196.022-.297.061-2-1.512-3.671-3.512-3.732-1.634-.049-3.047.991-3.544,2.464-2.176-.624-4.326-1.375-6.44-2.25.517-1.409.121-3.049-1.106-4.052-1.55-1.267-3.832-1.037-5.099.512-.103.126-.192.258-.275.392-1.968-1.107-3.886-2.336-5.746-3.681.55-.82.765-1.861.507-2.895-.484-1.942-2.45-3.124-4.392-2.64-1.942.484-3.124,2.45-2.64,4.392.484,1.942,2.45,3.124,4.392,2.64.745-.186,1.377-.59,1.847-1.126,1.871,1.355,3.811,2.6,5.81,3.727-.656,1.458-.288,3.229,1.009,4.29,1.55,1.267,3.832,1.037,5.099-.512.156-.191.289-.393.4-.603,2.126.885,4.299,1.651,6.507,2.288-.035.185-.056.374-.062.568-.061,2,1.512,3.671,3.512,3.732,1.726.052,3.206-1.112,3.619-2.718,2.27.367,4.562.605,6.866.706.036.715.282,1.427.755,2.036,1.227,1.581,3.504,1.868,5.085.64.904-.702,1.383-1.747,1.399-2.808,2.312-.184,4.595-.503,6.837-.956.377,1.237,1.406,2.231,2.763,2.5,1.963.389,3.87-.888,4.258-2.851.104-.526.088-1.047-.028-1.537,2.19-.746,4.323-1.629,6.387-2.638.221.36.505.688.858.963,1.579,1.23,3.856.947,5.085-.632.91-1.168.989-2.716.332-3.942,1.881-1.26,3.683-2.639,5.39-4.137.028-.025.055-.05.083-.075,1.399,1.303,3.586,1.302,4.979-.041,1.436-1.384,1.482-3.665.109-5.107,5.617-6.522,9.632-14.401,11.745-23.137,1.75-7.236,2.1-14.703,1.085-22.064,5.04-3.169,8.392-8.775,8.392-15.168Z" fill="#ff9b85"/>
        <circle cx="135.779" cy="42.108" r="37.752" fill="#0c0d0b"/>
      </g>
      <circle cx="105.144" cy="54.013" r="13.601" fill="#ffc1b3"/>
    </g>
    <circle cx="229.728" cy="98.497" r="9.952" fill="#e17a74"/>
    <circle cx="48.942" cy="98.497" r="9.952" fill="#e17a74"/>
  </g>
</svg>