<?xml version="1.0" encoding="UTF-8"?>
<svg xmlns="http://www.w3.org/2000/svg" width="100" height="100" viewBox="0 0 100 100">
  <g id="Tallo">
    <g>
      <g>
        <path d="M54.993,68.26c-1.643,0-2.975,1.332-2.975,2.975v4.504c0,1.374.932,2.53,2.198,2.872l-4.183,4.721v3.298l-4.714-5.321c1.634-.011,2.955-1.339,2.955-2.975v-4.504c0-1.643-1.332-2.975-2.975-2.975s-2.975,1.332-2.975,2.975v4.504c0,1.549,1.184,2.821,2.696,2.962l4.987,5.629v4.692h.244v-8.204l4.207-4.749c.174.032.353.049.537.049,1.643,0,2.975-1.332,2.975-2.975v-4.504c0-1.643-1.332-2.975-2.975-2.975Z"/>
        <circle cx="54.996" cy="73.69" r="1.11" fill="#ffc1b3"/>
        <circle cx="45.419" cy="75.909" r="1.11" fill="#ffc1b3"/>
      </g>
      <g>
        <path d="M73.784,17.944c-1.517,0-2.748,1.23-2.748,2.748,0,.27.04.531.112.778-.868.429-2.055,1.269-2.431,2.758-.375-1.489-1.562-2.329-2.431-2.758.073-.247.112-.507.112-.778,0-1.517-1.23-2.748-2.748-2.748s-2.748,1.23-2.748,2.748,1.23,2.748,2.748,2.748c1.161,0,2.154-.721,2.556-1.739,1.006.504,2.438,1.582,2.384,3.628v1.63h.252v-1.63c-.054-2.046,1.378-3.124,2.384-3.628.402,1.018,1.394,1.739,2.556,1.739,1.517,0,2.748-1.23,2.748-2.748s-1.23-2.748-2.748-2.748Z" fill="#0c0d0b"/>
        <circle cx="68.724" cy="26.669" r="1.778" fill="#0c0d0b"/>
      </g>
      <g>
        <path d="M36.348,17.944c-1.517,0-2.748,1.23-2.748,2.748,0,.27.04.531.112.778-.868.429-2.055,1.269-2.431,2.758-.375-1.489-1.562-2.329-2.431-2.758.073-.247.112-.507.112-.778,0-1.517-1.23-2.748-2.748-2.748s-2.748,1.23-2.748,2.748,1.23,2.748,2.748,2.748c1.161,0,2.154-.721,2.556-1.739,1.006.504,2.438,1.582,2.384,3.628v1.63h.252v-1.63c-.054-2.046,1.378-3.124,2.384-3.628.402,1.018,1.394,1.739,2.556,1.739,1.517,0,2.748-1.23,2.748-2.748s-1.23-2.748-2.748-2.748Z" fill="#0c0d0b"/>
        <circle cx="31.394" cy="26.669" r="1.778" fill="#0c0d0b"/>
      </g>
      <g>
        <path d="M36.348,45.421c-1.517,0-2.748,1.23-2.748,2.748,0,.27.04.531.112.778-.868.429-2.055,1.269-2.431,2.758-.375-1.489-1.562-2.329-2.431-2.758.073-.247.112-.507.112-.778,0-1.517-1.23-2.748-2.748-2.748s-2.748,1.23-2.748,2.748,1.23,2.748,2.748,2.748c1.161,0,2.154-.721,2.556-1.739,1.006.504,2.438,1.582,2.384,3.628v1.63h.252v-1.63c-.054-2.046,1.378-3.124,2.384-3.628.402,1.018,1.394,1.739,2.556,1.739,1.517,0,2.748-1.23,2.748-2.748s-1.23-2.748-2.748-2.748Z" fill="#0c0d0b"/>
        <circle cx="31.394" cy="53.777" r="1.778" fill="#0c0d0b"/>
      </g>
      <g>
        <path d="M73.784,45.421c-1.517,0-2.748,1.23-2.748,2.748,0,.27.04.531.112.778-.868.429-2.055,1.269-2.431,2.758-.375-1.489-1.562-2.329-2.431-2.758.073-.247.112-.507.112-.778,0-1.517-1.23-2.748-2.748-2.748s-2.748,1.23-2.748,2.748,1.23,2.748,2.748,2.748c1.161,0,2.154-.721,2.556-1.739,1.006.504,2.438,1.582,2.384,3.628v1.63h.252v-1.63c-.054-2.046,1.378-3.124,2.384-3.628.402,1.018,1.394,1.739,2.556,1.739,1.517,0,2.748-1.23,2.748-2.748s-1.23-2.748-2.748-2.748Z" fill="#0c0d0b"/>
        <circle cx="68.724" cy="53.777" r="1.778" fill="#0c0d0b"/>
      </g>
      <g>
        <path d="M54.993,24.47c-1.643,0-2.975,1.332-2.975,2.975v4.504c0,1.374.932,2.53,2.198,2.872l-4.183,4.721v3.298l-4.714-5.321c1.634-.011,2.955-1.339,2.955-2.975v-4.504c0-1.643-1.332-2.975-2.975-2.975s-2.975,1.332-2.975,2.975v4.504c0,1.549,1.184,2.821,2.696,2.962l4.987,5.629v4.692h.244v-8.204l4.207-4.749c.174.032.353.049.537.049,1.643,0,2.975-1.332,2.975-2.975v-4.504c0-1.643-1.332-2.975-2.975-2.975Z"/>
        <circle cx="54.996" cy="29.9" r="1.11" fill="#ffc1b3"/>
        <circle cx="45.419" cy="32.119" r="1.11" fill="#ffc1b3"/>
      </g>
    </g>
    <g>
      <line x1="50.148" y1="99.995" x2="50.148" y2="14.132" fill="none" stroke="#0c0d0b" stroke-miterlimit="10" stroke-width=".487"/>
      <polyline points="68.812 25.277 68.812 32.889 64.11 32.889 50.045 53.378 50.059 53.378 35.995 32.889 31.293 32.889 31.293 25.277" fill="none" stroke="#000" stroke-miterlimit="10" stroke-width=".243"/>
      <path d="M68.812,53.378v6.683c0,1.096-.889,1.985-1.985,1.985h-14.695c-1.097,0-1.986.89-1.985,1.987l.012,9.062h-.114s.012-9.062.012-9.062c.001-1.097-.888-1.987-1.985-1.987h-14.695c-1.096,0-1.985-.889-1.985-1.985v-6.683" fill="none" stroke="#000" stroke-miterlimit="10" stroke-width=".243"/>
    </g>
  </g>
  <g id="Flores">
    <path d="M50,19.601c5.178,0,9.376-4.198,9.376-9.376h-18.752c0,5.178,4.198,9.376,9.376,9.376Z" fill="#0c0d0b"/>
    <circle cx="50" cy="10.225" r="3.967" fill="#e17a74"/>
    <path d="M63.514,4.12C63.514,1.847,61.672.005,59.399.005s-4.115,1.842-4.115,4.115,1.842,4.115,4.115,4.115c.76,0,1.471-.207,2.082-.566.492,3.73-.566,7.497-2.924,10.25-.322-.26-.794-.246-1.1.048-.316.305-.339.798-.063,1.131-.005.005-.011.01-.016.014-.39.343-.8.656-1.224.941-.045-.063-.1-.122-.165-.172-.363-.283-.886-.218-1.169.145-.196.252-.224.581-.102.853-.471.229-.955.428-1.449.596-.099-.259-.324-.463-.616-.521-.451-.089-.889.204-.979.655-.02.1-.021.199-.005.294-.512.102-1.03.174-1.552.215-.018-.144-.072-.286-.168-.409-.282-.363-.805-.429-1.168-.147-.19.148-.298.361-.318.584-.521-.023-1.041-.077-1.56-.16.003-.022.004-.045.005-.068.014-.46-.347-.844-.807-.858-.375-.011-.7.228-.814.566-.5-.143-.994-.316-1.48-.517.119-.324.028-.701-.254-.931-.356-.291-.881-.238-1.172.118-.024.029-.044.059-.063.09-.452-.254-.893-.537-1.32-.846.126-.189.176-.428.117-.665-.111-.446-.563-.718-1.009-.607-.446.111-.718.563-.607,1.009.111.446.563.718,1.009.607.171-.043.317-.136.425-.259.43.311.876.597,1.335.856-.151.335-.066.742.232.986.356.291.881.238,1.172-.118.036-.044.066-.09.092-.139.489.203.988.379,1.495.526-.008.042-.013.086-.014.131-.014.46.347.844.807.858.397.012.737-.256.832-.625.522.084,1.048.139,1.578.162.008.164.065.328.173.468.282.363.805.429,1.168.147.208-.161.318-.401.322-.645.531-.042,1.056-.116,1.571-.22.087.284.323.513.635.574.451.089.889-.204.979-.655.024-.121.02-.241-.006-.353.503-.172.993-.374,1.468-.606.051.083.116.158.197.221.363.283.886.218,1.169-.145.209-.268.227-.624.076-.906.432-.29.846-.606,1.239-.951.006-.006.013-.011.019-.017.321.299.824.299,1.144-.009.33-.318.341-.842.025-1.174,1.291-1.499,2.213-3.309,2.699-5.317.402-1.663.483-3.379.249-5.07,1.158-.728,1.928-2.017,1.928-3.485Z" fill="#0c0d0b"/>
    <circle cx="59.376" cy="4.094" r="2.524" fill="#ffc1b3"/>
  </g>
</svg>