<?xml version="1.0" encoding="UTF-8"?>
<svg xmlns="http://www.w3.org/2000/svg" width="275.651" height="450" viewBox="0 0 275.651 450">
  <g id="Tallo">
    <g>
      <line x1="138.493" y1="450" x2="138.493" y2="63.578" fill="none" stroke="#0c0d0b" stroke-miterlimit="10" stroke-width="2.191"/>
      <polyline points="222.488 113.737 222.488 147.992 201.326 147.992 138.03 240.202 138.093 240.202 74.797 147.992 53.635 147.992 53.635 113.737" fill="none" stroke="#000" stroke-miterlimit="10" stroke-width="1.095"/>
      <path d="M222.488,240.202v30.077c0,4.933-3.999,8.932-8.932,8.932h-66.134c-4.937,0-8.938,4.006-8.932,8.943l.052,40.782h-.513s.052-40.782.052-40.782c.006-4.937-3.994-8.943-8.932-8.943H63.017c-4.933,0-8.932-3.999-8.932-8.932v-30.077" fill="none" stroke="#000" stroke-miterlimit="10" stroke-width="1.095"/>
    </g>
  </g>
  <g id="Hojas">
    <g>
      <path d="M160.299,307.179c-7.396,0-13.391,5.995-13.391,13.391v20.271c0,6.184,4.194,11.387,9.891,12.926l-18.824,21.247v14.844l-21.216-23.946c7.352-.051,13.297-6.025,13.297-13.389v-20.271c0-7.396-5.995-13.391-13.391-13.391s-13.391,5.995-13.391,13.391v20.271c0,6.971,5.328,12.696,12.133,13.33l22.446,25.335v21.117h1.096v-36.922l18.935-21.372c.784.143,1.59.221,2.415.221,7.396,0,13.391-5.995,13.391-13.391v-20.271c0-7.396-5.995-13.391-13.391-13.391Z"/>
      <circle cx="160.309" cy="331.615" r="4.993" fill="#ffc1b3"/>
      <circle cx="117.208" cy="341.601" r="4.993" fill="#ffc1b3"/>
    </g>
    <g>
      <path d="M244.865,80.735c-6.829,0-12.366,5.536-12.366,12.366,0,1.216.178,2.389.505,3.499-3.909,1.931-9.25,5.71-10.939,12.411-1.689-6.7-7.03-10.48-10.939-12.411.327-1.11.505-2.283.505-3.499,0-6.829-5.536-12.366-12.366-12.366s-12.366,5.536-12.366,12.366,5.536,12.366,12.366,12.366c5.226,0,9.692-3.244,11.502-7.827,4.529,2.267,10.972,7.121,10.73,16.328v7.334h1.134v-7.334c-.242-9.207,6.2-14.061,10.73-16.328,1.81,4.583,6.276,7.827,11.502,7.827,6.829,0,12.366-5.536,12.366-12.366s-5.536-12.366-12.366-12.366Z" fill="#0c0d0b"/>
      <circle cx="222.092" cy="120" r="8" fill="#0c0d0b"/>
    </g>
    <g>
      <path d="M76.384,80.735c-6.829,0-12.366,5.536-12.366,12.366,0,1.216.178,2.389.505,3.499-3.909,1.931-9.25,5.71-10.939,12.411-1.689-6.7-7.03-10.48-10.939-12.411.327-1.11.505-2.283.505-3.499,0-6.829-5.536-12.366-12.366-12.366s-12.366,5.536-12.366,12.366,5.536,12.366,12.366,12.366c5.226,0,9.692-3.244,11.502-7.827,4.529,2.267,10.972,7.121,10.73,16.328v7.334h1.134v-7.334c-.242-9.207,6.2-14.061,10.73-16.328,1.81,4.583,6.276,7.827,11.502,7.827,6.829,0,12.366-5.536,12.366-12.366s-5.536-12.366-12.366-12.366Z" fill="#0c0d0b"/>
      <circle cx="54.092" cy="120" r="8" fill="#0c0d0b"/>
    </g>
    <g>
      <path d="M76.384,204.39c-6.829,0-12.366,5.536-12.366,12.366,0,1.216.178,2.389.505,3.499-3.909,1.931-9.25,5.71-10.939,12.411-1.689-6.7-7.03-10.48-10.939-12.411.327-1.11.505-2.283.505-3.499,0-6.829-5.536-12.366-12.366-12.366s-12.366,5.536-12.366,12.366,5.536,12.366,12.366,12.366c5.226,0,9.692-3.244,11.502-7.827,4.529,2.267,10.972,7.121,10.73,16.328v7.334h1.134v-7.334c-.242-9.207,6.2-14.061,10.73-16.328,1.81,4.583,6.276,7.827,11.502,7.827,6.829,0,12.366-5.536,12.366-12.366s-5.536-12.366-12.366-12.366Z" fill="#0c0d0b"/>
      <circle cx="54.092" cy="242" r="8" fill="#0c0d0b"/>
    </g>
    <g>
      <path d="M244.865,204.39c-6.829,0-12.366,5.536-12.366,12.366,0,1.216.178,2.389.505,3.499-3.909,1.931-9.25,5.71-10.939,12.411-1.689-6.7-7.03-10.48-10.939-12.411.327-1.11.505-2.283.505-3.499,0-6.829-5.536-12.366-12.366-12.366s-12.366,5.536-12.366,12.366,5.536,12.366,12.366,12.366c5.226,0,9.692-3.244,11.502-7.827,4.529,2.267,10.972,7.121,10.73,16.328v7.334h1.134v-7.334c-.242-9.207,6.2-14.061,10.73-16.328,1.81,4.583,6.276,7.827,11.502,7.827,6.829,0,12.366-5.536,12.366-12.366s-5.536-12.366-12.366-12.366Z" fill="#0c0d0b"/>
      <circle cx="222.092" cy="242" r="8" fill="#0c0d0b"/>
    </g>
    <g>
      <path d="M160.299,110.103c-7.396,0-13.391,5.995-13.391,13.391v20.271c0,6.184,4.194,11.387,9.891,12.926l-18.824,21.247v14.844l-21.216-23.946c7.352-.051,13.297-6.025,13.297-13.389v-20.271c0-7.396-5.995-13.391-13.391-13.391s-13.391,5.995-13.391,13.391v20.271c0,6.971,5.328,12.696,12.133,13.33l22.446,25.335v21.117h1.096v-36.922l18.935-21.372c.784.143,1.59.221,2.415.221,7.396,0,13.391-5.995,13.391-13.391v-20.271c0-7.396-5.995-13.391-13.391-13.391Z"/>
      <circle cx="160.309" cy="134.539" r="4.993" fill="#ffc1b3"/>
      <circle cx="117.208" cy="144.526" r="4.993" fill="#ffc1b3"/>
    </g>
  </g>
  <g id="Flores">
    <path d="M137.825,88.19c23.305,0,42.197-18.892,42.197-42.197h-84.395c0,23.305,18.892,42.197,42.197,42.197Z" fill="#0c0d0b"/>
    <circle cx="137.825" cy="45.992" r="17.853" fill="#e17a74"/>
    <path d="M198.645,18.52c0-10.228-8.292-18.52-18.52-18.52s-18.52,8.292-18.52,18.52,8.292,18.52,18.52,18.52c3.42,0,6.622-.931,9.371-2.548,2.214,16.786-2.548,33.741-13.161,46.128-1.449-1.17-3.574-1.109-4.95.217-1.423,1.371-1.524,3.593-.281,5.089-.024.021-.048.043-.072.065-1.756,1.542-3.599,2.951-5.51,4.233-.205-.285-.451-.547-.742-.774-1.633-1.272-3.988-.979-5.259.654-.882,1.133-1.01,2.613-.461,3.838-2.118,1.033-4.298,1.926-6.523,2.681-.445-1.165-1.46-2.082-2.774-2.343-2.03-.402-4.002.918-4.404,2.948-.089.45-.093.897-.024,1.325-2.302.461-4.635.785-6.985.97-.079-.649-.325-1.287-.756-1.841-1.269-1.635-3.623-1.931-5.258-.662-.856.665-1.341,1.627-1.431,2.627-2.343-.104-4.687-.346-7.019-.72.011-.101.02-.203.023-.307.063-2.069-1.564-3.797-3.632-3.859-1.69-.051-3.152,1.025-3.665,2.548-2.25-.645-4.474-1.422-6.66-2.327.534-1.457.126-3.153-1.144-4.191-1.603-1.31-3.963-1.073-5.273.53-.106.13-.199.267-.285.406-2.035-1.145-4.019-2.415-5.942-3.807.569-.848.791-1.925.525-2.994-.5-2.008-2.534-3.231-4.542-2.731-2.008.5-3.231,2.534-2.731,4.542.5,2.008,2.534,3.231,4.542,2.731.77-.192,1.424-.61,1.911-1.165,1.935,1.401,3.942,2.688,6.009,3.854-.679,1.508-.298,3.34,1.043,4.436,1.603,1.31,3.963,1.073,5.273-.53.161-.198.299-.407.414-.624,2.199.916,4.446,1.707,6.73,2.366-.036.191-.058.387-.064.588-.063,2.069,1.564,3.797,3.632,3.859,1.785.054,3.316-1.15,3.742-2.811,2.347.379,4.718.626,7.101.73.037.74.292,1.476.78,2.106,1.269,1.635,3.623,1.931,5.258.662.935-.726,1.43-1.806,1.447-2.904,2.391-.191,4.752-.52,7.07-.989.39,1.279,1.454,2.307,2.858,2.585,2.03.402,4.002-.918,4.404-2.948.108-.544.091-1.083-.029-1.589,2.265-.772,4.471-1.684,6.605-2.728.229.372.522.712.887.996,1.633,1.272,3.988.979,5.259-.654.941-1.208,1.023-2.809.343-4.077,1.946-1.304,3.809-2.729,5.574-4.278.029-.025.057-.052.086-.077,1.447,1.347,3.709,1.346,5.15-.042,1.485-1.431,1.533-3.791.113-5.282,5.809-6.745,9.961-14.893,12.146-23.928,1.81-7.483,2.172-15.206,1.122-22.818,5.212-3.277,8.678-9.075,8.678-15.686Z" fill="#0c0d0b"/>
    <circle cx="180.022" cy="18.402" r="11.361" fill="#ffc1b3"/>
  </g>
</svg>