<?xml version="1.0" encoding="UTF-8"?>
<svg xmlns="http://www.w3.org/2000/svg" width="100" height="100" viewBox="0 0 100 100">
  <g id="Tallo">
    <path d="M38.33,99.995V23.617s.015-15.802,17.222-13.796" fill="none" stroke="#0c0d0b" stroke-miterlimit="10" stroke-width=".525"/>
  </g>
  <g id="Hojas">
    <g>
      <path d="M41.661,20.478c-1.13,0-2.046.916-2.046,2.046v3.097c0,.945.641,1.74,1.511,1.975l-2.876,3.246v2.268l-3.241-3.658c1.123-.008,2.031-.92,2.031-2.045v-3.097c0-1.13-.916-2.046-2.046-2.046s-2.046.916-2.046,2.046v3.097c0,1.065.814,1.94,1.854,2.037l3.429,3.871v3.226h.167v-5.641l2.893-3.265c.12.022.243.034.369.034,1.13,0,2.046-.916,2.046-2.046v-3.097c0-1.13-.916-2.046-2.046-2.046Z"/>
      <circle cx="41.663" cy="24.211" r=".763" fill="#ffc1b3"/>
      <circle cx="35.078" cy="25.737" r=".763" fill="#ffc1b3"/>
    </g>
    <g>
      <path d="M41.661,31.9c-1.13,0-2.046.916-2.046,2.046v3.097c0,.945.641,1.74,1.511,1.975l-2.876,3.246v2.268l-3.241-3.658c1.123-.008,2.031-.92,2.031-2.045v-3.097c0-1.13-.916-2.046-2.046-2.046s-2.046.916-2.046,2.046v3.097c0,1.065.814,1.94,1.854,2.037l3.429,3.871v3.226h.167v-5.641l2.893-3.265c.12.022.243.034.369.034,1.13,0,2.046-.916,2.046-2.046v-3.097c0-1.13-.916-2.046-2.046-2.046Z"/>
      <circle cx="41.663" cy="35.633" r=".763" fill="#ffc1b3"/>
      <circle cx="35.078" cy="37.159" r=".763" fill="#ffc1b3"/>
    </g>
    <g>
      <path d="M41.661,43.322c-1.13,0-2.046.916-2.046,2.046v3.097c0,.945.641,1.74,1.511,1.975l-2.876,3.246v2.268l-3.241-3.658c1.123-.008,2.031-.92,2.031-2.045v-3.097c0-1.13-.916-2.046-2.046-2.046s-2.046.916-2.046,2.046v3.097c0,1.065.814,1.94,1.854,2.037l3.429,3.871v3.226h.167v-5.641l2.893-3.265c.12.022.243.034.369.034,1.13,0,2.046-.916,2.046-2.046v-3.097c0-1.13-.916-2.046-2.046-2.046Z"/>
      <circle cx="41.663" cy="47.055" r=".763" fill="#ffc1b3"/>
      <circle cx="35.078" cy="48.581" r=".763" fill="#ffc1b3"/>
    </g>
    <g>
      <path d="M41.661,54.744c-1.13,0-2.046.916-2.046,2.046v3.097c0,.945.641,1.74,1.511,1.975l-2.876,3.246v2.268l-3.241-3.658c1.123-.008,2.031-.92,2.031-2.045v-3.097c0-1.13-.916-2.046-2.046-2.046s-2.046.916-2.046,2.046v3.097c0,1.065.814,1.94,1.854,2.037l3.429,3.871v3.226h.167v-5.641l2.893-3.265c.12.022.243.034.369.034,1.13,0,2.046-.916,2.046-2.046v-3.097c0-1.13-.916-2.046-2.046-2.046Z"/>
      <circle cx="41.663" cy="58.477" r=".763" fill="#ffc1b3"/>
      <circle cx="35.078" cy="60.003" r=".763" fill="#ffc1b3"/>
    </g>
    <g>
      <path d="M41.661,66.166c-1.13,0-2.046.916-2.046,2.046v3.097c0,.945.641,1.74,1.511,1.975l-2.876,3.246v2.268l-3.241-3.658c1.123-.008,2.031-.92,2.031-2.045v-3.097c0-1.13-.916-2.046-2.046-2.046s-2.046.916-2.046,2.046v3.097c0,1.065.814,1.94,1.854,2.037l3.429,3.871v3.226h.167v-5.641l2.893-3.265c.12.022.243.034.369.034,1.13,0,2.046-.916,2.046-2.046v-3.097c0-1.13-.916-2.046-2.046-2.046Z"/>
      <circle cx="41.663" cy="69.899" r=".763" fill="#ffc1b3"/>
      <circle cx="35.078" cy="71.425" r=".763" fill="#ffc1b3"/>
    </g>
  </g>
  <g id="Flores">
    <g>
      <path d="M54.412,18.331c4.843,0,8.769-3.926,8.769-8.769h-17.538c0,4.843,3.926,8.769,8.769,8.769Z" fill="#0c0d0b"/>
      <circle cx="54.412" cy="9.563" r="3.71" fill="#e17a74"/>
      <path d="M67.051,3.854C67.051,1.728,65.328.005,63.202.005s-3.849,1.723-3.849,3.849,1.723,3.849,3.849,3.849c.711,0,1.376-.193,1.947-.529.46,3.488-.529,7.012-2.735,9.586-.301-.243-.743-.23-1.029.045-.296.285-.317.747-.058,1.057-.005.004-.01.009-.015.013-.365.32-.748.613-1.145.88-.043-.059-.094-.114-.154-.161-.339-.264-.829-.203-1.093.136-.183.235-.21.543-.096.798-.44.215-.893.4-1.355.557-.092-.242-.303-.433-.576-.487-.422-.084-.832.191-.915.613-.019.094-.019.186-.005.275-.478.096-.963.163-1.452.202-.016-.135-.068-.267-.157-.383-.264-.34-.753-.401-1.093-.138-.178.138-.279.338-.297.546-.487-.022-.974-.072-1.459-.15.002-.021.004-.042.005-.064.013-.43-.325-.789-.755-.802-.351-.011-.655.213-.762.529-.468-.134-.93-.296-1.384-.484.111-.303.026-.655-.238-.871-.333-.272-.824-.223-1.096.11-.022.027-.041.055-.059.084-.423-.238-.835-.502-1.235-.791.118-.176.164-.4.109-.622-.104-.417-.527-.671-.944-.567-.417.104-.671.527-.567.944.104.417.527.671.944.567.16-.04.296-.127.397-.242.402.291.819.559,1.249.801-.141.313-.062.694.217.922.333.272.824.223,1.096-.11.034-.041.062-.085.086-.13.457.19.924.355,1.399.492-.008.04-.012.08-.013.122-.013.43.325.789.755.802.371.011.689-.239.778-.584.488.079.98.13,1.476.152.008.154.061.307.162.438.264.34.753.401,1.093.138.194-.151.297-.375.301-.604.497-.04.988-.108,1.469-.206.081.266.302.48.594.537.422.084.832-.191.915-.613.022-.113.019-.225-.006-.33.471-.16.929-.35,1.373-.567.047.077.109.148.184.207.339.264.829.203,1.093-.136.195-.251.213-.584.071-.847.404-.271.792-.567,1.158-.889.006-.005.012-.011.018-.016.301.28.771.28,1.07-.009.309-.297.319-.788.023-1.098,1.207-1.402,2.07-3.095,2.524-4.972.376-1.555.451-3.16.233-4.742,1.083-.681,1.803-1.886,1.803-3.26Z" fill="#0c0d0b"/>
      <circle cx="63.181" cy="3.829" r="2.361" fill="#ffc1b3"/>
    </g>
  </g>
</svg>