<?xml version="1.0" encoding="UTF-8"?>
<svg xmlns="http://www.w3.org/2000/svg" width="275.651" height="450" viewBox="0 0 275.651 450">
  <g id="Tallo">
    <g>
      <path d="M193.398,127.43v19.817c0,3.25-2.635,5.885-5.885,5.885h-43.574c-3.253,0-5.889,2.639-5.885,5.892l.034,26.871h-.338s.034-26.871.034-26.871c.004-3.253-2.632-5.892-5.885-5.892h-43.574c-3.25,0-5.885-2.635-5.885-5.885v-19.817" fill="none" stroke="#000" stroke-miterlimit="10" stroke-width="1.061"/>
      <path d="M219.46,272.278v29.127c0,4.777-3.872,8.649-8.649,8.649h-64.044c-4.781,0-8.656,3.879-8.649,8.66l.05,39.493h-.497s.05-39.493.05-39.493c.006-4.781-3.868-8.66-8.649-8.66h-64.044c-4.777,0-8.649-3.872-8.649-8.649v-29.127" fill="none" stroke="#000" stroke-miterlimit="10" stroke-width="1.061"/>
      <line x1="138.119" y1="450" x2="138.119" y2="75.789" fill="none" stroke="#0c0d0b" stroke-miterlimit="10" stroke-width="2.122"/>
    </g>
  </g>
  <g id="Hojas">
    <path d="M115.86,166.786c6.613,0,11.975,5.361,11.975,11.975,0,1.177-.173,2.314-.489,3.389,3.785,1.87,8.958,5.53,10.593,12.018,1.635-6.488,6.808-10.149,10.593-12.018-.317-1.075-.489-2.211-.489-3.389,0-6.613,5.361-11.975,11.975-11.975s11.975,5.361,11.975,11.975c0,6.613-5.361,11.975-11.975,11.975-5.061,0-9.386-3.142-11.139-7.58-4.386,2.196-10.626,6.896-10.391,15.812v7.102h-1.098v-7.102c.235-8.916-6.005-13.617-10.391-15.812-1.753,4.438-6.077,7.58-11.139,7.58-6.613,0-11.975-5.361-11.975-11.975s5.361-11.975,11.975-11.975Z" fill="#0c0d0b"/>
    <path d="M115.86,197.471c6.613,0,11.975,5.361,11.975,11.975,0,1.177-.173,2.314-.489,3.389,3.785,1.87,8.958,5.53,10.593,12.018,1.635-6.488,6.808-10.149,10.593-12.018-.317-1.075-.489-2.211-.489-3.389,0-6.613,5.361-11.975,11.975-11.975s11.975,5.361,11.975,11.975c0,6.613-5.361,11.975-11.975,11.975-5.061,0-9.386-3.142-11.139-7.58-4.386,2.196-10.626,6.896-10.391,15.812v7.102h-1.061s-.037,0-.037,0v-7.102c.235-8.916-6.005-13.617-10.391-15.812-1.753,4.438-6.077,7.58-11.139,7.58-6.613,0-11.975-5.361-11.975-11.975s5.361-11.975,11.975-11.975Z" fill="#0c0d0b"/>
    <path d="M115.86,228.156c6.613,0,11.975,5.361,11.975,11.975,0,1.177-.173,2.314-.489,3.389,3.785,1.87,8.958,5.53,10.593,12.018,1.635-6.488,6.808-10.149,10.593-12.018-.317-1.075-.489-2.211-.489-3.389,0-6.613,5.361-11.975,11.975-11.975s11.975,5.361,11.975,11.975c0,6.613-5.361,11.975-11.975,11.975-5.061,0-9.386-3.142-11.139-7.58-4.386,2.196-10.626,6.896-10.391,15.812v7.102h-1.098v-7.102c.235-8.916-6.005-13.617-10.391-15.812-1.753,4.438-6.077,7.58-11.139,7.58-6.613,0-11.975-5.361-11.975-11.975s5.361-11.975,11.975-11.975Z" fill="#0c0d0b"/>
    <path d="M115.86,258.842c6.613,0,11.975,5.361,11.975,11.975,0,1.177-.173,2.314-.489,3.389,3.785,1.87,8.958,5.53,10.593,12.018,1.635-6.488,6.808-10.149,10.593-12.018-.317-1.075-.489-2.211-.489-3.389,0-6.613,5.361-11.975,11.975-11.975s11.975,5.361,11.975,11.975c0,6.613-5.361,11.975-11.975,11.975-5.061,0-9.386-3.142-11.139-7.58-4.386,2.196-10.626,6.896-10.391,15.812v7.102h-1.061s-.037,0-.037,0v-7.102c.235-8.916-6.005-13.617-10.391-15.812-1.753,4.438-6.077,7.58-11.139,7.58-6.613,0-11.975-5.361-11.975-11.975s5.361-11.975,11.975-11.975Z" fill="#0c0d0b"/>
    <path d="M115.86,326.948c6.613,0,11.975,5.361,11.975,11.975,0,1.177-.173,2.314-.489,3.389,3.785,1.87,8.958,5.53,10.593,12.018,1.635-6.488,6.808-10.149,10.593-12.018-.317-1.075-.489-2.211-.489-3.389,0-6.613,5.361-11.975,11.975-11.975,6.613,0,11.975,5.361,11.975,11.975,0,6.613-5.361,11.975-11.975,11.975-5.061,0-9.386-3.142-11.139-7.58-4.386,2.196-10.626,6.896-10.391,15.812v7.102h-1.061s-.037,0-.037,0v-7.102c.235-8.916-6.005-13.617-10.391-15.812-1.753,4.438-6.077,7.58-11.139,7.58-6.613,0-11.975-5.361-11.975-11.975s5.361-11.975,11.975-11.975Z" fill="#0c0d0b"/>
    <path d="M115.86,357.634c6.613,0,11.975,5.361,11.975,11.975,0,1.177-.173,2.314-.489,3.389,3.785,1.87,8.958,5.53,10.593,12.018,1.635-6.488,6.808-10.149,10.593-12.018-.317-1.075-.489-2.211-.489-3.389,0-6.613,5.361-11.975,11.975-11.975,6.613,0,11.975,5.361,11.975,11.975,0,6.613-5.361,11.975-11.975,11.975-5.061,0-9.386-3.142-11.139-7.58-4.386,2.196-10.626,6.896-10.391,15.812v7.102h-1.098v-7.102c.235-8.916-6.005-13.617-10.391-15.812-1.753,4.438-6.077,7.58-11.139,7.58-6.613,0-11.975-5.361-11.975-11.975s5.361-11.975,11.975-11.975Z" fill="#0c0d0b"/>
    <g>
      <path d="M240.531,195.974c-7.162,0-12.968,5.806-12.968,12.968v19.63c0,5.989,4.061,11.027,9.579,12.518l-18.229,20.576v14.375l-20.545-23.19c7.12-.049,12.877-5.834,12.877-12.966v-19.63c0-7.162-5.806-12.968-12.968-12.968s-12.968,5.806-12.968,12.968v19.63c0,6.751,5.159,12.295,11.75,12.909l21.736,24.534v20.45h1.062v-35.755l18.337-20.697c.759.138,1.54.214,2.339.214,7.162,0,12.968-5.806,12.968-12.968v-19.63c0-7.162-5.806-12.968-12.968-12.968Z"/>
      <circle cx="240.541" cy="219.638" r="4.836" fill="#ffc1b3"/>
      <circle cx="198.802" cy="229.309" r="4.836" fill="#ffc1b3"/>
    </g>
    <g>
      <path d="M77.375,195.226c-7.162,0-12.968,5.806-12.968,12.968v19.63c0,5.989,4.061,11.027,9.579,12.518l-18.229,20.576v14.375l-20.545-23.19c7.12-.049,12.877-5.834,12.877-12.966v-19.63c0-7.162-5.806-12.968-12.968-12.968s-12.968,5.806-12.968,12.968v19.63c0,6.751,5.159,12.295,11.75,12.909l21.736,24.534v20.45h1.062v-35.755l18.337-20.697c.759.138,1.54.214,2.339.214,7.162,0,12.968-5.806,12.968-12.968v-19.63c0-7.162-5.806-12.968-12.968-12.968Z"/>
      <circle cx="77.385" cy="218.889" r="4.836" fill="#ffc1b3"/>
      <circle cx="35.646" cy="228.561" r="4.836" fill="#ffc1b3"/>
    </g>
  </g>
  <g id="Flores">
    <g>
      <path d="M171.244,99.686c6.613,0,11.975,5.361,11.975,11.975,0,1.177-.173,2.314-.489,3.389,3.785,1.87,8.958,5.53,10.593,12.018,1.635-6.488,6.808-10.149,10.593-12.018-.317-1.075-.489-2.211-.489-3.389,0-6.613,5.361-11.975,11.975-11.975s11.975,5.361,11.975,11.975c0,6.613-5.361,11.975-11.975,11.975-5.061,0-9.386-3.142-11.139-7.58-4.386,2.196-10.626,6.896-10.391,15.812v7.102h-1.098v-7.102c.235-8.916-6.005-13.617-10.391-15.812-1.753,4.438-6.077,7.58-11.139,7.58-6.613,0-11.975-5.361-11.975-11.975,0-6.613,5.361-11.975,11.975-11.975Z" fill="#0c0d0b"/>
      <circle cx="193.229" cy="138.603" r="8.981" fill="#e17a74"/>
    </g>
    <g>
      <path d="M104.634,97.44c-6.613,0-11.975,5.361-11.975,11.975,0,1.177.173,2.314.489,3.389-3.785,1.87-8.958,5.53-10.593,12.018-1.635-6.488-6.808-10.149-10.593-12.018.317-1.075.489-2.211.489-3.389,0-6.613-5.361-11.975-11.975-11.975s-11.975,5.361-11.975,11.975,5.361,11.975,11.975,11.975c5.061,0,9.386-3.142,11.139-7.58,4.386,2.196,10.626,6.896,10.391,15.812v7.102h1.098v-7.102c-.235-8.916,6.005-13.617,10.391-15.812,1.753,4.438,6.077,7.58,11.139,7.58,6.613,0,11.975-5.361,11.975-11.975s-5.361-11.975-11.975-11.975Z" fill="#0c0d0b"/>
      <circle cx="82.462" cy="138.603" r="8.981" fill="#e17a74"/>
    </g>
    <g>
      <path d="M138.22,85.403c22.568,0,40.864-18.295,40.864-40.864h-81.728c0,22.568,18.295,40.864,40.864,40.864Z" fill="#0c0d0b"/>
      <circle cx="138.22" cy="44.539" r="17.289" fill="#e17a74"/>
      <path d="M197.118,17.935c0-9.905-8.03-17.935-17.935-17.935s-17.935,8.03-17.935,17.935,8.03,17.935,17.935,17.935c3.312,0,6.412-.902,9.075-2.467,2.144,16.255-2.467,32.674-12.745,44.67-1.403-1.133-3.461-1.073-4.794.21-1.378,1.328-1.476,3.479-.272,4.928-.023.021-.046.042-.07.063-1.701,1.493-3.485,2.858-5.336,4.099-.198-.276-.437-.53-.719-.75-1.581-1.232-3.862-.948-5.093.633-.855,1.097-.978,2.531-.446,3.717-2.051,1-4.162,1.865-6.317,2.596-.431-1.128-1.414-2.017-2.686-2.269-1.966-.389-3.876.889-4.265,2.855-.086.436-.09.869-.023,1.283-2.23.446-4.488.76-6.764.939-.077-.629-.315-1.246-.732-1.783-1.229-1.583-3.509-1.87-5.092-.641-.829.644-1.299,1.575-1.385,2.544-2.269-.101-4.539-.335-6.797-.697.011-.098.019-.197.022-.297.061-2.003-1.514-3.677-3.518-3.737-1.636-.05-3.052.992-3.549,2.467-2.179-.625-4.333-1.377-6.449-2.254.517-1.411.122-3.054-1.108-4.059-1.552-1.268-3.838-1.039-5.107.513-.103.126-.192.258-.276.393-1.971-1.109-3.892-2.339-5.755-3.686.551-.822.766-1.864.508-2.899-.484-1.945-2.454-3.129-4.399-2.644-1.945.484-3.129,2.454-2.644,4.399.484,1.945,2.454,3.129,4.399,2.644.746-.186,1.379-.591,1.85-1.128,1.874,1.357,3.817,2.603,5.819,3.733-.657,1.46-.289,3.234,1.01,4.296,1.552,1.268,3.838,1.039,5.107-.513.156-.191.29-.394.401-.604,2.13.887,4.305,1.653,6.517,2.291-.035.185-.056.375-.062.569-.061,2.003,1.514,3.677,3.518,3.737,1.729.052,3.211-1.114,3.624-2.722,2.273.367,4.569.606,6.877.707.036.716.282,1.429.756,2.039,1.229,1.583,3.509,1.87,5.092.641.905-.703,1.385-1.749,1.401-2.812,2.316-.185,4.602-.504,6.847-.958.378,1.239,1.408,2.235,2.767,2.504,1.966.389,3.876-.889,4.265-2.855.104-.527.088-1.049-.028-1.539,2.194-.748,4.329-1.631,6.397-2.642.221.36.506.689.859.964,1.581,1.232,3.862.948,5.093-.633.911-1.17.991-2.721.332-3.948,1.884-1.262,3.689-2.643,5.398-4.143.028-.025.055-.05.083-.075,1.401,1.305,3.592,1.304,4.987-.041,1.438-1.386,1.485-3.671.109-5.115,5.625-6.532,9.646-14.422,11.762-23.172,1.753-7.247,2.103-14.725,1.086-22.097,5.047-3.173,8.404-8.788,8.404-15.191Z" fill="#0c0d0b"/>
      <circle cx="179.084" cy="17.82" r="11.002" fill="#ffc1b3"/>
    </g>
  </g>
</svg>