<?xml version="1.0" encoding="UTF-8"?>
<svg xmlns="http://www.w3.org/2000/svg" width="275.651" height="450" viewBox="0 0 275.651 450">
  <g id="Tallo">
    <path d="M85.304,450V106.264s.069-71.117,77.507-62.088" fill="none" stroke="#0c0d0b" stroke-miterlimit="10" stroke-width="2.364"/>
  </g>
  <g id="Hojas">
    <g>
      <path d="M100.297,92.137c-5.085,0-9.207,4.122-9.207,9.207v13.938c0,4.252,2.883,7.829,6.801,8.887l-12.943,14.609v10.206l-14.587-16.465c5.055-.035,9.142-4.142,9.142-9.206v-13.938c0-5.085-4.122-9.207-9.207-9.207s-9.207,4.122-9.207,9.207v13.938c0,4.793,3.663,8.729,8.342,9.166l15.433,17.419v14.519h.754v-25.386l13.019-14.695c.539.098,1.093.152,1.661.152,5.085,0,9.207-4.122,9.207-9.207v-13.938c0-5.085-4.122-9.207-9.207-9.207Z"/>
      <circle cx="100.304" cy="108.938" r="3.433" fill="#ffc1b3"/>
      <circle cx="70.669" cy="115.805" r="3.433" fill="#ffc1b3"/>
    </g>
    <g>
      <path d="M100.297,143.541c-5.085,0-9.207,4.122-9.207,9.207v13.938c0,4.252,2.883,7.829,6.801,8.887l-12.943,14.609v10.206l-14.587-16.465c5.055-.035,9.142-4.142,9.142-9.206v-13.938c0-5.085-4.122-9.207-9.207-9.207s-9.207,4.122-9.207,9.207v13.938c0,4.793,3.663,8.729,8.342,9.166l15.433,17.419v14.519h.754v-25.386l13.019-14.695c.539.098,1.093.152,1.661.152,5.085,0,9.207-4.122,9.207-9.207v-13.938c0-5.085-4.122-9.207-9.207-9.207Z"/>
      <circle cx="100.304" cy="160.342" r="3.433" fill="#ffc1b3"/>
      <circle cx="70.669" cy="167.209" r="3.433" fill="#ffc1b3"/>
    </g>
    <g>
      <path d="M100.297,194.945c-5.085,0-9.207,4.122-9.207,9.207v13.938c0,4.252,2.883,7.829,6.801,8.887l-12.943,14.609v10.206l-14.587-16.465c5.055-.035,9.142-4.142,9.142-9.206v-13.938c0-5.085-4.122-9.207-9.207-9.207s-9.207,4.122-9.207,9.207v13.938c0,4.793,3.663,8.729,8.342,9.166l15.433,17.419v14.519h.754v-25.386l13.019-14.695c.539.098,1.093.152,1.661.152,5.085,0,9.207-4.122,9.207-9.207v-13.938c0-5.085-4.122-9.207-9.207-9.207Z"/>
      <circle cx="100.304" cy="211.746" r="3.433" fill="#ffc1b3"/>
      <circle cx="70.669" cy="218.613" r="3.433" fill="#ffc1b3"/>
    </g>
    <g>
      <path d="M100.297,246.349c-5.085,0-9.207,4.122-9.207,9.207v13.938c0,4.252,2.883,7.829,6.801,8.887l-12.943,14.609v10.206l-14.587-16.465c5.055-.035,9.142-4.142,9.142-9.206v-13.938c0-5.085-4.122-9.207-9.207-9.207s-9.207,4.122-9.207,9.207v13.938c0,4.793,3.663,8.729,8.342,9.166l15.433,17.419v14.519h.754v-25.386l13.019-14.695c.539.098,1.093.152,1.661.152,5.085,0,9.207-4.122,9.207-9.207v-13.938c0-5.085-4.122-9.207-9.207-9.207Z"/>
      <circle cx="100.304" cy="263.15" r="3.433" fill="#ffc1b3"/>
      <circle cx="70.669" cy="270.017" r="3.433" fill="#ffc1b3"/>
    </g>
    <g>
      <path d="M100.297,297.753c-5.085,0-9.207,4.122-9.207,9.207v13.938c0,4.252,2.883,7.829,6.801,8.887l-12.943,14.609v10.206l-14.587-16.465c5.055-.035,9.142-4.142,9.142-9.206v-13.938c0-5.085-4.122-9.207-9.207-9.207s-9.207,4.122-9.207,9.207v13.938c0,4.793,3.663,8.729,8.342,9.166l15.433,17.419v14.519h.754v-25.386l13.019-14.695c.539.098,1.093.152,1.661.152,5.085,0,9.207-4.122,9.207-9.207v-13.938c0-5.085-4.122-9.207-9.207-9.207Z"/>
      <circle cx="100.304" cy="314.554" r="3.433" fill="#ffc1b3"/>
      <circle cx="70.669" cy="321.421" r="3.433" fill="#ffc1b3"/>
    </g>
  </g>
  <g id="Flores">
    <g>
      <path d="M157.683,82.477c21.795,0,39.464-17.669,39.464-39.464h-78.928c0,21.795,17.669,39.464,39.464,39.464Z" fill="#0c0d0b"/>
      <circle cx="157.683" cy="43.013" r="16.696" fill="#e17a74"/>
      <path d="M214.563,17.321C214.563,7.755,206.808,0,197.243,0s-17.321,7.755-17.321,17.321,7.755,17.321,17.321,17.321c3.199,0,6.193-.871,8.764-2.383,2.071,15.698-2.383,31.555-12.309,43.14-1.355-1.094-3.343-1.037-4.629.203-1.33,1.282-1.425,3.36-.263,4.759-.023.02-.045.04-.067.06-1.643,1.442-3.366,2.76-5.153,3.959-.191-.267-.422-.512-.694-.724-1.527-1.189-3.729-.916-4.919.611-.825,1.06-.945,2.444-.431,3.59-1.981.966-4.019,1.801-6.1,2.507-.416-1.09-1.366-1.948-2.594-2.191-1.899-.376-3.743.859-4.119,2.757-.083.421-.087.839-.023,1.239-2.153.431-4.335.734-6.532.907-.074-.607-.304-1.203-.707-1.722-1.187-1.529-3.389-1.806-4.918-.619-.8.621-1.254,1.521-1.338,2.457-2.191-.098-4.383-.323-6.564-.673.011-.095.018-.19.021-.287.059-1.935-1.462-3.551-3.397-3.609-1.58-.048-2.947.958-3.427,2.383-2.105-.603-4.184-1.33-6.228-2.177.5-1.363.117-2.949-1.07-3.92-1.499-1.225-3.707-1.003-4.932.496-.099.122-.186.249-.266.38-1.903-1.071-3.759-2.259-5.557-3.56.532-.793.74-1.8.491-2.8-.468-1.878-2.37-3.022-4.248-2.554-1.878.468-3.022,2.37-2.554,4.248.468,1.878,2.37,3.022,4.248,2.554.72-.179,1.332-.57,1.787-1.09,1.81,1.311,3.686,2.514,5.62,3.605-.635,1.41-.279,3.124.976,4.149,1.499,1.225,3.707,1.003,4.932-.496.151-.185.28-.38.387-.584,2.057.856,4.158,1.597,6.294,2.213-.034.179-.055.362-.06.55-.059,1.935,1.462,3.551,3.397,3.609,1.67.051,3.101-1.076,3.5-2.629,2.195.355,4.413.585,6.641.683.035.692.273,1.38.73,1.969,1.187,1.529,3.389,1.806,4.918.619.874-.679,1.337-1.689,1.353-2.716,2.236-.178,4.444-.487,6.612-.925.365,1.196,1.36,2.158,2.673,2.418,1.899.376,3.743-.859,4.119-2.757.101-.509.085-1.013-.027-1.486,2.119-.722,4.181-1.575,6.177-2.551.214.348.488.666.83.931,1.527,1.189,3.729.916,4.919-.611.88-1.129.957-2.627.321-3.812,1.82-1.219,3.563-2.552,5.213-4.001.027-.024.053-.048.08-.072,1.353,1.26,3.469,1.259,4.816-.039,1.389-1.338,1.434-3.545.105-4.94,5.433-6.308,9.316-13.928,11.359-22.378,1.693-6.998,2.031-14.221,1.049-21.34,4.874-3.065,8.116-8.487,8.116-14.67Z" fill="#0c0d0b"/>
      <circle cx="197.147" cy="17.21" r="10.625" fill="#ffc1b3"/>
    </g>
  </g>
</svg>