<?xml version="1.0" encoding="UTF-8"?>
<svg xmlns="http://www.w3.org/2000/svg" width="100" height="100" viewBox="0 0 100 100">
  <g id="Tallo">
    <g>
      <line x1="49.481" y1="99.995" x2="49.481" y2="5.194" fill="none" stroke="#0c0d0b" stroke-miterlimit="10" stroke-width=".537"/>
      <path d="M70.087,70.295v-7.379c0-1.21-.981-2.191-2.191-2.191h-16.224c-1.211,0-2.193-.983-2.191-2.194l.013-10.005h-.126s.013,10.005.013,10.005c.002,1.211-.98,2.194-2.191,2.194h-16.224c-1.21,0-2.191.981-2.191,2.191v7.379" fill="none" stroke="#0c0d0b" stroke-miterlimit="10" stroke-width=".269"/>
      <path d="M68.802,17.5h5.191c1.304,0,2.361,1.057,2.361,2.361v3.619c0,1.304-1.057,2.361-2.361,2.361h-24.729s.357,0,.357,0h-24.729c-1.304,0-2.361-1.057-2.361-2.361v-3.619c0-1.304,1.057-2.361,2.361-2.361h5.191" fill="none" stroke="#0c0d0b" stroke-miterlimit="10" stroke-width=".269"/>
    </g>
  </g>
  <g id="Hojas">
    <path d="M54.91,48.461c-1.675,0-3.034,1.358-3.034,3.034,0,.298.044.586.124.858-.959.474-2.269,1.401-2.684,3.045-.414-1.644-1.725-2.571-2.684-3.045.08-.272.124-.56.124-.858,0-1.675-1.358-3.034-3.034-3.034s-3.034,1.358-3.034,3.034,1.358,3.034,3.034,3.034c1.282,0,2.378-.796,2.822-1.92,1.111.556,2.692,1.747,2.632,4.006v1.799h.278v-1.799c-.059-2.259,1.521-3.45,2.632-4.006.444,1.124,1.54,1.92,2.822,1.92,1.675,0,3.034-1.358,3.034-3.034s-1.358-3.034-3.034-3.034Z" fill="#0c0d0b"/>
    <path d="M54.91,64.818c-1.675,0-3.034,1.358-3.034,3.034,0,.298.044.586.124.858-.959.474-2.269,1.401-2.684,3.045-.414-1.644-1.725-2.571-2.684-3.045.08-.272.124-.56.124-.858,0-1.675-1.358-3.034-3.034-3.034s-3.034,1.358-3.034,3.034,1.358,3.034,3.034,3.034c1.282,0,2.378-.796,2.822-1.92,1.111.556,2.692,1.747,2.632,4.006v1.799h.278v-1.799c-.059-2.259,1.521-3.45,2.632-4.006.444,1.124,1.54,1.92,2.822,1.92,1.675,0,3.034-1.358,3.034-3.034s-1.358-3.034-3.034-3.034Z" fill="#0c0d0b"/>
    <path d="M54.91,73.35c-1.675,0-3.034,1.358-3.034,3.034,0,.298.044.586.124.858-.959.474-2.269,1.401-2.684,3.045-.414-1.644-1.725-2.571-2.684-3.045.08-.272.124-.56.124-.858,0-1.675-1.358-3.034-3.034-3.034s-3.034,1.358-3.034,3.034,1.358,3.034,3.034,3.034c1.282,0,2.378-.796,2.822-1.92,1.111.556,2.692,1.747,2.632,4.006v1.799h.278v-1.799c-.059-2.259,1.521-3.45,2.632-4.006.444,1.124,1.54,1.92,2.822,1.92,1.675,0,3.034-1.358,3.034-3.034s-1.358-3.034-3.034-3.034Z" fill="#0c0d0b"/>
    <path d="M54.91,39.835c-1.675,0-3.034,1.358-3.034,3.034,0,.298.044.586.124.858-.959.474-2.269,1.401-2.684,3.045-.414-1.644-1.725-2.571-2.684-3.045.08-.272.124-.56.124-.858,0-1.675-1.358-3.034-3.034-3.034s-3.034,1.358-3.034,3.034,1.358,3.034,3.034,3.034c1.282,0,2.378-.796,2.822-1.92,1.111.556,2.692,1.747,2.632,4.006v1.799h.278v-1.799c-.059-2.259,1.521-3.45,2.632-4.006.444,1.124,1.54,1.92,2.822,1.92,1.675,0,3.034-1.358,3.034-3.034s-1.358-3.034-3.034-3.034Z" fill="#0c0d0b"/>
    <path d="M54.91,31.208c-1.675,0-3.034,1.358-3.034,3.034,0,.298.044.586.124.858-.959.474-2.269,1.401-2.684,3.045-.414-1.644-1.725-2.571-2.684-3.045.08-.272.124-.56.124-.858,0-1.675-1.358-3.034-3.034-3.034s-3.034,1.358-3.034,3.034,1.358,3.034,3.034,3.034c1.282,0,2.378-.796,2.822-1.92,1.111.556,2.692,1.747,2.632,4.006v1.799h.278v-1.799c-.059-2.259,1.521-3.45,2.632-4.006.444,1.124,1.54,1.92,2.822,1.92,1.675,0,3.034-1.358,3.034-3.034s-1.358-3.034-3.034-3.034Z" fill="#0c0d0b"/>
  </g>
  <g id="Flores">
    <g>
      <path d="M75.281,7.481c-1.675,0-3.034,1.358-3.034,3.034,0,.298.044.586.124.858-.959.474-2.269,1.401-2.684,3.045-.414-1.644-1.725-2.571-2.684-3.045.08-.272.124-.56.124-.858,0-1.675-1.358-3.034-3.034-3.034s-3.034,1.358-3.034,3.034,1.358,3.034,3.034,3.034c1.282,0,2.378-.796,2.822-1.92,1.111.556,2.692,1.747,2.632,4.006v1.799h.278v-1.799c-.059-2.259,1.521-3.45,2.632-4.006.444,1.124,1.54,1.92,2.822,1.92,1.675,0,3.034-1.358,3.034-3.034s-1.358-3.034-3.034-3.034Z" fill="#0c0d0b"/>
      <circle cx="69.687" cy="17.719" r="2.275" fill="#e17a74"/>
    </g>
    <g>
      <path d="M35.906,7.67c-1.675,0-3.034,1.358-3.034,3.034,0,.298.044.586.124.858-.959.474-2.269,1.401-2.684,3.045-.414-1.644-1.725-2.571-2.684-3.045.08-.272.124-.56.124-.858,0-1.675-1.358-3.034-3.034-3.034s-3.034,1.358-3.034,3.034,1.358,3.034,3.034,3.034c1.282,0,2.378-.796,2.822-1.92,1.111.556,2.692,1.747,2.632,4.006v1.799h.278v-1.799c-.059-2.259,1.521-3.45,2.632-4.006.444,1.124,1.54,1.92,2.822,1.92,1.675,0,3.034-1.358,3.034-3.034s-1.358-3.034-3.034-3.034Z" fill="#0c0d0b"/>
      <circle cx="30.313" cy="17.719" r="2.275" fill="#e17a74"/>
    </g>
    <g>
      <g>
        <path d="M57.581,2.317C57.581,1.04,56.546.005,55.269.005s-2.312,1.035-2.312,2.312,1.035,2.312,2.312,2.312c.427,0,.827-.116,1.17-.318.276,2.095-.318,4.212-1.643,5.758-.181-.146-.446-.138-.618.027-.178.171-.19.448-.035.635-.003.003-.006.005-.009.008-.219.192-.449.368-.688.528-.026-.036-.056-.068-.093-.097-.204-.159-.498-.122-.657.082-.11.141-.126.326-.058.479-.264.129-.536.24-.814.335-.056-.145-.182-.26-.346-.292-.253-.05-.5.115-.55.368-.011.056-.012.112-.003.165-.287.057-.579.098-.872.121-.01-.081-.041-.161-.094-.23-.158-.204-.452-.241-.656-.083-.107.083-.167.203-.179.328-.292-.013-.585-.043-.876-.09.001-.013.002-.025.003-.038.008-.258-.195-.474-.453-.482-.211-.006-.393.128-.457.318-.281-.081-.558-.178-.831-.291.067-.182.016-.394-.143-.523-.2-.164-.495-.134-.658.066-.013.016-.025.033-.036.051-.254-.143-.502-.301-.742-.475.071-.106.099-.24.065-.374-.062-.251-.316-.403-.567-.341-.251.062-.403.316-.341.567.062.251.316.403.567.341.096-.024.178-.076.238-.145.242.175.492.336.75.481-.085.188-.037.417.13.554.2.164.495.134.658-.066.02-.025.037-.051.052-.078.274.114.555.213.84.295-.005.024-.007.048-.008.073-.008.258.195.474.453.482.223.007.414-.144.467-.351.293.047.589.078.886.091.005.092.036.184.097.263.158.204.452.241.656.083.117-.091.178-.225.181-.363.298-.024.593-.065.883-.123.049.16.182.288.357.323.253.05.5-.115.55-.368.013-.068.011-.135-.004-.198.283-.096.558-.21.825-.34.029.046.065.089.111.124.204.159.498.122.657-.082.117-.151.128-.351.043-.509.243-.163.476-.341.696-.534.004-.003.007-.006.011-.01.181.168.463.168.643-.005.185-.179.191-.473.014-.659.725-.842,1.243-1.859,1.516-2.987.226-.934.271-1.898.14-2.848.651-.409,1.083-1.133,1.083-1.958Z" fill="#ff9b85"/>
        <circle cx="49.521" cy="5.441" r="4.874" fill="#0c0d0b"/>
      </g>
      <circle cx="45.566" cy="6.978" r="1.756" fill="#ffc1b3"/>
    </g>
    <circle cx="70.03" cy="69.164" r="2.275" fill="#e17a74"/>
    <circle cx="28.696" cy="69.164" r="2.275" fill="#e17a74"/>
  </g>
</svg>