<?xml version="1.0" encoding="UTF-8"?>
<svg xmlns="http://www.w3.org/2000/svg" width="275.651" height="450" viewBox="0 0 275.651 450">
  <g id="Tallo">
    <g>
      <path d="M197.267,99.717v21.52c0,3.529-2.861,6.39-6.39,6.39h-47.318c-3.533,0-6.395,2.866-6.39,6.399l.037,29.179h-.367s.037-29.179.037-29.179c.004-3.533-2.858-6.399-6.39-6.399h-47.318c-3.529,0-6.39-2.861-6.39-6.39v-21.52" fill="none" stroke="#000" stroke-miterlimit="10" stroke-width="1.152"/>
      <path d="M225.568,257.01v31.629c0,5.187-4.205,9.393-9.393,9.393h-69.546c-5.192,0-9.399,4.212-9.393,9.404l.055,42.886h-.54s.055-42.886.055-42.886c.007-5.192-4.2-9.404-9.393-9.404H57.868c-5.187,0-9.393-4.205-9.393-9.393v-31.629" fill="none" stroke="#000" stroke-miterlimit="10" stroke-width="1.152"/>
      <line x1="137.239" y1="450" x2="137.239" y2="43.64" fill="none" stroke="#0c0d0b" stroke-miterlimit="10" stroke-width="2.304"/>
    </g>
  </g>
  <g id="Hojas">
    <path d="M113.068,139.204c7.182,0,13.004,5.822,13.004,13.004,0,1.279-.188,2.513-.532,3.68,4.11,2.03,9.727,6.005,11.503,13.051,1.776-7.046,7.393-11.021,11.503-13.051-.344-1.167-.531-2.401-.531-3.68,0-7.182,5.822-13.004,13.004-13.004s13.004,5.822,13.004,13.004-5.822,13.004-13.004,13.004c-5.496,0-10.192-3.411-12.096-8.231-4.763,2.384-11.538,7.488-11.284,17.171v7.712h-1.192v-7.712c.255-9.682-6.52-14.787-11.284-17.171-1.903,4.819-6.6,8.231-12.096,8.231-7.182,0-13.004-5.822-13.004-13.004s5.822-13.004,13.004-13.004Z" fill="#0c0d0b"/>
    <path d="M113.068,196.907c7.182,0,13.004,5.822,13.004,13.004,0,1.279-.188,2.513-.532,3.68,4.11,2.03,9.727,6.005,11.503,13.051,1.776-7.046,7.393-11.021,11.503-13.051-.344-1.167-.531-2.401-.531-3.68,0-7.182,5.822-13.004,13.004-13.004s13.004,5.822,13.004,13.004-5.822,13.004-13.004,13.004c-5.496,0-10.192-3.411-12.096-8.231-4.763,2.384-11.538,7.488-11.284,17.171v7.712h-1.192v-7.712c.255-9.682-6.52-14.787-11.284-17.171-1.903,4.819-6.6,8.231-12.096,8.231-7.182,0-13.004-5.822-13.004-13.004s5.822-13.004,13.004-13.004Z" fill="#0c0d0b"/>
    <path d="M113.068,254.61c7.182,0,13.004,5.822,13.004,13.004,0,1.279-.188,2.513-.532,3.68,4.11,2.03,9.727,6.005,11.503,13.051,1.776-7.046,7.393-11.021,11.503-13.051-.344-1.167-.531-2.401-.531-3.68,0-7.182,5.822-13.004,13.004-13.004,7.182,0,13.004,5.822,13.004,13.004s-5.822,13.004-13.004,13.004c-5.496,0-10.192-3.411-12.096-8.231-4.763,2.384-11.538,7.488-11.284,17.171v7.712h-1.192v-7.712c.255-9.682-6.52-14.787-11.284-17.171-1.903,4.819-6.6,8.231-12.096,8.231-7.182,0-13.004-5.822-13.004-13.004s5.822-13.004,13.004-13.004Z" fill="#0c0d0b"/>
    <path d="M113.068,312.313c7.182,0,13.004,5.822,13.004,13.004,0,1.279-.188,2.513-.532,3.68,4.11,2.03,9.727,6.005,11.503,13.051,1.776-7.046,7.393-11.021,11.503-13.051-.344-1.167-.531-2.401-.531-3.68,0-7.182,5.822-13.004,13.004-13.004,7.182,0,13.004,5.822,13.004,13.004s-5.822,13.004-13.004,13.004c-5.496,0-10.192-3.411-12.096-8.231-4.763,2.384-11.538,7.488-11.284,17.171v7.712h-1.192v-7.712c.255-9.682-6.52-14.787-11.284-17.171-1.903,4.819-6.6,8.231-12.096,8.231-7.182,0-13.004-5.822-13.004-13.004s5.822-13.004,13.004-13.004Z" fill="#0c0d0b"/>
  </g>
  <g id="Flores">
    <circle cx="198.78" cy="107.094" r="9.753" fill="#e17a74"/>
    <circle cx="226.412" cy="263.136" r="9.753" fill="#e17a74"/>
    <circle cx="49.239" cy="263.136" r="9.753" fill="#e17a74"/>
    <circle cx="76.872" cy="107.094" r="9.753" fill="#e17a74"/>
    <g>
      <g>
        <path d="M197.967,17.55c0-9.693-7.857-17.55-17.55-17.55s-17.55,7.857-17.55,17.55,7.857,17.55,17.55,17.55c3.241,0,6.275-.882,8.88-2.414,2.098,15.906-2.414,31.973-12.472,43.711-1.373-1.109-3.387-1.05-4.691.206-1.348,1.299-1.444,3.405-.267,4.822-.023.02-.045.041-.068.061-1.664,1.461-3.41,2.796-5.221,4.011-.194-.27-.427-.519-.703-.734-1.547-1.205-3.779-.928-4.984.62-.836,1.074-.957,2.476-.437,3.637-2.007.979-4.072,1.825-6.181,2.54-.422-1.104-1.384-1.973-2.629-2.22-1.924-.381-3.792.87-4.173,2.794-.084.426-.088.85-.023,1.255-2.182.436-4.392.744-6.619.919-.075-.615-.308-1.219-.716-1.744-1.203-1.549-3.434-1.83-4.983-.628-.811.63-1.271,1.542-1.356,2.49-2.22-.099-4.441-.327-6.651-.682.011-.096.019-.193.022-.291.059-1.96-1.482-3.598-3.442-3.657-1.601-.048-2.986.971-3.473,2.414-2.132-.611-4.24-1.348-6.311-2.205.506-1.381.119-2.988-1.084-3.971-1.519-1.241-3.756-1.016-4.997.502-.101.123-.188.253-.27.385-1.928-1.085-3.808-2.289-5.631-3.607.539-.804.75-1.824.497-2.837-.474-1.903-2.401-3.062-4.304-2.588-1.903.474-3.062,2.401-2.588,4.304.474,1.903,2.401,3.062,4.304,2.588.73-.182,1.35-.578,1.811-1.104,1.834,1.328,3.735,2.548,5.694,3.652-.643,1.429-.283,3.165.989,4.204,1.519,1.241,3.756,1.016,4.997-.502.153-.187.283-.386.392-.591,2.084.868,4.213,1.618,6.377,2.242-.034.181-.055.367-.061.557-.059,1.96,1.482,3.598,3.442,3.657,1.692.051,3.142-1.09,3.546-2.664,2.224.359,4.471.593,6.729.692.035.701.276,1.399.739,1.995,1.203,1.549,3.434,1.83,4.983.627.886-.688,1.355-1.712,1.371-2.752,2.266-.181,4.503-.493,6.7-.937.37,1.212,1.378,2.187,2.708,2.45,1.924.381,3.792-.87,4.173-2.794.102-.515.086-1.026-.028-1.506,2.147-.732,4.236-1.596,6.259-2.585.217.352.495.675.841.944,1.547,1.205,3.779.928,4.984-.62.891-1.144.97-2.662.325-3.863,1.844-1.235,3.61-2.586,5.282-4.054.027-.024.054-.049.082-.073,1.371,1.277,3.515,1.276,4.88-.04,1.407-1.356,1.453-3.592.107-5.005,5.505-6.392,9.439-14.113,11.51-22.674,1.715-7.091,2.058-14.409,1.063-21.623,4.939-3.105,8.224-8.6,8.224-14.864Z" fill="#ff9b85"/>
        <circle cx="136.779" cy="41.266" r="36.997" fill="#0c0d0b"/>
      </g>
      <circle cx="106.756" cy="52.933" r="13.329" fill="#ffc1b3"/>
    </g>
  </g>
</svg>