<?xml version="1.0" encoding="UTF-8"?>
<svg xmlns="http://www.w3.org/2000/svg" width="275.651" height="450" viewBox="0 0 275.651 450">
  <g id="Tallo">
    <path d="M178.866,450V97.773s-.094-72.874-105.7-63.622" fill="none" stroke="#0c0d0b" stroke-miterlimit="10" stroke-width="2.794"/>
  </g>
  <g id="Hojas">
    <path d="M208.078,167.797c-8.71,0-15.771,7.061-15.771,15.771,0,1.551.228,3.047.645,4.463-4.985,2.462-11.798,7.283-13.951,15.829-2.154-8.545-8.966-13.366-13.951-15.829.417-1.416.645-2.912.645-4.463,0-8.71-7.061-15.771-15.771-15.771s-15.771,7.061-15.771,15.771,7.061,15.771,15.771,15.771c6.666,0,12.361-4.137,14.67-9.983,5.777,2.892,13.994,9.082,13.685,20.825v9.353h1.446v-9.353c-.309-11.743,7.908-17.934,13.685-20.825,2.308,5.845,8.004,9.983,14.67,9.983,8.71,0,15.771-7.061,15.771-15.771s-7.061-15.771-15.771-15.771Z" fill="#0c0d0b"/>
    <path d="M208.078,116.048c-8.71,0-15.771,7.061-15.771,15.771,0,1.551.228,3.047.645,4.463-4.985,2.462-11.798,7.283-13.951,15.829-2.154-8.545-8.966-13.366-13.951-15.829.417-1.416.645-2.912.645-4.463,0-8.71-7.061-15.771-15.771-15.771s-15.771,7.061-15.771,15.771,7.061,15.771,15.771,15.771c6.666,0,12.361-4.137,14.67-9.983,5.777,2.892,13.994,9.082,13.685,20.825v9.353h1.446v-9.353c-.309-11.743,7.908-17.934,13.685-20.825,2.308,5.845,8.004,9.983,14.67,9.983,8.71,0,15.771-7.061,15.771-15.771s-7.061-15.771-15.771-15.771Z" fill="#0c0d0b"/>
    <path d="M208.078,219.546c-8.71,0-15.771,7.061-15.771,15.771,0,1.551.228,3.047.645,4.463-4.985,2.462-11.798,7.283-13.951,15.829-2.154-8.545-8.966-13.366-13.951-15.829.417-1.416.645-2.912.645-4.463,0-8.71-7.061-15.771-15.771-15.771s-15.771,7.061-15.771,15.771,7.061,15.771,15.771,15.771c6.666,0,12.361-4.137,14.67-9.983,5.777,2.892,13.994,9.082,13.685,20.825v9.353h1.446v-9.353c-.309-11.743,7.908-17.934,13.685-20.825,2.308,5.845,8.004,9.983,14.67,9.983,8.71,0,15.771-7.061,15.771-15.771s-7.061-15.771-15.771-15.771Z" fill="#0c0d0b"/>
    <path d="M208.078,271.295c-8.71,0-15.771,7.061-15.771,15.771,0,1.551.228,3.047.645,4.463-4.985,2.462-11.798,7.283-13.951,15.829-2.154-8.545-8.966-13.366-13.951-15.829.417-1.416.645-2.912.645-4.463,0-8.71-7.061-15.771-15.771-15.771s-15.771,7.061-15.771,15.771,7.061,15.771,15.771,15.771c6.666,0,12.361-4.137,14.67-9.983,5.777,2.892,13.994,9.082,13.685,20.825v9.353h1.446v-9.353c-.309-11.743,7.908-17.934,13.685-20.825,2.308,5.845,8.004,9.983,14.67,9.983,8.71,0,15.771-7.061,15.771-15.771s-7.061-15.771-15.771-15.771Z" fill="#0c0d0b"/>
    <path d="M208.078,323.044c-8.71,0-15.771,7.061-15.771,15.771,0,1.551.228,3.047.645,4.463-4.985,2.462-11.798,7.283-13.951,15.829-2.154-8.545-8.966-13.366-13.951-15.829.417-1.416.645-2.912.645-4.463,0-8.71-7.061-15.771-15.771-15.771s-15.771,7.061-15.771,15.771,7.061,15.771,15.771,15.771c6.666,0,12.361-4.137,14.67-9.983,5.777,2.892,13.994,9.082,13.685,20.825v9.353h1.446v-9.353c-.309-11.743,7.908-17.934,13.685-20.825,2.308,5.845,8.004,9.983,14.67,9.983,8.71,0,15.771-7.061,15.771-15.771s-7.061-15.771-15.771-15.771Z" fill="#0c0d0b"/>
  </g>
  <g id="Flores">
    <g>
      <g>
        <path d="M150.992,16.652c0-9.197-7.455-16.652-16.652-16.652s-16.652,7.455-16.652,16.652,7.455,16.652,16.652,16.652c3.075,0,5.954-.837,8.426-2.291,1.991,15.092-2.291,30.337-11.833,41.474-1.303-1.052-3.214-.997-4.451.195-1.279,1.233-1.37,3.231-.253,4.575-.022.019-.043.039-.065.058-1.579,1.386-3.236,2.653-4.954,3.806-.184-.256-.406-.492-.667-.696-1.468-1.143-3.585-.88-4.729.588-.793,1.019-.908,2.349-.414,3.451-1.905.928-3.864,1.731-5.865,2.41-.4-1.047-1.313-1.872-2.494-2.106-1.825-.361-3.598.825-3.96,2.651-.08.405-.084.806-.022,1.191-2.07.414-4.167.706-6.28.872-.071-.584-.292-1.157-.679-1.655-1.141-1.47-3.258-1.737-4.728-.595-.77.598-1.206,1.463-1.286,2.362-2.106-.094-4.214-.311-6.311-.647.01-.091.018-.183.021-.276.056-1.86-1.406-3.414-3.266-3.47-1.519-.046-2.834.921-3.295,2.291-2.023-.58-4.023-1.279-5.988-2.092.48-1.31.113-2.835-1.028-3.768-1.441-1.178-3.564-.964-4.741.476-.096.117-.179.24-.256.365-1.83-1.03-3.614-2.172-5.343-3.423.512-.763.711-1.73.472-2.692-.45-1.806-2.278-2.905-4.084-2.455-1.806.45-2.905,2.278-2.455,4.084.45,1.806,2.278,2.905,4.084,2.455.693-.173,1.281-.548,1.718-1.047,1.74,1.26,3.544,2.417,5.403,3.465-.61,1.356-.268,3.003.938,3.989,1.441,1.178,3.564.964,4.741-.476.145-.178.269-.366.372-.561,1.977.823,3.997,1.535,6.051,2.127-.033.172-.052.348-.058.528-.056,1.86,1.406,3.414,3.266,3.47,1.605.049,2.981-1.034,3.365-2.527,2.111.341,4.242.563,6.385.657.034.665.262,1.327.702,1.893,1.141,1.47,3.258,1.737,4.728.595.84-.652,1.286-1.624,1.301-2.611,2.15-.171,4.273-.468,6.357-.889.351,1.15,1.307,2.075,2.569,2.325,1.825.361,3.598-.825,3.96-2.651.097-.489.082-.974-.026-1.429,2.037-.694,4.02-1.514,5.939-2.453.205.334.47.64.798.895,1.468,1.143,3.585.88,4.729-.588.846-1.086.92-2.526.308-3.665,1.749-1.172,3.425-2.454,5.012-3.847.026-.023.051-.046.077-.069,1.301,1.211,3.335,1.21,4.63-.038,1.335-1.287,1.378-3.408.101-4.749,5.223-6.065,8.956-13.391,10.921-21.514,1.627-6.728,1.953-13.672,1.009-20.516,4.686-2.946,7.803-8.16,7.803-14.104Z" fill="#ff9b85"/>
        <circle cx="92.936" cy="39.154" r="35.104" fill="#0c0d0b"/>
      </g>
      <circle cx="64.449" cy="50.224" r="12.647" fill="#ffc1b3"/>
    </g>
  </g>
</svg>