<?xml version="1.0" encoding="UTF-8"?>
<svg xmlns="http://www.w3.org/2000/svg" width="100" height="100" viewBox="0 0 100 100">
  <g id="Tallo">
    <g>
      <path d="M62.348,28.32v4.403c0,.722-.585,1.308-1.308,1.308h-9.682c-.723,0-1.309.586-1.308,1.309l.008,5.971h-.075s.008-5.971.008-5.971c0-.723-.585-1.309-1.308-1.309h-9.682c-.722,0-1.308-.585-1.308-1.308v-4.403" fill="none" stroke="#000" stroke-miterlimit="10" stroke-width=".236"/>
      <path d="M68.139,60.505v6.472c0,1.061-.86,1.922-1.922,1.922h-14.231c-1.062,0-1.923.862-1.922,1.924l.011,8.775h-.11s.011-8.775.011-8.775c.001-1.062-.86-1.924-1.922-1.924h-14.231c-1.061,0-1.922-.86-1.922-1.922v-6.472" fill="none" stroke="#000" stroke-miterlimit="10" stroke-width=".236"/>
      <line x1="50.065" y1="99.995" x2="50.065" y2="16.845" fill="none" stroke="#0c0d0b" stroke-miterlimit="10" stroke-width=".471"/>
    </g>
  </g>
  <g id="Hojas">
    <path d="M45.119,37.065c1.47,0,2.661,1.191,2.661,2.661,0,.262-.038.514-.109.753.841.415,1.99,1.229,2.354,2.67.363-1.442,1.513-2.255,2.354-2.67-.07-.239-.109-.491-.109-.753,0-1.47,1.191-2.661,2.661-2.661s2.661,1.191,2.661,2.661-1.191,2.661-2.661,2.661c-1.125,0-2.086-.698-2.475-1.684-.975.488-2.361,1.532-2.309,3.513v1.578h-.236s-.008,0-.008,0v-1.578c.052-1.981-1.334-3.026-2.309-3.513-.389.986-1.35,1.684-2.475,1.684-1.47,0-2.661-1.191-2.661-2.661s1.191-2.661,2.661-2.661Z" fill="#0c0d0b"/>
    <path d="M45.119,43.883c1.47,0,2.661,1.191,2.661,2.661,0,.262-.038.514-.109.753.841.415,1.99,1.229,2.354,2.67.363-1.442,1.513-2.255,2.354-2.67-.07-.239-.109-.491-.109-.753,0-1.47,1.191-2.661,2.661-2.661s2.661,1.191,2.661,2.661-1.191,2.661-2.661,2.661c-1.125,0-2.086-.698-2.475-1.684-.975.488-2.361,1.532-2.309,3.513v1.578h-.236s-.008,0-.008,0v-1.578c.052-1.981-1.334-3.026-2.309-3.513-.389.986-1.35,1.684-2.475,1.684-1.47,0-2.661-1.191-2.661-2.661s1.191-2.661,2.661-2.661Z" fill="#0c0d0b"/>
    <path d="M45.119,50.701c1.47,0,2.661,1.191,2.661,2.661,0,.262-.038.514-.109.753.841.415,1.99,1.229,2.354,2.67.363-1.442,1.513-2.255,2.354-2.67-.07-.239-.109-.491-.109-.753,0-1.47,1.191-2.661,2.661-2.661s2.661,1.191,2.661,2.661-1.191,2.661-2.661,2.661c-1.125,0-2.086-.698-2.475-1.684-.975.488-2.361,1.532-2.309,3.513v1.578h-.236s-.008,0-.008,0v-1.578c.052-1.981-1.334-3.026-2.309-3.513-.389.986-1.35,1.684-2.475,1.684-1.47,0-2.661-1.191-2.661-2.661s1.191-2.661,2.661-2.661Z" fill="#0c0d0b"/>
    <path d="M45.119,57.52c1.47,0,2.661,1.191,2.661,2.661,0,.262-.038.514-.109.753.841.415,1.99,1.229,2.354,2.67.363-1.442,1.513-2.255,2.354-2.67-.07-.239-.109-.491-.109-.753,0-1.47,1.191-2.661,2.661-2.661s2.661,1.191,2.661,2.661-1.191,2.661-2.661,2.661c-1.125,0-2.086-.698-2.475-1.684-.975.488-2.361,1.532-2.309,3.513v1.578h-.236s-.008,0-.008,0v-1.578c.052-1.981-1.334-3.026-2.309-3.513-.389.986-1.35,1.684-2.475,1.684-1.47,0-2.661-1.191-2.661-2.661s1.191-2.661,2.661-2.661Z" fill="#0c0d0b"/>
    <path d="M45.119,72.653c1.47,0,2.661,1.191,2.661,2.661,0,.262-.038.514-.109.753.841.415,1.99,1.229,2.354,2.67.363-1.442,1.513-2.255,2.354-2.67-.07-.239-.109-.491-.109-.753,0-1.47,1.191-2.661,2.661-2.661s2.661,1.191,2.661,2.661-1.191,2.661-2.661,2.661c-1.125,0-2.086-.698-2.475-1.684-.975.488-2.361,1.532-2.309,3.513v1.578h-.236s-.008,0-.008,0v-1.578c.052-1.981-1.334-3.026-2.309-3.513-.389.986-1.35,1.684-2.475,1.684-1.47,0-2.661-1.191-2.661-2.661s1.191-2.661,2.661-2.661Z" fill="#0c0d0b"/>
    <path d="M45.119,79.471c1.47,0,2.661,1.191,2.661,2.661,0,.262-.038.514-.109.753.841.415,1.99,1.229,2.354,2.67.363-1.442,1.513-2.255,2.354-2.67-.07-.239-.109-.491-.109-.753,0-1.47,1.191-2.661,2.661-2.661s2.661,1.191,2.661,2.661-1.191,2.661-2.661,2.661c-1.125,0-2.086-.698-2.475-1.684-.975.488-2.361,1.532-2.309,3.513v1.578h-.236s-.008,0-.008,0v-1.578c.052-1.981-1.334-3.026-2.309-3.513-.389.986-1.35,1.684-2.475,1.684-1.47,0-2.661-1.191-2.661-2.661s1.191-2.661,2.661-2.661Z" fill="#0c0d0b"/>
    <g>
      <path d="M72.821,43.55c-1.591,0-2.881,1.29-2.881,2.881v4.362c0,1.331.902,2.45,2.128,2.781l-4.051,4.572v3.194l-4.565-5.153c1.582-.011,2.861-1.296,2.861-2.881v-4.362c0-1.591-1.29-2.881-2.881-2.881s-2.881,1.29-2.881,2.881v4.362c0,1.5,1.146,2.732,2.611,2.868l4.83,5.451v4.544h.236v-7.945l4.074-4.599c.169.031.342.048.52.048,1.591,0,2.881-1.29,2.881-2.881v-4.362c0-1.591-1.29-2.881-2.881-2.881Z"/>
      <circle cx="72.823" cy="48.809" r="1.074" fill="#ffc1b3"/>
      <circle cx="63.549" cy="50.957" r="1.074" fill="#ffc1b3"/>
    </g>
    <g>
      <path d="M36.568,43.384c-1.591,0-2.881,1.29-2.881,2.881v4.362c0,1.331.902,2.45,2.128,2.781l-4.051,4.572v3.194l-4.565-5.153c1.582-.011,2.861-1.296,2.861-2.881v-4.362c0-1.591-1.29-2.881-2.881-2.881s-2.881,1.29-2.881,2.881v4.362c0,1.5,1.146,2.732,2.611,2.868l4.83,5.451v4.544h.236v-7.945l4.074-4.599c.169.031.342.048.52.048,1.591,0,2.881-1.29,2.881-2.881v-4.362c0-1.591-1.29-2.881-2.881-2.881Z"/>
      <circle cx="36.57" cy="48.642" r="1.074" fill="#ffc1b3"/>
      <circle cx="27.296" cy="50.791" r="1.074" fill="#ffc1b3"/>
    </g>
  </g>
  <g id="Flores">
    <g>
      <path d="M57.426,22.155c1.47,0,2.661,1.191,2.661,2.661,0,.262-.038.514-.109.753.841.415,1.99,1.229,2.354,2.67.363-1.442,1.513-2.255,2.354-2.67-.07-.239-.109-.491-.109-.753,0-1.47,1.191-2.661,2.661-2.661s2.661,1.191,2.661,2.661-1.191,2.661-2.661,2.661c-1.125,0-2.086-.698-2.475-1.684-.975.488-2.361,1.532-2.309,3.513v1.578h-.236s-.008,0-.008,0v-1.578c.052-1.981-1.334-3.026-2.309-3.513-.389.986-1.35,1.684-2.475,1.684-1.47,0-2.661-1.191-2.661-2.661s1.191-2.661,2.661-2.661Z" fill="#0c0d0b"/>
      <circle cx="62.311" cy="30.803" r="1.996" fill="#e17a74"/>
    </g>
    <g>
      <path d="M42.625,21.656c-1.47,0-2.661,1.191-2.661,2.661,0,.262.038.514.109.753-.841.415-1.99,1.229-2.354,2.67-.363-1.442-1.513-2.255-2.354-2.67.07-.239.109-.491.109-.753,0-1.47-1.191-2.661-2.661-2.661s-2.661,1.191-2.661,2.661,1.191,2.661,2.661,2.661c1.125,0,2.086-.698,2.475-1.684.975.488,2.361,1.532,2.309,3.513v1.578h.244v-1.578c-.052-1.981,1.334-3.026,2.309-3.513.389.986,1.35,1.684,2.475,1.684,1.47,0,2.661-1.191,2.661-2.661s-1.191-2.661-2.661-2.661Z" fill="#0c0d0b"/>
      <circle cx="37.698" cy="30.803" r="1.996" fill="#e17a74"/>
    </g>
    <g>
      <path d="M50.088,18.982c5.015,0,9.08-4.065,9.08-9.08h-18.16c0,5.015,4.065,9.08,9.08,9.08Z" fill="#0c0d0b"/>
      <circle cx="50.088" cy="9.902" r="3.842" fill="#e17a74"/>
      <path d="M63.175,3.99C63.175,1.789,61.391.005,59.19.005s-3.985,1.784-3.985,3.985,1.784,3.985,3.985,3.985c.736,0,1.425-.2,2.016-.548.476,3.612-.548,7.26-2.832,9.926-.312-.252-.769-.239-1.065.047-.306.295-.328.773-.061,1.095-.005.005-.01.009-.016.014-.378.332-.774.635-1.186.911-.044-.061-.097-.118-.16-.167-.351-.274-.858-.211-1.132.141-.19.244-.217.562-.099.826-.456.222-.925.414-1.404.577-.096-.251-.314-.448-.597-.504-.437-.086-.861.198-.948.634-.019.097-.02.193-.005.285-.495.099-.997.169-1.503.209-.017-.14-.07-.277-.163-.396-.273-.352-.78-.416-1.131-.142-.184.143-.289.35-.308.565-.504-.022-1.009-.074-1.51-.155.002-.022.004-.044.005-.066.013-.445-.336-.817-.782-.83-.364-.011-.678.22-.789.548-.484-.139-.963-.306-1.433-.501.115-.314.027-.679-.246-.902-.345-.282-.853-.231-1.135.114-.023.028-.043.057-.061.087-.438-.246-.865-.52-1.279-.819.122-.183.17-.414.113-.644-.108-.432-.545-.695-.977-.588-.432.108-.695.545-.588.977.108.432.545.695.977.588.166-.041.307-.131.411-.251.416.302.848.578,1.293.829-.146.325-.064.719.224.955.345.282.853.231,1.135-.114.035-.043.064-.088.089-.134.473.197.957.367,1.448.509-.008.041-.013.083-.014.126-.013.445.336.817.782.83.384.012.714-.248.805-.605.505.082,1.015.135,1.528.157.008.159.063.318.168.453.273.352.78.416,1.131.142.201-.156.308-.389.311-.625.515-.041,1.023-.112,1.521-.213.084.275.313.497.615.556.437.086.861-.198.948-.634.023-.117.02-.233-.006-.342.487-.166.962-.362,1.421-.587.049.08.112.153.191.214.351.274.858.211,1.132-.141.202-.26.22-.605.074-.877.419-.28.82-.587,1.199-.921.006-.005.012-.011.019-.017.311.29.798.29,1.108-.009.32-.308.33-.816.024-1.137,1.25-1.451,2.143-3.205,2.614-5.149.389-1.61.467-3.272.241-4.91,1.121-.705,1.867-1.953,1.867-3.375Z" fill="#0c0d0b"/>
      <circle cx="59.168" cy="3.965" r="2.445" fill="#ffc1b3"/>
    </g>
  </g>
</svg>