<?xml version="1.0" encoding="UTF-8"?>
<svg xmlns="http://www.w3.org/2000/svg" width="275.651" height="450" viewBox="0 0 275.651 450">
  <g id="Tallo">
    <line x1="128.355" y1="450" x2="128.355" y2="10.831" fill="none" stroke="#0c0d0b" stroke-miterlimit="10" stroke-width="2.49"/>
  </g>
  <g id="Hojas">
    <path d="M153.837,175.521c-7.761,0-14.053,6.292-14.053,14.053,0,1.382.203,2.716.574,3.977-4.442,2.194-10.513,6.49-12.432,14.105-1.919-7.615-7.99-11.91-12.432-14.105.372-1.261.574-2.595.574-3.977,0-7.761-6.292-14.053-14.053-14.053s-14.053,6.292-14.053,14.053,6.292,14.053,14.053,14.053c5.94,0,11.015-3.687,13.072-8.895,5.148,2.577,12.47,8.093,12.195,18.557v8.335h1.288v-8.335c-.275-10.464,7.047-15.98,12.195-18.557,2.057,5.209,7.132,8.895,13.072,8.895,7.761,0,14.053-6.292,14.053-14.053s-6.292-14.053-14.053-14.053Z" fill="#0c0d0b"/>
    <path d="M153.837,129.408c-7.761,0-14.053,6.292-14.053,14.053,0,1.382.203,2.716.574,3.977-4.442,2.194-10.513,6.49-12.432,14.105-1.919-7.615-7.99-11.91-12.432-14.105.372-1.261.574-2.595.574-3.977,0-7.761-6.292-14.053-14.053-14.053s-14.053,6.292-14.053,14.053,6.292,14.053,14.053,14.053c5.94,0,11.015-3.687,13.072-8.895,5.148,2.577,12.47,8.093,12.195,18.557v8.335h1.288v-8.335c-.275-10.464,7.047-15.98,12.195-18.557,2.057,5.209,7.132,8.895,13.072,8.895,7.761,0,14.053-6.292,14.053-14.053s-6.292-14.053-14.053-14.053Z" fill="#0c0d0b"/>
    <path d="M153.837,221.633c-7.761,0-14.053,6.292-14.053,14.053,0,1.382.203,2.716.574,3.977-4.442,2.194-10.513,6.49-12.432,14.105-1.919-7.615-7.99-11.91-12.432-14.105.372-1.261.574-2.595.574-3.977,0-7.761-6.292-14.053-14.053-14.053s-14.053,6.292-14.053,14.053,6.292,14.053,14.053,14.053c5.94,0,11.015-3.687,13.072-8.895,5.148,2.577,12.47,8.093,12.195,18.557v8.335h1.288v-8.335c-.275-10.464,7.047-15.98,12.195-18.557,2.057,5.209,7.132,8.895,13.072,8.895,7.761,0,14.053-6.292,14.053-14.053s-6.292-14.053-14.053-14.053Z" fill="#0c0d0b"/>
    <path d="M153.837,267.746c-7.761,0-14.053,6.292-14.053,14.053,0,1.382.203,2.716.574,3.977-4.442,2.194-10.513,6.49-12.432,14.105-1.919-7.615-7.99-11.91-12.432-14.105.372-1.261.574-2.595.574-3.977,0-7.761-6.292-14.053-14.053-14.053s-14.053,6.292-14.053,14.053,6.292,14.053,14.053,14.053c5.94,0,11.015-3.687,13.072-8.895,5.148,2.577,12.47,8.093,12.195,18.557v8.335h1.288v-8.335c-.275-10.464,7.047-15.98,12.195-18.557,2.057,5.209,7.132,8.895,13.072,8.895,7.761,0,14.053-6.292,14.053-14.053s-6.292-14.053-14.053-14.053Z" fill="#0c0d0b"/>
    <path d="M153.837,313.859c-7.761,0-14.053,6.292-14.053,14.053,0,1.382.203,2.716.574,3.977-4.442,2.194-10.513,6.49-12.432,14.105-1.919-7.615-7.99-11.91-12.432-14.105.372-1.261.574-2.595.574-3.977,0-7.761-6.292-14.053-14.053-14.053s-14.053,6.292-14.053,14.053,6.292,14.053,14.053,14.053c5.94,0,11.015-3.687,13.072-8.895,5.148,2.577,12.47,8.093,12.195,18.557v8.335h1.288v-8.335c-.275-10.464,7.047-15.98,12.195-18.557,2.057,5.209,7.132,8.895,13.072,8.895,7.761,0,14.053-6.292,14.053-14.053s-6.292-14.053-14.053-14.053Z" fill="#0c0d0b"/>
  </g>
  <g id="Flores">
    <g>
      <g>
        <path d="M200.514,21.048c0-11.625-9.424-21.048-21.048-21.048s-21.048,9.424-21.048,21.048,9.424,21.048,21.048,21.048c3.887,0,7.525-1.058,10.65-2.895,2.516,19.077-2.895,38.346-14.958,52.424-1.646-1.33-4.062-1.26-5.626.247-1.617,1.558-1.732,4.083-.32,5.783-.027.024-.054.049-.082.073-1.996,1.753-4.09,3.354-6.262,4.81-.233-.324-.513-.622-.843-.88-1.856-1.445-4.532-1.113-5.977.743-1.003,1.288-1.148,2.97-.524,4.362-2.408,1.174-4.884,2.189-7.413,3.047-.506-1.324-1.66-2.367-3.153-2.662-2.307-.457-4.548,1.043-5.005,3.351-.101.511-.106,1.019-.027,1.505-2.617.523-5.268.892-7.938,1.102-.09-.738-.37-1.462-.859-2.092-1.442-1.858-4.118-2.195-5.976-.753-.973.755-1.524,1.849-1.626,2.986-2.663-.119-5.327-.393-7.977-.818.013-.115.022-.231.026-.348.071-2.351-1.777-4.315-4.128-4.386-1.92-.058-3.582,1.165-4.165,2.896-2.557-.733-5.085-1.616-7.569-2.645.607-1.656.143-3.584-1.3-4.763-1.821-1.489-4.505-1.219-5.993.602-.121.148-.226.303-.324.461-2.313-1.301-4.568-2.745-6.754-4.326.647-.964.899-2.187.596-3.402-.569-2.282-2.88-3.672-5.162-3.103-2.282.569-3.672,2.88-3.103,5.162.568,2.282,2.88,3.672,5.162,3.103.876-.218,1.619-.693,2.171-1.324,2.2,1.593,4.48,3.055,6.829,4.38-.771,1.714-.339,3.796,1.186,5.042,1.821,1.489,4.504,1.219,5.993-.602.184-.225.34-.462.47-.709,2.499,1.041,5.053,1.94,7.648,2.689-.041.217-.066.44-.073.668-.071,2.351,1.777,4.315,4.128,4.386,2.029.061,3.769-1.307,4.253-3.195,2.668.431,5.362.711,8.071.83.042.841.331,1.678.887,2.393,1.442,1.858,4.118,2.195,5.976.753,1.062-.825,1.625-2.053,1.645-3.301,2.718-.217,5.401-.591,8.035-1.124.444,1.454,1.653,2.622,3.248,2.938,2.307.457,4.548-1.043,5.005-3.351.122-.618.103-1.231-.033-1.806,2.575-.877,5.081-1.914,7.507-3.1.26.423.594.809,1.008,1.132,1.856,1.445,4.532,1.113,5.977-.743,1.069-1.373,1.163-3.193.39-4.633,2.211-1.481,4.329-3.102,6.335-4.862.033-.029.065-.059.098-.088,1.644,1.531,4.215,1.53,5.853-.048,1.688-1.626,1.742-4.308.128-6.003,6.602-7.666,11.321-16.926,13.804-27.194,2.057-8.504,2.469-17.281,1.275-25.933,5.923-3.724,9.863-10.314,9.863-17.827Z" fill="#ff9b85"/>
        <circle cx="127.13" cy="49.492" r="44.372" fill="#0c0d0b"/>
      </g>
      <circle cx="91.123" cy="63.484" r="15.986" fill="#ffc1b3"/>
    </g>
  </g>
</svg>