<?xml version="1.0" encoding="UTF-8"?>
<svg xmlns="http://www.w3.org/2000/svg" width="100" height="100" viewBox="0 0 100 100">
  <g id="Tallo">
    <g>
      <path d="M63.208,22.162v4.782c0,.784-.636,1.42-1.42,1.42h-10.514c-.785,0-1.421.637-1.42,1.422l.008,6.484h-.082s.008-6.484.008-6.484c0-.785-.635-1.422-1.42-1.422h-10.514c-.784,0-1.42-.636-1.42-1.42v-4.782" fill="none" stroke="#000" stroke-miterlimit="10" stroke-width=".256"/>
      <path d="M69.496,57.113v7.028c0,1.153-.934,2.087-2.087,2.087h-15.453c-1.154,0-2.088.936-2.087,2.09l.012,9.529h-.12s.012-9.529.012-9.529c.001-1.154-.933-2.09-2.087-2.09h-15.453c-1.153,0-2.087-.934-2.087-2.087v-7.028" fill="none" stroke="#000" stroke-miterlimit="10" stroke-width=".256"/>
      <line x1="49.87" y1="99.995" x2="49.87" y2="9.702" fill="none" stroke="#0c0d0b" stroke-miterlimit="10" stroke-width=".512"/>
    </g>
  </g>
  <g id="Hojas">
    <path d="M44.499,30.936c1.596,0,2.889,1.294,2.889,2.889,0,.284-.042.558-.118.818.913.451,2.161,1.334,2.556,2.9.395-1.566,1.643-2.449,2.556-2.9-.076-.259-.118-.534-.118-.818,0-1.596,1.294-2.889,2.889-2.889s2.889,1.294,2.889,2.889c0,1.596-1.294,2.889-2.889,2.889-1.221,0-2.265-.758-2.688-1.829-1.058.53-2.564,1.664-2.507,3.815v1.714h-.256s-.009,0-.009,0v-1.714c.057-2.151-1.449-3.286-2.507-3.815-.423,1.071-1.466,1.829-2.688,1.829-1.596,0-2.889-1.294-2.889-2.889,0-1.596,1.294-2.889,2.889-2.889Z" fill="#0c0d0b"/>
    <path d="M44.499,43.758c1.596,0,2.889,1.294,2.889,2.889,0,.284-.042.558-.118.818.913.451,2.161,1.334,2.556,2.9.395-1.566,1.643-2.449,2.556-2.9-.076-.259-.118-.534-.118-.818,0-1.596,1.294-2.889,2.889-2.889s2.889,1.294,2.889,2.889c0,1.596-1.294,2.889-2.889,2.889-1.221,0-2.265-.758-2.688-1.829-1.058.53-2.564,1.664-2.507,3.815v1.714h-.256s-.009,0-.009,0v-1.714c.057-2.151-1.449-3.286-2.507-3.815-.423,1.071-1.466,1.829-2.688,1.829-1.596,0-2.889-1.294-2.889-2.889,0-1.596,1.294-2.889,2.889-2.889Z" fill="#0c0d0b"/>
    <path d="M44.499,56.579c1.596,0,2.889,1.294,2.889,2.889,0,.284-.042.558-.118.818.913.451,2.161,1.334,2.556,2.9.395-1.566,1.643-2.449,2.556-2.9-.076-.259-.118-.534-.118-.818,0-1.596,1.294-2.889,2.889-2.889s2.889,1.294,2.889,2.889c0,1.596-1.294,2.889-2.889,2.889-1.221,0-2.265-.758-2.688-1.829-1.058.53-2.564,1.664-2.507,3.815v1.714h-.256s-.009,0-.009,0v-1.714c.057-2.151-1.449-3.286-2.507-3.815-.423,1.071-1.466,1.829-2.688,1.829-1.596,0-2.889-1.294-2.889-2.889,0-1.596,1.294-2.889,2.889-2.889Z" fill="#0c0d0b"/>
    <path d="M44.499,69.401c1.596,0,2.889,1.294,2.889,2.889,0,.284-.042.558-.118.818.913.451,2.161,1.334,2.556,2.9.395-1.566,1.643-2.449,2.556-2.9-.076-.259-.118-.534-.118-.818,0-1.596,1.294-2.889,2.889-2.889s2.889,1.294,2.889,2.889c0,1.596-1.294,2.889-2.889,2.889-1.221,0-2.265-.758-2.688-1.829-1.058.53-2.564,1.664-2.507,3.815v1.714h-.256s-.009,0-.009,0v-1.714c.057-2.151-1.449-3.286-2.507-3.815-.423,1.071-1.466,1.829-2.688,1.829-1.596,0-2.889-1.294-2.889-2.889,0-1.596,1.294-2.889,2.889-2.889Z" fill="#0c0d0b"/>
  </g>
  <g id="Flores">
    <circle cx="63.544" cy="23.801" r="2.167" fill="#e17a74"/>
    <circle cx="69.684" cy="58.474" r="2.167" fill="#e17a74"/>
    <circle cx="30.316" cy="58.474" r="2.167" fill="#e17a74"/>
    <circle cx="36.456" cy="23.801" r="2.167" fill="#e17a74"/>
    <g>
      <g>
        <path d="M63.363,3.905C63.363,1.751,61.617.005,59.464.005s-3.9,1.746-3.9,3.9,1.746,3.9,3.9,3.9c.72,0,1.394-.196,1.973-.536.466,3.534-.536,7.104-2.771,9.713-.305-.246-.753-.233-1.042.046-.3.289-.321.757-.059,1.071-.005.004-.01.009-.015.014-.37.325-.758.621-1.16.891-.043-.06-.095-.115-.156-.163-.344-.268-.84-.206-1.107.138-.186.239-.213.55-.097.808-.446.217-.905.405-1.373.564-.094-.245-.307-.438-.584-.493-.427-.085-.843.193-.927.621-.019.095-.02.189-.005.279-.485.097-.976.165-1.471.204-.017-.137-.068-.271-.159-.388-.267-.344-.763-.407-1.107-.139-.18.14-.282.343-.301.553-.493-.022-.987-.073-1.478-.152.002-.021.004-.043.005-.065.013-.436-.329-.799-.765-.813-.356-.011-.664.216-.772.536-.474-.136-.942-.299-1.402-.49.113-.307.026-.664-.241-.882-.337-.276-.835-.226-1.11.112-.022.027-.042.056-.06.085-.428-.241-.846-.509-1.251-.802.12-.179.167-.405.11-.63-.105-.423-.534-.68-.956-.575-.423.105-.68.534-.575.956.105.423.534.68.956.575.162-.04.3-.128.402-.245.408.295.83.566,1.265.812-.143.318-.063.703.22.934.337.276.835.226,1.11-.112.034-.042.063-.086.087-.131.463.193.936.36,1.417.498-.008.04-.012.082-.014.124-.013.436.329.799.765.813.376.011.698-.242.788-.592.494.08.993.132,1.495.154.008.156.061.311.164.443.267.344.763.407,1.107.139.197-.153.301-.38.305-.612.503-.04,1.001-.11,1.489-.208.082.269.306.486.602.544.427.085.843-.193.927-.621.023-.114.019-.228-.006-.335.477-.163.941-.355,1.391-.574.048.078.11.15.187.21.344.268.84.206,1.107-.138.198-.254.215-.592.072-.858.41-.274.802-.575,1.174-.901.006-.005.012-.011.018-.016.305.284.781.283,1.084-.009.313-.301.323-.798.024-1.112,1.223-1.42,2.097-3.136,2.557-5.038.381-1.576.457-3.202.236-4.805,1.097-.69,1.827-1.911,1.827-3.303Z" fill="#ff9b85"/>
        <circle cx="49.767" cy="9.174" r="8.221" fill="#0c0d0b"/>
      </g>
      <circle cx="43.096" cy="11.767" r="2.962" fill="#ffc1b3"/>
    </g>
  </g>
</svg>