<?xml version="1.0" encoding="UTF-8"?>
<svg xmlns="http://www.w3.org/2000/svg" width="275.651" height="450" viewBox="0 0 275.651 450">
  <g id="Tallo">
    <line x1="128.911" y1="450" x2="128.911" y2="21.699" fill="none" stroke="#0c0d0b" stroke-miterlimit="10" stroke-width="2.428"/>
  </g>
  <g id="Hojas">
    <g>
      <path d="M146.676,128.098c-6.026,0-10.912,4.886-10.912,10.912v16.518c0,5.039,3.417,9.279,8.06,10.533l-15.339,17.314v12.096l-17.288-19.513c5.991-.042,10.835-4.909,10.835-10.91v-16.518c0-6.026-4.886-10.912-10.912-10.912s-10.912,4.886-10.912,10.912v16.518c0,5.681,4.341,10.346,9.887,10.862l18.29,20.644v17.208h.893v-30.086l15.43-17.416c.639.116,1.296.18,1.968.18,6.026,0,10.912-4.886,10.912-10.912v-16.518c0-6.026-4.886-10.912-10.912-10.912Z"/>
      <circle cx="146.684" cy="148.01" r="4.069" fill="#ffc1b3"/>
      <circle cx="111.562" cy="156.148" r="4.069" fill="#ffc1b3"/>
    </g>
    <g>
      <path d="M146.676,179.494c-6.026,0-10.912,4.886-10.912,10.912v16.518c0,5.039,3.417,9.279,8.06,10.533l-15.339,17.314v12.096l-17.288-19.513c5.991-.042,10.835-4.909,10.835-10.91v-16.518c0-6.026-4.886-10.912-10.912-10.912s-10.912,4.886-10.912,10.912v16.518c0,5.681,4.341,10.346,9.887,10.862l18.29,20.644v17.208h.893v-30.086l15.43-17.416c.639.116,1.296.18,1.968.18,6.026,0,10.912-4.886,10.912-10.912v-16.518c0-6.026-4.886-10.912-10.912-10.912Z"/>
      <circle cx="146.684" cy="199.406" r="4.069" fill="#ffc1b3"/>
      <circle cx="111.562" cy="207.544" r="4.069" fill="#ffc1b3"/>
    </g>
    <g>
      <path d="M146.676,236.887c-6.026,0-10.912,4.886-10.912,10.912v16.518c0,5.039,3.417,9.279,8.06,10.533l-15.339,17.314v12.096l-17.288-19.513c5.991-.042,10.835-4.909,10.835-10.91v-16.518c0-6.026-4.886-10.912-10.912-10.912s-10.912,4.886-10.912,10.912v16.518c0,5.681,4.341,10.346,9.887,10.862l18.29,20.644v17.208h.893v-30.086l15.43-17.416c.639.116,1.296.18,1.968.18,6.026,0,10.912-4.886,10.912-10.912v-16.518c0-6.026-4.886-10.912-10.912-10.912Z"/>
      <circle cx="146.684" cy="256.799" r="4.069" fill="#ffc1b3"/>
      <circle cx="111.562" cy="264.937" r="4.069" fill="#ffc1b3"/>
    </g>
    <g>
      <path d="M146.676,306.271c-6.026,0-10.912,4.886-10.912,10.912v16.518c0,5.039,3.417,9.279,8.06,10.533l-15.339,17.314v12.096l-17.288-19.513c5.991-.042,10.835-4.909,10.835-10.91v-16.518c0-6.026-4.886-10.912-10.912-10.912s-10.912,4.886-10.912,10.912v16.518c0,5.681,4.341,10.346,9.887,10.862l18.29,20.644v17.208h.893v-30.086l15.43-17.416c.639.116,1.296.18,1.968.18,6.026,0,10.912-4.886,10.912-10.912v-16.518c0-6.026-4.886-10.912-10.912-10.912Z"/>
      <circle cx="146.684" cy="326.183" r="4.069" fill="#ffc1b3"/>
      <circle cx="111.562" cy="334.321" r="4.069" fill="#ffc1b3"/>
    </g>
  </g>
  <g id="Flores">
    <g>
      <g>
        <path d="M198.963,20.527c0-11.337-9.19-20.527-20.527-20.527s-20.527,9.19-20.527,20.527,9.19,20.527,20.527,20.527c3.791,0,7.339-1.032,10.387-2.824,2.454,18.605-2.824,37.397-14.588,51.127-1.606-1.297-3.962-1.229-5.486.241-1.577,1.519-1.689,3.982-.312,5.64-.027.024-.053.048-.08.072-1.947,1.709-3.989,3.271-6.107,4.691-.227-.316-.5-.607-.822-.858-1.81-1.41-4.42-1.085-5.829.725-.978,1.256-1.12,2.896-.511,4.254-2.348,1.145-4.763,2.134-7.23,2.971-.493-1.291-1.619-2.308-3.075-2.596-2.25-.446-4.436,1.017-4.881,3.268-.099.499-.103.994-.027,1.468-2.552.511-5.137.87-7.742,1.075-.088-.72-.36-1.426-.837-2.04-1.407-1.812-4.016-2.141-5.828-.734-.949.737-1.486,1.803-1.586,2.912-2.597-.116-5.195-.383-7.78-.798.013-.112.022-.225.025-.34.069-2.293-1.733-4.208-4.026-4.277-1.873-.057-3.493,1.136-4.062,2.824-2.494-.715-4.959-1.576-7.381-2.58.592-1.615.139-3.495-1.268-4.645-1.776-1.452-4.393-1.189-5.845.587-.118.144-.22.296-.316.45-2.255-1.269-4.455-2.677-6.586-4.219.631-.94.877-2.133.582-3.318-.554-2.226-2.808-3.581-5.035-3.027-2.226.554-3.581,2.808-3.027,5.034.554,2.226,2.809,3.581,5.034,3.027.854-.213,1.579-.676,2.118-1.291,2.145,1.553,4.369,2.98,6.66,4.272-.752,1.672-.33,3.702,1.156,4.917,1.776,1.452,4.393,1.189,5.845-.587.179-.219.331-.451.459-.692,2.437,1.015,4.928,1.892,7.459,2.622-.04.212-.065.429-.071.651-.069,2.293,1.733,4.208,4.026,4.277,1.979.06,3.675-1.275,4.148-3.116,2.602.42,5.23.694,7.871.809.041.82.323,1.636.865,2.334,1.407,1.812,4.016,2.141,5.828.734,1.036-.804,1.585-2.002,1.604-3.219,2.65-.211,5.267-.577,7.837-1.096.433,1.418,1.612,2.558,3.167,2.866,2.25.446,4.436-1.018,4.881-3.268.119-.603.101-1.2-.032-1.762,2.511-.856,4.955-1.867,7.321-3.023.253.412.579.789.983,1.104,1.81,1.41,4.42,1.085,5.829-.725,1.043-1.339,1.134-3.114.38-4.518,2.157-1.445,4.222-3.025,6.178-4.742.032-.028.063-.057.095-.085,1.603,1.493,4.111,1.492,5.708-.047,1.646-1.586,1.699-4.202.125-5.854,6.438-7.476,11.04-16.507,13.463-26.521,2.006-8.294,2.407-16.854,1.243-25.291,5.777-3.632,9.619-10.059,9.619-17.386Z" fill="#ff9b85"/>
        <circle cx="127.395" cy="48.267" r="43.274" fill="#0c0d0b"/>
      </g>
      <circle cx="92.278" cy="61.913" r="15.59" fill="#ffc1b3"/>
    </g>
  </g>
</svg>