<?xml version="1.0" encoding="UTF-8"?>
<svg xmlns="http://www.w3.org/2000/svg" width="100" height="100" viewBox="0 0 100 100">
  <g id="Tallo">
    <g>
      <line x1="50.061" y1="99.995" x2="50.061" y2="15.018" fill="none" stroke="#0c0d0b" stroke-miterlimit="10" stroke-width=".482"/>
      <path d="M68.533,73.372v-6.614c0-1.085-.879-1.964-1.964-1.964h-14.543c-1.086,0-1.966-.881-1.964-1.967l.011-8.968h-.113s.011,8.968.011,8.968c.001,1.086-.878,1.967-1.964,1.967h-14.543c-1.085,0-1.964.879-1.964,1.964v6.614" fill="none" stroke="#0c0d0b" stroke-miterlimit="10" stroke-width=".241"/>
      <path d="M67.38,26.048h4.653c1.169,0,2.116.948,2.116,2.116v3.244c0,1.169-.948,2.116-2.116,2.116h-22.167s.32,0,.32,0h-22.167c-1.169,0-2.116-.948-2.116-2.116v-3.244c0-1.169.948-2.116,2.116-2.116h4.653" fill="none" stroke="#0c0d0b" stroke-miterlimit="10" stroke-width=".241"/>
    </g>
  </g>
  <g id="Hojas">
    <path d="M55.15,53.802c-1.502,0-2.719,1.217-2.719,2.719,0,.267.039.525.111.77-.86.425-2.034,1.256-2.406,2.729-.371-1.473-1.546-2.305-2.406-2.729.072-.244.111-.502.111-.77,0-1.502-1.217-2.719-2.719-2.719s-2.719,1.217-2.719,2.719,1.217,2.719,2.719,2.719c1.149,0,2.131-.713,2.529-1.721.996.499,2.413,1.566,2.36,3.591v1.613h.249v-1.613c-.053-2.025,1.364-3.092,2.36-3.591.398,1.008,1.38,1.721,2.529,1.721,1.502,0,2.719-1.217,2.719-2.719s-1.217-2.719-2.719-2.719Z" fill="#0c0d0b"/>
    <path d="M55.15,46.069c-1.502,0-2.719,1.217-2.719,2.719,0,.267.039.525.111.77-.86.425-2.034,1.256-2.406,2.729-.371-1.473-1.546-2.305-2.406-2.729.072-.244.111-.502.111-.77,0-1.502-1.217-2.719-2.719-2.719s-2.719,1.217-2.719,2.719,1.217,2.719,2.719,2.719c1.149,0,2.131-.713,2.529-1.721.996.499,2.413,1.566,2.36,3.591v1.613h.249v-1.613c-.053-2.025,1.364-3.092,2.36-3.591.398,1.008,1.38,1.721,2.529,1.721,1.502,0,2.719-1.217,2.719-2.719s-1.217-2.719-2.719-2.719Z" fill="#0c0d0b"/>
    <path d="M55.15,38.336c-1.502,0-2.719,1.217-2.719,2.719,0,.267.039.525.111.77-.86.425-2.034,1.256-2.406,2.729-.371-1.473-1.546-2.305-2.406-2.729.072-.244.111-.502.111-.77,0-1.502-1.217-2.719-2.719-2.719s-2.719,1.217-2.719,2.719,1.217,2.719,2.719,2.719c1.149,0,2.131-.713,2.529-1.721.996.499,2.413,1.566,2.36,3.591v1.613h.249v-1.613c-.053-2.025,1.364-3.092,2.36-3.591.398,1.008,1.38,1.721,2.529,1.721,1.502,0,2.719-1.217,2.719-2.719s-1.217-2.719-2.719-2.719Z" fill="#0c0d0b"/>
    <g>
      <path d="M54.687,65.698c-1.626,0-2.945,1.318-2.945,2.945v4.458c0,1.36.922,2.504,2.175,2.843l-4.14,4.672v3.264l-4.665-5.266c1.617-.011,2.924-1.325,2.924-2.944v-4.458c0-1.626-1.318-2.945-2.945-2.945s-2.945,1.318-2.945,2.945v4.458c0,1.533,1.172,2.792,2.668,2.931l4.936,5.571v4.644h.241v-8.119l4.164-4.7c.172.031.35.049.531.049,1.626,0,2.945-1.318,2.945-2.945v-4.458c0-1.626-1.318-2.945-2.945-2.945Z"/>
      <circle cx="54.689" cy="71.072" r="1.098" fill="#ffc1b3"/>
      <circle cx="45.211" cy="73.268" r="1.098" fill="#ffc1b3"/>
    </g>
    <g>
      <path d="M72.347,85.171c-1.301,0-2.356-1.055-2.356-2.356v-3.566c0-1.088.738-2.003,1.74-2.274l-3.312-3.738v-2.611l-3.732,4.213c1.293.009,2.339,1.06,2.339,2.355v3.566c0,1.301-1.055,2.356-2.356,2.356s-2.356-1.055-2.356-2.356v-3.566c0-1.226.937-2.234,2.135-2.345l3.949-4.457v-3.715h.193v6.495l3.331,3.76c.138-.025.28-.039.425-.039,1.301,0,2.356,1.055,2.356,2.356v3.566c0,1.301-1.055,2.356-2.356,2.356Z"/>
      <circle cx="72.348" cy="80.872" r=".878" fill="#ffc1b3"/>
      <circle cx="64.766" cy="79.115" r=".878" fill="#ffc1b3"/>
    </g>
    <g>
      <path d="M35.33,85.171c-1.301,0-2.356-1.055-2.356-2.356v-3.566c0-1.088.738-2.003,1.74-2.274l-3.312-3.738v-2.611l-3.732,4.213c1.293.009,2.339,1.06,2.339,2.355v3.566c0,1.301-1.055,2.356-2.356,2.356s-2.356-1.055-2.356-2.356v-3.566c0-1.226.937-2.234,2.135-2.345l3.949-4.457v-3.715h.193v6.495l3.331,3.76c.138-.025.28-.039.425-.039,1.301,0,2.356,1.055,2.356,2.356v3.566c0,1.301-1.055,2.356-2.356,2.356Z"/>
      <circle cx="35.331" cy="80.872" r=".878" fill="#ffc1b3"/>
      <circle cx="27.749" cy="79.115" r=".878" fill="#ffc1b3"/>
    </g>
  </g>
  <g id="Flores">
    <g>
      <g>
        <path d="M74.026,22.624c0-1.144-.928-2.072-2.072-2.072s-2.072.928-2.072,2.072.928,2.072,2.072,2.072c.383,0,.741-.104,1.049-.285.248,1.878-.285,3.775-1.473,5.161-.162-.131-.4-.124-.554.024-.159.153-.171.402-.031.569-.003.002-.005.005-.008.007-.197.173-.403.33-.617.474-.023-.032-.05-.061-.083-.087-.183-.142-.446-.11-.588.073-.099.127-.113.292-.052.429-.237.116-.481.215-.73.3-.05-.13-.163-.233-.31-.262-.227-.045-.448.103-.493.33-.01.05-.01.1-.003.148-.258.052-.519.088-.782.109-.009-.073-.036-.144-.085-.206-.142-.183-.405-.216-.588-.074-.096.074-.15.182-.16.294-.262-.012-.524-.039-.785-.081.001-.011.002-.023.003-.034.007-.231-.175-.425-.406-.432-.189-.006-.353.115-.41.285-.252-.072-.501-.159-.745-.26.06-.163.014-.353-.128-.469-.179-.147-.443-.12-.59.059-.012.015-.022.03-.032.045-.228-.128-.45-.27-.665-.426.064-.095.089-.215.059-.335-.056-.225-.284-.362-.508-.306-.225.056-.362.284-.306.508.056.225.284.362.508.306.086-.021.159-.068.214-.13.217.157.441.301.672.431-.076.169-.033.374.117.496.179.147.443.12.59-.059.018-.022.033-.046.046-.07.246.102.497.191.753.265-.004.021-.007.043-.007.066-.007.231.175.425.406.432.2.006.371-.129.419-.315.263.042.528.07.795.082.004.083.033.165.087.236.142.183.405.216.588.074.105-.081.16-.202.162-.325.268-.021.532-.058.791-.111.044.143.163.258.32.289.227.045.448-.103.493-.33.012-.061.01-.121-.003-.178.253-.086.5-.188.739-.305.026.042.058.08.099.111.183.142.446.11.588-.073.105-.135.114-.314.038-.456.218-.146.426-.305.624-.479.003-.003.006-.006.01-.009.162.151.415.151.576-.005.166-.16.172-.424.013-.591.65-.755,1.115-1.666,1.359-2.677.203-.837.243-1.701.126-2.553.583-.367.971-1.015.971-1.755Z" fill="#ff9b85"/>
        <circle cx="66.801" cy="25.424" r="4.369" fill="#0c0d0b"/>
      </g>
      <circle cx="63.256" cy="26.802" r="1.574" fill="#ffc1b3"/>
    </g>
    <g>
      <g>
        <path d="M39.865,22.624c0-1.144-.928-2.072-2.072-2.072s-2.072.928-2.072,2.072.928,2.072,2.072,2.072c.383,0,.741-.104,1.049-.285.248,1.878-.285,3.775-1.473,5.161-.162-.131-.4-.124-.554.024-.159.153-.171.402-.031.569-.003.002-.005.005-.008.007-.197.173-.403.33-.617.474-.023-.032-.05-.061-.083-.087-.183-.142-.446-.11-.588.073-.099.127-.113.292-.052.429-.237.116-.481.215-.73.3-.05-.13-.163-.233-.31-.262-.227-.045-.448.103-.493.33-.01.05-.01.1-.003.148-.258.052-.519.088-.782.109-.009-.073-.036-.144-.085-.206-.142-.183-.405-.216-.588-.074-.096.074-.15.182-.16.294-.262-.012-.524-.039-.785-.081.001-.011.002-.023.003-.034.007-.231-.175-.425-.406-.432-.189-.006-.353.115-.41.285-.252-.072-.501-.159-.745-.26.06-.163.014-.353-.128-.469-.179-.147-.443-.12-.59.059-.012.015-.022.03-.032.045-.228-.128-.45-.27-.665-.426.064-.095.089-.215.059-.335-.056-.225-.284-.362-.508-.306-.225.056-.362.284-.306.508.056.225.284.362.508.306.086-.021.159-.068.214-.13.217.157.441.301.672.431-.076.169-.033.374.117.496.179.147.443.12.59-.059.018-.022.033-.046.046-.07.246.102.497.191.753.265-.004.021-.007.043-.007.066-.007.231.175.425.406.432.2.006.371-.129.419-.315.263.042.528.07.795.082.004.083.033.165.087.236.142.183.405.216.588.074.105-.081.16-.202.162-.325.268-.021.532-.058.791-.111.044.143.163.258.32.289.227.045.448-.103.493-.33.012-.061.01-.121-.003-.178.253-.086.5-.188.739-.305.026.042.058.08.099.111.183.142.446.11.588-.073.105-.135.114-.314.038-.456.218-.146.426-.305.624-.479.003-.003.006-.006.01-.009.162.151.415.151.576-.005.166-.16.172-.424.013-.591.65-.755,1.115-1.666,1.359-2.677.203-.837.243-1.701.126-2.553.583-.367.971-1.015.971-1.755Z" fill="#ff9b85"/>
        <circle cx="32.64" cy="25.424" r="4.369" fill="#0c0d0b"/>
      </g>
      <circle cx="29.095" cy="26.802" r="1.574" fill="#ffc1b3"/>
    </g>
    <g>
      <path d="M50.132,19.399c5.125,0,9.28-4.155,9.28-9.28h-18.559c0,5.125,4.155,9.28,9.28,9.28Z" fill="#0c0d0b"/>
      <circle cx="50.132" cy="10.119" r="3.926" fill="#e17a74"/>
      <path d="M63.507,4.078C63.507,1.828,61.684.005,59.434.005s-4.073,1.823-4.073,4.073,1.823,4.073,4.073,4.073c.752,0,1.456-.205,2.061-.56.487,3.691-.56,7.42-2.894,10.144-.319-.257-.786-.244-1.089.048-.313.301-.335.79-.062,1.119-.005.005-.011.01-.016.014-.386.339-.791.649-1.212.931-.045-.063-.099-.12-.163-.17-.359-.28-.877-.215-1.157.144-.194.249-.222.575-.101.844-.466.227-.945.423-1.434.59-.098-.256-.321-.458-.61-.515-.446-.088-.88.202-.968.648-.02.099-.021.197-.005.291-.506.101-1.019.173-1.536.213-.017-.143-.072-.283-.166-.405-.279-.36-.797-.425-1.156-.146-.188.146-.295.358-.315.578-.515-.023-1.031-.076-1.544-.158.002-.022.004-.045.005-.067.014-.455-.344-.835-.799-.849-.372-.011-.693.225-.806.56-.495-.142-.984-.313-1.465-.512.118-.32.028-.693-.252-.922-.352-.288-.872-.236-1.16.117-.023.029-.044.059-.063.089-.447-.252-.884-.531-1.307-.837.125-.187.174-.423.115-.658-.11-.442-.557-.711-.999-.6-.442.11-.71.557-.6.999.11.442.557.711.999.6.169-.042.313-.134.42-.256.426.308.867.591,1.321.848-.149.332-.066.734.229.976.352.288.872.236,1.16-.117.036-.043.066-.089.091-.137.484.201.978.375,1.48.52-.008.042-.013.085-.014.129-.014.455.344.835.799.849.393.012.729-.253.823-.618.516.083,1.038.138,1.562.161.008.163.064.325.172.463.279.36.797.425,1.156.146.206-.16.314-.397.318-.639.526-.042,1.045-.114,1.555-.217.086.281.32.507.628.569.446.088.88-.202.968-.648.024-.12.02-.238-.006-.35.498-.17.983-.37,1.453-.6.05.082.115.157.195.219.359.28.877.215,1.157-.144.207-.266.225-.618.075-.896.428-.287.838-.6,1.226-.941.006-.006.013-.011.019-.017.318.296.816.296,1.132-.009.327-.315.337-.834.025-1.162,1.277-1.483,2.19-3.275,2.671-5.262.398-1.646.478-3.344.247-5.018,1.146-.721,1.908-1.996,1.908-3.45Z" fill="#0c0d0b"/>
      <circle cx="59.412" cy="4.052" r="2.498" fill="#ffc1b3"/>
    </g>
  </g>
</svg>