<?xml version="1.0" encoding="UTF-8"?>
<svg xmlns="http://www.w3.org/2000/svg" width="275.651" height="450" viewBox="0 0 275.651 450">
  <g id="Tallo">
    <g>
      <line x1="138.602" y1="450" x2="138.602" y2="67.564" fill="none" stroke="#0c0d0b" stroke-miterlimit="10" stroke-width="2.168"/>
      <path d="M221.73,330.185v-29.767c0-4.882-3.958-8.84-8.84-8.84h-65.451c-4.886,0-8.846-3.964-8.84-8.851l.051-40.361h-.508s.051,40.361.051,40.361c.006,4.886-3.953,8.851-8.84,8.851H63.904c-4.882,0-8.84,3.958-8.84,8.84v29.767" fill="none" stroke="#0c0d0b" stroke-miterlimit="10" stroke-width="1.084"/>
      <path d="M216.545,117.206h20.94c5.261,0,9.525,4.265,9.525,9.525v14.598c0,5.261-4.265,9.525-9.525,9.525h-99.761s1.439,0,1.439,0H39.402c-5.261,0-9.525-4.265-9.525-9.525v-14.598c0-5.261,4.265-9.525,9.525-9.525h20.94" fill="none" stroke="#0c0d0b" stroke-miterlimit="10" stroke-width="1.084"/>
    </g>
  </g>
  <g id="Hojas">
    <path d="M161.505,242.108c-6.759,0-12.238,5.479-12.238,12.238,0,1.203.177,2.365.5,3.463-3.868,1.911-9.155,5.652-10.826,12.283-1.671-6.631-6.958-10.372-10.826-12.283.324-1.098.5-2.26.5-3.463,0-6.759-5.479-12.238-12.238-12.238s-12.238,5.479-12.238,12.238,5.479,12.238,12.238,12.238c5.172,0,9.592-3.211,11.383-7.746,4.483,2.244,10.859,7.047,10.619,16.16v7.258h1.122v-7.258c-.24-9.112,6.136-13.916,10.619-16.16,1.791,4.536,6.211,7.746,11.383,7.746,6.759,0,12.238-5.479,12.238-12.238s-5.479-12.238-12.238-12.238Z" fill="#0c0d0b"/>
    <path d="M161.505,207.307c-6.759,0-12.238,5.479-12.238,12.238,0,1.203.177,2.365.5,3.463-3.868,1.911-9.155,5.652-10.826,12.283-1.671-6.631-6.958-10.372-10.826-12.283.324-1.098.5-2.26.5-3.463,0-6.759-5.479-12.238-12.238-12.238s-12.238,5.479-12.238,12.238,5.479,12.238,12.238,12.238c5.172,0,9.592-3.211,11.383-7.746,4.483,2.244,10.859,7.047,10.619,16.16v7.258h1.122v-7.258c-.24-9.112,6.136-13.916,10.619-16.16,1.791,4.536,6.211,7.746,11.383,7.746,6.759,0,12.238-5.479,12.238-12.238s-5.479-12.238-12.238-12.238Z" fill="#0c0d0b"/>
    <path d="M161.505,172.505c-6.759,0-12.238,5.479-12.238,12.238,0,1.203.177,2.365.5,3.463-3.868,1.911-9.155,5.652-10.826,12.283-1.671-6.631-6.958-10.372-10.826-12.283.324-1.098.5-2.26.5-3.463,0-6.759-5.479-12.238-12.238-12.238s-12.238,5.479-12.238,12.238,5.479,12.238,12.238,12.238c5.172,0,9.592-3.211,11.383-7.746,4.483,2.244,10.859,7.047,10.619,16.16v7.258h1.122v-7.258c-.24-9.112,6.136-13.916,10.619-16.16,1.791,4.536,6.211,7.746,11.383,7.746,6.759,0,12.238-5.479,12.238-12.238s-5.479-12.238-12.238-12.238Z" fill="#0c0d0b"/>
    <g>
      <path d="M159.418,295.649c-7.319,0-13.253,5.934-13.253,13.253v20.062c0,6.12,4.15,11.269,9.789,12.793l-18.63,21.028v14.691l-20.997-23.699c7.276-.05,13.16-5.963,13.16-13.251v-20.062c0-7.319-5.934-13.253-13.253-13.253s-13.253,5.934-13.253,13.253v20.062c0,6.899,5.273,12.565,12.008,13.193l22.214,25.073v20.899h1.085v-36.541l18.74-21.152c.776.141,1.574.219,2.39.219,7.319,0,13.253-5.934,13.253-13.253v-20.062c0-7.319-5.934-13.253-13.253-13.253Z"/>
      <circle cx="159.427" cy="319.833" r="4.942" fill="#ffc1b3"/>
      <circle cx="116.771" cy="329.717" r="4.942" fill="#ffc1b3"/>
    </g>
    <g>
      <path d="M238.896,383.286c-5.855,0-10.602-4.747-10.602-10.602v-16.049c0-4.896,3.32-9.015,7.831-10.234l-14.904-16.822v-11.752l-16.797,18.96c5.821.04,10.528,4.77,10.528,10.6v16.049c0,5.855-4.747,10.602-10.602,10.602s-10.602-4.747-10.602-10.602v-16.049c0-5.519,4.218-10.052,9.606-10.554l17.771-20.059v-16.719h.868v29.233l14.992,16.922c.621-.113,1.259-.175,1.912-.175,5.855,0,10.602,4.747,10.602,10.602v16.049c0,5.855-4.747,10.602-10.602,10.602Z"/>
      <circle cx="238.904" cy="363.939" r="3.953" fill="#ffc1b3"/>
      <circle cx="204.779" cy="356.032" r="3.953" fill="#ffc1b3"/>
    </g>
    <g>
      <path d="M72.302,383.286c-5.855,0-10.602-4.747-10.602-10.602v-16.049c0-4.896,3.32-9.015,7.831-10.234l-14.904-16.822v-11.752l-16.797,18.96c5.821.04,10.528,4.77,10.528,10.6v16.049c0,5.855-4.747,10.602-10.602,10.602s-10.602-4.747-10.602-10.602v-16.049c0-5.519,4.218-10.052,9.606-10.554l17.771-20.059v-16.719h.868v29.233l14.992,16.922c.621-.113,1.259-.175,1.912-.175,5.855,0,10.602,4.747,10.602,10.602v16.049c0,5.855-4.747,10.602-10.602,10.602Z"/>
      <circle cx="72.31" cy="363.939" r="3.953" fill="#ffc1b3"/>
      <circle cx="38.186" cy="356.032" r="3.953" fill="#ffc1b3"/>
    </g>
  </g>
  <g id="Flores">
    <g>
      <g>
        <path d="M246.452,101.795c0-5.151-4.175-9.326-9.326-9.326s-9.326,4.175-9.326,9.326,4.175,9.326,9.326,9.326c1.722,0,3.334-.469,4.719-1.283,1.115,8.453-1.283,16.99-6.627,23.228-.729-.589-1.8-.558-2.493.109-.716.69-.767,1.809-.142,2.562-.012.011-.024.022-.036.033-.884.777-1.812,1.486-2.775,2.131-.103-.144-.227-.276-.374-.39-.822-.64-2.008-.493-2.648.329-.444.571-.509,1.316-.232,1.933-1.067.52-2.164.97-3.285,1.35-.224-.587-.735-1.049-1.397-1.18-1.022-.202-2.015.462-2.218,1.485-.045.227-.047.452-.012.667-1.159.232-2.334.395-3.517.488-.04-.327-.164-.648-.38-.927-.639-.823-1.825-.973-2.648-.333-.431.335-.675.819-.72,1.323-1.18-.053-2.36-.174-3.534-.362.006-.051.01-.102.012-.154.032-1.042-.787-1.912-1.829-1.943-.851-.026-1.587.516-1.845,1.283-1.133-.325-2.253-.716-3.354-1.172.269-.734.063-1.588-.576-2.11-.807-.66-1.996-.54-2.655.267-.054.066-.1.134-.143.204-1.025-.577-2.024-1.216-2.992-1.917.286-.427.398-.969.264-1.508-.252-1.011-1.276-1.627-2.287-1.375-1.011.252-1.627,1.276-1.375,2.287.252,1.011,1.276,1.627,2.287,1.375.388-.097.717-.307.962-.587.975.706,1.985,1.354,3.026,1.941-.342.759-.15,1.682.525,2.234.807.66,1.996.54,2.655-.267.081-.099.151-.205.208-.314,1.107.461,2.239.86,3.389,1.191-.018.096-.029.195-.032.296-.032,1.042.787,1.912,1.829,1.943.899.027,1.67-.579,1.884-1.415,1.182.191,2.376.315,3.576.368.019.373.147.743.393,1.06.639.823,1.825.973,2.648.333.471-.365.72-.91.729-1.462,1.204-.096,2.393-.262,3.56-.498.197.644.732,1.162,1.439,1.302,1.022.202,2.015-.462,2.218-1.485.054-.274.046-.545-.015-.8,1.141-.389,2.251-.848,3.326-1.374.115.187.263.358.447.502.822.64,2.008.493,2.648-.329.474-.608.515-1.415.173-2.053.98-.656,1.918-1.374,2.807-2.154.015-.013.029-.026.043-.039.729.678,1.868.678,2.593-.021.748-.721.772-1.909.057-2.66,2.925-3.397,5.016-7.5,6.116-12.049.911-3.768,1.094-7.657.565-11.49,2.625-1.65,4.37-4.57,4.37-7.899Z" fill="#ff9b85"/>
        <circle cx="213.937" cy="114.398" r="19.66" fill="#0c0d0b"/>
      </g>
      <circle cx="197.983" cy="120.598" r="7.083" fill="#ffc1b3"/>
    </g>
    <g>
      <g>
        <path d="M92.713,101.795c0-5.151-4.175-9.326-9.326-9.326s-9.326,4.175-9.326,9.326,4.175,9.326,9.326,9.326c1.722,0,3.334-.469,4.719-1.283,1.115,8.453-1.283,16.99-6.627,23.228-.729-.589-1.8-.558-2.493.109-.716.69-.767,1.809-.142,2.562-.012.011-.024.022-.036.033-.884.777-1.812,1.486-2.775,2.131-.103-.144-.227-.276-.374-.39-.822-.64-2.008-.493-2.648.329-.444.571-.509,1.316-.232,1.933-1.067.52-2.164.97-3.285,1.35-.224-.587-.735-1.049-1.397-1.18-1.022-.202-2.015.462-2.218,1.485-.045.227-.047.452-.012.667-1.159.232-2.334.395-3.517.488-.04-.327-.164-.648-.38-.927-.639-.823-1.825-.973-2.648-.333-.431.335-.675.819-.72,1.323-1.18-.053-2.36-.174-3.534-.362.006-.051.01-.102.012-.154.032-1.042-.787-1.912-1.829-1.943-.851-.026-1.587.516-1.845,1.283-1.133-.325-2.253-.716-3.354-1.172.269-.734.063-1.588-.576-2.11-.807-.66-1.996-.54-2.655.267-.054.066-.1.134-.143.204-1.025-.577-2.024-1.216-2.992-1.917.286-.427.398-.969.264-1.508-.252-1.011-1.276-1.627-2.287-1.375-1.011.252-1.627,1.276-1.375,2.287.252,1.011,1.276,1.627,2.287,1.375.388-.097.717-.307.962-.587.975.706,1.985,1.354,3.026,1.941-.342.759-.15,1.682.525,2.234.807.66,1.996.54,2.655-.267.081-.099.151-.205.208-.314,1.107.461,2.239.86,3.389,1.191-.018.096-.029.195-.032.296-.032,1.042.787,1.912,1.829,1.943.899.027,1.67-.579,1.884-1.415,1.182.191,2.376.315,3.576.368.019.373.147.743.393,1.06.639.823,1.825.973,2.648.333.471-.365.72-.91.729-1.462,1.204-.096,2.393-.262,3.56-.498.197.644.732,1.162,1.439,1.302,1.022.202,2.015-.462,2.218-1.485.054-.274.046-.545-.015-.8,1.141-.389,2.251-.848,3.326-1.374.115.187.263.358.447.502.822.64,2.008.493,2.648-.329.474-.608.515-1.415.173-2.053.98-.656,1.918-1.374,2.807-2.154.015-.013.029-.026.043-.039.729.678,1.868.678,2.593-.021.748-.721.772-1.909.057-2.66,2.925-3.397,5.016-7.5,6.116-12.049.911-3.768,1.094-7.657.565-11.49,2.625-1.65,4.37-4.57,4.37-7.899Z" fill="#ff9b85"/>
        <circle cx="60.198" cy="114.398" r="19.66" fill="#0c0d0b"/>
      </g>
      <circle cx="44.244" cy="120.598" r="7.083" fill="#ffc1b3"/>
    </g>
    <g>
      <path d="M138.922,87.28c23.064,0,41.762-18.697,41.762-41.762h-83.524c0,23.064,18.698,41.762,41.762,41.762Z" fill="#0c0d0b"/>
      <circle cx="138.922" cy="45.518" r="17.669" fill="#e17a74"/>
      <path d="M199.114,18.329c0-10.123-8.206-18.329-18.329-18.329s-18.329,8.206-18.329,18.329,8.206,18.329,18.329,18.329c3.385,0,6.553-.921,9.275-2.521,2.191,16.613-2.521,33.393-13.025,45.652-1.434-1.158-3.537-1.097-4.899.215-1.408,1.357-1.508,3.556-.278,5.036-.024.021-.047.043-.071.064-1.738,1.526-3.562,2.92-5.453,4.189-.203-.282-.446-.542-.734-.766-1.616-1.259-3.946-.969-5.205.647-.873,1.121-1,2.586-.456,3.799-2.097,1.022-4.253,1.906-6.456,2.653-.44-1.153-1.445-2.061-2.745-2.318-2.009-.398-3.961.909-4.359,2.918-.088.445-.092.888-.024,1.311-2.279.456-4.587.777-6.913.96-.078-.643-.322-1.273-.748-1.822-1.256-1.618-3.586-1.911-5.204-.655-.847.658-1.327,1.61-1.416,2.6-2.319-.103-4.639-.342-6.947-.712.011-.1.02-.201.023-.303.062-2.047-1.548-3.757-3.595-3.819-1.672-.051-3.119,1.014-3.627,2.521-2.227-.638-4.428-1.408-6.591-2.303.529-1.442.124-3.121-1.132-4.148-1.586-1.296-3.923-1.062-5.219.524-.105.129-.197.264-.282.402-2.014-1.133-3.978-2.39-5.881-3.767.563-.84.783-1.905.519-2.963-.495-1.988-2.508-3.198-4.495-2.703-1.988.495-3.198,2.508-2.702,4.495.495,1.988,2.508,3.198,4.495,2.703.762-.19,1.41-.604,1.891-1.153,1.915,1.387,3.901,2.661,5.947,3.815-.672,1.493-.295,3.305,1.033,4.391,1.586,1.296,3.923,1.062,5.219-.524.16-.196.296-.403.41-.618,2.176.906,4.4,1.69,6.66,2.342-.036.189-.058.383-.064.582-.062,2.047,1.548,3.757,3.595,3.819,1.767.053,3.282-1.138,3.704-2.782,2.323.375,4.669.62,7.028.723.037.732.289,1.461.772,2.084,1.256,1.618,3.586,1.911,5.204.655.925-.718,1.415-1.788,1.432-2.874,2.366-.189,4.703-.515,6.997-.979.386,1.266,1.439,2.284,2.828,2.559,2.009.398,3.961-.909,4.359-2.918.107-.538.09-1.072-.029-1.573,2.242-.764,4.425-1.667,6.537-2.7.226.368.517.705.878.986,1.616,1.259,3.946.969,5.205-.647.931-1.195,1.013-2.78.339-4.034,1.926-1.29,3.77-2.701,5.517-4.234.029-.025.057-.051.085-.076,1.432,1.333,3.671,1.332,5.096-.042,1.47-1.416,1.517-3.752.112-5.228,5.749-6.675,9.858-14.739,12.021-23.681,1.791-7.406,2.15-15.049,1.11-22.583,5.158-3.243,8.589-8.982,8.589-15.524Z" fill="#0c0d0b"/>
      <circle cx="180.684" cy="18.212" r="11.244" fill="#ffc1b3"/>
    </g>
  </g>
</svg>