<?xml version="1.0" encoding="UTF-8"?>
<svg xmlns="http://www.w3.org/2000/svg" width="100" height="100" viewBox="0 0 100 100">
  <g id="Tallo">
    <g>
      <line x1="50.159" y1="99.995" x2="50.159" y2="7.86" fill="none" stroke="#0c0d0b" stroke-miterlimit="10" stroke-width=".522"/>
      <polyline points="70.186 19.82 70.186 27.987 65.14 27.987 50.049 49.973 50.064 49.973 34.972 27.987 29.927 27.987 29.927 19.82" fill="none" stroke="#000" stroke-miterlimit="10" stroke-width=".261"/>
      <path d="M70.186,49.973v7.171c0,1.176-.953,2.13-2.13,2.13h-15.768c-1.177,0-2.131.955-2.13,2.132l.012,9.724h-.122s.012-9.724.012-9.724c.001-1.177-.952-2.132-2.13-2.132h-15.768c-1.176,0-2.13-.953-2.13-2.13v-7.171" fill="none" stroke="#000" stroke-miterlimit="10" stroke-width=".261"/>
    </g>
  </g>
  <g id="Hojas">
    <path d="M55.658,80.467c-1.628,0-2.948,1.32-2.948,2.948,0,.29.043.57.121.834-.932.46-2.206,1.362-2.608,2.959-.403-1.598-1.676-2.499-2.608-2.959.078-.265.121-.544.121-.834,0-1.628-1.32-2.948-2.948-2.948s-2.948,1.32-2.948,2.948,1.32,2.948,2.948,2.948c1.246,0,2.311-.773,2.742-1.866,1.08.541,2.616,1.698,2.558,3.893v1.749h.27v-1.749c-.058-2.195,1.478-3.353,2.558-3.893.432,1.093,1.496,1.866,2.742,1.866,1.628,0,2.948-1.32,2.948-2.948s-1.32-2.948-2.948-2.948Z" fill="#0c0d0b"/>
    <path d="M55.658,72.083c-1.628,0-2.948,1.32-2.948,2.948,0,.29.043.57.121.834-.932.46-2.206,1.362-2.608,2.959-.403-1.598-1.676-2.499-2.608-2.959.078-.265.121-.544.121-.834,0-1.628-1.32-2.948-2.948-2.948s-2.948,1.32-2.948,2.948,1.32,2.948,2.948,2.948c1.246,0,2.311-.773,2.742-1.866,1.08.541,2.616,1.698,2.558,3.893v1.749h.27v-1.749c-.058-2.195,1.478-3.353,2.558-3.893.432,1.093,1.496,1.866,2.742,1.866,1.628,0,2.948-1.32,2.948-2.948s-1.32-2.948-2.948-2.948Z" fill="#0c0d0b"/>
    <path d="M55.658,63.698c-1.628,0-2.948,1.32-2.948,2.948,0,.29.043.57.121.834-.932.46-2.206,1.362-2.608,2.959-.403-1.598-1.676-2.499-2.608-2.959.078-.265.121-.544.121-.834,0-1.628-1.32-2.948-2.948-2.948s-2.948,1.32-2.948,2.948,1.32,2.948,2.948,2.948c1.246,0,2.311-.773,2.742-1.866,1.08.541,2.616,1.698,2.558,3.893v1.749h.27v-1.749c-.058-2.195,1.478-3.353,2.558-3.893.432,1.093,1.496,1.866,2.742,1.866,1.628,0,2.948-1.32,2.948-2.948s-1.32-2.948-2.948-2.948Z" fill="#0c0d0b"/>
    <g>
      <path d="M35.351,42.323c-1.628,0-2.948,1.32-2.948,2.948,0,.29.043.57.121.834-.932.46-2.206,1.362-2.608,2.959-.403-1.598-1.676-2.499-2.608-2.959.078-.265.121-.544.121-.834,0-1.628-1.32-2.948-2.948-2.948s-2.948,1.32-2.948,2.948,1.32,2.948,2.948,2.948c1.246,0,2.311-.773,2.742-1.866,1.08.541,2.616,1.698,2.558,3.893v1.749h.27v-1.749c-.058-2.195,1.478-3.353,2.558-3.893.432,1.093,1.496,1.866,2.742,1.866,1.628,0,2.948-1.32,2.948-2.948s-1.32-2.948-2.948-2.948Z" fill="#0c0d0b"/>
      <circle cx="29.906" cy="51.333" r="1.778" fill="#0c0d0b"/>
    </g>
    <g>
      <path d="M75.521,42.323c-1.628,0-2.948,1.32-2.948,2.948,0,.29.043.57.121.834-.932.46-2.206,1.362-2.608,2.959-.403-1.598-1.676-2.499-2.608-2.959.078-.265.121-.544.121-.834,0-1.628-1.32-2.948-2.948-2.948s-2.948,1.32-2.948,2.948,1.32,2.948,2.948,2.948c1.246,0,2.311-.773,2.742-1.866,1.08.541,2.616,1.698,2.558,3.893v1.749h.27v-1.749c-.058-2.195,1.478-3.353,2.558-3.893.432,1.093,1.496,1.866,2.742,1.866,1.628,0,2.948-1.32,2.948-2.948s-1.32-2.948-2.948-2.948Z" fill="#0c0d0b"/>
      <circle cx="70.124" cy="51.333" r="1.778" fill="#0c0d0b"/>
    </g>
  </g>
  <g id="Flores">
    <g>
      <g>
        <path d="M63.418,3.984C63.418,1.787,61.637.005,59.439.005s-3.979,1.782-3.979,3.979,1.782,3.979,3.979,3.979c.735,0,1.423-.2,2.013-.547.476,3.606-.547,7.249-2.828,9.911-.311-.251-.768-.238-1.064.047-.306.295-.327.772-.06,1.093-.005.005-.01.009-.015.014-.377.331-.773.634-1.184.909-.044-.061-.097-.118-.159-.166-.351-.273-.857-.21-1.13.14-.19.243-.217.561-.099.825-.455.222-.923.414-1.401.576-.096-.25-.314-.447-.596-.503-.436-.086-.86.197-.946.633-.019.097-.02.193-.005.285-.495.099-.996.169-1.501.208-.017-.14-.07-.276-.162-.396-.273-.351-.778-.415-1.13-.142-.184.143-.288.35-.307.564-.503-.022-1.007-.074-1.508-.155.002-.022.004-.044.005-.066.013-.444-.336-.816-.78-.829-.363-.011-.677.22-.787.547-.483-.139-.961-.306-1.431-.5.115-.313.027-.678-.246-.9-.344-.281-.852-.23-1.133.114-.023.028-.043.057-.061.087-.437-.246-.864-.519-1.277-.818.122-.182.17-.414.113-.643-.107-.432-.544-.694-.976-.587-.431.107-.694.544-.587.976.107.432.544.694.976.587.166-.041.306-.131.411-.25.416.301.847.578,1.291.828-.146.324-.064.718.224.953.344.281.852.23,1.133-.114.035-.042.064-.087.089-.134.472.197.955.367,1.446.508-.008.041-.013.083-.014.126-.013.444.336.816.78.829.384.012.712-.247.804-.604.504.081,1.014.134,1.526.157.008.159.063.317.168.452.273.351.779.415,1.13.142.201-.156.307-.388.311-.624.514-.041,1.021-.112,1.519-.212.084.275.312.496.614.555.436.086.86-.197.946-.633.023-.117.019-.233-.006-.341.487-.166.961-.362,1.419-.586.049.08.112.153.191.214.351.273.857.21,1.13-.14.202-.259.22-.604.074-.876.418-.28.818-.586,1.198-.919.006-.005.012-.011.018-.017.311.289.797.289,1.106-.009.319-.307.329-.814.024-1.135,1.248-1.449,2.14-3.2,2.61-5.141.389-1.608.467-3.267.241-4.903,1.12-.704,1.865-1.95,1.865-3.37Z" fill="#ff9b85"/>
        <circle cx="49.545" cy="9.361" r="8.388" fill="#0c0d0b"/>
      </g>
      <circle cx="42.738" cy="12.007" r="3.022" fill="#ffc1b3"/>
    </g>
    <circle cx="70.421" cy="21.891" r="2.211" fill="#e17a74"/>
    <circle cx="30.25" cy="21.891" r="2.211" fill="#e17a74"/>
  </g>
</svg>