<?xml version="1.0" encoding="UTF-8"?>
<svg xmlns="http://www.w3.org/2000/svg" width="100" height="100" viewBox="0 0 100 100">
  <g id="Tallo">
    <path d="M59.119,99.995V21.73s-.021-16.193-23.486-14.137" fill="none" stroke="#0c0d0b" stroke-miterlimit="10" stroke-width=".621"/>
  </g>
  <g id="Hojas">
    <path d="M65.61,37.29c-1.935,0-3.504,1.569-3.504,3.504,0,.345.051.677.143.992-1.108.547-2.621,1.618-3.1,3.517-.479-1.899-1.992-2.97-3.1-3.517.093-.315.143-.647.143-.992,0-1.935-1.569-3.504-3.504-3.504s-3.504,1.569-3.504,3.504,1.569,3.504,3.504,3.504c1.481,0,2.747-.919,3.26-2.218,1.284.643,3.109,2.018,3.041,4.627v2.078h.321v-2.078c-.069-2.609,1.757-3.985,3.041-4.627.513,1.299,1.779,2.218,3.26,2.218,1.935,0,3.504-1.569,3.504-3.504s-1.569-3.504-3.504-3.504Z" fill="#0c0d0b"/>
    <path d="M65.61,25.791c-1.935,0-3.504,1.569-3.504,3.504,0,.345.051.677.143.992-1.108.547-2.621,1.618-3.1,3.517-.479-1.899-1.992-2.97-3.1-3.517.093-.315.143-.647.143-.992,0-1.935-1.569-3.504-3.504-3.504s-3.504,1.569-3.504,3.504,1.569,3.504,3.504,3.504c1.481,0,2.747-.919,3.26-2.218,1.284.643,3.109,2.018,3.041,4.627v2.078h.321v-2.078c-.069-2.609,1.757-3.985,3.041-4.627.513,1.299,1.779,2.218,3.26,2.218,1.935,0,3.504-1.569,3.504-3.504s-1.569-3.504-3.504-3.504Z" fill="#0c0d0b"/>
    <path d="M65.61,48.788c-1.935,0-3.504,1.569-3.504,3.504,0,.345.051.677.143.992-1.108.547-2.621,1.618-3.1,3.517-.479-1.899-1.992-2.97-3.1-3.517.093-.315.143-.647.143-.992,0-1.935-1.569-3.504-3.504-3.504s-3.504,1.569-3.504,3.504,1.569,3.504,3.504,3.504c1.481,0,2.747-.919,3.26-2.218,1.284.643,3.109,2.018,3.041,4.627v2.078h.321v-2.078c-.069-2.609,1.757-3.985,3.041-4.627.513,1.299,1.779,2.218,3.26,2.218,1.935,0,3.504-1.569,3.504-3.504s-1.569-3.504-3.504-3.504Z" fill="#0c0d0b"/>
    <path d="M65.61,60.287c-1.935,0-3.504,1.569-3.504,3.504,0,.345.051.677.143.992-1.108.547-2.621,1.618-3.1,3.517-.479-1.899-1.992-2.97-3.1-3.517.093-.315.143-.647.143-.992,0-1.935-1.569-3.504-3.504-3.504s-3.504,1.569-3.504,3.504,1.569,3.504,3.504,3.504c1.481,0,2.747-.919,3.26-2.218,1.284.643,3.109,2.018,3.041,4.627v2.078h.321v-2.078c-.069-2.609,1.757-3.985,3.041-4.627.513,1.299,1.779,2.218,3.26,2.218,1.935,0,3.504-1.569,3.504-3.504s-1.569-3.504-3.504-3.504Z" fill="#0c0d0b"/>
    <path d="M65.61,71.785c-1.935,0-3.504,1.569-3.504,3.504,0,.345.051.677.143.992-1.108.547-2.621,1.618-3.1,3.517-.479-1.899-1.992-2.97-3.1-3.517.093-.315.143-.647.143-.992,0-1.935-1.569-3.504-3.504-3.504s-3.504,1.569-3.504,3.504,1.569,3.504,3.504,3.504c1.481,0,2.747-.919,3.26-2.218,1.284.643,3.109,2.018,3.041,4.627v2.078h.321v-2.078c-.069-2.609,1.757-3.985,3.041-4.627.513,1.299,1.779,2.218,3.26,2.218,1.935,0,3.504-1.569,3.504-3.504s-1.569-3.504-3.504-3.504Z" fill="#0c0d0b"/>
  </g>
  <g id="Flores">
    <g>
      <g>
        <path d="M52.926,3.705C52.926,1.662,51.269.005,49.226.005s-3.7,1.657-3.7,3.7,1.657,3.7,3.7,3.7c.683,0,1.323-.186,1.872-.509.442,3.354-.509,6.741-2.629,9.216-.289-.234-.714-.221-.989.043-.284.274-.304.718-.056,1.017-.005.004-.01.009-.014.013-.351.308-.719.59-1.101.846-.041-.057-.09-.109-.148-.155-.326-.254-.797-.196-1.051.131-.176.226-.202.522-.092.767-.423.206-.859.385-1.303.536-.089-.233-.292-.416-.554-.468-.406-.08-.8.183-.88.589-.018.09-.019.179-.005.265-.46.092-.926.157-1.395.194-.016-.13-.065-.257-.151-.368-.254-.327-.724-.386-1.051-.132-.171.133-.268.325-.286.525-.468-.021-.936-.069-1.402-.144.002-.02.004-.041.005-.061.013-.413-.312-.759-.726-.771-.338-.01-.63.205-.732.509-.45-.129-.894-.284-1.331-.465.107-.291.025-.63-.229-.837-.32-.262-.792-.214-1.054.106-.021.026-.04.053-.057.081-.407-.229-.803-.483-1.187-.761.114-.169.158-.385.105-.598-.1-.401-.506-.645-.907-.546-.401.1-.645.506-.546.907.1.401.506.645.907.546.154-.038.285-.122.382-.233.387.28.787.537,1.201.77-.136.301-.06.667.208.886.32.262.792.214,1.054-.106.032-.039.06-.081.083-.125.439.183.888.341,1.345.473-.007.038-.012.077-.013.117-.013.413.312.759.726.771.357.011.662-.23.748-.562.469.076.943.125,1.419.146.007.148.058.295.156.421.254.327.724.386,1.051.132.187-.145.286-.361.289-.58.478-.038.949-.104,1.413-.198.078.256.291.461.571.517.406.08.8-.183.88-.589.022-.109.018-.216-.006-.318.453-.154.893-.337,1.32-.545.046.074.104.142.177.199.326.254.797.196,1.051-.131.188-.241.204-.561.069-.814.389-.26.761-.545,1.114-.855.006-.005.011-.01.017-.015.289.269.741.269,1.029-.008.297-.286.306-.757.023-1.055,1.161-1.348,1.99-2.975,2.427-4.78.362-1.495.434-3.038.224-4.559,1.041-.655,1.734-1.813,1.734-3.134Z" fill="#ff9b85"/>
        <circle cx="40.025" cy="8.705" r="7.8" fill="#0c0d0b"/>
      </g>
      <circle cx="33.696" cy="11.165" r="2.81" fill="#ffc1b3"/>
    </g>
  </g>
</svg>