<?xml version="1.0" encoding="UTF-8"?>
<svg xmlns="http://www.w3.org/2000/svg" width="100" height="100" viewBox="0 0 100 100">
  <g id="Tallo">
    <line x1="48.019" y1="99.995" x2="48.019" y2="4.827" fill="none" stroke="#0c0d0b" stroke-miterlimit="10" stroke-width=".54"/>
  </g>
  <g id="Hojas">
    <g>
      <path d="M51.966,28.468c-1.339,0-2.425,1.086-2.425,2.425v3.67c0,1.12.759,2.062,1.791,2.34l-3.408,3.847v2.688l-3.841-4.336c1.331-.009,2.408-1.091,2.408-2.424v-3.67c0-1.339-1.086-2.425-2.425-2.425s-2.425,1.086-2.425,2.425v3.67c0,1.262.965,2.299,2.197,2.414l4.064,4.587v3.824h.198v-6.685l3.428-3.87c.142.026.288.04.437.04,1.339,0,2.425-1.086,2.425-2.425v-3.67c0-1.339-1.086-2.425-2.425-2.425Z"/>
      <circle cx="51.968" cy="32.893" r=".904" fill="#ffc1b3"/>
      <circle cx="44.164" cy="34.701" r=".904" fill="#ffc1b3"/>
    </g>
    <g>
      <path d="M51.966,39.889c-1.339,0-2.425,1.086-2.425,2.425v3.67c0,1.12.759,2.062,1.791,2.34l-3.408,3.847v2.688l-3.841-4.336c1.331-.009,2.408-1.091,2.408-2.424v-3.67c0-1.339-1.086-2.425-2.425-2.425s-2.425,1.086-2.425,2.425v3.67c0,1.262.965,2.299,2.197,2.414l4.064,4.587v3.824h.198v-6.685l3.428-3.87c.142.026.288.04.437.04,1.339,0,2.425-1.086,2.425-2.425v-3.67c0-1.339-1.086-2.425-2.425-2.425Z"/>
      <circle cx="51.968" cy="44.313" r=".904" fill="#ffc1b3"/>
      <circle cx="44.164" cy="46.121" r=".904" fill="#ffc1b3"/>
    </g>
    <g>
      <path d="M51.966,52.641c-1.339,0-2.425,1.086-2.425,2.425v3.67c0,1.12.759,2.062,1.791,2.34l-3.408,3.847v2.688l-3.841-4.336c1.331-.009,2.408-1.091,2.408-2.424v-3.67c0-1.339-1.086-2.425-2.425-2.425s-2.425,1.086-2.425,2.425v3.67c0,1.262.965,2.299,2.197,2.414l4.064,4.587v3.824h.198v-6.685l3.428-3.87c.142.026.288.04.437.04,1.339,0,2.425-1.086,2.425-2.425v-3.67c0-1.339-1.086-2.425-2.425-2.425Z"/>
      <circle cx="51.968" cy="57.066" r=".904" fill="#ffc1b3"/>
      <circle cx="44.164" cy="58.874" r=".904" fill="#ffc1b3"/>
    </g>
    <g>
      <path d="M51.966,68.059c-1.339,0-2.425,1.086-2.425,2.425v3.67c0,1.12.759,2.062,1.791,2.34l-3.408,3.847v2.688l-3.841-4.336c1.331-.009,2.408-1.091,2.408-2.424v-3.67c0-1.339-1.086-2.425-2.425-2.425s-2.425,1.086-2.425,2.425v3.67c0,1.262.965,2.299,2.197,2.414l4.064,4.587v3.824h.198v-6.685l3.428-3.87c.142.026.288.04.437.04,1.339,0,2.425-1.086,2.425-2.425v-3.67c0-1.339-1.086-2.425-2.425-2.425Z"/>
      <circle cx="51.968" cy="72.483" r=".904" fill="#ffc1b3"/>
      <circle cx="44.164" cy="74.291" r=".904" fill="#ffc1b3"/>
    </g>
  </g>
  <g id="Flores">
    <g>
      <g>
        <path d="M63.585,4.566C63.585,2.047,61.543.005,59.024.005s-4.561,2.042-4.561,4.561,2.042,4.561,4.561,4.561c.842,0,1.631-.229,2.308-.627.545,4.134-.627,8.31-3.241,11.36-.357-.288-.88-.273-1.219.053-.35.338-.375.885-.069,1.253-.006.005-.012.011-.018.016-.433.38-.886.727-1.357,1.042-.05-.07-.111-.135-.183-.191-.402-.313-.982-.241-1.295.161-.217.279-.249.644-.114.945-.522.254-1.058.474-1.606.66-.11-.287-.36-.513-.683-.577-.5-.099-.986.226-1.085.726-.022.111-.023.221-.006.326-.567.113-1.141.193-1.72.239-.02-.16-.08-.317-.186-.453-.313-.403-.892-.476-1.295-.163-.211.164-.33.401-.352.647-.577-.026-1.154-.085-1.729-.177.003-.025.005-.05.006-.076.015-.51-.385-.935-.895-.95-.416-.013-.776.252-.903.627-.554-.159-1.102-.35-1.64-.573.132-.359.031-.777-.282-1.032-.395-.323-.976-.264-1.299.13-.026.032-.049.066-.07.1-.501-.282-.99-.595-1.464-.938.14-.209.195-.474.129-.737-.123-.495-.624-.796-1.119-.673-.495.123-.796.624-.673,1.119.123.495.624.796,1.119.673.19-.047.351-.15.471-.287.477.345.971.662,1.48.949-.167.371-.073.823.257,1.093.395.323.976.264,1.299-.13.04-.049.074-.1.102-.154.542.226,1.095.421,1.657.583-.009.047-.014.095-.016.145-.015.51.385.935.895.95.44.013.817-.283.922-.692.578.093,1.162.154,1.749.18.009.182.072.364.192.519.313.403.892.476,1.295.163.23-.179.352-.445.356-.715.589-.047,1.17-.128,1.741-.244.096.315.358.568.704.637.5.099.986-.226,1.085-.726.027-.134.022-.267-.007-.391.558-.19,1.101-.415,1.627-.672.056.092.129.175.218.245.402.313.982.241,1.295-.161.232-.297.252-.692.084-1.004.479-.321.938-.672,1.373-1.054.007-.006.014-.013.021-.019.356.332.913.332,1.268-.01.366-.352.378-.934.028-1.301,1.431-1.661,2.453-3.668,2.991-5.893.446-1.843.535-3.745.276-5.62,1.284-.807,2.137-2.235,2.137-3.863Z" fill="#ff9b85"/>
        <circle cx="47.682" cy="10.73" r="9.615" fill="#0c0d0b"/>
      </g>
      <circle cx="39.879" cy="13.762" r="3.464" fill="#ffc1b3"/>
    </g>
  </g>
</svg>