<?xml version="1.0" encoding="UTF-8"?>
<svg xmlns="http://www.w3.org/2000/svg" width="275.651" height="450" viewBox="0 0 275.651 450">
  <g id="Tallo">
    <g>
      <line x1="134.99" y1="450" x2="134.99" y2="23.354" fill="none" stroke="#0c0d0b" stroke-miterlimit="10" stroke-width="2.419"/>
      <path d="M227.728,316.334v-33.208c0-5.446-4.415-9.861-9.861-9.861h-73.018c-5.451,0-9.868-4.423-9.861-9.874l.057-45.027h-.566s.057,45.027.057,45.027c.007,5.451-4.41,9.874-9.861,9.874H51.657c-5.446,0-9.861,4.415-9.861,9.861v33.208" fill="none" stroke="#0c0d0b" stroke-miterlimit="10" stroke-width="1.209"/>
      <path d="M221.943,78.734h23.36c5.869,0,10.626,4.758,10.626,10.626v16.285c0,5.869-4.758,10.626-10.626,10.626h-111.294s1.605,0,1.605,0H24.321c-5.869,0-10.626-4.758-10.626-10.626v-16.285c0-5.869,4.758-10.626,10.626-10.626h23.36" fill="none" stroke="#0c0d0b" stroke-miterlimit="10" stroke-width="1.209"/>
    </g>
  </g>
  <g id="Hojas">
    <path d="M159.425,218.076c-7.54,0-13.653,6.113-13.653,13.653,0,1.342.197,2.638.558,3.864-4.315,2.132-10.213,6.305-12.077,13.702-1.864-7.398-7.762-11.571-12.077-13.702.361-1.225.558-2.521.558-3.864,0-7.54-6.112-13.653-13.653-13.653s-13.653,6.113-13.653,13.653,6.113,13.653,13.653,13.653c5.77,0,10.701-3.582,12.699-8.642,5.001,2.503,12.114,7.862,11.847,18.028v8.097h1.252v-8.097c-.267-10.166,6.846-15.525,11.847-18.028,1.998,5.06,6.929,8.642,12.699,8.642,7.54,0,13.653-6.113,13.653-13.653s-6.112-13.653-13.653-13.653Z" fill="#0c0d0b"/>
    <path d="M159.425,291.686c-7.54,0-13.653,6.113-13.653,13.653,0,1.342.197,2.638.558,3.864-4.315,2.132-10.213,6.305-12.077,13.702-1.864-7.398-7.762-11.571-12.077-13.702.361-1.225.558-2.521.558-3.864,0-7.54-6.112-13.653-13.653-13.653s-13.653,6.113-13.653,13.653,6.113,13.653,13.653,13.653c5.77,0,10.701-3.582,12.699-8.642,5.001,2.503,12.114,7.862,11.847,18.028v8.097h1.252v-8.097c-.267-10.166,6.846-15.525,11.847-18.028,1.998,5.06,6.929,8.642,12.699,8.642,7.54,0,13.653-6.113,13.653-13.653s-6.112-13.653-13.653-13.653Z" fill="#0c0d0b"/>
    <path d="M159.425,330.084c-7.54,0-13.653,6.113-13.653,13.653,0,1.342.197,2.638.558,3.864-4.315,2.132-10.213,6.305-12.077,13.702-1.864-7.398-7.762-11.571-12.077-13.702.361-1.225.558-2.521.558-3.864,0-7.54-6.112-13.653-13.653-13.653s-13.653,6.113-13.653,13.653,6.113,13.653,13.653,13.653c5.77,0,10.701-3.582,12.699-8.642,5.001,2.503,12.114,7.862,11.847,18.028v8.097h1.252v-8.097c-.267-10.166,6.846-15.525,11.847-18.028,1.998,5.06,6.929,8.642,12.699,8.642,7.54,0,13.653-6.113,13.653-13.653s-6.112-13.653-13.653-13.653Z" fill="#0c0d0b"/>
    <path d="M159.425,179.251c-7.54,0-13.653,6.113-13.653,13.653,0,1.342.197,2.638.558,3.864-4.315,2.132-10.213,6.305-12.077,13.702-1.864-7.398-7.762-11.571-12.077-13.702.361-1.225.558-2.521.558-3.864,0-7.54-6.112-13.653-13.653-13.653s-13.653,6.113-13.653,13.653,6.113,13.653,13.653,13.653c5.77,0,10.701-3.582,12.699-8.642,5.001,2.503,12.114,7.862,11.847,18.028v8.097h1.252v-8.097c-.267-10.166,6.846-15.525,11.847-18.028,1.998,5.06,6.929,8.642,12.699,8.642,7.54,0,13.653-6.113,13.653-13.653s-6.112-13.653-13.653-13.653Z" fill="#0c0d0b"/>
    <path d="M159.425,140.426c-7.54,0-13.653,6.113-13.653,13.653,0,1.342.197,2.638.558,3.864-4.315,2.132-10.213,6.305-12.077,13.702-1.864-7.398-7.762-11.571-12.077-13.702.361-1.225.558-2.521.558-3.864,0-7.54-6.112-13.653-13.653-13.653s-13.653,6.113-13.653,13.653,6.113,13.653,13.653,13.653c5.77,0,10.701-3.582,12.699-8.642,5.001,2.503,12.114,7.862,11.847,18.028v8.097h1.252v-8.097c-.267-10.166,6.846-15.525,11.847-18.028,1.998,5.06,6.929,8.642,12.699,8.642,7.54,0,13.653-6.113,13.653-13.653s-6.112-13.653-13.653-13.653Z" fill="#0c0d0b"/>
  </g>
  <g id="Flores">
    <g>
      <path d="M251.1,33.645c-7.54,0-13.653,6.113-13.653,13.653,0,1.342.197,2.638.558,3.864-4.315,2.132-10.213,6.305-12.077,13.702-1.864-7.398-7.762-11.571-12.077-13.702.361-1.225.558-2.521.558-3.864,0-7.54-6.112-13.653-13.653-13.653s-13.653,6.113-13.653,13.653,6.113,13.653,13.653,13.653c5.77,0,10.701-3.582,12.699-8.642,5.001,2.503,12.114,7.862,11.847,18.028v8.097h1.252v-8.097c-.267-10.166,6.846-15.525,11.847-18.028,1.998,5.06,6.929,8.642,12.699,8.642,7.54,0,13.653-6.113,13.653-13.653s-6.112-13.653-13.653-13.653Z" fill="#0c0d0b"/>
      <circle cx="225.928" cy="79.722" r="10.24" fill="#e17a74"/>
    </g>
    <g>
      <path d="M73.895,34.498c-7.54,0-13.653,6.113-13.653,13.653,0,1.342.197,2.638.558,3.864-4.315,2.132-10.213,6.305-12.077,13.702-1.864-7.398-7.762-11.571-12.077-13.702.361-1.225.558-2.521.558-3.864,0-7.54-6.112-13.653-13.653-13.653s-13.653,6.113-13.653,13.653,6.113,13.653,13.653,13.653c5.77,0,10.701-3.582,12.699-8.642,5.001,2.503,12.114,7.862,11.847,18.028v8.097h1.252v-8.097c-.267-10.166,6.846-15.525,11.847-18.028,1.998,5.06,6.929,8.642,12.699,8.642,7.54,0,13.653-6.113,13.653-13.653s-6.112-13.653-13.653-13.653Z" fill="#0c0d0b"/>
      <circle cx="48.723" cy="79.722" r="10.24" fill="#e17a74"/>
    </g>
    <g>
      <g>
        <path d="M171.444,10.404c0-5.746-4.658-10.404-10.404-10.404s-10.404,4.658-10.404,10.404,4.658,10.404,10.404,10.404c1.921,0,3.72-.523,5.264-1.431,1.244,9.43-1.431,18.954-7.394,25.913-.814-.657-2.008-.623-2.781.122-.799.77-.856,2.018-.158,2.859-.014.012-.027.024-.04.036-.987.866-2.022,1.658-3.095,2.378-.115-.16-.253-.308-.417-.435-.917-.714-2.24-.55-2.955.367-.496.637-.567,1.468-.259,2.156-1.19.58-2.414,1.082-3.664,1.506-.25-.654-.82-1.17-1.558-1.316-1.141-.226-2.248.516-2.474,1.656-.05.253-.052.504-.014.744-1.293.259-2.604.441-3.924.545-.044-.365-.183-.723-.424-1.034-.713-.918-2.035-1.085-2.954-.372-.481.373-.753.914-.804,1.476-1.316-.059-2.633-.194-3.943-.404.006-.057.011-.114.013-.172.035-1.162-.878-2.133-2.041-2.168-.949-.029-1.77.576-2.059,1.431-1.264-.362-2.513-.799-3.741-1.307.3-.819.071-1.771-.643-2.354-.9-.736-2.227-.603-2.962.298-.06.073-.112.15-.16.228-1.143-.643-2.258-1.357-3.338-2.138.32-.477.444-1.081.295-1.682-.281-1.128-1.423-1.815-2.552-1.534-1.128.281-1.815,1.423-1.534,2.552.281,1.128,1.423,1.815,2.552,1.534.433-.108.8-.343,1.073-.654,1.087.787,2.214,1.51,3.376,2.165-.381.847-.168,1.876.586,2.492.9.736,2.227.603,2.962-.298.091-.111.168-.229.232-.351,1.235.514,2.497.959,3.781,1.329-.02.107-.033.218-.036.33-.035,1.162.878,2.133,2.041,2.168,1.003.03,1.863-.646,2.102-1.579,1.319.213,2.651.352,3.989.41.021.416.164.829.438,1.183.713.918,2.036,1.085,2.954.372.525-.408.803-1.015.813-1.631,1.343-.107,2.67-.292,3.972-.556.219.719.817,1.296,1.605,1.452,1.141.226,2.248-.516,2.474-1.656.06-.305.051-.608-.016-.893,1.273-.434,2.512-.946,3.711-1.532.128.209.293.4.498.56.917.714,2.24.55,2.955-.367.528-.678.575-1.578.193-2.29,1.093-.732,2.14-1.533,3.131-2.404.016-.014.032-.029.048-.043.813.757,2.084.756,2.893-.024.834-.804.861-2.13.063-2.967,3.263-3.789,5.596-8.366,6.823-13.442,1.017-4.204,1.22-8.542.63-12.819,2.928-1.841,4.875-5.098,4.875-8.812Z" fill="#ff9b85"/>
        <circle cx="135.17" cy="24.464" r="21.933" fill="#0c0d0b"/>
      </g>
      <circle cx="117.372" cy="31.38" r="7.902" fill="#ffc1b3"/>
    </g>
    <circle cx="227.468" cy="311.245" r="10.24" fill="#e17a74"/>
    <circle cx="41.45" cy="311.245" r="10.24" fill="#e17a74"/>
  </g>
</svg>