<?xml version="1.0" encoding="UTF-8"?>
<svg xmlns="http://www.w3.org/2000/svg" width="100" height="100" viewBox="0 0 100 100">
  <g id="Tallo">
    <g>
      <line x1="49.53" y1="99.995" x2="49.53" y2="12.896" fill="none" stroke="#0c0d0b" stroke-miterlimit="10" stroke-width=".494"/>
      <path d="M37.729,62.178v16.845c0,.659.534,1.193,1.193,1.193h10.697c.316,0,.62.126.844.349l5.313,5.313c.751.751,2.036.219,2.036-.844v-28.855" fill="none" stroke="#0c0d0b" stroke-linejoin="round" stroke-width=".247"/>
    </g>
  </g>
  <g id="Hojas">
    <g>
      <line x1="58.153" y1="56.506" x2="68.256" y2="56.506" fill="#0c0d0b" stroke="#000" stroke-miterlimit="10" stroke-width=".293"/>
      <path d="M58.209,57.607c-.608,0-1.101-.493-1.101-1.101s.493-1.101,1.101-1.101,1.101.493,1.101,1.101-.493,1.101-1.101,1.101Z" fill="#0c0d0b"/>
      <path d="M68.201,57.607c.608,0,1.101-.493,1.101-1.101s-.493-1.101-1.101-1.101-1.101.493-1.101,1.101.493,1.101,1.101,1.101Z" fill="#0c0d0b"/>
    </g>
    <g>
      <line x1="58.153" y1="62.255" x2="68.256" y2="62.255" fill="#0c0d0b" stroke="#000" stroke-miterlimit="10" stroke-width=".293"/>
      <path d="M58.209,63.356c-.608,0-1.101-.493-1.101-1.101s.493-1.101,1.101-1.101,1.101.493,1.101,1.101-.493,1.101-1.101,1.101Z" fill="#0c0d0b"/>
      <path d="M68.201,63.356c.608,0,1.101-.493,1.101-1.101s-.493-1.101-1.101-1.101-1.101.493-1.101,1.101.493,1.101,1.101,1.101Z" fill="#0c0d0b"/>
    </g>
    <g>
      <line x1="58.153" y1="68.003" x2="68.256" y2="68.003" fill="#0c0d0b" stroke="#000" stroke-miterlimit="10" stroke-width=".293"/>
      <path d="M58.209,69.104c-.608,0-1.101-.493-1.101-1.101s.493-1.101,1.101-1.101,1.101.493,1.101,1.101-.493,1.101-1.101,1.101Z" fill="#0c0d0b"/>
      <path d="M68.201,69.104c.608,0,1.101-.493,1.101-1.101s-.493-1.101-1.101-1.101-1.101.493-1.101,1.101.493,1.101,1.101,1.101Z" fill="#0c0d0b"/>
    </g>
    <g>
      <line x1="58.153" y1="73.752" x2="68.256" y2="73.752" fill="#0c0d0b" stroke="#000" stroke-miterlimit="10" stroke-width=".293"/>
      <path d="M58.209,74.853c-.608,0-1.101-.493-1.101-1.101s.493-1.101,1.101-1.101,1.101.493,1.101,1.101-.493,1.101-1.101,1.101Z" fill="#0c0d0b"/>
      <path d="M68.201,74.853c.608,0,1.101-.493,1.101-1.101s-.493-1.101-1.101-1.101-1.101.493-1.101,1.101.493,1.101,1.101,1.101Z" fill="#0c0d0b"/>
    </g>
    <g>
      <line x1="58.153" y1="79.501" x2="68.256" y2="79.501" fill="#0c0d0b" stroke="#000" stroke-miterlimit="10" stroke-width=".293"/>
      <path d="M58.209,80.601c-.608,0-1.101-.493-1.101-1.101s.493-1.101,1.101-1.101,1.101.493,1.101,1.101-.493,1.101-1.101,1.101Z" fill="#0c0d0b"/>
      <path d="M68.201,80.601c.608,0,1.101-.493,1.101-1.101s-.493-1.101-1.101-1.101-1.101.493-1.101,1.101.493,1.101,1.101,1.101Z" fill="#0c0d0b"/>
    </g>
    <g>
      <line x1="44.392" y1="69.397" x2="54.494" y2="69.397" fill="#0c0d0b" stroke="#000" stroke-miterlimit="10" stroke-width=".293"/>
      <path d="M44.447,70.498c-.608,0-1.101-.493-1.101-1.101s.493-1.101,1.101-1.101,1.101.493,1.101,1.101-.493,1.101-1.101,1.101Z" fill="#0c0d0b"/>
      <path d="M54.439,70.498c.608,0,1.101-.493,1.101-1.101s-.493-1.101-1.101-1.101-1.101.493-1.101,1.101.493,1.101,1.101,1.101Z" fill="#0c0d0b"/>
    </g>
    <g>
      <line x1="44.392" y1="75.146" x2="54.494" y2="75.146" fill="#0c0d0b" stroke="#000" stroke-miterlimit="10" stroke-width=".293"/>
      <path d="M44.447,76.246c-.608,0-1.101-.493-1.101-1.101s.493-1.101,1.101-1.101,1.101.493,1.101,1.101-.493,1.101-1.101,1.101Z" fill="#0c0d0b"/>
      <path d="M54.439,76.246c.608,0,1.101-.493,1.101-1.101s-.493-1.101-1.101-1.101-1.101.493-1.101,1.101.493,1.101,1.101,1.101Z" fill="#0c0d0b"/>
    </g>
    <g>
      <line x1="44.392" y1="58.248" x2="54.494" y2="58.248" fill="#0c0d0b" stroke="#000" stroke-miterlimit="10" stroke-width=".293"/>
      <path d="M44.447,59.349c-.608,0-1.101-.493-1.101-1.101s.493-1.101,1.101-1.101,1.101.493,1.101,1.101-.493,1.101-1.101,1.101Z" fill="#0c0d0b"/>
      <path d="M54.439,59.349c.608,0,1.101-.493,1.101-1.101s-.493-1.101-1.101-1.101-1.101.493-1.101,1.101.493,1.101,1.101,1.101Z" fill="#0c0d0b"/>
    </g>
    <g>
      <line x1="44.392" y1="63.997" x2="54.494" y2="63.997" fill="#0c0d0b" stroke="#000" stroke-miterlimit="10" stroke-width=".293"/>
      <path d="M44.447,65.098c-.608,0-1.101-.493-1.101-1.101s.493-1.101,1.101-1.101,1.101.493,1.101,1.101-.493,1.101-1.101,1.101Z" fill="#0c0d0b"/>
      <path d="M54.439,65.098c.608,0,1.101-.493,1.101-1.101s-.493-1.101-1.101-1.101-1.101.493-1.101,1.101.493,1.101,1.101,1.101Z" fill="#0c0d0b"/>
    </g>
    <g>
      <line x1="27.669" y1="62.603" x2="37.771" y2="62.603" fill="#0c0d0b" stroke="#000" stroke-miterlimit="10" stroke-width=".293"/>
      <path d="M27.724,63.704c-.608,0-1.101-.493-1.101-1.101s.493-1.101,1.101-1.101,1.101.493,1.101,1.101-.493,1.101-1.101,1.101Z" fill="#0c0d0b"/>
      <path d="M37.716,63.704c.608,0,1.101-.493,1.101-1.101s-.493-1.101-1.101-1.101-1.101.493-1.101,1.101.493,1.101,1.101,1.101Z" fill="#0c0d0b"/>
    </g>
    <g>
      <line x1="27.669" y1="68.352" x2="37.771" y2="68.352" fill="#0c0d0b" stroke="#000" stroke-miterlimit="10" stroke-width=".293"/>
      <path d="M27.724,69.453c-.608,0-1.101-.493-1.101-1.101s.493-1.101,1.101-1.101,1.101.493,1.101,1.101-.493,1.101-1.101,1.101Z" fill="#0c0d0b"/>
      <path d="M37.716,69.453c.608,0,1.101-.493,1.101-1.101s-.493-1.101-1.101-1.101-1.101.493-1.101,1.101.493,1.101,1.101,1.101Z" fill="#0c0d0b"/>
    </g>
    <g>
      <line x1="27.669" y1="74.1" x2="37.771" y2="74.1" fill="#0c0d0b" stroke="#000" stroke-miterlimit="10" stroke-width=".293"/>
      <path d="M27.724,75.201c-.608,0-1.101-.493-1.101-1.101s.493-1.101,1.101-1.101,1.101.493,1.101,1.101-.493,1.101-1.101,1.101Z" fill="#0c0d0b"/>
      <path d="M37.716,75.201c.608,0,1.101-.493,1.101-1.101s-.493-1.101-1.101-1.101-1.101.493-1.101,1.101.493,1.101,1.101,1.101Z" fill="#0c0d0b"/>
    </g>
    <g>
      <circle cx="41.965" cy="47.802" r=".667" fill="none" stroke="#0c0d0b" stroke-miterlimit="10" stroke-width=".049"/>
      <circle cx="41.965" cy="47.802" r=".424" fill="#6a3f8f"/>
      <circle cx="44.365" cy="47.507" r=".667" fill="none" stroke="#0c0d0b" stroke-miterlimit="10" stroke-width=".049"/>
      <circle cx="44.365" cy="47.507" r=".424" fill="#0c0d0b"/>
      <circle cx="45.578" cy="48.715" r=".667" fill="none" stroke="#0c0d0b" stroke-miterlimit="10" stroke-width=".049"/>
      <circle cx="45.578" cy="48.715" r=".424" fill="#0c0d0b"/>
      <circle cx="47.034" cy="50.165" r=".667" fill="none" stroke="#0c0d0b" stroke-miterlimit="10" stroke-width=".049"/>
      <circle cx="47.034" cy="50.165" r=".424" fill="#0c0d0b"/>
      <circle cx="41.514" cy="50.226" r=".667" fill="none" stroke="#0c0d0b" stroke-miterlimit="10" stroke-width=".049"/>
      <circle cx="41.514" cy="50.226" r=".424" fill="#0c0d0b"/>
      <circle cx="42.727" cy="51.434" r=".667" fill="none" stroke="#0c0d0b" stroke-miterlimit="10" stroke-width=".049"/>
      <circle cx="42.727" cy="51.434" r=".424" fill="#0c0d0b"/>
      <circle cx="44.183" cy="52.884" r=".667" fill="none" stroke="#0c0d0b" stroke-miterlimit="10" stroke-width=".049"/>
      <circle cx="44.183" cy="52.884" r=".424" fill="#8045b2"/>
      <circle cx="57.034" cy="47.802" r=".667" fill="none" stroke="#0c0d0b" stroke-miterlimit="10" stroke-width=".049"/>
      <circle cx="57.034" cy="47.802" r=".424" fill="#0c0d0b"/>
      <circle cx="54.635" cy="47.507" r=".667" fill="none" stroke="#0c0d0b" stroke-miterlimit="10" stroke-width=".049"/>
      <circle cx="54.635" cy="47.507" r=".424" fill="#0c0d0b"/>
      <circle cx="53.422" cy="48.715" r=".667" fill="none" stroke="#0c0d0b" stroke-miterlimit="10" stroke-width=".049"/>
      <circle cx="53.422" cy="48.715" r=".424" fill="#ab6be0"/>
      <circle cx="51.966" cy="50.165" r=".667" fill="none" stroke="#0c0d0b" stroke-miterlimit="10" stroke-width=".049"/>
      <circle cx="51.966" cy="50.165" r=".424" fill="#0c0d0b"/>
      <path d="M58.153,50.226c0,.367-.299.665-.667.665s-.667-.298-.667-.665.299-.665.667-.665.667.298.667.665Z" fill="none" stroke="#0c0d0b" stroke-miterlimit="10" stroke-width=".049"/>
      <circle cx="57.486" cy="50.226" r=".424" fill="#0c0d0b"/>
      <circle cx="56.273" cy="51.434" r=".667" fill="none" stroke="#0c0d0b" stroke-miterlimit="10" stroke-width=".049"/>
      <circle cx="56.273" cy="51.434" r=".424" fill="#0c0d0b"/>
      <circle cx="54.817" cy="52.884" r=".667" fill="none" stroke="#0c0d0b" stroke-miterlimit="10" stroke-width=".049"/>
      <circle cx="54.817" cy="52.884" r=".424" fill="#0c0d0b"/>
      <polygon points="56.804 50.263 56.804 50.203 54.715 50.203 56.583 48.342 56.54 48.299 54.667 50.165 54.667 48.175 54.606 48.175 54.606 50.226 53.453 51.373 53.453 49.383 53.393 49.383 53.393 51.434 51.998 52.823 51.998 50.833 51.937 50.833 51.937 52.884 50.231 54.583 48.752 54.583 47.046 52.884 47.046 50.833 46.985 50.833 46.985 52.823 45.59 51.434 45.59 49.383 45.529 49.383 45.529 51.373 44.377 50.226 44.377 48.175 44.316 48.175 44.316 50.165 42.443 48.299 42.4 48.342 44.268 50.203 42.179 50.203 42.179 50.263 44.329 50.263 45.481 51.411 43.392 51.411 43.392 51.471 45.542 51.471 46.937 52.861 44.847 52.861 44.847 52.921 46.998 52.921 48.736 54.652 48.736 54.703 50.252 54.703 50.252 54.647 51.985 52.921 54.136 52.921 54.136 52.861 52.046 52.861 53.441 51.471 55.591 51.471 55.591 51.411 53.502 51.411 54.654 50.263 56.804 50.263" fill="#0c0d0b"/>
    </g>
    <g>
      <circle cx="41.965" cy="36.13" r=".667" fill="none" stroke="#0c0d0b" stroke-miterlimit="10" stroke-width=".049"/>
      <circle cx="41.965" cy="36.13" r=".424" fill="#6a3f8f"/>
      <circle cx="44.365" cy="35.836" r=".667" fill="none" stroke="#0c0d0b" stroke-miterlimit="10" stroke-width=".049"/>
      <circle cx="44.365" cy="35.836" r=".424" fill="#0c0d0b"/>
      <circle cx="45.578" cy="37.044" r=".667" fill="none" stroke="#0c0d0b" stroke-miterlimit="10" stroke-width=".049"/>
      <circle cx="45.578" cy="37.044" r=".424" fill="#0c0d0b"/>
      <circle cx="47.034" cy="38.494" r=".667" fill="none" stroke="#0c0d0b" stroke-miterlimit="10" stroke-width=".049"/>
      <circle cx="47.034" cy="38.494" r=".424" fill="#0c0d0b"/>
      <circle cx="41.514" cy="38.554" r=".667" fill="none" stroke="#0c0d0b" stroke-miterlimit="10" stroke-width=".049"/>
      <circle cx="41.514" cy="38.554" r=".424" fill="#0c0d0b"/>
      <circle cx="42.727" cy="39.762" r=".667" fill="none" stroke="#0c0d0b" stroke-miterlimit="10" stroke-width=".049"/>
      <circle cx="42.727" cy="39.762" r=".424" fill="#0c0d0b"/>
      <circle cx="44.183" cy="41.212" r=".667" fill="none" stroke="#0c0d0b" stroke-miterlimit="10" stroke-width=".049"/>
      <circle cx="44.183" cy="41.212" r=".424" fill="#8045b2"/>
      <circle cx="57.034" cy="36.13" r=".667" fill="none" stroke="#0c0d0b" stroke-miterlimit="10" stroke-width=".049"/>
      <circle cx="57.034" cy="36.13" r=".424" fill="#0c0d0b"/>
      <circle cx="54.635" cy="35.836" r=".667" fill="none" stroke="#0c0d0b" stroke-miterlimit="10" stroke-width=".049"/>
      <circle cx="54.635" cy="35.836" r=".424" fill="#0c0d0b"/>
      <circle cx="53.422" cy="37.044" r=".667" fill="none" stroke="#0c0d0b" stroke-miterlimit="10" stroke-width=".049"/>
      <circle cx="53.422" cy="37.044" r=".424" fill="#ab6be0"/>
      <circle cx="51.966" cy="38.494" r=".667" fill="none" stroke="#0c0d0b" stroke-miterlimit="10" stroke-width=".049"/>
      <circle cx="51.966" cy="38.494" r=".424" fill="#0c0d0b"/>
      <circle cx="57.486" cy="38.554" r=".667" fill="none" stroke="#0c0d0b" stroke-miterlimit="10" stroke-width=".049"/>
      <circle cx="57.486" cy="38.554" r=".424" fill="#0c0d0b"/>
      <circle cx="56.273" cy="39.762" r=".667" fill="none" stroke="#0c0d0b" stroke-miterlimit="10" stroke-width=".049"/>
      <circle cx="56.273" cy="39.762" r=".424" fill="#0c0d0b"/>
      <circle cx="54.817" cy="41.212" r=".667" fill="none" stroke="#0c0d0b" stroke-miterlimit="10" stroke-width=".049"/>
      <circle cx="54.817" cy="41.212" r=".424" fill="#0c0d0b"/>
      <polygon points="56.804 38.592 56.804 38.532 54.715 38.532 56.583 36.671 56.54 36.628 54.667 38.494 54.667 36.504 54.606 36.504 54.606 38.554 53.453 39.702 53.453 37.712 53.393 37.712 53.393 39.763 51.998 41.152 51.998 39.162 51.937 39.162 51.937 41.212 50.231 42.911 48.752 42.911 47.046 41.212 47.046 39.162 46.985 39.162 46.985 41.152 45.59 39.763 45.59 37.712 45.529 37.712 45.529 39.702 44.377 38.554 44.377 36.504 44.316 36.504 44.316 38.494 42.443 36.628 42.4 36.671 44.268 38.532 42.179 38.532 42.179 38.592 44.329 38.592 45.481 39.74 43.392 39.74 43.392 39.8 45.542 39.8 46.937 41.19 44.847 41.19 44.847 41.25 46.998 41.25 48.736 42.981 48.736 43.032 50.252 43.032 50.252 42.976 51.985 41.25 54.136 41.25 54.136 41.19 52.046 41.19 53.441 39.8 55.591 39.8 55.591 39.74 53.502 39.74 54.654 38.592 56.804 38.592" fill="#0c0d0b"/>
    </g>
  </g>
  <g id="Flores">
    <g>
      <line x1="49.505" y1="34.845" x2="49.505" y2="5.627" fill="none" stroke="#0c0d0b" stroke-miterlimit="10" stroke-width=".393"/>
      <g>
        <path d="M55.076,6.989c-.573-.268-1.145-.364-1.718.106-.535.415-1.099,1.27-1.718,1.546-.145.056-.295.103-.446.143h-4c-.152-.04-.301-.087-.446-.143-.619-.276-1.183-1.13-1.718-1.546-.573-.47-1.145-.374-1.718-.106-.783.433-1.247,1.031-1.718,1.991.47.96.935,1.56,1.718,1.992.573.268,1.145.364,1.718-.106.535-.415,1.099-1.27,1.718-1.545.145-.056.295-.103.446-.143h4c.152.04.301.087.446.143.619.276,1.183,1.13,1.718,1.545.573.47,1.145.374,1.718.106.783-.432,1.248-1.032,1.718-1.992-.471-.96-.935-1.559-1.718-1.991Z" fill="#0c0d0b"/>
        <circle cx="43.953" cy="8.981" r=".833" fill="#6a3f8f"/>
        <circle cx="54.224" cy="8.981" r=".833" fill="#6a3f8f"/>
      </g>
      <g>
        <path d="M50.372,13.609c-.573-.268-1.145-.364-1.718.106-.535.415-1.099,1.27-1.718,1.546-.145.056-.295.103-.446.143h-4c-.152-.04-.301-.087-.446-.143-.619-.276-1.183-1.13-1.718-1.546-.573-.47-1.145-.374-1.718-.106-.783.433-1.247,1.031-1.718,1.991.47.96.935,1.56,1.718,1.992.573.268,1.145.364,1.718-.106.535-.415,1.099-1.27,1.718-1.545.145-.056.295-.103.446-.143h4c.152.04.301.087.446.143.619.276,1.183,1.13,1.718,1.545.573.47,1.145.374,1.718.106.783-.432,1.248-1.032,1.718-1.992-.471-.96-.935-1.559-1.718-1.991Z" fill="#0c0d0b"/>
        <circle cx="39.25" cy="15.601" r=".833" fill="#6a3f8f"/>
        <circle cx="49.521" cy="15.601" r=".833" fill="#6a3f8f"/>
      </g>
      <g>
        <path d="M55.424,18.835c-.573-.268-1.145-.364-1.718.106-.535.415-1.099,1.27-1.718,1.546-.145.056-.295.103-.446.143h-4c-.152-.04-.301-.087-.446-.143-.619-.276-1.183-1.13-1.718-1.546-.573-.47-1.145-.374-1.718-.106-.783.433-1.247,1.031-1.718,1.991.47.96.935,1.56,1.718,1.992.573.268,1.145.364,1.718-.106.535-.415,1.099-1.27,1.718-1.545.145-.056.295-.103.446-.143h4c.152.04.301.087.446.143.619.276,1.183,1.13,1.718,1.545.573.47,1.145.374,1.718.106.783-.432,1.248-1.032,1.718-1.992-.471-.96-.935-1.559-1.718-1.991Z" fill="#0c0d0b"/>
        <circle cx="44.301" cy="20.826" r=".833" fill="#6a3f8f"/>
        <circle cx="54.573" cy="20.826" r=".833" fill="#6a3f8f"/>
      </g>
      <g>
        <path d="M60.476,23.19c-.573-.268-1.145-.364-1.718.106-.535.415-1.099,1.27-1.718,1.546-.145.056-.295.103-.446.143h-4c-.152-.04-.301-.087-.446-.143-.619-.276-1.183-1.13-1.718-1.546-.573-.47-1.145-.374-1.718-.106-.783.433-1.247,1.031-1.718,1.991.47.96.935,1.56,1.718,1.992.573.268,1.145.364,1.718-.106.535-.415,1.099-1.27,1.718-1.545.145-.056.295-.103.446-.143h4c.152.04.301.087.446.143.619.276,1.183,1.13,1.718,1.545.573.47,1.145.374,1.718.106.783-.432,1.248-1.032,1.718-1.992-.471-.96-.935-1.559-1.718-1.991Z" fill="#0c0d0b"/>
        <circle cx="49.353" cy="25.181" r=".833" fill="#6a3f8f"/>
        <circle cx="59.625" cy="25.181" r=".833" fill="#6a3f8f"/>
      </g>
      <g>
        <path d="M55.424,28.59c-.573-.268-1.145-.364-1.718.106-.535.415-1.099,1.27-1.718,1.546-.145.056-.295.103-.446.143h-4c-.152-.04-.301-.087-.446-.143-.619-.276-1.183-1.13-1.718-1.546-.573-.47-1.145-.374-1.718-.106-.783.433-1.247,1.031-1.718,1.991.47.96.935,1.56,1.718,1.992.573.268,1.145.364,1.718-.106.535-.415,1.099-1.27,1.718-1.545.145-.056.295-.103.446-.143h4c.152.04.301.087.446.143.619.276,1.183,1.13,1.718,1.545.573.47,1.145.374,1.718.106.783-.432,1.248-1.032,1.718-1.992-.471-.96-.935-1.559-1.718-1.991Z" fill="#0c0d0b"/>
        <circle cx="44.301" cy="30.582" r=".833" fill="#6a3f8f"/>
        <circle cx="54.573" cy="30.582" r=".833" fill="#6a3f8f"/>
      </g>
      <path d="M49.505.005c-1.725,0-3.123,1.398-3.123,3.123s1.398,3.123,3.123,3.123,3.123-1.398,3.123-3.123S51.23.005,49.505.005ZM49.505,5.21c-1.15,0-2.082-.932-2.082-2.082s.932-2.082,2.082-2.082,2.082.932,2.082,2.082-.932,2.082-2.082,2.082Z" fill="#0c0d0b"/>
      <circle cx="49.505" cy="3.128" r=".972" fill="#8045b2"/>
    </g>
  </g>
</svg>