<?xml version="1.0" encoding="UTF-8"?>
<svg xmlns="http://www.w3.org/2000/svg" width="275.651" height="450" viewBox="0 0 275.651 450">
  <g id="Tallo">
    <line x1="138.926" y1="450.55" x2="138.926" y2="96.163" fill="none" stroke="#0c0d0b" stroke-miterlimit="10" stroke-width="2.009"/>
  </g>
  <g id="Hojas">
    <g>
      <ellipse cx="77.299" cy="136.702" rx="5.447" ry="5.428" fill="none" stroke="#0c0d0b" stroke-miterlimit="10" stroke-width=".403"/>
      <ellipse cx="77.299" cy="136.702" rx="3.466" ry="3.454" fill="#6a3f8f"/>
      <ellipse cx="96.886" cy="134.297" rx="5.447" ry="5.428" fill="none" stroke="#0c0d0b" stroke-miterlimit="10" stroke-width=".403"/>
      <ellipse cx="96.886" cy="134.297" rx="3.466" ry="3.454" fill="#0c0d0b"/>
      <ellipse cx="106.789" cy="144.165" rx="5.447" ry="5.428" fill="none" stroke="#0c0d0b" stroke-miterlimit="10" stroke-width=".403"/>
      <ellipse cx="106.789" cy="144.165" rx="3.466" ry="3.454" fill="#0c0d0b"/>
      <ellipse cx="118.672" cy="156.007" rx="5.447" ry="5.428" fill="none" stroke="#0c0d0b" stroke-miterlimit="10" stroke-width=".403"/>
      <ellipse cx="118.672" cy="156.007" rx="3.466" ry="3.454" fill="#0c0d0b"/>
      <ellipse cx="73.615" cy="156.5" rx="5.447" ry="5.428" fill="none" stroke="#0c0d0b" stroke-miterlimit="10" stroke-width=".403"/>
      <ellipse cx="73.615" cy="156.5" rx="3.466" ry="3.454" fill="#0c0d0b"/>
      <ellipse cx="83.517" cy="166.369" rx="5.447" ry="5.428" fill="none" stroke="#0c0d0b" stroke-miterlimit="10" stroke-width=".403"/>
      <ellipse cx="83.517" cy="166.369" rx="3.466" ry="3.454" fill="#0c0d0b"/>
      <ellipse cx="95.401" cy="178.211" rx="5.447" ry="5.428" fill="none" stroke="#0c0d0b" stroke-miterlimit="10" stroke-width=".403"/>
      <ellipse cx="95.401" cy="178.211" rx="3.466" ry="3.454" fill="#8045b2"/>
      <ellipse cx="200.308" cy="136.702" rx="5.447" ry="5.428" fill="none" stroke="#0c0d0b" stroke-miterlimit="10" stroke-width=".403"/>
      <ellipse cx="200.308" cy="136.702" rx="3.466" ry="3.454" fill="#0c0d0b"/>
      <ellipse cx="180.721" cy="134.297" rx="5.447" ry="5.428" fill="none" stroke="#0c0d0b" stroke-miterlimit="10" stroke-width=".403"/>
      <ellipse cx="180.721" cy="134.297" rx="3.466" ry="3.454" fill="#0c0d0b"/>
      <ellipse cx="170.819" cy="144.165" rx="5.447" ry="5.428" fill="none" stroke="#0c0d0b" stroke-miterlimit="10" stroke-width=".403"/>
      <ellipse cx="170.819" cy="144.165" rx="3.466" ry="3.454" fill="#ab6be0"/>
      <ellipse cx="158.935" cy="156.007" rx="5.447" ry="5.428" fill="none" stroke="#0c0d0b" stroke-miterlimit="10" stroke-width=".403"/>
      <ellipse cx="158.935" cy="156.007" rx="3.466" ry="3.454" fill="#0c0d0b"/>
      <path d="M209.439,156.5c0,2.998-2.438,5.428-5.447,5.428-3.008,0-5.447-2.43-5.447-5.428s2.438-5.428,5.447-5.428,5.447,2.43,5.447,5.428Z" fill="none" stroke="#0c0d0b" stroke-miterlimit="10" stroke-width=".403"/>
      <ellipse cx="203.993" cy="156.5" rx="3.466" ry="3.454" fill="#0c0d0b"/>
      <ellipse cx="194.09" cy="166.369" rx="5.447" ry="5.428" fill="none" stroke="#0c0d0b" stroke-miterlimit="10" stroke-width=".403"/>
      <path d="M197.556,166.369c0,1.908-1.552,3.454-3.466,3.454-1.914,0-3.466-1.546-3.466-3.454s1.552-3.454,3.466-3.454,3.466,1.546,3.466,3.454Z" fill="#0c0d0b"/>
      <ellipse cx="182.207" cy="178.211" rx="5.447" ry="5.428" fill="none" stroke="#0c0d0b" stroke-miterlimit="10" stroke-width=".403"/>
      <ellipse cx="182.207" cy="178.211" rx="3.466" ry="3.454" fill="#0c0d0b"/>
      <polygon points="198.431 156.809 198.431 156.315 181.373 156.315 196.626 141.115 196.276 140.766 180.981 156.008 180.981 139.751 180.485 139.751 180.485 156.502 171.078 165.877 171.078 149.619 170.583 149.619 170.583 166.37 159.195 177.719 159.195 161.461 158.699 161.461 158.699 178.212 144.775 192.088 132.695 192.088 118.771 178.212 118.771 161.461 118.276 161.461 118.276 177.719 106.887 166.37 106.887 149.619 106.392 149.619 106.392 165.877 96.985 156.502 96.985 139.751 96.489 139.751 96.489 156.008 81.194 140.766 80.844 141.115 96.097 156.315 79.039 156.315 79.039 156.809 96.592 156.809 106 166.184 88.942 166.184 88.942 166.677 106.495 166.677 117.883 178.026 100.825 178.026 100.825 178.519 118.379 178.519 132.565 192.656 132.565 193.075 144.943 193.075 144.943 192.618 159.092 178.519 176.645 178.519 176.645 178.026 159.587 178.026 170.975 166.677 188.529 166.677 188.529 166.184 171.47 166.184 180.878 156.809 198.431 156.809" fill="#0c0d0b"/>
    </g>
    <g>
      <ellipse cx="77.299" cy="206.871" rx="5.447" ry="5.428" fill="none" stroke="#0c0d0b" stroke-miterlimit="10" stroke-width=".403"/>
      <ellipse cx="77.299" cy="206.871" rx="3.466" ry="3.454" fill="#6a3f8f"/>
      <ellipse cx="96.886" cy="204.465" rx="5.447" ry="5.428" fill="none" stroke="#0c0d0b" stroke-miterlimit="10" stroke-width=".403"/>
      <ellipse cx="96.886" cy="204.465" rx="3.466" ry="3.454" fill="#0c0d0b"/>
      <ellipse cx="106.789" cy="214.333" rx="5.447" ry="5.428" fill="none" stroke="#0c0d0b" stroke-miterlimit="10" stroke-width=".403"/>
      <ellipse cx="106.789" cy="214.333" rx="3.466" ry="3.454" fill="#0c0d0b"/>
      <ellipse cx="118.672" cy="226.175" rx="5.447" ry="5.428" fill="none" stroke="#0c0d0b" stroke-miterlimit="10" stroke-width=".403"/>
      <ellipse cx="118.672" cy="226.175" rx="3.466" ry="3.454" fill="#0c0d0b"/>
      <ellipse cx="73.615" cy="226.669" rx="5.447" ry="5.428" fill="none" stroke="#0c0d0b" stroke-miterlimit="10" stroke-width=".403"/>
      <ellipse cx="73.615" cy="226.669" rx="3.466" ry="3.454" fill="#0c0d0b"/>
      <ellipse cx="83.517" cy="236.537" rx="5.447" ry="5.428" fill="none" stroke="#0c0d0b" stroke-miterlimit="10" stroke-width=".403"/>
      <ellipse cx="83.517" cy="236.537" rx="3.466" ry="3.454" fill="#0c0d0b"/>
      <ellipse cx="95.401" cy="248.379" rx="5.447" ry="5.428" fill="none" stroke="#0c0d0b" stroke-miterlimit="10" stroke-width=".403"/>
      <ellipse cx="95.401" cy="248.379" rx="3.466" ry="3.454" fill="#8045b2"/>
      <ellipse cx="200.308" cy="206.871" rx="5.447" ry="5.428" fill="none" stroke="#0c0d0b" stroke-miterlimit="10" stroke-width=".403"/>
      <ellipse cx="200.308" cy="206.871" rx="3.466" ry="3.454" fill="#0c0d0b"/>
      <ellipse cx="180.721" cy="204.465" rx="5.447" ry="5.428" fill="none" stroke="#0c0d0b" stroke-miterlimit="10" stroke-width=".403"/>
      <ellipse cx="180.721" cy="204.465" rx="3.466" ry="3.454" fill="#0c0d0b"/>
      <ellipse cx="170.819" cy="214.333" rx="5.447" ry="5.428" fill="none" stroke="#0c0d0b" stroke-miterlimit="10" stroke-width=".403"/>
      <ellipse cx="170.819" cy="214.333" rx="3.466" ry="3.454" fill="#ab6be0"/>
      <ellipse cx="158.935" cy="226.175" rx="5.447" ry="5.428" fill="none" stroke="#0c0d0b" stroke-miterlimit="10" stroke-width=".403"/>
      <ellipse cx="158.935" cy="226.175" rx="3.466" ry="3.454" fill="#0c0d0b"/>
      <path d="M209.439,226.669c0,2.998-2.438,5.428-5.447,5.428-3.008,0-5.447-2.43-5.447-5.428s2.438-5.428,5.447-5.428,5.447,2.43,5.447,5.428Z" fill="none" stroke="#0c0d0b" stroke-miterlimit="10" stroke-width=".403"/>
      <ellipse cx="203.993" cy="226.669" rx="3.466" ry="3.454" fill="#0c0d0b"/>
      <ellipse cx="194.09" cy="236.537" rx="5.447" ry="5.428" fill="none" stroke="#0c0d0b" stroke-miterlimit="10" stroke-width=".403"/>
      <path d="M197.556,236.537c0,1.908-1.552,3.454-3.466,3.454-1.914,0-3.466-1.546-3.466-3.454s1.552-3.454,3.466-3.454,3.466,1.546,3.466,3.454Z" fill="#0c0d0b"/>
      <ellipse cx="182.207" cy="248.379" rx="5.447" ry="5.428" fill="none" stroke="#0c0d0b" stroke-miterlimit="10" stroke-width=".403"/>
      <ellipse cx="182.207" cy="248.379" rx="3.466" ry="3.454" fill="#0c0d0b"/>
      <polygon points="198.431 226.977 198.431 226.484 181.373 226.484 196.626 211.284 196.276 210.935 180.981 226.177 180.981 209.919 180.485 209.919 180.485 226.67 171.078 236.045 171.078 219.788 170.583 219.788 170.583 236.539 159.195 247.887 159.195 231.63 158.699 231.63 158.699 248.381 144.775 262.257 132.695 262.257 118.771 248.381 118.771 231.63 118.276 231.63 118.276 247.887 106.887 236.539 106.887 219.788 106.392 219.788 106.392 236.045 96.985 226.67 96.985 209.919 96.489 209.919 96.489 226.177 81.194 210.935 80.844 211.284 96.097 226.484 79.039 226.484 79.039 226.977 96.592 226.977 106 236.352 88.942 236.352 88.942 236.846 106.495 236.846 117.883 248.194 100.825 248.194 100.825 248.688 118.379 248.688 132.565 262.825 132.565 263.243 144.943 263.243 144.943 262.787 159.092 248.688 176.645 248.688 176.645 248.194 159.587 248.194 170.975 236.846 188.529 236.846 188.529 236.352 171.47 236.352 180.878 226.977 198.431 226.977" fill="#0c0d0b"/>
    </g>
    <g>
      <ellipse cx="77.299" cy="277.039" rx="5.447" ry="5.428" fill="none" stroke="#0c0d0b" stroke-miterlimit="10" stroke-width=".403"/>
      <ellipse cx="77.299" cy="277.039" rx="3.466" ry="3.454" fill="#6a3f8f"/>
      <ellipse cx="96.886" cy="274.634" rx="5.447" ry="5.428" fill="none" stroke="#0c0d0b" stroke-miterlimit="10" stroke-width=".403"/>
      <ellipse cx="96.886" cy="274.634" rx="3.466" ry="3.454" fill="#0c0d0b"/>
      <ellipse cx="106.789" cy="284.502" rx="5.447" ry="5.428" fill="none" stroke="#0c0d0b" stroke-miterlimit="10" stroke-width=".403"/>
      <ellipse cx="106.789" cy="284.502" rx="3.466" ry="3.454" fill="#0c0d0b"/>
      <ellipse cx="118.672" cy="296.344" rx="5.447" ry="5.428" fill="none" stroke="#0c0d0b" stroke-miterlimit="10" stroke-width=".403"/>
      <ellipse cx="118.672" cy="296.344" rx="3.466" ry="3.454" fill="#0c0d0b"/>
      <ellipse cx="73.615" cy="296.838" rx="5.447" ry="5.428" fill="none" stroke="#0c0d0b" stroke-miterlimit="10" stroke-width=".403"/>
      <ellipse cx="73.615" cy="296.838" rx="3.466" ry="3.454" fill="#0c0d0b"/>
      <ellipse cx="83.517" cy="306.706" rx="5.447" ry="5.428" fill="none" stroke="#0c0d0b" stroke-miterlimit="10" stroke-width=".403"/>
      <ellipse cx="83.517" cy="306.706" rx="3.466" ry="3.454" fill="#0c0d0b"/>
      <ellipse cx="95.401" cy="318.548" rx="5.447" ry="5.428" fill="none" stroke="#0c0d0b" stroke-miterlimit="10" stroke-width=".403"/>
      <ellipse cx="95.401" cy="318.548" rx="3.466" ry="3.454" fill="#8045b2"/>
      <ellipse cx="200.308" cy="277.039" rx="5.447" ry="5.428" fill="none" stroke="#0c0d0b" stroke-miterlimit="10" stroke-width=".403"/>
      <ellipse cx="200.308" cy="277.039" rx="3.466" ry="3.454" fill="#0c0d0b"/>
      <ellipse cx="180.721" cy="274.634" rx="5.447" ry="5.428" fill="none" stroke="#0c0d0b" stroke-miterlimit="10" stroke-width=".403"/>
      <ellipse cx="180.721" cy="274.634" rx="3.466" ry="3.454" fill="#0c0d0b"/>
      <ellipse cx="170.819" cy="284.502" rx="5.447" ry="5.428" fill="none" stroke="#0c0d0b" stroke-miterlimit="10" stroke-width=".403"/>
      <ellipse cx="170.819" cy="284.502" rx="3.466" ry="3.454" fill="#ab6be0"/>
      <ellipse cx="158.935" cy="296.344" rx="5.447" ry="5.428" fill="none" stroke="#0c0d0b" stroke-miterlimit="10" stroke-width=".403"/>
      <ellipse cx="158.935" cy="296.344" rx="3.466" ry="3.454" fill="#0c0d0b"/>
      <path d="M209.439,296.838c0,2.998-2.438,5.428-5.447,5.428-3.008,0-5.447-2.43-5.447-5.428s2.438-5.428,5.447-5.428,5.447,2.43,5.447,5.428Z" fill="none" stroke="#0c0d0b" stroke-miterlimit="10" stroke-width=".403"/>
      <ellipse cx="203.993" cy="296.838" rx="3.466" ry="3.454" fill="#0c0d0b"/>
      <ellipse cx="194.09" cy="306.706" rx="5.447" ry="5.428" fill="none" stroke="#0c0d0b" stroke-miterlimit="10" stroke-width=".403"/>
      <path d="M197.556,306.706c0,1.908-1.552,3.454-3.466,3.454-1.914,0-3.466-1.546-3.466-3.454s1.552-3.454,3.466-3.454,3.466,1.546,3.466,3.454Z" fill="#0c0d0b"/>
      <ellipse cx="182.207" cy="318.548" rx="5.447" ry="5.428" fill="none" stroke="#0c0d0b" stroke-miterlimit="10" stroke-width=".403"/>
      <ellipse cx="182.207" cy="318.548" rx="3.466" ry="3.454" fill="#0c0d0b"/>
      <polygon points="198.431 297.146 198.431 296.653 181.373 296.653 196.626 281.452 196.276 281.104 180.981 296.346 180.981 280.088 180.485 280.088 180.485 296.839 171.078 306.214 171.078 289.956 170.583 289.956 170.583 306.707 159.195 318.056 159.195 301.798 158.699 301.798 158.699 318.549 144.775 332.425 132.695 332.425 118.771 318.549 118.771 301.798 118.276 301.798 118.276 318.056 106.887 306.707 106.887 289.956 106.392 289.956 106.392 306.214 96.985 296.839 96.985 280.088 96.489 280.088 96.489 296.346 81.194 281.104 80.844 281.452 96.097 296.653 79.039 296.653 79.039 297.146 96.592 297.146 106 306.521 88.942 306.521 88.942 307.014 106.495 307.014 117.883 318.363 100.825 318.363 100.825 318.856 118.379 318.856 132.565 332.993 132.565 333.412 144.943 333.412 144.943 332.955 159.092 318.856 176.645 318.856 176.645 318.363 159.587 318.363 170.975 307.014 188.529 307.014 188.529 306.521 171.47 306.521 180.878 297.146 198.431 297.146" fill="#0c0d0b"/>
    </g>
    <g>
      <ellipse cx="77.299" cy="347.208" rx="5.447" ry="5.428" fill="none" stroke="#0c0d0b" stroke-miterlimit="10" stroke-width=".403"/>
      <ellipse cx="77.299" cy="347.208" rx="3.466" ry="3.454" fill="#6a3f8f"/>
      <ellipse cx="96.886" cy="344.802" rx="5.447" ry="5.428" fill="none" stroke="#0c0d0b" stroke-miterlimit="10" stroke-width=".403"/>
      <ellipse cx="96.886" cy="344.802" rx="3.466" ry="3.454" fill="#0c0d0b"/>
      <ellipse cx="106.789" cy="354.671" rx="5.447" ry="5.428" fill="none" stroke="#0c0d0b" stroke-miterlimit="10" stroke-width=".403"/>
      <ellipse cx="106.789" cy="354.671" rx="3.466" ry="3.454" fill="#0c0d0b"/>
      <ellipse cx="118.672" cy="366.513" rx="5.447" ry="5.428" fill="none" stroke="#0c0d0b" stroke-miterlimit="10" stroke-width=".403"/>
      <ellipse cx="118.672" cy="366.513" rx="3.466" ry="3.454" fill="#0c0d0b"/>
      <ellipse cx="73.615" cy="367.006" rx="5.447" ry="5.428" fill="none" stroke="#0c0d0b" stroke-miterlimit="10" stroke-width=".403"/>
      <ellipse cx="73.615" cy="367.006" rx="3.466" ry="3.454" fill="#0c0d0b"/>
      <ellipse cx="83.517" cy="376.875" rx="5.447" ry="5.428" fill="none" stroke="#0c0d0b" stroke-miterlimit="10" stroke-width=".403"/>
      <ellipse cx="83.517" cy="376.875" rx="3.466" ry="3.454" fill="#0c0d0b"/>
      <ellipse cx="95.401" cy="388.717" rx="5.447" ry="5.428" fill="none" stroke="#0c0d0b" stroke-miterlimit="10" stroke-width=".403"/>
      <ellipse cx="95.401" cy="388.717" rx="3.466" ry="3.454" fill="#8045b2"/>
      <ellipse cx="200.308" cy="347.208" rx="5.447" ry="5.428" fill="none" stroke="#0c0d0b" stroke-miterlimit="10" stroke-width=".403"/>
      <ellipse cx="200.308" cy="347.208" rx="3.466" ry="3.454" fill="#0c0d0b"/>
      <ellipse cx="180.721" cy="344.802" rx="5.447" ry="5.428" fill="none" stroke="#0c0d0b" stroke-miterlimit="10" stroke-width=".403"/>
      <ellipse cx="180.721" cy="344.802" rx="3.466" ry="3.454" fill="#0c0d0b"/>
      <ellipse cx="170.819" cy="354.671" rx="5.447" ry="5.428" fill="none" stroke="#0c0d0b" stroke-miterlimit="10" stroke-width=".403"/>
      <ellipse cx="170.819" cy="354.671" rx="3.466" ry="3.454" fill="#ab6be0"/>
      <ellipse cx="158.935" cy="366.513" rx="5.447" ry="5.428" fill="none" stroke="#0c0d0b" stroke-miterlimit="10" stroke-width=".403"/>
      <ellipse cx="158.935" cy="366.513" rx="3.466" ry="3.454" fill="#0c0d0b"/>
      <path d="M209.439,367.006c0,2.998-2.438,5.428-5.447,5.428-3.008,0-5.447-2.43-5.447-5.428s2.438-5.428,5.447-5.428c3.008,0,5.447,2.43,5.447,5.428Z" fill="none" stroke="#0c0d0b" stroke-miterlimit="10" stroke-width=".403"/>
      <ellipse cx="203.993" cy="367.006" rx="3.466" ry="3.454" fill="#0c0d0b"/>
      <ellipse cx="194.09" cy="376.875" rx="5.447" ry="5.428" fill="none" stroke="#0c0d0b" stroke-miterlimit="10" stroke-width=".403"/>
      <path d="M197.556,376.875c0,1.908-1.552,3.454-3.466,3.454-1.914,0-3.466-1.546-3.466-3.454s1.552-3.454,3.466-3.454,3.466,1.546,3.466,3.454Z" fill="#0c0d0b"/>
      <ellipse cx="182.207" cy="388.717" rx="5.447" ry="5.428" fill="none" stroke="#0c0d0b" stroke-miterlimit="10" stroke-width=".403"/>
      <ellipse cx="182.207" cy="388.717" rx="3.466" ry="3.454" fill="#0c0d0b"/>
      <polygon points="198.431 367.315 198.431 366.821 181.373 366.821 196.626 351.621 196.276 351.272 180.981 366.514 180.981 350.256 180.485 350.256 180.485 367.008 171.078 376.383 171.078 360.125 170.583 360.125 170.583 376.876 159.195 388.225 159.195 371.967 158.699 371.967 158.699 388.718 144.775 402.594 132.695 402.594 118.771 388.718 118.771 371.967 118.276 371.967 118.276 388.225 106.887 376.876 106.887 360.125 106.392 360.125 106.392 376.383 96.985 367.008 96.985 350.256 96.489 350.256 96.489 366.514 81.194 351.272 80.844 351.621 96.097 366.821 79.039 366.821 79.039 367.315 96.592 367.315 106 376.689 88.942 376.689 88.942 377.183 106.495 377.183 117.883 388.531 100.825 388.531 100.825 389.025 118.379 389.025 132.565 403.162 132.565 403.581 144.943 403.581 144.943 403.124 159.092 389.025 176.645 389.025 176.645 388.531 159.587 388.531 170.975 377.183 188.529 377.183 188.529 376.689 171.47 376.689 180.878 367.315 198.431 367.315" fill="#0c0d0b"/>
    </g>
  </g>
  <g id="Flores">
    <g>
      <path d="M194.256,29.865v63.774c0,4.793-4.135,8.693-9.217,8.693h-13.002V6.25h-.899v96.082h-31.298V12.054h-.954v90.278h-38.357c-5.581,0-10.122-4.284-10.122-9.549V29.865h-.925v62.918c0,5.776,4.955,10.474,11.047,10.474h38.357v33.235h.954v-32.584l28.292,28.308c.443.443,1.014.676,1.603.676.297,0,.598-.059.89-.18.871-.361,1.412-1.171,1.412-2.114v-27.341h13.002c5.593,0,10.142-4.315,10.142-9.618V29.865h-.925ZM171.137,130.598c0,.684-.443,1.111-.857,1.283-.414.172-1.029.183-1.513-.301l-28.307-28.323h30.677v27.341Z" fill="#0c0d0b"/>
      <g>
        <path d="M146.549,58.225c.01.155.017.31.017.467,0,3.912-3.17,7.084-7.08,7.084s-7.08-3.172-7.08-7.084c0-.157.007-.312.017-.467-6.505.139-13.018.471-19.43,1.354,11.394,14.282,31.637,17.147,46.363,6.309,2.436-1.827,4.656-3.737,6.623-6.336-6.464-.825-12.941-1.179-19.43-1.327Z" fill="#0c0d0b"/>
        <circle cx="139.486" cy="58.921" r="3.885" transform="translate(80.241 198.269) rotate(-89.867)" fill="#0c0d0b"/>
      </g>
      <g>
        <path d="M143.346,17.597c.006.084.009.169.009.255,0,2.139-1.733,3.872-3.87,3.872s-3.87-1.734-3.87-3.872c0-.086.004-.171.009-.255-3.556.076-7.116.257-10.621.74,6.229,7.807,17.294,9.373,25.344,3.449,1.332-.999,2.545-2.043,3.621-3.463-3.533-.451-7.074-.644-10.621-.725Z" fill="#0c0d0b"/>
        <circle cx="139.486" cy="17.977" r="2.124" transform="translate(121.184 157.421) rotate(-89.867)" fill="#0c0d0b"/>
      </g>
      <g>
        <path d="M143.346,31.076c.006.084.009.169.009.255,0,2.139-1.733,3.872-3.87,3.872s-3.87-1.734-3.87-3.872c0-.086.004-.171.009-.255-3.556.076-7.116.257-10.621.74,6.229,7.807,17.294,9.373,25.344,3.449,1.332-.999,2.545-2.043,3.621-3.463-3.533-.451-7.074-.644-10.621-.725Z" fill="#0c0d0b"/>
        <circle cx="139.486" cy="31.456" r="2.124" transform="translate(107.705 170.869) rotate(-89.867)" fill="#0c0d0b"/>
      </g>
      <g>
        <path d="M143.346,44.555c.006.084.009.169.009.255,0,2.139-1.733,3.872-3.87,3.872s-3.87-1.734-3.87-3.872c0-.086.004-.171.009-.255-3.556.076-7.116.257-10.621.74,6.229,7.807,17.294,9.373,25.344,3.449,1.332-.999,2.545-2.043,3.621-3.463-3.533-.451-7.074-.644-10.621-.725Z" fill="#0c0d0b"/>
        <circle cx="139.486" cy="44.936" r="2.124" transform="translate(94.226 184.316) rotate(-89.867)" fill="#0c0d0b"/>
      </g>
      <g>
        <path d="M174.713,17.247c.005.071.008.142.008.214,0,1.79-1.451,3.242-3.24,3.242s-3.24-1.451-3.24-3.242c0-.072.003-.143.008-.214-2.977.064-5.958.215-8.892.62,5.215,6.536,14.478,7.847,21.218,2.887,1.115-.836,2.131-1.71,3.031-2.9-2.958-.377-5.922-.539-8.892-.607Z" fill="#0c0d0b"/>
        <circle cx="171.48" cy="17.565" r="1.778" transform="translate(153.517 189.004) rotate(-89.867)" fill="#0c0d0b"/>
      </g>
      <g>
        <path d="M174.713,28.531c.005.071.008.142.008.214,0,1.79-1.451,3.242-3.24,3.242s-3.24-1.451-3.24-3.242c0-.072.003-.143.008-.214-2.977.064-5.958.215-8.892.62,5.215,6.536,14.478,7.847,21.218,2.887,1.115-.836,2.131-1.71,3.031-2.9-2.958-.377-5.922-.539-8.892-.607Z" fill="#0c0d0b"/>
        <circle cx="171.48" cy="28.85" r="1.778" transform="translate(142.233 200.262) rotate(-89.867)" fill="#0c0d0b"/>
      </g>
      <g>
        <path d="M174.713,39.816c.005.071.008.142.008.214,0,1.79-1.451,3.242-3.24,3.242s-3.24-1.451-3.24-3.242c0-.072.003-.143.008-.214-2.977.064-5.958.215-8.892.62,5.215,6.536,14.478,7.847,21.218,2.887,1.115-.836,2.131-1.71,3.031-2.9-2.958-.377-5.922-.539-8.892-.607Z" fill="#0c0d0b"/>
        <circle cx="171.48" cy="40.134" r="1.778" transform="translate(130.948 211.521) rotate(-89.867)" fill="#0c0d0b"/>
      </g>
      <g>
        <path d="M197.502,39.67c.004.061.007.122.007.184,0,1.542-1.249,2.792-2.79,2.792s-2.79-1.25-2.79-2.792c0-.062.003-.123.007-.184-2.563.055-5.13.186-7.657.534,4.49,5.628,12.467,6.757,18.271,2.486.96-.72,1.835-1.473,2.61-2.497-2.547-.325-5.1-.465-7.657-.523Z" fill="#0c0d0b"/>
        <circle cx="194.719" cy="39.944" r="1.531" transform="translate(154.323 234.569) rotate(-89.867)" fill="#0c0d0b"/>
      </g>
      <g>
        <path d="M197.502,49.387c.004.061.007.122.007.184,0,1.542-1.249,2.792-2.79,2.792s-2.79-1.25-2.79-2.792c0-.062.003-.123.007-.184-2.563.055-5.13.186-7.657.534,4.49,5.628,12.467,6.757,18.271,2.486.96-.72,1.835-1.473,2.61-2.497-2.547-.325-5.1-.465-7.657-.523Z" fill="#0c0d0b"/>
        <circle cx="194.719" cy="49.661" r="1.531" transform="translate(144.605 244.264) rotate(-89.867)" fill="#0c0d0b"/>
      </g>
      <g>
        <path d="M197.502,59.105c.004.061.007.122.007.184,0,1.542-1.249,2.792-2.79,2.792s-2.79-1.25-2.79-2.792c0-.062.003-.123.007-.184-2.563.055-5.13.186-7.657.534,4.49,5.628,12.467,6.757,18.271,2.486.96-.72,1.835-1.473,2.61-2.497-2.547-.325-5.1-.465-7.657-.523Z" fill="#0c0d0b"/>
        <circle cx="194.719" cy="59.379" r="1.531" transform="translate(134.888 253.959) rotate(-89.867)" fill="#0c0d0b"/>
      </g>
      <g>
        <path d="M97.041,71.03c.01.155.017.31.017.467,0,3.912-3.17,7.084-7.08,7.084s-7.08-3.172-7.08-7.084c0-.157.007-.312.017-.467-6.505.139-13.018.471-19.43,1.354,11.394,14.282,31.637,17.147,46.363,6.309,2.436-1.827,4.656-3.737,6.623-6.336-6.464-.825-12.941-1.179-19.43-1.327Z" fill="#0c0d0b"/>
        <circle cx="89.978" cy="71.726" r="3.885" transform="translate(18.043 161.537) rotate(-89.867)" fill="#0c0d0b"/>
      </g>
      <g>
        <path d="M93.839,30.402c.006.084.009.169.009.255,0,2.139-1.733,3.872-3.87,3.872s-3.87-1.734-3.87-3.872c0-.086.004-.171.009-.255-3.556.076-7.116.257-10.621.74,6.229,7.807,17.294,9.373,25.344,3.449,1.332-.999,2.545-2.043,3.621-3.463-3.533-.451-7.074-.644-10.621-.725Z" fill="#0c0d0b"/>
        <circle cx="89.978" cy="30.783" r="2.124" transform="translate(58.987 120.689) rotate(-89.867)" fill="#0c0d0b"/>
      </g>
      <g>
        <path d="M93.839,43.881c.006.084.009.169.009.255,0,2.139-1.733,3.872-3.87,3.872s-3.87-1.734-3.87-3.872c0-.086.004-.171.009-.255-3.556.076-7.116.257-10.621.74,6.229,7.807,17.294,9.373,25.344,3.449,1.332-.999,2.545-2.043,3.621-3.463-3.533-.451-7.074-.644-10.621-.725Z" fill="#0c0d0b"/>
        <circle cx="89.978" cy="44.262" r="2.124" transform="translate(45.507 134.137) rotate(-89.867)" fill="#0c0d0b"/>
      </g>
      <g>
        <path d="M93.839,57.361c.006.084.009.169.009.255,0,2.139-1.733,3.872-3.87,3.872s-3.87-1.734-3.87-3.872c0-.086.004-.171.009-.255-3.556.076-7.116.257-10.621.74,6.229,7.807,17.294,9.373,25.344,3.449,1.332-.999,2.545-2.043,3.621-3.463-3.533-.451-7.074-.644-10.621-.725Z" fill="#0c0d0b"/>
        <circle cx="89.978" cy="57.741" r="2.124" transform="translate(32.028 147.584) rotate(-89.867)" fill="#0c0d0b"/>
      </g>
      <circle cx="89.978" cy="71.792" r="3.032" fill="#6a3f8f"/>
      <circle cx="171.48" cy="7.766" r="4.378" fill="#6a3f8f"/>
      <g>
        <path d="M143.346,5.129c.006.084.009.169.009.255,0,2.139-1.733,3.872-3.87,3.872s-3.87-1.734-3.87-3.872c0-.086.004-.171.009-.255-3.556.076-7.116.257-10.621.74,6.229,7.807,17.294,9.373,25.344,3.449,1.332-.999,2.545-2.043,3.621-3.463-3.533-.451-7.074-.644-10.621-.725Z" fill="#0c0d0b"/>
        <circle cx="139.486" cy="5.509" r="2.124" transform="translate(133.653 144.982) rotate(-89.867)" fill="#0c0d0b"/>
      </g>
      <circle cx="139.604" cy="4.931" r="4.378" fill="#6a3f8f"/>
      <circle cx="194.719" cy="28.659" r="4.378" fill="#6a3f8f"/>
      <ellipse cx="139.486" cy="102.794" rx="7.409" ry="7.414" fill="#6a3f8f"/>
    </g>
  </g>
</svg>