<?xml version="1.0" encoding="UTF-8"?>
<svg xmlns="http://www.w3.org/2000/svg" width="100" height="100" viewBox="0 0 100 100">
  <g id="Tallo">
    <line x1="50.436" y1="101.006" x2="50.436" y2="23.12" fill="none" stroke="#0c0d0b" stroke-miterlimit="10" stroke-width=".441"/>
  </g>
  <g id="Hojas">
    <g>
      <line x1="43.909" y1="49.913" x2="56.807" y2="49.913" fill="#0c0d0b" stroke="#000" stroke-miterlimit="10" stroke-width=".374"/>
      <path d="M43.979,51.319c-.776,0-1.406-.63-1.406-1.406s.629-1.406,1.406-1.406,1.406.63,1.406,1.406-.629,1.406-1.406,1.406Z" fill="#0c0d0b"/>
      <path d="M56.736,51.319c.776,0,1.406-.63,1.406-1.406s-.629-1.406-1.406-1.406-1.406.63-1.406,1.406.629,1.406,1.406,1.406Z" fill="#0c0d0b"/>
    </g>
    <g>
      <line x1="44.065" y1="55.365" x2="56.962" y2="55.365" fill="#0c0d0b" stroke="#000" stroke-miterlimit="10" stroke-width=".374"/>
      <path d="M44.135,56.771c-.776,0-1.406-.63-1.406-1.406s.629-1.406,1.406-1.406,1.406.63,1.406,1.406-.629,1.406-1.406,1.406Z" fill="#0c0d0b"/>
      <path d="M56.892,56.771c.776,0,1.406-.63,1.406-1.406s-.629-1.406-1.406-1.406-1.406.63-1.406,1.406.629,1.406,1.406,1.406Z" fill="#0c0d0b"/>
    </g>
    <g>
      <line x1="43.753" y1="77.64" x2="56.651" y2="77.64" fill="#0c0d0b" stroke="#000" stroke-miterlimit="10" stroke-width=".374"/>
      <path d="M43.824,79.047c-.776,0-1.406-.63-1.406-1.406s.629-1.406,1.406-1.406,1.406.63,1.406,1.406-.629,1.406-1.406,1.406Z" fill="#0c0d0b"/>
      <path d="M56.581,79.047c.776,0,1.406-.63,1.406-1.406s-.629-1.406-1.406-1.406-1.406.63-1.406,1.406.629,1.406,1.406,1.406Z" fill="#0c0d0b"/>
    </g>
    <g>
      <line x1="43.909" y1="83.092" x2="56.807" y2="83.092" fill="#0c0d0b" stroke="#000" stroke-miterlimit="10" stroke-width=".374"/>
      <path d="M43.979,84.499c-.776,0-1.406-.63-1.406-1.406s.629-1.406,1.406-1.406,1.406.63,1.406,1.406-.629,1.406-1.406,1.406Z" fill="#0c0d0b"/>
      <path d="M56.736,84.499c.776,0,1.406-.63,1.406-1.406s-.629-1.406-1.406-1.406-1.406.63-1.406,1.406.629,1.406,1.406,1.406Z" fill="#0c0d0b"/>
    </g>
    <g>
      <line x1="43.909" y1="88.544" x2="56.807" y2="88.544" fill="#0c0d0b" stroke="#000" stroke-miterlimit="10" stroke-width=".374"/>
      <path d="M43.979,89.951c-.776,0-1.406-.63-1.406-1.406s.629-1.406,1.406-1.406,1.406.63,1.406,1.406-.629,1.406-1.406,1.406Z" fill="#0c0d0b"/>
      <path d="M56.736,89.951c.776,0,1.406-.63,1.406-1.406s-.629-1.406-1.406-1.406-1.406.63-1.406,1.406.629,1.406,1.406,1.406Z" fill="#0c0d0b"/>
    </g>
    <g>
      <ellipse cx="36.892" cy="31.406" rx="1.197" ry="1.193" fill="none" stroke="#0c0d0b" stroke-miterlimit="10" stroke-width=".089"/>
      <circle cx="36.892" cy="31.406" r=".762" fill="#6a3f8f"/>
      <ellipse cx="41.196" cy="30.878" rx="1.197" ry="1.193" fill="none" stroke="#0c0d0b" stroke-miterlimit="10" stroke-width=".089"/>
      <circle cx="41.196" cy="30.878" r=".762" fill="#0c0d0b"/>
      <ellipse cx="43.373" cy="33.047" rx="1.197" ry="1.193" fill="none" stroke="#0c0d0b" stroke-miterlimit="10" stroke-width=".089"/>
      <circle cx="43.373" cy="33.047" r=".762" fill="#0c0d0b"/>
      <ellipse cx="45.984" cy="35.649" rx="1.197" ry="1.193" fill="none" stroke="#0c0d0b" stroke-miterlimit="10" stroke-width=".089"/>
      <circle cx="45.984" cy="35.649" r=".762" fill="#0c0d0b"/>
      <ellipse cx="36.082" cy="35.758" rx="1.197" ry="1.193" fill="none" stroke="#0c0d0b" stroke-miterlimit="10" stroke-width=".089"/>
      <circle cx="36.082" cy="35.758" r=".762" fill="#0c0d0b"/>
      <ellipse cx="38.258" cy="37.927" rx="1.197" ry="1.193" fill="none" stroke="#0c0d0b" stroke-miterlimit="10" stroke-width=".089"/>
      <circle cx="38.258" cy="37.927" r=".762" fill="#0c0d0b"/>
      <ellipse cx="40.87" cy="40.529" rx="1.197" ry="1.193" fill="none" stroke="#0c0d0b" stroke-miterlimit="10" stroke-width=".089"/>
      <circle cx="40.87" cy="40.529" r=".762" fill="#8045b2"/>
      <ellipse cx="63.926" cy="31.406" rx="1.197" ry="1.193" fill="none" stroke="#0c0d0b" stroke-miterlimit="10" stroke-width=".089"/>
      <circle cx="63.926" cy="31.406" r=".762" fill="#0c0d0b"/>
      <ellipse cx="59.621" cy="30.878" rx="1.197" ry="1.193" fill="none" stroke="#0c0d0b" stroke-miterlimit="10" stroke-width=".089"/>
      <circle cx="59.621" cy="30.878" r=".762" fill="#0c0d0b"/>
      <ellipse cx="57.445" cy="33.047" rx="1.197" ry="1.193" fill="none" stroke="#0c0d0b" stroke-miterlimit="10" stroke-width=".089"/>
      <circle cx="57.445" cy="33.047" r=".762" fill="#ab6be0"/>
      <ellipse cx="54.833" cy="35.649" rx="1.197" ry="1.193" fill="none" stroke="#0c0d0b" stroke-miterlimit="10" stroke-width=".089"/>
      <circle cx="54.833" cy="35.649" r=".762" fill="#0c0d0b"/>
      <path d="M65.933,35.758c0,.659-.536,1.193-1.197,1.193s-1.197-.534-1.197-1.193.536-1.193,1.197-1.193,1.197.534,1.197,1.193Z" fill="none" stroke="#0c0d0b" stroke-miterlimit="10" stroke-width=".089"/>
      <circle cx="64.736" cy="35.758" r=".762" fill="#0c0d0b"/>
      <ellipse cx="62.559" cy="37.927" rx="1.197" ry="1.193" fill="none" stroke="#0c0d0b" stroke-miterlimit="10" stroke-width=".089"/>
      <circle cx="62.559" cy="37.927" r=".762" fill="#0c0d0b"/>
      <ellipse cx="59.948" cy="40.529" rx="1.197" ry="1.193" fill="none" stroke="#0c0d0b" stroke-miterlimit="10" stroke-width=".089"/>
      <circle cx="59.948" cy="40.529" r=".762" fill="#0c0d0b"/>
      <polygon points="63.513 35.825 63.513 35.717 59.764 35.717 63.117 32.376 63.04 32.3 59.678 35.65 59.678 32.077 59.569 32.077 59.569 35.758 57.502 37.818 57.502 34.245 57.393 34.245 57.393 37.927 54.89 40.421 54.89 36.848 54.781 36.848 54.781 40.529 51.721 43.579 49.066 43.579 46.006 40.529 46.006 36.848 45.897 36.848 45.897 40.421 43.394 37.927 43.394 34.245 43.286 34.245 43.286 37.818 41.218 35.758 41.218 32.077 41.109 32.077 41.109 35.65 37.748 32.3 37.671 32.376 41.023 35.717 37.274 35.717 37.274 35.825 41.132 35.825 43.199 37.886 39.45 37.886 39.45 37.994 43.308 37.994 45.811 40.488 42.062 40.488 42.062 40.597 45.92 40.597 49.038 43.704 49.038 43.796 51.758 43.796 51.758 43.696 54.868 40.597 58.725 40.597 58.725 40.488 54.976 40.488 57.479 37.994 61.337 37.994 61.337 37.886 57.588 37.886 59.656 35.825 63.513 35.825" fill="#0c0d0b"/>
    </g>
    <g>
      <ellipse cx="36.892" cy="62.249" rx="1.197" ry="1.193" fill="none" stroke="#0c0d0b" stroke-miterlimit="10" stroke-width=".089"/>
      <circle cx="36.892" cy="62.249" r=".762" fill="#6a3f8f"/>
      <ellipse cx="41.196" cy="61.721" rx="1.197" ry="1.193" fill="none" stroke="#0c0d0b" stroke-miterlimit="10" stroke-width=".089"/>
      <circle cx="41.196" cy="61.721" r=".762" fill="#0c0d0b"/>
      <ellipse cx="43.373" cy="63.89" rx="1.197" ry="1.193" fill="none" stroke="#0c0d0b" stroke-miterlimit="10" stroke-width=".089"/>
      <circle cx="43.373" cy="63.89" r=".762" fill="#0c0d0b"/>
      <ellipse cx="45.984" cy="66.492" rx="1.197" ry="1.193" fill="none" stroke="#0c0d0b" stroke-miterlimit="10" stroke-width=".089"/>
      <circle cx="45.984" cy="66.492" r=".762" fill="#0c0d0b"/>
      <ellipse cx="36.082" cy="66.601" rx="1.197" ry="1.193" fill="none" stroke="#0c0d0b" stroke-miterlimit="10" stroke-width=".089"/>
      <circle cx="36.082" cy="66.601" r=".762" fill="#0c0d0b"/>
      <ellipse cx="38.258" cy="68.769" rx="1.197" ry="1.193" fill="none" stroke="#0c0d0b" stroke-miterlimit="10" stroke-width=".089"/>
      <circle cx="38.258" cy="68.769" r=".762" fill="#0c0d0b"/>
      <ellipse cx="40.87" cy="71.372" rx="1.197" ry="1.193" fill="none" stroke="#0c0d0b" stroke-miterlimit="10" stroke-width=".089"/>
      <circle cx="40.87" cy="71.372" r=".762" fill="#8045b2"/>
      <ellipse cx="63.926" cy="62.249" rx="1.197" ry="1.193" fill="none" stroke="#0c0d0b" stroke-miterlimit="10" stroke-width=".089"/>
      <circle cx="63.926" cy="62.249" r=".762" fill="#0c0d0b"/>
      <ellipse cx="59.621" cy="61.721" rx="1.197" ry="1.193" fill="none" stroke="#0c0d0b" stroke-miterlimit="10" stroke-width=".089"/>
      <circle cx="59.621" cy="61.721" r=".762" fill="#0c0d0b"/>
      <ellipse cx="57.445" cy="63.89" rx="1.197" ry="1.193" fill="none" stroke="#0c0d0b" stroke-miterlimit="10" stroke-width=".089"/>
      <circle cx="57.445" cy="63.89" r=".762" fill="#ab6be0"/>
      <ellipse cx="54.833" cy="66.492" rx="1.197" ry="1.193" fill="none" stroke="#0c0d0b" stroke-miterlimit="10" stroke-width=".089"/>
      <circle cx="54.833" cy="66.492" r=".762" fill="#0c0d0b"/>
      <path d="M65.933,66.601c0,.659-.536,1.193-1.197,1.193s-1.197-.534-1.197-1.193.536-1.193,1.197-1.193,1.197.534,1.197,1.193Z" fill="none" stroke="#0c0d0b" stroke-miterlimit="10" stroke-width=".089"/>
      <circle cx="64.736" cy="66.601" r=".762" fill="#0c0d0b"/>
      <ellipse cx="62.559" cy="68.769" rx="1.197" ry="1.193" fill="none" stroke="#0c0d0b" stroke-miterlimit="10" stroke-width=".089"/>
      <path d="M63.321,68.769c0,.419-.341.759-.762.759s-.762-.34-.762-.759.341-.759.762-.759.762.34.762.759Z" fill="#0c0d0b"/>
      <ellipse cx="59.948" cy="71.372" rx="1.197" ry="1.193" fill="none" stroke="#0c0d0b" stroke-miterlimit="10" stroke-width=".089"/>
      <circle cx="59.948" cy="71.372" r=".762" fill="#0c0d0b"/>
      <polygon points="63.513 66.668 63.513 66.56 59.764 66.56 63.117 63.219 63.04 63.143 59.678 66.492 59.678 62.919 59.569 62.919 59.569 66.601 57.502 68.661 57.502 65.088 57.393 65.088 57.393 68.77 54.89 71.264 54.89 67.691 54.781 67.691 54.781 71.372 51.721 74.422 49.066 74.422 46.006 71.372 46.006 67.691 45.897 67.691 45.897 71.264 43.394 68.77 43.394 65.088 43.286 65.088 43.286 68.661 41.218 66.601 41.218 62.919 41.109 62.919 41.109 66.492 37.748 63.143 37.671 63.219 41.023 66.56 37.274 66.56 37.274 66.668 41.132 66.668 43.199 68.729 39.45 68.729 39.45 68.837 43.308 68.837 45.811 71.331 42.062 71.331 42.062 71.44 45.92 71.44 49.038 74.547 49.038 74.639 51.758 74.639 51.758 74.538 54.868 71.44 58.725 71.44 58.725 71.331 54.976 71.331 57.479 68.837 61.337 68.837 61.337 68.729 57.588 68.729 59.656 66.668 63.513 66.668" fill="#0c0d0b"/>
    </g>
  </g>
  <g id="Flores">
    <g>
      <path d="M62.44,7.459v14.016c0,1.053-.909,1.911-2.026,1.911h-2.858V2.269h-.198v21.117h-6.878V3.544h-.21v19.841h-8.43c-1.227,0-2.224-.941-2.224-2.099V7.459h-.203v13.828c0,1.269,1.089,2.302,2.428,2.302h8.43v7.304h.21v-7.161l6.218,6.222c.097.097.223.149.352.149.065,0,.131-.013.196-.04.191-.079.31-.257.31-.465v-6.009h2.858c1.229,0,2.229-.948,2.229-2.114V7.459h-.203ZM57.359,29.598c0,.15-.097.244-.188.282-.091.038-.226.04-.332-.066l-6.221-6.225h6.742v6.009Z" fill="#0c0d0b"/>
      <g>
        <path d="M51.955,13.692c.002.034.004.068.004.103,0,.86-.697,1.557-1.556,1.557s-1.556-.697-1.556-1.557c0-.034.002-.069.004-.103-1.43.031-2.861.103-4.27.298,2.504,3.139,6.953,3.769,10.189,1.387.535-.402,1.023-.821,1.456-1.392-1.421-.181-2.844-.259-4.27-.292Z" fill="#0c0d0b"/>
        <circle cx="50.403" cy="13.845" r=".854" transform="translate(36.445 64.216) rotate(-89.871)" fill="#0c0d0b"/>
      </g>
      <g>
        <path d="M51.252,4.763c.001.019.002.037.002.056,0,.47-.381.851-.851.851s-.851-.381-.851-.851c0-.019,0-.038.002-.056-.781.017-1.564.057-2.334.163,1.369,1.716,3.801,2.06,5.57.758.293-.22.559-.449.796-.761-.776-.099-1.555-.142-2.334-.159Z" fill="#0c0d0b"/>
        <circle cx="50.403" cy="4.846" r=".467" transform="translate(45.443 55.238) rotate(-89.871)" fill="#0c0d0b"/>
      </g>
      <g>
        <path d="M51.252,7.725c.001.019.002.037.002.056,0,.47-.381.851-.851.851s-.851-.381-.851-.851c0-.019,0-.038.002-.056-.781.017-1.564.057-2.334.163,1.369,1.716,3.801,2.06,5.57.758.293-.22.559-.449.796-.761-.776-.099-1.555-.142-2.334-.159Z" fill="#0c0d0b"/>
        <circle cx="50.403" cy="7.809" r=".467" transform="translate(42.481 58.194) rotate(-89.871)" fill="#0c0d0b"/>
      </g>
      <g>
        <path d="M51.252,10.687c.001.019.002.037.002.056,0,.47-.381.851-.851.851s-.851-.381-.851-.851c0-.019,0-.038.002-.056-.781.017-1.564.057-2.334.163,1.369,1.716,3.801,2.06,5.57.758.293-.22.559-.449.796-.761-.776-.099-1.555-.142-2.334-.159Z" fill="#0c0d0b"/>
        <circle cx="50.403" cy="10.771" r=".467" transform="translate(39.519 61.15) rotate(-89.871)" fill="#0c0d0b"/>
      </g>
      <g>
        <path d="M58.145,4.686c.001.016.002.031.002.047,0,.394-.319.713-.712.713s-.712-.319-.712-.713c0-.016,0-.031.002-.047-.654.014-1.309.047-1.954.136,1.146,1.436,3.182,1.725,4.663.635.245-.184.468-.376.666-.637-.65-.083-1.302-.119-1.954-.133Z" fill="#0c0d0b"/>
        <circle cx="57.435" cy="4.756" r=".391" transform="translate(52.55 62.179) rotate(-89.871)" fill="#0c0d0b"/>
      </g>
      <g>
        <path d="M58.145,7.166c.001.016.002.031.002.047,0,.394-.319.713-.712.713s-.712-.319-.712-.713c0-.016,0-.031.002-.047-.654.014-1.309.047-1.954.136,1.146,1.436,3.182,1.725,4.663.635.245-.184.468-.376.666-.637-.65-.083-1.302-.119-1.954-.133Z" fill="#0c0d0b"/>
        <circle cx="57.435" cy="7.236" r=".391" transform="translate(50.07 64.654) rotate(-89.871)" fill="#0c0d0b"/>
      </g>
      <g>
        <path d="M58.145,9.646c.001.016.002.031.002.047,0,.394-.319.713-.712.713s-.712-.319-.712-.713c0-.016,0-.031.002-.047-.654.014-1.309.047-1.954.136,1.146,1.436,3.182,1.725,4.663.635.245-.184.468-.376.666-.637-.65-.083-1.302-.119-1.954-.133Z" fill="#0c0d0b"/>
        <circle cx="57.435" cy="9.716" r=".391" transform="translate(47.59 67.128) rotate(-89.871)" fill="#0c0d0b"/>
      </g>
      <g>
        <path d="M63.153,9.614c0,.013.001.027.001.04,0,.339-.275.614-.613.614s-.613-.275-.613-.614c0-.014,0-.027.001-.04-.563.012-1.127.041-1.683.117.987,1.237,2.74,1.485,4.015.546.211-.158.403-.324.574-.549-.56-.071-1.121-.102-1.683-.115Z" fill="#0c0d0b"/>
        <circle cx="62.542" cy="9.674" r=".336" transform="translate(52.727 72.194) rotate(-89.871)" fill="#0c0d0b"/>
      </g>
      <g>
        <path d="M63.153,11.749c0,.013.001.027.001.04,0,.339-.275.614-.613.614s-.613-.275-.613-.614c0-.014,0-.027.001-.04-.563.012-1.127.041-1.683.117.987,1.237,2.74,1.485,4.015.546.211-.158.403-.324.574-.549-.56-.071-1.121-.102-1.683-.115Z" fill="#0c0d0b"/>
        <circle cx="62.542" cy="11.81" r=".336" transform="translate(50.592 74.325) rotate(-89.871)" fill="#0c0d0b"/>
      </g>
      <g>
        <path d="M63.153,13.885c0,.013.001.027.001.04,0,.339-.275.614-.613.614s-.613-.275-.613-.614c0-.014,0-.027.001-.04-.563.012-1.127.041-1.683.117.987,1.237,2.74,1.485,4.015.546.211-.158.403-.324.574-.549-.56-.071-1.121-.102-1.683-.115Z" fill="#0c0d0b"/>
        <circle cx="62.542" cy="13.945" r=".336" transform="translate(48.456 76.455) rotate(-89.871)" fill="#0c0d0b"/>
      </g>
      <g>
        <path d="M41.075,16.506c.002.034.004.068.004.103,0,.86-.697,1.557-1.556,1.557s-1.556-.697-1.556-1.557c0-.034.002-.069.004-.103-1.43.031-2.861.103-4.27.298,2.504,3.139,6.953,3.769,10.189,1.387.535-.402,1.023-.821,1.456-1.392-1.421-.181-2.844-.259-4.27-.292Z" fill="#0c0d0b"/>
        <circle cx="39.523" cy="16.659" r=".854" transform="translate(22.775 56.144) rotate(-89.871)" fill="#0c0d0b"/>
      </g>
      <g>
        <path d="M40.371,7.577c.001.019.002.037.002.056,0,.47-.381.851-.851.851s-.851-.381-.851-.851c0-.019,0-.038.002-.056-.781.017-1.564.057-2.334.163,1.369,1.716,3.801,2.06,5.57.758.293-.22.559-.449.796-.761-.776-.099-1.555-.142-2.334-.159Z" fill="#0c0d0b"/>
        <circle cx="39.523" cy="7.661" r=".467" transform="translate(31.773 47.166) rotate(-89.871)" fill="#0c0d0b"/>
      </g>
      <g>
        <path d="M40.371,10.539c.001.019.002.037.002.056,0,.47-.381.851-.851.851s-.851-.381-.851-.851c0-.019,0-.038.002-.056-.781.017-1.564.057-2.334.163,1.369,1.716,3.801,2.06,5.57.758.293-.22.559-.449.796-.761-.776-.099-1.555-.142-2.334-.159Z" fill="#0c0d0b"/>
        <circle cx="39.523" cy="10.623" r=".467" transform="translate(28.811 50.121) rotate(-89.871)" fill="#0c0d0b"/>
      </g>
      <g>
        <path d="M40.371,13.502c.001.019.002.037.002.056,0,.47-.381.851-.851.851s-.851-.381-.851-.851c0-.019,0-.038.002-.056-.781.017-1.564.057-2.334.163,1.369,1.716,3.801,2.06,5.57.758.293-.22.559-.449.796-.761-.776-.099-1.555-.142-2.334-.159Z" fill="#0c0d0b"/>
        <circle cx="39.523" cy="13.585" r=".467" transform="translate(25.848 53.077) rotate(-89.871)" fill="#0c0d0b"/>
      </g>
      <circle cx="39.523" cy="16.673" r=".666" fill="#6a3f8f"/>
      <circle cx="57.435" cy="2.602" r=".962" fill="#6a3f8f"/>
      <g>
        <path d="M51.252,2.022c.001.019.002.037.002.056,0,.47-.381.851-.851.851s-.851-.381-.851-.851c0-.019,0-.038.002-.056-.781.017-1.564.057-2.334.163,1.369,1.716,3.801,2.06,5.57.758.293-.22.559-.449.796-.761-.776-.099-1.555-.142-2.334-.159Z" fill="#0c0d0b"/>
        <circle cx="50.403" cy="2.106" r=".467" transform="translate(48.184 52.504) rotate(-89.871)" fill="#0c0d0b"/>
      </g>
      <circle cx="50.429" cy="1.979" r=".962" fill="#6a3f8f"/>
      <circle cx="62.542" cy="7.194" r=".962" fill="#6a3f8f"/>
      <circle cx="50.403" cy="23.487" r="1.629" fill="#6a3f8f"/>
    </g>
  </g>
</svg>