<?xml version="1.0" encoding="UTF-8"?>
<svg xmlns="http://www.w3.org/2000/svg" width="275.651" height="450" viewBox="0 0 275.651 450">
  <g id="Tallo">
    <line x1="137.611" y1="451.5" x2="137.611" y2="89.181" fill="none" stroke="#0c0d0b" stroke-miterlimit="10" stroke-width="2.054"/>
  </g>
  <g id="Hojas">
    <g>
      <g>
        <path d="M145.475,159.2c.012-.18.02-.361.02-.544,0-4.554-3.692-8.246-8.246-8.246s-8.246,3.692-8.246,8.246c0,.183.008.364.02.543-7.576-.162-15.162-.548-22.631-1.576,13.271-16.625,36.848-19.96,54-7.344,2.838,2.127,5.423,4.35,7.714,7.375-7.528.96-15.073,1.372-22.631,1.545Z" fill="#0c0d0b"/>
        <circle cx="137.249" cy="158.391" r="4.522" transform="translate(-50.166 64.579) rotate(-22.5)" fill="#0c0d0b"/>
      </g>
      <circle cx="137.249" cy="158.348" r="4.565" fill="#662d91"/>
    </g>
    <g>
      <g>
        <path d="M145.475,202.679c.012-.18.02-.361.02-.544,0-4.554-3.692-8.246-8.246-8.246s-8.246,3.692-8.246,8.246c0,.183.008.364.02.543-7.576-.162-15.162-.548-22.631-1.576,13.271-16.625,36.848-19.96,54-7.344,2.838,2.127,5.423,4.35,7.714,7.375-7.528.96-15.073,1.372-22.631,1.545Z" fill="#0c0d0b"/>
        <circle cx="137.249" cy="201.869" r="4.522" transform="translate(-66.804 67.889) rotate(-22.5)" fill="#0c0d0b"/>
      </g>
      <circle cx="137.249" cy="201.826" r="4.565" fill="#662d91"/>
    </g>
    <g>
      <g>
        <path d="M145.475,246.157c.012-.18.02-.361.02-.544,0-4.554-3.692-8.246-8.246-8.246s-8.246,3.692-8.246,8.246c0,.183.008.364.02.543-7.576-.162-15.162-.548-22.631-1.576,13.271-16.625,36.848-19.96,54-7.344,2.838,2.127,5.423,4.35,7.714,7.375-7.528.96-15.073,1.372-22.631,1.545Z" fill="#0c0d0b"/>
        <circle cx="137.249" cy="245.347" r="4.522" transform="translate(-83.443 71.199) rotate(-22.5)" fill="#0c0d0b"/>
      </g>
      <circle cx="137.249" cy="245.304" r="4.565" fill="#662d91"/>
    </g>
    <g>
      <g>
        <path d="M145.475,289.635c.012-.18.02-.361.02-.544,0-4.554-3.692-8.246-8.246-8.246s-8.246,3.692-8.246,8.246c0,.183.008.364.02.543-7.576-.162-15.162-.548-22.631-1.576,13.271-16.625,36.848-19.96,54-7.344,2.838,2.127,5.423,4.35,7.714,7.375-7.528.96-15.073,1.372-22.631,1.545Z" fill="#0c0d0b"/>
        <circle cx="137.249" cy="288.826" r="4.522" transform="translate(-100.081 74.508) rotate(-22.5)" fill="#0c0d0b"/>
      </g>
      <circle cx="137.249" cy="288.783" r="4.565" fill="#662d91"/>
    </g>
    <g>
      <g>
        <path d="M145.475,333.114c.012-.18.02-.361.02-.544,0-4.554-3.692-8.246-8.246-8.246s-8.246,3.692-8.246,8.246c0,.183.008.364.02.543-7.576-.162-15.162-.548-22.631-1.576,13.271-16.625,36.848-19.96,54-7.344,2.838,2.127,5.423,4.35,7.714,7.375-7.528.96-15.073,1.372-22.631,1.545Z" fill="#0c0d0b"/>
        <circle cx="137.249" cy="332.304" r="4.522" transform="translate(-116.72 77.818) rotate(-22.5)" fill="#0c0d0b"/>
      </g>
      <circle cx="137.249" cy="332.261" r="4.565" fill="#662d91"/>
    </g>
    <g>
      <g>
        <path d="M145.475,376.592c.012-.18.02-.361.02-.544,0-4.554-3.692-8.246-8.246-8.246s-8.246,3.692-8.246,8.246c0,.183.008.364.02.543-7.576-.162-15.162-.548-22.631-1.576,13.271-16.625,36.848-19.96,54-7.344,2.838,2.127,5.423,4.35,7.714,7.375-7.528.96-15.073,1.372-22.631,1.545Z" fill="#0c0d0b"/>
        <circle cx="137.249" cy="375.782" r="4.522" transform="translate(-133.358 81.127) rotate(-22.5)" fill="#0c0d0b"/>
      </g>
      <circle cx="137.249" cy="375.739" r="4.565" fill="#662d91"/>
    </g>
  </g>
  <g id="Flores">
    <g>
      <line x1="137.507" y1="146.428" x2="137.507" y2="24.885" fill="none" stroke="#0c0d0b" stroke-miterlimit="10" stroke-width="1.637"/>
      <g>
        <path d="M160.68,30.554c-2.382-1.115-4.765-1.515-7.147.44-2.225,1.727-4.572,5.281-7.147,6.429-.604.234-1.225.429-1.856.597h-16.638c-.631-.167-1.252-.363-1.856-.597-2.575-1.148-4.922-4.702-7.147-6.429-2.382-1.955-4.765-1.556-7.147-.44-3.256,1.8-5.187,4.289-7.147,8.284,1.956,3.992,3.891,6.489,7.147,8.284,2.382,1.115,4.765,1.515,7.147-.44,2.224-1.726,4.573-5.282,7.147-6.429.604-.234,1.226-.429,1.856-.597h16.637c.631.167,1.252.363,1.856.597,2.574,1.147,4.923,4.703,7.147,6.429,2.382,1.955,4.765,1.556,7.147.44,3.255-1.796,5.19-4.292,7.147-8.284-1.96-3.995-3.891-6.484-7.147-8.284Z" fill="#0c0d0b"/>
        <circle cx="114.411" cy="38.839" r="3.464" fill="#6a3f8f"/>
        <circle cx="157.139" cy="38.839" r="3.464" fill="#6a3f8f"/>
      </g>
      <g>
        <path d="M141.115,58.091c-2.382-1.115-4.765-1.515-7.147.44-2.225,1.727-4.572,5.281-7.147,6.429-.604.234-1.225.429-1.856.597h-16.638c-.631-.167-1.252-.363-1.856-.597-2.575-1.148-4.922-4.702-7.147-6.429-2.382-1.955-4.765-1.556-7.147-.44-3.256,1.8-5.187,4.289-7.147,8.284,1.956,3.992,3.891,6.489,7.147,8.284,2.382,1.115,4.765,1.515,7.147-.44,2.224-1.726,4.573-5.282,7.147-6.429.604-.234,1.226-.429,1.856-.597h16.637c.631.167,1.252.363,1.856.597,2.574,1.147,4.923,4.703,7.147,6.429,2.382,1.955,4.765,1.556,7.147.44,3.255-1.796,5.19-4.292,7.147-8.284-1.96-3.995-3.891-6.484-7.147-8.284Z" fill="#0c0d0b"/>
        <circle cx="94.846" cy="66.375" r="3.464" fill="#6a3f8f"/>
        <circle cx="137.573" cy="66.375" r="3.464" fill="#6a3f8f"/>
      </g>
      <g>
        <path d="M162.129,79.83c-2.382-1.115-4.765-1.515-7.147.44-2.225,1.727-4.572,5.281-7.147,6.429-.604.234-1.225.429-1.856.597h-16.638c-.631-.167-1.252-.363-1.856-.597-2.575-1.148-4.922-4.702-7.147-6.429-2.382-1.955-4.765-1.556-7.147-.44-3.256,1.8-5.187,4.289-7.147,8.284,1.956,3.992,3.891,6.489,7.147,8.284,2.382,1.115,4.765,1.515,7.147-.44,2.224-1.726,4.573-5.282,7.147-6.429.604-.234,1.226-.429,1.856-.597h16.637c.631.167,1.252.363,1.856.597,2.574,1.147,4.923,4.703,7.147,6.429,2.382,1.955,4.765,1.556,7.147.44,3.255-1.796,5.19-4.292,7.147-8.284-1.96-3.995-3.891-6.484-7.147-8.284Z" fill="#0c0d0b"/>
        <circle cx="115.86" cy="88.114" r="3.464" fill="#6a3f8f"/>
        <circle cx="158.588" cy="88.114" r="3.464" fill="#6a3f8f"/>
      </g>
      <g>
        <path d="M183.144,97.946c-2.382-1.115-4.765-1.515-7.147.44-2.225,1.727-4.572,5.281-7.147,6.429-.604.234-1.225.429-1.856.597h-16.638c-.631-.167-1.252-.363-1.856-.597-2.575-1.148-4.922-4.702-7.147-6.429-2.382-1.955-4.765-1.556-7.147-.44-3.256,1.8-5.187,4.289-7.147,8.284,1.956,3.992,3.891,6.489,7.147,8.284,2.382,1.115,4.765,1.515,7.147-.44,2.224-1.726,4.573-5.282,7.147-6.429.604-.234,1.226-.429,1.856-.597h16.637c.631.167,1.252.363,1.856.597,2.574,1.147,4.923,4.703,7.147,6.429,2.382,1.955,4.765,1.556,7.147.44,3.255-1.796,5.19-4.292,7.147-8.284-1.96-3.995-3.891-6.484-7.147-8.284Z" fill="#0c0d0b"/>
        <circle cx="136.875" cy="106.23" r="3.464" fill="#6a3f8f"/>
        <circle cx="179.602" cy="106.23" r="3.464" fill="#6a3f8f"/>
      </g>
      <g>
        <path d="M162.129,120.409c-2.382-1.115-4.765-1.515-7.147.44-2.225,1.727-4.572,5.281-7.147,6.429-.604.234-1.225.429-1.856.597h-16.638c-.631-.167-1.252-.363-1.856-.597-2.575-1.148-4.922-4.702-7.147-6.429-2.382-1.955-4.765-1.556-7.147-.44-3.256,1.8-5.187,4.289-7.147,8.284,1.956,3.992,3.891,6.489,7.147,8.284,2.382,1.115,4.765,1.515,7.147-.44,2.224-1.726,4.573-5.282,7.147-6.429.604-.234,1.226-.429,1.856-.597h16.637c.631.167,1.252.363,1.856.597,2.574,1.147,4.923,4.703,7.147,6.429,2.382,1.955,4.765,1.556,7.147.44,3.255-1.796,5.19-4.292,7.147-8.284-1.96-3.995-3.891-6.484-7.147-8.284Z" fill="#0c0d0b"/>
        <circle cx="115.86" cy="128.694" r="3.464" fill="#6a3f8f"/>
        <circle cx="158.588" cy="128.694" r="3.464" fill="#6a3f8f"/>
      </g>
      <path d="M137.507,1.5c-7.175,0-12.992,5.816-12.992,12.992s5.817,12.992,12.992,12.992,12.992-5.817,12.992-12.992-5.817-12.992-12.992-12.992ZM137.507,23.153c-4.783,0-8.661-3.878-8.661-8.661s3.878-8.661,8.661-8.661,8.661,3.878,8.661,8.661-3.878,8.661-8.661,8.661Z" fill="#0c0d0b"/>
      <circle cx="137.507" cy="14.492" r="4.042" fill="#8045b2"/>
    </g>
  </g>
</svg>