<?xml version="1.0" encoding="UTF-8"?>
<svg xmlns="http://www.w3.org/2000/svg" width="275.651" height="450" viewBox="0 0 275.651 450">
  <g id="Tallo">
    <g>
      <line x1="139.253" y1="451" x2="139.253" y2="59.014" fill="none" stroke="#0c0d0b" stroke-miterlimit="10" stroke-width="2.222"/>
      <path d="M86.142,280.805v75.81c0,2.965,2.404,5.369,5.369,5.369h48.14c1.424,0,2.789.566,3.796,1.572l23.909,23.909c3.382,3.382,9.165.987,9.165-3.796v-129.86" fill="none" stroke="#0c0d0b" stroke-linejoin="round" stroke-width="1.111"/>
    </g>
  </g>
  <g id="Hojas">
    <g>
      <line x1="178.063" y1="255.281" x2="223.527" y2="255.281" fill="#0c0d0b" stroke="#000" stroke-miterlimit="10" stroke-width="1.318"/>
      <path d="M178.31,260.236c-2.736,0-4.955-2.219-4.955-4.955s2.219-4.955,4.955-4.955,4.954,2.219,4.954,4.955-2.219,4.955-4.954,4.955Z" fill="#0c0d0b"/>
      <path d="M223.279,260.236c2.736,0,4.955-2.219,4.955-4.955s-2.219-4.955-4.955-4.955-4.954,2.219-4.954,4.955,2.219,4.955,4.954,4.955Z" fill="#0c0d0b"/>
    </g>
    <g>
      <line x1="178.063" y1="281.152" x2="223.527" y2="281.152" fill="#0c0d0b" stroke="#000" stroke-miterlimit="10" stroke-width="1.318"/>
      <path d="M178.31,286.107c-2.736,0-4.955-2.219-4.955-4.955s2.219-4.955,4.955-4.955,4.954,2.219,4.954,4.955-2.219,4.955-4.954,4.955Z" fill="#0c0d0b"/>
      <path d="M223.279,286.107c2.736,0,4.955-2.219,4.955-4.955s-2.219-4.955-4.955-4.955-4.954,2.219-4.954,4.955,2.219,4.955,4.954,4.955Z" fill="#0c0d0b"/>
    </g>
    <g>
      <line x1="178.063" y1="307.024" x2="223.527" y2="307.024" fill="#0c0d0b" stroke="#000" stroke-miterlimit="10" stroke-width="1.318"/>
      <path d="M178.31,311.978c-2.736,0-4.955-2.219-4.955-4.955s2.219-4.955,4.955-4.955,4.954,2.219,4.954,4.955-2.219,4.955-4.954,4.955Z" fill="#0c0d0b"/>
      <path d="M223.279,311.978c2.736,0,4.955-2.219,4.955-4.955s-2.219-4.955-4.955-4.955-4.954,2.219-4.954,4.955,2.219,4.955,4.954,4.955Z" fill="#0c0d0b"/>
    </g>
    <g>
      <line x1="178.063" y1="332.895" x2="223.527" y2="332.895" fill="#0c0d0b" stroke="#000" stroke-miterlimit="10" stroke-width="1.318"/>
      <path d="M178.31,337.849c-2.736,0-4.955-2.219-4.955-4.955s2.219-4.955,4.955-4.955,4.954,2.219,4.954,4.955-2.219,4.955-4.954,4.955Z" fill="#0c0d0b"/>
      <path d="M223.279,337.849c2.736,0,4.955-2.219,4.955-4.955s-2.219-4.955-4.955-4.955-4.954,2.219-4.954,4.955,2.219,4.955,4.954,4.955Z" fill="#0c0d0b"/>
    </g>
    <g>
      <line x1="178.063" y1="358.766" x2="223.527" y2="358.766" fill="#0c0d0b" stroke="#000" stroke-miterlimit="10" stroke-width="1.318"/>
      <path d="M178.31,363.72c-2.736,0-4.955-2.219-4.955-4.955s2.219-4.955,4.955-4.955,4.954,2.219,4.954,4.955-2.219,4.955-4.954,4.955Z" fill="#0c0d0b"/>
      <path d="M223.279,363.72c2.736,0,4.955-2.219,4.955-4.955s-2.219-4.955-4.955-4.955-4.954,2.219-4.954,4.955,2.219,4.955,4.954,4.955Z" fill="#0c0d0b"/>
    </g>
    <g>
      <line x1="116.129" y1="313.295" x2="161.593" y2="313.295" fill="#0c0d0b" stroke="#000" stroke-miterlimit="10" stroke-width="1.318"/>
      <path d="M116.377,318.25c-2.736,0-4.955-2.219-4.955-4.955s2.219-4.955,4.955-4.955,4.954,2.219,4.954,4.955-2.219,4.955-4.954,4.955Z" fill="#0c0d0b"/>
      <path d="M161.346,318.25c2.736,0,4.955-2.219,4.955-4.955s-2.219-4.955-4.955-4.955-4.954,2.219-4.954,4.955,2.219,4.955,4.954,4.955Z" fill="#0c0d0b"/>
    </g>
    <g>
      <line x1="116.129" y1="339.166" x2="161.593" y2="339.166" fill="#0c0d0b" stroke="#000" stroke-miterlimit="10" stroke-width="1.318"/>
      <path d="M116.377,344.121c-2.736,0-4.955-2.219-4.955-4.955s2.219-4.955,4.955-4.955,4.954,2.219,4.954,4.955-2.219,4.955-4.954,4.955Z" fill="#0c0d0b"/>
      <path d="M161.346,344.121c2.736,0,4.955-2.219,4.955-4.955s-2.219-4.955-4.955-4.955-4.954,2.219-4.954,4.955,2.219,4.955,4.954,4.955Z" fill="#0c0d0b"/>
    </g>
    <g>
      <line x1="116.129" y1="263.121" x2="161.593" y2="263.121" fill="#0c0d0b" stroke="#000" stroke-miterlimit="10" stroke-width="1.318"/>
      <path d="M116.377,268.076c-2.736,0-4.955-2.219-4.955-4.955s2.219-4.955,4.955-4.955,4.954,2.219,4.954,4.955-2.219,4.955-4.954,4.955Z" fill="#0c0d0b"/>
      <path d="M161.346,268.076c2.736,0,4.955-2.219,4.955-4.955s-2.219-4.955-4.955-4.955-4.954,2.219-4.954,4.955,2.219,4.955,4.954,4.955Z" fill="#0c0d0b"/>
    </g>
    <g>
      <line x1="116.129" y1="288.992" x2="161.593" y2="288.992" fill="#0c0d0b" stroke="#000" stroke-miterlimit="10" stroke-width="1.318"/>
      <path d="M116.377,293.947c-2.736,0-4.955-2.219-4.955-4.955s2.219-4.955,4.955-4.955,4.954,2.219,4.954,4.955-2.219,4.955-4.954,4.955Z" fill="#0c0d0b"/>
      <path d="M161.346,293.947c2.736,0,4.955-2.219,4.955-4.955s-2.219-4.955-4.955-4.955-4.954,2.219-4.954,4.955,2.219,4.955,4.954,4.955Z" fill="#0c0d0b"/>
    </g>
    <g>
      <line x1="40.868" y1="282.72" x2="86.332" y2="282.72" fill="#0c0d0b" stroke="#000" stroke-miterlimit="10" stroke-width="1.318"/>
      <path d="M41.115,287.675c-2.736,0-4.955-2.219-4.955-4.955s2.219-4.955,4.955-4.955,4.954,2.219,4.954,4.955-2.219,4.955-4.954,4.955Z" fill="#0c0d0b"/>
      <path d="M86.084,287.675c2.736,0,4.955-2.219,4.955-4.955s-2.219-4.955-4.955-4.955-4.954,2.219-4.954,4.955,2.219,4.955,4.954,4.955Z" fill="#0c0d0b"/>
    </g>
    <g>
      <line x1="40.868" y1="308.591" x2="86.332" y2="308.591" fill="#0c0d0b" stroke="#000" stroke-miterlimit="10" stroke-width="1.318"/>
      <path d="M41.115,313.546c-2.736,0-4.955-2.219-4.955-4.955s2.219-4.955,4.955-4.955,4.954,2.219,4.954,4.955-2.219,4.955-4.954,4.955Z" fill="#0c0d0b"/>
      <path d="M86.084,313.546c2.736,0,4.955-2.219,4.955-4.955s-2.219-4.955-4.955-4.955-4.954,2.219-4.954,4.955,2.219,4.955,4.954,4.955Z" fill="#0c0d0b"/>
    </g>
    <g>
      <line x1="40.868" y1="334.463" x2="86.332" y2="334.463" fill="#0c0d0b" stroke="#000" stroke-miterlimit="10" stroke-width="1.318"/>
      <path d="M41.115,339.417c-2.736,0-4.955-2.219-4.955-4.955s2.219-4.955,4.955-4.955,4.954,2.219,4.954,4.955-2.219,4.955-4.954,4.955Z" fill="#0c0d0b"/>
      <path d="M86.084,339.417c2.736,0,4.955-2.219,4.955-4.955s-2.219-4.955-4.955-4.955-4.954,2.219-4.954,4.955,2.219,4.955,4.954,4.955Z" fill="#0c0d0b"/>
    </g>
    <g>
      <ellipse cx="105.209" cy="216.106" rx="3.003" ry="2.991" fill="none" stroke="#0c0d0b" stroke-miterlimit="10" stroke-width=".222"/>
      <ellipse cx="105.209" cy="216.106" rx="1.911" ry="1.903" fill="#6a3f8f"/>
      <ellipse cx="116.008" cy="214.781" rx="3.003" ry="2.991" fill="none" stroke="#0c0d0b" stroke-miterlimit="10" stroke-width=".222"/>
      <ellipse cx="116.008" cy="214.781" rx="1.911" ry="1.903" fill="#0c0d0b"/>
      <ellipse cx="121.467" cy="220.218" rx="3.003" ry="2.991" fill="none" stroke="#0c0d0b" stroke-miterlimit="10" stroke-width=".222"/>
      <ellipse cx="121.467" cy="220.218" rx="1.911" ry="1.903" fill="#0c0d0b"/>
      <ellipse cx="128.019" cy="226.743" rx="3.003" ry="2.991" fill="none" stroke="#0c0d0b" stroke-miterlimit="10" stroke-width=".222"/>
      <ellipse cx="128.019" cy="226.743" rx="1.911" ry="1.903" fill="#0c0d0b"/>
      <ellipse cx="103.178" cy="227.015" rx="3.003" ry="2.991" fill="none" stroke="#0c0d0b" stroke-miterlimit="10" stroke-width=".222"/>
      <ellipse cx="103.178" cy="227.015" rx="1.911" ry="1.903" fill="#0c0d0b"/>
      <ellipse cx="108.637" cy="232.452" rx="3.003" ry="2.991" fill="none" stroke="#0c0d0b" stroke-miterlimit="10" stroke-width=".222"/>
      <ellipse cx="108.637" cy="232.452" rx="1.911" ry="1.903" fill="#0c0d0b"/>
      <ellipse cx="115.189" cy="238.977" rx="3.003" ry="2.991" fill="none" stroke="#0c0d0b" stroke-miterlimit="10" stroke-width=".222"/>
      <ellipse cx="115.189" cy="238.977" rx="1.911" ry="1.903" fill="#8045b2"/>
      <ellipse cx="173.026" cy="216.106" rx="3.003" ry="2.991" fill="none" stroke="#0c0d0b" stroke-miterlimit="10" stroke-width=".222"/>
      <ellipse cx="173.026" cy="216.106" rx="1.911" ry="1.903" fill="#0c0d0b"/>
      <ellipse cx="162.227" cy="214.781" rx="3.003" ry="2.991" fill="none" stroke="#0c0d0b" stroke-miterlimit="10" stroke-width=".222"/>
      <ellipse cx="162.227" cy="214.781" rx="1.911" ry="1.903" fill="#0c0d0b"/>
      <ellipse cx="156.768" cy="220.218" rx="3.003" ry="2.991" fill="none" stroke="#0c0d0b" stroke-miterlimit="10" stroke-width=".222"/>
      <ellipse cx="156.768" cy="220.218" rx="1.911" ry="1.903" fill="#ab6be0"/>
      <ellipse cx="150.216" cy="226.743" rx="3.003" ry="2.991" fill="none" stroke="#0c0d0b" stroke-miterlimit="10" stroke-width=".222"/>
      <ellipse cx="150.216" cy="226.743" rx="1.911" ry="1.903" fill="#0c0d0b"/>
      <path d="M178.06,227.015c0,1.652-1.344,2.991-3.003,2.991s-3.003-1.339-3.003-2.991,1.344-2.991,3.003-2.991,3.003,1.339,3.003,2.991Z" fill="none" stroke="#0c0d0b" stroke-miterlimit="10" stroke-width=".222"/>
      <ellipse cx="175.057" cy="227.015" rx="1.911" ry="1.903" fill="#0c0d0b"/>
      <ellipse cx="169.597" cy="232.452" rx="3.003" ry="2.991" fill="none" stroke="#0c0d0b" stroke-miterlimit="10" stroke-width=".222"/>
      <path d="M171.508,232.452c0,1.051-.856,1.903-1.911,1.903s-1.911-.852-1.911-1.903.856-1.903,1.911-1.903,1.911.852,1.911,1.903Z" fill="#0c0d0b"/>
      <ellipse cx="163.046" cy="238.977" rx="3.003" ry="2.991" fill="none" stroke="#0c0d0b" stroke-miterlimit="10" stroke-width=".222"/>
      <ellipse cx="163.046" cy="238.977" rx="1.911" ry="1.903" fill="#0c0d0b"/>
      <polygon points="171.991 227.185 171.991 226.913 162.586 226.913 170.995 218.538 170.802 218.346 162.37 226.744 162.37 217.786 162.097 217.786 162.097 227.016 156.911 232.181 156.911 223.223 156.638 223.223 156.638 232.453 150.359 238.706 150.359 229.748 150.086 229.748 150.086 238.978 142.41 246.624 135.75 246.624 128.073 238.978 128.073 229.748 127.8 229.748 127.8 238.706 121.522 232.453 121.522 223.223 121.249 223.223 121.249 232.181 116.062 227.016 116.062 217.786 115.789 217.786 115.789 226.744 107.357 218.346 107.164 218.538 115.573 226.913 106.168 226.913 106.168 227.185 115.846 227.185 121.032 232.35 111.628 232.35 111.628 232.622 121.305 232.622 127.584 238.875 118.179 238.875 118.179 239.147 127.857 239.147 135.678 246.937 135.678 247.167 142.502 247.167 142.502 246.916 150.302 239.147 159.98 239.147 159.98 238.875 150.575 238.875 156.854 232.622 166.531 232.622 166.531 232.35 157.127 232.35 162.313 227.185 171.991 227.185" fill="#0c0d0b"/>
    </g>
    <g>
      <ellipse cx="105.209" cy="163.58" rx="3.003" ry="2.991" fill="none" stroke="#0c0d0b" stroke-miterlimit="10" stroke-width=".222"/>
      <ellipse cx="105.209" cy="163.58" rx="1.911" ry="1.903" fill="#6a3f8f"/>
      <ellipse cx="116.008" cy="162.255" rx="3.003" ry="2.991" fill="none" stroke="#0c0d0b" stroke-miterlimit="10" stroke-width=".222"/>
      <ellipse cx="116.008" cy="162.255" rx="1.911" ry="1.903" fill="#0c0d0b"/>
      <ellipse cx="121.467" cy="167.692" rx="3.003" ry="2.991" fill="none" stroke="#0c0d0b" stroke-miterlimit="10" stroke-width=".222"/>
      <ellipse cx="121.467" cy="167.692" rx="1.911" ry="1.903" fill="#0c0d0b"/>
      <ellipse cx="128.019" cy="174.217" rx="3.003" ry="2.991" fill="none" stroke="#0c0d0b" stroke-miterlimit="10" stroke-width=".222"/>
      <ellipse cx="128.019" cy="174.217" rx="1.911" ry="1.903" fill="#0c0d0b"/>
      <ellipse cx="103.178" cy="174.489" rx="3.003" ry="2.991" fill="none" stroke="#0c0d0b" stroke-miterlimit="10" stroke-width=".222"/>
      <ellipse cx="103.178" cy="174.489" rx="1.911" ry="1.903" fill="#0c0d0b"/>
      <ellipse cx="108.637" cy="179.926" rx="3.003" ry="2.991" fill="none" stroke="#0c0d0b" stroke-miterlimit="10" stroke-width=".222"/>
      <ellipse cx="108.637" cy="179.926" rx="1.911" ry="1.903" fill="#0c0d0b"/>
      <ellipse cx="115.189" cy="186.451" rx="3.003" ry="2.991" fill="none" stroke="#0c0d0b" stroke-miterlimit="10" stroke-width=".222"/>
      <ellipse cx="115.189" cy="186.451" rx="1.911" ry="1.903" fill="#8045b2"/>
      <ellipse cx="173.026" cy="163.58" rx="3.003" ry="2.991" fill="none" stroke="#0c0d0b" stroke-miterlimit="10" stroke-width=".222"/>
      <ellipse cx="173.026" cy="163.58" rx="1.911" ry="1.903" fill="#0c0d0b"/>
      <ellipse cx="162.227" cy="162.255" rx="3.003" ry="2.991" fill="none" stroke="#0c0d0b" stroke-miterlimit="10" stroke-width=".222"/>
      <ellipse cx="162.227" cy="162.255" rx="1.911" ry="1.903" fill="#0c0d0b"/>
      <ellipse cx="156.768" cy="167.692" rx="3.003" ry="2.991" fill="none" stroke="#0c0d0b" stroke-miterlimit="10" stroke-width=".222"/>
      <ellipse cx="156.768" cy="167.692" rx="1.911" ry="1.903" fill="#ab6be0"/>
      <ellipse cx="150.216" cy="174.217" rx="3.003" ry="2.991" fill="none" stroke="#0c0d0b" stroke-miterlimit="10" stroke-width=".222"/>
      <ellipse cx="150.216" cy="174.217" rx="1.911" ry="1.903" fill="#0c0d0b"/>
      <path d="M178.06,174.489c0,1.652-1.344,2.991-3.003,2.991s-3.003-1.339-3.003-2.991,1.344-2.991,3.003-2.991,3.003,1.339,3.003,2.991Z" fill="none" stroke="#0c0d0b" stroke-miterlimit="10" stroke-width=".222"/>
      <ellipse cx="175.057" cy="174.489" rx="1.911" ry="1.903" fill="#0c0d0b"/>
      <ellipse cx="169.597" cy="179.926" rx="3.003" ry="2.991" fill="none" stroke="#0c0d0b" stroke-miterlimit="10" stroke-width=".222"/>
      <ellipse cx="169.597" cy="179.926" rx="1.911" ry="1.903" fill="#0c0d0b"/>
      <ellipse cx="163.046" cy="186.451" rx="3.003" ry="2.991" fill="none" stroke="#0c0d0b" stroke-miterlimit="10" stroke-width=".222"/>
      <ellipse cx="163.046" cy="186.451" rx="1.911" ry="1.903" fill="#0c0d0b"/>
      <polygon points="171.991 174.659 171.991 174.387 162.586 174.387 170.995 166.012 170.802 165.82 162.37 174.218 162.37 165.26 162.097 165.26 162.097 174.49 156.911 179.655 156.911 170.697 156.638 170.697 156.638 179.927 150.359 186.18 150.359 177.222 150.086 177.222 150.086 186.452 142.41 194.097 135.75 194.097 128.073 186.452 128.073 177.222 127.8 177.222 127.8 186.18 121.522 179.927 121.522 170.697 121.249 170.697 121.249 179.655 116.062 174.49 116.062 165.26 115.789 165.26 115.789 174.218 107.357 165.82 107.164 166.012 115.573 174.387 106.168 174.387 106.168 174.659 115.846 174.659 121.032 179.824 111.628 179.824 111.628 180.096 121.305 180.096 127.584 186.349 118.179 186.349 118.179 186.621 127.857 186.621 135.678 194.41 135.678 194.641 142.502 194.641 142.502 194.389 150.302 186.621 159.98 186.621 159.98 186.349 150.575 186.349 156.854 180.096 166.531 180.096 166.531 179.824 157.127 179.824 162.313 174.659 171.991 174.659" fill="#0c0d0b"/>
    </g>
  </g>
  <g id="Flores">
    <g>
      <line x1="139.141" y1="157.794" x2="139.141" y2="26.299" fill="none" stroke="#0c0d0b" stroke-miterlimit="10" stroke-width="1.771"/>
      <g>
        <path d="M164.211,32.433c-2.577-1.207-5.155-1.639-7.732.476-2.407,1.869-4.946,5.714-7.732,6.955-.654.253-1.326.465-2.008.645h-18.001c-.682-.181-1.354-.392-2.008-.645-2.786-1.242-5.325-5.087-7.732-6.955-2.577-2.116-5.155-1.683-7.732-.476-3.522,1.947-5.611,4.64-7.732,8.962,2.117,4.319,4.21,7.02,7.732,8.963,2.577,1.207,5.155,1.639,7.732-.477,2.406-1.868,4.947-5.715,7.732-6.955.654-.253,1.326-.465,2.008-.646h18c.682.181,1.355.392,2.008.646,2.785,1.241,5.326,5.088,7.732,6.955,2.577,2.116,5.155,1.683,7.732.477,3.522-1.943,5.615-4.643,7.732-8.963-2.121-4.323-4.21-7.015-7.732-8.962Z" fill="#0c0d0b"/>
        <circle cx="114.154" cy="41.396" r="3.748" fill="#6a3f8f"/>
        <circle cx="160.38" cy="41.396" r="3.748" fill="#6a3f8f"/>
      </g>
      <g>
        <path d="M143.044,62.224c-2.577-1.207-5.155-1.639-7.732.476-2.407,1.869-4.946,5.714-7.732,6.955-.654.253-1.326.465-2.008.645h-18.001c-.682-.181-1.354-.392-2.008-.645-2.786-1.242-5.325-5.087-7.732-6.955-2.577-2.116-5.155-1.683-7.732-.476-3.522,1.947-5.611,4.64-7.732,8.962,2.117,4.319,4.21,7.02,7.732,8.963,2.577,1.207,5.155,1.639,7.732-.477,2.406-1.868,4.947-5.715,7.732-6.955.654-.253,1.326-.465,2.008-.646h18c.682.181,1.355.392,2.008.646,2.785,1.241,5.326,5.088,7.732,6.955,2.577,2.116,5.155,1.683,7.732.477,3.522-1.943,5.615-4.643,7.732-8.963-2.121-4.323-4.21-7.015-7.732-8.962Z" fill="#0c0d0b"/>
        <circle cx="92.986" cy="71.187" r="3.748" fill="#6a3f8f"/>
        <circle cx="139.213" cy="71.187" r="3.748" fill="#6a3f8f"/>
      </g>
      <g>
        <path d="M165.779,85.743c-2.577-1.207-5.155-1.639-7.732.476-2.407,1.869-4.946,5.714-7.732,6.955-.654.253-1.326.465-2.008.645h-18.001c-.682-.181-1.354-.392-2.008-.645-2.786-1.242-5.325-5.087-7.732-6.955-2.577-2.116-5.155-1.683-7.732-.476-3.522,1.947-5.611,4.64-7.732,8.962,2.117,4.319,4.21,7.02,7.732,8.963,2.577,1.207,5.155,1.639,7.732-.477,2.406-1.868,4.947-5.715,7.732-6.955.654-.253,1.326-.465,2.008-.646h18c.682.181,1.355.392,2.008.646,2.785,1.241,5.326,5.088,7.732,6.955,2.577,2.116,5.155,1.683,7.732.477,3.522-1.943,5.615-4.643,7.732-8.963-2.121-4.323-4.21-7.015-7.732-8.962Z" fill="#0c0d0b"/>
        <circle cx="115.722" cy="94.706" r="3.748" fill="#6a3f8f"/>
        <circle cx="161.948" cy="94.706" r="3.748" fill="#6a3f8f"/>
      </g>
      <g>
        <path d="M188.514,105.343c-2.577-1.207-5.155-1.639-7.732.476-2.407,1.869-4.946,5.714-7.732,6.955-.654.253-1.326.465-2.008.645h-18.001c-.682-.181-1.354-.392-2.008-.645-2.786-1.242-5.325-5.087-7.732-6.955-2.577-2.116-5.155-1.683-7.732-.476-3.522,1.947-5.611,4.64-7.732,8.962,2.117,4.319,4.21,7.02,7.732,8.963,2.577,1.207,5.155,1.639,7.732-.477,2.406-1.868,4.947-5.715,7.732-6.955.654-.253,1.326-.465,2.008-.646h18c.682.181,1.355.392,2.008.646,2.785,1.241,5.326,5.088,7.732,6.955,2.577,2.116,5.155,1.683,7.732.477,3.522-1.943,5.615-4.643,7.732-8.963-2.121-4.323-4.21-7.015-7.732-8.962Z" fill="#0c0d0b"/>
        <circle cx="138.457" cy="114.305" r="3.748" fill="#6a3f8f"/>
        <circle cx="184.683" cy="114.305" r="3.748" fill="#6a3f8f"/>
      </g>
      <g>
        <path d="M165.779,129.646c-2.577-1.207-5.155-1.639-7.732.476-2.407,1.869-4.946,5.714-7.732,6.955-.654.253-1.326.465-2.008.645h-18.001c-.682-.181-1.354-.392-2.008-.645-2.786-1.242-5.325-5.087-7.732-6.955-2.577-2.116-5.155-1.683-7.732-.476-3.522,1.947-5.611,4.64-7.732,8.962,2.117,4.319,4.21,7.02,7.732,8.963,2.577,1.207,5.155,1.639,7.732-.477,2.406-1.868,4.947-5.715,7.732-6.955.654-.253,1.326-.465,2.008-.646h18c.682.181,1.355.392,2.008.646,2.785,1.241,5.326,5.088,7.732,6.955,2.577,2.116,5.155,1.683,7.732.477,3.522-1.943,5.615-4.643,7.732-8.963-2.121-4.323-4.21-7.015-7.732-8.962Z" fill="#0c0d0b"/>
        <circle cx="115.722" cy="138.608" r="3.748" fill="#6a3f8f"/>
        <circle cx="161.948" cy="138.608" r="3.748" fill="#6a3f8f"/>
      </g>
      <path d="M139.141,1c-7.763,0-14.055,6.293-14.055,14.055s6.293,14.055,14.055,14.055,14.055-6.293,14.055-14.055-6.293-14.055-14.055-14.055ZM139.141,24.425c-5.175,0-9.37-4.195-9.37-9.37s4.195-9.37,9.37-9.37,9.37,4.195,9.37,9.37-4.195,9.37-9.37,9.37Z" fill="#0c0d0b"/>
      <circle cx="139.141" cy="15.055" r="4.373" fill="#8045b2"/>
    </g>
  </g>
</svg>