<?xml version="1.0" encoding="UTF-8"?>
<svg xmlns="http://www.w3.org/2000/svg" width="100" height="100" viewBox="0 0 100 100">
  <g id="Tallo">
    <g>
      <line x1="49.458" y1="99.895" x2="49.458" y2="21.888" fill="none" stroke="#0c0d0b" stroke-miterlimit="10" stroke-width=".442"/>
      <path d="M36.081,35.914v13.808c0,1.296,1.051,2.347,2.347,2.347h18.586c1.296,0,2.347-1.051,2.347-2.347v-13.808" fill="none" stroke="#0c0d0b" stroke-miterlimit="10" stroke-width=".221"/>
      <path d="M38.733,61.189v15.087c0,.59.478,1.068,1.068,1.068h9.58c.283,0,.555.113.755.313l4.758,4.758c.673.673,1.824.196,1.824-.755v-25.843" fill="none" stroke="#0c0d0b" stroke-linejoin="round" stroke-width=".221"/>
    </g>
  </g>
  <g id="Hojas">
    <g>
      <line x1="42.918" y1="37.645" x2="55.843" y2="37.645" fill="#0c0d0b" stroke="#000" stroke-miterlimit="10" stroke-width=".375"/>
      <path d="M42.988,39.054c-.778,0-1.409-.631-1.409-1.409s.631-1.409,1.409-1.409,1.409.631,1.409,1.409-.631,1.409-1.409,1.409Z" fill="#0c0d0b"/>
      <path d="M55.772,39.054c.778,0,1.409-.631,1.409-1.409s-.631-1.409-1.409-1.409-1.409.631-1.409,1.409.631,1.409,1.409,1.409Z" fill="#0c0d0b"/>
    </g>
    <g>
      <line x1="42.918" y1="45.29" x2="55.843" y2="45.29" fill="#0c0d0b" stroke="#000" stroke-miterlimit="10" stroke-width=".375"/>
      <path d="M42.988,46.698c-.778,0-1.409-.631-1.409-1.409s.631-1.409,1.409-1.409,1.409.631,1.409,1.409-.631,1.409-1.409,1.409Z" fill="#0c0d0b"/>
      <path d="M55.772,46.698c.778,0,1.409-.631,1.409-1.409s-.631-1.409-1.409-1.409-1.409.631-1.409,1.409.631,1.409,1.409,1.409Z" fill="#0c0d0b"/>
    </g>
    <g>
      <line x1="44.856" y1="63.91" x2="53.904" y2="63.91" fill="#0c0d0b" stroke="#000" stroke-miterlimit="10" stroke-width=".262"/>
      <path d="M44.906,64.896c-.544,0-.986-.442-.986-.986s.442-.986.986-.986.986.442.986.986-.442.986-.986.986Z" fill="#0c0d0b"/>
      <path d="M53.855,64.896c.544,0,.986-.442.986-.986s-.442-.986-.986-.986-.986.442-.986.986.442.986.986.986Z" fill="#0c0d0b"/>
    </g>
    <g>
      <line x1="44.856" y1="69.262" x2="53.904" y2="69.262" fill="#0c0d0b" stroke="#000" stroke-miterlimit="10" stroke-width=".262"/>
      <path d="M44.906,70.248c-.544,0-.986-.442-.986-.986s.442-.986.986-.986.986.442.986.986-.442.986-.986.986Z" fill="#0c0d0b"/>
      <path d="M53.855,70.248c.544,0,.986-.442.986-.986s-.442-.986-.986-.986-.986.442-.986.986.442.986.986.986Z" fill="#0c0d0b"/>
    </g>
    <g>
      <line x1="31.595" y1="42.224" x2="40.643" y2="42.224" fill="#0c0d0b" stroke="#000" stroke-miterlimit="10" stroke-width=".262"/>
      <path d="M31.644,43.21c-.544,0-.986-.442-.986-.986s.442-.986.986-.986.986.442.986.986-.442.986-.986.986Z" fill="#0c0d0b"/>
      <path d="M40.593,43.21c.544,0,.986-.442.986-.986s-.442-.986-.986-.986-.986.442-.986.986.442.986.986.986Z" fill="#0c0d0b"/>
    </g>
    <g>
      <line x1="31.595" y1="47.575" x2="40.643" y2="47.575" fill="#0c0d0b" stroke="#000" stroke-miterlimit="10" stroke-width=".262"/>
      <path d="M31.644,48.561c-.544,0-.986-.442-.986-.986s.442-.986.986-.986.986.442.986.986-.442.986-.986.986Z" fill="#0c0d0b"/>
      <path d="M40.593,48.561c.544,0,.986-.442.986-.986s-.442-.986-.986-.986-.986.442-.986.986.442.986.986.986Z" fill="#0c0d0b"/>
    </g>
    <g>
      <line x1="54.685" y1="42.692" x2="63.733" y2="42.692" fill="#0c0d0b" stroke="#000" stroke-miterlimit="10" stroke-width=".262"/>
      <path d="M54.735,43.678c-.544,0-.986-.442-.986-.986s.442-.986.986-.986.986.442.986.986-.442.986-.986.986Z" fill="#0c0d0b"/>
      <path d="M63.684,43.678c.544,0,.986-.442.986-.986s-.442-.986-.986-.986-.986.442-.986.986.442.986.986.986Z" fill="#0c0d0b"/>
    </g>
    <g>
      <line x1="54.685" y1="48.043" x2="63.733" y2="48.043" fill="#0c0d0b" stroke="#000" stroke-miterlimit="10" stroke-width=".262"/>
      <path d="M54.735,49.029c-.544,0-.986-.442-.986-.986s.442-.986.986-.986.986.442.986.986-.442.986-.986.986Z" fill="#0c0d0b"/>
      <path d="M63.684,49.029c.544,0,.986-.442.986-.986s-.442-.986-.986-.986-.986.442-.986.986.442.986.986.986Z" fill="#0c0d0b"/>
    </g>
    <g>
      <line x1="56.803" y1="56.991" x2="69.728" y2="56.991" fill="#0c0d0b" stroke="#000" stroke-miterlimit="10" stroke-width=".375"/>
      <path d="M56.873,58.399c-.778,0-1.409-.631-1.409-1.409s.631-1.409,1.409-1.409,1.409.631,1.409,1.409-.631,1.409-1.409,1.409Z" fill="#0c0d0b"/>
      <path d="M69.658,58.399c.778,0,1.409-.631,1.409-1.409s-.631-1.409-1.409-1.409-1.409.631-1.409,1.409.631,1.409,1.409,1.409Z" fill="#0c0d0b"/>
    </g>
    <g>
      <line x1="56.803" y1="64.636" x2="69.728" y2="64.636" fill="#0c0d0b" stroke="#000" stroke-miterlimit="10" stroke-width=".375"/>
      <path d="M56.873,66.044c-.778,0-1.409-.631-1.409-1.409s.631-1.409,1.409-1.409,1.409.631,1.409,1.409-.631,1.409-1.409,1.409Z" fill="#0c0d0b"/>
      <path d="M69.658,66.044c.778,0,1.409-.631,1.409-1.409s-.631-1.409-1.409-1.409-1.409.631-1.409,1.409.631,1.409,1.409,1.409Z" fill="#0c0d0b"/>
    </g>
    <g>
      <line x1="25.704" y1="61.359" x2="38.629" y2="61.359" fill="#0c0d0b" stroke="#000" stroke-miterlimit="10" stroke-width=".375"/>
      <path d="M25.774,62.768c-.778,0-1.409-.631-1.409-1.409s.631-1.409,1.409-1.409,1.409.631,1.409,1.409-.631,1.409-1.409,1.409Z" fill="#0c0d0b"/>
      <path d="M38.559,62.768c.778,0,1.409-.631,1.409-1.409s-.631-1.409-1.409-1.409-1.409.631-1.409,1.409.631,1.409,1.409,1.409Z" fill="#0c0d0b"/>
    </g>
    <g>
      <line x1="25.704" y1="67.6" x2="38.629" y2="67.6" fill="#0c0d0b" stroke="#000" stroke-miterlimit="10" stroke-width=".375"/>
      <path d="M25.774,69.009c-.778,0-1.409-.631-1.409-1.409s.631-1.409,1.409-1.409,1.409.631,1.409,1.409-.631,1.409-1.409,1.409Z" fill="#0c0d0b"/>
      <path d="M38.559,69.009c.778,0,1.409-.631,1.409-1.409s-.631-1.409-1.409-1.409-1.409.631-1.409,1.409.631,1.409,1.409,1.409Z" fill="#0c0d0b"/>
    </g>
    <g>
      <line x1="25.704" y1="73.373" x2="38.629" y2="73.373" fill="#0c0d0b" stroke="#000" stroke-miterlimit="10" stroke-width=".375"/>
      <path d="M25.774,74.781c-.778,0-1.409-.631-1.409-1.409s.631-1.409,1.409-1.409,1.409.631,1.409,1.409-.631,1.409-1.409,1.409Z" fill="#0c0d0b"/>
      <path d="M38.559,74.781c.778,0,1.409-.631,1.409-1.409s-.631-1.409-1.409-1.409-1.409.631-1.409,1.409.631,1.409,1.409,1.409Z" fill="#0c0d0b"/>
    </g>
  </g>
  <g id="Flores">
    <g>
      <path d="M61.488,6.358v14.038c0,1.055-.911,1.913-2.03,1.913h-2.864V1.16h-.198v21.149h-6.893V2.437h-.21v19.872h-8.448c-1.229,0-2.229-.943-2.229-2.102V6.358h-.204v13.849c0,1.271,1.091,2.306,2.433,2.306h8.448v7.316h.21v-7.172l6.231,6.231c.098.098.223.149.353.149.065,0,.132-.013.196-.04.192-.079.311-.258.311-.465v-6.018h2.864c1.232,0,2.234-.95,2.234-2.117V6.358h-.204ZM56.396,28.531c0,.151-.098.245-.189.282-.091.038-.227.04-.333-.066l-6.235-6.235h6.756v6.018Z" fill="#0c0d0b"/>
      <g>
        <path d="M50.981,12.6c.002.034.004.068.004.103,0,.861-.698,1.559-1.559,1.559s-1.559-.698-1.559-1.559c0-.035.002-.069.004-.103-1.433.031-2.867.104-4.279.298,2.51,3.144,6.968,3.774,10.211,1.389.537-.402,1.025-.823,1.459-1.395-1.424-.182-2.85-.259-4.279-.292Z" fill="#0c0d0b"/>
        <circle cx="49.425" cy="12.754" r=".855" fill="#0c0d0b"/>
      </g>
      <g>
        <path d="M50.276,3.657c.001.019.002.037.002.056,0,.471-.382.852-.852.852s-.852-.382-.852-.852c0-.019,0-.038.002-.056-.783.017-1.567.057-2.339.163,1.372,1.718,3.809,2.063,5.582.759.293-.22.561-.45.797-.762-.778-.099-1.558-.142-2.339-.16Z" fill="#0c0d0b"/>
        <circle cx="49.425" cy="3.741" r=".467" fill="#0c0d0b"/>
      </g>
      <g>
        <path d="M50.276,6.624c.001.019.002.037.002.056,0,.471-.382.852-.852.852s-.852-.382-.852-.852c0-.019,0-.038.002-.056-.783.017-1.567.057-2.339.163,1.372,1.718,3.809,2.063,5.582.759.293-.22.561-.45.797-.762-.778-.099-1.558-.142-2.339-.16Z" fill="#0c0d0b"/>
        <circle cx="49.425" cy="6.708" r=".467" fill="#0c0d0b"/>
      </g>
      <g>
        <path d="M50.276,9.591c.001.019.002.037.002.056,0,.471-.382.852-.852.852s-.852-.382-.852-.852c0-.019,0-.038.002-.056-.783.017-1.567.057-2.339.163,1.372,1.718,3.809,2.063,5.582.759.293-.22.561-.45.797-.762-.778-.099-1.558-.142-2.339-.16Z" fill="#0c0d0b"/>
        <circle cx="49.425" cy="9.675" r=".467" fill="#0c0d0b"/>
      </g>
      <g>
        <path d="M57.184,3.58c.001.016.002.031.002.047,0,.394-.319.714-.714.714s-.714-.319-.714-.714c0-.016,0-.031.002-.047-.656.014-1.312.047-1.958.136,1.148,1.439,3.189,1.727,4.673.636.246-.184.469-.376.668-.638-.651-.083-1.304-.119-1.958-.134Z" fill="#0c0d0b"/>
        <circle cx="56.472" cy="3.65" r=".391" fill="#0c0d0b"/>
      </g>
      <g>
        <path d="M57.184,6.064c.001.016.002.031.002.047,0,.394-.319.714-.714.714s-.714-.319-.714-.714c0-.016,0-.031.002-.047-.656.014-1.312.047-1.958.136,1.148,1.439,3.189,1.727,4.673.636.246-.184.469-.376.668-.638-.651-.083-1.304-.119-1.958-.134Z" fill="#0c0d0b"/>
        <circle cx="56.472" cy="6.134" r=".391" fill="#0c0d0b"/>
      </g>
      <g>
        <path d="M57.184,8.548c.001.016.002.031.002.047,0,.394-.319.714-.714.714s-.714-.319-.714-.714c0-.016,0-.031.002-.047-.656.014-1.312.047-1.958.136,1.148,1.439,3.189,1.727,4.673.636.246-.184.469-.376.668-.638-.651-.083-1.304-.119-1.958-.134Z" fill="#0c0d0b"/>
        <circle cx="56.472" cy="8.618" r=".391" fill="#0c0d0b"/>
      </g>
      <g>
        <path d="M62.203,8.516c0,.013.001.027.001.041,0,.339-.275.615-.615.615s-.615-.275-.615-.615c0-.014,0-.027.001-.04-.565.012-1.13.041-1.686.117.989,1.239,2.746,1.487,4.024.547.211-.159.404-.324.575-.55-.561-.072-1.123-.102-1.686-.115Z" fill="#0c0d0b"/>
        <circle cx="61.59" cy="8.576" r=".337" fill="#0c0d0b"/>
      </g>
      <g>
        <path d="M62.203,10.655c0,.013.001.027.001.041,0,.339-.275.615-.615.615s-.615-.275-.615-.615c0-.014,0-.027.001-.04-.565.012-1.13.041-1.686.117.989,1.239,2.746,1.487,4.024.547.211-.159.404-.324.575-.55-.561-.072-1.123-.102-1.686-.115Z" fill="#0c0d0b"/>
        <circle cx="61.59" cy="10.715" r=".337" fill="#0c0d0b"/>
      </g>
      <g>
        <path d="M62.203,12.794c0,.013.001.027.001.041,0,.339-.275.615-.615.615s-.615-.275-.615-.615c0-.014,0-.027.001-.04-.565.012-1.13.041-1.686.117.989,1.239,2.746,1.487,4.024.547.211-.159.404-.324.575-.55-.561-.072-1.123-.102-1.686-.115Z" fill="#0c0d0b"/>
        <circle cx="61.59" cy="12.854" r=".337" fill="#0c0d0b"/>
      </g>
      <g>
        <path d="M40.077,15.419c.002.034.004.068.004.103,0,.861-.698,1.559-1.559,1.559s-1.559-.698-1.559-1.559c0-.035.002-.069.004-.103-1.433.031-2.867.104-4.279.298,2.51,3.144,6.968,3.774,10.211,1.389.537-.402,1.025-.823,1.459-1.395-1.424-.182-2.85-.259-4.279-.292Z" fill="#0c0d0b"/>
        <circle cx="38.521" cy="15.572" r=".855" fill="#0c0d0b"/>
      </g>
      <g>
        <path d="M39.372,6.476c.001.019.002.037.002.056,0,.471-.382.852-.852.852s-.852-.382-.852-.852c0-.019,0-.038.002-.056-.783.017-1.567.057-2.339.163,1.372,1.718,3.809,2.063,5.582.759.293-.22.561-.45.797-.762-.778-.099-1.558-.142-2.339-.16Z" fill="#0c0d0b"/>
        <circle cx="38.522" cy="6.56" r=".467" fill="#0c0d0b"/>
      </g>
      <g>
        <path d="M39.372,9.443c.001.019.002.037.002.056,0,.471-.382.852-.852.852s-.852-.382-.852-.852c0-.019,0-.038.002-.056-.783.017-1.567.057-2.339.163,1.372,1.718,3.809,2.063,5.582.759.293-.22.561-.45.797-.762-.778-.099-1.558-.142-2.339-.16Z" fill="#0c0d0b"/>
        <circle cx="38.522" cy="9.527" r=".467" fill="#0c0d0b"/>
      </g>
      <g>
        <path d="M39.372,12.41c.001.019.002.037.002.056,0,.471-.382.852-.852.852s-.852-.382-.852-.852c0-.019,0-.038.002-.056-.783.017-1.567.057-2.339.163,1.372,1.718,3.809,2.063,5.582.759.293-.22.561-.45.797-.762-.778-.099-1.558-.142-2.339-.16Z" fill="#0c0d0b"/>
        <circle cx="38.522" cy="12.494" r=".467" fill="#0c0d0b"/>
      </g>
      <circle cx="38.521" cy="15.587" r=".668" fill="#6a3f8f"/>
      <circle cx="56.472" cy="1.493" r=".964" fill="#6a3f8f"/>
      <g>
        <path d="M50.276.913c.001.019.002.037.002.056,0,.471-.382.852-.852.852s-.852-.382-.852-.852c0-.019,0-.038.002-.056-.783.017-1.567.057-2.339.163,1.372,1.718,3.809,2.063,5.582.759.293-.22.561-.45.797-.762-.778-.099-1.558-.142-2.339-.16Z" fill="#0c0d0b"/>
        <circle cx="49.425" cy=".997" r=".467" fill="#0c0d0b"/>
      </g>
      <circle cx="49.451" cy=".869" r=".964" fill="#6a3f8f"/>
      <circle cx="61.59" cy="6.092" r=".964" fill="#6a3f8f"/>
      <circle cx="49.425" cy="22.411" r="1.632" fill="#6a3f8f"/>
    </g>
    <circle cx="36.119" cy="34.837" r="3.12" fill="#8045b2"/>
    <circle cx="59.365" cy="34.837" r="3.12" fill="#8045b2"/>
    <circle cx="38.927" cy="61.359" r="3.12" fill="#8045b2"/>
    <circle cx="57.493" cy="57.615" r="3.12" fill="#8045b2"/>
  </g>
</svg>