<?xml version="1.0" encoding="UTF-8"?>
<svg xmlns="http://www.w3.org/2000/svg" width="100" height="100" viewBox="0 0 100 100">
  <g id="Tallo">
    <line x1="49.926" y1="100.895" x2="49.926" y2="22.15" fill="none" stroke="#0c0d0b" stroke-miterlimit="10" stroke-width=".446"/>
  </g>
  <g id="Hojas">
    <g>
      <ellipse cx="36.232" cy="31.158" rx="1.21" ry="1.206" fill="none" stroke="#0c0d0b" stroke-miterlimit="10" stroke-width=".09"/>
      <circle cx="36.232" cy="31.158" r=".77" fill="#6a3f8f"/>
      <ellipse cx="40.585" cy="30.623" rx="1.21" ry="1.206" fill="none" stroke="#0c0d0b" stroke-miterlimit="10" stroke-width=".09"/>
      <circle cx="40.585" cy="30.623" r=".77" fill="#0c0d0b"/>
      <ellipse cx="42.785" cy="32.816" rx="1.21" ry="1.206" fill="none" stroke="#0c0d0b" stroke-miterlimit="10" stroke-width=".09"/>
      <circle cx="42.785" cy="32.816" r=".77" fill="#0c0d0b"/>
      <ellipse cx="45.426" cy="35.448" rx="1.21" ry="1.206" fill="none" stroke="#0c0d0b" stroke-miterlimit="10" stroke-width=".09"/>
      <circle cx="45.426" cy="35.448" r=".77" fill="#0c0d0b"/>
      <ellipse cx="35.414" cy="35.557" rx="1.21" ry="1.206" fill="none" stroke="#0c0d0b" stroke-miterlimit="10" stroke-width=".09"/>
      <circle cx="35.414" cy="35.557" r=".77" fill="#0c0d0b"/>
      <ellipse cx="37.614" cy="37.75" rx="1.21" ry="1.206" fill="none" stroke="#0c0d0b" stroke-miterlimit="10" stroke-width=".09"/>
      <circle cx="37.614" cy="37.75" r=".77" fill="#0c0d0b"/>
      <ellipse cx="40.255" cy="40.381" rx="1.21" ry="1.206" fill="none" stroke="#0c0d0b" stroke-miterlimit="10" stroke-width=".09"/>
      <circle cx="40.255" cy="40.381" r=".77" fill="#8045b2"/>
      <ellipse cx="63.565" cy="31.158" rx="1.21" ry="1.206" fill="none" stroke="#0c0d0b" stroke-miterlimit="10" stroke-width=".09"/>
      <circle cx="63.565" cy="31.158" r=".77" fill="#0c0d0b"/>
      <ellipse cx="59.213" cy="30.623" rx="1.21" ry="1.206" fill="none" stroke="#0c0d0b" stroke-miterlimit="10" stroke-width=".09"/>
      <circle cx="59.213" cy="30.623" r=".77" fill="#0c0d0b"/>
      <ellipse cx="57.012" cy="32.816" rx="1.21" ry="1.206" fill="none" stroke="#0c0d0b" stroke-miterlimit="10" stroke-width=".09"/>
      <circle cx="57.012" cy="32.816" r=".77" fill="#ab6be0"/>
      <ellipse cx="54.372" cy="35.448" rx="1.21" ry="1.206" fill="none" stroke="#0c0d0b" stroke-miterlimit="10" stroke-width=".09"/>
      <circle cx="54.372" cy="35.448" r=".77" fill="#0c0d0b"/>
      <ellipse cx="64.384" cy="35.557" rx="1.21" ry="1.206" fill="none" stroke="#0c0d0b" stroke-miterlimit="10" stroke-width=".09"/>
      <circle cx="64.384" cy="35.557" r=".77" fill="#0c0d0b"/>
      <ellipse cx="62.183" cy="37.75" rx="1.21" ry="1.206" fill="none" stroke="#0c0d0b" stroke-miterlimit="10" stroke-width=".09"/>
      <circle cx="62.183" cy="37.75" r=".77" fill="#0c0d0b"/>
      <ellipse cx="59.543" cy="40.381" rx="1.21" ry="1.206" fill="none" stroke="#0c0d0b" stroke-miterlimit="10" stroke-width=".09"/>
      <circle cx="59.543" cy="40.381" r=".77" fill="#0c0d0b"/>
      <polygon points="63.148 35.626 63.148 35.516 59.358 35.516 62.747 32.139 62.669 32.061 59.27 35.448 59.27 31.835 59.16 31.835 59.16 35.557 57.07 37.641 57.07 34.028 56.96 34.028 56.96 37.75 54.43 40.272 54.43 36.659 54.32 36.659 54.32 40.382 51.226 43.465 48.541 43.465 45.447 40.382 45.447 36.659 45.337 36.659 45.337 40.272 42.807 37.75 42.807 34.028 42.697 34.028 42.697 37.641 40.607 35.557 40.607 31.835 40.497 31.835 40.497 35.448 37.098 32.061 37.02 32.139 40.409 35.516 36.619 35.516 36.619 35.626 40.519 35.626 42.61 37.709 38.819 37.709 38.819 37.818 42.72 37.818 45.25 40.34 41.46 40.34 41.46 40.45 45.36 40.45 48.512 43.591 48.512 43.684 51.263 43.684 51.263 43.583 54.407 40.45 58.307 40.45 58.307 40.34 54.517 40.34 57.047 37.818 60.948 37.818 60.948 37.709 57.157 37.709 59.248 35.626 63.148 35.626" fill="#0c0d0b"/>
    </g>
    <g>
      <ellipse cx="36.232" cy="46.749" rx="1.21" ry="1.206" fill="none" stroke="#0c0d0b" stroke-miterlimit="10" stroke-width=".09"/>
      <circle cx="36.232" cy="46.749" r=".77" fill="#6a3f8f"/>
      <ellipse cx="40.585" cy="46.215" rx="1.21" ry="1.206" fill="none" stroke="#0c0d0b" stroke-miterlimit="10" stroke-width=".09"/>
      <circle cx="40.585" cy="46.215" r=".77" fill="#0c0d0b"/>
      <ellipse cx="42.785" cy="48.408" rx="1.21" ry="1.206" fill="none" stroke="#0c0d0b" stroke-miterlimit="10" stroke-width=".09"/>
      <circle cx="42.785" cy="48.408" r=".77" fill="#0c0d0b"/>
      <ellipse cx="45.426" cy="51.039" rx="1.21" ry="1.206" fill="none" stroke="#0c0d0b" stroke-miterlimit="10" stroke-width=".09"/>
      <circle cx="45.426" cy="51.039" r=".77" fill="#0c0d0b"/>
      <ellipse cx="35.414" cy="51.149" rx="1.21" ry="1.206" fill="none" stroke="#0c0d0b" stroke-miterlimit="10" stroke-width=".09"/>
      <circle cx="35.414" cy="51.149" r=".77" fill="#0c0d0b"/>
      <ellipse cx="37.614" cy="53.341" rx="1.21" ry="1.206" fill="none" stroke="#0c0d0b" stroke-miterlimit="10" stroke-width=".09"/>
      <circle cx="37.614" cy="53.341" r=".77" fill="#0c0d0b"/>
      <ellipse cx="40.255" cy="55.973" rx="1.21" ry="1.206" fill="none" stroke="#0c0d0b" stroke-miterlimit="10" stroke-width=".09"/>
      <circle cx="40.255" cy="55.973" r=".77" fill="#8045b2"/>
      <ellipse cx="63.565" cy="46.749" rx="1.21" ry="1.206" fill="none" stroke="#0c0d0b" stroke-miterlimit="10" stroke-width=".09"/>
      <circle cx="63.565" cy="46.749" r=".77" fill="#0c0d0b"/>
      <ellipse cx="59.213" cy="46.215" rx="1.21" ry="1.206" fill="none" stroke="#0c0d0b" stroke-miterlimit="10" stroke-width=".09"/>
      <circle cx="59.213" cy="46.215" r=".77" fill="#0c0d0b"/>
      <ellipse cx="57.012" cy="48.408" rx="1.21" ry="1.206" fill="none" stroke="#0c0d0b" stroke-miterlimit="10" stroke-width=".09"/>
      <circle cx="57.012" cy="48.408" r=".77" fill="#ab6be0"/>
      <ellipse cx="54.372" cy="51.039" rx="1.21" ry="1.206" fill="none" stroke="#0c0d0b" stroke-miterlimit="10" stroke-width=".09"/>
      <circle cx="54.372" cy="51.039" r=".77" fill="#0c0d0b"/>
      <path d="M65.594,51.149c0,.666-.542,1.206-1.21,1.206s-1.21-.54-1.21-1.206.542-1.206,1.21-1.206,1.21.54,1.21,1.206Z" fill="none" stroke="#0c0d0b" stroke-miterlimit="10" stroke-width=".09"/>
      <circle cx="64.384" cy="51.149" r=".77" fill="#0c0d0b"/>
      <ellipse cx="62.183" cy="53.341" rx="1.21" ry="1.206" fill="none" stroke="#0c0d0b" stroke-miterlimit="10" stroke-width=".09"/>
      <path d="M62.954,53.341c0,.424-.345.767-.77.767s-.77-.344-.77-.767.345-.767.77-.767.77.344.77.767Z" fill="#0c0d0b"/>
      <ellipse cx="59.543" cy="55.973" rx="1.21" ry="1.206" fill="none" stroke="#0c0d0b" stroke-miterlimit="10" stroke-width=".09"/>
      <circle cx="59.543" cy="55.973" r=".77" fill="#0c0d0b"/>
      <polygon points="63.148 51.217 63.148 51.108 59.358 51.108 62.747 47.73 62.669 47.653 59.27 51.039 59.27 47.427 59.16 47.427 59.16 51.149 57.07 53.232 57.07 49.62 56.96 49.62 56.96 53.342 54.43 55.863 54.43 52.251 54.32 52.251 54.32 55.973 51.226 59.056 48.541 59.056 45.447 55.973 45.447 52.251 45.337 52.251 45.337 55.863 42.807 53.342 42.807 49.62 42.697 49.62 42.697 53.232 40.607 51.149 40.607 47.427 40.497 47.427 40.497 51.039 37.098 47.653 37.02 47.73 40.409 51.108 36.619 51.108 36.619 51.217 40.519 51.217 42.61 53.3 38.819 53.3 38.819 53.41 42.72 53.41 45.25 55.932 41.46 55.932 41.46 56.041 45.36 56.041 48.512 59.182 48.512 59.275 51.263 59.275 51.263 59.174 54.407 56.041 58.307 56.041 58.307 55.932 54.517 55.932 57.047 53.41 60.948 53.41 60.948 53.3 57.157 53.3 59.248 51.217 63.148 51.217" fill="#0c0d0b"/>
    </g>
    <g>
      <ellipse cx="36.232" cy="62.341" rx="1.21" ry="1.206" fill="none" stroke="#0c0d0b" stroke-miterlimit="10" stroke-width=".09"/>
      <circle cx="36.232" cy="62.341" r=".77" fill="#6a3f8f"/>
      <ellipse cx="40.585" cy="61.806" rx="1.21" ry="1.206" fill="none" stroke="#0c0d0b" stroke-miterlimit="10" stroke-width=".09"/>
      <circle cx="40.585" cy="61.806" r=".77" fill="#0c0d0b"/>
      <ellipse cx="42.785" cy="63.999" rx="1.21" ry="1.206" fill="none" stroke="#0c0d0b" stroke-miterlimit="10" stroke-width=".09"/>
      <circle cx="42.785" cy="63.999" r=".77" fill="#0c0d0b"/>
      <ellipse cx="45.426" cy="66.63" rx="1.21" ry="1.206" fill="none" stroke="#0c0d0b" stroke-miterlimit="10" stroke-width=".09"/>
      <circle cx="45.426" cy="66.63" r=".77" fill="#0c0d0b"/>
      <ellipse cx="35.414" cy="66.74" rx="1.21" ry="1.206" fill="none" stroke="#0c0d0b" stroke-miterlimit="10" stroke-width=".09"/>
      <circle cx="35.414" cy="66.74" r=".77" fill="#0c0d0b"/>
      <ellipse cx="37.614" cy="68.933" rx="1.21" ry="1.206" fill="none" stroke="#0c0d0b" stroke-miterlimit="10" stroke-width=".09"/>
      <circle cx="37.614" cy="68.933" r=".77" fill="#0c0d0b"/>
      <ellipse cx="40.255" cy="71.564" rx="1.21" ry="1.206" fill="none" stroke="#0c0d0b" stroke-miterlimit="10" stroke-width=".09"/>
      <circle cx="40.255" cy="71.564" r=".77" fill="#8045b2"/>
      <ellipse cx="63.565" cy="62.341" rx="1.21" ry="1.206" fill="none" stroke="#0c0d0b" stroke-miterlimit="10" stroke-width=".09"/>
      <circle cx="63.565" cy="62.341" r=".77" fill="#0c0d0b"/>
      <ellipse cx="59.213" cy="61.806" rx="1.21" ry="1.206" fill="none" stroke="#0c0d0b" stroke-miterlimit="10" stroke-width=".09"/>
      <circle cx="59.213" cy="61.806" r=".77" fill="#0c0d0b"/>
      <ellipse cx="57.012" cy="63.999" rx="1.21" ry="1.206" fill="none" stroke="#0c0d0b" stroke-miterlimit="10" stroke-width=".09"/>
      <circle cx="57.012" cy="63.999" r=".77" fill="#ab6be0"/>
      <ellipse cx="54.372" cy="66.63" rx="1.21" ry="1.206" fill="none" stroke="#0c0d0b" stroke-miterlimit="10" stroke-width=".09"/>
      <circle cx="54.372" cy="66.63" r=".77" fill="#0c0d0b"/>
      <ellipse cx="64.384" cy="66.74" rx="1.21" ry="1.206" fill="none" stroke="#0c0d0b" stroke-miterlimit="10" stroke-width=".09"/>
      <circle cx="64.384" cy="66.74" r=".77" fill="#0c0d0b"/>
      <ellipse cx="62.183" cy="68.933" rx="1.21" ry="1.206" fill="none" stroke="#0c0d0b" stroke-miterlimit="10" stroke-width=".09"/>
      <circle cx="62.183" cy="68.933" r=".77" fill="#0c0d0b"/>
      <ellipse cx="59.543" cy="71.564" rx="1.21" ry="1.206" fill="none" stroke="#0c0d0b" stroke-miterlimit="10" stroke-width=".09"/>
      <circle cx="59.543" cy="71.564" r=".77" fill="#0c0d0b"/>
      <polygon points="63.148 66.809 63.148 66.699 59.358 66.699 62.747 63.322 62.669 63.244 59.27 66.631 59.27 63.018 59.16 63.018 59.16 66.74 57.07 68.824 57.07 65.211 56.96 65.211 56.96 68.933 54.43 71.455 54.43 67.842 54.32 67.842 54.32 71.564 51.226 74.648 48.541 74.648 45.447 71.564 45.447 67.842 45.337 67.842 45.337 71.455 42.807 68.933 42.807 65.211 42.697 65.211 42.697 68.824 40.607 66.74 40.607 63.018 40.497 63.018 40.497 66.631 37.098 63.244 37.02 63.322 40.409 66.699 36.619 66.699 36.619 66.809 40.519 66.809 42.61 68.892 38.819 68.892 38.819 69.001 42.72 69.001 45.25 71.523 41.46 71.523 41.46 71.633 45.36 71.633 48.512 74.774 48.512 74.867 51.263 74.867 51.263 74.765 54.407 71.633 58.307 71.633 58.307 71.523 54.517 71.523 57.047 69.001 60.948 69.001 60.948 68.892 57.157 68.892 59.248 66.809 63.148 66.809" fill="#0c0d0b"/>
    </g>
    <g>
      <ellipse cx="36.232" cy="77.932" rx="1.21" ry="1.206" fill="none" stroke="#0c0d0b" stroke-miterlimit="10" stroke-width=".09"/>
      <circle cx="36.232" cy="77.932" r=".77" fill="#6a3f8f"/>
      <ellipse cx="40.585" cy="77.398" rx="1.21" ry="1.206" fill="none" stroke="#0c0d0b" stroke-miterlimit="10" stroke-width=".09"/>
      <circle cx="40.585" cy="77.398" r=".77" fill="#0c0d0b"/>
      <ellipse cx="42.785" cy="79.591" rx="1.21" ry="1.206" fill="none" stroke="#0c0d0b" stroke-miterlimit="10" stroke-width=".09"/>
      <circle cx="42.785" cy="79.591" r=".77" fill="#0c0d0b"/>
      <ellipse cx="45.426" cy="82.222" rx="1.21" ry="1.206" fill="none" stroke="#0c0d0b" stroke-miterlimit="10" stroke-width=".09"/>
      <circle cx="45.426" cy="82.222" r=".77" fill="#0c0d0b"/>
      <ellipse cx="35.414" cy="82.332" rx="1.21" ry="1.206" fill="none" stroke="#0c0d0b" stroke-miterlimit="10" stroke-width=".09"/>
      <circle cx="35.414" cy="82.332" r=".77" fill="#0c0d0b"/>
      <ellipse cx="37.614" cy="84.524" rx="1.21" ry="1.206" fill="none" stroke="#0c0d0b" stroke-miterlimit="10" stroke-width=".09"/>
      <circle cx="37.614" cy="84.524" r=".77" fill="#0c0d0b"/>
      <ellipse cx="40.255" cy="87.156" rx="1.21" ry="1.206" fill="none" stroke="#0c0d0b" stroke-miterlimit="10" stroke-width=".09"/>
      <circle cx="40.255" cy="87.156" r=".77" fill="#8045b2"/>
      <ellipse cx="63.565" cy="77.932" rx="1.21" ry="1.206" fill="none" stroke="#0c0d0b" stroke-miterlimit="10" stroke-width=".09"/>
      <circle cx="63.565" cy="77.932" r=".77" fill="#0c0d0b"/>
      <ellipse cx="59.213" cy="77.398" rx="1.21" ry="1.206" fill="none" stroke="#0c0d0b" stroke-miterlimit="10" stroke-width=".09"/>
      <circle cx="59.213" cy="77.398" r=".77" fill="#0c0d0b"/>
      <ellipse cx="57.012" cy="79.591" rx="1.21" ry="1.206" fill="none" stroke="#0c0d0b" stroke-miterlimit="10" stroke-width=".09"/>
      <circle cx="57.012" cy="79.591" r=".77" fill="#ab6be0"/>
      <ellipse cx="54.372" cy="82.222" rx="1.21" ry="1.206" fill="none" stroke="#0c0d0b" stroke-miterlimit="10" stroke-width=".09"/>
      <circle cx="54.372" cy="82.222" r=".77" fill="#0c0d0b"/>
      <ellipse cx="64.384" cy="82.332" rx="1.21" ry="1.206" fill="none" stroke="#0c0d0b" stroke-miterlimit="10" stroke-width=".09"/>
      <circle cx="64.384" cy="82.332" r=".77" fill="#0c0d0b"/>
      <ellipse cx="62.183" cy="84.524" rx="1.21" ry="1.206" fill="none" stroke="#0c0d0b" stroke-miterlimit="10" stroke-width=".09"/>
      <circle cx="62.183" cy="84.524" r=".77" fill="#0c0d0b"/>
      <ellipse cx="59.543" cy="87.156" rx="1.21" ry="1.206" fill="none" stroke="#0c0d0b" stroke-miterlimit="10" stroke-width=".09"/>
      <circle cx="59.543" cy="87.156" r=".77" fill="#0c0d0b"/>
      <polygon points="63.148 82.4 63.148 82.29 59.358 82.29 62.747 78.913 62.669 78.835 59.27 82.222 59.27 78.61 59.16 78.61 59.16 82.332 57.07 84.415 57.07 80.803 56.96 80.803 56.96 84.525 54.43 87.046 54.43 83.434 54.32 83.434 54.32 87.156 51.226 90.239 48.541 90.239 45.447 87.156 45.447 83.434 45.337 83.434 45.337 87.046 42.807 84.525 42.807 80.803 42.697 80.803 42.697 84.415 40.607 82.332 40.607 78.61 40.497 78.61 40.497 82.222 37.098 78.835 37.02 78.913 40.409 82.29 36.619 82.29 36.619 82.4 40.519 82.4 42.61 84.483 38.819 84.483 38.819 84.593 42.72 84.593 45.25 87.114 41.46 87.114 41.46 87.224 45.36 87.224 48.512 90.365 48.512 90.458 51.263 90.458 51.263 90.357 54.407 87.224 58.307 87.224 58.307 87.114 54.517 87.114 57.047 84.593 60.948 84.593 60.948 84.483 57.157 84.483 59.248 82.4 63.148 82.4" fill="#0c0d0b"/>
    </g>
  </g>
  <g id="Flores">
    <g>
      <path d="M62.22,7.419v14.171c0,1.065-.919,1.932-2.048,1.932h-2.889V2.172h-.2v21.349h-6.954V3.461h-.212v20.06h-8.523c-1.24,0-2.249-.952-2.249-2.122V7.419h-.206v13.98c0,1.283,1.101,2.327,2.455,2.327h8.523v7.385h.212v-7.24l6.287,6.29c.099.098.225.15.356.15.066,0,.133-.013.198-.04.194-.08.314-.26.314-.47v-6.075h2.889c1.243,0,2.254-.959,2.254-2.137V7.419h-.206ZM57.083,29.802c0,.152-.098.247-.19.285-.092.038-.229.041-.336-.067l-6.29-6.293h6.816v6.075Z" fill="#0c0d0b"/>
      <g>
        <path d="M51.62,13.72c.002.034.004.069.004.104,0,.869-.704,1.574-1.573,1.574s-1.573-.705-1.573-1.574c0-.035.002-.069.004-.104-1.445.031-2.893.105-4.317.301,2.532,3.173,7.03,3.81,10.302,1.402.541-.406,1.035-.83,1.472-1.408-1.436-.183-2.876-.262-4.317-.295Z" fill="#0c0d0b"/>
        <circle cx="50.05" cy="13.875" r=".863" transform="translate(36.059 63.893) rotate(-89.867)" fill="#0c0d0b"/>
      </g>
      <g>
        <path d="M50.908,4.693c.001.019.002.038.002.057,0,.475-.385.86-.86.86s-.86-.385-.86-.86c0-.019,0-.038.002-.057-.79.017-1.581.057-2.36.164,1.384,1.735,3.843,2.083,5.631.766.296-.222.566-.454.804-.77-.785-.1-1.572-.143-2.36-.161Z" fill="#0c0d0b"/>
        <circle cx="50.05" cy="4.777" r=".472" transform="translate(45.157 54.816) rotate(-89.867)" fill="#0c0d0b"/>
      </g>
      <g>
        <path d="M50.908,7.688c.001.019.002.038.002.057,0,.475-.385.86-.86.86s-.86-.385-.86-.86c0-.019,0-.038.002-.057-.79.017-1.581.057-2.36.164,1.384,1.735,3.843,2.083,5.631.766.296-.222.566-.454.804-.77-.785-.1-1.572-.143-2.36-.161Z" fill="#0c0d0b"/>
        <circle cx="50.05" cy="7.772" r=".472" transform="translate(42.162 57.805) rotate(-89.867)" fill="#0c0d0b"/>
      </g>
      <g>
        <path d="M50.908,10.683c.001.019.002.038.002.057,0,.475-.385.86-.86.86s-.86-.385-.86-.86c0-.019,0-.038.002-.057-.79.017-1.581.057-2.36.164,1.384,1.735,3.843,2.083,5.631.766.296-.222.566-.454.804-.77-.785-.1-1.572-.143-2.36-.161Z" fill="#0c0d0b"/>
        <circle cx="50.05" cy="10.767" r=".472" transform="translate(39.167 60.793) rotate(-89.867)" fill="#0c0d0b"/>
      </g>
      <g>
        <path d="M57.878,4.615c.001.016.002.032.002.047,0,.398-.322.72-.72.72s-.72-.323-.72-.72c0-.016,0-.032.002-.047-.661.014-1.324.048-1.976.138,1.159,1.452,3.217,1.744,4.715.642.248-.186.473-.38.674-.644-.657-.084-1.316-.12-1.976-.135Z" fill="#0c0d0b"/>
        <circle cx="57.16" cy="4.686" r=".395" transform="translate(52.341 61.834) rotate(-89.867)" fill="#0c0d0b"/>
      </g>
      <g>
        <path d="M57.878,7.122c.001.016.002.032.002.047,0,.398-.322.72-.72.72s-.72-.323-.72-.72c0-.016,0-.032.002-.047-.661.014-1.324.048-1.976.138,1.159,1.452,3.217,1.744,4.715.642.248-.186.473-.38.674-.644-.657-.084-1.316-.12-1.976-.135Z" fill="#0c0d0b"/>
        <circle cx="57.16" cy="7.193" r=".395" transform="translate(49.834 64.336) rotate(-89.867)" fill="#0c0d0b"/>
      </g>
      <g>
        <path d="M57.878,9.63c.001.016.002.032.002.047,0,.398-.322.72-.72.72s-.72-.323-.72-.72c0-.016,0-.032.002-.047-.661.014-1.324.048-1.976.138,1.159,1.452,3.217,1.744,4.715.642.248-.186.473-.38.674-.644-.657-.084-1.316-.12-1.976-.135Z" fill="#0c0d0b"/>
        <circle cx="57.16" cy="9.701" r=".395" transform="translate(47.326 66.837) rotate(-89.867)" fill="#0c0d0b"/>
      </g>
      <g>
        <path d="M62.942,9.597c0,.014.001.027.001.041,0,.343-.278.62-.62.62s-.62-.278-.62-.62c0-.014,0-.027.001-.041-.57.012-1.14.041-1.701.119.998,1.251,2.77,1.501,4.06.552.213-.16.408-.327.58-.555-.566-.072-1.133-.103-1.701-.116Z" fill="#0c0d0b"/>
        <circle cx="62.323" cy="9.658" r=".34" transform="translate(52.52 71.959) rotate(-89.867)" fill="#0c0d0b"/>
      </g>
      <g>
        <path d="M62.942,11.757c0,.014.001.027.001.041,0,.343-.278.62-.62.62s-.62-.278-.62-.62c0-.014,0-.027.001-.041-.57.012-1.14.041-1.701.119.998,1.251,2.77,1.501,4.06.552.213-.16.408-.327.58-.555-.566-.072-1.133-.103-1.701-.116Z" fill="#0c0d0b"/>
        <circle cx="62.323" cy="11.818" r=".34" transform="translate(50.361 74.113) rotate(-89.867)" fill="#0c0d0b"/>
      </g>
      <g>
        <path d="M62.942,13.916c0,.014.001.027.001.041,0,.343-.278.62-.62.62s-.62-.278-.62-.62c0-.014,0-.027.001-.041-.57.012-1.14.041-1.701.119.998,1.251,2.77,1.501,4.06.552.213-.16.408-.327.58-.555-.566-.072-1.133-.103-1.701-.116Z" fill="#0c0d0b"/>
        <circle cx="62.323" cy="13.977" r=".34" transform="translate(48.202 76.267) rotate(-89.867)" fill="#0c0d0b"/>
      </g>
      <g>
        <path d="M40.619,16.566c.002.034.004.069.004.104,0,.869-.704,1.574-1.573,1.574s-1.573-.705-1.573-1.574c0-.035.002-.069.004-.104-1.445.031-2.893.105-4.317.301,2.532,3.173,7.03,3.81,10.302,1.402.541-.406,1.035-.83,1.472-1.408-1.436-.183-2.876-.262-4.317-.295Z" fill="#0c0d0b"/>
        <circle cx="39.05" cy="16.72" r=".863" transform="translate(22.239 55.731) rotate(-89.867)" fill="#0c0d0b"/>
      </g>
      <g>
        <path d="M39.908,7.538c.001.019.002.038.002.057,0,.475-.385.86-.86.86s-.86-.385-.86-.86c0-.019,0-.038.002-.057-.79.017-1.581.057-2.36.164,1.384,1.735,3.843,2.083,5.631.766.296-.222.566-.454.804-.77-.785-.1-1.572-.143-2.36-.161Z" fill="#0c0d0b"/>
        <circle cx="39.05" cy="7.623" r=".472" transform="translate(31.336 46.655) rotate(-89.867)" fill="#0c0d0b"/>
      </g>
      <g>
        <path d="M39.908,10.533c.001.019.002.038.002.057,0,.475-.385.86-.86.86s-.86-.385-.86-.86c0-.019,0-.038.002-.057-.79.017-1.581.057-2.36.164,1.384,1.735,3.843,2.083,5.631.766.296-.222.566-.454.804-.77-.785-.1-1.572-.143-2.36-.161Z" fill="#0c0d0b"/>
        <circle cx="39.05" cy="10.618" r=".472" transform="translate(28.341 49.643) rotate(-89.867)" fill="#0c0d0b"/>
      </g>
      <g>
        <path d="M39.908,13.528c.001.019.002.038.002.057,0,.475-.385.86-.86.86s-.86-.385-.86-.86c0-.019,0-.038.002-.057-.79.017-1.581.057-2.36.164,1.384,1.735,3.843,2.083,5.631.766.296-.222.566-.454.804-.77-.785-.1-1.572-.143-2.36-.161Z" fill="#0c0d0b"/>
        <circle cx="39.05" cy="13.613" r=".472" transform="translate(25.346 52.631) rotate(-89.867)" fill="#0c0d0b"/>
      </g>
      <circle cx="39.05" cy="16.735" r=".674" fill="#6a3f8f"/>
      <circle cx="57.159" cy="2.508" r=".973" fill="#6a3f8f"/>
      <g>
        <path d="M50.908,1.922c.001.019.002.038.002.057,0,.475-.385.86-.86.86s-.86-.385-.86-.86c0-.019,0-.038.002-.057-.79.017-1.581.057-2.36.164,1.384,1.735,3.843,2.083,5.631.766.296-.222.566-.454.804-.77-.785-.1-1.572-.143-2.36-.161Z" fill="#0c0d0b"/>
        <circle cx="50.05" cy="2.007" r=".472" transform="translate(47.927 52.052) rotate(-89.867)" fill="#0c0d0b"/>
      </g>
      <circle cx="50.076" cy="1.879" r=".973" fill="#6a3f8f"/>
      <circle cx="62.323" cy="7.151" r=".973" fill="#6a3f8f"/>
      <circle cx="50.05" cy="23.624" r="1.647" fill="#6a3f8f"/>
    </g>
  </g>
</svg>