<?xml version="1.0" encoding="UTF-8"?>
<svg xmlns="http://www.w3.org/2000/svg" width="275.651" height="450" viewBox="0 0 275.651 450">
  <g id="Tallo">
    <g>
      <line x1="139.142" y1="451.5" x2="139.142" y2="109.034" fill="none" stroke="#0c0d0b" stroke-miterlimit="10" stroke-width="1.942"/>
      <path d="M80.412,170.615v60.621c0,5.69,4.613,10.303,10.303,10.303h81.596c5.69,0,10.303-4.613,10.303-10.303v-60.621" fill="none" stroke="#0c0d0b" stroke-miterlimit="10" stroke-width=".971"/>
      <path d="M92.056,281.574v66.233c0,2.59,2.1,4.69,4.69,4.69h42.058c1.244,0,2.437.494,3.317,1.374l20.889,20.889c2.955,2.955,8.007.862,8.007-3.317v-113.454" fill="none" stroke="#0c0d0b" stroke-linejoin="round" stroke-width=".971"/>
    </g>
  </g>
  <g id="Hojas">
    <g>
      <line x1="149.761" y1="304.479" x2="189.482" y2="304.479" fill="#0c0d0b" stroke="#000" stroke-miterlimit="10" stroke-width="1.151"/>
      <path d="M149.978,308.808c-2.39,0-4.329-1.938-4.329-4.329s1.938-4.329,4.329-4.329,4.329,1.938,4.329,4.329-1.938,4.329-4.329,4.329Z" fill="#0c0d0b"/>
      <path d="M189.266,308.808c2.39,0,4.329-1.938,4.329-4.329s-1.938-4.329-4.329-4.329-4.329,1.938-4.329,4.329,1.938,4.329,4.329,4.329Z" fill="#0c0d0b"/>
    </g>
    <g>
      <line x1="151.131" y1="334.616" x2="190.852" y2="334.616" fill="#0c0d0b" stroke="#000" stroke-miterlimit="10" stroke-width="1.151"/>
      <path d="M151.348,338.945c-2.39,0-4.329-1.938-4.329-4.329s1.938-4.329,4.329-4.329,4.329,1.938,4.329,4.329-1.938,4.329-4.329,4.329Z" fill="#0c0d0b"/>
      <path d="M190.636,338.945c2.39,0,4.329-1.938,4.329-4.329s-1.938-4.329-4.329-4.329-4.329,1.938-4.329,4.329,1.938,4.329,4.329,4.329Z" fill="#0c0d0b"/>
    </g>
    <g>
      <line x1="51.524" y1="198.075" x2="108.268" y2="198.075" fill="#0c0d0b" stroke="#000" stroke-miterlimit="10" stroke-width="1.645"/>
      <path d="M51.833,204.259c-3.415,0-6.184-2.769-6.184-6.184s2.769-6.184,6.184-6.184,6.184,2.769,6.184,6.184-2.769,6.184-6.184,6.184Z" fill="#0c0d0b"/>
      <path d="M107.959,204.259c3.415,0,6.184-2.769,6.184-6.184s-2.769-6.184-6.184-6.184-6.184,2.769-6.184,6.184,2.769,6.184,6.184,6.184Z" fill="#0c0d0b"/>
    </g>
    <g>
      <line x1="109.058" y1="226.158" x2="165.802" y2="226.158" fill="#0c0d0b" stroke="#000" stroke-miterlimit="10" stroke-width="1.645"/>
      <path d="M109.367,232.341c-3.415,0-6.184-2.769-6.184-6.184s2.769-6.184,6.184-6.184,6.184,2.769,6.184,6.184-2.769,6.184-6.184,6.184Z" fill="#0c0d0b"/>
      <path d="M165.493,232.341c3.415,0,6.184-2.769,6.184-6.184s-2.769-6.184-6.184-6.184-6.184,2.769-6.184,6.184,2.769,6.184,6.184,6.184Z" fill="#0c0d0b"/>
    </g>
    <g>
      <line x1="63.853" y1="324.103" x2="120.597" y2="324.103" fill="#0c0d0b" stroke="#000" stroke-miterlimit="10" stroke-width="1.645"/>
      <path d="M64.162,330.286c-3.415,0-6.184-2.769-6.184-6.184s2.769-6.184,6.184-6.184,6.184,2.769,6.184,6.184-2.769,6.184-6.184,6.184Z" fill="#0c0d0b"/>
      <path d="M120.287,330.286c3.415,0,6.184-2.769,6.184-6.184s-2.769-6.184-6.184-6.184-6.184,2.769-6.184,6.184,2.769,6.184,6.184,6.184Z" fill="#0c0d0b"/>
    </g>
    <g>
      <g>
        <path d="M103.333,288.268c.016-.243.027-.487.027-.734,0-6.15-4.985-11.135-11.135-11.135s-11.135,4.985-11.135,11.135c0,.247.011.491.027.734-10.23-.219-20.474-.74-30.558-2.128,17.92-22.448,49.755-26.952,72.916-9.916,3.832,2.872,7.322,5.874,10.417,9.959-10.165,1.297-20.353,1.853-30.558,2.086Z" fill="#0c0d0b"/>
        <circle cx="92.225" cy="287.175" r="6.106" transform="translate(-102.877 57.153) rotate(-22.5)" fill="#0c0d0b"/>
      </g>
      <circle cx="92.225" cy="287.116" r="6.164" fill="#662d91"/>
    </g>
    <g>
      <g>
        <path d="M181.415,271.829c.016-.243.027-.487.027-.734,0-6.15-4.985-11.135-11.135-11.135s-11.135,4.985-11.135,11.135c0,.247.011.491.027.734-10.23-.219-20.474-.74-30.558-2.128,17.92-22.448,49.755-26.952,72.916-9.916,3.832,2.872,7.322,5.874,10.417,9.959-10.165,1.297-20.353,1.853-30.558,2.086Z" fill="#0c0d0b"/>
        <circle cx="170.307" cy="270.736" r="6.106" transform="translate(-90.642 85.782) rotate(-22.5)" fill="#0c0d0b"/>
      </g>
      <circle cx="170.307" cy="270.678" r="6.164" fill="#662d91"/>
    </g>
  </g>
  <g id="Flores">
    <g>
      <line x1="139.044" y1="138.486" x2="139.044" y2="23.603" fill="none" stroke="#0c0d0b" stroke-miterlimit="10" stroke-width="1.547"/>
      <g>
        <path d="M160.947,28.962c-2.252-1.054-4.503-1.432-6.755.416-2.103,1.633-4.321,4.992-6.755,6.077-.571.221-1.158.406-1.754.564h-15.727c-.596-.158-1.183-.343-1.754-.564-2.434-1.085-4.652-4.444-6.755-6.077-2.252-1.848-4.503-1.471-6.755-.416-3.077,1.701-4.903,4.054-6.755,7.83,1.849,3.774,3.678,6.133,6.755,7.83,2.252,1.054,4.504,1.432,6.755-.416,2.102-1.632,4.322-4.993,6.755-6.077.571-.221,1.159-.406,1.755-.564h15.726c.596.158,1.183.343,1.755.564,2.433,1.084,4.653,4.445,6.755,6.077,2.252,1.848,4.503,1.471,6.755.416,3.077-1.697,4.906-4.057,6.755-7.83-1.853-3.776-3.678-6.129-6.755-7.83Z" fill="#0c0d0b"/>
        <circle cx="117.214" cy="36.793" r="3.275" fill="#6a3f8f"/>
        <circle cx="157.6" cy="36.793" r="3.275" fill="#6a3f8f"/>
      </g>
      <g>
        <path d="M142.454,54.99c-2.252-1.054-4.503-1.432-6.755.416-2.103,1.633-4.321,4.992-6.755,6.077-.571.221-1.158.406-1.754.564h-15.727c-.596-.158-1.183-.343-1.754-.564-2.434-1.085-4.652-4.444-6.755-6.077-2.252-1.848-4.503-1.471-6.755-.416-3.077,1.701-4.903,4.054-6.755,7.83,1.849,3.774,3.678,6.133,6.755,7.83,2.252,1.054,4.504,1.432,6.755-.416,2.102-1.632,4.322-4.993,6.755-6.077.571-.221,1.159-.406,1.755-.564h15.726c.596.158,1.183.343,1.755.564,2.433,1.084,4.653,4.445,6.755,6.077,2.252,1.848,4.503,1.471,6.755.416,3.077-1.697,4.906-4.057,6.755-7.83-1.853-3.776-3.678-6.129-6.755-7.83Z" fill="#0c0d0b"/>
        <circle cx="98.721" cy="62.82" r="3.275" fill="#6a3f8f"/>
        <circle cx="139.107" cy="62.82" r="3.275" fill="#6a3f8f"/>
      </g>
      <g>
        <path d="M162.317,75.538c-2.252-1.054-4.503-1.432-6.755.416-2.103,1.633-4.321,4.992-6.755,6.077-.571.221-1.158.406-1.754.564h-15.727c-.596-.158-1.183-.343-1.754-.564-2.434-1.085-4.652-4.444-6.755-6.077-2.252-1.848-4.503-1.471-6.755-.416-3.077,1.701-4.903,4.054-6.755,7.83,1.849,3.774,3.678,6.133,6.755,7.83,2.252,1.054,4.504,1.432,6.755-.416,2.102-1.632,4.322-4.993,6.755-6.077.571-.221,1.159-.406,1.755-.564h15.726c.596.158,1.183.343,1.755.564,2.433,1.084,4.653,4.445,6.755,6.077,2.252,1.848,4.503,1.471,6.755.416,3.077-1.697,4.906-4.057,6.755-7.83-1.853-3.776-3.678-6.129-6.755-7.83Z" fill="#0c0d0b"/>
        <circle cx="118.584" cy="83.368" r="3.275" fill="#6a3f8f"/>
        <circle cx="158.97" cy="83.368" r="3.275" fill="#6a3f8f"/>
      </g>
      <g>
        <path d="M182.18,92.661c-2.252-1.054-4.503-1.432-6.755.416-2.103,1.633-4.321,4.992-6.755,6.077-.571.221-1.158.406-1.754.564h-15.727c-.596-.158-1.183-.343-1.754-.564-2.434-1.085-4.652-4.444-6.755-6.077-2.252-1.848-4.503-1.471-6.755-.416-3.077,1.701-4.903,4.054-6.755,7.83,1.849,3.774,3.678,6.133,6.755,7.83,2.252,1.054,4.504,1.432,6.755-.416,2.102-1.632,4.322-4.993,6.755-6.077.571-.221,1.159-.406,1.755-.564h15.726c.596.158,1.183.343,1.755.564,2.433,1.084,4.653,4.445,6.755,6.077,2.252,1.848,4.503,1.471,6.755.416,3.077-1.697,4.906-4.057,6.755-7.83-1.853-3.776-3.678-6.129-6.755-7.83Z" fill="#0c0d0b"/>
        <circle cx="138.447" cy="100.491" r="3.275" fill="#6a3f8f"/>
        <circle cx="178.833" cy="100.491" r="3.275" fill="#6a3f8f"/>
      </g>
      <g>
        <path d="M162.317,113.894c-2.252-1.054-4.503-1.432-6.755.416-2.103,1.633-4.321,4.992-6.755,6.077-.571.221-1.158.406-1.754.564h-15.727c-.596-.158-1.183-.343-1.754-.564-2.434-1.085-4.652-4.444-6.755-6.077-2.252-1.848-4.503-1.471-6.755-.416-3.077,1.701-4.903,4.054-6.755,7.83,1.849,3.774,3.678,6.133,6.755,7.83,2.252,1.054,4.504,1.432,6.755-.416,2.102-1.632,4.322-4.993,6.755-6.077.571-.221,1.159-.406,1.755-.564h15.726c.596.158,1.183.343,1.755.564,2.433,1.084,4.653,4.445,6.755,6.077,2.252,1.848,4.503,1.471,6.755.416,3.077-1.697,4.906-4.057,6.755-7.83-1.853-3.776-3.678-6.129-6.755-7.83Z" fill="#0c0d0b"/>
        <circle cx="118.584" cy="121.724" r="3.275" fill="#6a3f8f"/>
        <circle cx="158.97" cy="121.724" r="3.275" fill="#6a3f8f"/>
      </g>
      <path d="M139.044,1.5c-6.782,0-12.28,5.498-12.28,12.28s5.498,12.28,12.28,12.28,12.28-5.498,12.28-12.28-5.498-12.28-12.28-12.28ZM139.044,21.966c-4.521,0-8.186-3.665-8.186-8.186s3.665-8.186,8.186-8.186,8.186,3.665,8.186,8.186-3.665,8.186-8.186,8.186Z" fill="#0c0d0b"/>
      <circle cx="139.044" cy="13.78" r="3.82" fill="#8045b2"/>
    </g>
    <g>
      <line x1="80.212" y1="182.322" x2="80.212" y2="124.88" fill="none" stroke="#0c0d0b" stroke-miterlimit="10" stroke-width=".774"/>
      <g>
        <path d="M91.164,127.56c-1.126-.527-2.252-.716-3.378.208-1.052.816-2.161,2.496-3.378,3.038-.286.111-.579.203-.877.282h-7.863c-.298-.079-.592-.171-.877-.282-1.217-.542-2.326-2.222-3.378-3.038-1.126-.924-2.252-.735-3.378-.208-1.539.851-2.451,2.027-3.378,3.915.925,1.887,1.839,3.067,3.378,3.915,1.126.527,2.252.716,3.378-.208,1.051-.816,2.161-2.496,3.378-3.038.286-.111.579-.203.877-.282h7.863c.298.079.592.171.877.282,1.217.542,2.326,2.222,3.378,3.038,1.126.924,2.252.735,3.378.208,1.538-.849,2.453-2.028,3.378-3.915-.926-1.888-1.839-3.064-3.378-3.915Z" fill="#0c0d0b"/>
        <circle cx="69.297" cy="131.475" r="1.637" fill="#6a3f8f"/>
        <circle cx="89.49" cy="131.475" r="1.637" fill="#6a3f8f"/>
      </g>
      <g>
        <path d="M81.917,140.574c-1.126-.527-2.252-.716-3.378.208-1.052.816-2.161,2.496-3.378,3.038-.286.111-.579.203-.877.282h-7.863c-.298-.079-.592-.171-.877-.282-1.217-.542-2.326-2.222-3.378-3.038-1.126-.924-2.252-.735-3.378-.208-1.539.851-2.451,2.027-3.378,3.915.925,1.887,1.839,3.067,3.378,3.915,1.126.527,2.252.716,3.378-.208,1.051-.816,2.161-2.496,3.378-3.038.286-.111.579-.203.877-.282h7.863c.298.079.592.171.877.282,1.217.542,2.326,2.222,3.378,3.038,1.126.924,2.252.735,3.378.208,1.538-.849,2.453-2.028,3.378-3.915-.926-1.888-1.839-3.064-3.378-3.915Z" fill="#0c0d0b"/>
        <circle cx="60.051" cy="144.489" r="1.637" fill="#6a3f8f"/>
        <circle cx="80.244" cy="144.489" r="1.637" fill="#6a3f8f"/>
      </g>
      <g>
        <path d="M91.849,150.848c-1.126-.527-2.252-.716-3.378.208-1.052.816-2.161,2.496-3.378,3.038-.286.111-.579.203-.877.282h-7.863c-.298-.079-.592-.171-.877-.282-1.217-.542-2.326-2.222-3.378-3.038-1.126-.924-2.252-.735-3.378-.208-1.539.851-2.451,2.027-3.378,3.915.925,1.887,1.839,3.067,3.378,3.915,1.126.527,2.252.716,3.378-.208,1.051-.816,2.161-2.496,3.378-3.038.286-.111.579-.203.877-.282h7.863c.298.079.592.171.877.282,1.217.542,2.326,2.222,3.378,3.038,1.126.924,2.252.735,3.378.208,1.538-.849,2.453-2.028,3.378-3.915-.926-1.888-1.839-3.064-3.378-3.915Z" fill="#0c0d0b"/>
        <circle cx="69.982" cy="154.763" r="1.637" fill="#6a3f8f"/>
        <circle cx="90.175" cy="154.763" r="1.637" fill="#6a3f8f"/>
      </g>
      <g>
        <path d="M101.78,159.409c-1.126-.527-2.252-.716-3.378.208-1.052.816-2.161,2.496-3.378,3.038-.286.111-.579.203-.877.282h-7.863c-.298-.079-.592-.171-.877-.282-1.217-.542-2.326-2.222-3.378-3.038-1.126-.924-2.252-.735-3.378-.208-1.539.851-2.451,2.027-3.378,3.915.925,1.887,1.839,3.067,3.378,3.915,1.126.527,2.252.716,3.378-.208,1.051-.816,2.161-2.496,3.378-3.038.286-.111.579-.203.877-.282h7.863c.298.079.592.171.877.282,1.217.542,2.326,2.222,3.378,3.038,1.126.924,2.252.735,3.378.208,1.538-.849,2.453-2.028,3.378-3.915-.926-1.888-1.839-3.064-3.378-3.915Z" fill="#0c0d0b"/>
        <circle cx="79.914" cy="163.324" r="1.637" fill="#6a3f8f"/>
        <circle cx="100.107" cy="163.324" r="1.637" fill="#6a3f8f"/>
      </g>
      <g>
        <path d="M91.849,170.026c-1.126-.527-2.252-.716-3.378.208-1.052.816-2.161,2.496-3.378,3.038-.286.111-.579.203-.877.282h-7.863c-.298-.079-.592-.171-.877-.282-1.217-.542-2.326-2.222-3.378-3.038-1.126-.924-2.252-.735-3.378-.208-1.539.851-2.451,2.027-3.378,3.915.925,1.887,1.839,3.067,3.378,3.915,1.126.527,2.252.716,3.378-.208,1.051-.816,2.161-2.496,3.378-3.038.286-.111.579-.203.877-.282h7.863c.298.079.592.171.877.282,1.217.542,2.326,2.222,3.378,3.038,1.126.924,2.252.735,3.378.208,1.538-.849,2.453-2.028,3.378-3.915-.926-1.888-1.839-3.064-3.378-3.915Z" fill="#0c0d0b"/>
        <circle cx="69.982" cy="173.941" r="1.637" fill="#6a3f8f"/>
        <circle cx="90.175" cy="173.941" r="1.637" fill="#6a3f8f"/>
      </g>
      <path d="M80.212,113.829c-3.391,0-6.14,2.749-6.14,6.14s2.749,6.14,6.14,6.14,6.14-2.749,6.14-6.14-2.749-6.14-6.14-6.14ZM80.212,124.062c-2.261,0-4.093-1.833-4.093-4.093s1.833-4.093,4.093-4.093,4.093,1.833,4.093,4.093-1.833,4.093-4.093,4.093Z" fill="#0c0d0b"/>
      <circle cx="80.212" cy="119.969" r="1.91" fill="#8045b2"/>
    </g>
    <g>
      <line x1="182.267" y1="204.925" x2="182.267" y2="147.483" fill="none" stroke="#0c0d0b" stroke-miterlimit="10" stroke-width=".774"/>
      <g>
        <path d="M193.219,150.163c-1.126-.527-2.252-.716-3.378.208-1.052.816-2.161,2.496-3.378,3.038-.286.111-.579.203-.877.282h-7.863c-.298-.079-.592-.171-.877-.282-1.217-.542-2.326-2.222-3.378-3.038-1.126-.924-2.252-.735-3.378-.208-1.539.851-2.451,2.027-3.378,3.915.925,1.887,1.839,3.067,3.378,3.915,1.126.527,2.252.716,3.378-.208,1.051-.816,2.161-2.496,3.378-3.038.286-.111.579-.203.877-.282h7.863c.298.079.592.171.877.282,1.217.542,2.326,2.222,3.378,3.038,1.126.924,2.252.735,3.378.208,1.538-.849,2.453-2.028,3.378-3.915-.926-1.888-1.839-3.064-3.378-3.915Z" fill="#0c0d0b"/>
        <circle cx="171.352" cy="154.078" r="1.637" fill="#6a3f8f"/>
        <circle cx="191.545" cy="154.078" r="1.637" fill="#6a3f8f"/>
      </g>
      <g>
        <path d="M183.972,163.176c-1.126-.527-2.252-.716-3.378.208-1.052.816-2.161,2.496-3.378,3.038-.286.111-.579.203-.877.282h-7.863c-.298-.079-.592-.171-.877-.282-1.217-.542-2.326-2.222-3.378-3.038-1.126-.924-2.252-.735-3.378-.208-1.539.851-2.451,2.027-3.378,3.915.925,1.887,1.839,3.067,3.378,3.915,1.126.527,2.252.716,3.378-.208,1.051-.816,2.161-2.496,3.378-3.038.286-.111.579-.203.877-.282h7.863c.298.079.592.171.877.282,1.217.542,2.326,2.222,3.378,3.038,1.126.924,2.252.735,3.378.208,1.538-.849,2.453-2.028,3.378-3.915-.926-1.888-1.839-3.064-3.378-3.915Z" fill="#0c0d0b"/>
        <circle cx="162.105" cy="167.092" r="1.637" fill="#6a3f8f"/>
        <circle cx="182.299" cy="167.092" r="1.637" fill="#6a3f8f"/>
      </g>
      <g>
        <path d="M193.904,173.45c-1.126-.527-2.252-.716-3.378.208-1.052.816-2.161,2.496-3.378,3.038-.286.111-.579.203-.877.282h-7.863c-.298-.079-.592-.171-.877-.282-1.217-.542-2.326-2.222-3.378-3.038-1.126-.924-2.252-.735-3.378-.208-1.539.851-2.451,2.027-3.378,3.915.925,1.887,1.839,3.067,3.378,3.915,1.126.527,2.252.716,3.378-.208,1.051-.816,2.161-2.496,3.378-3.038.286-.111.579-.203.877-.282h7.863c.298.079.592.171.877.282,1.217.542,2.326,2.222,3.378,3.038,1.126.924,2.252.735,3.378.208,1.538-.849,2.453-2.028,3.378-3.915-.926-1.888-1.839-3.064-3.378-3.915Z" fill="#0c0d0b"/>
        <circle cx="172.037" cy="177.365" r="1.637" fill="#6a3f8f"/>
        <circle cx="192.23" cy="177.365" r="1.637" fill="#6a3f8f"/>
      </g>
      <g>
        <path d="M203.835,182.012c-1.126-.527-2.252-.716-3.378.208-1.052.816-2.161,2.496-3.378,3.038-.286.111-.579.203-.877.282h-7.863c-.298-.079-.592-.171-.877-.282-1.217-.542-2.326-2.222-3.378-3.038-1.126-.924-2.252-.735-3.378-.208-1.539.851-2.451,2.027-3.378,3.915.925,1.887,1.839,3.067,3.378,3.915,1.126.527,2.252.716,3.378-.208,1.051-.816,2.161-2.496,3.378-3.038.286-.111.579-.203.877-.282h7.863c.298.079.592.171.877.282,1.217.542,2.326,2.222,3.378,3.038,1.126.924,2.252.735,3.378.208,1.538-.849,2.453-2.028,3.378-3.915-.926-1.888-1.839-3.064-3.378-3.915Z" fill="#0c0d0b"/>
        <circle cx="181.968" cy="185.927" r="1.637" fill="#6a3f8f"/>
        <circle cx="202.162" cy="185.927" r="1.637" fill="#6a3f8f"/>
      </g>
      <g>
        <path d="M193.904,192.628c-1.126-.527-2.252-.716-3.378.208-1.052.816-2.161,2.496-3.378,3.038-.286.111-.579.203-.877.282h-7.863c-.298-.079-.592-.171-.877-.282-1.217-.542-2.326-2.222-3.378-3.038-1.126-.924-2.252-.735-3.378-.208-1.539.851-2.451,2.027-3.378,3.915.925,1.887,1.839,3.067,3.378,3.915,1.126.527,2.252.716,3.378-.208,1.051-.816,2.161-2.496,3.378-3.038.286-.111.579-.203.877-.282h7.863c.298.079.592.171.877.282,1.217.542,2.326,2.222,3.378,3.038,1.126.924,2.252.735,3.378.208,1.538-.849,2.453-2.028,3.378-3.915-.926-1.888-1.839-3.064-3.378-3.915Z" fill="#0c0d0b"/>
        <circle cx="172.037" cy="196.544" r="1.637" fill="#6a3f8f"/>
        <circle cx="192.23" cy="196.544" r="1.637" fill="#6a3f8f"/>
      </g>
      <path d="M182.267,136.432c-3.391,0-6.14,2.749-6.14,6.14s2.749,6.14,6.14,6.14,6.14-2.749,6.14-6.14-2.749-6.14-6.14-6.14ZM182.267,146.665c-2.261,0-4.093-1.833-4.093-4.093s1.833-4.093,4.093-4.093,4.093,1.833,4.093,4.093-1.833,4.093-4.093,4.093Z" fill="#0c0d0b"/>
      <circle cx="182.267" cy="142.571" r="1.91" fill="#8045b2"/>
    </g>
  </g>
</svg>