<?xml version="1.0" encoding="UTF-8"?>
<svg xmlns="http://www.w3.org/2000/svg" width="100" height="100" viewBox="0 0 100 100">
  <g id="Tallo">
    <line x1="49.94" y1="100.106" x2="49.94" y2="19.599" fill="none" stroke="#0c0d0b" stroke-miterlimit="10" stroke-width=".456"/>
  </g>
  <g id="Hojas">
    <g>
      <g>
        <path d="M51.687,35.157c.003-.04.004-.08.004-.121,0-1.012-.82-1.832-1.832-1.832s-1.832.82-1.832,1.832c0,.041.002.081.004.121-1.683-.036-3.369-.122-5.029-.35,2.949-3.694,8.188-4.435,11.999-1.632.631.473,1.205.967,1.714,1.639-1.673.213-3.349.305-5.029.343Z" fill="#0c0d0b"/>
        <circle cx="49.859" cy="34.977" r="1.005" fill="#0c0d0b"/>
      </g>
      <circle cx="49.859" cy="34.968" r="1.014" fill="#662d91"/>
    </g>
    <g>
      <g>
        <path d="M51.687,44.818c.003-.04.004-.08.004-.121,0-1.012-.82-1.832-1.832-1.832s-1.832.82-1.832,1.832c0,.041.002.081.004.121-1.683-.036-3.369-.122-5.029-.35,2.949-3.694,8.188-4.435,11.999-1.632.631.473,1.205.967,1.714,1.639-1.673.213-3.349.305-5.029.343Z" fill="#0c0d0b"/>
        <circle cx="49.859" cy="44.638" r="1.005" fill="#0c0d0b"/>
      </g>
      <circle cx="49.859" cy="44.629" r="1.014" fill="#662d91"/>
    </g>
    <g>
      <g>
        <path d="M51.687,54.479c.003-.04.004-.08.004-.121,0-1.012-.82-1.832-1.832-1.832s-1.832.82-1.832,1.832c0,.041.002.081.004.121-1.683-.036-3.369-.122-5.029-.35,2.949-3.694,8.188-4.435,11.999-1.632.631.473,1.205.967,1.714,1.639-1.673.213-3.349.305-5.029.343Z" fill="#0c0d0b"/>
        <circle cx="49.859" cy="54.299" r="1.005" fill="#0c0d0b"/>
      </g>
      <circle cx="49.859" cy="54.289" r="1.014" fill="#662d91"/>
    </g>
    <g>
      <g>
        <path d="M51.687,64.14c.003-.04.004-.08.004-.121,0-1.012-.82-1.832-1.832-1.832s-1.832.82-1.832,1.832c0,.041.002.081.004.121-1.683-.036-3.369-.122-5.029-.35,2.949-3.694,8.188-4.435,11.999-1.632.631.473,1.205.967,1.714,1.639-1.673.213-3.349.305-5.029.343Z" fill="#0c0d0b"/>
        <circle cx="49.859" cy="63.96" r="1.005" fill="#0c0d0b"/>
      </g>
      <circle cx="49.859" cy="63.95" r="1.014" fill="#662d91"/>
    </g>
    <g>
      <g>
        <path d="M51.687,73.801c.003-.04.004-.08.004-.121,0-1.012-.82-1.832-1.832-1.832s-1.832.82-1.832,1.832c0,.041.002.081.004.121-1.683-.036-3.369-.122-5.029-.35,2.949-3.694,8.188-4.435,11.999-1.632.631.473,1.205.967,1.714,1.639-1.673.213-3.349.305-5.029.343Z" fill="#0c0d0b"/>
        <circle cx="49.859" cy="73.621" r="1.005" fill="#0c0d0b"/>
      </g>
      <circle cx="49.859" cy="73.611" r="1.014" fill="#662d91"/>
    </g>
    <g>
      <g>
        <path d="M51.687,83.461c.003-.04.004-.08.004-.121,0-1.012-.82-1.832-1.832-1.832s-1.832.82-1.832,1.832c0,.041.002.081.004.121-1.683-.036-3.369-.122-5.029-.35,2.949-3.694,8.188-4.435,11.999-1.632.631.473,1.205.967,1.714,1.639-1.673.213-3.349.305-5.029.343Z" fill="#0c0d0b"/>
        <circle cx="49.859" cy="83.282" r="1.005" fill="#0c0d0b"/>
      </g>
      <circle cx="49.859" cy="83.272" r="1.014" fill="#662d91"/>
    </g>
  </g>
  <g id="Flores">
    <g>
      <line x1="49.917" y1="32.319" x2="49.917" y2="5.312" fill="none" stroke="#0c0d0b" stroke-miterlimit="10" stroke-width=".364"/>
      <g>
        <path d="M55.066,6.572c-.529-.248-1.059-.337-1.588.098-.494.384-1.016,1.174-1.588,1.429-.134.052-.272.095-.412.133h-3.697c-.14-.037-.278-.081-.412-.133-.572-.255-1.094-1.045-1.588-1.429-.529-.434-1.059-.346-1.588-.098-.723.4-1.152.953-1.588,1.841.435.887.865,1.442,1.588,1.841.529.248,1.059.337,1.588-.098.494-.384,1.016-1.174,1.588-1.428.134-.052.272-.095.412-.133h3.697c.14.037.278.081.412.133.572.255,1.094,1.045,1.588,1.428.529.434,1.059.346,1.588.098.723-.399,1.153-.954,1.588-1.841-.436-.888-.865-1.441-1.588-1.841Z" fill="#0c0d0b"/>
        <circle cx="44.785" cy="8.413" r=".77" fill="#6a3f8f"/>
        <circle cx="54.279" cy="8.413" r=".77" fill="#6a3f8f"/>
      </g>
      <g>
        <path d="M50.719,12.691c-.529-.248-1.059-.337-1.588.098-.494.384-1.016,1.174-1.588,1.429-.134.052-.272.095-.412.133h-3.697c-.14-.037-.278-.081-.412-.133-.572-.255-1.094-1.045-1.588-1.429-.529-.434-1.059-.346-1.588-.098-.723.4-1.152.953-1.588,1.841.435.887.865,1.442,1.588,1.841.529.248,1.059.337,1.588-.098.494-.384,1.016-1.174,1.588-1.428.134-.052.272-.095.412-.133h3.697c.14.037.278.081.412.133.572.255,1.094,1.045,1.588,1.428.529.434,1.059.346,1.588.098.723-.399,1.153-.954,1.588-1.841-.436-.888-.865-1.441-1.588-1.841Z" fill="#0c0d0b"/>
        <circle cx="40.438" cy="14.531" r=".77" fill="#6a3f8f"/>
        <circle cx="49.932" cy="14.531" r=".77" fill="#6a3f8f"/>
      </g>
      <g>
        <path d="M55.388,17.521c-.529-.248-1.059-.337-1.588.098-.494.384-1.016,1.174-1.588,1.429-.134.052-.272.095-.412.133h-3.697c-.14-.037-.278-.081-.412-.133-.572-.255-1.094-1.045-1.588-1.429-.529-.434-1.059-.346-1.588-.098-.723.4-1.152.953-1.588,1.841.435.887.865,1.442,1.588,1.841.529.248,1.059.337,1.588-.098.494-.384,1.016-1.174,1.588-1.428.134-.052.272-.095.412-.133h3.697c.14.037.278.081.412.133.572.255,1.094,1.045,1.588,1.428.529.434,1.059.346,1.588.098.723-.399,1.153-.954,1.588-1.841-.436-.888-.865-1.441-1.588-1.841Z" fill="#0c0d0b"/>
        <circle cx="45.107" cy="19.362" r=".77" fill="#6a3f8f"/>
        <circle cx="54.601" cy="19.362" r=".77" fill="#6a3f8f"/>
      </g>
      <g>
        <path d="M60.057,21.546c-.529-.248-1.059-.337-1.588.098-.494.384-1.016,1.174-1.588,1.429-.134.052-.272.095-.412.133h-3.697c-.14-.037-.278-.081-.412-.133-.572-.255-1.094-1.045-1.588-1.429-.529-.434-1.059-.346-1.588-.098-.723.4-1.152.953-1.588,1.841.435.887.865,1.442,1.588,1.841.529.248,1.059.337,1.588-.098.494-.384,1.016-1.174,1.588-1.428.134-.052.272-.095.412-.133h3.697c.14.037.278.081.412.133.572.255,1.094,1.045,1.588,1.428.529.434,1.059.346,1.588.098.723-.399,1.153-.954,1.588-1.841-.436-.888-.865-1.441-1.588-1.841Z" fill="#0c0d0b"/>
        <circle cx="49.776" cy="23.387" r=".77" fill="#6a3f8f"/>
        <circle cx="59.27" cy="23.387" r=".77" fill="#6a3f8f"/>
      </g>
      <g>
        <path d="M55.388,26.538c-.529-.248-1.059-.337-1.588.098-.494.384-1.016,1.174-1.588,1.429-.134.052-.272.095-.412.133h-3.697c-.14-.037-.278-.081-.412-.133-.572-.255-1.094-1.045-1.588-1.429-.529-.434-1.059-.346-1.588-.098-.723.4-1.152.953-1.588,1.841.435.887.865,1.442,1.588,1.841.529.248,1.059.337,1.588-.098.494-.384,1.016-1.174,1.588-1.428.134-.052.272-.095.412-.133h3.697c.14.037.278.081.412.133.572.255,1.094,1.045,1.588,1.428.529.434,1.059.346,1.588.098.723-.399,1.153-.954,1.588-1.841-.436-.888-.865-1.441-1.588-1.841Z" fill="#0c0d0b"/>
        <circle cx="45.107" cy="28.379" r=".77" fill="#6a3f8f"/>
        <circle cx="54.601" cy="28.379" r=".77" fill="#6a3f8f"/>
      </g>
      <path d="M49.917.116c-1.594,0-2.887,1.292-2.887,2.887s1.292,2.887,2.887,2.887,2.887-1.292,2.887-2.887S51.511.116,49.917.116ZM49.917,4.927c-1.063,0-1.924-.862-1.924-1.924s.862-1.924,1.924-1.924,1.924.862,1.924,1.924-.862,1.924-1.924,1.924Z" fill="#0c0d0b"/>
      <circle cx="49.917" cy="3.003" r=".898" fill="#8045b2"/>
    </g>
  </g>
</svg>