<?xml version="1.0" encoding="UTF-8"?>
<svg xmlns="http://www.w3.org/2000/svg" width="275.651" height="450" viewBox="0 0 275.651 450">
  <g id="Tallo">
    <g>
      <line x1="138.279" y1="450.55" x2="138.279" y2="101.659" fill="none" stroke="#0c0d0b" stroke-miterlimit="10" stroke-width="1.978"/>
      <path d="M78.447,164.395v61.758c0,5.797,4.699,10.496,10.496,10.496h83.127c5.797,0,10.496-4.699,10.496-10.496v-61.758" fill="none" stroke="#0c0d0b" stroke-miterlimit="10" stroke-width=".989"/>
      <path d="M90.31,277.436v67.476c0,2.639,2.139,4.778,4.778,4.778h42.847c1.267,0,2.483.503,3.379,1.4l21.281,21.281c3.01,3.01,8.157.878,8.157-3.379v-115.583" fill="none" stroke="#0c0d0b" stroke-linejoin="round" stroke-width=".989"/>
    </g>
  </g>
  <g id="Hojas">
    <g>
      <g>
        <path d="M149.247,146.094c.016-.247.027-.496.027-.748,0-6.265-5.079-11.344-11.344-11.344s-11.344,5.079-11.344,11.344c0,.251.011.5.027.747-10.422-.223-20.858-.754-31.131-2.168,18.256-22.87,50.689-27.458,74.284-10.102,3.904,2.926,7.46,5.984,10.612,10.146-10.356,1.321-20.735,1.888-31.131,2.125Z" fill="#0c0d0b"/>
        <circle cx="137.931" cy="144.98" r="6.221" transform="translate(-44.982 63.82) rotate(-22.5)" fill="#0c0d0b"/>
      </g>
      <circle cx="137.931" cy="144.921" r="6.28" fill="#662d91"/>
    </g>
    <g>
      <g>
        <path d="M149.247,198.428c.016-.247.027-.496.027-.748,0-6.265-5.079-11.344-11.344-11.344s-11.344,5.079-11.344,11.344c0,.251.011.5.027.747-10.422-.223-20.858-.754-31.131-2.168,18.256-22.87,50.689-27.458,74.284-10.102,3.904,2.926,7.46,5.984,10.612,10.146-10.356,1.321-20.735,1.888-31.131,2.125Z" fill="#0c0d0b"/>
        <circle cx="137.931" cy="197.314" r="6.221" transform="translate(-65.009 67.803) rotate(-22.5)" fill="#0c0d0b"/>
      </g>
      <circle cx="137.931" cy="197.255" r="6.28" fill="#662d91"/>
    </g>
    <g>
      <g>
        <path d="M149.247,405.67c.016-.247.027-.496.027-.748,0-6.265-5.079-11.344-11.344-11.344s-11.344,5.079-11.344,11.344c0,.251.011.5.027.747-10.422-.223-20.858-.754-31.131-2.168,18.256-22.87,50.689-27.458,74.284-10.102,3.904,2.926,7.46,5.984,10.612,10.146-10.356,1.321-20.735,1.888-31.131,2.125Z" fill="#0c0d0b"/>
        <circle cx="137.931" cy="404.556" r="6.221" transform="translate(-144.317 83.579) rotate(-22.5)" fill="#0c0d0b"/>
      </g>
      <circle cx="137.931" cy="404.497" r="6.28" fill="#662d91"/>
    </g>
    <g>
      <g>
        <path d="M145.852,280.38c.011-.173.019-.347.019-.523,0-4.386-3.555-7.941-7.941-7.941s-7.941,3.555-7.941,7.941c0,.176.008.35.019.523-7.295-.156-14.6-.528-21.792-1.518,12.779-16.009,35.482-19.22,51.999-7.072,2.733,2.048,5.222,4.189,7.428,7.102-7.249.925-14.514,1.321-21.792,1.488Z" fill="#0c0d0b"/>
        <circle cx="137.931" cy="279.6" r="4.355" transform="translate(-96.499 74.067) rotate(-22.5)" fill="#0c0d0b"/>
      </g>
      <circle cx="137.931" cy="279.559" r="4.396" fill="#662d91"/>
    </g>
    <g>
      <g>
        <path d="M145.852,317.013c.011-.173.019-.347.019-.523,0-4.386-3.555-7.941-7.941-7.941s-7.941,3.555-7.941,7.941c0,.176.008.35.019.523-7.295-.156-14.6-.528-21.792-1.518,12.779-16.009,35.482-19.22,51.999-7.072,2.733,2.048,5.222,4.189,7.428,7.102-7.249.925-14.514,1.321-21.792,1.488Z" fill="#0c0d0b"/>
        <circle cx="137.931" cy="316.234" r="4.355" transform="translate(-110.518 76.855) rotate(-22.5)" fill="#0c0d0b"/>
      </g>
      <circle cx="137.931" cy="316.192" r="4.396" fill="#662d91"/>
    </g>
  </g>
  <g id="Flores">
    <g>
      <path d="M192.085,29.41v62.785c0,4.719-4.073,8.558-9.079,8.558h-12.808V6.161h-.886v94.592h-30.83V11.875h-.94v88.878h-37.783c-5.498,0-9.97-4.217-9.97-9.401V29.41h-.911v61.942c0,5.686,4.881,10.312,10.881,10.312h37.783v32.72h.94v-32.079l27.87,27.87c.437.436.999.665,1.579.665.292,0,.589-.058.877-.177.858-.355,1.391-1.153,1.391-2.082v-26.917h12.808c5.509,0,9.99-4.248,9.99-9.469V29.41h-.911ZM169.311,128.582c0,.674-.436,1.094-.844,1.263-.408.169-1.014.18-1.49-.296l-27.884-27.884h30.218v26.917Z" fill="#0c0d0b"/>
      <g>
        <path d="M145.09,57.331c.01.152.017.305.017.46,0,3.852-3.122,6.974-6.974,6.974s-6.974-3.122-6.974-6.974c0-.155.007-.307.017-.459-6.408.137-12.823.463-19.14,1.333,11.224,14.06,31.164,16.881,45.67,6.211,2.4-1.799,4.586-3.679,6.524-6.238-6.367-.812-12.748-1.161-19.14-1.307Z" fill="#0c0d0b"/>
        <circle cx="138.133" cy="58.016" r="3.825" transform="translate(31.672 163.432) rotate(-67.5)" fill="#0c0d0b"/>
      </g>
      <g>
        <path d="M141.936,17.333c.005.083.009.167.009.251,0,2.106-1.707,3.812-3.812,3.812s-3.812-1.707-3.812-3.812c0-.084.004-.168.009-.251-3.503.075-7.01.253-10.462.729,6.135,7.686,17.035,9.228,24.965,3.395,1.312-.983,2.507-2.011,3.566-3.41-3.48-.444-6.968-.634-10.462-.714Z" fill="#0c0d0b"/>
        <circle cx="138.133" cy="17.707" r="2.091" transform="translate(68.912 138.549) rotate(-67.5)" fill="#0c0d0b"/>
      </g>
      <g>
        <path d="M141.936,30.603c.005.083.009.167.009.251,0,2.106-1.707,3.812-3.812,3.812s-3.812-1.707-3.812-3.812c0-.084.004-.168.009-.251-3.503.075-7.01.253-10.462.729,6.135,7.686,17.035,9.228,24.965,3.395,1.312-.983,2.507-2.011,3.566-3.41-3.48-.444-6.968-.634-10.462-.714Z" fill="#0c0d0b"/>
        <circle cx="138.133" cy="30.977" r="2.091" transform="translate(56.652 146.741) rotate(-67.5)" fill="#0c0d0b"/>
      </g>
      <g>
        <path d="M141.936,43.873c.005.083.009.167.009.251,0,2.106-1.707,3.812-3.812,3.812s-3.812-1.707-3.812-3.812c0-.084.004-.168.009-.251-3.503.075-7.01.253-10.462.729,6.135,7.686,17.035,9.228,24.965,3.395,1.312-.983,2.507-2.011,3.566-3.41-3.48-.444-6.968-.634-10.462-.714Z" fill="#0c0d0b"/>
        <circle cx="138.133" cy="44.247" r="2.091" transform="translate(44.392 154.933) rotate(-67.5)" fill="#0c0d0b"/>
      </g>
      <g>
        <path d="M172.833,16.988c.005.07.008.14.008.21,0,1.763-1.429,3.192-3.192,3.192s-3.192-1.429-3.192-3.192c0-.071.003-.141.008-.21-2.932.063-5.868.212-8.759.61,5.137,6.435,14.262,7.725,20.9,2.842,1.098-.823,2.099-1.684,2.986-2.855-2.914-.372-5.834-.531-8.759-.598Z" fill="#0c0d0b"/>
        <circle cx="169.649" cy="17.301" r="1.75" fill="#0c0d0b"/>
      </g>
      <g>
        <path d="M172.833,28.097c.005.07.008.14.008.21,0,1.763-1.429,3.192-3.192,3.192s-3.192-1.429-3.192-3.192c0-.071.003-.141.008-.21-2.932.063-5.868.212-8.759.61,5.137,6.435,14.262,7.725,20.9,2.842,1.098-.823,2.099-1.684,2.986-2.855-2.914-.372-5.834-.531-8.759-.598Z" fill="#0c0d0b"/>
        <circle cx="169.649" cy="28.411" r="1.75" fill="#0c0d0b"/>
      </g>
      <g>
        <path d="M172.833,39.207c.005.07.008.14.008.21,0,1.763-1.429,3.192-3.192,3.192s-3.192-1.429-3.192-3.192c0-.071.003-.141.008-.21-2.932.063-5.868.212-8.759.61,5.137,6.435,14.262,7.725,20.9,2.842,1.098-.823,2.099-1.684,2.986-2.855-2.914-.372-5.834-.531-8.759-.598Z" fill="#0c0d0b"/>
        <circle cx="169.649" cy="39.52" r="1.75" fill="#0c0d0b"/>
      </g>
      <g>
        <path d="M195.282,39.063c.004.06.007.12.007.181,0,1.518-1.231,2.748-2.748,2.748s-2.748-1.231-2.748-2.748c0-.061.003-.121.007-.181-2.525.054-5.053.183-7.542.525,4.423,5.541,12.281,6.652,17.998,2.448.946-.709,1.807-1.45,2.571-2.458-2.509-.32-5.024-.457-7.543-.515Z" fill="#0c0d0b"/>
        <circle cx="192.54" cy="39.333" r="1.507" fill="#0c0d0b"/>
      </g>
      <g>
        <path d="M195.282,48.63c.004.06.007.12.007.181,0,1.518-1.231,2.748-2.748,2.748s-2.748-1.231-2.748-2.748c0-.061.003-.121.007-.181-2.525.054-5.053.183-7.542.525,4.423,5.541,12.281,6.652,17.998,2.448.946-.709,1.807-1.45,2.571-2.458-2.509-.32-5.024-.457-7.543-.515Z" fill="#0c0d0b"/>
        <circle cx="192.54" cy="48.9" r="1.507" fill="#0c0d0b"/>
      </g>
      <g>
        <path d="M195.282,58.197c.004.06.007.12.007.181,0,1.518-1.231,2.748-2.748,2.748s-2.748-1.231-2.748-2.748c0-.061.003-.121.007-.181-2.525.054-5.053.183-7.542.525,4.423,5.541,12.281,6.652,17.998,2.448.946-.709,1.807-1.45,2.571-2.458-2.509-.32-5.024-.457-7.543-.515Z" fill="#0c0d0b"/>
        <circle cx="192.54" cy="58.466" r="1.507" fill="#0c0d0b"/>
      </g>
      <g>
        <path d="M96.322,69.937c.01.152.017.305.017.46,0,3.852-3.122,6.974-6.974,6.974s-6.974-3.122-6.974-6.974c0-.155.007-.307.017-.459-6.408.137-12.823.463-19.14,1.333,11.224,14.06,31.164,16.881,45.67,6.211,2.4-1.799,4.586-3.679,6.524-6.238-6.367-.812-12.748-1.161-19.14-1.307Z" fill="#0c0d0b"/>
        <circle cx="89.365" cy="70.622" r="3.825" transform="translate(-10.08 126.159) rotate(-67.5)" fill="#0c0d0b"/>
      </g>
      <g>
        <path d="M93.168,29.939c.005.083.009.167.009.251,0,2.106-1.707,3.812-3.812,3.812s-3.812-1.707-3.812-3.812c0-.084.004-.168.009-.251-3.503.075-7.01.253-10.462.729,6.135,7.686,17.035,9.228,24.965,3.395,1.312-.983,2.507-2.011,3.566-3.41-3.48-.444-6.968-.634-10.462-.714Z" fill="#0c0d0b"/>
        <circle cx="89.365" cy="30.314" r="2.091" transform="translate(27.16 101.276) rotate(-67.5)" fill="#0c0d0b"/>
      </g>
      <g>
        <path d="M93.168,43.21c.005.083.009.167.009.251,0,2.106-1.707,3.812-3.812,3.812s-3.812-1.707-3.812-3.812c0-.084.004-.168.009-.251-3.503.075-7.01.253-10.462.729,6.135,7.686,17.035,9.228,24.965,3.395,1.312-.983,2.507-2.011,3.566-3.41-3.48-.444-6.968-.634-10.462-.714Z" fill="#0c0d0b"/>
        <circle cx="89.365" cy="43.584" r="2.091" transform="translate(14.9 109.467) rotate(-67.5)" fill="#0c0d0b"/>
      </g>
      <g>
        <path d="M93.168,56.48c.005.083.009.167.009.251,0,2.106-1.707,3.812-3.812,3.812s-3.812-1.707-3.812-3.812c0-.084.004-.168.009-.251-3.503.075-7.01.253-10.462.729,6.135,7.686,17.035,9.228,24.965,3.395,1.312-.983,2.507-2.011,3.566-3.41-3.48-.444-6.968-.634-10.462-.714Z" fill="#0c0d0b"/>
        <circle cx="89.365" cy="56.854" r="2.091" transform="translate(2.64 117.659) rotate(-67.5)" fill="#0c0d0b"/>
      </g>
      <circle cx="89.365" cy="70.687" r="2.986" fill="#6a3f8f"/>
      <circle cx="169.649" cy="7.654" r="4.313" fill="#6a3f8f"/>
      <g>
        <path d="M141.936,5.058c.005.083.009.167.009.251,0,2.106-1.707,3.812-3.812,3.812s-3.812-1.707-3.812-3.812c0-.084.004-.168.009-.251-3.503.075-7.01.253-10.462.729,6.135,7.686,17.035,9.228,24.965,3.395,1.312-.983,2.507-2.011,3.566-3.41-3.48-.444-6.968-.634-10.462-.714Z" fill="#0c0d0b"/>
        <circle cx="138.133" cy="5.432" r="2.091" transform="translate(80.253 130.971) rotate(-67.5)" fill="#0c0d0b"/>
      </g>
      <circle cx="138.249" cy="4.863" r="4.313" fill="#6a3f8f"/>
      <circle cx="192.54" cy="28.223" r="4.313" fill="#6a3f8f"/>
      <circle cx="138.133" cy="101.209" r="7.299" fill="#6a3f8f"/>
    </g>
    <circle cx="78.619" cy="164.459" r="8.373" fill="#8045b2"/>
    <circle cx="90.481" cy="275.407" r="8.373" fill="#8045b2"/>
    <circle cx="182.589" cy="164.459" r="8.373" fill="#8045b2"/>
    <circle cx="170.726" cy="253.078" r="8.373" fill="#8045b2"/>
  </g>
</svg>