<?xml version="1.0" encoding="UTF-8"?>
<svg xmlns="http://www.w3.org/2000/svg" width="100" height="100" viewBox="0 0 100 100">
  <g id="Tallo">
    <g>
      <line x1="50.007" y1="100.895" x2="50.007" y2="23.371" fill="none" stroke="#0c0d0b" stroke-miterlimit="10" stroke-width=".44"/>
      <path d="M36.713,37.311v13.723c0,1.288,1.044,2.332,2.332,2.332h18.471c1.288,0,2.332-1.044,2.332-2.332v-13.723" fill="none" stroke="#0c0d0b" stroke-miterlimit="10" stroke-width=".22"/>
      <path d="M39.349,62.429v14.993c0,.586.475,1.062,1.062,1.062h9.521c.282,0,.552.112.751.311l4.729,4.729c.669.669,1.813.195,1.813-.751v-25.683" fill="none" stroke="#0c0d0b" stroke-linejoin="round" stroke-width=".22"/>
    </g>
  </g>
  <g id="Hojas">
    <g>
      <g>
        <path d="M52.444,33.245c.004-.055.006-.11.006-.166,0-1.392-1.129-2.521-2.521-2.521s-2.521,1.129-2.521,2.521c0,.056.002.111.006.166-2.316-.05-4.635-.168-6.917-.482,4.057-5.082,11.263-6.101,16.506-2.245.867.65,1.658,1.33,2.358,2.254-2.301.293-4.607.419-6.917.472Z" fill="#0c0d0b"/>
        <circle cx="49.93" cy="32.997" r="1.382" fill="#0c0d0b"/>
      </g>
      <circle cx="49.93" cy="32.984" r="1.395" fill="#662d91"/>
    </g>
    <g>
      <g>
        <path d="M52.444,44.873c.004-.055.006-.11.006-.166,0-1.392-1.129-2.521-2.521-2.521s-2.521,1.129-2.521,2.521c0,.056.002.111.006.166-2.316-.05-4.635-.168-6.917-.482,4.057-5.082,11.263-6.101,16.506-2.245.867.65,1.658,1.33,2.358,2.254-2.301.293-4.607.419-6.917.472Z" fill="#0c0d0b"/>
        <circle cx="49.93" cy="44.626" r="1.382" fill="#0c0d0b"/>
      </g>
      <circle cx="49.93" cy="44.613" r="1.395" fill="#662d91"/>
    </g>
    <g>
      <g>
        <path d="M52.444,90.923c.004-.055.006-.11.006-.166,0-1.392-1.129-2.521-2.521-2.521s-2.521,1.129-2.521,2.521c0,.056.002.111.006.166-2.316-.05-4.635-.168-6.917-.482,4.057-5.082,11.263-6.101,16.506-2.245.867.65,1.658,1.33,2.358,2.254-2.301.293-4.607.419-6.917.472Z" fill="#0c0d0b"/>
        <circle cx="49.93" cy="90.675" r="1.382" fill="#0c0d0b"/>
      </g>
      <circle cx="49.93" cy="90.662" r="1.395" fill="#662d91"/>
    </g>
    <g>
      <g>
        <path d="M51.69,63.083c.003-.038.004-.077.004-.116,0-.974-.79-1.764-1.764-1.764s-1.764.79-1.764,1.764c0,.039.002.078.004.116-1.621-.035-3.244-.117-4.842-.337,2.84-3.557,7.884-4.271,11.554-1.571.607.455,1.16.931,1.651,1.578-1.611.205-3.225.294-4.842.331Z" fill="#0c0d0b"/>
        <circle cx="49.93" cy="62.91" r=".968" fill="#0c0d0b"/>
      </g>
      <circle cx="49.93" cy="62.901" r=".977" fill="#662d91"/>
    </g>
    <g>
      <g>
        <path d="M51.69,71.223c.003-.038.004-.077.004-.116,0-.974-.79-1.764-1.764-1.764s-1.764.79-1.764,1.764c0,.039.002.078.004.116-1.621-.035-3.244-.117-4.842-.337,2.84-3.557,7.884-4.271,11.554-1.571.607.455,1.16.931,1.651,1.578-1.611.205-3.225.294-4.842.331Z" fill="#0c0d0b"/>
        <circle cx="49.93" cy="71.05" r=".968" fill="#0c0d0b"/>
      </g>
      <circle cx="49.93" cy="71.041" r=".977" fill="#662d91"/>
    </g>
  </g>
  <g id="Flores">
    <g>
      <path d="M61.963,7.318v13.951c0,1.049-.905,1.902-2.017,1.902h-2.846V2.152h-.197v21.018h-6.851V3.422h-.209v19.749h-8.395c-1.222,0-2.215-.937-2.215-2.089V7.318h-.202v13.764c0,1.263,1.085,2.291,2.418,2.291h8.395v7.27h.209v-7.128l6.193,6.193c.097.097.222.148.351.148.065,0,.131-.013.195-.039.191-.079.309-.256.309-.463v-5.981h2.846c1.224,0,2.22-.944,2.22-2.104V7.318h-.202ZM56.903,29.354c0,.15-.097.243-.188.281-.091.038-.225.04-.331-.066l-6.196-6.196h6.715v5.981Z" fill="#0c0d0b"/>
      <g>
        <path d="M51.521,13.522c.002.034.004.068.004.102,0,.856-.694,1.55-1.55,1.55s-1.55-.694-1.55-1.55c0-.034.002-.068.004-.102-1.424.031-2.849.103-4.253.296,2.494,3.124,6.925,3.751,10.148,1.38.533-.4,1.019-.818,1.45-1.386-1.415-.18-2.833-.258-4.253-.29Z" fill="#0c0d0b"/>
        <circle cx="49.975" cy="13.674" r=".85" fill="#0c0d0b"/>
      </g>
      <g>
        <path d="M50.82,4.634c.001.018.002.037.002.056,0,.468-.379.847-.847.847s-.847-.379-.847-.847c0-.019,0-.037.002-.056-.778.017-1.558.056-2.325.162,1.363,1.708,3.785,2.05,5.547.754.292-.219.557-.447.792-.758-.773-.099-1.548-.141-2.325-.159Z" fill="#0c0d0b"/>
        <circle cx="49.975" cy="4.717" r=".465" fill="#0c0d0b"/>
      </g>
      <g>
        <path d="M50.82,7.583c.001.018.002.037.002.056,0,.468-.379.847-.847.847s-.847-.379-.847-.847c0-.019,0-.037.002-.056-.778.017-1.558.056-2.325.162,1.363,1.708,3.785,2.05,5.547.754.292-.219.557-.447.792-.758-.773-.099-1.548-.141-2.325-.159Z" fill="#0c0d0b"/>
        <circle cx="49.975" cy="7.666" r=".465" fill="#0c0d0b"/>
      </g>
      <g>
        <path d="M50.82,10.531c.001.018.002.037.002.056,0,.468-.379.847-.847.847s-.847-.379-.847-.847c0-.019,0-.037.002-.056-.778.017-1.558.056-2.325.162,1.363,1.708,3.785,2.05,5.547.754.292-.219.557-.447.792-.758-.773-.099-1.548-.141-2.325-.159Z" fill="#0c0d0b"/>
        <circle cx="49.975" cy="10.615" r=".465" fill="#0c0d0b"/>
      </g>
      <g>
        <path d="M57.685,4.557c.001.015.002.031.002.047,0,.392-.318.709-.709.709s-.709-.318-.709-.709c0-.016,0-.031.002-.047-.652.014-1.304.047-1.946.136,1.141,1.43,3.169,1.717,4.644.632.244-.183.466-.374.663-.634-.647-.083-1.296-.118-1.946-.133Z" fill="#0c0d0b"/>
        <circle cx="56.978" cy="4.627" r=".389" fill="#0c0d0b"/>
      </g>
      <g>
        <path d="M57.685,7.026c.001.015.002.031.002.047,0,.392-.318.709-.709.709s-.709-.318-.709-.709c0-.016,0-.031.002-.047-.652.014-1.304.047-1.946.136,1.141,1.43,3.169,1.717,4.644.632.244-.183.466-.374.663-.634-.647-.083-1.296-.118-1.946-.133Z" fill="#0c0d0b"/>
        <circle cx="56.978" cy="7.096" r=".389" fill="#0c0d0b"/>
      </g>
      <g>
        <path d="M57.685,9.495c.001.015.002.031.002.047,0,.392-.318.709-.709.709s-.709-.318-.709-.709c0-.016,0-.031.002-.047-.652.014-1.304.047-1.946.136,1.141,1.43,3.169,1.717,4.644.632.244-.183.466-.374.663-.634-.647-.083-1.296-.118-1.946-.133Z" fill="#0c0d0b"/>
        <circle cx="56.978" cy="9.564" r=".389" fill="#0c0d0b"/>
      </g>
      <g>
        <path d="M62.673,9.463c0,.013.001.027.001.04,0,.337-.273.611-.611.611s-.611-.273-.611-.611c0-.014,0-.027.001-.04-.561.012-1.123.041-1.676.117.983,1.231,2.729,1.478,3.999.544.21-.158.402-.322.571-.546-.558-.071-1.116-.102-1.676-.114Z" fill="#0c0d0b"/>
        <circle cx="62.064" cy="9.523" r=".335" fill="#0c0d0b"/>
      </g>
      <g>
        <path d="M62.673,11.588c0,.013.001.027.001.04,0,.337-.273.611-.611.611s-.611-.273-.611-.611c0-.014,0-.027.001-.04-.561.012-1.123.041-1.676.117.983,1.231,2.729,1.478,3.999.544.21-.158.402-.322.571-.546-.558-.071-1.116-.102-1.676-.114Z" fill="#0c0d0b"/>
        <circle cx="62.064" cy="11.648" r=".335" fill="#0c0d0b"/>
      </g>
      <g>
        <path d="M62.673,13.714c0,.013.001.027.001.04,0,.337-.273.611-.611.611s-.611-.273-.611-.611c0-.014,0-.027.001-.04-.561.012-1.123.041-1.676.117.983,1.231,2.729,1.478,3.999.544.21-.158.402-.322.571-.546-.558-.071-1.116-.102-1.676-.114Z" fill="#0c0d0b"/>
        <circle cx="62.064" cy="13.774" r=".335" fill="#0c0d0b"/>
      </g>
      <g>
        <path d="M40.685,16.323c.002.034.004.068.004.102,0,.856-.694,1.55-1.55,1.55s-1.55-.694-1.55-1.55c0-.034.002-.068.004-.102-1.424.031-2.849.103-4.253.296,2.494,3.124,6.925,3.751,10.148,1.38.533-.4,1.019-.818,1.45-1.386-1.415-.18-2.833-.258-4.253-.29Z" fill="#0c0d0b"/>
        <circle cx="39.139" cy="16.475" r=".85" fill="#0c0d0b"/>
      </g>
      <g>
        <path d="M39.984,7.435c.001.018.002.037.002.056,0,.468-.379.847-.847.847s-.847-.379-.847-.847c0-.019,0-.037.002-.056-.778.017-1.558.056-2.325.162,1.363,1.708,3.785,2.05,5.547.754.292-.219.557-.447.792-.758-.773-.099-1.548-.141-2.325-.159Z" fill="#0c0d0b"/>
        <circle cx="39.139" cy="7.519" r=".465" fill="#0c0d0b"/>
      </g>
      <g>
        <path d="M39.984,10.384c.001.018.002.037.002.056,0,.468-.379.847-.847.847s-.847-.379-.847-.847c0-.019,0-.037.002-.056-.778.017-1.558.056-2.325.162,1.363,1.708,3.785,2.05,5.547.754.292-.219.557-.447.792-.758-.773-.099-1.548-.141-2.325-.159Z" fill="#0c0d0b"/>
        <circle cx="39.139" cy="10.467" r=".465" fill="#0c0d0b"/>
      </g>
      <g>
        <path d="M39.984,13.333c.001.018.002.037.002.056,0,.468-.379.847-.847.847s-.847-.379-.847-.847c0-.019,0-.037.002-.056-.778.017-1.558.056-2.325.162,1.363,1.708,3.785,2.05,5.547.754.292-.219.557-.447.792-.758-.773-.099-1.548-.141-2.325-.159Z" fill="#0c0d0b"/>
        <circle cx="39.139" cy="13.416" r=".465" fill="#0c0d0b"/>
      </g>
      <circle cx="39.139" cy="16.49" r=".663" fill="#6a3f8f"/>
      <circle cx="56.978" cy="2.484" r=".958" fill="#6a3f8f"/>
      <g>
        <path d="M50.82,1.907c.001.018.002.037.002.056,0,.468-.379.847-.847.847s-.847-.379-.847-.847c0-.019,0-.037.002-.056-.778.017-1.558.056-2.325.162,1.363,1.708,3.785,2.05,5.547.754.292-.219.557-.447.792-.758-.773-.099-1.548-.141-2.325-.159Z" fill="#0c0d0b"/>
        <circle cx="49.975" cy="1.99" r=".465" fill="#0c0d0b"/>
      </g>
      <circle cx="50.001" cy="1.863" r=".958" fill="#6a3f8f"/>
      <circle cx="62.064" cy="7.054" r=".958" fill="#6a3f8f"/>
      <circle cx="49.975" cy="23.271" r="1.622" fill="#6a3f8f"/>
    </g>
    <circle cx="36.751" cy="37.326" r="1.861" fill="#8045b2"/>
    <circle cx="39.387" cy="61.978" r="1.861" fill="#8045b2"/>
    <circle cx="59.853" cy="37.326" r="1.861" fill="#8045b2"/>
    <circle cx="57.217" cy="57.017" r="1.861" fill="#8045b2"/>
  </g>
</svg>