<?xml version="1.0" encoding="UTF-8"?>
<svg xmlns="http://www.w3.org/2000/svg" width="100" height="100" viewBox="0 0 100 100">
  <g id="Tallo">
    <g>
      <line x1="50.139" y1="100.884" x2="50.139" y2="14.537" fill="none" stroke="#0c0d0b" stroke-miterlimit="10" stroke-width=".49"/>
      <path d="M38.439,63.393v16.7c0,.653.529,1.183,1.183,1.183h10.604c.314,0,.614.125.836.346l5.267,5.267c.745.745,2.019.217,2.019-.836v-28.606" fill="none" stroke="#0c0d0b" stroke-linejoin="round" stroke-width=".245"/>
    </g>
  </g>
  <g id="Hojas">
    <g>
      <line x1="58.688" y1="60.188" x2="68.703" y2="60.188" fill="#0c0d0b" stroke="#000" stroke-miterlimit="10" stroke-width=".29"/>
      <path d="M58.742,61.28c-.603,0-1.091-.489-1.091-1.091s.489-1.091,1.091-1.091,1.091.489,1.091,1.091-.489,1.091-1.091,1.091Z" fill="#0c0d0b"/>
      <path d="M68.648,61.28c.603,0,1.091-.489,1.091-1.091s-.489-1.091-1.091-1.091-1.091.489-1.091,1.091.489,1.091,1.091,1.091Z" fill="#0c0d0b"/>
    </g>
    <g>
      <line x1="58.688" y1="65.887" x2="68.703" y2="65.887" fill="#0c0d0b" stroke="#000" stroke-miterlimit="10" stroke-width=".29"/>
      <path d="M58.742,66.979c-.603,0-1.091-.489-1.091-1.091s.489-1.091,1.091-1.091,1.091.489,1.091,1.091-.489,1.091-1.091,1.091Z" fill="#0c0d0b"/>
      <path d="M68.648,66.979c.603,0,1.091-.489,1.091-1.091s-.489-1.091-1.091-1.091-1.091.489-1.091,1.091.489,1.091,1.091,1.091Z" fill="#0c0d0b"/>
    </g>
    <g>
      <line x1="58.688" y1="71.586" x2="68.703" y2="71.586" fill="#0c0d0b" stroke="#000" stroke-miterlimit="10" stroke-width=".29"/>
      <path d="M58.742,72.678c-.603,0-1.091-.489-1.091-1.091s.489-1.091,1.091-1.091,1.091.489,1.091,1.091-.489,1.091-1.091,1.091Z" fill="#0c0d0b"/>
      <path d="M68.648,72.678c.603,0,1.091-.489,1.091-1.091s-.489-1.091-1.091-1.091-1.091.489-1.091,1.091.489,1.091,1.091,1.091Z" fill="#0c0d0b"/>
    </g>
    <g>
      <line x1="58.688" y1="77.285" x2="68.703" y2="77.285" fill="#0c0d0b" stroke="#000" stroke-miterlimit="10" stroke-width=".29"/>
      <path d="M58.742,78.377c-.603,0-1.091-.489-1.091-1.091s.489-1.091,1.091-1.091,1.091.489,1.091,1.091-.489,1.091-1.091,1.091Z" fill="#0c0d0b"/>
      <path d="M68.648,78.377c.603,0,1.091-.489,1.091-1.091s-.489-1.091-1.091-1.091-1.091.489-1.091,1.091.489,1.091,1.091,1.091Z" fill="#0c0d0b"/>
    </g>
    <g>
      <line x1="58.688" y1="82.984" x2="68.703" y2="82.984" fill="#0c0d0b" stroke="#000" stroke-miterlimit="10" stroke-width=".29"/>
      <path d="M58.742,84.076c-.603,0-1.091-.489-1.091-1.091s.489-1.091,1.091-1.091,1.091.489,1.091,1.091-.489,1.091-1.091,1.091Z" fill="#0c0d0b"/>
      <path d="M68.648,84.076c.603,0,1.091-.489,1.091-1.091s-.489-1.091-1.091-1.091-1.091.489-1.091,1.091.489,1.091,1.091,1.091Z" fill="#0c0d0b"/>
    </g>
    <g>
      <line x1="28.294" y1="66.924" x2="38.308" y2="66.924" fill="#0c0d0b" stroke="#000" stroke-miterlimit="10" stroke-width=".29"/>
      <path d="M28.348,68.015c-.603,0-1.091-.489-1.091-1.091s.489-1.091,1.091-1.091,1.091.489,1.091,1.091-.489,1.091-1.091,1.091Z" fill="#0c0d0b"/>
      <path d="M38.254,68.015c.603,0,1.091-.489,1.091-1.091s-.489-1.091-1.091-1.091-1.091.489-1.091,1.091.489,1.091,1.091,1.091Z" fill="#0c0d0b"/>
    </g>
    <g>
      <line x1="28.294" y1="72.622" x2="38.308" y2="72.622" fill="#0c0d0b" stroke="#000" stroke-miterlimit="10" stroke-width=".29"/>
      <path d="M28.348,73.714c-.603,0-1.091-.489-1.091-1.091s.489-1.091,1.091-1.091,1.091.489,1.091,1.091-.489,1.091-1.091,1.091Z" fill="#0c0d0b"/>
      <path d="M38.254,73.714c.603,0,1.091-.489,1.091-1.091s-.489-1.091-1.091-1.091-1.091.489-1.091,1.091.489,1.091,1.091,1.091Z" fill="#0c0d0b"/>
    </g>
    <g>
      <line x1="28.294" y1="78.321" x2="38.308" y2="78.321" fill="#0c0d0b" stroke="#000" stroke-miterlimit="10" stroke-width=".29"/>
      <path d="M28.348,79.413c-.603,0-1.091-.489-1.091-1.091s.489-1.091,1.091-1.091,1.091.489,1.091,1.091-.489,1.091-1.091,1.091Z" fill="#0c0d0b"/>
      <path d="M38.254,79.413c.603,0,1.091-.489,1.091-1.091s-.489-1.091-1.091-1.091-1.091.489-1.091,1.091.489,1.091,1.091,1.091Z" fill="#0c0d0b"/>
    </g>
    <g>
      <g>
        <path d="M40.27,64.208c.003-.043.005-.086.005-.13,0-1.085-.88-1.965-1.965-1.965s-1.965.88-1.965,1.965c0,.044.002.087.005.129-1.806-.039-3.613-.131-5.393-.376,3.163-3.962,8.782-4.757,12.869-1.75.676.507,1.292,1.037,1.838,1.758-1.794.229-3.592.327-5.393.368Z" fill="#0c0d0b"/>
        <circle cx="38.309" cy="64.015" r="1.078" fill="#0c0d0b"/>
      </g>
      <circle cx="38.309" cy="64.005" r="1.088" fill="#662d91"/>
    </g>
    <g>
      <g>
        <path d="M60.302,57.3c.003-.043.005-.086.005-.13,0-1.085-.88-1.965-1.965-1.965s-1.965.88-1.965,1.965c0,.044.002.087.005.129-1.806-.039-3.613-.131-5.393-.376,3.163-3.962,8.782-4.757,12.869-1.75.676.507,1.292,1.037,1.838,1.758-1.794.229-3.592.327-5.393.368Z" fill="#0c0d0b"/>
        <circle cx="58.342" cy="57.108" r="1.078" fill="#0c0d0b"/>
      </g>
      <circle cx="58.342" cy="57.097" r="1.088" fill="#662d91"/>
    </g>
    <g>
      <g>
        <path d="M52.013,42.794c.003-.043.005-.086.005-.13,0-1.085-.88-1.965-1.965-1.965s-1.965.88-1.965,1.965c0,.044.002.087.005.129-1.806-.039-3.613-.131-5.393-.376,3.163-3.962,8.782-4.757,12.869-1.75.676.507,1.292,1.037,1.838,1.758-1.794.229-3.592.327-5.393.368Z" fill="#0c0d0b"/>
        <circle cx="50.052" cy="42.601" r="1.078" fill="#0c0d0b"/>
      </g>
      <circle cx="50.052" cy="42.591" r="1.088" fill="#662d91"/>
    </g>
    <g>
      <g>
        <path d="M52.186,50.047c.003-.043.005-.086.005-.13,0-1.085-.88-1.965-1.965-1.965s-1.965.88-1.965,1.965c0,.044.002.087.005.129-1.806-.039-3.613-.131-5.393-.376,3.163-3.962,8.782-4.757,12.869-1.75.676.507,1.292,1.037,1.838,1.758-1.794.229-3.592.327-5.393.368Z" fill="#0c0d0b"/>
        <circle cx="50.225" cy="49.854" r="1.078" fill="#0c0d0b"/>
      </g>
      <circle cx="50.225" cy="49.844" r="1.088" fill="#662d91"/>
    </g>
    <g>
      <g>
        <path d="M52.013,90.112c.003-.043.005-.086.005-.13,0-1.085-.88-1.965-1.965-1.965s-1.965.88-1.965,1.965c0,.044.002.087.005.129-1.806-.039-3.613-.131-5.393-.376,3.163-3.962,8.782-4.757,12.869-1.75.676.507,1.292,1.037,1.838,1.758-1.794.229-3.592.327-5.393.368Z" fill="#0c0d0b"/>
        <circle cx="50.052" cy="89.919" r="1.078" fill="#0c0d0b"/>
      </g>
      <circle cx="50.052" cy="89.909" r="1.088" fill="#662d91"/>
    </g>
  </g>
  <g id="Flores">
    <g>
      <line x1="50.287" y1="35.433" x2="50.287" y2="6.467" fill="none" stroke="#0c0d0b" stroke-miterlimit="10" stroke-width=".39"/>
      <g>
        <path d="M55.809,7.818c-.568-.266-1.135-.361-1.703.105-.53.412-1.09,1.259-1.703,1.532-.144.056-.292.102-.442.142h-3.965c-.15-.04-.298-.086-.442-.142-.614-.274-1.173-1.12-1.703-1.532-.568-.466-1.135-.371-1.703-.105-.776.429-1.236,1.022-1.703,1.974.466.951.927,1.546,1.703,1.974.568.266,1.135.361,1.703-.105.53-.411,1.09-1.259,1.703-1.532.144-.056.292-.102.442-.142h3.965c.15.04.298.086.442.142.613.273,1.173,1.121,1.703,1.532.568.466,1.135.371,1.703.105.776-.428,1.237-1.023,1.703-1.974-.467-.952-.927-1.545-1.703-1.974Z" fill="#0c0d0b"/>
        <circle cx="44.782" cy="9.792" r=".826" fill="#6a3f8f"/>
        <circle cx="54.965" cy="9.792" r=".826" fill="#6a3f8f"/>
      </g>
      <g>
        <path d="M51.146,14.38c-.568-.266-1.135-.361-1.703.105-.53.412-1.09,1.259-1.703,1.532-.144.056-.292.102-.442.142h-3.965c-.15-.04-.298-.086-.442-.142-.614-.274-1.173-1.12-1.703-1.532-.568-.466-1.135-.371-1.703-.105-.776.429-1.236,1.022-1.703,1.974.466.951.927,1.546,1.703,1.974.568.266,1.135.361,1.703-.105.53-.411,1.09-1.259,1.703-1.532.144-.056.292-.102.442-.142h3.965c.15.04.298.086.442.142.613.273,1.173,1.121,1.703,1.532.568.466,1.135.371,1.703.105.776-.428,1.237-1.023,1.703-1.974-.467-.952-.927-1.545-1.703-1.974Z" fill="#0c0d0b"/>
        <circle cx="40.12" cy="16.355" r=".826" fill="#6a3f8f"/>
        <circle cx="50.302" cy="16.355" r=".826" fill="#6a3f8f"/>
      </g>
      <g>
        <path d="M56.155,19.561c-.568-.266-1.135-.361-1.703.105-.53.412-1.09,1.259-1.703,1.532-.144.056-.292.102-.442.142h-3.965c-.15-.04-.298-.086-.442-.142-.614-.274-1.173-1.12-1.703-1.532-.568-.466-1.135-.371-1.703-.105-.776.429-1.236,1.022-1.703,1.974.466.951.927,1.546,1.703,1.974.568.266,1.135.361,1.703-.105.53-.411,1.09-1.259,1.703-1.532.144-.056.292-.102.442-.142h3.965c.15.04.298.086.442.142.613.273,1.173,1.121,1.703,1.532.568.466,1.135.371,1.703.105.776-.428,1.237-1.023,1.703-1.974-.467-.952-.927-1.545-1.703-1.974Z" fill="#0c0d0b"/>
        <circle cx="45.128" cy="21.536" r=".826" fill="#6a3f8f"/>
        <circle cx="55.311" cy="21.536" r=".826" fill="#6a3f8f"/>
      </g>
      <g>
        <path d="M61.163,23.879c-.568-.266-1.135-.361-1.703.105-.53.412-1.09,1.259-1.703,1.532-.144.056-.292.102-.442.142h-3.965c-.15-.04-.298-.086-.442-.142-.614-.274-1.173-1.12-1.703-1.532-.568-.466-1.135-.371-1.703-.105-.776.429-1.236,1.022-1.703,1.974.466.951.927,1.546,1.703,1.974.568.266,1.135.361,1.703-.105.53-.411,1.09-1.259,1.703-1.532.144-.056.292-.102.442-.142h3.965c.15.04.298.086.442.142.613.273,1.173,1.121,1.703,1.532.568.466,1.135.371,1.703.105.776-.428,1.237-1.023,1.703-1.974-.467-.952-.927-1.545-1.703-1.974Z" fill="#0c0d0b"/>
        <circle cx="50.136" cy="25.853" r=".826" fill="#6a3f8f"/>
        <circle cx="60.319" cy="25.853" r=".826" fill="#6a3f8f"/>
      </g>
      <g>
        <path d="M56.155,29.232c-.568-.266-1.135-.361-1.703.105-.53.412-1.09,1.259-1.703,1.532-.144.056-.292.102-.442.142h-3.965c-.15-.04-.298-.086-.442-.142-.614-.274-1.173-1.12-1.703-1.532-.568-.466-1.135-.371-1.703-.105-.776.429-1.236,1.022-1.703,1.974.466.951.927,1.546,1.703,1.974.568.266,1.135.361,1.703-.105.53-.411,1.09-1.259,1.703-1.532.144-.056.292-.102.442-.142h3.965c.15.04.298.086.442.142.613.273,1.173,1.121,1.703,1.532.568.466,1.135.371,1.703.105.776-.428,1.237-1.023,1.703-1.974-.467-.952-.927-1.545-1.703-1.974Z" fill="#0c0d0b"/>
        <circle cx="45.128" cy="31.206" r=".826" fill="#6a3f8f"/>
        <circle cx="55.311" cy="31.206" r=".826" fill="#6a3f8f"/>
      </g>
      <path d="M50.287.894c-1.71,0-3.096,1.386-3.096,3.096s1.386,3.096,3.096,3.096,3.096-1.386,3.096-3.096-1.386-3.096-3.096-3.096ZM50.287,6.054c-1.14,0-2.064-.924-2.064-2.064s.924-2.064,2.064-2.064,2.064.924,2.064,2.064-.924,2.064-2.064,2.064Z" fill="#0c0d0b"/>
      <circle cx="50.287" cy="3.99" r=".963" fill="#8045b2"/>
    </g>
  </g>
</svg>