<?xml version="1.0" encoding="UTF-8"?>
<svg xmlns="http://www.w3.org/2000/svg" width="275.651" height="450" viewBox="0 0 275.651 450">
  <g id="Tallo">
    <g>
      <line x1="145.174" y1="450.55" x2="145.174" y2="99.481" fill="none" stroke="#0c0d0b" stroke-miterlimit="10" stroke-width="1.99"/>
      <path d="M84.969,162.609v62.143c0,5.833,4.729,10.562,10.562,10.562h83.646c5.833,0,10.562-4.729,10.562-10.562v-62.143" fill="none" stroke="#0c0d0b" stroke-miterlimit="10" stroke-width=".995"/>
      <path d="M96.905,276.355v67.897c0,2.656,2.153,4.808,4.808,4.808h43.115c1.275,0,2.498.507,3.4,1.408l21.414,21.414c3.029,3.029,8.208.884,8.208-3.4v-116.305" fill="none" stroke="#0c0d0b" stroke-linejoin="round" stroke-width=".995"/>
    </g>
  </g>
  <g id="Hojas">
    <g>
      <line x1="115.738" y1="170.397" x2="173.908" y2="170.397" fill="#0c0d0b" stroke="#000" stroke-miterlimit="10" stroke-width="1.686"/>
      <path d="M116.055,176.736c-3.501,0-6.339-2.839-6.339-6.339s2.839-6.339,6.339-6.339,6.339,2.839,6.339,6.339-2.839,6.339-6.339,6.339Z" fill="#0c0d0b"/>
      <path d="M173.591,176.736c3.501,0,6.339-2.839,6.339-6.339s-2.839-6.339-6.339-6.339-6.339,2.839-6.339,6.339,2.839,6.339,6.339,6.339Z" fill="#0c0d0b"/>
    </g>
    <g>
      <line x1="115.738" y1="204.802" x2="173.908" y2="204.802" fill="#0c0d0b" stroke="#000" stroke-miterlimit="10" stroke-width="1.686"/>
      <path d="M116.055,211.141c-3.501,0-6.339-2.839-6.339-6.339s2.839-6.339,6.339-6.339,6.339,2.839,6.339,6.339-2.839,6.339-6.339,6.339Z" fill="#0c0d0b"/>
      <path d="M173.591,211.141c3.501,0,6.339-2.839,6.339-6.339s-2.839-6.339-6.339-6.339-6.339,2.839-6.339,6.339,2.839,6.339,6.339,6.339Z" fill="#0c0d0b"/>
    </g>
    <g>
      <line x1="124.463" y1="288.602" x2="165.182" y2="288.602" fill="#0c0d0b" stroke="#000" stroke-miterlimit="10" stroke-width="1.18"/>
      <path d="M124.685,293.04c-2.45,0-4.437-1.987-4.437-4.437s1.987-4.437,4.437-4.437,4.437,1.987,4.437,4.437-1.987,4.437-4.437,4.437Z" fill="#0c0d0b"/>
      <path d="M164.96,293.04c2.45,0,4.437-1.987,4.437-4.437s-1.987-4.437-4.437-4.437-4.437,1.987-4.437,4.437,1.987,4.437,4.437,4.437Z" fill="#0c0d0b"/>
    </g>
    <g>
      <line x1="124.463" y1="312.686" x2="165.182" y2="312.686" fill="#0c0d0b" stroke="#000" stroke-miterlimit="10" stroke-width="1.18"/>
      <path d="M124.685,317.123c-2.45,0-4.437-1.987-4.437-4.437s1.987-4.437,4.437-4.437,4.437,1.987,4.437,4.437-1.987,4.437-4.437,4.437Z" fill="#0c0d0b"/>
      <path d="M164.96,317.123c2.45,0,4.437-1.987,4.437-4.437s-1.987-4.437-4.437-4.437-4.437,1.987-4.437,4.437,1.987,4.437,4.437,4.437Z" fill="#0c0d0b"/>
    </g>
    <g>
      <line x1="64.782" y1="191.005" x2="105.5" y2="191.005" fill="#0c0d0b" stroke="#000" stroke-miterlimit="10" stroke-width="1.18"/>
      <path d="M65.004,195.442c-2.45,0-4.437-1.987-4.437-4.437s1.987-4.437,4.437-4.437,4.437,1.987,4.437,4.437-1.987,4.437-4.437,4.437Z" fill="#0c0d0b"/>
      <path d="M105.278,195.442c2.45,0,4.437-1.987,4.437-4.437s-1.987-4.437-4.437-4.437-4.437,1.987-4.437,4.437,1.987,4.437,4.437,4.437Z" fill="#0c0d0b"/>
    </g>
    <g>
      <line x1="64.782" y1="215.088" x2="105.5" y2="215.088" fill="#0c0d0b" stroke="#000" stroke-miterlimit="10" stroke-width="1.18"/>
      <path d="M65.004,219.526c-2.45,0-4.437-1.987-4.437-4.437s1.987-4.437,4.437-4.437,4.437,1.987,4.437,4.437-1.987,4.437-4.437,4.437Z" fill="#0c0d0b"/>
      <path d="M105.278,219.526c2.45,0,4.437-1.987,4.437-4.437s-1.987-4.437-4.437-4.437-4.437,1.987-4.437,4.437,1.987,4.437,4.437,4.437Z" fill="#0c0d0b"/>
    </g>
    <g>
      <line x1="168.698" y1="193.111" x2="209.417" y2="193.111" fill="#0c0d0b" stroke="#000" stroke-miterlimit="10" stroke-width="1.18"/>
      <path d="M168.92,197.549c-2.45,0-4.437-1.987-4.437-4.437s1.987-4.437,4.437-4.437,4.437,1.987,4.437,4.437-1.987,4.437-4.437,4.437Z" fill="#0c0d0b"/>
      <path d="M209.195,197.549c2.45,0,4.437-1.987,4.437-4.437s-1.987-4.437-4.437-4.437-4.437,1.987-4.437,4.437,1.987,4.437,4.437,4.437Z" fill="#0c0d0b"/>
    </g>
    <g>
      <line x1="168.698" y1="217.195" x2="209.417" y2="217.195" fill="#0c0d0b" stroke="#000" stroke-miterlimit="10" stroke-width="1.18"/>
      <path d="M168.92,221.632c-2.45,0-4.437-1.987-4.437-4.437s1.987-4.437,4.437-4.437,4.437,1.987,4.437,4.437-1.987,4.437-4.437,4.437Z" fill="#0c0d0b"/>
      <path d="M209.195,221.632c2.45,0,4.437-1.987,4.437-4.437s-1.987-4.437-4.437-4.437-4.437,1.987-4.437,4.437,1.987,4.437,4.437,4.437Z" fill="#0c0d0b"/>
    </g>
    <g>
      <line x1="178.228" y1="257.462" x2="236.398" y2="257.462" fill="#0c0d0b" stroke="#000" stroke-miterlimit="10" stroke-width="1.686"/>
      <path d="M178.545,263.801c-3.501,0-6.339-2.839-6.339-6.339s2.839-6.339,6.339-6.339,6.339,2.839,6.339,6.339-2.839,6.339-6.339,6.339Z" fill="#0c0d0b"/>
      <path d="M236.081,263.801c3.501,0,6.339-2.839,6.339-6.339s-2.839-6.339-6.339-6.339-6.339,2.839-6.339,6.339,2.839,6.339,6.339,6.339Z" fill="#0c0d0b"/>
    </g>
    <g>
      <line x1="178.228" y1="291.867" x2="236.398" y2="291.867" fill="#0c0d0b" stroke="#000" stroke-miterlimit="10" stroke-width="1.686"/>
      <path d="M178.545,298.206c-3.501,0-6.339-2.839-6.339-6.339s2.839-6.339,6.339-6.339,6.339,2.839,6.339,6.339-2.839,6.339-6.339,6.339Z" fill="#0c0d0b"/>
      <path d="M236.081,298.206c3.501,0,6.339-2.839,6.339-6.339s-2.839-6.339-6.339-6.339-6.339,2.839-6.339,6.339,2.839,6.339,6.339,6.339Z" fill="#0c0d0b"/>
    </g>
    <g>
      <line x1="38.269" y1="277.122" x2="96.438" y2="277.122" fill="#0c0d0b" stroke="#000" stroke-miterlimit="10" stroke-width="1.686"/>
      <path d="M38.586,283.461c-3.501,0-6.339-2.839-6.339-6.339s2.839-6.339,6.339-6.339,6.339,2.839,6.339,6.339-2.839,6.339-6.339,6.339Z" fill="#0c0d0b"/>
      <path d="M96.121,283.461c3.501,0,6.339-2.839,6.339-6.339s-2.839-6.339-6.339-6.339-6.339,2.839-6.339,6.339,2.839,6.339,6.339,6.339Z" fill="#0c0d0b"/>
    </g>
    <g>
      <line x1="38.269" y1="305.208" x2="96.438" y2="305.208" fill="#0c0d0b" stroke="#000" stroke-miterlimit="10" stroke-width="1.686"/>
      <path d="M38.586,311.547c-3.501,0-6.339-2.839-6.339-6.339s2.839-6.339,6.339-6.339,6.339,2.839,6.339,6.339-2.839,6.339-6.339,6.339Z" fill="#0c0d0b"/>
      <path d="M96.121,311.547c3.501,0,6.339-2.839,6.339-6.339s-2.839-6.339-6.339-6.339-6.339,2.839-6.339,6.339,2.839,6.339,6.339,6.339Z" fill="#0c0d0b"/>
    </g>
    <g>
      <line x1="38.269" y1="331.187" x2="96.438" y2="331.187" fill="#0c0d0b" stroke="#000" stroke-miterlimit="10" stroke-width="1.686"/>
      <path d="M38.586,337.526c-3.501,0-6.339-2.839-6.339-6.339s2.839-6.339,6.339-6.339,6.339,2.839,6.339,6.339-2.839,6.339-6.339,6.339Z" fill="#0c0d0b"/>
      <path d="M96.121,337.526c3.501,0,6.339-2.839,6.339-6.339s-2.839-6.339-6.339-6.339-6.339,2.839-6.339,6.339,2.839,6.339,6.339,6.339Z" fill="#0c0d0b"/>
    </g>
  </g>
  <g id="Flores">
    <g>
      <path d="M199.315,29.59v63.177c0,4.749-4.098,8.612-9.136,8.612h-12.888V6.197h-.891v95.182h-31.023V11.946h-.946v89.432h-38.019c-5.532,0-10.033-4.244-10.033-9.46V29.59h-.917v62.329c0,5.722,4.912,10.376,10.949,10.376h38.019v32.924h.946v-32.279l28.043,28.043c.439.439,1.005.67,1.589.67.294,0,.593-.058.882-.178.863-.358,1.4-1.16,1.4-2.095v-27.085h12.888c5.543,0,10.053-4.275,10.053-9.528V29.59h-.917ZM176.399,129.381c0,.678-.439,1.101-.85,1.271-.41.17-1.02.181-1.499-.298l-28.058-28.058h30.407v27.085Z" fill="#0c0d0b"/>
      <g>
        <path d="M152.027,57.685c.01.153.017.307.017.463,0,3.876-3.142,7.018-7.018,7.018s-7.018-3.142-7.018-7.018c0-.156.007-.309.017-.462-6.448.138-12.903.466-19.259,1.341,11.294,14.148,31.358,16.986,45.955,6.25,2.415-1.81,4.615-3.702,6.565-6.277-6.407-.817-12.827-1.168-19.259-1.315Z" fill="#0c0d0b"/>
        <circle cx="145.026" cy="58.374" r="3.848" transform="translate(35.596 170.022) rotate(-67.5)" fill="#0c0d0b"/>
      </g>
      <g>
        <path d="M148.853,17.438c.005.084.009.168.009.253,0,2.119-1.718,3.836-3.836,3.836s-3.836-1.718-3.836-3.836c0-.085.004-.169.009-.253-3.524.076-7.053.255-10.528.733,6.174,7.734,17.142,9.285,25.121,3.416,1.32-.99,2.523-2.024,3.589-3.431-3.502-.447-7.012-.638-10.528-.719Z" fill="#0c0d0b"/>
        <circle cx="145.026" cy="17.814" r="2.104" transform="translate(73.069 144.984) rotate(-67.5)" fill="#0c0d0b"/>
      </g>
      <g>
        <path d="M148.853,30.79c.005.084.009.168.009.253,0,2.119-1.718,3.836-3.836,3.836s-3.836-1.718-3.836-3.836c0-.085.004-.169.009-.253-3.524.076-7.053.255-10.528.733,6.174,7.734,17.142,9.285,25.121,3.416,1.32-.99,2.523-2.024,3.589-3.431-3.502-.447-7.012-.638-10.528-.719Z" fill="#0c0d0b"/>
        <circle cx="145.026" cy="31.167" r="2.104" transform="translate(60.732 153.227) rotate(-67.5)" fill="#0c0d0b"/>
      </g>
      <g>
        <path d="M148.853,44.143c.005.084.009.168.009.253,0,2.119-1.718,3.836-3.836,3.836s-3.836-1.718-3.836-3.836c0-.085.004-.169.009-.253-3.524.076-7.053.255-10.528.733,6.174,7.734,17.142,9.285,25.121,3.416,1.32-.99,2.523-2.024,3.589-3.431-3.502-.447-7.012-.638-10.528-.719Z" fill="#0c0d0b"/>
        <circle cx="145.026" cy="44.52" r="2.104" transform="translate(48.396 161.47) rotate(-67.5)" fill="#0c0d0b"/>
      </g>
      <g>
        <path d="M179.943,17.09c.005.07.008.141.008.212,0,1.774-1.438,3.212-3.212,3.212s-3.212-1.438-3.212-3.212c0-.071.003-.142.008-.212-2.951.063-5.905.213-8.814.614,5.169,6.475,14.351,7.774,21.031,2.86,1.105-.828,2.112-1.694,3.004-2.872-2.932-.374-5.87-.534-8.814-.602Z" fill="#0c0d0b"/>
        <circle cx="176.739" cy="17.406" r="1.761" fill="#0c0d0b"/>
      </g>
      <g>
        <path d="M179.943,28.269c.005.07.008.141.008.212,0,1.774-1.438,3.212-3.212,3.212s-3.212-1.438-3.212-3.212c0-.071.003-.142.008-.212-2.951.063-5.905.213-8.814.614,5.169,6.475,14.351,7.774,21.031,2.86,1.105-.828,2.112-1.694,3.004-2.872-2.932-.374-5.87-.534-8.814-.602Z" fill="#0c0d0b"/>
        <circle cx="176.739" cy="28.585" r="1.761" fill="#0c0d0b"/>
      </g>
      <g>
        <path d="M179.943,39.448c.005.07.008.141.008.212,0,1.774-1.438,3.212-3.212,3.212s-3.212-1.438-3.212-3.212c0-.071.003-.142.008-.212-2.951.063-5.905.213-8.814.614,5.169,6.475,14.351,7.774,21.031,2.86,1.105-.828,2.112-1.694,3.004-2.872-2.932-.374-5.87-.534-8.814-.602Z" fill="#0c0d0b"/>
        <circle cx="176.739" cy="39.764" r="1.761" fill="#0c0d0b"/>
      </g>
      <g>
        <path d="M202.532,39.304c.004.06.007.121.007.182,0,1.527-1.238,2.766-2.766,2.766s-2.766-1.238-2.766-2.766c0-.061.003-.122.007-.182-2.541.054-5.085.184-7.59.529,4.451,5.575,12.358,6.694,18.11,2.463.952-.713,1.819-1.459,2.587-2.473-2.525-.322-5.055-.46-7.59-.518Z" fill="#0c0d0b"/>
        <circle cx="199.773" cy="39.575" r="1.517" fill="#0c0d0b"/>
      </g>
      <g>
        <path d="M202.532,48.93c.004.06.007.121.007.182,0,1.527-1.238,2.766-2.766,2.766s-2.766-1.238-2.766-2.766c0-.061.003-.122.007-.182-2.541.054-5.085.184-7.59.529,4.451,5.575,12.358,6.694,18.11,2.463.952-.713,1.819-1.459,2.587-2.473-2.525-.322-5.055-.46-7.59-.518Z" fill="#0c0d0b"/>
        <circle cx="199.773" cy="49.202" r="1.517" fill="#0c0d0b"/>
      </g>
      <g>
        <path d="M202.532,58.556c.004.06.007.121.007.182,0,1.527-1.238,2.766-2.766,2.766s-2.766-1.238-2.766-2.766c0-.061.003-.122.007-.182-2.541.054-5.085.184-7.59.529,4.451,5.575,12.358,6.694,18.11,2.463.952-.713,1.819-1.459,2.587-2.473-2.525-.322-5.055-.46-7.59-.518Z" fill="#0c0d0b"/>
        <circle cx="199.773" cy="58.828" r="1.517" fill="#0c0d0b"/>
      </g>
      <g>
        <path d="M102.955,70.371c.01.153.017.307.017.463,0,3.876-3.142,7.018-7.018,7.018s-7.018-3.142-7.018-7.018c0-.156.007-.309.017-.462-6.448.138-12.903.466-19.259,1.341,11.294,14.148,31.358,16.986,45.955,6.25,2.415-1.81,4.615-3.702,6.565-6.277-6.407-.817-12.827-1.168-19.259-1.315Z" fill="#0c0d0b"/>
        <circle cx="95.954" cy="71.06" r="3.848" transform="translate(-6.416 132.516) rotate(-67.5)" fill="#0c0d0b"/>
      </g>
      <g>
        <path d="M99.781,30.123c.005.084.009.168.009.253,0,2.119-1.718,3.836-3.836,3.836s-3.836-1.718-3.836-3.836c0-.085.004-.169.009-.253-3.524.076-7.053.255-10.528.733,6.174,7.734,17.142,9.285,25.121,3.416,1.32-.99,2.523-2.024,3.589-3.431-3.502-.447-7.012-.638-10.528-.719Z" fill="#0c0d0b"/>
        <circle cx="95.954" cy="30.499" r="2.104" transform="translate(31.056 107.478) rotate(-67.5)" fill="#0c0d0b"/>
      </g>
      <g>
        <path d="M99.781,43.476c.005.084.009.168.009.253,0,2.119-1.718,3.836-3.836,3.836s-3.836-1.718-3.836-3.836c0-.085.004-.169.009-.253-3.524.076-7.053.255-10.528.733,6.174,7.734,17.142,9.285,25.121,3.416,1.32-.99,2.523-2.024,3.589-3.431-3.502-.447-7.012-.638-10.528-.719Z" fill="#0c0d0b"/>
        <circle cx="95.954" cy="43.852" r="2.104" transform="translate(18.72 115.721) rotate(-67.5)" fill="#0c0d0b"/>
      </g>
      <g>
        <path d="M99.781,56.829c.005.084.009.168.009.253,0,2.119-1.718,3.836-3.836,3.836s-3.836-1.718-3.836-3.836c0-.085.004-.169.009-.253-3.524.076-7.053.255-10.528.733,6.174,7.734,17.142,9.285,25.121,3.416,1.32-.99,2.523-2.024,3.589-3.431-3.502-.447-7.012-.638-10.528-.719Z" fill="#0c0d0b"/>
        <circle cx="95.954" cy="57.205" r="2.104" transform="translate(6.383 123.964) rotate(-67.5)" fill="#0c0d0b"/>
      </g>
      <circle cx="95.954" cy="71.125" r="3.004" fill="#6a3f8f"/>
      <circle cx="176.739" cy="7.699" r="4.34" fill="#6a3f8f"/>
      <g>
        <path d="M148.853,5.086c.005.084.009.168.009.253,0,2.119-1.718,3.836-3.836,3.836s-3.836-1.718-3.836-3.836c0-.085.004-.169.009-.253-3.524.076-7.053.255-10.528.733,6.174,7.734,17.142,9.285,25.121,3.416,1.32-.99,2.523-2.024,3.589-3.431-3.502-.447-7.012-.638-10.528-.719Z" fill="#0c0d0b"/>
        <circle cx="145.026" cy="5.463" r="2.104" transform="translate(84.48 137.359) rotate(-67.5)" fill="#0c0d0b"/>
      </g>
      <circle cx="145.143" cy="4.89" r="4.34" fill="#6a3f8f"/>
      <circle cx="199.773" cy="28.396" r="4.34" fill="#6a3f8f"/>
      <circle cx="145.026" cy="101.837" r="7.344" fill="#6a3f8f"/>
    </g>
    <circle cx="85.141" cy="157.759" r="14.043" fill="#8045b2"/>
    <circle cx="189.76" cy="157.759" r="14.043" fill="#8045b2"/>
    <circle cx="97.78" cy="277.122" r="14.043" fill="#8045b2"/>
    <circle cx="181.334" cy="260.271" r="14.043" fill="#8045b2"/>
  </g>
</svg>