<?xml version="1.0" encoding="UTF-8"?>
<svg xmlns="http://www.w3.org/2000/svg" width="275.651" height="450" viewBox="0 0 275.651 450">
  <g id="Tallo">
    <line x1="138.098" y1="451.05" x2="138.098" y2="100.528" fill="none" stroke="#0c0d0b" stroke-miterlimit="10" stroke-width="1.987"/>
  </g>
  <g id="Hojas">
    <g>
      <line x1="108.726" y1="221.108" x2="166.77" y2="221.108" fill="#0c0d0b" stroke="#000" stroke-miterlimit="10" stroke-width="1.683"/>
      <path d="M109.042,227.437c-3.493,0-6.326-2.834-6.326-6.329s2.833-6.329,6.326-6.329,6.325,2.834,6.325,6.329-2.833,6.329-6.325,6.329Z" fill="#0c0d0b"/>
      <path d="M166.454,227.437c3.493,0,6.326-2.834,6.326-6.329s-2.833-6.329-6.326-6.329-6.325,2.834-6.325,6.329,2.832,6.329,6.325,6.329Z" fill="#0c0d0b"/>
    </g>
    <g>
      <line x1="109.426" y1="245.644" x2="167.471" y2="245.644" fill="#0c0d0b" stroke="#000" stroke-miterlimit="10" stroke-width="1.683"/>
      <path d="M109.743,251.974c-3.493,0-6.326-2.834-6.326-6.329s2.833-6.329,6.326-6.329,6.325,2.834,6.325,6.329-2.833,6.329-6.325,6.329Z" fill="#0c0d0b"/>
      <path d="M167.155,251.974c3.493,0,6.326-2.834,6.326-6.329s-2.833-6.329-6.326-6.329-6.325,2.834-6.325,6.329,2.832,6.329,6.325,6.329Z" fill="#0c0d0b"/>
    </g>
    <g>
      <line x1="108.025" y1="345.894" x2="166.07" y2="345.894" fill="#0c0d0b" stroke="#000" stroke-miterlimit="10" stroke-width="1.683"/>
      <path d="M108.341,352.223c-3.493,0-6.326-2.834-6.326-6.329s2.833-6.329,6.326-6.329,6.325,2.834,6.325,6.329-2.833,6.329-6.325,6.329Z" fill="#0c0d0b"/>
      <path d="M165.754,352.223c3.493,0,6.326-2.834,6.326-6.329s-2.833-6.329-6.326-6.329-6.325,2.834-6.325,6.329,2.832,6.329,6.325,6.329Z" fill="#0c0d0b"/>
    </g>
    <g>
      <line x1="108.726" y1="370.43" x2="166.77" y2="370.43" fill="#0c0d0b" stroke="#000" stroke-miterlimit="10" stroke-width="1.683"/>
      <path d="M109.042,376.76c-3.493,0-6.326-2.834-6.326-6.329s2.833-6.329,6.326-6.329,6.325,2.834,6.325,6.329-2.833,6.329-6.325,6.329Z" fill="#0c0d0b"/>
      <path d="M166.454,376.76c3.493,0,6.326-2.834,6.326-6.329s-2.833-6.329-6.326-6.329-6.325,2.834-6.325,6.329,2.832,6.329,6.325,6.329Z" fill="#0c0d0b"/>
    </g>
    <g>
      <line x1="108.726" y1="394.967" x2="166.77" y2="394.967" fill="#0c0d0b" stroke="#000" stroke-miterlimit="10" stroke-width="1.683"/>
      <path d="M109.042,401.296c-3.493,0-6.326-2.834-6.326-6.329s2.833-6.329,6.326-6.329,6.325,2.834,6.325,6.329-2.833,6.329-6.325,6.329Z" fill="#0c0d0b"/>
      <path d="M166.454,401.296c3.493,0,6.326-2.834,6.326-6.329s-2.833-6.329-6.326-6.329-6.325,2.834-6.325,6.329,2.832,6.329,6.325,6.329Z" fill="#0c0d0b"/>
    </g>
    <g>
      <ellipse cx="77.144" cy="137.82" rx="5.387" ry="5.368" fill="none" stroke="#0c0d0b" stroke-miterlimit="10" stroke-width=".399"/>
      <ellipse cx="77.144" cy="137.82" rx="3.428" ry="3.416" fill="#6a3f8f"/>
      <ellipse cx="96.517" cy="135.441" rx="5.387" ry="5.368" fill="none" stroke="#0c0d0b" stroke-miterlimit="10" stroke-width=".399"/>
      <ellipse cx="96.517" cy="135.441" rx="3.428" ry="3.416" fill="#0c0d0b"/>
      <ellipse cx="106.312" cy="145.202" rx="5.387" ry="5.368" fill="none" stroke="#0c0d0b" stroke-miterlimit="10" stroke-width=".399"/>
      <ellipse cx="106.312" cy="145.202" rx="3.428" ry="3.416" fill="#0c0d0b"/>
      <ellipse cx="118.065" cy="156.915" rx="5.387" ry="5.368" fill="none" stroke="#0c0d0b" stroke-miterlimit="10" stroke-width=".399"/>
      <ellipse cx="118.065" cy="156.915" rx="3.428" ry="3.416" fill="#0c0d0b"/>
      <ellipse cx="73.5" cy="157.403" rx="5.387" ry="5.368" fill="none" stroke="#0c0d0b" stroke-miterlimit="10" stroke-width=".399"/>
      <ellipse cx="73.5" cy="157.403" rx="3.428" ry="3.416" fill="#0c0d0b"/>
      <ellipse cx="83.295" cy="167.163" rx="5.387" ry="5.368" fill="none" stroke="#0c0d0b" stroke-miterlimit="10" stroke-width=".399"/>
      <ellipse cx="83.295" cy="167.163" rx="3.428" ry="3.416" fill="#0c0d0b"/>
      <ellipse cx="95.048" cy="178.876" rx="5.387" ry="5.368" fill="none" stroke="#0c0d0b" stroke-miterlimit="10" stroke-width=".399"/>
      <ellipse cx="95.048" cy="178.876" rx="3.428" ry="3.416" fill="#8045b2"/>
      <ellipse cx="198.81" cy="137.82" rx="5.387" ry="5.368" fill="none" stroke="#0c0d0b" stroke-miterlimit="10" stroke-width=".399"/>
      <ellipse cx="198.81" cy="137.82" rx="3.428" ry="3.416" fill="#0c0d0b"/>
      <ellipse cx="179.437" cy="135.441" rx="5.387" ry="5.368" fill="none" stroke="#0c0d0b" stroke-miterlimit="10" stroke-width=".399"/>
      <ellipse cx="179.437" cy="135.441" rx="3.428" ry="3.416" fill="#0c0d0b"/>
      <ellipse cx="169.642" cy="145.202" rx="5.387" ry="5.368" fill="none" stroke="#0c0d0b" stroke-miterlimit="10" stroke-width=".399"/>
      <ellipse cx="169.642" cy="145.202" rx="3.428" ry="3.416" fill="#ab6be0"/>
      <ellipse cx="157.889" cy="156.915" rx="5.387" ry="5.368" fill="none" stroke="#0c0d0b" stroke-miterlimit="10" stroke-width=".399"/>
      <ellipse cx="157.889" cy="156.915" rx="3.428" ry="3.416" fill="#0c0d0b"/>
      <path d="M207.841,157.403c0,2.965-2.412,5.368-5.387,5.368-2.975,0-5.387-2.404-5.387-5.368s2.412-5.368,5.387-5.368,5.387,2.404,5.387,5.368Z" fill="none" stroke="#0c0d0b" stroke-miterlimit="10" stroke-width=".399"/>
      <ellipse cx="202.454" cy="157.403" rx="3.428" ry="3.416" fill="#0c0d0b"/>
      <ellipse cx="192.66" cy="167.163" rx="5.387" ry="5.368" fill="none" stroke="#0c0d0b" stroke-miterlimit="10" stroke-width=".399"/>
      <path d="M196.088,167.163c0,1.887-1.535,3.416-3.428,3.416-1.893,0-3.428-1.53-3.428-3.416s1.535-3.416,3.428-3.416,3.428,1.53,3.428,3.416Z" fill="#0c0d0b"/>
      <ellipse cx="180.906" cy="178.876" rx="5.387" ry="5.368" fill="none" stroke="#0c0d0b" stroke-miterlimit="10" stroke-width=".399"/>
      <ellipse cx="180.906" cy="178.876" rx="3.428" ry="3.416" fill="#0c0d0b"/>
      <polygon points="196.953 157.708 196.953 157.22 180.081 157.22 195.168 142.185 194.821 141.84 179.693 156.916 179.693 140.836 179.204 140.836 179.204 157.404 169.899 166.677 169.899 150.596 169.409 150.596 169.409 167.165 158.145 178.39 158.145 162.309 157.655 162.309 157.655 178.878 143.883 192.602 131.935 192.602 118.163 178.878 118.163 162.309 117.673 162.309 117.673 178.39 106.409 167.165 106.409 150.596 105.92 150.596 105.92 166.677 96.615 157.404 96.615 140.836 96.125 140.836 96.125 156.916 80.997 141.84 80.651 142.185 95.737 157.22 78.865 157.22 78.865 157.708 96.227 157.708 105.532 166.98 88.66 166.98 88.66 167.468 106.022 167.468 117.285 178.693 100.413 178.693 100.413 179.181 117.775 179.181 131.806 193.164 131.806 193.578 144.05 193.578 144.05 193.127 158.043 179.181 175.405 179.181 175.405 178.693 158.533 178.693 169.797 167.468 187.159 167.468 187.159 166.98 170.287 166.98 179.591 157.708 196.953 157.708" fill="#0c0d0b"/>
    </g>
    <g>
      <ellipse cx="77.144" cy="276.627" rx="5.387" ry="5.368" fill="none" stroke="#0c0d0b" stroke-miterlimit="10" stroke-width=".399"/>
      <ellipse cx="77.144" cy="276.627" rx="3.428" ry="3.416" fill="#6a3f8f"/>
      <ellipse cx="96.517" cy="274.248" rx="5.387" ry="5.368" fill="none" stroke="#0c0d0b" stroke-miterlimit="10" stroke-width=".399"/>
      <ellipse cx="96.517" cy="274.248" rx="3.428" ry="3.416" fill="#0c0d0b"/>
      <ellipse cx="106.312" cy="284.009" rx="5.387" ry="5.368" fill="none" stroke="#0c0d0b" stroke-miterlimit="10" stroke-width=".399"/>
      <ellipse cx="106.312" cy="284.009" rx="3.428" ry="3.416" fill="#0c0d0b"/>
      <ellipse cx="118.065" cy="295.722" rx="5.387" ry="5.368" fill="none" stroke="#0c0d0b" stroke-miterlimit="10" stroke-width=".399"/>
      <ellipse cx="118.065" cy="295.722" rx="3.428" ry="3.416" fill="#0c0d0b"/>
      <ellipse cx="73.5" cy="296.21" rx="5.387" ry="5.368" fill="none" stroke="#0c0d0b" stroke-miterlimit="10" stroke-width=".399"/>
      <ellipse cx="73.5" cy="296.21" rx="3.428" ry="3.416" fill="#0c0d0b"/>
      <ellipse cx="83.295" cy="305.97" rx="5.387" ry="5.368" fill="none" stroke="#0c0d0b" stroke-miterlimit="10" stroke-width=".399"/>
      <ellipse cx="83.295" cy="305.97" rx="3.428" ry="3.416" fill="#0c0d0b"/>
      <ellipse cx="95.048" cy="317.683" rx="5.387" ry="5.368" fill="none" stroke="#0c0d0b" stroke-miterlimit="10" stroke-width=".399"/>
      <ellipse cx="95.048" cy="317.683" rx="3.428" ry="3.416" fill="#8045b2"/>
      <ellipse cx="198.81" cy="276.627" rx="5.387" ry="5.368" fill="none" stroke="#0c0d0b" stroke-miterlimit="10" stroke-width=".399"/>
      <ellipse cx="198.81" cy="276.627" rx="3.428" ry="3.416" fill="#0c0d0b"/>
      <ellipse cx="179.437" cy="274.248" rx="5.387" ry="5.368" fill="none" stroke="#0c0d0b" stroke-miterlimit="10" stroke-width=".399"/>
      <ellipse cx="179.437" cy="274.248" rx="3.428" ry="3.416" fill="#0c0d0b"/>
      <ellipse cx="169.642" cy="284.009" rx="5.387" ry="5.368" fill="none" stroke="#0c0d0b" stroke-miterlimit="10" stroke-width=".399"/>
      <ellipse cx="169.642" cy="284.009" rx="3.428" ry="3.416" fill="#ab6be0"/>
      <ellipse cx="157.889" cy="295.722" rx="5.387" ry="5.368" fill="none" stroke="#0c0d0b" stroke-miterlimit="10" stroke-width=".399"/>
      <ellipse cx="157.889" cy="295.722" rx="3.428" ry="3.416" fill="#0c0d0b"/>
      <path d="M207.841,296.21c0,2.965-2.412,5.368-5.387,5.368-2.975,0-5.387-2.404-5.387-5.368s2.412-5.368,5.387-5.368c2.975,0,5.387,2.404,5.387,5.368Z" fill="none" stroke="#0c0d0b" stroke-miterlimit="10" stroke-width=".399"/>
      <ellipse cx="202.454" cy="296.21" rx="3.428" ry="3.416" fill="#0c0d0b"/>
      <ellipse cx="192.66" cy="305.97" rx="5.387" ry="5.368" fill="none" stroke="#0c0d0b" stroke-miterlimit="10" stroke-width=".399"/>
      <path d="M196.088,305.97c0,1.887-1.535,3.416-3.428,3.416-1.893,0-3.428-1.53-3.428-3.416s1.535-3.416,3.428-3.416,3.428,1.53,3.428,3.416Z" fill="#0c0d0b"/>
      <ellipse cx="180.906" cy="317.683" rx="5.387" ry="5.368" fill="none" stroke="#0c0d0b" stroke-miterlimit="10" stroke-width=".399"/>
      <ellipse cx="180.906" cy="317.683" rx="3.428" ry="3.416" fill="#0c0d0b"/>
      <polygon points="196.953 296.515 196.953 296.027 180.081 296.027 195.168 280.992 194.821 280.647 179.693 295.723 179.693 279.643 179.204 279.643 179.204 296.211 169.899 305.484 169.899 289.403 169.409 289.403 169.409 305.972 158.145 317.197 158.145 301.116 157.655 301.116 157.655 317.685 143.883 331.409 131.935 331.409 118.163 317.685 118.163 301.116 117.673 301.116 117.673 317.197 106.409 305.972 106.409 289.403 105.92 289.403 105.92 305.484 96.615 296.211 96.615 279.643 96.125 279.643 96.125 295.723 80.997 280.647 80.651 280.992 95.737 296.027 78.865 296.027 78.865 296.515 96.227 296.515 105.532 305.787 88.66 305.787 88.66 306.275 106.022 306.275 117.285 317.5 100.413 317.5 100.413 317.988 117.775 317.988 131.806 331.971 131.806 332.385 144.05 332.385 144.05 331.933 158.043 317.988 175.405 317.988 175.405 317.5 158.533 317.5 169.797 306.275 187.159 306.275 187.159 305.787 170.287 305.787 179.591 296.515 196.953 296.515" fill="#0c0d0b"/>
    </g>
  </g>
  <g id="Flores">
    <g>
      <path d="M192.123,30.045v63.078c0,4.741-4.09,8.598-9.117,8.598h-12.86V6.688h-.889v95.034h-30.956V12.428h-.944v89.293h-37.938c-5.52,0-10.011-4.237-10.011-9.445V30.045h-.915v62.232c0,5.713,4.901,10.36,10.926,10.36h37.938v32.873h.944v-32.229l27.983,28c.439.438,1.003.669,1.586.669.293,0,.591-.058.88-.178.861-.357,1.397-1.158,1.397-2.091v-27.043h12.86c5.531,0,10.031-4.268,10.031-9.513V30.045h-.915ZM169.257,129.68c0,.677-.438,1.099-.848,1.269-.409.17-1.018.181-1.496-.298l-27.998-28.014h30.342v27.043Z" fill="#0c0d0b"/>
      <g>
        <path d="M144.937,58.096c.01.153.017.307.017.462,0,3.87-3.135,7.007-7.003,7.007s-7.003-3.137-7.003-7.007c0-.155.007-.309.017-.462-6.434.138-12.876.466-19.218,1.339,11.27,14.126,31.291,16.96,45.857,6.24,2.41-1.808,4.605-3.696,6.551-6.267-6.393-.816-12.8-1.166-19.218-1.313Z" fill="#0c0d0b"/>
        <circle cx="137.951" cy="58.784" r="3.842" transform="translate(78.857 196.603) rotate(-89.871)" fill="#0c0d0b"/>
      </g>
      <g>
        <path d="M141.77,17.911c.005.084.009.168.009.252,0,2.115-1.714,3.83-3.828,3.83s-3.828-1.715-3.828-3.83c0-.085.004-.169.009-.252-3.517.075-7.038.255-10.505.732,6.161,7.722,17.105,9.271,25.067,3.411,1.317-.988,2.517-2.021,3.581-3.426-3.495-.446-6.997-.637-10.505-.718Z" fill="#0c0d0b"/>
        <circle cx="137.951" cy="18.287" r="2.1" transform="translate(119.354 156.197) rotate(-89.871)" fill="#0c0d0b"/>
      </g>
      <g>
        <path d="M141.77,31.243c.005.084.009.168.009.252,0,2.115-1.714,3.83-3.828,3.83s-3.828-1.715-3.828-3.83c0-.085.004-.169.009-.252-3.517.075-7.038.255-10.505.732,6.161,7.722,17.105,9.271,25.067,3.411,1.317-.988,2.517-2.021,3.581-3.426-3.495-.446-6.997-.637-10.505-.718Z" fill="#0c0d0b"/>
        <circle cx="137.951" cy="31.619" r="2.1" transform="translate(106.021 169.499) rotate(-89.871)" fill="#0c0d0b"/>
      </g>
      <g>
        <path d="M141.77,44.576c.005.084.009.168.009.252,0,2.115-1.714,3.83-3.828,3.83s-3.828-1.715-3.828-3.83c0-.085.004-.169.009-.252-3.517.075-7.038.255-10.505.732,6.161,7.722,17.105,9.271,25.067,3.411,1.317-.988,2.517-2.021,3.581-3.426-3.495-.446-6.997-.637-10.505-.718Z" fill="#0c0d0b"/>
        <circle cx="137.951" cy="44.952" r="2.1" transform="translate(92.689 182.801) rotate(-89.871)" fill="#0c0d0b"/>
      </g>
      <g>
        <path d="M172.793,17.565c.005.07.008.14.008.211,0,1.771-1.435,3.207-3.205,3.207s-3.205-1.436-3.205-3.207c0-.071.003-.141.008-.211-2.944.063-5.892.213-8.795.613,5.158,6.465,14.32,7.762,20.986,2.856,1.103-.827,2.107-1.692,2.998-2.868-2.926-.373-5.858-.534-8.795-.601Z" fill="#0c0d0b"/>
        <circle cx="169.596" cy="17.879" r="1.758" transform="translate(151.336 187.435) rotate(-89.871)" fill="#0c0d0b"/>
      </g>
      <g>
        <path d="M172.793,28.726c.005.07.008.14.008.211,0,1.771-1.435,3.207-3.205,3.207s-3.205-1.436-3.205-3.207c0-.071.003-.141.008-.211-2.944.063-5.892.213-8.795.613,5.158,6.465,14.32,7.762,20.986,2.856,1.103-.827,2.107-1.692,2.998-2.868-2.926-.373-5.858-.534-8.795-.601Z" fill="#0c0d0b"/>
        <circle cx="169.596" cy="29.041" r="1.758" transform="translate(140.174 198.571) rotate(-89.871)" fill="#0c0d0b"/>
      </g>
      <g>
        <path d="M172.793,39.888c.005.07.008.14.008.211,0,1.771-1.435,3.207-3.205,3.207s-3.205-1.436-3.205-3.207c0-.071.003-.141.008-.211-2.944.063-5.892.213-8.795.613,5.158,6.465,14.32,7.762,20.986,2.856,1.103-.827,2.107-1.692,2.998-2.868-2.926-.373-5.858-.534-8.795-.601Z" fill="#0c0d0b"/>
        <circle cx="169.596" cy="40.202" r="1.758" transform="translate(129.013 209.708) rotate(-89.871)" fill="#0c0d0b"/>
      </g>
      <g>
        <path d="M195.334,39.743c.004.06.007.121.007.182,0,1.525-1.236,2.761-2.76,2.761s-2.76-1.236-2.76-2.761c0-.061.003-.122.007-.182-2.535.054-5.074.184-7.573.528,4.441,5.567,12.331,6.684,18.071,2.459.95-.712,1.815-1.457,2.582-2.47-2.519-.322-5.044-.459-7.573-.517Z" fill="#0c0d0b"/>
        <circle cx="192.581" cy="40.014" r="1.514" transform="translate(152.133 232.505) rotate(-89.871)" fill="#0c0d0b"/>
      </g>
      <g>
        <path d="M195.334,49.355c.004.06.007.121.007.182,0,1.525-1.236,2.761-2.76,2.761s-2.76-1.236-2.76-2.761c0-.061.003-.122.007-.182-2.535.054-5.074.184-7.573.528,4.441,5.567,12.331,6.684,18.071,2.459.95-.712,1.815-1.457,2.582-2.47-2.519-.322-5.044-.459-7.573-.517Z" fill="#0c0d0b"/>
        <circle cx="192.581" cy="49.626" r="1.514" transform="translate(142.522 242.094) rotate(-89.871)" fill="#0c0d0b"/>
      </g>
      <g>
        <path d="M195.334,58.966c.004.06.007.121.007.182,0,1.525-1.236,2.761-2.76,2.761s-2.76-1.236-2.76-2.761c0-.061.003-.122.007-.182-2.535.054-5.074.184-7.573.528,4.441,5.567,12.331,6.684,18.071,2.459.95-.712,1.815-1.457,2.582-2.47-2.519-.322-5.044-.459-7.573-.517Z" fill="#0c0d0b"/>
        <circle cx="192.581" cy="59.237" r="1.514" transform="translate(132.911 251.684) rotate(-89.871)" fill="#0c0d0b"/>
      </g>
      <g>
        <path d="M95.97,70.762c.01.153.017.307.017.462,0,3.87-3.135,7.007-7.003,7.007s-7.003-3.137-7.003-7.007c0-.155.007-.309.017-.462-6.434.138-12.876.466-19.218,1.339,11.27,14.126,31.291,16.96,45.857,6.24,2.41-1.808,4.605-3.696,6.551-6.267-6.393-.816-12.8-1.166-19.218-1.313Z" fill="#0c0d0b"/>
        <circle cx="88.984" cy="71.45" r="3.842" transform="translate(17.334 160.273) rotate(-89.871)" fill="#0c0d0b"/>
      </g>
      <g>
        <path d="M92.803,30.577c.005.084.009.168.009.252,0,2.115-1.714,3.83-3.828,3.83s-3.828-1.715-3.828-3.83c0-.085.004-.169.009-.252-3.517.075-7.038.255-10.505.732,6.161,7.722,17.105,9.271,25.067,3.411,1.317-.988,2.517-2.021,3.581-3.426-3.495-.446-6.997-.637-10.505-.718Z" fill="#0c0d0b"/>
        <circle cx="88.984" cy="30.953" r="2.1" transform="translate(57.831 119.867) rotate(-89.871)" fill="#0c0d0b"/>
      </g>
      <g>
        <path d="M92.803,43.909c.005.084.009.168.009.252,0,2.115-1.714,3.83-3.828,3.83s-3.828-1.715-3.828-3.83c0-.085.004-.169.009-.252-3.517.075-7.038.255-10.505.732,6.161,7.722,17.105,9.271,25.067,3.411,1.317-.988,2.517-2.021,3.581-3.426-3.495-.446-6.997-.637-10.505-.718Z" fill="#0c0d0b"/>
        <circle cx="88.984" cy="44.285" r="2.1" transform="translate(44.499 133.169) rotate(-89.871)" fill="#0c0d0b"/>
      </g>
      <g>
        <path d="M92.803,57.241c.005.084.009.168.009.252,0,2.115-1.714,3.83-3.828,3.83s-3.828-1.715-3.828-3.83c0-.085.004-.169.009-.252-3.517.075-7.038.255-10.505.732,6.161,7.722,17.105,9.271,25.067,3.411,1.317-.988,2.517-2.021,3.581-3.426-3.495-.446-6.997-.637-10.505-.718Z" fill="#0c0d0b"/>
        <circle cx="88.984" cy="57.617" r="2.1" transform="translate(31.167 146.471) rotate(-89.871)" fill="#0c0d0b"/>
      </g>
      <circle cx="88.984" cy="71.515" r="2.999" fill="#6a3f8f"/>
      <circle cx="169.596" cy="8.188" r="4.33" fill="#6a3f8f"/>
      <g>
        <path d="M141.77,5.579c.005.084.009.168.009.252,0,2.115-1.714,3.83-3.828,3.83s-3.828-1.715-3.828-3.83c0-.085.004-.169.009-.252-3.517.075-7.038.255-10.505.732,6.161,7.722,17.105,9.271,25.067,3.411,1.317-.988,2.517-2.021,3.581-3.426-3.495-.446-6.997-.637-10.505-.718Z" fill="#0c0d0b"/>
        <circle cx="137.951" cy="5.955" r="2.1" transform="translate(131.686 143.892) rotate(-89.871)" fill="#0c0d0b"/>
      </g>
      <circle cx="138.068" cy="5.383" r="4.33" fill="#6a3f8f"/>
      <circle cx="192.581" cy="28.852" r="4.33" fill="#6a3f8f"/>
      <ellipse cx="137.951" cy="102.179" rx="7.328" ry="7.333" fill="#6a3f8f"/>
    </g>
  </g>
</svg>