<?xml version="1.0" encoding="UTF-8"?>
<svg xmlns="http://www.w3.org/2000/svg" width="275.651" height="450" viewBox="0 0 275.651 450">
  <g id="Tallo">
    <g>
      <line x1="137.56" y1="450.55" x2="137.56" y2="1.358" fill="none" stroke="#0c0d0b" stroke-miterlimit="10" stroke-width="2.547"/>
      <path d="M76.703,255.518v86.874c0,3.398,2.754,6.152,6.152,6.152h55.161c1.632,0,3.196.648,4.35,1.802l27.397,27.399c3.875,3.876,10.502,1.131,10.502-4.35v-148.811" fill="none" stroke="#0c0d0b" stroke-linejoin="round" stroke-width="1.273"/>
    </g>
  </g>
  <g id="Hojas">
    <line x1="154.182" y1="275.68" x2="206.278" y2="275.68" fill="#0c0d0b" stroke="#000" stroke-miterlimit="10" stroke-width="1.51"/>
    <path d="M154.466,281.358c-3.135,0-5.677-2.542-5.677-5.678s2.542-5.678,5.677-5.678,5.677,2.542,5.677,5.678-2.542,5.678-5.677,5.678Z" fill="#0c0d0b"/>
    <path d="M205.994,281.358c3.135,0,5.677-2.542,5.677-5.678s-2.542-5.678-5.677-5.678-5.677,2.542-5.677,5.678,2.542,5.678,5.677,5.678Z" fill="#0c0d0b"/>
    <ellipse cx="98.551" cy="177.783" rx="3.441" ry="3.427" fill="none" stroke="#0c0d0b" stroke-miterlimit="10" stroke-width=".255"/>
    <ellipse cx="98.551" cy="177.783" rx="2.19" ry="2.181" fill="#6a3f8f"/>
    <ellipse cx="110.924" cy="176.264" rx="3.441" ry="3.427" fill="none" stroke="#0c0d0b" stroke-miterlimit="10" stroke-width=".255"/>
    <ellipse cx="110.924" cy="176.264" rx="2.19" ry="2.181" fill="#0c0d0b"/>
    <ellipse cx="117.18" cy="182.495" rx="3.441" ry="3.427" fill="none" stroke="#0c0d0b" stroke-miterlimit="10" stroke-width=".255"/>
    <ellipse cx="117.18" cy="182.495" rx="2.19" ry="2.181" fill="#0c0d0b"/>
    <ellipse cx="124.687" cy="189.972" rx="3.441" ry="3.427" fill="none" stroke="#0c0d0b" stroke-miterlimit="10" stroke-width=".255"/>
    <ellipse cx="124.687" cy="189.972" rx="2.19" ry="2.181" fill="#0c0d0b"/>
    <ellipse cx="96.223" cy="190.284" rx="3.441" ry="3.427" fill="none" stroke="#0c0d0b" stroke-miterlimit="10" stroke-width=".255"/>
    <ellipse cx="96.223" cy="190.284" rx="2.19" ry="2.181" fill="#0c0d0b"/>
    <ellipse cx="102.479" cy="196.515" rx="3.441" ry="3.427" fill="none" stroke="#0c0d0b" stroke-miterlimit="10" stroke-width=".255"/>
    <ellipse cx="102.479" cy="196.515" rx="2.19" ry="2.181" fill="#0c0d0b"/>
    <ellipse cx="109.986" cy="203.992" rx="3.441" ry="3.427" fill="none" stroke="#0c0d0b" stroke-miterlimit="10" stroke-width=".255"/>
    <ellipse cx="109.986" cy="203.992" rx="2.19" ry="2.181" fill="#8045b2"/>
    <ellipse cx="176.258" cy="177.783" rx="3.441" ry="3.427" fill="none" stroke="#0c0d0b" stroke-miterlimit="10" stroke-width=".255"/>
    <ellipse cx="176.258" cy="177.783" rx="2.19" ry="2.181" fill="#0c0d0b"/>
    <ellipse cx="163.885" cy="176.264" rx="3.441" ry="3.427" fill="none" stroke="#0c0d0b" stroke-miterlimit="10" stroke-width=".255"/>
    <ellipse cx="163.885" cy="176.264" rx="2.19" ry="2.181" fill="#0c0d0b"/>
    <ellipse cx="157.629" cy="182.495" rx="3.441" ry="3.427" fill="none" stroke="#0c0d0b" stroke-miterlimit="10" stroke-width=".255"/>
    <ellipse cx="157.629" cy="182.495" rx="2.19" ry="2.181" fill="#ab6be0"/>
    <ellipse cx="150.122" cy="189.972" rx="3.441" ry="3.427" fill="none" stroke="#0c0d0b" stroke-miterlimit="10" stroke-width=".255"/>
    <ellipse cx="150.122" cy="189.972" rx="2.19" ry="2.181" fill="#0c0d0b"/>
    <path d="M182.027,190.284c0,1.893-1.54,3.427-3.441,3.427-1.9,0-3.441-1.534-3.441-3.427s1.54-3.427,3.441-3.427,3.441,1.534,3.441,3.427Z" fill="none" stroke="#0c0d0b" stroke-miterlimit="10" stroke-width=".255"/>
    <ellipse cx="178.586" cy="190.284" rx="2.19" ry="2.181" fill="#0c0d0b"/>
    <ellipse cx="172.33" cy="196.515" rx="3.441" ry="3.427" fill="none" stroke="#0c0d0b" stroke-miterlimit="10" stroke-width=".255"/>
    <path d="M174.52,196.515c0,1.204-.98,2.181-2.19,2.181s-2.19-.976-2.19-2.181.98-2.181,2.19-2.181,2.19.976,2.19,2.181Z" fill="#0c0d0b"/>
    <ellipse cx="164.823" cy="203.992" rx="3.441" ry="3.427" fill="none" stroke="#0c0d0b" stroke-miterlimit="10" stroke-width=".255"/>
    <ellipse cx="164.823" cy="203.992" rx="2.19" ry="2.181" fill="#0c0d0b"/>
    <polygon points="175.073 190.478 175.073 190.167 164.296 190.167 173.932 180.569 173.711 180.349 164.049 189.973 164.049 179.708 163.736 179.708 163.736 190.285 157.793 196.204 157.793 185.939 157.48 185.939 157.48 196.515 150.286 203.681 150.286 193.416 149.973 193.416 149.973 203.993 141.177 212.754 133.546 212.754 124.749 203.993 124.749 193.416 124.437 193.416 124.437 203.681 117.242 196.515 117.242 185.939 116.93 185.939 116.93 196.204 110.987 190.285 110.987 179.708 110.674 179.708 110.674 189.973 101.012 180.349 100.79 180.569 110.426 190.167 99.65 190.167 99.65 190.478 110.739 190.478 116.682 196.398 105.906 196.398 105.906 196.709 116.995 196.709 124.189 203.875 113.413 203.875 113.413 204.186 124.502 204.186 133.463 213.113 133.463 213.377 141.283 213.377 141.283 213.089 150.221 204.186 161.31 204.186 161.31 203.875 150.534 203.875 157.728 196.709 168.817 196.709 168.817 196.398 158.041 196.398 163.984 190.478 175.073 190.478" fill="#0c0d0b"/>
    <ellipse cx="37.465" cy="280.199" rx="3.441" ry="3.427" fill="none" stroke="#0c0d0b" stroke-miterlimit="10" stroke-width=".255"/>
    <ellipse cx="37.465" cy="280.199" rx="2.19" ry="2.181" fill="#6a3f8f"/>
    <ellipse cx="49.839" cy="278.68" rx="3.441" ry="3.427" fill="none" stroke="#0c0d0b" stroke-miterlimit="10" stroke-width=".255"/>
    <ellipse cx="49.839" cy="278.68" rx="2.19" ry="2.181" fill="#0c0d0b"/>
    <ellipse cx="56.095" cy="284.911" rx="3.441" ry="3.427" fill="none" stroke="#0c0d0b" stroke-miterlimit="10" stroke-width=".255"/>
    <ellipse cx="56.095" cy="284.911" rx="2.19" ry="2.181" fill="#0c0d0b"/>
    <ellipse cx="63.602" cy="292.388" rx="3.441" ry="3.427" fill="none" stroke="#0c0d0b" stroke-miterlimit="10" stroke-width=".255"/>
    <ellipse cx="63.602" cy="292.388" rx="2.19" ry="2.181" fill="#0c0d0b"/>
    <ellipse cx="35.138" cy="292.699" rx="3.441" ry="3.427" fill="none" stroke="#0c0d0b" stroke-miterlimit="10" stroke-width=".255"/>
    <ellipse cx="35.138" cy="292.699" rx="2.19" ry="2.181" fill="#0c0d0b"/>
    <ellipse cx="41.394" cy="298.93" rx="3.441" ry="3.427" fill="none" stroke="#0c0d0b" stroke-miterlimit="10" stroke-width=".255"/>
    <ellipse cx="41.394" cy="298.93" rx="2.19" ry="2.181" fill="#0c0d0b"/>
    <ellipse cx="48.9" cy="306.407" rx="3.441" ry="3.427" fill="none" stroke="#0c0d0b" stroke-miterlimit="10" stroke-width=".255"/>
    <ellipse cx="48.9" cy="306.407" rx="2.19" ry="2.181" fill="#8045b2"/>
    <ellipse cx="115.173" cy="280.199" rx="3.441" ry="3.427" fill="none" stroke="#0c0d0b" stroke-miterlimit="10" stroke-width=".255"/>
    <ellipse cx="115.173" cy="280.199" rx="2.19" ry="2.181" fill="#0c0d0b"/>
    <ellipse cx="102.799" cy="278.68" rx="3.441" ry="3.427" fill="none" stroke="#0c0d0b" stroke-miterlimit="10" stroke-width=".255"/>
    <ellipse cx="102.799" cy="278.68" rx="2.19" ry="2.181" fill="#0c0d0b"/>
    <ellipse cx="96.544" cy="284.911" rx="3.441" ry="3.427" fill="none" stroke="#0c0d0b" stroke-miterlimit="10" stroke-width=".255"/>
    <ellipse cx="96.544" cy="284.911" rx="2.19" ry="2.181" fill="#ab6be0"/>
    <ellipse cx="89.037" cy="292.388" rx="3.441" ry="3.427" fill="none" stroke="#0c0d0b" stroke-miterlimit="10" stroke-width=".255"/>
    <ellipse cx="89.037" cy="292.388" rx="2.19" ry="2.181" fill="#0c0d0b"/>
    <path d="M120.941,292.699c0,1.893-1.54,3.427-3.441,3.427-1.9,0-3.441-1.534-3.441-3.427s1.54-3.427,3.441-3.427,3.441,1.534,3.441,3.427Z" fill="none" stroke="#0c0d0b" stroke-miterlimit="10" stroke-width=".255"/>
    <ellipse cx="117.501" cy="292.699" rx="2.19" ry="2.181" fill="#0c0d0b"/>
    <ellipse cx="111.245" cy="298.93" rx="3.441" ry="3.427" fill="none" stroke="#0c0d0b" stroke-miterlimit="10" stroke-width=".255"/>
    <path d="M113.434,298.93c0,1.204-.98,2.181-2.19,2.181s-2.19-.976-2.19-2.181.98-2.181,2.19-2.181,2.19.976,2.19,2.181Z" fill="#0c0d0b"/>
    <ellipse cx="103.738" cy="306.407" rx="3.441" ry="3.427" fill="none" stroke="#0c0d0b" stroke-miterlimit="10" stroke-width=".255"/>
    <ellipse cx="103.738" cy="306.407" rx="2.19" ry="2.181" fill="#0c0d0b"/>
    <polygon points="113.987 292.894 113.987 292.583 103.211 292.583 112.847 282.985 112.625 282.765 102.963 292.389 102.963 282.124 102.65 282.124 102.65 292.7 96.707 298.62 96.707 288.355 96.395 288.355 96.395 298.931 89.2 306.097 89.2 295.832 88.888 295.832 88.888 306.408 80.091 315.17 72.46 315.17 63.664 306.408 63.664 295.832 63.351 295.832 63.351 306.097 56.157 298.931 56.157 288.355 55.844 288.355 55.844 298.62 49.901 292.7 49.901 282.124 49.588 282.124 49.588 292.389 39.926 282.765 39.705 282.985 49.341 292.583 38.564 292.583 38.564 292.894 49.653 292.894 55.596 298.814 44.82 298.814 44.82 299.125 55.909 299.125 63.103 306.291 52.327 306.291 52.327 306.602 63.416 306.602 72.378 315.528 72.378 315.793 80.198 315.793 80.198 315.504 89.135 306.602 100.224 306.602 100.224 306.291 89.448 306.291 96.642 299.125 107.731 299.125 107.731 298.814 96.955 298.814 102.898 292.894 113.987 292.894" fill="#0c0d0b"/>
  </g>
  <g id="Flores">
    <g>
      <path d="M206.828,37.707v80.835c0,6.076-5.244,11.019-11.689,11.019h-16.489V7.775h-1.14v121.785h-39.691V15.131h-1.21v114.429h-48.642c-7.077,0-12.836-5.43-12.836-12.103V37.707h-1.173v79.75c0,7.321,6.284,13.276,14.009,13.276h48.642v42.126h1.21v-41.301l35.879,35.882c.562.562,1.286.857,2.033.857.376,0,.758-.075,1.129-.228,1.104-.458,1.791-1.485,1.791-2.68v-34.656h16.489c7.092,0,12.862-5.469,12.862-12.191V37.707h-1.173ZM177.51,165.388c0,.867-.561,1.409-1.087,1.626-.525.218-1.305.231-1.918-.382l-35.898-35.9h38.903v34.656Z" fill="#0c0d0b"/>
      <g>
        <path d="M146.328,73.654c.013.196.022.393.022.592,0,4.959-4.02,8.979-8.979,8.979s-8.979-4.02-8.979-8.979c0-.199.009-.396.022-.592-8.249.177-16.509.597-24.64,1.716,14.45,18.102,40.12,21.734,58.795,7.997,3.09-2.316,5.904-4.737,8.399-8.031-8.197-1.046-16.411-1.494-24.64-1.682Z" fill="#0c0d0b"/>
        <circle cx="137.371" cy="74.536" r="4.924" transform="translate(60.541 210.637) rotate(-89.039)" fill="#0c0d0b"/>
      </g>
      <g>
        <path d="M142.267,22.157c.007.107.012.215.012.324,0,2.711-2.197,4.908-4.908,4.908s-4.908-2.198-4.908-4.908c0-.109.005-.216.012-.323-4.509.097-9.024.326-13.469.938,7.899,9.895,21.931,11.881,32.139,4.371,1.689-1.266,3.227-2.589,4.591-4.39-4.481-.572-8.971-.817-13.469-.92Z" fill="#0c0d0b"/>
        <circle cx="137.371" cy="22.639" r="2.692" transform="translate(112.43 159.611) rotate(-89.039)" fill="#0c0d0b"/>
      </g>
      <g>
        <path d="M142.267,39.243c.007.107.012.215.012.324,0,2.711-2.197,4.908-4.908,4.908s-4.908-2.198-4.908-4.908c0-.109.005-.216.012-.323-4.509.097-9.024.326-13.469.938,7.899,9.895,21.931,11.881,32.139,4.371,1.689-1.266,3.227-2.589,4.591-4.39-4.481-.572-8.971-.817-13.469-.92Z" fill="#0c0d0b"/>
        <circle cx="137.371" cy="39.724" r="2.692" transform="translate(95.348 176.41) rotate(-89.039)" fill="#0c0d0b"/>
      </g>
      <g>
        <path d="M142.267,56.328c.007.107.012.215.012.324,0,2.711-2.197,4.908-4.908,4.908s-4.908-2.198-4.908-4.908c0-.109.005-.216.012-.323-4.509.097-9.024.326-13.469.938,7.899,9.895,21.931,11.881,32.139,4.371,1.689-1.266,3.227-2.589,4.591-4.39-4.481-.572-8.971-.817-13.469-.92Z" fill="#0c0d0b"/>
        <circle cx="137.371" cy="56.809" r="2.692" transform="translate(78.265 193.208) rotate(-89.039)" fill="#0c0d0b"/>
      </g>
      <g>
        <path d="M182.044,21.713c.006.09.01.18.01.271,0,2.269-1.84,4.109-4.109,4.109s-4.109-1.84-4.109-4.109c0-.091.004-.181.01-.271-3.775.081-7.555.273-11.276.785,6.613,8.284,18.36,9.946,26.907,3.66,1.414-1.06,2.702-2.168,3.844-3.675-3.751-.478-7.51-.684-11.276-.77Z" fill="#0c0d0b"/>
        <circle cx="177.945" cy="22.117" r="2.253" transform="translate(152.846 199.665) rotate(-89.039)" fill="#0c0d0b"/>
      </g>
      <g>
        <path d="M182.044,36.017c.006.09.01.18.01.271,0,2.269-1.84,4.109-4.109,4.109s-4.109-1.84-4.109-4.109c0-.091.004-.181.01-.271-3.775.081-7.555.273-11.276.785,6.613,8.284,18.36,9.946,26.907,3.66,1.414-1.06,2.702-2.168,3.844-3.675-3.751-.478-7.51-.684-11.276-.77Z" fill="#0c0d0b"/>
        <circle cx="177.945" cy="36.42" r="2.253" transform="translate(138.545 213.729) rotate(-89.039)" fill="#0c0d0b"/>
      </g>
      <g>
        <path d="M182.044,50.32c.006.09.01.18.01.271,0,2.269-1.84,4.109-4.109,4.109s-4.109-1.84-4.109-4.109c0-.091.004-.181.01-.271-3.775.081-7.555.273-11.276.785,6.613,8.284,18.36,9.946,26.907,3.66,1.414-1.06,2.702-2.168,3.844-3.675-3.751-.478-7.51-.684-11.276-.77Z" fill="#0c0d0b"/>
        <circle cx="177.945" cy="50.724" r="2.253" transform="translate(124.243 227.792) rotate(-89.039)" fill="#0c0d0b"/>
      </g>
      <g>
        <path d="M210.944,50.135c.005.077.009.155.009.233,0,1.954-1.584,3.539-3.538,3.539s-3.538-1.584-3.538-3.539c0-.078.003-.156.008-.233-3.251.07-6.506.235-9.71.676,5.694,7.134,15.81,8.565,23.17,3.151,1.218-.913,2.327-1.867,3.31-3.165-3.23-.412-6.467-.589-9.71-.663Z" fill="#0c0d0b"/>
        <circle cx="207.414" cy="50.483" r="1.94" transform="translate(153.459 257.021) rotate(-89.039)" fill="#0c0d0b"/>
      </g>
      <g>
        <path d="M210.944,62.452c.005.077.009.155.009.233,0,1.954-1.584,3.539-3.538,3.539s-3.538-1.584-3.538-3.539c0-.078.003-.156.008-.233-3.251.07-6.506.235-9.71.676,5.694,7.134,15.81,8.565,23.17,3.151,1.218-.913,2.327-1.867,3.31-3.165-3.23-.412-6.467-.589-9.71-.663Z" fill="#0c0d0b"/>
        <circle cx="207.414" cy="62.799" r="1.94" transform="translate(141.144 269.131) rotate(-89.039)" fill="#0c0d0b"/>
      </g>
      <g>
        <path d="M210.944,74.769c.005.077.009.155.009.233,0,1.954-1.584,3.539-3.538,3.539s-3.538-1.584-3.538-3.539c0-.078.003-.156.008-.233-3.251.07-6.506.235-9.71.676,5.694,7.134,15.81,8.565,23.17,3.151,1.218-.913,2.327-1.867,3.31-3.165-3.23-.412-6.467-.589-9.71-.663Z" fill="#0c0d0b"/>
        <circle cx="207.414" cy="75.116" r="1.94" transform="translate(128.829 281.241) rotate(-89.039)" fill="#0c0d0b"/>
      </g>
      <g>
        <path d="M83.545,89.885c.013.196.022.393.022.592,0,4.959-4.02,8.979-8.979,8.979s-8.979-4.02-8.979-8.979c0-.199.009-.396.022-.592-8.249.177-16.509.597-24.64,1.716,14.45,18.102,40.12,21.734,58.795,7.997,3.09-2.316,5.904-4.737,8.399-8.031-8.197-1.046-16.411-1.494-24.64-1.682Z" fill="#0c0d0b"/>
        <circle cx="74.588" cy="90.767" r="4.924" transform="translate(-17.417 163.822) rotate(-89.039)" fill="#0c0d0b"/>
      </g>
      <g>
        <path d="M79.484,38.388c.007.107.012.215.012.324,0,2.711-2.197,4.908-4.908,4.908s-4.908-2.198-4.908-4.908c0-.109.005-.216.012-.323-4.509.097-9.024.326-13.469.938,7.899,9.895,21.931,11.881,32.139,4.371,1.689-1.266,3.227-2.589,4.591-4.39-4.481-.572-8.971-.817-13.469-.92Z" fill="#0c0d0b"/>
        <circle cx="74.588" cy="38.87" r="2.692" transform="translate(34.472 112.796) rotate(-89.039)" fill="#0c0d0b"/>
      </g>
      <g>
        <path d="M79.484,55.473c.007.107.012.215.012.324,0,2.711-2.197,4.908-4.908,4.908s-4.908-2.198-4.908-4.908c0-.109.005-.216.012-.323-4.509.097-9.024.326-13.469.938,7.899,9.895,21.931,11.881,32.139,4.371,1.689-1.266,3.227-2.589,4.591-4.39-4.481-.572-8.971-.817-13.469-.92Z" fill="#0c0d0b"/>
        <circle cx="74.588" cy="55.955" r="2.692" transform="translate(17.39 129.594) rotate(-89.039)" fill="#0c0d0b"/>
      </g>
      <g>
        <path d="M79.484,72.558c.007.107.012.215.012.324,0,2.711-2.197,4.908-4.908,4.908s-4.908-2.198-4.908-4.908c0-.109.005-.216.012-.323-4.509.097-9.024.326-13.469.938,7.899,9.895,21.931,11.881,32.139,4.371,1.689-1.266,3.227-2.589,4.591-4.39-4.481-.572-8.971-.817-13.469-.92Z" fill="#0c0d0b"/>
        <circle cx="74.588" cy="73.04" r="2.692" transform="translate(.307 146.393) rotate(-89.039)" fill="#0c0d0b"/>
      </g>
      <circle cx="74.588" cy="90.851" r="3.844" fill="#6a3f8f"/>
      <circle cx="177.945" cy="9.697" r="5.552" fill="#6a3f8f"/>
      <g>
        <path d="M142.267,6.354c.007.107.012.215.012.324,0,2.711-2.197,4.908-4.908,4.908s-4.908-2.198-4.908-4.908c0-.109.005-.216.012-.323-4.509.097-9.024.326-13.469.938,7.899,9.895,21.931,11.881,32.139,4.371,1.689-1.266,3.227-2.589,4.591-4.39-4.481-.572-8.971-.817-13.469-.92Z" fill="#0c0d0b"/>
        <circle cx="137.371" cy="6.836" r="2.692" transform="translate(128.232 144.073) rotate(-89.039)" fill="#0c0d0b"/>
      </g>
      <circle cx="137.521" cy="6.103" r="5.552" fill="#6a3f8f"/>
      <circle cx="207.414" cy="36.178" r="5.552" fill="#6a3f8f"/>
      <circle cx="137.371" cy="130.146" r="9.396" fill="#6a3f8f"/>
    </g>
    <circle cx="180.23" cy="234.938" r="17.967" fill="#8045b2"/>
    <circle cx="76.025" cy="252.906" r="17.967" fill="#8045b2"/>
  </g>
</svg>