<?xml version="1.0" encoding="UTF-8"?>
<svg xmlns="http://www.w3.org/2000/svg" width="100" height="100" viewBox="0 0 100 100">
  <g id="Tallo">
    <g>
      <line x1="49.46" y1="100.895" x2="49.46" y2="1.085" fill="none" stroke="#0c0d0b" stroke-miterlimit="10" stroke-width=".566"/>
      <path d="M35.938,57.559v19.303c0,.755.612,1.367,1.367,1.367h12.257c.363,0,.71.144.967.4l6.088,6.088c.861.861,2.333.251,2.333-.967v-33.066" fill="none" stroke="#0c0d0b" stroke-linejoin="round" stroke-width=".283"/>
    </g>
  </g>
  <g id="Hojas">
    <g>
      <line x1="53.154" y1="62.039" x2="64.729" y2="62.039" fill="#0c0d0b" stroke="#000" stroke-miterlimit="10" stroke-width=".336"/>
      <path d="M53.217,63.3c-.697,0-1.261-.565-1.261-1.262s.565-1.262,1.261-1.262,1.261.565,1.261,1.262-.565,1.262-1.261,1.262Z" fill="#0c0d0b"/>
      <path d="M64.666,63.3c.697,0,1.261-.565,1.261-1.262s-.565-1.262-1.261-1.262-1.261.565-1.261,1.262.565,1.262,1.261,1.262Z" fill="#0c0d0b"/>
    </g>
    <g>
      <circle cx="40.792" cy="40.286" r=".765" fill="none" stroke="#0c0d0b" stroke-miterlimit="10" stroke-width=".057"/>
      <circle cx="40.792" cy="40.286" r=".486" fill="#6a3f8f"/>
      <circle cx="43.542" cy="39.949" r=".765" fill="none" stroke="#0c0d0b" stroke-miterlimit="10" stroke-width=".057"/>
      <circle cx="43.542" cy="39.949" r=".486" fill="#0c0d0b"/>
      <circle cx="44.932" cy="41.333" r=".765" fill="none" stroke="#0c0d0b" stroke-miterlimit="10" stroke-width=".057"/>
      <circle cx="44.932" cy="41.333" r=".486" fill="#0c0d0b"/>
      <circle cx="46.6" cy="42.995" r=".765" fill="none" stroke="#0c0d0b" stroke-miterlimit="10" stroke-width=".057"/>
      <circle cx="46.6" cy="42.995" r=".486" fill="#0c0d0b"/>
      <circle cx="40.275" cy="43.064" r=".765" fill="none" stroke="#0c0d0b" stroke-miterlimit="10" stroke-width=".057"/>
      <circle cx="40.275" cy="43.064" r=".486" fill="#0c0d0b"/>
      <circle cx="41.665" cy="44.448" r=".765" fill="none" stroke="#0c0d0b" stroke-miterlimit="10" stroke-width=".057"/>
      <circle cx="41.665" cy="44.448" r=".486" fill="#0c0d0b"/>
      <circle cx="43.333" cy="46.11" r=".765" fill="none" stroke="#0c0d0b" stroke-miterlimit="10" stroke-width=".057"/>
      <circle cx="43.333" cy="46.11" r=".486" fill="#8045b2"/>
      <circle cx="58.059" cy="40.286" r=".765" fill="none" stroke="#0c0d0b" stroke-miterlimit="10" stroke-width=".057"/>
      <circle cx="58.059" cy="40.286" r=".486" fill="#0c0d0b"/>
      <circle cx="55.309" cy="39.949" r=".765" fill="none" stroke="#0c0d0b" stroke-miterlimit="10" stroke-width=".057"/>
      <circle cx="55.309" cy="39.949" r=".486" fill="#0c0d0b"/>
      <circle cx="53.919" cy="41.333" r=".765" fill="none" stroke="#0c0d0b" stroke-miterlimit="10" stroke-width=".057"/>
      <circle cx="53.919" cy="41.333" r=".486" fill="#ab6be0"/>
      <circle cx="52.251" cy="42.995" r=".765" fill="none" stroke="#0c0d0b" stroke-miterlimit="10" stroke-width=".057"/>
      <circle cx="52.251" cy="42.995" r=".486" fill="#0c0d0b"/>
      <path d="M59.341,43.064c0,.421-.342.761-.765.761s-.765-.341-.765-.761.342-.761.765-.761.765.341.765.761Z" fill="none" stroke="#0c0d0b" stroke-miterlimit="10" stroke-width=".057"/>
      <circle cx="58.576" cy="43.064" r=".486" fill="#0c0d0b"/>
      <circle cx="57.186" cy="44.448" r=".765" fill="none" stroke="#0c0d0b" stroke-miterlimit="10" stroke-width=".057"/>
      <circle cx="57.186" cy="44.448" r=".486" fill="#0c0d0b"/>
      <circle cx="55.518" cy="46.11" r=".765" fill="none" stroke="#0c0d0b" stroke-miterlimit="10" stroke-width=".057"/>
      <circle cx="55.518" cy="46.11" r=".486" fill="#0c0d0b"/>
      <polygon points="57.795 43.107 57.795 43.038 55.401 43.038 57.542 40.905 57.493 40.856 55.346 42.995 55.346 40.714 55.276 40.714 55.276 43.064 53.956 44.379 53.956 42.098 53.886 42.098 53.886 44.449 52.288 46.041 52.288 43.76 52.218 43.76 52.218 46.11 50.264 48.057 48.568 48.057 46.614 46.11 46.614 43.76 46.544 43.76 46.544 46.041 44.945 44.449 44.945 42.098 44.876 42.098 44.876 44.379 43.555 43.064 43.555 40.714 43.486 40.714 43.486 42.995 41.339 40.856 41.29 40.905 43.431 43.038 41.036 43.038 41.036 43.107 43.5 43.107 44.821 44.422 42.426 44.422 42.426 44.492 44.89 44.492 46.489 46.084 44.095 46.084 44.095 46.153 46.558 46.153 48.55 48.136 48.55 48.195 50.287 48.195 50.287 48.131 52.273 46.153 54.737 46.153 54.737 46.084 52.343 46.084 53.941 44.492 56.405 44.492 56.405 44.422 54.011 44.422 55.331 43.107 57.795 43.107" fill="#0c0d0b"/>
    </g>
    <g>
      <circle cx="27.219" cy="63.043" r=".765" fill="none" stroke="#0c0d0b" stroke-miterlimit="10" stroke-width=".057"/>
      <circle cx="27.219" cy="63.043" r=".486" fill="#6a3f8f"/>
      <circle cx="29.968" cy="62.705" r=".765" fill="none" stroke="#0c0d0b" stroke-miterlimit="10" stroke-width=".057"/>
      <circle cx="29.968" cy="62.705" r=".486" fill="#0c0d0b"/>
      <circle cx="31.358" cy="64.09" r=".765" fill="none" stroke="#0c0d0b" stroke-miterlimit="10" stroke-width=".057"/>
      <circle cx="31.358" cy="64.09" r=".486" fill="#0c0d0b"/>
      <circle cx="33.026" cy="65.751" r=".765" fill="none" stroke="#0c0d0b" stroke-miterlimit="10" stroke-width=".057"/>
      <circle cx="33.026" cy="65.751" r=".486" fill="#0c0d0b"/>
      <circle cx="26.702" cy="65.821" r=".765" fill="none" stroke="#0c0d0b" stroke-miterlimit="10" stroke-width=".057"/>
      <circle cx="26.702" cy="65.821" r=".486" fill="#0c0d0b"/>
      <circle cx="28.092" cy="67.205" r=".765" fill="none" stroke="#0c0d0b" stroke-miterlimit="10" stroke-width=".057"/>
      <circle cx="28.092" cy="67.205" r=".486" fill="#0c0d0b"/>
      <circle cx="29.76" cy="68.867" r=".765" fill="none" stroke="#0c0d0b" stroke-miterlimit="10" stroke-width=".057"/>
      <circle cx="29.76" cy="68.867" r=".486" fill="#8045b2"/>
      <circle cx="44.486" cy="63.043" r=".765" fill="none" stroke="#0c0d0b" stroke-miterlimit="10" stroke-width=".057"/>
      <circle cx="44.486" cy="63.043" r=".486" fill="#0c0d0b"/>
      <circle cx="41.736" cy="62.705" r=".765" fill="none" stroke="#0c0d0b" stroke-miterlimit="10" stroke-width=".057"/>
      <circle cx="41.736" cy="62.705" r=".486" fill="#0c0d0b"/>
      <circle cx="40.346" cy="64.09" r=".765" fill="none" stroke="#0c0d0b" stroke-miterlimit="10" stroke-width=".057"/>
      <circle cx="40.346" cy="64.09" r=".486" fill="#ab6be0"/>
      <circle cx="38.678" cy="65.751" r=".765" fill="none" stroke="#0c0d0b" stroke-miterlimit="10" stroke-width=".057"/>
      <circle cx="38.678" cy="65.751" r=".486" fill="#0c0d0b"/>
      <circle cx="45.003" cy="65.821" r=".765" fill="none" stroke="#0c0d0b" stroke-miterlimit="10" stroke-width=".057"/>
      <circle cx="45.003" cy="65.821" r=".486" fill="#0c0d0b"/>
      <circle cx="43.613" cy="67.205" r=".765" fill="none" stroke="#0c0d0b" stroke-miterlimit="10" stroke-width=".057"/>
      <circle cx="43.613" cy="67.205" r=".486" fill="#0c0d0b"/>
      <circle cx="41.945" cy="68.867" r=".765" fill="none" stroke="#0c0d0b" stroke-miterlimit="10" stroke-width=".057"/>
      <circle cx="41.945" cy="68.867" r=".486" fill="#0c0d0b"/>
      <polygon points="44.222 65.864 44.222 65.795 41.828 65.795 43.969 63.662 43.92 63.613 41.773 65.752 41.773 63.471 41.703 63.471 41.703 65.821 40.383 67.136 40.383 64.855 40.313 64.855 40.313 67.205 38.715 68.798 38.715 66.517 38.645 66.517 38.645 68.867 36.691 70.814 34.995 70.814 33.04 68.867 33.04 66.517 32.971 66.517 32.971 68.798 31.372 67.205 31.372 64.855 31.303 64.855 31.303 67.136 29.982 65.821 29.982 63.471 29.913 63.471 29.913 65.752 27.766 63.613 27.717 63.662 29.858 65.795 27.463 65.795 27.463 65.864 29.927 65.864 31.248 67.179 28.853 67.179 28.853 67.248 31.317 67.248 32.916 68.841 30.521 68.841 30.521 68.91 32.985 68.91 34.977 70.893 34.977 70.952 36.714 70.952 36.714 70.888 38.7 68.91 41.164 68.91 41.164 68.841 38.77 68.841 40.368 67.248 42.832 67.248 42.832 67.179 40.438 67.179 41.758 65.864 44.222 65.864" fill="#0c0d0b"/>
    </g>
  </g>
  <g id="Flores">
    <g>
      <path d="M64.851,9.161v17.961c0,1.35-1.165,2.448-2.597,2.448h-3.664V2.51h-.253v27.061h-8.819V4.145h-.269v25.426h-10.808c-1.573,0-2.852-1.206-2.852-2.689V9.161h-.261v17.72c0,1.627,1.396,2.95,3.113,2.95h10.808v9.36h.269v-9.177l7.972,7.973c.125.125.286.19.452.19.084,0,.168-.017.251-.051.245-.102.398-.33.398-.595v-7.7h3.664c1.576,0,2.858-1.215,2.858-2.709V9.161h-.261ZM58.337,37.532c0,.193-.125.313-.242.361-.117.048-.29.051-.426-.085l-7.976-7.977h8.644v7.7Z" fill="#0c0d0b"/>
      <g>
        <path d="M51.408,17.149c.003.044.005.087.005.132,0,1.102-.893,1.995-1.995,1.995s-1.995-.893-1.995-1.995c0-.044.002-.088.005-.131-1.833.039-3.668.133-5.475.381,3.211,4.022,8.915,4.829,13.064,1.777.687-.515,1.312-1.053,1.866-1.784-1.821-.232-3.647-.332-5.475-.374Z" fill="#0c0d0b"/>
        <circle cx="49.418" cy="17.345" r="1.094" transform="translate(31.247 66.465) rotate(-89.039)" fill="#0c0d0b"/>
      </g>
      <g>
        <path d="M50.506,5.706c.002.024.003.048.003.072,0,.602-.488,1.091-1.091,1.091s-1.091-.488-1.091-1.091c0-.024.001-.048.003-.072-1.002.021-2.005.072-2.993.208,1.755,2.199,4.873,2.64,7.141.971.375-.281.717-.575,1.02-.975-.996-.127-1.993-.181-2.993-.204Z" fill="#0c0d0b"/>
        <circle cx="49.418" cy="5.813" r=".598" transform="translate(42.777 55.127) rotate(-89.039)" fill="#0c0d0b"/>
      </g>
      <g>
        <path d="M50.506,9.502c.002.024.003.048.003.072,0,.602-.488,1.091-1.091,1.091s-1.091-.488-1.091-1.091c0-.024.001-.048.003-.072-1.002.021-2.005.072-2.993.208,1.755,2.199,4.873,2.64,7.141.971.375-.281.717-.575,1.02-.975-.996-.127-1.993-.181-2.993-.204Z" fill="#0c0d0b"/>
        <circle cx="49.418" cy="9.61" r=".598" transform="translate(38.981 58.859) rotate(-89.039)" fill="#0c0d0b"/>
      </g>
      <g>
        <path d="M50.506,13.299c.002.024.003.048.003.072,0,.602-.488,1.091-1.091,1.091s-1.091-.488-1.091-1.091c0-.024.001-.048.003-.072-1.002.021-2.005.072-2.993.208,1.755,2.199,4.873,2.64,7.141.971.375-.281.717-.575,1.02-.975-.996-.127-1.993-.181-2.993-.204Z" fill="#0c0d0b"/>
        <circle cx="49.418" cy="13.406" r=".598" transform="translate(35.185 62.592) rotate(-89.039)" fill="#0c0d0b"/>
      </g>
      <g>
        <path d="M59.344,5.607c.001.02.002.04.002.06,0,.504-.409.913-.913.913s-.913-.409-.913-.913c0-.02,0-.04.002-.06-.839.018-1.679.061-2.506.175,1.469,1.841,4.08,2.21,5.979.813.314-.236.6-.482.854-.817-.833-.106-1.669-.152-2.506-.171Z" fill="#0c0d0b"/>
        <circle cx="58.434" cy="5.697" r=".501" transform="translate(51.757 64.027) rotate(-89.039)" fill="#0c0d0b"/>
      </g>
      <g>
        <path d="M59.344,8.786c.001.02.002.04.002.06,0,.504-.409.913-.913.913s-.913-.409-.913-.913c0-.02,0-.04.002-.06-.839.018-1.679.061-2.506.175,1.469,1.841,4.08,2.21,5.979.813.314-.236.6-.482.854-.817-.833-.106-1.669-.152-2.506-.171Z" fill="#0c0d0b"/>
        <circle cx="58.434" cy="8.875" r=".501" transform="translate(48.579 67.152) rotate(-89.039)" fill="#0c0d0b"/>
      </g>
      <g>
        <path d="M59.344,11.964c.001.02.002.04.002.06,0,.504-.409.913-.913.913s-.913-.409-.913-.913c0-.02,0-.04.002-.06-.839.018-1.679.061-2.506.175,1.469,1.841,4.08,2.21,5.979.813.314-.236.6-.482.854-.817-.833-.106-1.669-.152-2.506-.171Z" fill="#0c0d0b"/>
        <circle cx="58.434" cy="12.054" r=".501" transform="translate(45.401 70.277) rotate(-89.039)" fill="#0c0d0b"/>
      </g>
      <g>
        <path d="M65.766,11.923c.001.017.002.034.002.052,0,.434-.352.786-.786.786s-.786-.352-.786-.786c0-.017,0-.035.002-.052-.722.015-1.446.052-2.158.15,1.265,1.585,3.513,1.903,5.148.7.271-.203.517-.415.735-.703-.718-.092-1.437-.131-2.158-.147Z" fill="#0c0d0b"/>
        <circle cx="64.982" cy="12" r=".431" transform="translate(51.893 76.771) rotate(-89.039)" fill="#0c0d0b"/>
      </g>
      <g>
        <path d="M65.766,14.66c.001.017.002.034.002.052,0,.434-.352.786-.786.786s-.786-.352-.786-.786c0-.017,0-.035.002-.052-.722.015-1.446.052-2.158.15,1.265,1.585,3.513,1.903,5.148.7.271-.203.517-.415.735-.703-.718-.092-1.437-.131-2.158-.147Z" fill="#0c0d0b"/>
        <circle cx="64.982" cy="14.737" r=".431" transform="translate(49.157 79.462) rotate(-89.039)" fill="#0c0d0b"/>
      </g>
      <g>
        <path d="M65.766,17.396c.001.017.002.034.002.052,0,.434-.352.786-.786.786s-.786-.352-.786-.786c0-.017,0-.035.002-.052-.722.015-1.446.052-2.158.15,1.265,1.585,3.513,1.903,5.148.7.271-.203.517-.415.735-.703-.718-.092-1.437-.131-2.158-.147Z" fill="#0c0d0b"/>
        <circle cx="64.982" cy="17.474" r=".431" transform="translate(46.42 82.153) rotate(-89.039)" fill="#0c0d0b"/>
      </g>
      <g>
        <path d="M37.458,20.755c.003.044.005.087.005.132,0,1.102-.893,1.995-1.995,1.995s-1.995-.893-1.995-1.995c0-.044.002-.088.005-.131-1.833.039-3.668.133-5.475.381,3.211,4.022,8.915,4.829,13.064,1.777.687-.515,1.312-1.053,1.866-1.784-1.821-.232-3.647-.332-5.475-.374Z" fill="#0c0d0b"/>
        <circle cx="35.468" cy="20.951" r="1.094" transform="translate(13.925 56.062) rotate(-89.039)" fill="#0c0d0b"/>
      </g>
      <g>
        <path d="M36.556,9.313c.002.024.003.048.003.072,0,.602-.488,1.091-1.091,1.091s-1.091-.488-1.091-1.091c0-.024.001-.048.003-.072-1.002.021-2.005.072-2.993.208,1.755,2.199,4.873,2.64,7.141.971.375-.281.717-.575,1.02-.975-.996-.127-1.993-.181-2.993-.204Z" fill="#0c0d0b"/>
        <circle cx="35.468" cy="9.42" r=".598" transform="translate(25.454 44.724) rotate(-89.039)" fill="#0c0d0b"/>
      </g>
      <g>
        <path d="M36.556,13.109c.002.024.003.048.003.072,0,.602-.488,1.091-1.091,1.091s-1.091-.488-1.091-1.091c0-.024.001-.048.003-.072-1.002.021-2.005.072-2.993.208,1.755,2.199,4.873,2.64,7.141.971.375-.281.717-.575,1.02-.975-.996-.127-1.993-.181-2.993-.204Z" fill="#0c0d0b"/>
        <circle cx="35.468" cy="13.216" r=".598" transform="translate(21.659 48.457) rotate(-89.039)" fill="#0c0d0b"/>
      </g>
      <g>
        <path d="M36.556,16.905c.002.024.003.048.003.072,0,.602-.488,1.091-1.091,1.091s-1.091-.488-1.091-1.091c0-.024.001-.048.003-.072-1.002.021-2.005.072-2.993.208,1.755,2.199,4.873,2.64,7.141.971.375-.281.717-.575,1.02-.975-.996-.127-1.993-.181-2.993-.204Z" fill="#0c0d0b"/>
        <circle cx="35.468" cy="17.012" r=".598" transform="translate(17.863 52.19) rotate(-89.039)" fill="#0c0d0b"/>
      </g>
      <circle cx="35.468" cy="20.97" r=".854" fill="#6a3f8f"/>
      <circle cx="58.434" cy="2.937" r="1.234" fill="#6a3f8f"/>
      <g>
        <path d="M50.506,2.195c.002.024.003.048.003.072,0,.602-.488,1.091-1.091,1.091s-1.091-.488-1.091-1.091c0-.024.001-.048.003-.072-1.002.021-2.005.072-2.993.208,1.755,2.199,4.873,2.64,7.141.971.375-.281.717-.575,1.02-.975-.996-.127-1.993-.181-2.993-.204Z" fill="#0c0d0b"/>
        <circle cx="49.418" cy="2.302" r=".598" transform="translate(46.288 51.674) rotate(-89.039)" fill="#0c0d0b"/>
      </g>
      <circle cx="49.451" cy="2.139" r="1.234" fill="#6a3f8f"/>
      <circle cx="64.982" cy="8.822" r="1.234" fill="#6a3f8f"/>
      <circle cx="49.418" cy="29.701" r="2.088" fill="#6a3f8f"/>
    </g>
    <circle cx="58.941" cy="52.986" r="3.992" fill="#8045b2"/>
    <circle cx="35.787" cy="56.978" r="3.992" fill="#8045b2"/>
  </g>
</svg>