<?xml version="1.0" encoding="UTF-8"?>
<svg xmlns="http://www.w3.org/2000/svg" width="100" height="100" viewBox="0 0 100 100">
  <g id="Tallo">
    <g>
      <line x1="49.893" y1="101.106" x2="49.893" y2="25.01" fill="none" stroke="#0c0d0b" stroke-miterlimit="10" stroke-width=".431"/>
      <path d="M36.843,38.693v13.47c0,1.264,1.025,2.289,2.289,2.289h18.131c1.264,0,2.289-1.025,2.289-2.289v-13.47" fill="none" stroke="#0c0d0b" stroke-miterlimit="10" stroke-width=".216"/>
      <path d="M39.43,63.348v14.717c0,.576.467,1.042,1.042,1.042h9.345c.276,0,.542.11.737.305l4.641,4.641c.657.657,1.779.192,1.779-.737v-25.21" fill="none" stroke="#0c0d0b" stroke-linejoin="round" stroke-width=".216"/>
    </g>
  </g>
  <g id="Hojas">
    <g>
      <line x1="52.252" y1="68.438" x2="61.078" y2="68.438" fill="#0c0d0b" stroke="#000" stroke-miterlimit="10" stroke-width=".256"/>
      <path d="M52.3,69.4c-.531,0-.962-.431-.962-.962s.431-.962.962-.962.962.431.962.962-.431.962-.962.962Z" fill="#0c0d0b"/>
      <path d="M61.03,69.4c.531,0,.962-.431.962-.962s-.431-.962-.962-.962-.962.431-.962.962.431.962.962.962Z" fill="#0c0d0b"/>
    </g>
    <g>
      <line x1="52.557" y1="75.135" x2="61.383" y2="75.135" fill="#0c0d0b" stroke="#000" stroke-miterlimit="10" stroke-width=".256"/>
      <path d="M52.605,76.096c-.531,0-.962-.431-.962-.962s.431-.962.962-.962.962.431.962.962-.431.962-.962.962Z" fill="#0c0d0b"/>
      <path d="M61.335,76.096c.531,0,.962-.431.962-.962s-.431-.962-.962-.962-.962.431-.962.962.431.962.962.962Z" fill="#0c0d0b"/>
    </g>
    <g>
      <line x1="30.424" y1="44.795" x2="43.033" y2="44.795" fill="#0c0d0b" stroke="#000" stroke-miterlimit="10" stroke-width=".365"/>
      <path d="M30.493,46.169c-.759,0-1.374-.615-1.374-1.374s.615-1.374,1.374-1.374,1.374.615,1.374,1.374-.615,1.374-1.374,1.374Z" fill="#0c0d0b"/>
      <path d="M42.964,46.169c.759,0,1.374-.615,1.374-1.374s-.615-1.374-1.374-1.374-1.374.615-1.374,1.374.615,1.374,1.374,1.374Z" fill="#0c0d0b"/>
    </g>
    <g>
      <line x1="43.208" y1="51.035" x2="55.817" y2="51.035" fill="#0c0d0b" stroke="#000" stroke-miterlimit="10" stroke-width=".365"/>
      <path d="M43.277,52.409c-.759,0-1.374-.615-1.374-1.374s.615-1.374,1.374-1.374,1.374.615,1.374,1.374-.615,1.374-1.374,1.374Z" fill="#0c0d0b"/>
      <path d="M55.748,52.409c.759,0,1.374-.615,1.374-1.374s-.615-1.374-1.374-1.374-1.374.615-1.374,1.374.615,1.374,1.374,1.374Z" fill="#0c0d0b"/>
    </g>
    <g>
      <line x1="33.163" y1="72.798" x2="45.772" y2="72.798" fill="#0c0d0b" stroke="#000" stroke-miterlimit="10" stroke-width=".365"/>
      <path d="M33.232,74.172c-.759,0-1.374-.615-1.374-1.374s.615-1.374,1.374-1.374,1.374.615,1.374,1.374-.615,1.374-1.374,1.374Z" fill="#0c0d0b"/>
      <path d="M45.703,74.172c.759,0,1.374-.615,1.374-1.374s-.615-1.374-1.374-1.374-1.374.615-1.374,1.374.615,1.374,1.374,1.374Z" fill="#0c0d0b"/>
    </g>
    <g>
      <g>
        <path d="M41.936,64.836c.004-.054.006-.108.006-.163,0-1.366-1.108-2.474-2.474-2.474s-2.474,1.108-2.474,2.474c0,.055.002.109.006.163-2.273-.049-4.549-.164-6.79-.473,3.982-4.988,11.056-5.989,16.202-2.203.851.638,1.627,1.305,2.315,2.213-2.259.288-4.522.412-6.79.464Z" fill="#0c0d0b"/>
        <circle cx="39.468" cy="64.593" r="1.357" fill="#0c0d0b"/>
      </g>
      <circle cx="39.468" cy="64.58" r="1.37" fill="#662d91"/>
    </g>
    <g>
      <g>
        <path d="M59.286,61.183c.004-.054.006-.108.006-.163,0-1.366-1.108-2.474-2.474-2.474s-2.474,1.108-2.474,2.474c0,.055.002.109.006.163-2.273-.049-4.549-.164-6.79-.473,3.982-4.988,11.056-5.989,16.202-2.203.851.638,1.627,1.305,2.315,2.213-2.259.288-4.522.412-6.79.464Z" fill="#0c0d0b"/>
        <circle cx="56.818" cy="60.94" r="1.357" fill="#0c0d0b"/>
      </g>
      <circle cx="56.818" cy="60.927" r="1.37" fill="#662d91"/>
    </g>
  </g>
  <g id="Flores">
    <g>
      <line x1="49.871" y1="31.554" x2="49.871" y2="6.027" fill="none" stroke="#0c0d0b" stroke-miterlimit="10" stroke-width=".344"/>
      <g>
        <path d="M54.738,7.218c-.5-.234-1.001-.318-1.501.092-.467.363-.96,1.109-1.501,1.35-.127.049-.257.09-.39.125h-3.494c-.132-.035-.263-.076-.39-.125-.541-.241-1.034-.987-1.501-1.35-.5-.411-1.001-.327-1.501-.092-.684.378-1.089.901-1.501,1.74.411.839.817,1.363,1.501,1.74.5.234,1.001.318,1.501-.093.467-.363.96-1.109,1.501-1.35.127-.049.257-.09.39-.125h3.494c.132.035.263.076.39.125.541.241,1.034.988,1.501,1.35.5.411,1.001.327,1.501.093.684-.377,1.09-.901,1.501-1.74-.412-.839-.817-1.362-1.501-1.74Z" fill="#0c0d0b"/>
        <circle cx="45.02" cy="8.958" r=".728" fill="#6a3f8f"/>
        <circle cx="53.994" cy="8.958" r=".728" fill="#6a3f8f"/>
      </g>
      <g>
        <path d="M50.629,13.002c-.5-.234-1.001-.318-1.501.092-.467.363-.96,1.109-1.501,1.35-.127.049-.257.09-.39.125h-3.494c-.132-.035-.263-.076-.39-.125-.541-.241-1.034-.987-1.501-1.35-.5-.411-1.001-.327-1.501-.092-.684.378-1.089.901-1.501,1.74.411.839.817,1.363,1.501,1.74.5.234,1.001.318,1.501-.093.467-.363.96-1.109,1.501-1.35.127-.049.257-.09.39-.125h3.494c.132.035.263.076.39.125.541.241,1.034.988,1.501,1.35.5.411,1.001.327,1.501.093.684-.377,1.09-.901,1.501-1.74-.412-.839-.817-1.362-1.501-1.74Z" fill="#0c0d0b"/>
        <circle cx="40.911" cy="14.741" r=".728" fill="#6a3f8f"/>
        <circle cx="49.885" cy="14.741" r=".728" fill="#6a3f8f"/>
      </g>
      <g>
        <path d="M55.042,17.567c-.5-.234-1.001-.318-1.501.092-.467.363-.96,1.109-1.501,1.35-.127.049-.257.09-.39.125h-3.494c-.132-.035-.263-.076-.39-.125-.541-.241-1.034-.987-1.501-1.35-.5-.411-1.001-.327-1.501-.092-.684.378-1.089.901-1.501,1.74.411.839.817,1.363,1.501,1.74.5.234,1.001.318,1.501-.093.467-.363.96-1.109,1.501-1.35.127-.049.257-.09.39-.125h3.494c.132.035.263.076.39.125.541.241,1.034.988,1.501,1.35.5.411,1.001.327,1.501.093.684-.377,1.09-.901,1.501-1.74-.412-.839-.817-1.362-1.501-1.74Z" fill="#0c0d0b"/>
        <circle cx="45.325" cy="19.307" r=".728" fill="#6a3f8f"/>
        <circle cx="54.299" cy="19.307" r=".728" fill="#6a3f8f"/>
      </g>
      <g>
        <path d="M59.456,21.372c-.5-.234-1.001-.318-1.501.092-.467.363-.96,1.109-1.501,1.35-.127.049-.257.09-.39.125h-3.494c-.132-.035-.263-.076-.39-.125-.541-.241-1.034-.987-1.501-1.35-.5-.411-1.001-.327-1.501-.092-.684.378-1.089.901-1.501,1.74.411.839.817,1.363,1.501,1.74.5.234,1.001.318,1.501-.093.467-.363.96-1.109,1.501-1.35.127-.049.257-.09.39-.125h3.494c.132.035.263.076.39.125.541.241,1.034.988,1.501,1.35.5.411,1.001.327,1.501.093.684-.377,1.09-.901,1.501-1.74-.412-.839-.817-1.362-1.501-1.74Z" fill="#0c0d0b"/>
        <circle cx="49.738" cy="23.112" r=".728" fill="#6a3f8f"/>
        <circle cx="58.712" cy="23.112" r=".728" fill="#6a3f8f"/>
      </g>
      <g>
        <path d="M55.042,26.09c-.5-.234-1.001-.318-1.501.092-.467.363-.96,1.109-1.501,1.35-.127.049-.257.09-.39.125h-3.494c-.132-.035-.263-.076-.39-.125-.541-.241-1.034-.987-1.501-1.35-.5-.411-1.001-.327-1.501-.092-.684.378-1.089.901-1.501,1.74.411.839.817,1.363,1.501,1.74.5.234,1.001.318,1.501-.093.467-.363.96-1.109,1.501-1.35.127-.049.257-.09.39-.125h3.494c.132.035.263.076.39.125.541.241,1.034.988,1.501,1.35.5.411,1.001.327,1.501.093.684-.377,1.09-.901,1.501-1.74-.412-.839-.817-1.362-1.501-1.74Z" fill="#0c0d0b"/>
        <circle cx="45.325" cy="27.83" r=".728" fill="#6a3f8f"/>
        <circle cx="54.299" cy="27.83" r=".728" fill="#6a3f8f"/>
      </g>
      <path d="M49.871,1.116c-1.507,0-2.729,1.222-2.729,2.729s1.222,2.729,2.729,2.729,2.729-1.222,2.729-2.729-1.222-2.729-2.729-2.729ZM49.871,5.664c-1.005,0-1.819-.814-1.819-1.819s.814-1.819,1.819-1.819,1.819.814,1.819,1.819-.814,1.819-1.819,1.819Z" fill="#0c0d0b"/>
      <circle cx="49.871" cy="3.845" r=".849" fill="#8045b2"/>
    </g>
    <g>
      <line x1="36.799" y1="41.295" x2="36.799" y2="28.531" fill="none" stroke="#0c0d0b" stroke-miterlimit="10" stroke-width=".172"/>
      <g>
        <path d="M39.232,29.127c-.25-.117-.5-.159-.751.046-.234.181-.48.555-.751.675-.063.025-.129.045-.195.063h-1.747c-.066-.018-.131-.038-.195-.063-.27-.121-.517-.494-.751-.675-.25-.205-.5-.163-.751-.046-.342.189-.545.45-.751.87.205.419.409.681.751.87.25.117.5.159.751-.046.234-.181.48-.555.751-.675.063-.025.129-.045.195-.063h1.747c.066.018.131.038.195.063.27.12.517.494.751.675.25.205.5.163.751.046.342-.189.545-.451.751-.87-.206-.42-.409-.681-.751-.87Z" fill="#0c0d0b"/>
        <circle cx="34.373" cy="29.997" r=".364" fill="#6a3f8f"/>
        <circle cx="38.86" cy="29.997" r=".364" fill="#6a3f8f"/>
      </g>
      <g>
        <path d="M37.177,32.018c-.25-.117-.5-.159-.751.046-.234.181-.48.555-.751.675-.063.025-.129.045-.195.063h-1.747c-.066-.018-.131-.038-.195-.063-.27-.121-.517-.494-.751-.675-.25-.205-.5-.163-.751-.046-.342.189-.545.45-.751.87.205.419.409.681.751.87.25.117.5.159.751-.046.234-.181.48-.555.751-.675.063-.025.129-.045.195-.063h1.747c.066.018.131.038.195.063.27.12.517.494.751.675.25.205.5.163.751.046.342-.189.545-.451.751-.87-.206-.42-.409-.681-.751-.87Z" fill="#0c0d0b"/>
        <circle cx="32.319" cy="32.888" r=".364" fill="#6a3f8f"/>
        <circle cx="36.806" cy="32.888" r=".364" fill="#6a3f8f"/>
      </g>
      <g>
        <path d="M39.384,34.301c-.25-.117-.5-.159-.751.046-.234.181-.48.555-.751.675-.063.025-.129.045-.195.063h-1.747c-.066-.018-.131-.038-.195-.063-.27-.121-.517-.494-.751-.675-.25-.205-.5-.163-.751-.046-.342.189-.545.45-.751.87.205.419.409.681.751.87.25.117.5.159.751-.046.234-.181.48-.555.751-.675.063-.025.129-.045.195-.063h1.747c.066.018.131.038.195.063.27.12.517.494.751.675.25.205.5.163.751.046.342-.189.545-.451.751-.87-.206-.42-.409-.681-.751-.87Z" fill="#0c0d0b"/>
        <circle cx="34.525" cy="35.171" r=".364" fill="#6a3f8f"/>
        <circle cx="39.012" cy="35.171" r=".364" fill="#6a3f8f"/>
      </g>
      <g>
        <path d="M41.591,36.204c-.25-.117-.5-.159-.751.046-.234.181-.48.555-.751.675-.063.025-.129.045-.195.063h-1.747c-.066-.018-.131-.038-.195-.063-.27-.121-.517-.494-.751-.675-.25-.205-.5-.163-.751-.046-.342.189-.545.45-.751.87.205.419.409.681.751.87.25.117.5.159.751-.046.234-.181.48-.555.751-.675.063-.025.129-.045.195-.063h1.747c.066.018.131.038.195.063.27.12.517.494.751.675.25.205.5.163.751.046.342-.189.545-.451.751-.87-.206-.42-.409-.681-.751-.87Z" fill="#0c0d0b"/>
        <circle cx="36.732" cy="37.073" r=".364" fill="#6a3f8f"/>
        <circle cx="41.219" cy="37.073" r=".364" fill="#6a3f8f"/>
      </g>
      <g>
        <path d="M39.384,38.563c-.25-.117-.5-.159-.751.046-.234.181-.48.555-.751.675-.063.025-.129.045-.195.063h-1.747c-.066-.018-.131-.038-.195-.063-.27-.121-.517-.494-.751-.675-.25-.205-.5-.163-.751-.046-.342.189-.545.45-.751.87.205.419.409.681.751.87.25.117.5.159.751-.046.234-.181.48-.555.751-.675.063-.025.129-.045.195-.063h1.747c.066.018.131.038.195.063.27.12.517.494.751.675.25.205.5.163.751.046.342-.189.545-.451.751-.87-.206-.42-.409-.681-.751-.87Z" fill="#0c0d0b"/>
        <circle cx="34.525" cy="39.432" r=".364" fill="#6a3f8f"/>
        <circle cx="39.012" cy="39.432" r=".364" fill="#6a3f8f"/>
      </g>
      <path d="M36.799,26.076c-.753,0-1.364.611-1.364,1.364s.611,1.364,1.364,1.364,1.364-.611,1.364-1.364-.611-1.364-1.364-1.364ZM36.799,28.349c-.502,0-.91-.407-.91-.91s.407-.91.91-.91.91.407.91.91-.407.91-.91.91Z" fill="#0c0d0b"/>
      <circle cx="36.799" cy="27.44" r=".424" fill="#8045b2"/>
    </g>
    <g>
      <line x1="59.475" y1="46.317" x2="59.475" y2="33.554" fill="none" stroke="#0c0d0b" stroke-miterlimit="10" stroke-width=".172"/>
      <g>
        <path d="M61.909,34.149c-.25-.117-.5-.159-.751.046-.234.181-.48.555-.751.675-.063.025-.129.045-.195.063h-1.747c-.066-.018-.131-.038-.195-.063-.27-.121-.517-.494-.751-.675-.25-.205-.5-.163-.751-.046-.342.189-.545.45-.751.87.205.419.409.681.751.87.25.117.5.159.751-.046.234-.181.48-.555.751-.675.063-.025.129-.045.195-.063h1.747c.066.018.131.038.195.063.27.12.517.494.751.675.25.205.5.163.751.046.342-.189.545-.451.751-.87-.206-.42-.409-.681-.751-.87Z" fill="#0c0d0b"/>
        <circle cx="57.05" cy="35.019" r=".364" fill="#6a3f8f"/>
        <circle cx="61.537" cy="35.019" r=".364" fill="#6a3f8f"/>
      </g>
      <g>
        <path d="M59.854,37.041c-.25-.117-.5-.159-.751.046-.234.181-.48.555-.751.675-.063.025-.129.045-.195.063h-1.747c-.066-.018-.131-.038-.195-.063-.27-.121-.517-.494-.751-.675-.25-.205-.5-.163-.751-.046-.342.189-.545.45-.751.87.205.419.409.681.751.87.25.117.5.159.751-.046.234-.181.48-.555.751-.675.063-.025.129-.045.195-.063h1.747c.066.018.131.038.195.063.27.12.517.494.751.675.25.205.5.163.751.046.342-.189.545-.451.751-.87-.206-.42-.409-.681-.751-.87Z" fill="#0c0d0b"/>
        <circle cx="54.995" cy="37.911" r=".364" fill="#6a3f8f"/>
        <circle cx="59.482" cy="37.911" r=".364" fill="#6a3f8f"/>
      </g>
      <g>
        <path d="M62.061,39.323c-.25-.117-.5-.159-.751.046-.234.181-.48.555-.751.675-.063.025-.129.045-.195.063h-1.747c-.066-.018-.131-.038-.195-.063-.27-.121-.517-.494-.751-.675-.25-.205-.5-.163-.751-.046-.342.189-.545.45-.751.87.205.419.409.681.751.87.25.117.5.159.751-.046.234-.181.48-.555.751-.675.063-.025.129-.045.195-.063h1.747c.066.018.131.038.195.063.27.12.517.494.751.675.25.205.5.163.751.046.342-.189.545-.451.751-.87-.206-.42-.409-.681-.751-.87Z" fill="#0c0d0b"/>
        <circle cx="57.202" cy="40.193" r=".364" fill="#6a3f8f"/>
        <circle cx="61.689" cy="40.193" r=".364" fill="#6a3f8f"/>
      </g>
      <g>
        <path d="M64.268,41.226c-.25-.117-.5-.159-.751.046-.234.181-.48.555-.751.675-.063.025-.129.045-.195.063h-1.747c-.066-.018-.131-.038-.195-.063-.27-.121-.517-.494-.751-.675-.25-.205-.5-.163-.751-.046-.342.189-.545.45-.751.87.205.419.409.681.751.87.25.117.5.159.751-.046.234-.181.48-.555.751-.675.063-.025.129-.045.195-.063h1.747c.066.018.131.038.195.063.27.12.517.494.751.675.25.205.5.163.751.046.342-.189.545-.451.751-.87-.206-.42-.409-.681-.751-.87Z" fill="#0c0d0b"/>
        <circle cx="59.409" cy="42.096" r=".364" fill="#6a3f8f"/>
        <circle cx="63.896" cy="42.096" r=".364" fill="#6a3f8f"/>
      </g>
      <g>
        <path d="M62.061,43.585c-.25-.117-.5-.159-.751.046-.234.181-.48.555-.751.675-.063.025-.129.045-.195.063h-1.747c-.066-.018-.131-.038-.195-.063-.27-.121-.517-.494-.751-.675-.25-.205-.5-.163-.751-.046-.342.189-.545.45-.751.87.205.419.409.681.751.87.25.117.5.159.751-.046.234-.181.48-.555.751-.675.063-.025.129-.045.195-.063h1.747c.066.018.131.038.195.063.27.12.517.494.751.675.25.205.5.163.751.046.342-.189.545-.451.751-.87-.206-.42-.409-.681-.751-.87Z" fill="#0c0d0b"/>
        <circle cx="57.202" cy="44.455" r=".364" fill="#6a3f8f"/>
        <circle cx="61.689" cy="44.455" r=".364" fill="#6a3f8f"/>
      </g>
      <path d="M59.475,31.098c-.753,0-1.364.611-1.364,1.364s.611,1.364,1.364,1.364,1.364-.611,1.364-1.364-.611-1.364-1.364-1.364ZM59.475,33.372c-.502,0-.91-.407-.91-.91s.407-.91.91-.91.91.407.91.91-.407.91-.91.91Z" fill="#0c0d0b"/>
      <circle cx="59.475" cy="32.462" r=".424" fill="#8045b2"/>
    </g>
  </g>
</svg>