<?xml version="1.0" encoding="UTF-8"?>
<svg xmlns="http://www.w3.org/2000/svg" width="100" height="100" viewBox="0 0 100 100">
  <g id="Tallo">
    <g>
      <line x1="49.971" y1="99.662" x2="49.971" y2="7.227" fill="#0c0d0b" stroke="#0c0d0b" stroke-miterlimit="10" stroke-width=".51"/>
      <path d="M60.804,28.388v12.905c0,.744-.603,1.347-1.347,1.347h-8.22c-.744,0-1.347.603-1.347,1.347v31.212c0,.744-.603,1.347-1.347,1.347h-9.09" fill="none" stroke="#0c0d0b" stroke-miterlimit="10" stroke-width=".193"/>
      <path d="M39.104,28.388v12.905c0,.744.603,1.347,1.347,1.347h8.22c.744,0,1.347.603,1.347,1.347v31.212c0,.744.603,1.347,1.347,1.347h9.09" fill="none" stroke="#0c0d0b" stroke-miterlimit="10" stroke-width=".193"/>
    </g>
  </g>
  <g id="Hojas">
    <path d="M52.927,49.723c-2.357.943-2.729,3.166-2.729,3.166h-.603s-.372-2.223-2.729-3.166-5.725.674-5.725.674c1.28,4.378,4.946,4.58,4.946,4.58h7.62s3.666-.202,4.946-4.58c0,0-3.368-1.616-5.725-.674Z" fill="#0c0d0b"/>
    <path d="M53.102,60.93c-2.357.943-2.729,3.166-2.729,3.166h-.603s-.372-2.223-2.729-3.166-5.725.674-5.725.674c1.28,4.378,4.946,4.58,4.946,4.58h7.62s3.666-.202,4.946-4.58c0,0-3.368-1.616-5.725-.674Z" fill="#0c0d0b"/>
    <path d="M52.927,68.11c-2.357.943-2.729,3.166-2.729,3.166h-.603s-.372-2.223-2.729-3.166-5.725.674-5.725.674c1.28,4.378,4.946,4.58,4.946,4.58h7.62s3.666-.202,4.946-4.58c0,0-3.368-1.616-5.725-.674Z" fill="#0c0d0b"/>
    <g>
      <path d="M65.603,81.488s-4.111,0-4.72,4.035l-.049,3.046h-.51l-.049-3.046c-.609-4.035-4.72-4.035-4.72-4.035h-3.732s.152,2.817,1.523,5.634,4.658,3.51,4.658,3.51h5.15s3.288-.693,4.658-3.51,1.523-5.634,1.523-5.634h-3.732Z" fill="#0c0d0b"/>
      <line x1="60.578" y1="90.632" x2="60.578" y2="77.453" fill="#0c0d0b" stroke="#0c0d0b" stroke-miterlimit="10" stroke-width=".216"/>
      <circle cx="60.578" cy="77.453" r="3.091" fill="#0c0d0b"/>
    </g>
    <g>
      <path d="M44.238,81.488s-4.111,0-4.72,4.035l-.049,3.046h-.51l-.049-3.046c-.609-4.035-4.72-4.035-4.72-4.035h-3.732s.152,2.817,1.523,5.634,4.658,3.51,4.658,3.51h5.15s3.288-.693,4.658-3.51,1.523-5.634,1.523-5.634h-3.732Z" fill="#0c0d0b"/>
      <line x1="39.214" y1="90.632" x2="39.214" y2="77.453" fill="#0c0d0b" stroke="#0c0d0b" stroke-miterlimit="10" stroke-width=".216"/>
      <circle cx="39.214" cy="77.453" r="3.091" fill="#0c0d0b"/>
    </g>
  </g>
  <g id="Flores">
    <g>
      <path d="M57.537,11.028s-6.166,0-7.08,6.053l-.074,4.568h-.765l-.074-4.568c-.914-6.053-7.08-6.053-7.08-6.053h-5.597s.228,4.226,2.284,8.451,6.987,5.265,6.987,5.265h7.725s4.932-1.039,6.987-5.265,2.284-8.451,2.284-8.451h-5.597Z" fill="#0c0d0b"/>
      <line x1="50" y1="24.744" x2="50" y2="4.975" fill="#15af4f" stroke="#0c0d0b" stroke-miterlimit="10" stroke-width=".324"/>
      <circle cx="50" cy="4.975" r="4.637" fill="#15af4f"/>
    </g>
    <g>
      <path d="M65.882,31.496s-4.111,0-4.72,4.035l-.049,3.046h-.51l-.049-3.046c-.609-4.035-4.72-4.035-4.72-4.035h-3.732s.152,2.817,1.523,5.634,4.658,3.51,4.658,3.51h5.15s3.288-.693,4.658-3.51,1.523-5.634,1.523-5.634h-3.732Z" fill="#0c0d0b"/>
      <line x1="60.857" y1="40.64" x2="60.857" y2="27.461" fill="#15af4f" stroke="#0c0d0b" stroke-miterlimit="10" stroke-width=".216"/>
      <circle cx="60.857" cy="27.461" r="3.091" fill="#15af4f"/>
    </g>
    <g>
      <path d="M44.167,31.496s-4.111,0-4.72,4.035l-.049,3.046h-.51l-.049-3.046c-.609-4.035-4.72-4.035-4.72-4.035h-3.732s.152,2.817,1.523,5.634,4.658,3.51,4.658,3.51h5.15s3.288-.693,4.658-3.51,1.523-5.634,1.523-5.634h-3.732Z" fill="#0c0d0b"/>
      <line x1="39.143" y1="40.64" x2="39.143" y2="27.461" fill="#15af4f" stroke="#0c0d0b" stroke-miterlimit="10" stroke-width=".216"/>
      <circle cx="39.143" cy="27.461" r="3.091" fill="#15af4f"/>
    </g>
  </g>
</svg>