<?xml version="1.0" encoding="UTF-8"?>
<svg xmlns="http://www.w3.org/2000/svg" width="275.651" height="450" viewBox="0 0 275.651 450">
  <g id="Tallo">
    <line x1="137.389" y1="450" x2="137.389" y2="12.307" fill="#0c0d0b" stroke="#0c0d0b" stroke-miterlimit="10" stroke-width="2.481"/>
  </g>
  <g id="Hojas">
    <path d="M177.841,227.949s-18.922-2.07-27.2,4.73-12.122,11.235-11.826,20.696h-2.061c.296-9.461-3.548-13.896-11.826-20.696s-27.2-4.73-27.2-4.73c0,0-.591,13.6,7.983,24.244,8.574,10.644,17.579,11.106,17.579,11.106h28.991s9.005-.462,17.579-11.106c8.574-10.644,7.983-24.244,7.983-24.244Z" fill="#0c0d0b"/>
    <path d="M177.841,276.949s-18.922-2.07-27.2,4.73-12.122,11.235-11.826,20.696h-2.061c.296-9.461-3.548-13.896-11.826-20.696s-27.2-4.73-27.2-4.73c0,0-.591,13.6,7.983,24.244,8.574,10.644,17.579,11.106,17.579,11.106h28.991s9.005-.462,17.579-11.106c8.574-10.644,7.983-24.244,7.983-24.244Z" fill="#0c0d0b"/>
    <path d="M151.26,163.251c-10.609,4.244-12.283,14.247-12.283,14.247h-2.715s-1.674-10.003-12.283-14.247-25.765,3.031-25.765,3.031c5.759,19.703,22.26,20.612,22.26,20.612h34.291s16.501-.909,22.26-20.612c0,0-15.156-7.275-25.765-3.031Z" fill="#0c0d0b"/>
    <path d="M151.26,198.251c-10.609,4.244-12.283,14.247-12.283,14.247h-2.715s-1.674-10.003-12.283-14.247-25.765,3.031-25.765,3.031c5.759,19.703,22.26,20.612,22.26,20.612h34.291s16.501-.909,22.26-20.612c0,0-15.156-7.275-25.765-3.031Z" fill="#0c0d0b"/>
    <g>
      <path d="M160.156,358.212s-18.5,0-21.241,18.161l-.222,13.706h-2.297l-.222-13.706c-2.741-18.161-21.241-18.161-21.241-18.161h-16.794s.685,12.678,6.853,25.357c6.168,12.678,20.964,15.795,20.964,15.795h23.177s14.796-3.117,20.964-15.795c6.168-12.678,6.853-25.357,6.853-25.357h-16.794Z" fill="#0c0d0b"/>
      <line x1="137.544" y1="399.364" x2="137.544" y2="340.052" fill="#0c0d0b" stroke="#0c0d0b" stroke-miterlimit="10" stroke-width=".971"/>
      <circle cx="137.544" cy="340.052" r="13.912" fill="#0c0d0b"/>
    </g>
  </g>
  <g id="Flores">
    <g>
      <path d="M177.82,80.009s-32.722,0-37.57,32.122l-.393,24.243h-4.062l-.393-24.243c-4.849-32.122-37.57-32.122-37.57-32.122h-29.704s1.212,22.425,12.122,44.85c10.909,22.425,37.08,27.938,37.08,27.938h40.994s26.171-5.513,37.08-27.938c10.909-22.425,12.122-44.85,12.122-44.85h-29.704Z" fill="#0c0d0b"/>
      <line x1="137.826" y1="161.895" x2="137.826" y2="30.758" fill="#0c0d0b" stroke="#0c0d0b" stroke-miterlimit="10" stroke-width="2.148"/>
      <circle cx="137.826" cy="30.758" r="30.758" fill="#1e8e5c"/>
    </g>
  </g>
</svg>