<?xml version="1.0" encoding="UTF-8"?>
<svg xmlns="http://www.w3.org/2000/svg" width="100" height="100" viewBox="0 0 100 100">
  <g id="Tallo">
    <g>
      <line x1="50.053" y1="99.99" x2="50.053" y2="10.964" fill="#0c0d0b" stroke="#0c0d0b" stroke-miterlimit="10" stroke-width=".505"/>
      <path d="M28.355,27.879v13.121c0,.756.613,1.369,1.369,1.369h8.358c.756,0,1.369.613,1.369,1.369v31.735c0,.756.613,1.369,1.369,1.369h9.242" fill="none" stroke="#0c0d0b" stroke-miterlimit="10" stroke-width=".197"/>
      <path d="M71.84,27.879v13.121c0,.756-.613,1.369-1.369,1.369h-8.358c-.756,0-1.369.613-1.369,1.369v31.735c0,.756-.613,1.369-1.369,1.369h-9.242" fill="none" stroke="#0c0d0b" stroke-miterlimit="10" stroke-width=".197"/>
    </g>
  </g>
  <g id="Hojas">
    <path d="M59.056,70.209s-4.204-.46-6.044,1.051-2.693,2.496-2.628,4.599h-.458c.066-2.102-.788-3.088-2.628-4.599s-6.044-1.051-6.044-1.051c0,0-.131,3.022,1.774,5.387s3.906,2.468,3.906,2.468h6.442s2.001-.103,3.906-2.468,1.774-5.387,1.774-5.387Z" fill="#0c0d0b"/>
    <path d="M53.149,32.28c-2.357.943-2.729,3.166-2.729,3.166h-.603s-.372-2.223-2.729-3.166-5.725.674-5.725.674c1.28,4.378,4.946,4.58,4.946,4.58h7.62s3.666-.202,4.946-4.58c0,0-3.368-1.616-5.725-.674Z" fill="#0c0d0b"/>
    <path d="M53.149,40.057c-2.357.943-2.729,3.166-2.729,3.166h-.603s-.372-2.223-2.729-3.166-5.725.674-5.725.674c1.28,4.378,4.946,4.58,4.946,4.58h7.62s3.666-.202,4.946-4.58c0,0-3.368-1.616-5.725-.674Z" fill="#0c0d0b"/>
    <path d="M53.149,55.833c-2.357.943-2.729,3.166-2.729,3.166h-.603s-.372-2.223-2.729-3.166-5.725.674-5.725.674c1.28,4.378,4.946,4.58,4.946,4.58h7.62s3.666-.202,4.946-4.58c0,0-3.368-1.616-5.725-.674Z" fill="#0c0d0b"/>
    <path d="M53.149,63.61c-2.357.943-2.729,3.166-2.729,3.166h-.603s-.372-2.223-2.729-3.166-5.725.674-5.725.674c1.28,4.378,4.946,4.58,4.946,4.58h7.62s3.666-.202,4.946-4.58c0,0-3.368-1.616-5.725-.674Z" fill="#0c0d0b"/>
    <path d="M61.067,51.121h-9.237s.668,2.258,3.259,3.255,5.305.202,5.305.202h.677s2.715.794,5.305-.202,3.259-3.255,3.259-3.255h-8.568ZM60.733,54.376c-.586,0-1.062-.699-1.062-1.561s.475-1.561,1.062-1.561,1.062.699,1.062,1.561-.475,1.561-1.062,1.561Z" fill="#0c0d0b"/>
    <path d="M39.736,51.121h-9.237s.668,2.258,3.259,3.255,5.305.202,5.305.202h.677s2.715.794,5.305-.202,3.259-3.255,3.259-3.255h-8.568ZM39.401,54.376c-.586,0-1.062-.699-1.062-1.561s.475-1.561,1.062-1.561,1.062.699,1.062,1.561-.475,1.561-1.062,1.561Z" fill="#0c0d0b"/>
  </g>
  <g id="Flores">
    <g>
      <path d="M50.035,26.757c2.504,0,4.534-2.03,4.534-4.534h-9.068c0,2.504,2.03,4.534,4.534,4.534Z" fill="#0c0d0b"/>
      <g>
        <circle cx="50.035" cy="9.292" r="7.815" fill="#15af4f" stroke="#1e8e5c" stroke-miterlimit="10" stroke-width=".079"/>
        <circle cx="50.035" cy="9.292" r="9.243" fill="none" stroke="#0c0d0b" stroke-miterlimit="10" stroke-width=".079"/>
        <circle cx="50.035" cy="9.292" r="4.76" fill="#0c0d0b"/>
      </g>
      <line x1="50.035" y1="24.49" x2="50.035" y2="7.323" fill="#15af4f" stroke="#0c0d0b" stroke-miterlimit="10" stroke-width=".437"/>
    </g>
    <g>
      <path d="M76.769,30.496s-4.111,0-4.72,4.035l-.049,3.046h-.51l-.049-3.046c-.609-4.035-4.72-4.035-4.72-4.035h-3.732s.152,2.817,1.523,5.634,4.658,3.51,4.658,3.51h5.15s3.288-.693,4.658-3.51,1.523-5.634,1.523-5.634h-3.732Z" fill="#0c0d0b"/>
      <line x1="71.745" y1="39.64" x2="71.745" y2="26.461" fill="#15af4f" stroke="#0c0d0b" stroke-miterlimit="10" stroke-width=".216"/>
      <circle cx="71.745" cy="26.461" r="3.091" fill="#15af4f"/>
    </g>
    <g>
      <path d="M33.279,30.496s-4.111,0-4.72,4.035l-.049,3.046h-.51l-.049-3.046c-.609-4.035-4.72-4.035-4.72-4.035h-3.732s.152,2.817,1.523,5.634,4.658,3.51,4.658,3.51h5.15s3.288-.693,4.658-3.51,1.523-5.634,1.523-5.634h-3.732Z" fill="#0c0d0b"/>
      <line x1="28.255" y1="39.64" x2="28.255" y2="26.461" fill="#15af4f" stroke="#0c0d0b" stroke-miterlimit="10" stroke-width=".216"/>
      <circle cx="28.255" cy="26.461" r="3.091" fill="#15af4f"/>
    </g>
  </g>
</svg>