<?xml version="1.0" encoding="UTF-8"?>
<svg xmlns="http://www.w3.org/2000/svg" width="275.651" height="450" viewBox="0 0 275.651 450">
  <g id="Tallo">
    <g>
      <line x1="138.161" y1="442.5" x2="138.161" y2="48.444" fill="#0c0d0b" stroke="#0c0d0b" stroke-miterlimit="10" stroke-width="2.234"/>
      <path d="M186.917,121.738v58.079c0,3.348-2.714,6.061-6.061,6.061h-36.995c-3.348,0-6.061,2.714-6.061,6.061v140.468c0,3.348-2.714,6.061-6.061,6.061h-40.907" fill="none" stroke="#0c0d0b" stroke-miterlimit="10" stroke-width=".87"/>
      <path d="M89.255,121.738v58.079c0,3.348,2.714,6.061,6.061,6.061h36.995c3.348,0,6.061,2.714,6.061,6.061v140.468c0,3.348,2.714,6.061,6.061,6.061h40.907" fill="none" stroke="#0c0d0b" stroke-miterlimit="10" stroke-width=".87"/>
    </g>
  </g>
  <g id="Hojas">
    <path d="M139.255,148.545h-41.57s3.008,10.163,14.666,14.647c11.658,4.484,23.876.909,23.876.909h3.047s12.218,3.574,23.876-.909c11.658-4.484,14.666-14.647,14.666-14.647h-38.561ZM137.751,163.193c-2.639,0-4.778-3.145-4.778-7.025s2.139-7.025,4.778-7.025,4.778,3.145,4.778,7.025-2.139,7.025-4.778,7.025Z" fill="#0c0d0b"/>
    <path d="M151.254,250.19c-10.609,4.244-12.283,14.247-12.283,14.247h-2.715s-1.674-10.003-12.283-14.247-25.765,3.031-25.765,3.031c5.759,19.703,22.26,20.612,22.26,20.612h34.291s16.501-.909,22.26-20.612c0,0-15.156-7.275-25.765-3.031Z" fill="#0c0d0b"/>
    <path d="M150.466,282.503c-10.609,4.244-12.283,14.247-12.283,14.247h-2.715s-1.674-10.003-12.283-14.247-25.765,3.031-25.765,3.031c5.759,19.703,22.26,20.612,22.26,20.612h34.291s16.501-.909,22.26-20.612c0,0-15.156-7.275-25.765-3.031Z" fill="#0c0d0b"/>
    <g>
      <path d="M208.512,360.712s-18.5,0-21.241,18.161l-.222,13.706h-2.297l-.222-13.706c-2.741-18.161-21.241-18.161-21.241-18.161h-16.794s.685,12.678,6.853,25.357c6.168,12.678,20.964,15.795,20.964,15.795h23.177s14.796-3.117,20.964-15.795c6.168-12.678,6.853-25.357,6.853-25.357h-16.794Z" fill="#0c0d0b"/>
      <line x1="185.901" y1="401.864" x2="185.901" y2="342.552" fill="#0c0d0b" stroke="#0c0d0b" stroke-miterlimit="10" stroke-width=".971"/>
      <circle cx="185.901" cy="342.552" r="13.912" fill="#0c0d0b"/>
    </g>
    <g>
      <path d="M112.363,360.712s-18.5,0-21.241,18.161l-.222,13.706h-2.297l-.222-13.706c-2.741-18.161-21.241-18.161-21.241-18.161h-16.794s.685,12.678,6.853,25.357c6.168,12.678,20.964,15.795,20.964,15.795h23.177s14.796-3.117,20.964-15.795c6.168-12.678,6.853-25.357,6.853-25.357h-16.794Z" fill="#0c0d0b"/>
      <line x1="89.751" y1="401.864" x2="89.751" y2="342.552" fill="#0c0d0b" stroke="#0c0d0b" stroke-miterlimit="10" stroke-width=".971"/>
      <circle cx="89.751" cy="342.552" r="13.912" fill="#0c0d0b"/>
    </g>
  </g>
  <g id="Flores">
    <g>
      <path d="M172.211,55.609s-27.75,0-31.862,27.241l-.333,20.559h-3.445l-.333-20.559c-4.112-27.241-31.862-27.241-31.862-27.241h-25.191s1.028,19.017,10.28,38.035c9.252,19.017,31.446,23.693,31.446,23.693h34.765s22.194-4.675,31.446-23.693c9.252-19.017,10.28-38.035,10.28-38.035h-25.191Z" fill="#0c0d0b"/>
      <line x1="138.293" y1="117.337" x2="138.293" y2="28.368" fill="#15af4f" stroke="#0c0d0b" stroke-miterlimit="10" stroke-width="1.457"/>
      <circle cx="138.293" cy="28.368" r="20.868" fill="#15af4f"/>
    </g>
    <circle cx="187.165" cy="120.5" r="12" fill="#32b67a"/>
    <circle cx="89.165" cy="120.5" r="12" fill="#32b67a"/>
  </g>
</svg>