<?xml version="1.0" encoding="UTF-8"?>
<svg xmlns="http://www.w3.org/2000/svg" width="275.651" height="450" viewBox="0 0 275.651 450">
  <g id="Tallo">
    <g>
      <line x1="138.063" y1="449.978" x2="138.063" y2="49.322" fill="#0c0d0b" stroke="#0c0d0b" stroke-miterlimit="10" stroke-width="2.271"/>
      <path d="M40.412,125.447v59.052c0,3.404,2.759,6.163,6.163,6.163h37.614c3.404,0,6.163,2.759,6.163,6.163v142.821c0,3.404,2.759,6.163,6.163,6.163h41.592" fill="none" stroke="#0c0d0b" stroke-miterlimit="10" stroke-width=".885"/>
      <path d="M236.114,125.447v59.052c0,3.404-2.759,6.163-6.163,6.163h-37.614c-3.404,0-6.163,2.759-6.163,6.163v142.821c0,3.404-2.759,6.163-6.163,6.163h-41.592" fill="none" stroke="#0c0d0b" stroke-miterlimit="10" stroke-width=".885"/>
    </g>
  </g>
  <g id="Hojas">
    <path d="M178.58,315.949s-18.922-2.07-27.2,4.73c-8.278,6.8-12.122,11.235-11.826,20.696h-2.061c.296-9.461-3.548-13.896-11.826-20.696-8.278-6.8-27.2-4.73-27.2-4.73,0,0-.591,13.6,7.983,24.244,8.574,10.644,17.579,11.106,17.579,11.106h28.991s9.005-.462,17.579-11.106c8.574-10.644,7.983-24.244,7.983-24.244Z" fill="#0c0d0b"/>
    <path d="M151.998,145.251c-10.609,4.244-12.283,14.247-12.283,14.247h-2.715s-1.674-10.003-12.283-14.247-25.765,3.031-25.765,3.031c5.759,19.703,22.26,20.612,22.26,20.612h34.291s16.501-.909,22.26-20.612c0,0-15.156-7.275-25.765-3.031Z" fill="#0c0d0b"/>
    <path d="M151.998,180.251c-10.609,4.244-12.283,14.247-12.283,14.247h-2.715s-1.674-10.003-12.283-14.247-25.765,3.031-25.765,3.031c5.759,19.703,22.26,20.612,22.26,20.612h34.291s16.501-.909,22.26-20.612c0,0-15.156-7.275-25.765-3.031Z" fill="#0c0d0b"/>
    <path d="M151.998,251.251c-10.609,4.244-12.283,14.247-12.283,14.247h-2.715s-1.674-10.003-12.283-14.247-25.765,3.031-25.765,3.031c5.759,19.703,22.26,20.612,22.26,20.612h34.291s16.501-.909,22.26-20.612c0,0-15.156-7.275-25.765-3.031Z" fill="#0c0d0b"/>
    <path d="M151.998,286.251c-10.609,4.244-12.283,14.247-12.283,14.247h-2.715s-1.674-10.003-12.283-14.247-25.765,3.031-25.765,3.031c5.759,19.703,22.26,20.612,22.26,20.612h34.291s16.501-.909,22.26-20.612c0,0-15.156-7.275-25.765-3.031Z" fill="#0c0d0b"/>
    <path d="M187.631,230.045h-41.57s3.008,10.163,14.666,14.647c11.658,4.484,23.876.909,23.876.909h3.047s12.218,3.574,23.876-.909c11.658-4.484,14.666-14.647,14.666-14.647h-38.561ZM186.127,244.693c-2.639,0-4.778-3.145-4.778-7.025s2.139-7.025,4.778-7.025,4.778,3.145,4.778,7.025-2.139,7.025-4.778,7.025Z" fill="#0c0d0b"/>
    <path d="M91.631,230.045h-41.57s3.008,10.163,14.666,14.647c11.658,4.484,23.876.909,23.876.909h3.047s12.218,3.574,23.876-.909c11.658-4.484,14.666-14.647,14.666-14.647h-38.561ZM90.127,244.693c-2.639,0-4.778-3.145-4.778-7.025s2.139-7.025,4.778-7.025,4.778,3.145,4.778,7.025-2.139,7.025-4.778,7.025Z" fill="#0c0d0b"/>
  </g>
  <g id="Flores">
    <g>
      <path d="M137.982,120.397c11.269,0,20.405-9.136,20.405-20.405h-40.81c0,11.269,9.136,20.405,20.405,20.405Z" fill="#0c0d0b"/>
      <g>
        <circle cx="137.982" cy="41.797" r="35.17" fill="#15af4f" stroke="#1e8e5c" stroke-miterlimit="10" stroke-width=".357"/>
        <circle cx="137.982" cy="41.797" r="41.597" fill="none" stroke="#0c0d0b" stroke-miterlimit="10" stroke-width=".357"/>
        <circle cx="137.982" cy="41.797" r="21.423" fill="#0c0d0b"/>
      </g>
      <line x1="137.982" y1="110.192" x2="137.982" y2="32.936" fill="#15af4f" stroke="#0c0d0b" stroke-miterlimit="10" stroke-width="1.964"/>
    </g>
    <g>
      <path d="M258.3,137.224s-18.5,0-21.241,18.161l-.222,13.706h-2.297l-.222-13.706c-2.741-18.161-21.241-18.161-21.241-18.161h-16.794s.685,12.678,6.853,25.357c6.168,12.678,20.964,15.795,20.964,15.795h23.177s14.796-3.117,20.964-15.795c6.168-12.678,6.853-25.357,6.853-25.357h-16.794Z" fill="#0c0d0b"/>
      <line x1="235.689" y1="178.375" x2="235.689" y2="119.063" fill="#15af4f" stroke="#0c0d0b" stroke-miterlimit="10" stroke-width=".971"/>
      <circle cx="235.689" cy="119.063" r="13.912" fill="#15af4f"/>
    </g>
    <g>
      <path d="M62.574,137.224s-18.5,0-21.241,18.161l-.222,13.706h-2.297l-.222-13.706c-2.741-18.161-21.241-18.161-21.241-18.161H.557s.685,12.678,6.853,25.357c6.168,12.678,20.964,15.795,20.964,15.795h23.177s14.796-3.117,20.964-15.795c6.168-12.678,6.853-25.357,6.853-25.357h-16.794Z" fill="#0c0d0b"/>
      <line x1="39.963" y1="178.375" x2="39.963" y2="119.063" fill="#15af4f" stroke="#0c0d0b" stroke-miterlimit="10" stroke-width=".971"/>
      <circle cx="39.963" cy="119.063" r="13.912" fill="#15af4f"/>
    </g>
  </g>
</svg>