<?xml version="1.0" encoding="UTF-8"?>
<svg xmlns="http://www.w3.org/2000/svg" width="275.651" height="450" viewBox="0 0 275.651 450">
  <g id="Tallo">
    <g>
      <line x1="138.161" y1="450.989" x2="138.161" y2="56.933" fill="#0c0d0b" stroke="#0c0d0b" stroke-miterlimit="10" stroke-width="2.234"/>
      <path d="M186.917,130.227v58.079c0,3.348-2.714,6.061-6.061,6.061h-36.995c-3.348,0-6.061,2.714-6.061,6.061v140.468c0,3.348-2.714,6.061-6.061,6.061h-40.907" fill="none" stroke="#0c0d0b" stroke-miterlimit="10" stroke-width=".87"/>
      <path d="M89.255,130.227v58.079c0,3.348,2.714,6.061,6.061,6.061h36.995c3.348,0,6.061,2.714,6.061,6.061v140.468c0,3.348,2.714,6.061,6.061,6.061h40.907" fill="none" stroke="#0c0d0b" stroke-miterlimit="10" stroke-width=".87"/>
    </g>
  </g>
  <g id="Hojas">
    <path d="M151.466,226.24c-10.609,4.244-12.283,14.247-12.283,14.247h-2.715s-1.674-10.003-12.283-14.247-25.765,3.031-25.765,3.031c5.759,19.703,22.26,20.612,22.26,20.612h34.291s16.501-.909,22.26-20.612c0,0-15.156-7.275-25.765-3.031Z" fill="#0c0d0b"/>
    <path d="M152.254,276.679c-10.609,4.244-12.283,14.247-12.283,14.247h-2.715s-1.674-10.003-12.283-14.247-25.765,3.031-25.765,3.031c5.759,19.703,22.26,20.612,22.26,20.612h34.291s16.501-.909,22.26-20.612c0,0-15.156-7.275-25.765-3.031Z" fill="#0c0d0b"/>
    <path d="M151.466,308.992c-10.609,4.244-12.283,14.247-12.283,14.247h-2.715s-1.674-10.003-12.283-14.247-25.765,3.031-25.765,3.031c5.759,19.703,22.26,20.612,22.26,20.612h34.291s16.501-.909,22.26-20.612c0,0-15.156-7.275-25.765-3.031Z" fill="#0c0d0b"/>
    <g>
      <path d="M208.512,369.201s-18.5,0-21.241,18.161l-.222,13.706h-2.297l-.222-13.706c-2.741-18.161-21.241-18.161-21.241-18.161h-16.794s.685,12.678,6.853,25.357c6.168,12.678,20.964,15.795,20.964,15.795h23.177s14.796-3.117,20.964-15.795c6.168-12.678,6.853-25.357,6.853-25.357h-16.794Z" fill="#0c0d0b"/>
      <line x1="185.901" y1="410.353" x2="185.901" y2="351.04" fill="#0c0d0b" stroke="#0c0d0b" stroke-miterlimit="10" stroke-width=".971"/>
      <circle cx="185.901" cy="351.04" r="13.912" fill="#0c0d0b"/>
    </g>
    <g>
      <path d="M112.363,369.201s-18.5,0-21.241,18.161l-.222,13.706h-2.297l-.222-13.706c-2.741-18.161-21.241-18.161-21.241-18.161h-16.794s.685,12.678,6.853,25.357c6.168,12.678,20.964,15.795,20.964,15.795h23.177s14.796-3.117,20.964-15.795c6.168-12.678,6.853-25.357,6.853-25.357h-16.794Z" fill="#0c0d0b"/>
      <line x1="89.751" y1="410.353" x2="89.751" y2="351.04" fill="#0c0d0b" stroke="#0c0d0b" stroke-miterlimit="10" stroke-width=".971"/>
      <circle cx="89.751" cy="351.04" r="13.912" fill="#0c0d0b"/>
    </g>
  </g>
  <g id="Flores">
    <g>
      <path d="M138.45,119.386c11.269,0,20.405-9.136,20.405-20.405h-40.81c0,11.269,9.136,20.405,20.405,20.405Z" fill="#0c0d0b"/>
      <g>
        <circle cx="138.45" cy="40.786" r="35.17" fill="#15af4f" stroke="#1e8e5c" stroke-miterlimit="10" stroke-width=".357"/>
        <circle cx="138.45" cy="40.786" r="41.597" fill="none" stroke="#0c0d0b" stroke-miterlimit="10" stroke-width=".357"/>
        <circle cx="138.45" cy="40.786" r="21.423" fill="#0c0d0b"/>
      </g>
      <line x1="138.45" y1="109.181" x2="138.45" y2="31.925" fill="#15af4f" stroke="#0c0d0b" stroke-miterlimit="10" stroke-width="1.964"/>
    </g>
    <g>
      <line x1="187.21" y1="168.212" x2="187.21" y2="116.708" fill="none" stroke="#0c0d0b" stroke-miterlimit="10" stroke-width="1.31"/>
      <path d="M187.21,175.015c7.513,0,13.603-6.09,13.603-13.603h-27.207c0,7.513,6.09,13.603,13.603,13.603Z" fill="#0c0d0b"/>
      <g>
        <circle cx="187.21" cy="122.615" r="23.447" fill="#0c0d0b"/>
        <circle cx="187.21" cy="122.615" r="27.731" fill="none" stroke="#0c0d0b" stroke-miterlimit="10" stroke-width=".238"/>
        <circle cx="187.21" cy="122.615" r="14.282" fill="#15af4f"/>
      </g>
    </g>
    <g>
      <line x1="89.69" y1="167.814" x2="89.69" y2="116.31" fill="none" stroke="#0c0d0b" stroke-miterlimit="10" stroke-width="1.31"/>
      <path d="M89.69,174.618c7.513,0,13.603-6.09,13.603-13.603h-27.207c0,7.513,6.09,13.603,13.603,13.603Z" fill="#0c0d0b"/>
      <g>
        <circle cx="89.69" cy="122.218" r="23.447" fill="#0c0d0b"/>
        <circle cx="89.69" cy="122.218" r="27.731" fill="none" stroke="#0c0d0b" stroke-miterlimit="10" stroke-width=".238"/>
        <circle cx="89.69" cy="122.218" r="14.282" fill="#15af4f"/>
      </g>
    </g>
  </g>
</svg>