<?xml version="1.0" encoding="UTF-8"?>
<svg xmlns="http://www.w3.org/2000/svg" width="100" height="100" viewBox="0 0 100 100">
  <g id="Tallo">
    <g>
      <line x1="50.075" y1="100.215" x2="50.075" y2="12.655" fill="#0c0d0b" stroke="#0c0d0b" stroke-miterlimit="10" stroke-width=".496"/>
      <path d="M60.908,28.941v12.905c0,.744-.603,1.347-1.347,1.347h-8.22c-.744,0-1.347.603-1.347,1.347v31.212c0,.744-.603,1.347-1.347,1.347h-9.09" fill="none" stroke="#0c0d0b" stroke-miterlimit="10" stroke-width=".193"/>
      <path d="M39.207,28.941v12.905c0,.744.603,1.347,1.347,1.347h8.22c.744,0,1.347.603,1.347,1.347v31.212c0,.744.603,1.347,1.347,1.347h9.09" fill="none" stroke="#0c0d0b" stroke-miterlimit="10" stroke-width=".193"/>
    </g>
  </g>
  <g id="Hojas">
    <path d="M53.031,50.276c-2.357.943-2.729,3.166-2.729,3.166h-.603s-.372-2.223-2.729-3.166-5.725.674-5.725.674c1.28,4.378,4.946,4.58,4.946,4.58h7.62s3.666-.202,4.946-4.58c0,0-3.368-1.616-5.725-.674Z" fill="#0c0d0b"/>
    <path d="M53.206,61.483c-2.357.943-2.729,3.166-2.729,3.166h-.603s-.372-2.223-2.729-3.166-5.725.674-5.725.674c1.28,4.378,4.946,4.58,4.946,4.58h7.62s3.666-.202,4.946-4.58c0,0-3.368-1.616-5.725-.674Z" fill="#0c0d0b"/>
    <path d="M53.031,68.663c-2.357.943-2.729,3.166-2.729,3.166h-.603s-.372-2.223-2.729-3.166-5.725.674-5.725.674c1.28,4.378,4.946,4.58,4.946,4.58h7.62s3.666-.202,4.946-4.58c0,0-3.368-1.616-5.725-.674Z" fill="#0c0d0b"/>
    <g>
      <path d="M65.707,82.042s-4.111,0-4.72,4.035l-.049,3.046h-.51l-.049-3.046c-.609-4.035-4.72-4.035-4.72-4.035h-3.732s.152,2.817,1.523,5.634,4.658,3.51,4.658,3.51h5.15s3.288-.693,4.658-3.51,1.523-5.634,1.523-5.634h-3.732Z" fill="#0c0d0b"/>
      <line x1="60.682" y1="91.185" x2="60.682" y2="78.006" fill="#0c0d0b" stroke="#0c0d0b" stroke-miterlimit="10" stroke-width=".216"/>
      <circle cx="60.682" cy="78.006" r="3.091" fill="#0c0d0b"/>
    </g>
    <g>
      <path d="M44.342,82.042s-4.111,0-4.72,4.035l-.049,3.046h-.51l-.049-3.046c-.609-4.035-4.72-4.035-4.72-4.035h-3.732s.152,2.817,1.523,5.634,4.658,3.51,4.658,3.51h5.15s3.288-.693,4.658-3.51,1.523-5.634,1.523-5.634h-3.732Z" fill="#0c0d0b"/>
      <line x1="39.318" y1="91.185" x2="39.318" y2="78.006" fill="#0c0d0b" stroke="#0c0d0b" stroke-miterlimit="10" stroke-width=".216"/>
      <circle cx="39.318" cy="78.006" r="3.091" fill="#0c0d0b"/>
    </g>
  </g>
  <g id="Flores">
    <g>
      <path d="M50.139,26.533c2.504,0,4.534-2.03,4.534-4.534h-9.068c0,2.504,2.03,4.534,4.534,4.534Z" fill="#0c0d0b"/>
      <g>
        <circle cx="50.139" cy="9.068" r="7.815" fill="#15af4f" stroke="#1e8e5c" stroke-miterlimit="10" stroke-width=".079"/>
        <circle cx="50.139" cy="9.068" r="9.243" fill="none" stroke="#0c0d0b" stroke-miterlimit="10" stroke-width=".079"/>
        <circle cx="50.139" cy="9.068" r="4.76" fill="#0c0d0b"/>
      </g>
      <line x1="50.139" y1="24.265" x2="50.139" y2="7.099" fill="#15af4f" stroke="#0c0d0b" stroke-miterlimit="10" stroke-width=".437"/>
    </g>
    <g>
      <line x1="60.973" y1="37.382" x2="60.973" y2="25.937" fill="none" stroke="#0c0d0b" stroke-miterlimit="10" stroke-width=".291"/>
      <path d="M60.973,38.893c1.669,0,3.023-1.353,3.023-3.023h-6.045c0,1.669,1.353,3.023,3.023,3.023Z" fill="#0c0d0b"/>
      <g>
        <circle cx="60.973" cy="27.25" r="5.21" fill="#0c0d0b"/>
        <circle cx="60.973" cy="27.25" r="6.162" fill="none" stroke="#0c0d0b" stroke-miterlimit="10" stroke-width=".053"/>
        <circle cx="60.973" cy="27.25" r="3.173" fill="#15af4f"/>
      </g>
    </g>
    <g>
      <line x1="39.304" y1="37.293" x2="39.304" y2="25.849" fill="none" stroke="#0c0d0b" stroke-miterlimit="10" stroke-width=".291"/>
      <path d="M39.304,38.805c1.669,0,3.023-1.353,3.023-3.023h-6.045c0,1.669,1.353,3.023,3.023,3.023Z" fill="#0c0d0b"/>
      <g>
        <circle cx="39.304" cy="27.162" r="5.21" fill="#0c0d0b"/>
        <circle cx="39.304" cy="27.162" r="6.162" fill="none" stroke="#0c0d0b" stroke-miterlimit="10" stroke-width=".053"/>
        <circle cx="39.304" cy="27.162" r="3.173" fill="#15af4f"/>
      </g>
    </g>
  </g>
</svg>