<?xml version="1.0" encoding="UTF-8"?>
<svg xmlns="http://www.w3.org/2000/svg" width="275.651" height="450" viewBox="0 0 275.651 450">
  <g id="Tallo">
    <line x1="137.403" y1="449.977" x2="137.403" y2="25.823" fill="#0c0d0b" stroke="#0c0d0b" stroke-miterlimit="10" stroke-width="2.404"/>
  </g>
  <g id="Hojas">
    <path d="M177.167,334.949s-18.922-2.07-27.2,4.73c-8.278,6.8-12.122,11.235-11.826,20.696h-2.061c.296-9.461-3.548-13.896-11.826-20.696-8.278-6.8-27.2-4.73-27.2-4.73,0,0-.591,13.6,7.983,24.244,8.574,10.644,17.579,11.106,17.579,11.106h28.991s9.005-.462,17.579-11.106c8.574-10.644,7.983-24.244,7.983-24.244Z" fill="#0c0d0b"/>
    <path d="M139.375,186.045h-41.57s3.008,10.163,14.666,14.647c11.658,4.484,23.876.909,23.876.909h3.047s12.218,3.574,23.876-.909c11.658-4.484,14.666-14.647,14.666-14.647h-38.561ZM137.871,200.693c-2.639,0-4.778-3.145-4.778-7.025s2.139-7.025,4.778-7.025,4.778,3.145,4.778,7.025-2.139,7.025-4.778,7.025Z" fill="#0c0d0b"/>
    <path d="M139.375,211.045h-41.57s3.008,10.163,14.666,14.647c11.658,4.484,23.876.909,23.876.909h3.047s12.218,3.574,23.876-.909c11.658-4.484,14.666-14.647,14.666-14.647h-38.561ZM137.871,225.693c-2.639,0-4.778-3.145-4.778-7.025s2.139-7.025,4.778-7.025,4.778,3.145,4.778,7.025-2.139,7.025-4.778,7.025Z" fill="#0c0d0b"/>
    <path d="M139.375,236.045h-41.57s3.008,10.163,14.666,14.647c11.658,4.484,23.876.909,23.876.909h3.047s12.218,3.574,23.876-.909c11.658-4.484,14.666-14.647,14.666-14.647h-38.561ZM137.871,250.693c-2.639,0-4.778-3.145-4.778-7.025s2.139-7.025,4.778-7.025,4.778,3.145,4.778,7.025-2.139,7.025-4.778,7.025Z" fill="#0c0d0b"/>
    <path d="M139.375,261.045h-41.57s3.008,10.163,14.666,14.647c11.658,4.484,23.876.909,23.876.909h3.047s12.218,3.574,23.876-.909c11.658-4.484,14.666-14.647,14.666-14.647h-38.561ZM137.871,275.693c-2.639,0-4.778-3.145-4.778-7.025s2.139-7.025,4.778-7.025,4.778,3.145,4.778,7.025-2.139,7.025-4.778,7.025Z" fill="#0c0d0b"/>
    <path d="M139.375,286.045h-41.57s3.008,10.163,14.666,14.647c11.658,4.484,23.876.909,23.876.909h3.047s12.218,3.574,23.876-.909c11.658-4.484,14.666-14.647,14.666-14.647h-38.561ZM137.871,300.693c-2.639,0-4.778-3.145-4.778-7.025s2.139-7.025,4.778-7.025,4.778,3.145,4.778,7.025-2.139,7.025-4.778,7.025Z" fill="#0c0d0b"/>
    <path d="M139.375,311.045h-41.57s3.008,10.163,14.666,14.647c11.658,4.484,23.876.909,23.876.909h3.047s12.218,3.574,23.876-.909c11.658-4.484,14.666-14.647,14.666-14.647h-38.561ZM137.871,325.693c-2.639,0-4.778-3.145-4.778-7.025s2.139-7.025,4.778-7.025,4.778,3.145,4.778,7.025-2.139,7.025-4.778,7.025Z" fill="#0c0d0b"/>
  </g>
  <g id="Flores">
    <g>
      <line x1="137.826" y1="155.531" x2="137.826" y2="46.482" fill="#0c0d0b" stroke="#0c0d0b" stroke-miterlimit="10" stroke-width="2.772"/>
      <path d="M137.826,169.936c15.898,0,28.785-12.895,28.785-28.802h-57.571c0,15.907,12.888,28.802,28.785,28.802Z" fill="#0c0d0b" stroke="#0c0d0b" stroke-miterlimit="10" stroke-width=".848"/>
      <g>
        <ellipse cx="137.826" cy="58.99" rx="49.614" ry="49.643" fill="#0c0d0b"/>
        <ellipse cx="137.826" cy="58.99" rx="58.68" ry="58.715" fill="none" stroke="#0c0d0b" stroke-miterlimit="10" stroke-width=".504"/>
        <ellipse cx="137.826" cy="58.99" rx="30.222" ry="30.24" fill="#15af4f"/>
      </g>
    </g>
  </g>
</svg>