<?xml version="1.0" encoding="UTF-8"?>
<svg xmlns="http://www.w3.org/2000/svg" width="100" height="100" viewBox="0 0 100 100">
  <g id="Tallo">
    <line x1="49.853" y1="99.99" x2="49.853" y2="5.743" fill="#0c0d0b" stroke="#0c0d0b" stroke-miterlimit="10" stroke-width=".534"/>
  </g>
  <g id="Hojas">
    <path d="M68.677,75.966s-8.897-.974-12.789,2.226c-3.892,3.199-5.699,5.286-5.56,9.737h-.969c.139-4.451-1.668-6.537-5.56-9.737-3.892-3.199-12.789-2.226-12.789-2.226,0,0-.278,6.398,3.753,11.406,4.031,5.007,8.265,5.225,8.265,5.225h13.631s4.234-.218,8.265-5.225,3.753-11.406,3.753-11.406Z" fill="#0c0d0b"/>
    <path d="M50.738,39.708h-19.545s1.414,4.782,6.896,6.891c5.481,2.11,11.226.428,11.226.428h1.432s5.745,1.682,11.226-.428c5.481-2.11,6.896-6.891,6.896-6.891h-18.131ZM50.031,46.599c-1.241,0-2.247-1.48-2.247-3.305s1.006-3.305,2.247-3.305,2.247,1.48,2.247,3.305-1.006,3.305-2.247,3.305Z" fill="#0c0d0b" stroke="#0c0d0b" stroke-miterlimit="10" stroke-width=".188"/>
    <path d="M50.738,50.641h-19.545s1.414,4.782,6.896,6.891c5.481,2.11,11.226.428,11.226.428h1.432s5.745,1.682,11.226-.428c5.481-2.11,6.896-6.891,6.896-6.891h-18.131ZM50.031,57.532c-1.241,0-2.247-1.48-2.247-3.305s1.006-3.305,2.247-3.305,2.247,1.48,2.247,3.305-1.006,3.305-2.247,3.305Z" fill="#0c0d0b" stroke="#0c0d0b" stroke-miterlimit="10" stroke-width=".188"/>
    <path d="M50.55,64.401h-19.545s1.414,4.782,6.896,6.891c5.481,2.11,11.226.428,11.226.428h1.432s5.745,1.682,11.226-.428c5.481-2.11,6.896-6.891,6.896-6.891h-18.131ZM49.843,71.292c-1.241,0-2.247-1.48-2.247-3.305s1.006-3.305,2.247-3.305,2.247,1.48,2.247,3.305-1.006,3.305-2.247,3.305Z" fill="#0c0d0b"/>
  </g>
  <g id="Flores">
    <g>
      <line x1="49.947" y1="34.564" x2="49.947" y2="10.333" fill="#0c0d0b" stroke="#0c0d0b" stroke-miterlimit="10" stroke-width=".616"/>
      <path d="M49.947,37.765c3.532,0,6.396-2.865,6.396-6.4h-12.792c0,3.535,2.864,6.4,6.396,6.4Z" fill="#0c0d0b" stroke="#0c0d0b" stroke-miterlimit="10" stroke-width=".188"/>
      <g>
        <ellipse cx="49.947" cy="13.113" rx="11.024" ry="11.031" fill="#0c0d0b"/>
        <ellipse cx="49.947" cy="13.113" rx="13.039" ry="13.047" fill="none" stroke="#0c0d0b" stroke-miterlimit="10" stroke-width=".112"/>
        <ellipse cx="49.947" cy="13.113" rx="6.715" ry="6.719" fill="#15af4f"/>
      </g>
    </g>
  </g>
</svg>