<?xml version="1.0" encoding="UTF-8"?>
<svg xmlns="http://www.w3.org/2000/svg" width="100" height="100" viewBox="0 0 100 100">
  <g id="Tallo">
    <line x1="49.903" y1="99.995" x2="49.903" y2="2.74" fill="#0c0d0b" stroke="#0c0d0b" stroke-miterlimit="10" stroke-width=".551"/>
  </g>
  <g id="Hojas">
    <path d="M58.891,50.655s-4.204-.46-6.044,1.051-2.693,2.496-2.628,4.599h-.458c.066-2.102-.788-3.088-2.628-4.599s-6.044-1.051-6.044-1.051c0,0-.131,3.022,1.774,5.387s3.906,2.468,3.906,2.468h6.442s2.001-.103,3.906-2.468c1.905-2.365,1.774-5.387,1.774-5.387Z" fill="#0c0d0b"/>
    <path d="M58.891,61.543s-4.204-.46-6.044,1.051-2.693,2.496-2.628,4.599h-.458c.066-2.102-.788-3.088-2.628-4.599s-6.044-1.051-6.044-1.051c0,0-.131,3.022,1.774,5.387s3.906,2.468,3.906,2.468h6.442s2.001-.103,3.906-2.468c1.905-2.365,1.774-5.387,1.774-5.387Z" fill="#0c0d0b"/>
    <path d="M52.985,36.279c-2.357.943-2.729,3.166-2.729,3.166h-.603s-.372-2.223-2.729-3.166-5.725.674-5.725.674c1.28,4.378,4.946,4.58,4.946,4.58h7.62s3.666-.202,4.946-4.58c0,0-3.368-1.616-5.725-.674Z" fill="#0c0d0b"/>
    <path d="M52.985,44.056c-2.357.943-2.729,3.166-2.729,3.166h-.603s-.372-2.223-2.729-3.166-5.725.674-5.725.674c1.28,4.378,4.946,4.58,4.946,4.58h7.62s3.666-.202,4.946-4.58c0,0-3.368-1.616-5.725-.674Z" fill="#0c0d0b"/>
    <g>
      <path d="M54.962,79.6s-4.111,0-4.72,4.035l-.049,3.046h-.51l-.049-3.046c-.609-4.035-4.72-4.035-4.72-4.035h-3.732s.152,2.817,1.523,5.634,4.658,3.51,4.658,3.51h5.15s3.288-.693,4.658-3.51,1.523-5.634,1.523-5.634h-3.732Z" fill="#0c0d0b"/>
      <line x1="49.938" y1="88.744" x2="49.938" y2="75.564" fill="#0c0d0b" stroke="#0c0d0b" stroke-miterlimit="10" stroke-width=".216"/>
      <circle cx="49.938" cy="75.564" r="3.091" fill="#0c0d0b"/>
    </g>
  </g>
  <g id="Flores">
    <path d="M58.887,17.783s-7.271,0-8.348,7.138l-.087,5.387h-.903l-.087-5.387c-1.077-7.138-8.348-7.138-8.348-7.138h-6.6s.269,4.983,2.693,9.966,8.239,6.208,8.239,6.208h9.109s5.815-1.225,8.239-6.208,2.693-9.966,2.693-9.966h-6.6Z" fill="#0c0d0b"/>
    <line x1="50" y1="35.978" x2="50" y2="6.84" fill="#0c0d0b" stroke="#0c0d0b" stroke-miterlimit="10" stroke-width=".477"/>
    <circle cx="50" cy="6.84" r="6.835" fill="#1e8e5c"/>
  </g>
</svg>