<?xml version="1.0" encoding="UTF-8"?>
<svg xmlns="http://www.w3.org/2000/svg" width="100" height="100" viewBox="0 0 100 100">
  <g id="Tallo">
    <g>
      <line x1="50.075" y1="98.328" x2="50.075" y2="10.769" fill="#0c0d0b" stroke="#0c0d0b" stroke-miterlimit="10" stroke-width=".496"/>
      <path d="M60.908,27.055v12.905c0,.744-.603,1.347-1.347,1.347h-8.22c-.744,0-1.347.603-1.347,1.347v31.212c0,.744-.603,1.347-1.347,1.347h-9.09" fill="none" stroke="#0c0d0b" stroke-miterlimit="10" stroke-width=".193"/>
      <path d="M39.207,27.055v12.905c0,.744.603,1.347,1.347,1.347h8.22c.744,0,1.347.603,1.347,1.347v31.212c0,.744.603,1.347,1.347,1.347h9.09" fill="none" stroke="#0c0d0b" stroke-miterlimit="10" stroke-width=".193"/>
    </g>
  </g>
  <g id="Hojas">
    <path d="M50.318,33.012h-9.237s.668,2.258,3.259,3.255,5.305.202,5.305.202h.677s2.715.794,5.305-.202,3.259-3.255,3.259-3.255h-8.568ZM49.983,36.266c-.586,0-1.062-.699-1.062-1.561s.475-1.561,1.062-1.561,1.062.699,1.062,1.561-.475,1.561-1.062,1.561Z" fill="#0c0d0b"/>
    <path d="M52.984,55.597c-2.357.943-2.729,3.166-2.729,3.166h-.603s-.372-2.223-2.729-3.166-5.725.674-5.725.674c1.28,4.378,4.946,4.58,4.946,4.58h7.62s3.666-.202,4.946-4.58c0,0-3.368-1.616-5.725-.674Z" fill="#0c0d0b"/>
    <path d="M52.809,62.777c-2.357.943-2.729,3.166-2.729,3.166h-.603s-.372-2.223-2.729-3.166-5.725.674-5.725.674c1.28,4.378,4.946,4.58,4.946,4.58h7.62s3.666-.202,4.946-4.58c0,0-3.368-1.616-5.725-.674Z" fill="#0c0d0b"/>
    <g>
      <path d="M65.707,80.155s-4.111,0-4.72,4.035l-.049,3.046h-.51l-.049-3.046c-.609-4.035-4.72-4.035-4.72-4.035h-3.732s.152,2.817,1.523,5.634,4.658,3.51,4.658,3.51h5.15s3.288-.693,4.658-3.51,1.523-5.634,1.523-5.634h-3.732Z" fill="#0c0d0b"/>
      <line x1="60.682" y1="89.299" x2="60.682" y2="76.12" fill="#0c0d0b" stroke="#0c0d0b" stroke-miterlimit="10" stroke-width=".216"/>
      <circle cx="60.682" cy="76.12" r="3.091" fill="#0c0d0b"/>
    </g>
    <g>
      <path d="M44.342,80.155s-4.111,0-4.72,4.035l-.049,3.046h-.51l-.049-3.046c-.609-4.035-4.72-4.035-4.72-4.035h-3.732s.152,2.817,1.523,5.634,4.658,3.51,4.658,3.51h5.15s3.288-.693,4.658-3.51,1.523-5.634,1.523-5.634h-3.732Z" fill="#0c0d0b"/>
      <line x1="39.318" y1="89.299" x2="39.318" y2="76.12" fill="#0c0d0b" stroke="#0c0d0b" stroke-miterlimit="10" stroke-width=".216"/>
      <circle cx="39.318" cy="76.12" r="3.091" fill="#0c0d0b"/>
    </g>
  </g>
  <g id="Flores">
    <g>
      <path d="M57.64,12.361s-6.166,0-7.08,6.053l-.074,4.568h-.765l-.074-4.568c-.914-6.053-7.08-6.053-7.08-6.053h-5.597s.228,4.226,2.284,8.451,6.987,5.265,6.987,5.265h7.725s4.932-1.039,6.987-5.265,2.284-8.451,2.284-8.451h-5.597Z" fill="#0c0d0b"/>
      <line x1="50.104" y1="26.077" x2="50.104" y2="6.308" fill="#15af4f" stroke="#0c0d0b" stroke-miterlimit="10" stroke-width=".324"/>
      <circle cx="50.104" cy="6.308" r="4.637" fill="#15af4f"/>
    </g>
    <circle cx="60.963" cy="26.78" r="2.666" fill="#32b67a"/>
    <circle cx="39.188" cy="26.78" r="2.666" fill="#32b67a"/>
  </g>
</svg>