<?xml version="1.0" encoding="UTF-8"?>
<svg xmlns="http://www.w3.org/2000/svg" width="275.651" height="450" viewBox="0 0 275.651 450">
  <g id="Tallo">
    <line x1="137.164" y1="449.977" x2="137.164" y2="25.823" fill="#0c0d0b" stroke="#0c0d0b" stroke-miterlimit="10" stroke-width="2.404"/>
  </g>
  <g id="Hojas">
    <path d="M221.88,341.857s-40.039-4.382-57.557,10.016-25.65,23.788-25.025,43.819h-4.361c.626-20.032-7.507-29.422-25.025-43.819-17.517-14.398-57.557-10.016-57.557-10.016,0,0-1.251,28.796,16.892,51.331,18.143,22.536,37.198,23.515,37.198,23.515h61.346s19.055-.979,37.197-23.515c18.143-22.536,16.892-51.331,16.892-51.331Z" fill="#0c0d0b"/>
    <path d="M141.149,178.682H53.185s6.366,21.519,31.035,31.013c24.669,9.494,50.522,1.926,50.522,1.926h6.447s25.853,7.568,50.522-1.926,31.035-31.013,31.035-31.013h-81.597ZM137.966,209.695c-5.584,0-10.111-6.659-10.111-14.874s4.527-14.874,10.111-14.874,10.11,6.659,10.11,14.874-4.527,14.874-10.11,14.874Z" fill="#0c0d0b" stroke="#0c0d0b" stroke-miterlimit="10" stroke-width=".848"/>
    <path d="M141.149,227.884H53.185s6.366,21.519,31.035,31.013c24.669,9.494,50.522,1.926,50.522,1.926h6.447s25.853,7.568,50.522-1.926c24.669-9.494,31.035-31.013,31.035-31.013h-81.597ZM137.966,258.897c-5.584,0-10.111-6.659-10.111-14.874s4.527-14.874,10.111-14.874,10.11,6.659,10.11,14.874-4.527,14.874-10.11,14.874Z" fill="#0c0d0b" stroke="#0c0d0b" stroke-miterlimit="10" stroke-width=".848"/>
    <path d="M140.301,289.81H52.338s6.366,21.519,31.035,31.013c24.669,9.494,50.522,1.926,50.522,1.926h6.447s25.853,7.568,50.522-1.926,31.035-31.013,31.035-31.013h-81.597ZM137.118,320.823c-5.584,0-10.111-6.659-10.111-14.874s4.527-14.874,10.111-14.874,10.11,6.659,10.11,14.874-4.527,14.874-10.11,14.874Z" fill="#0c0d0b"/>
  </g>
  <g id="Flores">
    <g>
      <line x1="137.587" y1="155.531" x2="137.587" y2="46.482" fill="#0c0d0b" stroke="#0c0d0b" stroke-miterlimit="10" stroke-width="2.772"/>
      <path d="M137.587,169.936c15.898,0,28.785-12.895,28.785-28.802h-57.571c0,15.907,12.888,28.802,28.785,28.802Z" fill="#0c0d0b" stroke="#0c0d0b" stroke-miterlimit="10" stroke-width=".848"/>
      <g>
        <ellipse cx="137.587" cy="58.99" rx="49.614" ry="49.643" fill="#0c0d0b"/>
        <ellipse cx="137.587" cy="58.99" rx="58.68" ry="58.715" fill="none" stroke="#0c0d0b" stroke-miterlimit="10" stroke-width=".504"/>
        <ellipse cx="137.587" cy="58.99" rx="30.222" ry="30.24" fill="#15af4f"/>
      </g>
    </g>
  </g>
</svg>