<?xml version="1.0" encoding="UTF-8"?>
<svg xmlns="http://www.w3.org/2000/svg" width="100" height="100" viewBox="0 0 100 100">
  <g id="Tallo">
    <g>
      <line x1="50.018" y1="99.99" x2="50.018" y2="10.964" fill="#0c0d0b" stroke="#0c0d0b" stroke-miterlimit="10" stroke-width=".505"/>
      <path d="M28.32,27.879v13.121c0,.756.613,1.369,1.369,1.369h8.358c.756,0,1.369.613,1.369,1.369v31.735c0,.756.613,1.369,1.369,1.369h9.242" fill="none" stroke="#0c0d0b" stroke-miterlimit="10" stroke-width=".197"/>
      <path d="M71.805,27.879v13.121c0,.756-.613,1.369-1.369,1.369h-8.358c-.756,0-1.369.613-1.369,1.369v31.735c0,.756-.613,1.369-1.369,1.369h-9.242" fill="none" stroke="#0c0d0b" stroke-miterlimit="10" stroke-width=".197"/>
    </g>
  </g>
  <g id="Hojas">
    <path d="M59.021,70.209s-4.204-.46-6.044,1.051-2.693,2.496-2.628,4.599h-.458c.066-2.102-.788-3.088-2.628-4.599s-6.044-1.051-6.044-1.051c0,0-.131,3.022,1.774,5.387s3.906,2.468,3.906,2.468h6.442s2.001-.103,3.906-2.468,1.774-5.387,1.774-5.387Z" fill="#0c0d0b"/>
    <path d="M50.454,34.722h-9.237s.668,2.258,3.259,3.255,5.305.202,5.305.202h.677s2.715.794,5.305-.202,3.259-3.255,3.259-3.255h-8.568ZM50.12,37.977c-.586,0-1.062-.699-1.062-1.561s.475-1.561,1.062-1.561,1.062.699,1.062,1.561-.475,1.561-1.062,1.561Z" fill="#0c0d0b"/>
    <path d="M50.454,42.023h-9.237s.668,2.258,3.259,3.255,5.305.202,5.305.202h.677s2.715.794,5.305-.202,3.259-3.255,3.259-3.255h-8.568ZM50.12,45.277c-.586,0-1.062-.699-1.062-1.561s.475-1.561,1.062-1.561,1.062.699,1.062,1.561-.475,1.561-1.062,1.561Z" fill="#0c0d0b"/>
    <path d="M50.454,59.294h-9.237s.668,2.258,3.259,3.255,5.305.202,5.305.202h.677s2.715.794,5.305-.202,3.259-3.255,3.259-3.255h-8.568ZM50.12,62.548c-.586,0-1.062-.699-1.062-1.561s.475-1.561,1.062-1.561,1.062.699,1.062,1.561-.475,1.561-1.062,1.561Z" fill="#0c0d0b"/>
    <path d="M61.067,51.121h-9.237s.668,2.258,3.259,3.255,5.305.202,5.305.202h.677s2.715.794,5.305-.202,3.259-3.255,3.259-3.255h-8.568ZM60.733,54.376c-.586,0-1.062-.699-1.062-1.561s.475-1.561,1.062-1.561,1.062.699,1.062,1.561-.475,1.561-1.062,1.561Z" fill="#0c0d0b"/>
    <path d="M39.736,51.121h-9.237s.668,2.258,3.259,3.255,5.305.202,5.305.202h.677s2.715.794,5.305-.202,3.259-3.255,3.259-3.255h-8.568ZM39.401,54.376c-.586,0-1.062-.699-1.062-1.561s.475-1.561,1.062-1.561,1.062.699,1.062,1.561-.475,1.561-1.062,1.561Z" fill="#0c0d0b"/>
  </g>
  <g id="Flores">
    <g>
      <line x1="71.722" y1="29.163" x2="71.722" y2="17.719" fill="none" stroke="#0c0d0b" stroke-miterlimit="10" stroke-width=".291"/>
      <path d="M71.722,30.674c1.669,0,3.023-1.353,3.023-3.023h-6.045c0,1.669,1.353,3.023,3.023,3.023Z" fill="#0c0d0b"/>
      <g>
        <circle cx="71.722" cy="19.031" r="5.21" fill="#0c0d0b"/>
        <circle cx="71.722" cy="19.031" r="6.162" fill="none" stroke="#0c0d0b" stroke-miterlimit="10" stroke-width=".053"/>
        <circle cx="71.722" cy="19.031" r="3.173" fill="#15af4f"/>
      </g>
    </g>
    <g>
      <line x1="28.278" y1="29.519" x2="28.278" y2="18.075" fill="none" stroke="#0c0d0b" stroke-miterlimit="10" stroke-width=".291"/>
      <path d="M28.278,31.031c1.669,0,3.023-1.353,3.023-3.023h-6.045c0,1.669,1.353,3.023,3.023,3.023Z" fill="#0c0d0b"/>
      <g>
        <circle cx="28.278" cy="19.387" r="5.21" fill="#0c0d0b"/>
        <circle cx="28.278" cy="19.387" r="6.162" fill="none" stroke="#0c0d0b" stroke-miterlimit="10" stroke-width=".053"/>
        <circle cx="28.278" cy="19.387" r="3.173" fill="#15af4f"/>
      </g>
    </g>
    <g>
      <path d="M50,26.757c2.504,0,4.534-2.03,4.534-4.534h-9.068c0,2.504,2.03,4.534,4.534,4.534Z" fill="#0c0d0b"/>
      <g>
        <circle cx="50" cy="9.292" r="7.815" fill="#15af4f" stroke="#1e8e5c" stroke-miterlimit="10" stroke-width=".079"/>
        <circle cx="50" cy="9.292" r="9.243" fill="none" stroke="#0c0d0b" stroke-miterlimit="10" stroke-width=".079"/>
        <circle cx="50" cy="9.292" r="4.76" fill="#0c0d0b"/>
      </g>
      <line x1="50" y1="24.49" x2="50" y2="7.323" fill="#15af4f" stroke="#0c0d0b" stroke-miterlimit="10" stroke-width=".437"/>
    </g>
  </g>
</svg>