<?xml version="1.0" encoding="UTF-8"?>
<svg xmlns="http://www.w3.org/2000/svg" width="275.651" height="450" viewBox="0 0 275.651 450">
  <g id="Tallo">
    <g>
      <line x1="137.693" y1="448.5" x2="137.693" y2="32.5" fill="#0c0d0b" stroke="#0c0d0b" stroke-miterlimit="10" stroke-width="2.295"/>
      <path d="M186.449,127.738v58.079c0,3.348-2.714,6.061-6.061,6.061h-36.995c-3.348,0-6.061,2.714-6.061,6.061v140.468c0,3.348-2.714,6.061-6.061,6.061h-40.907" fill="none" stroke="#0c0d0b" stroke-miterlimit="10" stroke-width=".87"/>
      <path d="M88.787,127.738v58.079c0,3.348,2.714,6.061,6.061,6.061h36.995c3.348,0,6.061,2.714,6.061,6.061v140.468c0,3.348,2.714,6.061,6.061,6.061h40.907" fill="none" stroke="#0c0d0b" stroke-miterlimit="10" stroke-width=".87"/>
    </g>
  </g>
  <g id="Hojas">
    <path d="M150.998,223.751c-10.609,4.244-12.283,14.247-12.283,14.247h-2.715s-1.674-10.003-12.283-14.247-25.765,3.031-25.765,3.031c5.759,19.703,22.26,20.612,22.26,20.612h34.291s16.501-.909,22.26-20.612c0,0-15.156-7.275-25.765-3.031Z" fill="#0c0d0b"/>
    <path d="M151.786,274.19c-10.609,4.244-12.283,14.247-12.283,14.247h-2.715s-1.674-10.003-12.283-14.247-25.765,3.031-25.765,3.031c5.759,19.703,22.26,20.612,22.26,20.612h34.291s16.501-.909,22.26-20.612c0,0-15.156-7.275-25.765-3.031Z" fill="#0c0d0b"/>
    <path d="M150.998,306.503c-10.609,4.244-12.283,14.247-12.283,14.247h-2.715s-1.674-10.003-12.283-14.247-25.765,3.031-25.765,3.031c5.759,19.703,22.26,20.612,22.26,20.612h34.291s16.501-.909,22.26-20.612c0,0-15.156-7.275-25.765-3.031Z" fill="#0c0d0b"/>
    <g>
      <path d="M208.045,366.712s-18.5,0-21.241,18.161l-.222,13.706h-2.297l-.222-13.706c-2.741-18.161-21.241-18.161-21.241-18.161h-16.794s.685,12.678,6.853,25.357c6.168,12.678,20.964,15.795,20.964,15.795h23.177s14.796-3.117,20.964-15.795c6.168-12.678,6.853-25.357,6.853-25.357h-16.794Z" fill="#0c0d0b"/>
      <line x1="185.433" y1="407.864" x2="185.433" y2="348.552" fill="#0c0d0b" stroke="#0c0d0b" stroke-miterlimit="10" stroke-width=".971"/>
      <circle cx="185.433" cy="348.552" r="13.912" fill="#0c0d0b"/>
    </g>
    <g>
      <path d="M111.895,366.712s-18.5,0-21.241,18.161l-.222,13.706h-2.297l-.222-13.706c-2.741-18.161-21.241-18.161-21.241-18.161h-16.794s.685,12.678,6.853,25.357c6.168,12.678,20.964,15.795,20.964,15.795h23.177s14.796-3.117,20.964-15.795c6.168-12.678,6.853-25.357,6.853-25.357h-16.794Z" fill="#0c0d0b"/>
      <line x1="89.283" y1="407.864" x2="89.283" y2="348.552" fill="#0c0d0b" stroke="#0c0d0b" stroke-miterlimit="10" stroke-width=".971"/>
      <circle cx="89.283" cy="348.552" r="13.912" fill="#0c0d0b"/>
    </g>
  </g>
  <g id="Flores">
    <g>
      <path d="M171.743,49.609s-27.75,0-31.862,27.241l-.333,20.559h-3.445l-.333-20.559c-4.112-27.241-31.862-27.241-31.862-27.241h-25.191s1.028,19.017,10.28,38.035c9.252,19.017,31.446,23.693,31.446,23.693h34.765s22.194-4.675,31.446-23.693c9.252-19.017,10.28-38.035,10.28-38.035h-25.191Z" fill="#0c0d0b"/>
      <line x1="137.826" y1="111.337" x2="137.826" y2="22.368" fill="#15af4f" stroke="#0c0d0b" stroke-miterlimit="10" stroke-width="1.457"/>
      <circle cx="137.826" cy="22.368" r="20.868" fill="#15af4f"/>
    </g>
    <g>
      <path d="M209.3,141.724s-18.5,0-21.241,18.161l-.222,13.706h-2.297l-.222-13.706c-2.741-18.161-21.241-18.161-21.241-18.161h-16.794s.685,12.678,6.853,25.357c6.168,12.678,20.964,15.795,20.964,15.795h23.177s14.796-3.117,20.964-15.795c6.168-12.678,6.853-25.357,6.853-25.357h-16.794Z" fill="#0c0d0b"/>
      <line x1="186.689" y1="182.875" x2="186.689" y2="123.563" fill="#15af4f" stroke="#0c0d0b" stroke-miterlimit="10" stroke-width=".971"/>
      <circle cx="186.689" cy="123.563" r="13.912" fill="#15af4f"/>
    </g>
    <g>
      <path d="M111.574,141.724s-18.5,0-21.241,18.161l-.222,13.706h-2.297l-.222-13.706c-2.741-18.161-21.241-18.161-21.241-18.161h-16.794s.685,12.678,6.853,25.357c6.168,12.678,20.964,15.795,20.964,15.795h23.177s14.796-3.117,20.964-15.795c6.168-12.678,6.853-25.357,6.853-25.357h-16.794Z" fill="#0c0d0b"/>
      <line x1="88.963" y1="182.875" x2="88.963" y2="123.563" fill="#15af4f" stroke="#0c0d0b" stroke-miterlimit="10" stroke-width=".971"/>
      <circle cx="88.963" cy="123.563" r="13.912" fill="#15af4f"/>
    </g>
  </g>
</svg>