<?xml version="1.0" encoding="UTF-8"?>
<svg xmlns="http://www.w3.org/2000/svg" width="275.651" height="450" viewBox="0 0 275.651 450">
  <g id="Tallo">
    <g>
      <line x1="137.906" y1="449.978" x2="137.906" y2="49.322" fill="#0c0d0b" stroke="#0c0d0b" stroke-miterlimit="10" stroke-width="2.271"/>
      <path d="M40.255,125.447v59.052c0,3.404,2.759,6.163,6.163,6.163h37.614c3.404,0,6.163,2.759,6.163,6.163v142.821c0,3.404,2.759,6.163,6.163,6.163h41.592" fill="none" stroke="#0c0d0b" stroke-miterlimit="10" stroke-width=".885"/>
      <path d="M235.958,125.447v59.052c0,3.404-2.759,6.163-6.163,6.163h-37.614c-3.404,0-6.163,2.759-6.163,6.163v142.821c0,3.404-2.759,6.163-6.163,6.163h-41.592" fill="none" stroke="#0c0d0b" stroke-miterlimit="10" stroke-width=".885"/>
    </g>
  </g>
  <g id="Hojas">
    <path d="M178.424,315.949s-18.922-2.07-27.2,4.73c-8.278,6.8-12.122,11.235-11.826,20.696h-2.061c.296-9.461-3.548-13.896-11.826-20.696-8.278-6.8-27.2-4.73-27.2-4.73,0,0-.591,13.6,7.983,24.244,8.574,10.644,17.579,11.106,17.579,11.106h28.991s9.005-.462,17.579-11.106c8.574-10.644,7.983-24.244,7.983-24.244Z" fill="#0c0d0b"/>
    <path d="M139.871,156.244h-41.57s3.008,10.163,14.666,14.647c11.658,4.484,23.876.909,23.876.909h3.047s12.218,3.574,23.876-.909c11.658-4.484,14.666-14.647,14.666-14.647h-38.561ZM138.367,170.891c-2.639,0-4.778-3.145-4.778-7.025s2.139-7.025,4.778-7.025,4.778,3.145,4.778,7.025-2.139,7.025-4.778,7.025Z" fill="#0c0d0b"/>
    <path d="M139.871,189.098h-41.57s3.008,10.163,14.666,14.647,23.876.909,23.876.909h3.047s12.218,3.574,23.876-.909,14.666-14.647,14.666-14.647h-38.561ZM138.367,203.745c-2.639,0-4.778-3.145-4.778-7.025s2.139-7.025,4.778-7.025,4.778,3.145,4.778,7.025-2.139,7.025-4.778,7.025Z" fill="#0c0d0b"/>
    <path d="M139.871,266.825h-41.57s3.008,10.163,14.666,14.647,23.876.909,23.876.909h3.047s12.218,3.574,23.876-.909,14.666-14.647,14.666-14.647h-38.561ZM138.367,281.473c-2.639,0-4.778-3.145-4.778-7.025s2.139-7.025,4.778-7.025,4.778,3.145,4.778,7.025-2.139,7.025-4.778,7.025Z" fill="#0c0d0b"/>
    <path d="M187.631,230.045h-41.57s3.008,10.163,14.666,14.647c11.658,4.484,23.876.909,23.876.909h3.047s12.218,3.574,23.876-.909c11.658-4.484,14.666-14.647,14.666-14.647h-38.561ZM186.127,244.693c-2.639,0-4.778-3.145-4.778-7.025s2.139-7.025,4.778-7.025,4.778,3.145,4.778,7.025-2.139,7.025-4.778,7.025Z" fill="#0c0d0b"/>
    <path d="M91.631,230.045h-41.57s3.008,10.163,14.666,14.647c11.658,4.484,23.876.909,23.876.909h3.047s12.218,3.574,23.876-.909c11.658-4.484,14.666-14.647,14.666-14.647h-38.561ZM90.127,244.693c-2.639,0-4.778-3.145-4.778-7.025s2.139-7.025,4.778-7.025,4.778,3.145,4.778,7.025-2.139,7.025-4.778,7.025Z" fill="#0c0d0b"/>
  </g>
  <g id="Flores">
    <g>
      <g>
        <line x1="235.586" y1="131.223" x2="235.586" y2="79.719" fill="none" stroke="#0c0d0b" stroke-miterlimit="10" stroke-width="1.31"/>
        <path d="M235.586,138.026c7.513,0,13.603-6.09,13.603-13.603h-27.207c0,7.513,6.09,13.603,13.603,13.603Z" fill="#0c0d0b"/>
        <g>
          <circle cx="235.586" cy="85.626" r="23.447" fill="#0c0d0b"/>
          <circle cx="235.586" cy="85.626" r="27.731" fill="none" stroke="#0c0d0b" stroke-miterlimit="10" stroke-width=".238"/>
          <circle cx="235.586" cy="85.626" r="14.282" fill="#15af4f"/>
        </g>
      </g>
      <g>
        <line x1="40.066" y1="132.825" x2="40.066" y2="81.321" fill="none" stroke="#0c0d0b" stroke-miterlimit="10" stroke-width="1.31"/>
        <path d="M40.066,139.629c7.513,0,13.603-6.09,13.603-13.603h-27.207c0,7.513,6.09,13.603,13.603,13.603Z" fill="#0c0d0b"/>
        <g>
          <circle cx="40.066" cy="87.229" r="23.447" fill="#0c0d0b"/>
          <circle cx="40.066" cy="87.229" r="27.731" fill="none" stroke="#0c0d0b" stroke-miterlimit="10" stroke-width=".238"/>
          <circle cx="40.066" cy="87.229" r="14.282" fill="#15af4f"/>
        </g>
      </g>
      <g>
        <path d="M137.826,120.397c11.269,0,20.405-9.136,20.405-20.405h-40.81c0,11.269,9.136,20.405,20.405,20.405Z" fill="#0c0d0b"/>
        <g>
          <circle cx="137.826" cy="41.797" r="35.17" fill="#15af4f" stroke="#1e8e5c" stroke-miterlimit="10" stroke-width=".357"/>
          <circle cx="137.826" cy="41.797" r="41.597" fill="none" stroke="#0c0d0b" stroke-miterlimit="10" stroke-width=".357"/>
          <circle cx="137.826" cy="41.797" r="21.423" fill="#0c0d0b"/>
        </g>
        <line x1="137.826" y1="110.192" x2="137.826" y2="32.936" fill="#15af4f" stroke="#0c0d0b" stroke-miterlimit="10" stroke-width="1.964"/>
      </g>
    </g>
  </g>
</svg>