<?xml version="1.0" encoding="UTF-8"?>
<svg xmlns="http://www.w3.org/2000/svg" width="100" height="100" viewBox="0 0 100 100">
  <g id="Tallo">
    <line x1="49.906" y1="99.99" x2="49.906" y2="5.743" fill="#0c0d0b" stroke="#0c0d0b" stroke-miterlimit="10" stroke-width=".534"/>
  </g>
  <g id="Hojas">
    <path d="M58.742,74.431s-4.204-.46-6.044,1.051-2.693,2.496-2.628,4.599h-.458c.066-2.102-.788-3.088-2.628-4.599s-6.044-1.051-6.044-1.051c0,0-.131,3.022,1.774,5.387s3.906,2.468,3.906,2.468h6.442s2.001-.103,3.906-2.468,1.774-5.387,1.774-5.387Z" fill="#0c0d0b"/>
    <path d="M50.344,41.344h-9.237s.668,2.258,3.259,3.255,5.305.202,5.305.202h.677s2.715.794,5.305-.202,3.259-3.255,3.259-3.255h-8.568ZM50.01,44.599c-.586,0-1.062-.699-1.062-1.561s.475-1.561,1.062-1.561,1.062.699,1.062,1.561-.475,1.561-1.062,1.561Z" fill="#0c0d0b"/>
    <path d="M50.344,46.899h-9.237s.668,2.258,3.259,3.255,5.305.202,5.305.202h.677s2.715.794,5.305-.202,3.259-3.255,3.259-3.255h-8.568ZM50.01,50.154c-.586,0-1.062-.699-1.062-1.561s.475-1.561,1.062-1.561,1.062.699,1.062,1.561-.475,1.561-1.062,1.561Z" fill="#0c0d0b"/>
    <path d="M50.344,52.454h-9.237s.668,2.258,3.259,3.255,5.305.202,5.305.202h.677s2.715.794,5.305-.202,3.259-3.255,3.259-3.255h-8.568ZM50.01,55.709c-.586,0-1.062-.699-1.062-1.561s.475-1.561,1.062-1.561,1.062.699,1.062,1.561-.475,1.561-1.062,1.561Z" fill="#0c0d0b"/>
    <path d="M50.344,58.009h-9.237s.668,2.258,3.259,3.255,5.305.202,5.305.202h.677s2.715.794,5.305-.202,3.259-3.255,3.259-3.255h-8.568ZM50.01,61.264c-.586,0-1.062-.699-1.062-1.561s.475-1.561,1.062-1.561,1.062.699,1.062,1.561-.475,1.561-1.062,1.561Z" fill="#0c0d0b"/>
    <path d="M50.344,63.564h-9.237s.668,2.258,3.259,3.255,5.305.202,5.305.202h.677s2.715.794,5.305-.202,3.259-3.255,3.259-3.255h-8.568ZM50.01,66.819c-.586,0-1.062-.699-1.062-1.561s.475-1.561,1.062-1.561,1.062.699,1.062,1.561-.475,1.561-1.062,1.561Z" fill="#0c0d0b"/>
    <path d="M50.344,69.119h-9.237s.668,2.258,3.259,3.255,5.305.202,5.305.202h.677s2.715.794,5.305-.202,3.259-3.255,3.259-3.255h-8.568ZM50.01,72.374c-.586,0-1.062-.699-1.062-1.561s.475-1.561,1.062-1.561,1.062.699,1.062,1.561-.475,1.561-1.062,1.561Z" fill="#0c0d0b"/>
  </g>
  <g id="Flores">
    <g>
      <line x1="50" y1="34.564" x2="50" y2="10.333" fill="#0c0d0b" stroke="#0c0d0b" stroke-miterlimit="10" stroke-width=".616"/>
      <path d="M50,37.765c3.532,0,6.396-2.865,6.396-6.4h-12.792c0,3.535,2.864,6.4,6.396,6.4Z" fill="#0c0d0b" stroke="#0c0d0b" stroke-miterlimit="10" stroke-width=".188"/>
      <g>
        <ellipse cx="50" cy="13.113" rx="11.024" ry="11.031" fill="#0c0d0b"/>
        <ellipse cx="50" cy="13.113" rx="13.039" ry="13.047" fill="none" stroke="#0c0d0b" stroke-miterlimit="10" stroke-width=".112"/>
        <ellipse cx="50" cy="13.113" rx="6.715" ry="6.719" fill="#15af4f"/>
      </g>
    </g>
  </g>
</svg>