<?xml version="1.0" encoding="UTF-8"?>
<svg xmlns="http://www.w3.org/2000/svg" width="100" height="100" viewBox="0 0 100 100">
  <g id="background">
    <circle cx="50" cy="76" r="9" fill="#1e8e5c" opacity=".33"/>
  </g>
  <g id="root">
    <path d="M44.373,96.097v-8.411c0-1.072.386-1.941.863-1.941h1.563c.476,0,.863-.869.863-1.941v-6.979c0-1.072.386-1.941.863-1.941h.568c.476,0,.863.869.863,1.941v2.581c0,1.072-.386,1.941-.863,1.941h-2.348c-.476,0-.863.869-.863,1.941v16.711" fill="none" stroke="#0c0d0b" stroke-miterlimit="10" stroke-width=".125"/>
    <path d="M55.537,96.097v-8.411c0-1.072-.386-1.941-.863-1.941h-1.563c-.476,0-.863-.869-.863-1.941v-6.979c0-1.072-.386-1.941-.863-1.941h-.568c-.476,0-.863.869-.863,1.941v2.581c0,1.072.386,1.941.863,1.941h2.348c.476,0,.863.869.863,1.941v16.711" fill="none" stroke="#0c0d0b" stroke-miterlimit="10" stroke-width=".125"/>
    <path d="M49.993,78.054l.028,8.56c.002.739-.263,1.342-.592,1.342h-.415c-.327,0-.592.596-.592,1.332v.84c0,.736.265,1.332.592,1.332h2.499c.327,0,.592.596.592,1.332v.73c0,.736-.265,1.332-.592,1.332h-.896c-.327,0-.592.596-.592,1.332v3.815" fill="none" stroke="#0c0d0b" stroke-miterlimit="10" stroke-width=".125"/>
  </g>
  <g id="seed">
    <g>
      <path d="M52.787,71.155c-.425-.62-.953-1.178-1.482-1.717-.836-.851-1.34-1.826-1.329-3.038,0-.075-.021-.15-.033-.225-.021,0-.042,0-.062.001-.011.132-.018.264-.034.395-.033.268-.05.54-.11.801-.2.872-.746,1.525-1.357,2.144-.437.443-.873.893-1.248,1.387-.568.748-.915,1.593-.85,2.547.002.033.004.066.007.1.1,1.014.541,1.832,1.274,2.47.623.476,1.426.762,2.303.762.938,0,1.792-.328,2.431-.865,0,0,.001-.001.002-.002.703-.645,1.096-1.505,1.153-2.403.051-.799-.165-1.627-.667-2.359ZM48.677,71.083c-.688,1.154-.883,2.37-.478,3.666.008.024.005.052.007.078-.027.006-.055.011-.082.017-.095-.442-.229-.88-.278-1.327-.101-.922.15-1.774.652-2.546.13-.2.264-.396.4-.592.208-.3.419-.598.627-.898.02.013.039.026.059.039-.156.269-.311.539-.466.809-.145.252-.292.504-.441.754ZM51.689,74.676c.032-.254.074-.507.096-.762.087-1.015-.166-1.949-.682-2.82-.148-.25-.291-.502-.434-.754-.074-.132-.149-.265-.222-.398-.072-.13-.119-.273-.177-.41.023-.012.047-.024.07-.035.182.302.373.599.56.898.248.395.49.794.695,1.21.489.989.468,2.034.094,3.071Z" fill="#0c0c0c"/>
      <circle cx="49.867" cy="71.896" r=".627" fill="#2ca950"/>
      <path d="M49.867,72.867c-.168,0-.304.136-.304.304s.136.304.304.304.304-.136.304-.304-.136-.304-.304-.304Z" fill="#00aa92"/>
    </g>
  </g>
  <g id="soil">
    <line x1="34.142" y1="66.617" x2="65.909" y2="66.617" fill="none" stroke="#0c0d0b" stroke-miterlimit="10" stroke-width=".125"/>
    <g>
      <path d="M38.728,67.362l.247-.02c.012,0,.022.008.023.02,0,.012-.008.022-.02.023h-.003l-.247-.02v-.004Z" fill="#0c0d0b"/>
      <path d="M39.472,67.312c.166-.008.331-.015.497-.016.037,0,.068.03.068.067,0,.037-.03.068-.067.068h0c-.166,0-.331-.008-.497-.016-.028-.001-.05-.026-.049-.054.001-.027.023-.047.049-.049Z" fill="#0c0d0b"/>
      <path d="M40.466,67.288l.497.009c.037,0,.066.031.065.068,0,.036-.03.065-.065.065l-.497.009c-.042,0-.076-.032-.077-.074s.032-.076.074-.077h.003Z" fill="#0c0d0b"/>
      <path d="M41.46,67.324l.497.025c.008,0,.014.007.014.015,0,.008-.006.014-.014.014l-.497.025c-.022.001-.04-.016-.042-.037-.001-.022.016-.04.038-.042.001,0,.003,0,.004,0Z" fill="#0c0d0b"/>
      <path d="M42.454,67.353c.166-.005.331-.029.497-.042.029-.002.054.019.056.048.002.029-.019.054-.048.056-.003,0-.005,0-.008,0-.166-.013-.331-.037-.497-.042-.006,0-.01-.005-.01-.01,0-.005.005-.01.01-.01Z" fill="#0c0d0b"/>
      <path d="M43.448,67.313c.166.012.331.035.497.034.009,0,.017.007.017.016,0,.009-.007.017-.017.017h0c-.166-.001-.331.021-.497.034-.028.002-.052-.019-.054-.047s.019-.052.047-.054c.002,0,.005,0,.007,0Z" fill="#0c0d0b"/>
      <path d="M44.442,67.322c.166-.008.331-.036.497-.054.053-.006.1.033.106.085s-.033.1-.085.106c-.007,0-.014,0-.021,0-.166-.018-.331-.046-.497-.054-.023-.001-.04-.021-.039-.043.001-.021.018-.038.039-.039Z" fill="#0c0d0b"/>
      <path d="M45.436,67.215c.166-.012.331-.017.497-.014.09.001.162.076.16.166-.001.088-.073.159-.16.16-.166.003-.331-.003-.497-.014-.082-.006-.144-.077-.138-.159.005-.075.065-.133.138-.138Z" fill="#0c0d0b"/>
      <path d="M46.43,67.218c.166.002.331.017.497.035.061.007.105.062.098.123-.006.052-.047.092-.098.098-.166.019-.331.033-.497.035-.08,0-.146-.063-.147-.144,0-.08.063-.146.144-.147h.003Z" fill="#0c0d0b"/>
      <path d="M47.424,67.316c.082.012.165.027.247.046v.004c-.082.019-.165.034-.247.046-.026.004-.051-.014-.055-.041-.004-.026.014-.051.041-.055.005,0,.01,0,.014,0Z" fill="#0c0d0b"/>
    </g>
    <g>
      <path d="M40.317,68.578l.247-.025c.015-.001.028.009.03.024.002.015-.009.028-.024.03-.002,0-.004,0-.005,0l-.247-.025v-.004Z" fill="#0c0d0b"/>
      <path d="M41.061,68.515c.166-.011.331-.019.497-.02.047,0,.085.037.085.084,0,.047-.038.085-.084.085h0c-.166,0-.331-.009-.497-.02-.036-.002-.063-.033-.061-.069.002-.033.028-.058.061-.061Z" fill="#0c0d0b"/>
      <path d="M42.055,68.485l.497.011c.046,0,.083.039.082.085-.001.045-.037.081-.082.082l-.497.011c-.052.001-.096-.04-.097-.093-.001-.052.04-.096.093-.097.001,0,.003,0,.004,0Z" fill="#0c0d0b"/>
      <path d="M43.049,68.53c.166.01.331.03.497.032.01,0,.017.008.017.017,0,.009-.008.017-.017.017-.166.002-.331.021-.497.032-.027.002-.05-.019-.052-.046-.002-.027.019-.051.046-.052.002,0,.004,0,.006,0Z" fill="#0c0d0b"/>
      <path d="M44.043,68.573l.497-.003c.005,0,.009.004.009.009,0,.005-.004.009-.009.009h0l-.497-.003s-.006-.003-.006-.006.003-.006.006-.006Z" fill="#0c0d0b"/>
      <path d="M45.037,68.568l.497-.003c.008,0,.015.007.015.015,0,.008-.007.015-.015.015h0l-.497-.003c-.007,0-.012-.005-.012-.012s.005-.012.012-.012Z" fill="#0c0d0b"/>
      <path d="M46.031,68.543c.166-.012.331-.041.497-.061.054-.007.103.032.11.086.007.054-.032.103-.086.11-.008,0-.016,0-.024,0-.166-.02-.331-.05-.497-.061-.02-.001-.035-.019-.034-.039.001-.018.016-.032.034-.034Z" fill="#0c0d0b"/>
      <path d="M47.025,68.42c.166-.014.331-.02.497-.018.098,0,.177.081.176.179,0,.097-.079.176-.176.176-.166.001-.331-.004-.497-.018-.088-.008-.153-.085-.145-.173.007-.078.069-.139.145-.145Z" fill="#0c0d0b"/>
      <path d="M48.019,68.418c.166.006.331.023.497.042.066.008.113.068.105.133-.007.056-.051.099-.105.105-.166.02-.331.036-.497.042-.089.003-.165-.066-.168-.156-.003-.089.066-.165.156-.168.004,0,.009,0,.013,0Z" fill="#0c0d0b"/>
      <path d="M49.013,68.528c.082.013.165.029.247.05v.004c-.082.021-.165.037-.247.05-.028.005-.055-.015-.06-.043-.005-.029.015-.055.043-.06.006,0,.011,0,.016,0Z" fill="#0c0d0b"/>
    </g>
    <g>
      <path d="M61.172,67.512l-.247.02c-.012,0-.022-.008-.023-.02,0-.012.008-.022.02-.023.001,0,.002,0,.003,0l.247.02v.004Z" fill="#0c0d0b"/>
      <path d="M60.428,67.562c-.166.009-.331.015-.497.016-.037,0-.068-.03-.068-.067s.03-.068.067-.068h0c.166,0,.331.007.497.016.028.001.05.026.049.054-.001.026-.023.047-.049.049Z" fill="#0c0d0b"/>
      <path d="M59.434,67.586l-.497-.009c-.037,0-.066-.031-.065-.068,0-.036.03-.065.065-.065l.497-.009c.042,0,.076.032.077.074,0,.042-.032.076-.074.077h-.003Z" fill="#0c0d0b"/>
      <path d="M58.44,67.55l-.497-.025c-.008,0-.014-.007-.014-.015,0-.008.006-.013.014-.014l.497-.025c.022-.001.04.016.042.038.001.022-.016.04-.038.042h-.004Z" fill="#0c0d0b"/>
      <path d="M57.446,67.521c-.166.005-.331.029-.497.042-.029.002-.054-.019-.056-.048-.002-.029.019-.054.048-.056.003,0,.005,0,.008,0,.166.013.331.037.497.042.006,0,.01.005.01.01,0,.005-.005.01-.01.01Z" fill="#0c0d0b"/>
      <path d="M56.452,67.561c-.166-.012-.331-.035-.497-.034-.009,0-.017-.007-.017-.017,0-.009.007-.017.017-.017h0c.166.001.331-.021.497-.034.028-.002.052.019.054.047s-.019.052-.047.054c-.002,0-.005,0-.007,0Z" fill="#0c0d0b"/>
      <path d="M55.458,67.552c-.166.008-.331.036-.497.054-.053.006-.1-.032-.106-.085s.033-.1.085-.106c.007,0,.014,0,.021,0,.166.018.331.046.497.054.023.001.04.021.039.043-.001.021-.018.038-.039.039Z" fill="#0c0d0b"/>
      <path d="M54.464,67.659c-.166.012-.331.017-.497.014-.09-.002-.162-.076-.16-.166.001-.088.073-.159.16-.16.166-.003.331.003.497.014.082.006.144.077.138.159-.005.075-.065.133-.138.138Z" fill="#0c0d0b"/>
      <path d="M53.47,67.656c-.166-.002-.331-.017-.497-.035-.061-.007-.105-.062-.098-.122.006-.052.047-.092.098-.098.166-.019.331-.033.497-.035.08,0,.146.063.147.144s-.063.146-.144.147h-.003Z" fill="#0c0d0b"/>
      <path d="M52.476,67.558c-.082-.012-.165-.027-.247-.046v-.004c.082-.019.165-.034.247-.046.026-.004.051.014.055.041.004.026-.014.051-.041.055-.005,0-.01,0-.014,0Z" fill="#0c0d0b"/>
    </g>
    <g>
      <path d="M65.5,66.517l-.247.009c-.006,0-.011-.004-.011-.01,0-.006.004-.011.01-.011h0l.247.009v.003Z" fill="#0c0d0b"/>
      <path d="M64.753,66.544l-.5.018c-.026,0-.047-.019-.048-.045,0-.026.019-.047.045-.048h.003l.5.018c.016,0,.028.014.027.029,0,.015-.013.027-.027.027Z" fill="#0c0d0b"/>
      <path d="M63.753,66.575l-.5.01c-.039,0-.07-.03-.071-.068,0-.039.03-.07.068-.071h.003l.5.01c.033,0,.059.028.058.061,0,.032-.026.057-.058.058Z" fill="#0c0d0b"/>
      <path d="M62.753,66.596l-.5.01c-.05.001-.092-.039-.093-.089-.001-.05.039-.092.089-.093h.004l.5.01c.044,0,.08.038.079.082,0,.043-.036.078-.079.078Z" fill="#0c0d0b"/>
      <path d="M61.752,66.617l-.5.01c-.062.001-.113-.048-.114-.109-.001-.062.048-.113.109-.114h.005l.5.01c.056.001.1.047.099.103-.001.054-.045.098-.099.099Z" fill="#0c0d0b"/>
      <path d="M60.752,66.638l-.5.01c-.073.001-.134-.057-.135-.13-.002-.073.057-.134.13-.135h.006l.5.01c.068.001.121.057.12.125-.001.066-.055.118-.12.12Z" fill="#0c0d0b"/>
      <path d="M59.752,66.592h-.5c-.042,0-.077-.034-.077-.076,0-.042.034-.077.077-.077h.5c.042,0,.076.035.076.077,0,.042-.034.076-.076.076Z" fill="#0c0d0b"/>
      <path d="M58.752,66.593l-.5.003c-.045,0-.081-.036-.081-.08,0-.045.036-.081.08-.081h.001l.5.003c.043,0,.077.035.077.078,0,.043-.035.077-.077.077Z" fill="#0c0d0b"/>
      <path d="M57.751,66.599c-.167.003-.333.002-.5-.005-.044-.002-.078-.038-.076-.082.002-.042.035-.074.076-.076.167-.006.333-.008.5-.005.046,0,.083.039.083.086,0,.045-.038.082-.083.083Z" fill="#0c0d0b"/>
      <path d="M56.751,66.581l-.5-.014c-.028,0-.051-.025-.05-.053,0-.027.023-.049.05-.05l.5-.014c.036,0,.066.027.067.063,0,.036-.027.066-.063.067h-.004Z" fill="#0c0d0b"/>
      <path d="M55.751,66.554l-.5-.011c-.015,0-.027-.013-.026-.028,0-.014.012-.026.026-.026l.5-.011c.021,0,.039.016.039.037s-.016.039-.037.039h-.002Z" fill="#0c0d0b"/>
      <path d="M54.751,66.531l-.5-.009s-.006-.003-.006-.006c0-.003.003-.006.006-.006l.5-.009c.009,0,.016.007.016.015,0,.009-.007.016-.015.016h0Z" fill="#0c0d0b"/>
      <path d="M53.751,66.531l-.5.009c-.014,0-.025-.011-.025-.024s.011-.025.024-.025h0l.5.009c.009,0,.015.007.015.016,0,.008-.007.015-.015.015Z" fill="#0c0d0b"/>
      <path d="M52.75,66.554l-.5.015c-.03,0-.054-.022-.055-.052,0-.03.022-.054.052-.055.001,0,.002,0,.003,0l.5.015c.021,0,.038.018.037.04,0,.021-.017.037-.037.037Z" fill="#0c0d0b"/>
      <path d="M51.75,66.578l-.5.004c-.037,0-.067-.029-.068-.067,0-.037.029-.067.067-.068h.001l.5.004c.035,0,.063.029.063.064,0,.035-.028.062-.063.063Z" fill="#0c0d0b"/>
      <path d="M50.75,66.586l-.5.004c-.041,0-.075-.033-.076-.074s.033-.075.074-.076h.001l.5.004c.039,0,.071.032.07.072,0,.039-.032.07-.07.07Z" fill="#0c0d0b"/>
      <path d="M49.75,66.594l-.5.004c-.046,0-.083-.036-.083-.082,0-.046.036-.083.082-.083h.001l.5.004c.044,0,.079.036.078.079,0,.043-.035.078-.078.078Z" fill="#0c0d0b"/>
      <path d="M48.749,66.602l-.5.008c-.052,0-.095-.041-.096-.093,0-.052.041-.095.093-.096,0,0,.002,0,.003,0l.5.007c.048,0,.086.04.085.088,0,.047-.039.085-.085.085Z" fill="#0c0d0b"/>
      <path d="M47.749,66.618l-.5.008c-.061,0-.111-.048-.112-.108s.048-.111.108-.112h.004l.5.008c.056,0,.101.047.101.104,0,.055-.046.1-.101.101Z" fill="#0c0d0b"/>
      <path d="M46.749,66.633l-.5.01c-.071.001-.129-.055-.13-.125s.055-.129.125-.13c.001,0,.003,0,.005,0l.5.01c.065.001.117.055.116.12-.001.064-.053.115-.116.116Z" fill="#0c0d0b"/>
      <path d="M45.749,66.654l-.5.01c-.082.002-.15-.063-.152-.146-.002-.082.063-.15.146-.152h.006l.5.01c.076.002.137.065.135.141-.002.074-.062.134-.135.135Z" fill="#0c0d0b"/>
      <path d="M44.748,66.673l-.5.002c-.088,0-.16-.071-.16-.159,0-.088.071-.16.159-.16h.001l.5.002c.087,0,.157.071.157.158,0,.086-.07.156-.157.157Z" fill="#0c0d0b"/>
      <path d="M43.748,66.677l-.5.002c-.091,0-.165-.073-.165-.163,0-.091.073-.165.163-.165h.002l.5.002c.089,0,.162.073.161.163,0,.089-.072.161-.161.161Z" fill="#0c0d0b"/>
      <path d="M42.748,66.672l-.5-.012c-.08-.002-.143-.068-.141-.148.002-.077.065-.139.141-.141l.5-.012c.086-.002.158.066.16.153.002.086-.066.158-.153.16h-.007Z" fill="#0c0d0b"/>
      <path d="M41.748,66.648l-.5-.012c-.067-.002-.119-.057-.118-.124.002-.065.054-.116.118-.118l.5-.012c.073-.002.134.056.136.13.002.073-.056.134-.13.136-.002,0-.004,0-.006,0Z" fill="#0c0d0b"/>
      <path d="M40.748,66.624l-.5-.012c-.054-.001-.096-.046-.095-.099.001-.052.043-.093.095-.095l.5-.012c.06-.001.11.046.111.106s-.046.11-.106.111h-.005Z" fill="#0c0d0b"/>
      <path d="M39.747,66.6l-.5-.012c-.04,0-.072-.034-.071-.075,0-.039.033-.07.071-.071l.5-.012c.047-.001.086.036.087.083.001.047-.036.086-.083.087h-.004Z" fill="#0c0d0b"/>
      <path d="M38.747,66.573l-.5-.022c-.019,0-.034-.017-.033-.037,0-.018.016-.033.033-.033l.5-.022c.032-.001.058.023.06.055s-.023.058-.055.06h-.005Z" fill="#0c0d0b"/>
      <path d="M37.747,66.528l-.247-.011v-.003l.247-.011c.007,0,.013.005.013.012,0,.007-.005.013-.012.013h-.001Z" fill="#0c0d0b"/>
    </g>
    <g>
      <path d="M59.584,68.728l-.247.025c-.015.001-.028-.009-.03-.024-.002-.015.009-.028.024-.03.002,0,.004,0,.005,0l.247.025v.003Z" fill="#0c0d0b"/>
      <path d="M58.84,68.791c-.166.011-.331.019-.497.02-.047,0-.085-.038-.085-.084s.038-.085.084-.085h0c.166,0,.331.01.497.02.036.002.063.033.061.069-.002.033-.028.058-.061.061Z" fill="#0c0d0b"/>
      <path d="M57.846,68.821l-.497-.011c-.046,0-.083-.039-.082-.085.001-.045.037-.081.082-.082l.497-.011c.052-.001.096.04.097.093.001.052-.04.096-.093.097h-.004Z" fill="#0c0d0b"/>
      <path d="M56.852,68.776c-.166-.01-.331-.03-.497-.032-.01,0-.017-.008-.017-.017,0-.009.008-.017.017-.017.166-.002.331-.021.497-.032.027-.002.05.019.052.046.002.027-.019.05-.046.052-.002,0-.004,0-.006,0Z" fill="#0c0d0b"/>
      <path d="M55.858,68.733l-.497.003c-.005,0-.009-.004-.009-.009,0-.005.004-.009.009-.009h0l.497.003s.006.003.006.006-.003.006-.006.006Z" fill="#0c0d0b"/>
      <path d="M54.864,68.739l-.497.003c-.008,0-.015-.007-.015-.015,0-.008.007-.015.015-.015h0l.497.003c.007,0,.012.005.012.012,0,.007-.005.012-.012.012Z" fill="#0c0d0b"/>
      <path d="M53.87,68.763c-.166.012-.331.041-.497.061-.054.007-.103-.032-.11-.086-.007-.054.032-.103.086-.11.008,0,.016,0,.024,0,.166.02.331.05.497.061.02.001.035.019.034.039-.001.018-.016.032-.034.034Z" fill="#0c0d0b"/>
      <path d="M52.876,68.886c-.166.014-.331.02-.497.018-.098,0-.177-.081-.176-.179,0-.097.079-.176.176-.176.166-.001.331.004.497.018.088.008.153.085.145.173-.007.078-.069.139-.145.145Z" fill="#0c0d0b"/>
      <path d="M51.882,68.888c-.166-.006-.331-.023-.497-.042-.066-.008-.113-.068-.105-.133.007-.056.051-.099.105-.105.166-.02.331-.036.497-.042.089-.003.165.066.168.156s-.066.165-.156.168c-.004,0-.009,0-.013,0Z" fill="#0c0d0b"/>
      <path d="M50.888,68.778c-.082-.013-.165-.029-.247-.05v-.003c.082-.021.165-.037.247-.05.028-.005.055.015.06.043.005.028-.015.055-.043.06-.006,0-.011,0-.016,0Z" fill="#0c0d0b"/>
    </g>
  </g>
  <g id="stem">
    <g>
      <line x1="49.852" y1="66.435" x2="49.852" y2="5.255" fill="#0c0d0b" stroke="#0c0d0b" stroke-miterlimit="10" stroke-width=".417"/>
      <path d="M57.023,19.261v8.542c0,.492-.399.891-.891.891h-5.441c-.492,0-.891.399-.891.891v20.658c0,.492-.399.891-.891.891h-6.016" fill="none" stroke="#0c0d0b" stroke-miterlimit="10" stroke-width=".417"/>
      <path d="M42.66,19.261v8.542c0,.492.399.891.891.891h5.441c.492,0,.891.399.891.891v20.658c0,.492.399.891.891.891h6.016" fill="none" stroke="#0c0d0b" stroke-miterlimit="10" stroke-width=".417"/>
    </g>
  </g>
  <g id="leaf">
    <path d="M51.809,33.382c-1.56.624-1.806,2.095-1.806,2.095h-.399s-.246-1.471-1.806-2.095-3.789.446-3.789.446c.847,2.898,3.274,3.031,3.274,3.031h5.043s2.427-.134,3.274-3.031c0,0-2.229-1.07-3.789-.446Z" fill="#0c0d0b"/>
    <path d="M51.925,40.8c-1.56.624-1.806,2.095-1.806,2.095h-.399s-.246-1.471-1.806-2.095-3.789.446-3.789.446c.847,2.898,3.274,3.031,3.274,3.031h5.043s2.427-.134,3.274-3.031c0,0-2.229-1.07-3.789-.446Z" fill="#0c0d0b"/>
    <path d="M51.809,45.552c-1.56.624-1.806,2.095-1.806,2.095h-.399s-.246-1.471-1.806-2.095-3.789.446-3.789.446c.847,2.898,3.274,3.031,3.274,3.031h5.043s2.427-.134,3.274-3.031c0,0-2.229-1.07-3.789-.446Z" fill="#0c0d0b"/>
    <g>
      <path d="M60.199,54.406s-2.721,0-3.124,2.671l-.033,2.016h-.338l-.033-2.016c-.403-2.671-3.124-2.671-3.124-2.671h-2.47s.101,1.865,1.008,3.729c.907,1.865,3.083,2.323,3.083,2.323h3.409s2.176-.458,3.083-2.323c.907-1.865,1.008-3.729,1.008-3.729h-2.47Z" fill="#0c0d0b"/>
      <line x1="56.873" y1="60.459" x2="56.873" y2="51.736" fill="#0c0d0b" stroke="#0c0d0b" stroke-miterlimit="10" stroke-width=".143"/>
      <circle cx="56.873" cy="51.736" r="2.046" fill="#0c0d0b"/>
    </g>
    <g>
      <path d="M46.058,54.406s-2.721,0-3.124,2.671l-.033,2.016h-.338l-.033-2.016c-.403-2.671-3.124-2.671-3.124-2.671h-2.47s.101,1.865,1.008,3.729,3.083,2.323,3.083,2.323h3.409s2.176-.458,3.083-2.323,1.008-3.729,1.008-3.729h-2.47Z" fill="#0c0d0b"/>
      <line x1="42.733" y1="60.459" x2="42.733" y2="51.736" fill="#0c0d0b" stroke="#0c0d0b" stroke-miterlimit="10" stroke-width=".143"/>
      <circle cx="42.733" cy="51.736" r="2.046" fill="#0c0d0b"/>
    </g>
    <g>
      <path d="M60.383,21.318s-2.721,0-3.124,2.671l-.033,2.016h-.338l-.033-2.016c-.403-2.671-3.124-2.671-3.124-2.671h-2.47s.101,1.865,1.008,3.729,3.083,2.323,3.083,2.323h3.409s2.176-.458,3.083-2.323,1.008-3.729,1.008-3.729h-2.47Z" fill="#0c0d0b"/>
      <line x1="57.058" y1="27.37" x2="57.058" y2="18.647" fill="#15af4f" stroke="#0c0d0b" stroke-miterlimit="10" stroke-width=".143"/>
      <circle cx="57.058" cy="18.647" r="2.046" fill="#15af4f"/>
    </g>
    <g>
      <path d="M46.011,21.318s-2.721,0-3.124,2.671l-.033,2.016h-.338l-.033-2.016c-.403-2.671-3.124-2.671-3.124-2.671h-2.47s.101,1.865,1.008,3.729,3.083,2.323,3.083,2.323h3.409s2.176-.458,3.083-2.323,1.008-3.729,1.008-3.729h-2.47Z" fill="#0c0d0b"/>
      <line x1="42.686" y1="27.37" x2="42.686" y2="18.647" fill="#15af4f" stroke="#0c0d0b" stroke-miterlimit="10" stroke-width=".143"/>
      <circle cx="42.686" cy="18.647" r="2.046" fill="#15af4f"/>
    </g>
  </g>
  <g id="flower">
    <g>
      <path d="M54.86,7.771s-4.081,0-4.686,4.006l-.049,3.024h-.507l-.049-3.024c-.605-4.006-4.686-4.006-4.686-4.006h-3.705s.151,2.797,1.512,5.594,4.625,3.484,4.625,3.484h5.113s3.264-.688,4.625-3.484c1.361-2.797,1.512-5.594,1.512-5.594h-3.705Z" fill="#0c0d0b"/>
      <line x1="49.872" y1="16.849" x2="49.872" y2="3.765" fill="#15af4f" stroke="#0c0d0b" stroke-miterlimit="10" stroke-width=".214"/>
      <circle cx="49.872" cy="3.765" r="3.069" fill="#15af4f"/>
    </g>
  </g>
</svg>