<?xml version="1.0" encoding="UTF-8"?>
<svg id="Planta" xmlns="http://www.w3.org/2000/svg" width="100" height="100" viewBox="0 0 100 100">
  <g id="Tallo">
    <g>
      <line x1="50.256" y1="99.733" x2="50.256" y2="17.963" fill="#0c0d0b" stroke="#0c0d0b" stroke-miterlimit="10" stroke-width=".54"/>
      <path d="M32.443,49.738v-17.535c0-2.894,2.346-5.24,5.24-5.24h25.147c2.894,0,5.24,2.346,5.24,5.24v17.535" fill="none" stroke="#0c0d0b" stroke-miterlimit="10" stroke-width=".315"/>
    </g>
  </g>
  <g id="Hojas">
    <path d="M57.967,34.379c-.872.888-1.977,1.137-3.16.731-1.318-.452-2.159-1.377-2.296-2.789-.067-.695.052-1.408.093-2.113.075-1.27.026-2.279-1.541-3.032h-1.441c-1.568.753-1.712,1.763-1.637,3.032.041.705.16,1.418.093,2.113-.137,1.412-.978,2.337-2.296,2.789-1.184.406-2.288.157-3.16-.731-2.178-2.217-1.308-5.797,1.641-6.805,1.593-.545,3.241-.722,5.161-.603h1.741c1.92-.119,3.568.059,5.161.603,2.949,1.008,3.819,4.588,1.641,6.805Z" fill="#0c0d0b"/>
    <path d="M72.252,37.211c-.501.51-1.134.653-1.813.42-.756-.26-1.239-.79-1.317-1.601-.039-.399.03-.808.053-1.212.043-.729.015-1.308-.884-1.74h-.827c-.9.432-.982,1.012-.939,1.74.024.404.092.814.053,1.212-.078.81-.561,1.341-1.317,1.601-.679.233-1.313.09-1.813-.42-1.25-1.272-.751-3.326.942-3.905.914-.313,1.86-.415,2.962-.346h.999c1.102-.068,2.047.034,2.961.346,1.692.579,2.191,2.633.942,3.905Z" fill="#0c0d0b"/>
    <path d="M36.922,37.211c-.501.51-1.134.653-1.813.42-.756-.26-1.239-.79-1.317-1.601-.039-.399.03-.808.053-1.212.043-.729.015-1.308-.884-1.74h-.827c-.9.432-.982,1.012-.939,1.74.024.404.092.814.053,1.212-.078.81-.561,1.341-1.317,1.601-.679.233-1.313.09-1.813-.42-1.25-1.272-.751-3.326.942-3.905.914-.313,1.86-.415,2.962-.346h.999c1.102-.068,2.047.034,2.961.346,1.692.579,2.191,2.633.942,3.905Z" fill="#0c0d0b"/>
    <path d="M57.745,54.519c-.872.888-1.977,1.137-3.16.731-1.318-.452-2.159-1.377-2.296-2.789-.067-.695.052-1.408.093-2.113.075-1.27.026-2.279-1.541-3.032h-1.441c-1.568.753-1.712,1.763-1.637,3.032.041.705.16,1.418.093,2.113-.137,1.412-.978,2.337-2.296,2.789-1.184.406-2.288.157-3.16-.731-2.178-2.217-1.308-5.797,1.641-6.805,1.593-.545,3.241-.722,5.161-.603h1.741c1.92-.119,3.568.059,5.161.603,2.949,1.008,3.819,4.588,1.641,6.805Z" fill="#0c0d0b"/>
    <path d="M57.745,74.659c-.872.888-1.977,1.137-3.16.731-1.318-.452-2.159-1.377-2.296-2.789-.067-.695.052-1.408.093-2.113.075-1.27.026-2.279-1.541-3.032h-1.441c-1.568.753-1.712,1.763-1.637,3.032.041.705.16,1.418.093,2.113-.137,1.412-.978,2.337-2.296,2.789-1.184.406-2.288.157-3.16-.731-2.178-2.217-1.308-5.797,1.641-6.805,1.593-.545,3.241-.722,5.161-.603h1.741c1.92-.119,3.568.059,5.161.603,2.949,1.008,3.819,4.588,1.641,6.805Z" fill="#0c0d0b"/>
  </g>
  <g id="Flores">
    <g>
      <path d="M50.35,11.882c-.072.007-.08.013-.075.02l.003.02.005.039c.105.807.215,1.617.343,2.421,0,0,.199,1.249.199,1.249.147.845.204,1.708.577,2.499.198.401.523.826.641,1.249.075.317.098.649-.084.937-.289.389-.861.637-1.241.937-.165.139-.562.43-.368.625.165.161-.069.416-.244.258-.071-.067-.074-.18-.007-.251.057-.051.068-.108.057-.163-.07-.197-.237-.318-.418-.469-.278-.208-.642-.416-.924-.625-.232-.176-.405-.361-.435-.625-.124-.63.293-1.191.593-1.718.254-.44.357-.923.458-1.406.26-1.583.531-3.252.733-4.841,0,0,.01-.078.01-.078l.005-.039s.003-.02.003-.02c.005-.007-.003-.013-.075-.02.002-.156.241-.164.244,0h0Z" fill="#0c0d0b"/>
      <path d="M55.178,9.287c-.803,0-1.462.616-1.531,1.401h-8.485c-.179,0-.324-.145-.324-.324v-2.336c.573-.068,1.017-.554,1.017-1.145,0-.637-.516-1.153-1.153-1.153s-1.153.516-1.153,1.153c0,.591.444,1.077,1.017,1.145v2.336c0,.329.267.596.596.596h8.485c.069.785.728,1.401,1.531,1.401.849,0,1.538-.688,1.538-1.538s-.688-1.538-1.538-1.538Z" fill="#0c0d0b"/>
      <circle cx="50.276" cy="10.729" r="1.826" fill="#0c0d0b"/>
      <circle cx="50.228" cy="10.825" r=".769" fill="#2a4c8c"/>
      <path d="M58.734,3.569c0-1.99-1.614-3.604-3.604-3.604-.154,0-.306.011-.456.03-1.556.049-3.105.907-3.965,2.595-1.132,2.364-.783,4.648-.786,6.741,0,.205.276.27.366.085.4-.825.897-1.71,1.141-1.954.384-.384.515-1.149,2.691-.384,1.091.383,2.004.191,2.702-.326,1.137-.606,1.911-1.803,1.911-3.182Z" fill="#0c0d0b"/>
      <circle cx="55.466" cy="3.329" r="1.826" fill="#2a4c8c"/>
    </g>
    <g>
      <path d="M32.797,51.434c-.072.007-.08.013-.075.02l.003.02.005.039c.105.807.215,1.617.343,2.421,0,0,.199,1.249.199,1.249.147.845.204,1.708.577,2.499.198.401.523.826.641,1.249.075.317.098.649-.084.937-.289.389-.861.637-1.241.937-.165.139-.562.43-.368.625.165.161-.069.416-.244.258-.071-.067-.074-.18-.007-.251.057-.051.068-.108.057-.163-.07-.197-.237-.318-.418-.469-.278-.208-.642-.416-.924-.625-.232-.176-.405-.361-.435-.625-.124-.63.293-1.191.593-1.718.254-.44.357-.923.458-1.406.26-1.583.531-3.252.733-4.841,0,0,.01-.078.01-.078l.005-.039s.003-.02.003-.02c.005-.007-.003-.013-.075-.02.002-.156.241-.164.244,0h0Z" fill="#0c0d0b"/>
      <path d="M37.624,48.839c-.803,0-1.462.616-1.531,1.401h-8.485c-.179,0-.324-.145-.324-.324v-2.336c.573-.068,1.017-.554,1.017-1.145,0-.637-.516-1.153-1.153-1.153s-1.153.516-1.153,1.153c0,.591.444,1.077,1.017,1.145v2.336c0,.329.267.596.596.596h8.485c.069.785.728,1.401,1.531,1.401.849,0,1.538-.688,1.538-1.538s-.688-1.538-1.538-1.538Z" fill="#0c0d0b"/>
      <circle cx="32.723" cy="50.28" r="1.826" fill="#0c0d0b"/>
      <circle cx="32.675" cy="50.377" r=".769" fill="#2a4c8c"/>
      <path d="M41.18,43.12c0-1.99-1.614-3.604-3.604-3.604-.154,0-.306.011-.456.03-1.556.049-3.105.907-3.965,2.595-1.132,2.364-.783,4.648-.786,6.741,0,.205.276.27.366.085.4-.825.897-1.71,1.141-1.954.384-.384.515-1.149,2.691-.384,1.091.383,2.004.191,2.702-.326,1.137-.606,1.911-1.803,1.911-3.182Z" fill="#0c0d0b"/>
      <circle cx="37.912" cy="42.88" r="1.826" fill="#2a4c8c"/>
    </g>
    <g>
      <path d="M67.486,51.878c.072.007.08.013.075.02l-.003.02-.005.039c-.105.807-.215,1.617-.343,2.421,0,0-.199,1.249-.199,1.249-.147.845-.204,1.708-.577,2.499-.198.401-.523.826-.641,1.249-.075.317-.098.649.084.937.289.389.861.637,1.241.937.165.139.562.43.368.625-.165.161.069.416.244.258.071-.067.074-.18.007-.251-.057-.051-.068-.108-.057-.163.07-.197.237-.318.418-.469.278-.208.642-.416.924-.625.232-.176.405-.361.435-.625.124-.63-.293-1.191-.593-1.718-.254-.44-.357-.923-.458-1.406-.26-1.583-.531-3.252-.733-4.841,0,0-.01-.078-.01-.078l-.005-.039s-.003-.02-.003-.02c-.005-.007.003-.013.075-.02-.002-.156-.241-.164-.244,0h0Z" fill="#0c0d0b"/>
      <path d="M62.659,49.283c.803,0,1.462.616,1.531,1.401h8.485c.179,0,.324-.145.324-.324v-2.336c-.573-.068-1.017-.554-1.017-1.145,0-.637.516-1.153,1.153-1.153s1.153.516,1.153,1.153c0,.591-.444,1.077-1.017,1.145v2.336c0,.329-.267.596-.596.596h-8.485c-.069.785-.728,1.401-1.531,1.401-.849,0-1.538-.688-1.538-1.538s.688-1.538,1.538-1.538Z" fill="#0c0d0b"/>
      <circle cx="67.56" cy="50.725" r="1.826" fill="#0c0d0b"/>
      <circle cx="67.608" cy="50.821" r=".769" fill="#2a4c8c"/>
      <path d="M59.103,43.565c0-1.99,1.614-3.604,3.604-3.604.154,0,.306.011.456.03,1.556.049,3.105.907,3.965,2.595,1.132,2.364.783,4.648.786,6.741,0,.205-.276.27-.366.085-.4-.825-.897-1.71-1.141-1.954-.384-.384-.515-1.149-2.691-.384-1.091.383-2.004.191-2.702-.326-1.137-.606-1.911-1.803-1.911-3.182Z" fill="#0c0d0b"/>
      <circle cx="62.371" cy="43.325" r="1.826" fill="#2a4c8c"/>
    </g>
  </g>
</svg>