<?xml version="1.0" encoding="UTF-8"?>
<svg id="Planta" xmlns="http://www.w3.org/2000/svg" width="275.651" height="450" viewBox="0 0 275.651 450">
  <g id="Tallo">
    <g>
      <line x1="137.918" y1="450" x2="137.918" y2="4" fill="#0c0d0b" stroke="#0c0d0b" stroke-miterlimit="10" stroke-width="2.665"/>
      <path d="M215.588,288.66c-4.882-17.552-20.956-29.756-39.055-29.723-17.786.032-33.609,11.874-38.709,29.032-4.882-17.552-20.956-29.756-39.055-29.723-17.786.032-33.609,11.874-38.709,29.032" fill="none" stroke="#0c0d0b" stroke-miterlimit="10" stroke-width="1.417"/>
      <path d="M215.588,159.66c-4.882-17.552-20.956-29.756-39.055-29.723-17.786.032-33.609,11.874-38.709,29.032-4.882-17.552-20.956-29.756-39.055-29.723-17.786.032-33.609,11.874-38.709,29.032" fill="none" stroke="#0c0d0b" stroke-miterlimit="10" stroke-width="1.417"/>
    </g>
  </g>
  <g id="Hojas">
    <path d="M180.556,234.348c-4.908,4.997-11.119,6.398-17.777,4.113-7.413-2.545-12.146-7.748-12.915-15.691-.379-3.908.292-7.922.524-11.885.419-7.142.148-12.823-8.671-17.059h-8.106c-8.819,4.236-9.629,9.916-9.21,17.059.233,3.964.903,7.977.524,11.885-.769,7.943-5.502,13.146-12.916,15.691-6.658,2.285-12.869.884-17.777-4.113-12.25-12.472-7.36-32.609,9.231-38.281,8.962-3.064,18.234-4.064,29.033-3.394h9.794c10.799-.67,20.071.33,29.033,3.394,16.592,5.672,21.482,25.809,9.232,38.281Z" fill="#0c0d0b"/>
    <path d="M181.556,377.348c-4.908,4.997-11.119,6.398-17.777,4.113-7.413-2.545-12.146-7.748-12.915-15.691-.379-3.908.292-7.922.524-11.885.419-7.142.148-12.823-8.671-17.059h-8.106c-8.819,4.236-9.629,9.916-9.21,17.059.233,3.964.903,7.977.524,11.885-.769,7.943-5.502,13.146-12.916,15.691-6.658,2.285-12.869.884-17.777-4.113-12.25-12.472-7.36-32.609,9.231-38.281,8.962-3.064,18.234-4.064,29.033-3.394h9.794c10.799-.67,20.071.33,29.033,3.394,16.592,5.672,21.482,25.809,9.232,38.281Z" fill="#0c0d0b"/>
  </g>
  <g id="Flores">
    <g>
      <path d="M83.832,127.121c-6.435-2.681-8.812,5.373-9.405,8.004-.107.473-.161.955-.164,1.44-.009,2.056-.037,8.612-.033,12.69-.042-.002-.083-.006-.125-.006-1.795,0-3.25,1.455-3.25,3.25,0,1.031.481,1.948,1.23,2.543l-8.21,12.033c-.633.928-1.612,1.026-2.315.81-.704-.217-1.457-.85-1.457-1.974v-4.698c1.497-.291,2.627-1.607,2.627-3.189s-1.13-2.898-2.627-3.189v-8.974c.006-.032.011-.063.017-.095,1.41-8.248,6.055-15.732,9.123-23.405.979-2.425,1.796-4.838,2.467-7.312.346-1.375.808-2.986.788-4.385-.108-3.839-3.419-7.891-6.686-10.196-3.004-2.381-7.036-3.398-10.684-1.418-2.593,1.411-5.083,3.566-6.671,5.869-1.266,1.952-2.263,3.904-2.226,5.851-.008,1.4.471,3.013.823,4.378.69,2.466,1.529,4.877,2.526,7.292,3.13,7.648,7.835,15.093,9.312,23.331.116.588.21,1.176.29,1.765v7.253c-1.344.122-2.45,1.062-2.819,2.318h-15.478c-1.431,0-2.596-1.165-2.596-2.596v-2.257c1.182-.486,2.015-1.648,2.015-3.006,0-1.455-.957-2.687-2.275-3.101,0-5.857-.036-14.309-.048-17.076-.003-.695-.082-1.385-.234-2.062-.85-3.769-4.255-15.307-13.473-11.466-7.113,2.964-6.053,8.331-4.432,11.735.818,1.718,2.154,3.134,3.799,4.088,3.182,1.845,9.589,6.419,12.77,14.697-1.487.299-2.607,1.611-2.607,3.186,0,1.795,1.455,3.25,3.25,3.25.106,0,.211-.006.314-.016v2.028c0,1.939,1.578,3.517,3.517,3.517h15.345c.002,1.692,1.298,3.08,2.952,3.231v4.651c0,.032.003.064.004.096-.478,8.921-1.483,17.795-3.681,26.515-.899,3.179,2.164,6.236,5.355,5.312,2.311-.641,3.666-3.034,3.025-5.346-2.061-7.708-3.006-15.465-3.679-23.353-.028-.343-.049-.686-.075-1.029.321.294.711.522,1.158.66.304.094.611.139.911.139.962,0,1.862-.467,2.437-1.31l8.246-12.085c.378.154.79.24,1.224.24,1.795,0,3.25-1.455,3.25-3.25,0-1.476-.985-2.721-2.333-3.117,2.07-6.385,6.911-9.858,9.251-11.215,1.149-.666,2.081-1.655,2.652-2.854,1.132-2.376,1.871-6.123-3.094-8.192Z" fill="#0c0d0b"/>
      <circle cx="59.479" cy="158.024" r="2.6" fill="#2a4c8c"/>
      <circle cx="59.479" cy="111.871" r="7.8" fill="#2a4c8c"/>
      <circle cx="59.479" cy="193.451" r="2.6" fill="#2a4c8c"/>
    </g>
    <g>
      <path d="M239.832,127.121c-6.435-2.681-8.812,5.373-9.405,8.004-.107.473-.161.955-.164,1.44-.009,2.056-.037,8.612-.033,12.69-.042-.002-.083-.006-.125-.006-1.795,0-3.25,1.455-3.25,3.25,0,1.031.481,1.948,1.23,2.543l-8.21,12.033c-.633.928-1.612,1.026-2.315.81-.704-.217-1.457-.85-1.457-1.974v-4.698c1.497-.291,2.627-1.607,2.627-3.189s-1.13-2.898-2.627-3.189v-8.974c.006-.032.011-.063.017-.095,1.41-8.248,6.055-15.732,9.123-23.405.979-2.425,1.796-4.838,2.467-7.312.346-1.375.808-2.986.788-4.385-.108-3.839-3.419-7.891-6.686-10.196-3.004-2.381-7.036-3.398-10.684-1.418-2.593,1.411-5.083,3.566-6.671,5.869-1.266,1.952-2.263,3.904-2.226,5.851-.008,1.4.471,3.013.823,4.378.69,2.466,1.529,4.877,2.526,7.292,3.13,7.648,7.835,15.093,9.312,23.331.116.588.21,1.176.29,1.765v7.253c-1.344.122-2.45,1.062-2.819,2.318h-15.478c-1.431,0-2.596-1.165-2.596-2.596v-2.257c1.182-.486,2.015-1.648,2.015-3.006,0-1.455-.957-2.687-2.275-3.101,0-5.857-.036-14.309-.048-17.076-.003-.695-.082-1.385-.234-2.062-.85-3.769-4.255-15.307-13.473-11.466-7.113,2.964-6.053,8.331-4.432,11.735.818,1.718,2.154,3.134,3.799,4.088,3.182,1.845,9.589,6.419,12.77,14.697-1.487.299-2.607,1.611-2.607,3.186,0,1.795,1.455,3.25,3.25,3.25.106,0,.211-.006.314-.016v2.028c0,1.939,1.578,3.517,3.517,3.517h15.345c.002,1.692,1.298,3.08,2.952,3.231v4.651c0,.032.003.064.004.096-.478,8.921-1.483,17.795-3.681,26.515-.899,3.179,2.164,6.236,5.355,5.312,2.311-.641,3.666-3.034,3.025-5.346-2.061-7.708-3.006-15.465-3.679-23.353-.028-.343-.049-.686-.075-1.029.321.294.711.522,1.158.66.304.094.611.139.911.139.962,0,1.862-.467,2.437-1.31l8.246-12.085c.378.154.79.24,1.224.24,1.795,0,3.25-1.455,3.25-3.25,0-1.476-.985-2.721-2.333-3.117,2.07-6.385,6.911-9.858,9.251-11.215,1.149-.666,2.081-1.655,2.652-2.854,1.132-2.376,1.871-6.123-3.094-8.192Z" fill="#0c0d0b"/>
      <circle cx="215.479" cy="158.024" r="2.6" fill="#2a4c8c"/>
      <circle cx="215.479" cy="111.871" r="7.8" fill="#2a4c8c"/>
      <circle cx="215.479" cy="193.451" r="2.6" fill="#2a4c8c"/>
    </g>
    <g>
      <path d="M83.832,255.121c-6.435-2.681-8.812,5.373-9.405,8.004-.107.473-.161.955-.164,1.44-.009,2.056-.037,8.612-.033,12.69-.042-.002-.083-.006-.125-.006-1.795,0-3.25,1.455-3.25,3.25,0,1.031.481,1.948,1.23,2.543l-8.21,12.033c-.633.928-1.612,1.026-2.315.81-.704-.217-1.457-.85-1.457-1.974v-4.698c1.497-.291,2.627-1.607,2.627-3.189s-1.13-2.898-2.627-3.189v-8.974c.006-.032.011-.063.017-.095,1.41-8.248,6.055-15.732,9.123-23.405.979-2.425,1.796-4.838,2.467-7.312.346-1.375.808-2.986.788-4.385-.108-3.839-3.419-7.891-6.686-10.196-3.004-2.381-7.036-3.398-10.684-1.418-2.593,1.411-5.083,3.566-6.671,5.869-1.266,1.952-2.263,3.904-2.226,5.851-.008,1.4.471,3.013.823,4.378.69,2.466,1.529,4.877,2.526,7.292,3.13,7.648,7.835,15.093,9.312,23.331.116.588.21,1.176.29,1.765v7.253c-1.344.122-2.45,1.062-2.819,2.318h-15.478c-1.431,0-2.596-1.165-2.596-2.596v-2.257c1.182-.486,2.015-1.648,2.015-3.006,0-1.455-.957-2.687-2.275-3.101,0-5.857-.036-14.309-.048-17.076-.003-.695-.082-1.385-.234-2.062-.85-3.769-4.255-15.307-13.473-11.466-7.113,2.964-6.053,8.331-4.432,11.735.818,1.718,2.154,3.134,3.799,4.088,3.182,1.845,9.589,6.419,12.77,14.697-1.487.299-2.607,1.611-2.607,3.186,0,1.795,1.455,3.25,3.25,3.25.106,0,.211-.006.314-.016v2.028c0,1.939,1.578,3.517,3.517,3.517h15.345c.002,1.692,1.298,3.08,2.952,3.231v4.651c0,.032.003.064.004.096-.478,8.921-1.483,17.795-3.681,26.515-.899,3.179,2.164,6.236,5.355,5.312,2.311-.641,3.666-3.034,3.025-5.346-2.061-7.708-3.006-15.465-3.679-23.353-.028-.343-.049-.686-.075-1.029.321.294.711.522,1.158.66.304.094.611.139.911.139.962,0,1.862-.467,2.437-1.31l8.246-12.085c.378.154.79.24,1.224.24,1.795,0,3.25-1.455,3.25-3.25,0-1.476-.985-2.721-2.333-3.117,2.07-6.385,6.911-9.858,9.251-11.215,1.149-.666,2.081-1.655,2.652-2.854,1.132-2.376,1.871-6.123-3.094-8.192Z" fill="#0c0d0b"/>
      <circle cx="59.479" cy="286.024" r="2.6" fill="#2a4c8c"/>
      <circle cx="59.479" cy="239.871" r="7.8" fill="#2a4c8c"/>
      <circle cx="59.479" cy="321.451" r="2.6" fill="#2a4c8c"/>
    </g>
    <g>
      <path d="M239.832,255.121c-6.435-2.681-8.812,5.373-9.405,8.004-.107.473-.161.955-.164,1.44-.009,2.056-.037,8.612-.033,12.69-.042-.002-.083-.006-.125-.006-1.795,0-3.25,1.455-3.25,3.25,0,1.031.481,1.948,1.23,2.543l-8.21,12.033c-.633.928-1.612,1.026-2.315.81-.704-.217-1.457-.85-1.457-1.974v-4.698c1.497-.291,2.627-1.607,2.627-3.189s-1.13-2.898-2.627-3.189v-8.974c.006-.032.011-.063.017-.095,1.41-8.248,6.055-15.732,9.123-23.405.979-2.425,1.796-4.838,2.467-7.312.346-1.375.808-2.986.788-4.385-.108-3.839-3.419-7.891-6.686-10.196-3.004-2.381-7.036-3.398-10.684-1.418-2.593,1.411-5.083,3.566-6.671,5.869-1.266,1.952-2.263,3.904-2.226,5.851-.008,1.4.471,3.013.823,4.378.69,2.466,1.529,4.877,2.526,7.292,3.13,7.648,7.835,15.093,9.312,23.331.116.588.21,1.176.29,1.765v7.253c-1.344.122-2.45,1.062-2.819,2.318h-15.478c-1.431,0-2.596-1.165-2.596-2.596v-2.257c1.182-.486,2.015-1.648,2.015-3.006,0-1.455-.957-2.687-2.275-3.101,0-5.857-.036-14.309-.048-17.076-.003-.695-.082-1.385-.234-2.062-.85-3.769-4.255-15.307-13.473-11.466-7.113,2.964-6.053,8.331-4.432,11.735.818,1.718,2.154,3.134,3.799,4.088,3.182,1.845,9.589,6.419,12.77,14.697-1.487.299-2.607,1.611-2.607,3.186,0,1.795,1.455,3.25,3.25,3.25.106,0,.211-.006.314-.016v2.028c0,1.939,1.578,3.517,3.517,3.517h15.345c.002,1.692,1.298,3.08,2.952,3.231v4.651c0,.032.003.064.004.096-.478,8.921-1.483,17.795-3.681,26.515-.899,3.179,2.164,6.236,5.355,5.312,2.311-.641,3.666-3.034,3.025-5.346-2.061-7.708-3.006-15.465-3.679-23.353-.028-.343-.049-.686-.075-1.029.321.294.711.522,1.158.66.304.094.611.139.911.139.962,0,1.862-.467,2.437-1.31l8.246-12.085c.378.154.79.24,1.224.24,1.795,0,3.25-1.455,3.25-3.25,0-1.476-.985-2.721-2.333-3.117,2.07-6.385,6.911-9.858,9.251-11.215,1.149-.666,2.081-1.655,2.652-2.854,1.132-2.376,1.871-6.123-3.094-8.192Z" fill="#0c0d0b"/>
      <circle cx="215.479" cy="286.024" r="2.6" fill="#2a4c8c"/>
      <circle cx="215.479" cy="239.871" r="7.8" fill="#2a4c8c"/>
      <circle cx="215.479" cy="321.451" r="2.6" fill="#2a4c8c"/>
    </g>
    <g>
      <g>
        <path d="M158.874,69.64c-5.566-1.903-11.326-2.524-18.033-2.108h-6.083c-6.707-.416-12.466.205-18.033,2.108-10.306,3.523-13.343,16.031-5.734,23.777,3.048,3.104,6.906,3.974,11.042,2.555,4.605-1.581,7.544-4.812,8.022-9.746.235-2.428-.181-4.92-.326-7.382-.26-4.436.243-7.964,5.72-10.595h5.034c5.477,2.631,5.646,6.159,5.386,10.595-.144,2.462-.561,4.955-.326,7.382.478,4.934,3.418,8.165,8.022,9.746,4.135,1.419,7.993.549,11.042-2.555,7.609-7.747,4.572-20.254-5.734-23.777Z" fill="#0c0d0b"/>
        <path d="M137.489,1.897c-27.614,0-50,22.386-50,50,0,6.589,1.287,12.873,3.603,18.634,4.949-12.312,14.654-22.195,26.839-27.384.138,10.859,8.978,19.62,19.869,19.62,10.804,0,19.588-8.622,19.863-19.36,11.897,5.257,21.358,15.019,26.224,27.124,2.316-5.76,3.603-12.045,3.603-18.634,0-27.614-22.386-50-50-50Z" fill="#0c0d0b"/>
      </g>
      <rect x="136.919" y="21.619" width="1.761" height="45.789" fill="#0c0d0b"/>
      <circle cx="137.835" cy="42.889" r="6.832" fill="#2a4c8c"/>
      <circle cx="117.835" cy="85.889" r="6.832" fill="#2a4c8c"/>
    </g>
  </g>
</svg>