<?xml version="1.0" encoding="UTF-8"?>
<svg id="Planta" xmlns="http://www.w3.org/2000/svg" width="275.651" height="450" viewBox="0 0 275.651 450">
  <g id="Tallo">
    <g>
      <line x1="137.826" y1="450" x2="137.826" y2="82" fill="#0c0d0b" stroke="#0c0d0b" stroke-miterlimit="10" stroke-width="2.432"/>
      <path d="M57.655,225v-78.916c0-13.025,10.559-23.584,23.584-23.584h113.173c13.025,0,23.584,10.559,23.584,23.584v78.916" fill="none" stroke="#0c0d0b" stroke-miterlimit="10" stroke-width="1.417"/>
    </g>
  </g>
  <g id="Hojas">
    <path d="M172.529,155.878c-3.926,3.998-8.895,5.118-14.222,3.29-5.931-2.036-9.717-6.198-10.332-12.553-.303-3.127.233-6.337.419-9.508.335-5.714.118-10.258-6.937-13.647h-6.484c-7.055,3.389-7.703,7.933-7.368,13.647.186,3.171.722,6.382.419,9.508-.615,6.355-4.402,10.517-10.332,12.553-5.326,1.828-10.295.707-14.222-3.29-9.8-9.978-5.888-26.087,7.385-30.625,7.17-2.451,14.588-3.251,23.226-2.715h7.835c8.639-.536,16.057.264,23.226,2.715,13.274,4.538,17.185,20.647,7.385,30.625Z" fill="#0c0d0b"/>
    <path d="M236.814,168.623c-2.253,2.294-5.104,2.937-8.161,1.888-3.403-1.168-5.576-3.557-5.929-7.203-.174-1.794.134-3.637.241-5.456.192-3.279.068-5.886-3.981-7.831h-3.721c-4.048,1.945-4.42,4.552-4.228,7.831.107,1.82.414,3.662.241,5.456-.353,3.646-2.526,6.035-5.929,7.203-3.056,1.049-5.908.406-8.161-1.888-5.624-5.726-3.379-14.97,4.238-17.574,4.114-1.406,8.371-1.866,13.328-1.558h4.496c4.957-.307,9.214.152,13.328,1.558,7.617,2.604,9.862,11.848,4.238,17.574Z" fill="#0c0d0b"/>
    <path d="M77.814,168.623c-2.253,2.294-5.104,2.937-8.161,1.888-3.403-1.168-5.576-3.557-5.929-7.203-.174-1.794.134-3.637.241-5.456.192-3.279.068-5.886-3.981-7.831h-3.721c-4.048,1.945-4.42,4.552-4.228,7.831.107,1.82.414,3.662.241,5.456-.353,3.646-2.526,6.035-5.929,7.203-3.056,1.049-5.908.406-8.161-1.888-5.624-5.726-3.379-14.97,4.238-17.574,4.114-1.406,8.371-1.866,13.328-1.558h4.496c4.957-.307,9.214.152,13.328,1.558,7.617,2.604,9.862,11.848,4.238,17.574Z" fill="#0c0d0b"/>
    <path d="M171.529,246.518c-3.926,3.998-8.895,5.118-14.222,3.29-5.931-2.036-9.717-6.198-10.332-12.553-.303-3.127.233-6.337.419-9.508.335-5.714.118-10.258-6.937-13.647h-6.484c-7.055,3.389-7.703,7.933-7.368,13.647.186,3.171.722,6.382.419,9.508-.615,6.355-4.402,10.517-10.332,12.553-5.326,1.828-10.295.707-14.222-3.29-9.8-9.978-5.888-26.087,7.385-30.625,7.17-2.451,14.588-3.251,23.226-2.715h7.835c8.639-.536,16.057.264,23.226,2.715,13.274,4.538,17.185,20.647,7.385,30.625Z" fill="#0c0d0b"/>
    <path d="M171.529,337.158c-3.926,3.998-8.895,5.118-14.222,3.29-5.931-2.036-9.717-6.198-10.332-12.553-.303-3.127.233-6.337.419-9.508.335-5.714.118-10.258-6.937-13.647h-6.484c-7.055,3.389-7.703,7.933-7.368,13.647.186,3.171.722,6.382.419,9.508-.615,6.355-4.402,10.517-10.332,12.553-5.326,1.828-10.295.707-14.222-3.29-9.8-9.978-5.888-26.087,7.385-30.625,7.17-2.451,14.588-3.251,23.226-2.715h7.835c8.639-.536,16.057.264,23.226,2.715,13.274,4.538,17.185,20.647,7.385,30.625Z" fill="#0c0d0b"/>
  </g>
  <g id="Flores">
    <g>
      <path d="M138.249,54.633c-.325.029-.359.059-.338.088l.012.088.023.176c.472,3.633.967,7.275,1.543,10.894,0,0,.898,5.623.898,5.623.663,3.803.919,7.688,2.598,11.246.893,1.806,2.355,3.717,2.885,5.623.339,1.428.439,2.919-.379,4.217-1.302,1.751-3.874,2.866-5.586,4.217-.743.627-2.531,1.935-1.655,2.811.744.724-.309,1.874-1.098,1.16-.32-.303-.334-.809-.031-1.129.258-.232.306-.487.257-.734-.315-.885-1.068-1.433-1.881-2.109-1.249-.937-2.891-1.874-4.159-2.811-1.045-.79-1.823-1.624-1.96-2.811-.558-2.834,1.32-5.358,2.67-7.731,1.143-1.981,1.609-4.154,2.061-6.326,1.17-7.124,2.389-14.634,3.3-21.788,0,0,.046-.351.046-.351l.023-.176s.012-.088.012-.088c.021-.029-.012-.059-.338-.088.007-.701,1.084-.738,1.098,0h0Z" fill="#0c0d0b"/>
      <path d="M159.975,42.955c-3.615,0-6.579,2.773-6.889,6.307h-38.185c-.804,0-1.457-.654-1.457-1.457v-10.512c2.577-.304,4.577-2.492,4.577-5.151,0-2.867-2.324-5.19-5.19-5.19s-5.19,2.324-5.19,5.19c0,2.659,2,4.847,4.577,5.151v10.512c0,1.48,1.204,2.684,2.684,2.684h38.185c.311,3.534,3.274,6.307,6.889,6.307,3.822,0,6.92-3.098,6.92-6.92s-3.098-6.92-6.92-6.92Z" fill="#0c0d0b"/>
      <circle cx="137.916" cy="49.443" r="8.218" fill="#0c0d0b"/>
      <circle cx="137.7" cy="49.875" r="3.46" fill="#2a4c8c"/>
      <path d="M175.978,17.22c0-8.958-7.262-16.22-16.22-16.22-.695,0-1.378.049-2.051.134-7.004.223-13.973,4.081-17.846,11.678-5.093,10.64-3.523,20.919-3.538,30.337-.002.923,1.244,1.213,1.647.383,1.801-3.711,4.037-7.697,5.135-8.795,1.73-1.73,2.317-5.172,12.111-1.73,4.908,1.725,9.019.86,12.159-1.466,5.118-2.728,8.602-8.116,8.602-14.32Z" fill="#0c0d0b"/>
      <circle cx="161.272" cy="16.138" r="8.218" fill="#2a4c8c"/>
    </g>
    <g>
      <path d="M59.249,232.633c-.325.029-.359.059-.338.088l.012.088.023.176c.472,3.633.967,7.275,1.543,10.894,0,0,.898,5.623.898,5.623.663,3.803.919,7.688,2.598,11.246.893,1.806,2.355,3.717,2.885,5.623.339,1.428.439,2.919-.379,4.217-1.302,1.751-3.874,2.866-5.586,4.217-.743.627-2.531,1.935-1.655,2.811.744.724-.309,1.874-1.098,1.16-.32-.303-.334-.809-.031-1.129.258-.232.306-.487.257-.734-.315-.885-1.068-1.433-1.881-2.109-1.249-.937-2.891-1.874-4.159-2.811-1.045-.79-1.823-1.624-1.96-2.811-.558-2.834,1.32-5.358,2.67-7.731,1.143-1.981,1.609-4.154,2.061-6.326,1.17-7.124,2.389-14.634,3.3-21.788,0,0,.046-.351.046-.351l.023-.176s.012-.088.012-.088c.021-.029-.012-.059-.338-.088.007-.701,1.084-.738,1.098,0h0Z" fill="#0c0d0b"/>
      <path d="M80.975,220.955c-3.615,0-6.579,2.773-6.889,6.307h-38.185c-.804,0-1.457-.654-1.457-1.457v-10.512c2.577-.304,4.577-2.492,4.577-5.151,0-2.867-2.324-5.19-5.19-5.19s-5.19,2.324-5.19,5.19c0,2.659,2,4.847,4.577,5.151v10.512c0,1.48,1.204,2.684,2.684,2.684h38.185c.311,3.534,3.274,6.307,6.889,6.307,3.822,0,6.92-3.098,6.92-6.92s-3.098-6.92-6.92-6.92Z" fill="#0c0d0b"/>
      <circle cx="58.916" cy="227.443" r="8.218" fill="#0c0d0b"/>
      <circle cx="58.7" cy="227.875" r="3.46" fill="#2a4c8c"/>
      <path d="M96.978,195.22c0-8.958-7.262-16.22-16.22-16.22-.695,0-1.378.049-2.051.134-7.004.223-13.973,4.081-17.846,11.678-5.093,10.64-3.523,20.919-3.538,30.337-.002.923,1.244,1.213,1.647.383,1.801-3.711,4.037-7.697,5.135-8.795,1.73-1.73,2.317-5.172,12.111-1.73,4.908,1.725,9.019.86,12.159-1.466,5.118-2.728,8.602-8.116,8.602-14.32Z" fill="#0c0d0b"/>
      <circle cx="82.272" cy="194.138" r="8.218" fill="#2a4c8c"/>
    </g>
    <g>
      <path d="M215.368,234.633c.325.029.359.059.338.088l-.012.088-.023.176c-.472,3.633-.967,7.275-1.543,10.894,0,0-.898,5.623-.898,5.623-.663,3.803-.919,7.688-2.598,11.246-.893,1.806-2.355,3.717-2.885,5.623-.339,1.428-.439,2.919.379,4.217,1.302,1.751,3.874,2.866,5.586,4.217.743.627,2.531,1.935,1.655,2.811-.744.724.309,1.874,1.098,1.16.32-.303.334-.809.031-1.129-.258-.232-.306-.487-.257-.734.315-.885,1.068-1.433,1.881-2.109,1.249-.937,2.891-1.874,4.159-2.811,1.045-.79,1.823-1.624,1.96-2.811.558-2.834-1.32-5.358-2.67-7.731-1.143-1.981-1.609-4.154-2.061-6.326-1.17-7.124-2.389-14.634-3.3-21.788,0,0-.046-.351-.046-.351l-.023-.176s-.012-.088-.012-.088c-.021-.029.012-.059.338-.088-.007-.701-1.084-.738-1.098,0h0Z" fill="#0c0d0b"/>
      <path d="M193.643,222.955c3.615,0,6.579,2.773,6.889,6.307h38.185c.804,0,1.457-.654,1.457-1.457v-10.512c-2.577-.304-4.577-2.492-4.577-5.151,0-2.867,2.324-5.19,5.19-5.19s5.19,2.324,5.19,5.19c0,2.659-2,4.847-4.577,5.151v10.512c0,1.48-1.204,2.684-2.684,2.684h-38.185c-.311,3.534-3.274,6.307-6.889,6.307-3.822,0-6.92-3.098-6.92-6.92s3.098-6.92,6.92-6.92Z" fill="#0c0d0b"/>
      <circle cx="215.701" cy="229.443" r="8.218" fill="#0c0d0b"/>
      <circle cx="215.918" cy="229.875" r="3.46" fill="#2a4c8c"/>
      <path d="M177.639,197.22c0-8.958,7.262-16.22,16.22-16.22.695,0,1.378.049,2.051.134,7.004.223,13.973,4.081,17.846,11.678,5.093,10.64,3.523,20.919,3.538,30.337.002.923-1.244,1.213-1.647.383-1.801-3.711-4.037-7.697-5.135-8.795-1.73-1.73-2.317-5.172-12.111-1.73-4.908,1.725-9.019.86-12.159-1.466-5.118-2.728-8.602-8.116-8.602-14.32Z" fill="#0c0d0b"/>
      <circle cx="192.345" cy="196.138" r="8.218" fill="#2a4c8c"/>
    </g>
  </g>
</svg>