<?xml version="1.0" encoding="UTF-8"?>
<svg id="Planta" xmlns="http://www.w3.org/2000/svg" width="100" height="100" viewBox="0 0 100 100">
  <g id="Tallo">
    <g>
      <line x1="50.028" y1="100.733" x2="50.028" y2="18.963" fill="#0c0d0b" stroke="#0c0d0b" stroke-miterlimit="10" stroke-width=".54"/>
      <path d="M32.214,50.738v-17.535c0-2.894,2.346-5.24,5.24-5.24h25.147c2.894,0,5.24,2.346,5.24,5.24v17.535" fill="none" stroke="#0c0d0b" stroke-miterlimit="10" stroke-width=".315"/>
    </g>
  </g>
  <g id="Hojas">
    <path d="M58.302,38.042c-2.147-.08-7.913-6.049-7.913-6.049h-.206v3.175h-.002v.049h-.437s-5.766,5.969-7.913,6.049c-2.147.08-3.857-2.903-2.227-4.811s3.299-1.909,3.299-1.909h6.969v-3.226h.312s.206.001.206.001h6.841s1.668,0,3.299,1.909c1.63,1.909-.08,4.891-2.227,4.811Z" fill="#0c0d0b"/>
    <path d="M58.302,63.151c-2.147-.08-7.913-6.049-7.913-6.049h-.206v3.175h-.002v.049h-.437s-5.766,5.969-7.913,6.049c-2.147.08-3.857-2.903-2.227-4.811s3.299-1.909,3.299-1.909h6.969v-3.226h.312s.206.001.206.001h6.841s1.668,0,3.299,1.909c1.63,1.909-.08,4.891-2.227,4.811Z" fill="#0c0d0b"/>
    <path d="M58.302,86.704c-2.147-.08-7.913-6.049-7.913-6.049h-.206v3.175h-.002v.049h-.437s-5.766,5.969-7.913,6.049c-2.147.08-3.857-2.903-2.227-4.811s3.299-1.909,3.299-1.909h6.969v-3.226h.312s.206.001.206.001h6.841s1.668,0,3.299,1.909c1.63,1.909-.08,4.891-2.227,4.811Z" fill="#0c0d0b"/>
    <path d="M40.526,48.486c-2.147-.08-7.913-6.049-7.913-6.049h-.206v3.175h-.002v.049h-.437s-5.766,5.969-7.913,6.049c-2.147.08-3.857-2.903-2.227-4.811s3.299-1.909,3.299-1.909h6.969v-3.226h.312s.206.001.206.001h6.841s1.668,0,3.299,1.909c1.63,1.909-.08,4.891-2.227,4.811Z" fill="#0c0d0b"/>
    <path d="M76.078,48.486c-2.147-.08-7.913-6.049-7.913-6.049h-.206v3.175h-.002v.049h-.437s-5.766,5.969-7.913,6.049c-2.147.08-3.857-2.903-2.227-4.811s3.299-1.909,3.299-1.909h6.969v-3.226h.312s.206.001.206.001h6.841s1.668,0,3.299,1.909c1.63,1.909-.08,4.891-2.227,4.811Z" fill="#0c0d0b"/>
  </g>
  <g id="Flores">
    <g>
      <path d="M55.496,7.435c-1.43-.596-1.958,1.194-2.09,1.779-.024.105-.036.212-.036.32-.002.457-.008,1.914-.007,2.82-.009,0-.018-.001-.028-.001-.399,0-.722.323-.722.722,0,.229.107.433.273.565l-1.824,2.674c-.141.206-.358.228-.514.18-.156-.048-.324-.189-.324-.439v-1.044c.333-.065.584-.357.584-.709s-.251-.644-.584-.709v-1.994c.001-.007.002-.014.004-.021.313-1.833,1.345-3.496,2.027-5.201.217-.539.399-1.075.548-1.625.077-.306.18-.664.175-.974-.024-.853-.76-1.753-1.486-2.266-.667-.529-1.563-.755-2.374-.315-.576.313-1.13.792-1.482,1.304-.281.434-.503.867-.495,1.3-.002.311.105.67.183.973.153.548.34,1.084.561,1.62.696,1.699,1.741,3.354,2.069,5.184.026.131.047.261.064.392v1.612c-.299.027-.544.236-.626.515h-3.439c-.318,0-.577-.259-.577-.577v-.501c.263-.108.448-.366.448-.668,0-.323-.213-.597-.506-.689,0-1.301-.008-3.18-.011-3.794,0-.154-.018-.308-.052-.458-.189-.837-.945-3.401-2.994-2.548-1.58.659-1.345,1.851-.985,2.607.182.382.479.696.844.908.707.41,2.131,1.426,2.837,3.266-.33.066-.579.358-.579.708,0,.399.323.722.722.722.024,0,.047-.001.07-.004v.451c0,.431.351.782.782.782h3.41c0,.376.288.684.656.718v1.034c0,.007,0,.014,0,.021-.106,1.982-.33,3.954-.818,5.892-.2.706.481,1.386,1.19,1.18.514-.142.814-.674.672-1.188-.458-1.713-.668-3.436-.818-5.189-.006-.076-.011-.152-.017-.229.071.065.158.116.257.147.068.021.136.031.202.031.214,0,.414-.104.542-.291l1.832-2.685c.084.034.176.053.272.053.399,0,.722-.323.722-.722,0-.328-.219-.605-.518-.693.46-1.419,1.536-2.191,2.056-2.492.255-.148.462-.368.589-.634.251-.528.416-1.361-.687-1.82Z" fill="#0c0d0b"/>
      <circle cx="50.085" cy="14.302" r=".578" fill="#2a4c8c"/>
      <circle cx="50.085" cy="4.047" r="1.733" fill="#2a4c8c"/>
      <circle cx="50.085" cy="22.174" r=".578" fill="#2a4c8c"/>
    </g>
    <g>
      <path d="M38.165,55.653c-1.43-.596-1.958,1.194-2.09,1.779-.024.105-.036.212-.036.32-.002.457-.008,1.914-.007,2.82-.009,0-.018-.001-.028-.001-.399,0-.722.323-.722.722,0,.229.107.433.273.565l-1.824,2.674c-.141.206-.358.228-.514.18-.156-.048-.324-.189-.324-.439v-1.044c.333-.065.584-.357.584-.709s-.251-.644-.584-.709v-1.994c.001-.007.002-.014.004-.021.313-1.833,1.345-3.496,2.027-5.201.217-.539.399-1.075.548-1.625.077-.306.18-.664.175-.974-.024-.853-.76-1.753-1.486-2.266-.667-.529-1.563-.755-2.374-.315-.576.313-1.13.792-1.482,1.304-.281.434-.503.867-.495,1.3-.002.311.105.67.183.973.153.548.34,1.084.561,1.62.696,1.699,1.741,3.354,2.069,5.184.026.131.047.261.064.392v1.612c-.299.027-.544.236-.626.515h-3.439c-.318,0-.577-.259-.577-.577v-.501c.263-.108.448-.366.448-.668,0-.323-.213-.597-.506-.689,0-1.301-.008-3.18-.011-3.794,0-.154-.018-.308-.052-.458-.189-.837-.945-3.401-2.994-2.548-1.58.659-1.345,1.851-.985,2.607.182.382.479.696.844.908.707.41,2.131,1.426,2.837,3.266-.33.066-.579.358-.579.708,0,.399.323.722.722.722.024,0,.047-.001.07-.004v.451c0,.431.351.782.782.782h3.41c0,.376.288.684.656.718v1.034c0,.007,0,.014,0,.021-.106,1.982-.33,3.954-.818,5.892-.2.706.481,1.386,1.19,1.18.514-.142.814-.674.672-1.188-.458-1.713-.668-3.436-.818-5.189-.006-.076-.011-.152-.017-.229.071.065.158.116.257.147.068.021.136.031.202.031.214,0,.414-.104.542-.291l1.832-2.685c.084.034.176.053.272.053.399,0,.722-.323.722-.722,0-.328-.219-.605-.518-.693.46-1.419,1.536-2.191,2.056-2.492.255-.148.462-.368.589-.634.251-.528.416-1.361-.687-1.82Z" fill="#0c0d0b"/>
      <circle cx="32.753" cy="62.52" r=".578" fill="#2a4c8c"/>
      <circle cx="32.753" cy="52.264" r="1.733" fill="#2a4c8c"/>
      <circle cx="32.753" cy="70.391" r=".578" fill="#2a4c8c"/>
    </g>
    <g>
      <path d="M73.494,55.653c-1.43-.596-1.958,1.194-2.09,1.779-.024.105-.036.212-.036.32-.002.457-.008,1.914-.007,2.82-.009,0-.018-.001-.028-.001-.399,0-.722.323-.722.722,0,.229.107.433.273.565l-1.824,2.674c-.141.206-.358.228-.514.18-.156-.048-.324-.189-.324-.439v-1.044c.333-.065.584-.357.584-.709s-.251-.644-.584-.709v-1.994c.001-.007.002-.014.004-.021.313-1.833,1.345-3.496,2.027-5.201.217-.539.399-1.075.548-1.625.077-.306.18-.664.175-.974-.024-.853-.76-1.753-1.486-2.266-.667-.529-1.563-.755-2.374-.315-.576.313-1.13.792-1.482,1.304-.281.434-.503.867-.495,1.3-.002.311.105.67.183.973.153.548.34,1.084.561,1.62.696,1.699,1.741,3.354,2.069,5.184.026.131.047.261.064.392v1.612c-.299.027-.544.236-.626.515h-3.439c-.318,0-.577-.259-.577-.577v-.501c.263-.108.448-.366.448-.668,0-.323-.213-.597-.506-.689,0-1.301-.008-3.18-.011-3.794,0-.154-.018-.308-.052-.458-.189-.837-.945-3.401-2.994-2.548-1.58.659-1.345,1.851-.985,2.607.182.382.479.696.844.908.707.41,2.131,1.426,2.837,3.266-.33.066-.579.358-.579.708,0,.399.323.722.722.722.024,0,.047-.001.07-.004v.451c0,.431.351.782.782.782h3.41c0,.376.288.684.656.718v1.034c0,.007,0,.014,0,.021-.106,1.982-.33,3.954-.818,5.892-.2.706.481,1.386,1.19,1.18.514-.142.814-.674.672-1.188-.458-1.713-.668-3.436-.818-5.189-.006-.076-.011-.152-.017-.229.071.065.158.116.257.147.068.021.136.031.202.031.214,0,.414-.104.542-.291l1.832-2.685c.084.034.176.053.272.053.399,0,.722-.323.722-.722,0-.328-.219-.605-.518-.693.46-1.419,1.536-2.191,2.056-2.492.255-.148.462-.368.589-.634.251-.528.416-1.361-.687-1.82Z" fill="#0c0d0b"/>
      <circle cx="68.083" cy="62.52" r=".578" fill="#2a4c8c"/>
      <circle cx="68.083" cy="52.264" r="1.733" fill="#2a4c8c"/>
      <circle cx="68.083" cy="70.391" r=".578" fill="#2a4c8c"/>
    </g>
  </g>
</svg>