<?xml version="1.0" encoding="UTF-8"?>
<svg id="Planta" xmlns="http://www.w3.org/2000/svg" width="100" height="100" viewBox="0 0 100 100">
  <g id="Tallo">
    <g>
      <line x1="49.751" y1="100.733" x2="49.751" y2=".743" fill="#0c0d0b" stroke="#0c0d0b" stroke-miterlimit="10" stroke-width=".598"/>
      <path d="M67.004,63.883c-1.085-3.9-4.656-6.612-8.678-6.605-3.952.007-7.468,2.639-8.601,6.451-1.085-3.9-4.656-6.612-8.678-6.605-3.952.007-7.468,2.639-8.601,6.451" fill="none" stroke="#0c0d0b" stroke-miterlimit="10" stroke-width=".315"/>
      <path d="M67.004,35.219c-1.085-3.9-4.656-6.612-8.678-6.605-3.952.007-7.468,2.639-8.601,6.451-1.085-3.9-4.656-6.612-8.678-6.605-3.952.007-7.468,2.639-8.601,6.451" fill="none" stroke="#0c0d0b" stroke-miterlimit="10" stroke-width=".315"/>
    </g>
  </g>
  <g id="Hojas">
    <path d="M57.942,49.485c-2.147-.08-7.913-6.049-7.913-6.049h-.206v3.175h-.002v.049h-.437s-5.766,5.969-7.913,6.049c-2.147.08-3.857-2.903-2.227-4.811s3.299-1.909,3.299-1.909h6.969v-3.226h.312s.206.001.206.001h6.841s1.668,0,3.299,1.909c1.63,1.909-.08,4.891-2.227,4.811Z" fill="#0c0d0b"/>
  </g>
  <g id="Flores">
    <g>
      <path d="M32.302,35.88c.072.007.08.013.075.02l-.003.02-.005.039c-.105.807-.215,1.617-.343,2.421,0,0-.199,1.249-.199,1.249-.147.845-.204,1.708-.577,2.499-.198.401-.523.826-.641,1.249-.075.317-.098.649.084.937.289.389.861.637,1.241.937.165.139.562.43.368.625-.165.161.069.416.244.258.071-.067.074-.18.007-.251-.057-.051-.068-.108-.057-.163.07-.197.237-.318.418-.469.278-.208.642-.416.924-.625.232-.176.405-.361.435-.625.124-.63-.293-1.191-.593-1.718-.254-.44-.357-.923-.458-1.406-.26-1.583-.531-3.252-.733-4.841,0,0-.01-.078-.01-.078l-.005-.039s-.003-.02-.003-.02c-.005-.007.003-.013.075-.02-.002-.156-.241-.164-.244,0h0Z" fill="#0c0d0b"/>
      <path d="M27.475,33.285c.803,0,1.462.616,1.531,1.401h8.485c.179,0,.324-.145.324-.324v-2.336c-.573-.068-1.017-.554-1.017-1.145,0-.637.516-1.153,1.153-1.153s1.153.516,1.153,1.153c0,.591-.444,1.077-1.017,1.145v2.336c0,.329-.267.596-.596.596h-8.485c-.069.785-.728,1.401-1.531,1.401-.849,0-1.538-.688-1.538-1.538s.688-1.538,1.538-1.538Z" fill="#0c0d0b"/>
      <circle cx="32.376" cy="34.726" r="1.826" fill="#0c0d0b"/>
      <circle cx="32.424" cy="34.823" r=".769" fill="#2a4c8c"/>
      <path d="M23.919,27.566c0-1.99,1.614-3.604,3.604-3.604.154,0,.306.011.456.03,1.556.049,3.105.907,3.965,2.595,1.132,2.364.783,4.648.786,6.741,0,.205-.276.27-.366.085-.4-.825-.897-1.71-1.141-1.954-.384-.384-.515-1.149-2.691-.384-1.091.383-2.004.191-2.702-.326-1.137-.606-1.911-1.803-1.911-3.182Z" fill="#0c0d0b"/>
      <circle cx="27.186" cy="27.326" r="1.826" fill="#2a4c8c"/>
    </g>
    <g>
      <path d="M32.302,66.099c.072.007.08.013.075.02l-.003.02-.005.039c-.105.807-.215,1.617-.343,2.421,0,0-.199,1.249-.199,1.249-.147.845-.204,1.708-.577,2.499-.198.401-.523.826-.641,1.249-.075.317-.098.649.084.937.289.389.861.637,1.241.937.165.139.562.43.368.625-.165.161.069.416.244.258.071-.067.074-.18.007-.251-.057-.051-.068-.108-.057-.163.07-.197.237-.318.418-.469.278-.208.642-.416.924-.625.232-.176.405-.361.435-.625.124-.63-.293-1.191-.593-1.718-.254-.44-.357-.923-.458-1.406-.26-1.583-.531-3.252-.733-4.841,0,0-.01-.078-.01-.078l-.005-.039s-.003-.02-.003-.02c-.005-.007.003-.013.075-.02-.002-.156-.241-.164-.244,0h0Z" fill="#0c0d0b"/>
      <path d="M27.475,63.504c.803,0,1.462.616,1.531,1.401h8.485c.179,0,.324-.145.324-.324v-2.336c-.573-.068-1.017-.554-1.017-1.145,0-.637.516-1.153,1.153-1.153s1.153.516,1.153,1.153c0,.591-.444,1.077-1.017,1.145v2.336c0,.329-.267.596-.596.596h-8.485c-.069.785-.728,1.401-1.531,1.401-.849,0-1.538-.688-1.538-1.538s.688-1.538,1.538-1.538Z" fill="#0c0d0b"/>
      <circle cx="32.376" cy="64.946" r="1.826" fill="#0c0d0b"/>
      <circle cx="32.424" cy="65.042" r=".769" fill="#2a4c8c"/>
      <path d="M23.919,57.786c0-1.99,1.614-3.604,3.604-3.604.154,0,.306.011.456.03,1.556.049,3.105.907,3.965,2.595,1.132,2.364.783,4.648.786,6.741,0,.205-.276.27-.366.085-.4-.825-.897-1.71-1.141-1.954-.384-.384-.515-1.149-2.691-.384-1.091.383-2.004.191-2.702-.326-1.137-.606-1.911-1.803-1.911-3.182Z" fill="#0c0d0b"/>
      <circle cx="27.186" cy="57.545" r="1.826" fill="#2a4c8c"/>
    </g>
    <g>
      <path d="M67.383,35.88c-.072.007-.08.013-.075.02l.003.02.005.039c.105.807.215,1.617.343,2.421,0,0,.199,1.249.199,1.249.147.845.204,1.708.577,2.499.198.401.523.826.641,1.249.075.317.098.649-.084.937-.289.389-.861.637-1.241.937-.165.139-.562.43-.368.625.165.161-.069.416-.244.258-.071-.067-.074-.18-.007-.251.057-.051.068-.108.057-.163-.07-.197-.237-.318-.418-.469-.278-.208-.642-.416-.924-.625-.232-.176-.405-.361-.435-.625-.124-.63.293-1.191.593-1.718.254-.44.357-.923.458-1.406.26-1.583.531-3.252.733-4.841,0,0,.01-.078.01-.078l.005-.039s.003-.02.003-.02c.005-.007-.003-.013-.075-.02.002-.156.241-.164.244,0h0Z" fill="#0c0d0b"/>
      <path d="M72.21,33.285c-.803,0-1.462.616-1.531,1.401h-8.485c-.179,0-.324-.145-.324-.324v-2.336c.573-.068,1.017-.554,1.017-1.145,0-.637-.516-1.153-1.153-1.153s-1.153.516-1.153,1.153c0,.591.444,1.077,1.017,1.145v2.336c0,.329.267.596.596.596h8.485c.069.785.728,1.401,1.531,1.401.849,0,1.538-.688,1.538-1.538s-.688-1.538-1.538-1.538Z" fill="#0c0d0b"/>
      <circle cx="67.309" cy="34.726" r="1.826" fill="#0c0d0b"/>
      <circle cx="67.261" cy="34.823" r=".769" fill="#2a4c8c"/>
      <path d="M75.766,27.566c0-1.99-1.614-3.604-3.604-3.604-.154,0-.306.011-.456.03-1.556.049-3.105.907-3.965,2.595-1.132,2.364-.783,4.648-.786,6.741,0,.205.276.27.366.085.4-.825.897-1.71,1.141-1.954.384-.384.515-1.149,2.691-.384,1.091.383,2.004.191,2.702-.326,1.137-.606,1.911-1.803,1.911-3.182Z" fill="#0c0d0b"/>
      <path d="M74.325,27.326c0,1.008-.818,1.826-1.826,1.826s-1.826-.818-1.826-1.826.818-1.826,1.826-1.826,1.826.818,1.826,1.826Z" fill="#2a4c8c"/>
    </g>
    <g>
      <path d="M67.383,66.099c-.072.007-.08.013-.075.02l.003.02.005.039c.105.807.215,1.617.343,2.421,0,0,.199,1.249.199,1.249.147.845.204,1.708.577,2.499.198.401.523.826.641,1.249.075.317.098.649-.084.937-.289.389-.861.637-1.241.937-.165.139-.562.43-.368.625.165.161-.069.416-.244.258-.071-.067-.074-.18-.007-.251.057-.051.068-.108.057-.163-.07-.197-.237-.318-.418-.469-.278-.208-.642-.416-.924-.625-.232-.176-.405-.361-.435-.625-.124-.63.293-1.191.593-1.718.254-.44.357-.923.458-1.406.26-1.583.531-3.252.733-4.841,0,0,.01-.078.01-.078l.005-.039s.003-.02.003-.02c.005-.007-.003-.013-.075-.02.002-.156.241-.164.244,0h0Z" fill="#0c0d0b"/>
      <path d="M72.21,63.504c-.803,0-1.462.616-1.531,1.401h-8.485c-.179,0-.324-.145-.324-.324v-2.336c.573-.068,1.017-.554,1.017-1.145,0-.637-.516-1.153-1.153-1.153s-1.153.516-1.153,1.153c0,.591.444,1.077,1.017,1.145v2.336c0,.329.267.596.596.596h8.485c.069.785.728,1.401,1.531,1.401.849,0,1.538-.688,1.538-1.538s-.688-1.538-1.538-1.538Z" fill="#0c0d0b"/>
      <circle cx="67.309" cy="64.946" r="1.826" fill="#0c0d0b"/>
      <circle cx="67.261" cy="65.042" r=".769" fill="#2a4c8c"/>
      <path d="M75.766,57.786c0-1.99-1.614-3.604-3.604-3.604-.154,0-.306.011-.456.03-1.556.049-3.105.907-3.965,2.595-1.132,2.364-.783,4.648-.786,6.741,0,.205.276.27.366.085.4-.825.897-1.71,1.141-1.954.384-.384.515-1.149,2.691-.384,1.091.383,2.004.191,2.702-.326,1.137-.606,1.911-1.803,1.911-3.182Z" fill="#0c0d0b"/>
      <circle cx="72.499" cy="57.545" r="1.826" fill="#2a4c8c"/>
    </g>
    <g>
      <g>
        <path d="M54.402,15.217c-1.237-.423-2.517-.561-4.007-.468h-1.352c-1.49-.092-2.77.046-4.007.468-2.29.783-2.965,3.562-1.274,5.283.677.69,1.535.883,2.453.568,1.023-.351,1.676-1.069,1.783-2.166.052-.539-.04-1.093-.072-1.64-.058-.986.054-1.77,1.271-2.354h1.119c1.217.585,1.255,1.369,1.197,2.354-.032.547-.125,1.101-.072,1.64.106,1.096.759,1.814,1.782,2.166.919.315,1.776.122,2.453-.568,1.691-1.721,1.016-4.5-1.274-5.283Z" fill="#0c0d0b"/>
        <path d="M49.65.164c-6.136,0-11.11,4.974-11.11,11.11,0,1.464.286,2.86.8,4.14,1.1-2.736,3.256-4.932,5.964-6.085.031,2.413,1.995,4.36,4.415,4.36,2.401,0,4.353-1.916,4.413-4.302,2.644,1.168,4.746,3.337,5.827,6.027.515-1.28.8-2.676.8-4.14C60.76,5.138,55.786.164,49.65.164Z" fill="#0c0d0b"/>
      </g>
      <rect x="49.523" y="4.546" width=".391" height="10.174" fill="#0c0d0b"/>
      <circle cx="49.727" cy="9.273" r="1.518" fill="#2a4c8c"/>
    </g>
  </g>
</svg>