<?xml version="1.0" encoding="UTF-8"?>
<svg id="Planta" xmlns="http://www.w3.org/2000/svg" width="275.651" height="450" viewBox="0 0 275.651 450">
  <g id="Tallo">
    <g>
      <line x1="138.174" y1="450" x2="138.174" y2="82" fill="#0c0d0b" stroke="#0c0d0b" stroke-miterlimit="10" stroke-width="2.432"/>
      <path d="M58.004,225v-78.916c0-13.025,10.559-23.584,23.584-23.584h113.173c13.025,0,23.584,10.559,23.584,23.584v78.916" fill="none" stroke="#0c0d0b" stroke-miterlimit="10" stroke-width="1.417"/>
    </g>
  </g>
  <g id="Hojas">
    <path d="M175.413,167.865c-9.663-.358-35.611-27.223-35.611-27.223h-.928v14.29h-.011v.221h-1.968s-25.948,26.865-35.611,27.223c-9.663.358-17.358-13.063-10.021-21.653s14.845-8.59,14.845-8.59h31.362v-14.518h1.403v.006h31.715s7.508,0,14.845,8.59c7.337,8.59-.358,22.011-10.021,21.653Z" fill="#0c0d0b"/>
    <path d="M175.413,280.865c-9.663-.358-35.611-27.223-35.611-27.223h-.928v14.29h-.011v.221h-1.968s-25.948,26.865-35.611,27.223c-9.663.358-17.358-13.063-10.021-21.653s14.845-8.59,14.845-8.59h31.362v-14.518h1.403v.006h31.715s7.508,0,14.845,8.59c7.337,8.59-.358,22.011-10.021,21.653Z" fill="#0c0d0b"/>
    <path d="M175.413,386.865c-9.663-.358-35.611-27.223-35.611-27.223h-.928v14.29h-.011v.221h-1.968s-25.948,26.865-35.611,27.223c-9.663.358-17.358-13.063-10.021-21.653s14.845-8.59,14.845-8.59h31.362v-14.518h1.403v.006h31.715s7.508,0,14.845,8.59c7.337,8.59-.358,22.011-10.021,21.653Z" fill="#0c0d0b"/>
    <path d="M95.413,214.865c-9.663-.358-35.611-27.223-35.611-27.223h-.928v14.29h-.011v.221h-1.968s-25.948,26.865-35.611,27.223c-9.663.358-17.358-13.063-10.021-21.653s14.845-8.59,14.845-8.59h31.362v-14.518h1.403v.006h31.715s7.508,0,14.845,8.59c7.337,8.59-.358,22.011-10.021,21.653Z" fill="#0c0d0b"/>
    <path d="M255.413,214.865c-9.663-.358-35.611-27.223-35.611-27.223h-.928v14.29h-.011v.221h-1.968s-25.948,26.865-35.611,27.223c-9.663.358-17.358-13.063-10.021-21.653s14.845-8.59,14.845-8.59h31.362v-14.518h1.403v.006h31.715s7.508,0,14.845,8.59c7.337,8.59-.358,22.011-10.021,21.653Z" fill="#0c0d0b"/>
  </g>
  <g id="Flores">
    <g>
      <path d="M162.786,30.121c-6.435-2.681-8.812,5.373-9.405,8.004-.107.473-.161.955-.164,1.44-.009,2.056-.037,8.612-.033,12.69-.042-.002-.083-.006-.125-.006-1.795,0-3.25,1.455-3.25,3.25,0,1.031.481,1.948,1.23,2.543l-8.21,12.033c-.633.928-1.612,1.026-2.315.81-.704-.217-1.457-.85-1.457-1.974v-4.698c1.497-.291,2.627-1.607,2.627-3.189s-1.13-2.898-2.627-3.189v-8.974c.006-.032.011-.063.017-.095,1.41-8.248,6.055-15.732,9.123-23.405.979-2.425,1.796-4.838,2.467-7.312.346-1.375.808-2.986.788-4.385-.108-3.839-3.419-7.891-6.686-10.196-3.004-2.381-7.036-3.398-10.684-1.418-2.593,1.411-5.083,3.566-6.671,5.869-1.266,1.952-2.263,3.904-2.226,5.851-.008,1.4.471,3.013.823,4.378.69,2.466,1.529,4.877,2.526,7.292,3.13,7.648,7.835,15.093,9.312,23.331.116.588.21,1.176.29,1.765v7.253c-1.344.122-2.45,1.062-2.819,2.318h-15.478c-1.431,0-2.596-1.165-2.596-2.596v-2.257c1.182-.486,2.015-1.648,2.015-3.006,0-1.455-.957-2.687-2.275-3.101,0-5.857-.036-14.309-.048-17.076-.003-.695-.082-1.385-.234-2.062-.85-3.769-4.255-15.307-13.473-11.466-7.113,2.964-6.053,8.331-4.432,11.735.818,1.718,2.154,3.134,3.799,4.088,3.182,1.845,9.589,6.419,12.77,14.697-1.487.299-2.607,1.611-2.607,3.186,0,1.795,1.455,3.25,3.25,3.25.106,0,.211-.006.314-.016v2.028c0,1.939,1.578,3.517,3.517,3.517h15.345c.002,1.692,1.298,3.08,2.952,3.231v4.651c0,.032.003.064.004.096-.478,8.921-1.483,17.795-3.681,26.515-.899,3.179,2.164,6.236,5.355,5.312,2.311-.641,3.666-3.034,3.025-5.346-2.061-7.708-3.006-15.465-3.679-23.353-.028-.343-.049-.686-.075-1.029.321.294.711.522,1.158.66.304.094.611.139.911.139.962,0,1.862-.467,2.437-1.31l8.246-12.085c.378.154.79.24,1.224.24,1.795,0,3.25-1.455,3.25-3.25,0-1.476-.985-2.721-2.333-3.117,2.07-6.385,6.911-9.858,9.251-11.215,1.149-.666,2.081-1.655,2.652-2.854,1.132-2.376,1.871-6.123-3.094-8.192Z" fill="#0c0d0b"/>
      <circle cx="138.433" cy="61.024" r="2.6" fill="#2a4c8c"/>
      <circle cx="138.433" cy="14.871" r="7.8" fill="#2a4c8c"/>
      <circle cx="138.433" cy="96.451" r="2.6" fill="#2a4c8c"/>
    </g>
    <g>
      <path d="M84.786,247.121c-6.435-2.681-8.812,5.373-9.405,8.004-.107.473-.161.955-.164,1.44-.009,2.056-.037,8.612-.033,12.69-.042-.002-.083-.006-.125-.006-1.795,0-3.25,1.455-3.25,3.25,0,1.031.481,1.948,1.23,2.543l-8.21,12.033c-.633.928-1.612,1.026-2.315.81-.704-.217-1.457-.85-1.457-1.974v-4.698c1.497-.291,2.627-1.607,2.627-3.189s-1.13-2.898-2.627-3.189v-8.974c.006-.032.011-.063.017-.095,1.41-8.248,6.055-15.732,9.123-23.405.979-2.425,1.796-4.838,2.467-7.312.346-1.375.808-2.986.788-4.385-.108-3.839-3.419-7.891-6.686-10.196-3.004-2.381-7.036-3.398-10.684-1.418-2.593,1.411-5.083,3.566-6.671,5.869-1.266,1.952-2.263,3.904-2.226,5.851-.008,1.4.471,3.013.823,4.378.69,2.466,1.529,4.877,2.526,7.292,3.13,7.648,7.835,15.093,9.312,23.331.116.588.21,1.176.29,1.765v7.253c-1.344.122-2.45,1.062-2.819,2.318h-15.478c-1.431,0-2.596-1.165-2.596-2.596v-2.257c1.182-.486,2.015-1.648,2.015-3.006,0-1.455-.957-2.687-2.275-3.101,0-5.857-.036-14.309-.048-17.076-.003-.695-.082-1.385-.234-2.062-.85-3.769-4.255-15.307-13.473-11.466-7.113,2.964-6.053,8.331-4.432,11.735.818,1.718,2.154,3.134,3.799,4.088,3.182,1.845,9.589,6.419,12.77,14.697-1.487.299-2.607,1.611-2.607,3.186,0,1.795,1.455,3.25,3.25,3.25.106,0,.211-.006.314-.016v2.028c0,1.939,1.578,3.517,3.517,3.517h15.345c.002,1.692,1.298,3.08,2.952,3.231v4.651c0,.032.003.064.004.096-.478,8.921-1.483,17.795-3.681,26.515-.899,3.179,2.164,6.236,5.355,5.312,2.311-.641,3.666-3.034,3.025-5.346-2.061-7.708-3.006-15.465-3.679-23.353-.028-.343-.049-.686-.075-1.029.321.294.711.522,1.158.66.304.094.611.139.911.139.962,0,1.862-.467,2.437-1.31l8.246-12.085c.378.154.79.24,1.224.24,1.795,0,3.25-1.455,3.25-3.25,0-1.476-.985-2.721-2.333-3.117,2.07-6.385,6.911-9.858,9.251-11.215,1.149-.666,2.081-1.655,2.652-2.854,1.132-2.376,1.871-6.123-3.094-8.192Z" fill="#0c0d0b"/>
      <circle cx="60.433" cy="278.024" r="2.6" fill="#2a4c8c"/>
      <circle cx="60.433" cy="231.871" r="7.8" fill="#2a4c8c"/>
      <circle cx="60.433" cy="313.451" r="2.6" fill="#2a4c8c"/>
    </g>
    <g>
      <path d="M243.786,247.121c-6.435-2.681-8.812,5.373-9.405,8.004-.107.473-.161.955-.164,1.44-.009,2.056-.037,8.612-.033,12.69-.042-.002-.083-.006-.125-.006-1.795,0-3.25,1.455-3.25,3.25,0,1.031.481,1.948,1.23,2.543l-8.21,12.033c-.633.928-1.612,1.026-2.315.81-.704-.217-1.457-.85-1.457-1.974v-4.698c1.497-.291,2.627-1.607,2.627-3.189s-1.13-2.898-2.627-3.189v-8.974c.006-.032.011-.063.017-.095,1.41-8.248,6.055-15.732,9.123-23.405.979-2.425,1.796-4.838,2.467-7.312.346-1.375.808-2.986.788-4.385-.108-3.839-3.419-7.891-6.686-10.196-3.004-2.381-7.036-3.398-10.684-1.418-2.593,1.411-5.083,3.566-6.671,5.869-1.266,1.952-2.263,3.904-2.226,5.851-.008,1.4.471,3.013.823,4.378.69,2.466,1.529,4.877,2.526,7.292,3.13,7.648,7.835,15.093,9.312,23.331.116.588.21,1.176.29,1.765v7.253c-1.344.122-2.45,1.062-2.819,2.318h-15.478c-1.431,0-2.596-1.165-2.596-2.596v-2.257c1.182-.486,2.015-1.648,2.015-3.006,0-1.455-.957-2.687-2.275-3.101,0-5.857-.036-14.309-.048-17.076-.003-.695-.082-1.385-.234-2.062-.85-3.769-4.255-15.307-13.473-11.466-7.113,2.964-6.053,8.331-4.432,11.735.818,1.718,2.154,3.134,3.799,4.088,3.182,1.845,9.589,6.419,12.77,14.697-1.487.299-2.607,1.611-2.607,3.186,0,1.795,1.455,3.25,3.25,3.25.106,0,.211-.006.314-.016v2.028c0,1.939,1.578,3.517,3.517,3.517h15.345c.002,1.692,1.298,3.08,2.952,3.231v4.651c0,.032.003.064.004.096-.478,8.921-1.483,17.795-3.681,26.515-.899,3.179,2.164,6.236,5.355,5.312,2.311-.641,3.666-3.034,3.025-5.346-2.061-7.708-3.006-15.465-3.679-23.353-.028-.343-.049-.686-.075-1.029.321.294.711.522,1.158.66.304.094.611.139.911.139.962,0,1.862-.467,2.437-1.31l8.246-12.085c.378.154.79.24,1.224.24,1.795,0,3.25-1.455,3.25-3.25,0-1.476-.985-2.721-2.333-3.117,2.07-6.385,6.911-9.858,9.251-11.215,1.149-.666,2.081-1.655,2.652-2.854,1.132-2.376,1.871-6.123-3.094-8.192Z" fill="#0c0d0b"/>
      <circle cx="219.433" cy="278.024" r="2.6" fill="#2a4c8c"/>
      <circle cx="219.433" cy="231.871" r="7.8" fill="#2a4c8c"/>
      <circle cx="219.433" cy="313.451" r="2.6" fill="#2a4c8c"/>
    </g>
  </g>
</svg>