<?xml version="1.0" encoding="UTF-8"?>
<svg id="Planta" xmlns="http://www.w3.org/2000/svg" width="275.651" height="450" viewBox="0 0 275.651 450">
  <g id="Tallo">
    <g>
      <line x1="137.546" y1="452" x2="137.546" y2="2" fill="#0c0d0b" stroke="#0c0d0b" stroke-miterlimit="10" stroke-width="2.689"/>
      <path d="M215.588,288.66c-4.882-17.552-20.956-29.756-39.055-29.723-17.786.032-33.609,11.874-38.709,29.032-4.882-17.552-20.956-29.756-39.055-29.723-17.786.032-33.609,11.874-38.709,29.032" fill="none" stroke="#0c0d0b" stroke-miterlimit="10" stroke-width="1.417"/>
      <path d="M215.588,159.66c-4.882-17.552-20.956-29.756-39.055-29.723-17.786.032-33.609,11.874-38.709,29.032-4.882-17.552-20.956-29.756-39.055-29.723-17.786.032-33.609,11.874-38.709,29.032" fill="none" stroke="#0c0d0b" stroke-miterlimit="10" stroke-width="1.417"/>
    </g>
  </g>
  <g id="Hojas">
    <path d="M156.914,191.401l-19.724-19.724-.144-.144-19.868,19.868c-17.97-6.507-32.829,1.81-29.719,22.105.228,1.56.617,3.226,1.07,4.742,1.481.555,3.118,1.056,4.659,1.389,19.909,4.449,29.231-9.604,24.156-27.827l19.701-19.701,19.7,19.7c-5.073,18.211,4.237,32.279,24.156,27.828,1.541-.333,3.176-.834,4.659-1.389.454-1.515.842-3.183,1.07-4.742,3.11-20.285-11.736-28.615-29.718-22.105Z" fill="#0c0d0b"/>
    <path d="M156.914,338.401l-19.724-19.724-.144-.144-19.868,19.868c-17.97-6.507-32.829,1.81-29.719,22.105.228,1.56.617,3.226,1.07,4.742,1.481.555,3.118,1.056,4.659,1.389,19.909,4.449,29.231-9.604,24.156-27.827l19.701-19.701,19.7,19.7c-5.073,18.211,4.237,32.279,24.156,27.828,1.541-.333,3.176-.834,4.659-1.389.454-1.515.842-3.183,1.07-4.742,3.11-20.285-11.736-28.615-29.718-22.105Z" fill="#0c0d0b"/>
    <path d="M90.656,271.771l4.571-13.176.033-.096-13.273-4.605c-.992-9.505-7.976-14.375-16.428-8.549-.652.443-1.317.981-1.9,1.516.073.787.205,1.633.391,2.399,2.341,9.928,10.697,11.056,17.789,4.798l13.161,4.566-4.566,13.161c-9.3,1.69-13.598,8.948-7.251,16.938.486.62,1.068,1.247,1.641,1.793.781-.126,1.616-.315,2.367-.553,9.805-3.026,10.314-11.522,3.463-18.192Z" fill="#0c0d0b"/>
    <path d="M90.656,142.771l4.571-13.176.033-.096-13.273-4.605c-.992-9.505-7.976-14.375-16.428-8.549-.652.443-1.317.981-1.9,1.516.073.787.205,1.633.391,2.399,2.341,9.928,10.697,11.056,17.789,4.798l13.161,4.566-4.566,13.161c-9.3,1.69-13.598,8.948-7.251,16.938.486.62,1.068,1.247,1.641,1.793.781-.126,1.616-.315,2.367-.553,9.805-3.026,10.314-11.522,3.463-18.192Z" fill="#0c0d0b"/>
    <path d="M179.265,271.771l-4.571-13.176-.033-.096,13.273-4.605c.992-9.505,7.976-14.375,16.428-8.549.652.443,1.317.981,1.9,1.516-.073.787-.205,1.633-.391,2.399-2.341,9.928-10.697,11.056-17.789,4.798l-13.161,4.566,4.566,13.161c9.3,1.69,13.598,8.948,7.251,16.938-.486.62-1.068,1.247-1.641,1.793-.781-.126-1.616-.315-2.367-.553-9.805-3.026-10.314-11.522-3.463-18.192Z" fill="#0c0d0b"/>
    <path d="M179.265,142.771l-4.571-13.176-.033-.096,13.273-4.605c.992-9.505,7.976-14.375,16.428-8.549.652.443,1.317.981,1.9,1.516-.073.787-.205,1.633-.391,2.399-2.341,9.928-10.697,11.056-17.789,4.798l-13.161,4.566,4.566,13.161c9.3,1.69,13.598,8.948,7.251,16.938-.486.62-1.068,1.247-1.641,1.793-.781-.126-1.616-.315-2.367-.553-9.805-3.026-10.314-11.522-3.463-18.192Z" fill="#0c0d0b"/>
  </g>
  <g id="Flores">
    <g>
      <g>
        <path d="M158.874,69.64c-5.566-1.903-11.326-2.524-18.033-2.108h-6.083c-6.707-.416-12.466.205-18.033,2.108-10.306,3.523-13.343,16.031-5.734,23.777,3.048,3.104,6.906,3.974,11.042,2.555,4.605-1.581,7.544-4.812,8.022-9.746.235-2.428-.181-4.92-.326-7.382-.26-4.436.243-7.964,5.72-10.595h5.034c5.477,2.631,5.646,6.159,5.386,10.595-.144,2.462-.561,4.955-.326,7.382.478,4.934,3.418,8.165,8.022,9.746,4.135,1.419,7.993.549,11.042-2.555,7.609-7.747,4.572-20.254-5.734-23.777Z" fill="#0c0d0b"/>
        <path d="M137.489,1.897c-27.614,0-50,22.386-50,50,0,6.589,1.287,12.873,3.603,18.634,4.949-12.312,14.654-22.195,26.839-27.384.138,10.859,8.978,19.62,19.869,19.62,10.804,0,19.588-8.622,19.863-19.36,11.897,5.257,21.358,15.019,26.224,27.124,2.316-5.76,3.603-12.045,3.603-18.634,0-27.614-22.386-50-50-50Z" fill="#0c0d0b"/>
      </g>
      <rect x="136.919" y="21.619" width="1.761" height="45.789" fill="#0c0d0b"/>
      <circle cx="137.835" cy="42.889" r="6.832" fill="#2a4c8c"/>
      <circle cx="156.835" cy="84.889" r="6.832" fill="#2a4c8c"/>
    </g>
    <g>
      <g>
        <path d="M71.181,187.453c-2.783-.951-5.663-1.262-9.016-1.054h-3.042c-3.354-.208-6.233.103-9.016,1.054-5.153,1.761-6.671,8.015-2.867,11.889,1.524,1.552,3.453,1.987,5.521,1.277,2.302-.79,3.772-2.406,4.011-4.873.118-1.214-.091-2.46-.163-3.691-.13-2.218.121-3.982,2.86-5.298h2.517c2.739,1.316,2.823,3.08,2.693,5.298-.072,1.231-.28,2.477-.163,3.691.239,2.467,1.709,4.083,4.011,4.873,2.068.71,3.997.275,5.521-1.277,3.804-3.873,2.286-10.127-2.867-11.889Z" fill="#0c0d0b"/>
        <path d="M60.489,153.581c-13.807,0-25,11.193-25,25,0,3.294.643,6.437,1.801,9.317,2.475-6.156,7.327-11.097,13.419-13.692.069,5.429,4.489,9.81,9.935,9.81,5.402,0,9.794-4.311,9.931-9.68,5.949,2.629,10.679,7.51,13.112,13.562,1.158-2.88,1.801-6.022,1.801-9.317,0-13.807-11.193-25-25-25Z" fill="#0c0d0b"/>
      </g>
      <rect x="60.204" y="163.442" width=".88" height="22.895" fill="#0c0d0b"/>
      <circle cx="60.662" cy="174.077" r="3.416" fill="#2a4c8c"/>
    </g>
    <g>
      <g>
        <path d="M226.181,187.453c-2.783-.951-5.663-1.262-9.016-1.054h-3.042c-3.354-.208-6.233.103-9.016,1.054-5.153,1.761-6.671,8.015-2.867,11.889,1.524,1.552,3.453,1.987,5.521,1.277,2.302-.79,3.772-2.406,4.011-4.873.118-1.214-.091-2.46-.163-3.691-.13-2.218.121-3.982,2.86-5.298h2.517c2.739,1.316,2.823,3.08,2.693,5.298-.072,1.231-.28,2.477-.163,3.691.239,2.467,1.709,4.083,4.011,4.873,2.068.71,3.997.275,5.521-1.277,3.804-3.873,2.286-10.127-2.867-11.889Z" fill="#0c0d0b"/>
        <path d="M215.489,153.581c-13.807,0-25,11.193-25,25,0,3.294.643,6.437,1.801,9.317,2.475-6.156,7.327-11.097,13.419-13.692.069,5.429,4.489,9.81,9.935,9.81,5.402,0,9.794-4.311,9.931-9.68,5.949,2.629,10.679,7.51,13.112,13.562,1.158-2.88,1.801-6.022,1.801-9.317,0-13.807-11.193-25-25-25Z" fill="#0c0d0b"/>
      </g>
      <rect x="215.204" y="163.442" width=".88" height="22.895" fill="#0c0d0b"/>
      <circle cx="215.662" cy="174.077" r="3.416" fill="#2a4c8c"/>
    </g>
    <g>
      <g>
        <path d="M72.181,321.453c-2.783-.951-5.663-1.262-9.016-1.054h-3.042c-3.354-.208-6.233.103-9.016,1.054-5.153,1.761-6.671,8.015-2.867,11.889,1.524,1.552,3.453,1.987,5.521,1.277,2.302-.79,3.772-2.406,4.011-4.873.118-1.214-.091-2.46-.163-3.691-.13-2.218.121-3.982,2.86-5.298h2.517c2.739,1.316,2.823,3.08,2.693,5.298-.072,1.231-.28,2.477-.163,3.691.239,2.467,1.709,4.083,4.011,4.873,2.068.71,3.997.275,5.521-1.277,3.804-3.873,2.286-10.127-2.867-11.889Z" fill="#0c0d0b"/>
        <path d="M61.489,287.581c-13.807,0-25,11.193-25,25,0,3.294.643,6.437,1.801,9.317,2.475-6.156,7.327-11.097,13.419-13.692.069,5.429,4.489,9.81,9.935,9.81,5.402,0,9.794-4.311,9.931-9.68,5.949,2.629,10.679,7.51,13.112,13.562,1.158-2.88,1.801-6.022,1.801-9.317,0-13.807-11.193-25-25-25Z" fill="#0c0d0b"/>
      </g>
      <rect x="61.204" y="297.442" width=".88" height="22.895" fill="#0c0d0b"/>
      <circle cx="61.662" cy="308.077" r="3.416" fill="#2a4c8c"/>
    </g>
    <g>
      <g>
        <path d="M227.181,321.453c-2.783-.951-5.663-1.262-9.016-1.054h-3.042c-3.354-.208-6.233.103-9.016,1.054-5.153,1.761-6.671,8.015-2.867,11.889,1.524,1.552,3.453,1.987,5.521,1.277,2.302-.79,3.772-2.406,4.011-4.873.118-1.214-.091-2.46-.163-3.691-.13-2.218.121-3.982,2.86-5.298h2.517c2.739,1.316,2.823,3.08,2.693,5.298-.072,1.231-.28,2.477-.163,3.691.239,2.467,1.709,4.083,4.011,4.873,2.068.71,3.997.275,5.521-1.277,3.804-3.873,2.286-10.127-2.867-11.889Z" fill="#0c0d0b"/>
        <path d="M216.489,287.581c-13.807,0-25,11.193-25,25,0,3.294.643,6.437,1.801,9.317,2.475-6.156,7.327-11.097,13.419-13.692.069,5.429,4.489,9.81,9.935,9.81,5.402,0,9.794-4.311,9.931-9.68,5.949,2.629,10.679,7.51,13.112,13.562,1.158-2.88,1.801-6.022,1.801-9.317,0-13.807-11.193-25-25-25Z" fill="#0c0d0b"/>
      </g>
      <rect x="216.204" y="297.442" width=".88" height="22.895" fill="#0c0d0b"/>
      <circle cx="216.662" cy="308.077" r="3.416" fill="#2a4c8c"/>
    </g>
  </g>
</svg>