<?xml version="1.0" encoding="UTF-8"?>
<svg id="Planta" xmlns="http://www.w3.org/2000/svg" width="100" height="100" viewBox="0 0 100 100">
  <g id="Tallo">
    <line x1="50.449" y1="100.733" x2="50.449" y2=".743" fill="#0c0d0b" stroke="#0c0d0b" stroke-miterlimit="10" stroke-width=".598"/>
  </g>
  <g id="Hojas">
    <path d="M54.893,30.829l-4.383-4.383-.032-.032-4.415,4.415c-3.993-1.446-7.295.402-6.603,4.912.051.347.137.717.238,1.054.329.123.693.235,1.035.309,4.424.989,6.495-2.134,5.368-6.183l4.378-4.378,4.377,4.377c-1.127,4.047.941,7.172,5.367,6.183.342-.074.706-.185,1.035-.309.101-.337.187-.707.238-1.054.691-4.507-2.608-6.358-6.603-4.912Z" fill="#0c0d0b"/>
    <path d="M54.893,45.05l-4.383-4.383-.032-.032-4.415,4.415c-3.993-1.446-7.295.402-6.603,4.912.051.347.137.717.238,1.054.329.123.693.235,1.035.309,4.424.989,6.495-2.134,5.368-6.183l4.378-4.378,4.377,4.377c-1.127,4.047.941,7.172,5.367,6.183.342-.074.706-.185,1.035-.309.101-.337.187-.707.238-1.054.691-4.507-2.608-6.358-6.603-4.912Z" fill="#0c0d0b"/>
    <path d="M54.893,59.27l-4.383-4.383-.032-.032-4.415,4.415c-3.993-1.446-7.295.402-6.603,4.912.051.347.137.717.238,1.054.329.123.693.235,1.035.309,4.424.989,6.495-2.134,5.368-6.183l4.378-4.378,4.377,4.377c-1.127,4.047.941,7.172,5.367,6.183.342-.074.706-.185,1.035-.309.101-.337.187-.707.238-1.054.691-4.507-2.608-6.358-6.603-4.912Z" fill="#0c0d0b"/>
    <path d="M54.893,73.491l-4.383-4.383-.032-.032-4.415,4.415c-3.993-1.446-7.295.402-6.603,4.912.051.347.137.717.238,1.054.329.123.693.235,1.035.309,4.424.989,6.495-2.134,5.368-6.183l4.378-4.378,4.377,4.377c-1.127,4.047.941,7.172,5.367,6.183.342-.074.706-.185,1.035-.309.101-.337.187-.707.238-1.054.691-4.507-2.608-6.358-6.603-4.912Z" fill="#0c0d0b"/>
  </g>
  <g id="Flores">
    <g>
      <g>
        <path d="M55.251,15.772c-1.237-.423-2.517-.561-4.007-.468h-1.352c-1.49-.092-2.77.046-4.007.468-2.29.783-2.965,3.562-1.274,5.283.677.69,1.535.883,2.453.568,1.023-.351,1.676-1.069,1.783-2.166.052-.539-.04-1.093-.072-1.64-.058-.986.054-1.77,1.271-2.354h1.119c1.217.585,1.255,1.369,1.197,2.354-.032.547-.125,1.101-.072,1.64.106,1.096.759,1.814,1.782,2.166.919.315,1.776.122,2.453-.568,1.691-1.721,1.016-4.5-1.274-5.283Z" fill="#0c0d0b"/>
        <path d="M50.499.72c-6.136,0-11.11,4.974-11.11,11.11,0,1.464.286,2.86.8,4.14,1.1-2.736,3.256-4.932,5.964-6.085.031,2.413,1.995,4.36,4.415,4.36,2.401,0,4.353-1.916,4.413-4.302,2.644,1.168,4.746,3.337,5.827,6.027.515-1.28.8-2.676.8-4.14,0-6.136-4.974-11.11-11.11-11.11Z" fill="#0c0d0b"/>
      </g>
      <rect x="50.372" y="5.102" width=".391" height="10.174" fill="#0c0d0b"/>
      <circle cx="50.576" cy="9.828" r="1.518" fill="#2a4c8c"/>
      <circle cx="46.132" cy="19.383" r="1.518" fill="#2a4c8c"/>
    </g>
  </g>
</svg>