<?xml version="1.0" encoding="UTF-8"?>
<svg id="Planta" xmlns="http://www.w3.org/2000/svg" width="100" height="100" viewBox="0 0 100 100">
  <g id="Tallo">
    <g>
      <line x1="50.275" y1="100.177" x2="50.275" y2=".187" fill="#0c0d0b" stroke="#0c0d0b" stroke-miterlimit="10" stroke-width=".598"/>
      <path d="M67.616,63.883c-1.085-3.9-4.656-6.612-8.678-6.605-3.952.007-7.468,2.639-8.601,6.451-1.085-3.9-4.656-6.612-8.678-6.605-3.952.007-7.468,2.639-8.601,6.451" fill="none" stroke="#0c0d0b" stroke-miterlimit="10" stroke-width=".315"/>
      <path d="M67.616,35.219c-1.085-3.9-4.656-6.612-8.678-6.605-3.952.007-7.468,2.639-8.601,6.451-1.085-3.9-4.656-6.612-8.678-6.605-3.952.007-7.468,2.639-8.601,6.451" fill="none" stroke="#0c0d0b" stroke-miterlimit="10" stroke-width=".315"/>
    </g>
  </g>
  <g id="Hojas">
    <path d="M54.579,42.272l-4.383-4.383-.032-.032-4.415,4.415c-3.993-1.446-7.295.402-6.603,4.912.051.347.137.717.238,1.054.329.123.693.235,1.035.309,4.424.989,6.495-2.134,5.368-6.183l4.378-4.378,4.377,4.377c-1.127,4.047.941,7.172,5.367,6.183.342-.074.706-.185,1.035-.309.101-.337.187-.707.238-1.054.691-4.507-2.608-6.358-6.603-4.912Z" fill="#0c0d0b"/>
    <path d="M54.579,74.935l-4.383-4.383-.032-.032-4.415,4.415c-3.993-1.446-7.295.402-6.603,4.912.051.347.137.717.238,1.054.329.123.693.235,1.035.309,4.424.989,6.495-2.134,5.368-6.183l4.378-4.378,4.377,4.377c-1.127,4.047.941,7.172,5.367,6.183.342-.074.706-.185,1.035-.309.101-.337.187-.707.238-1.054.691-4.507-2.608-6.358-6.603-4.912Z" fill="#0c0d0b"/>
    <path d="M39.857,60.13l1.016-2.928.007-.021-2.949-1.023c-.22-2.112-1.772-3.194-3.65-1.899-.145.098-.293.218-.422.337.016.175.046.363.087.533.52,2.206,2.377,2.457,3.953,1.066l2.924,1.015-1.015,2.924c-2.066.376-3.022,1.988-1.611,3.764.108.138.237.277.365.398.173-.028.359-.07.526-.123,2.179-.672,2.292-2.56.769-4.042Z" fill="#0c0d0b"/>
    <path d="M39.857,31.466l1.016-2.928.007-.021-2.949-1.023c-.22-2.112-1.772-3.194-3.65-1.899-.145.098-.293.218-.422.337.016.175.046.363.087.533.52,2.206,2.377,2.457,3.953,1.066l2.924,1.015-1.015,2.924c-2.066.376-3.022,1.988-1.611,3.764.108.138.237.277.365.398.173-.028.359-.07.526-.123,2.179-.672,2.292-2.56.769-4.042Z" fill="#0c0d0b"/>
    <path d="M59.545,60.13l-1.016-2.928-.007-.021,2.949-1.023c.22-2.112,1.772-3.194,3.65-1.899.145.098.293.218.422.337-.016.175-.046.363-.087.533-.52,2.206-2.377,2.457-3.953,1.066l-2.924,1.015,1.015,2.924c2.066.376,3.022,1.988,1.611,3.764-.108.138-.237.277-.365.398-.173-.028-.359-.07-.526-.123-2.179-.672-2.292-2.56-.769-4.042Z" fill="#0c0d0b"/>
    <path d="M59.545,31.466l-1.016-2.928-.007-.021,2.949-1.023c.22-2.112,1.772-3.194,3.65-1.899.145.098.293.218.422.337-.016.175-.046.363-.087.533-.52,2.206-2.377,2.457-3.953,1.066l-2.924,1.015,1.015,2.924c2.066.376,3.022,1.988,1.611,3.764-.108.138-.237.277-.365.398-.173-.028-.359-.07-.526-.123-2.179-.672-2.292-2.56-.769-4.042Z" fill="#0c0d0b"/>
  </g>
  <g id="Flores">
    <g>
      <g>
        <path d="M55.014,15.217c-1.237-.423-2.517-.561-4.007-.468h-1.352c-1.49-.092-2.77.046-4.007.468-2.29.783-2.965,3.562-1.274,5.283.677.69,1.535.883,2.453.568,1.023-.351,1.676-1.069,1.783-2.166.052-.539-.04-1.093-.072-1.64-.058-.986.054-1.77,1.271-2.354h1.119c1.217.585,1.255,1.369,1.197,2.354-.032.547-.125,1.101-.072,1.64.106,1.096.759,1.814,1.782,2.166.919.315,1.776.122,2.453-.568,1.691-1.721,1.016-4.5-1.274-5.283Z" fill="#0c0d0b"/>
        <path d="M50.263.164c-6.136,0-11.11,4.974-11.11,11.11,0,1.464.286,2.86.8,4.14,1.1-2.736,3.256-4.932,5.964-6.085.031,2.413,1.995,4.36,4.415,4.36,2.401,0,4.353-1.916,4.413-4.302,2.644,1.168,4.746,3.337,5.827,6.027.515-1.28.8-2.676.8-4.14C61.373,5.138,56.399.164,50.263.164Z" fill="#0c0d0b"/>
      </g>
      <rect x="50.136" y="4.546" width=".391" height="10.174" fill="#0c0d0b"/>
      <circle cx="50.34" cy="9.273" r="1.518" fill="#2a4c8c"/>
      <circle cx="54.561" cy="18.605" r="1.518" fill="#2a4c8c"/>
    </g>
    <g>
      <g>
        <path d="M35.529,41.395c-.618-.211-1.258-.28-2.003-.234h-.676c-.745-.046-1.385.023-2.003.234-1.145.391-1.482,1.781-.637,2.642.339.345.767.441,1.227.284.512-.176.838-.535.891-1.083.026-.27-.02-.547-.036-.82-.029-.493.027-.885.636-1.177h.559c.609.292.627.684.598,1.177-.016.274-.062.55-.036.82.053.548.38.907.891,1.083.459.158.888.061,1.227-.284.845-.861.508-2.25-.637-2.642Z" fill="#0c0d0b"/>
        <path d="M33.153,33.868c-3.068,0-5.555,2.487-5.555,5.555,0,.732.143,1.43.4,2.07.55-1.368,1.628-2.466,2.982-3.042.015,1.206.997,2.18,2.207,2.18,1.2,0,2.176-.958,2.207-2.151,1.322.584,2.373,1.669,2.914,3.013.257-.64.4-1.338.4-2.07,0-3.068-2.487-5.555-5.555-5.555Z" fill="#0c0d0b"/>
      </g>
      <rect x="33.09" y="36.06" width=".196" height="5.087" fill="#0c0d0b"/>
      <circle cx="33.192" cy="38.423" r=".759" fill="#2a4c8c"/>
    </g>
    <g>
      <g>
        <path d="M69.97,41.395c-.618-.211-1.258-.28-2.003-.234h-.676c-.745-.046-1.385.023-2.003.234-1.145.391-1.482,1.781-.637,2.642.339.345.767.441,1.227.284.512-.176.838-.535.891-1.083.026-.27-.02-.547-.036-.82-.029-.493.027-.885.636-1.177h.559c.609.292.627.684.598,1.177-.016.274-.062.55-.036.82.053.548.38.907.891,1.083.459.158.888.061,1.227-.284.845-.861.508-2.25-.637-2.642Z" fill="#0c0d0b"/>
        <path d="M67.594,33.868c-3.068,0-5.555,2.487-5.555,5.555,0,.732.143,1.43.4,2.07.55-1.368,1.628-2.466,2.982-3.042.015,1.206.997,2.18,2.207,2.18,1.2,0,2.176-.958,2.207-2.151,1.322.584,2.373,1.669,2.914,3.013.257-.64.4-1.338.4-2.07,0-3.068-2.487-5.555-5.555-5.555Z" fill="#0c0d0b"/>
      </g>
      <rect x="67.531" y="36.06" width=".196" height="5.087" fill="#0c0d0b"/>
      <circle cx="67.633" cy="38.423" r=".759" fill="#2a4c8c"/>
    </g>
    <g>
      <g>
        <path d="M35.751,71.169c-.618-.211-1.258-.28-2.003-.234h-.676c-.745-.046-1.385.023-2.003.234-1.145.391-1.482,1.781-.637,2.642.339.345.767.441,1.227.284.512-.176.838-.535.891-1.083.026-.27-.02-.547-.036-.82-.029-.493.027-.885.636-1.177h.559c.609.292.627.684.598,1.177-.016.274-.062.55-.036.82.053.548.38.907.891,1.083.459.158.888.061,1.227-.284.845-.861.508-2.25-.637-2.642Z" fill="#0c0d0b"/>
        <path d="M33.375,63.643c-3.068,0-5.555,2.487-5.555,5.555,0,.732.143,1.43.4,2.07.55-1.368,1.628-2.466,2.982-3.042.015,1.206.997,2.18,2.207,2.18,1.2,0,2.176-.958,2.207-2.151,1.322.584,2.373,1.669,2.914,3.013.257-.64.4-1.338.4-2.07,0-3.068-2.487-5.555-5.555-5.555Z" fill="#0c0d0b"/>
      </g>
      <rect x="33.312" y="65.834" width=".196" height="5.087" fill="#0c0d0b"/>
      <circle cx="33.414" cy="68.197" r=".759" fill="#2a4c8c"/>
    </g>
    <g>
      <g>
        <path d="M70.192,71.169c-.618-.211-1.258-.28-2.003-.234h-.676c-.745-.046-1.385.023-2.003.234-1.145.391-1.482,1.781-.637,2.642.339.345.767.441,1.227.284.512-.176.838-.535.891-1.083.026-.27-.02-.547-.036-.82-.029-.493.027-.885.636-1.177h.559c.609.292.627.684.598,1.177-.016.274-.062.55-.036.82.053.548.38.907.891,1.083.459.158.888.061,1.227-.284.845-.861.508-2.25-.637-2.642Z" fill="#0c0d0b"/>
        <path d="M67.816,63.643c-3.068,0-5.555,2.487-5.555,5.555,0,.732.143,1.43.4,2.07.55-1.368,1.628-2.466,2.982-3.042.015,1.206.997,2.18,2.207,2.18,1.2,0,2.176-.958,2.207-2.151,1.322.584,2.373,1.669,2.914,3.013.257-.64.4-1.338.4-2.07,0-3.068-2.487-5.555-5.555-5.555Z" fill="#0c0d0b"/>
      </g>
      <rect x="67.753" y="65.834" width=".196" height="5.087" fill="#0c0d0b"/>
      <circle cx="67.855" cy="68.197" r=".759" fill="#2a4c8c"/>
    </g>
  </g>
</svg>