<?xml version="1.0" encoding="UTF-8"?>
<svg id="Planta" xmlns="http://www.w3.org/2000/svg" width="275.651" height="450" viewBox="0 0 275.651 450">
  <g id="Tallo">
    <line x1="137.987" y1="450" x2="137.987" y2="103" fill="#0c0d0b" stroke="#0c0d0b" stroke-miterlimit="10" stroke-width="2.429"/>
  </g>
  <g id="Hojas">
    <path d="M181.602,268.348c-4.908,4.997-11.119,6.398-17.777,4.113-7.413-2.545-12.146-7.748-12.915-15.691-.379-3.908.292-7.922.524-11.885.419-7.142.148-12.823-8.671-17.059h-8.106c-8.819,4.236-9.629,9.916-9.21,17.059.233,3.964.903,7.977.524,11.885-.769,7.943-5.502,13.146-12.916,15.691-6.658,2.285-12.869.884-17.777-4.113-12.25-12.472-7.36-32.609,9.231-38.281,8.962-3.064,18.234-4.064,29.033-3.394h9.794c10.799-.67,20.071.33,29.033,3.394,16.592,5.672,21.482,25.809,9.232,38.281Z" fill="#0c0d0b"/>
    <path d="M180.602,363.348c-4.908,4.997-11.119,6.398-17.777,4.113-7.413-2.545-12.146-7.748-12.915-15.691-.379-3.908.292-7.922.524-11.885.419-7.142.148-12.823-8.671-17.059h-8.106c-8.819,4.236-9.629,9.916-9.21,17.059.233,3.964.903,7.977.524,11.885-.769,7.943-5.502,13.146-12.916,15.691-6.658,2.285-12.869.884-17.777-4.113-12.25-12.472-7.36-32.609,9.231-38.281,8.962-3.064,18.234-4.064,29.033-3.394h9.794c10.799-.67,20.071.33,29.033,3.394,16.592,5.672,21.482,25.809,9.232,38.281Z" fill="#0c0d0b"/>
  </g>
  <g id="Flores">
    <g>
      <path d="M185.697,60.241c-12.87-5.362-17.623,10.747-18.81,16.009-.213.946-.323,1.909-.327,2.879-.018,4.113-.073,17.225-.067,25.38-.083-.003-.165-.013-.249-.013-3.59,0-6.5,2.91-6.5,6.5,0,2.062.963,3.895,2.46,5.086l-16.421,24.066c-1.266,1.856-3.225,2.053-4.631,1.619-1.408-.435-2.913-1.7-2.913-3.948v-9.395c2.993-.582,5.254-3.215,5.254-6.378s-2.261-5.796-5.254-6.378v-17.948c.012-.063.021-.126.033-.19,2.82-16.497,12.11-31.464,18.246-46.81,1.957-4.85,3.592-9.675,4.935-14.625.692-2.75,1.616-5.972,1.576-8.769-.216-7.679-6.837-15.782-13.372-20.393-6.007-4.762-14.072-6.795-21.369-2.835-5.186,2.821-10.167,7.131-13.342,11.738-2.533,3.905-4.527,7.808-4.451,11.702-.017,2.801.942,6.027,1.647,8.756,1.379,4.933,3.057,9.754,5.052,14.585,6.26,15.296,15.67,30.187,18.623,46.661.233,1.176.421,2.353.58,3.531v14.505c-2.688.245-4.899,2.124-5.637,4.636h-30.957c-2.863,0-5.192-2.329-5.192-5.192v-4.513c2.364-.973,4.03-3.296,4.03-6.012,0-2.91-1.913-5.373-4.55-6.202,0-11.714-.072-28.619-.097-34.152-.006-1.389-.163-2.769-.469-4.124-1.7-7.538-8.509-30.615-26.946-22.933-14.225,5.927-12.106,16.661-8.864,23.47,1.636,3.435,4.307,6.268,7.599,8.176,6.363,3.69,19.178,12.838,25.539,29.394-2.974.597-5.214,3.222-5.214,6.372,0,3.59,2.91,6.5,6.5,6.5.212,0,.421-.012.628-.032v4.056c0,3.879,3.156,7.035,7.034,7.035h30.691c.004,3.385,2.596,6.161,5.904,6.462v9.303c0,.064.006.127.007.191-.955,17.842-2.966,35.59-7.362,53.029-1.797,6.358,4.329,12.472,10.71,10.624,4.623-1.282,7.331-6.069,6.049-10.691-4.122-15.416-6.012-30.931-7.359-46.707-.055-.686-.098-1.372-.15-2.058.641.587,1.422,1.044,2.316,1.32.609.188,1.221.279,1.823.279,1.923,0,3.724-.935,4.874-2.62l16.492-24.171c.756.308,1.581.48,2.447.48,3.59,0,6.5-2.91,6.5-6.5,0-2.953-1.97-5.442-4.667-6.234,4.141-12.77,13.822-19.717,18.503-22.431,2.298-1.332,4.162-3.31,5.305-5.708,2.264-4.753,3.743-12.246-6.188-16.384Z" fill="#0c0d0b"/>
      <circle cx="136.992" cy="122.048" r="5.2" fill="#2a4c8c"/>
      <circle cx="136.992" cy="29.742" r="15.601" fill="#2a4c8c"/>
      <circle cx="136.992" cy="192.902" r="5.2" fill="#2a4c8c"/>
    </g>
  </g>
</svg>