<?xml version="1.0" encoding="UTF-8"?>
<svg id="Planta" xmlns="http://www.w3.org/2000/svg" width="275.651" height="450" viewBox="0 0 275.651 450">
  <g id="Tallo">
    <g>
      <line x1="137.941" y1="450" x2="137.941" fill="#0c0d0b" stroke="#0c0d0b" stroke-miterlimit="10" stroke-width="2.689"/>
      <path d="M215.588,288.66c-4.882-17.552-20.956-29.756-39.055-29.723-17.786.032-33.609,11.874-38.709,29.032-4.882-17.552-20.956-29.756-39.055-29.723-17.786.032-33.609,11.874-38.709,29.032" fill="none" stroke="#0c0d0b" stroke-miterlimit="10" stroke-width="1.417"/>
      <path d="M215.588,159.66c-4.882-17.552-20.956-29.756-39.055-29.723-17.786.032-33.609,11.874-38.709,29.032-4.882-17.552-20.956-29.756-39.055-29.723-17.786.032-33.609,11.874-38.709,29.032" fill="none" stroke="#0c0d0b" stroke-miterlimit="10" stroke-width="1.417"/>
    </g>
  </g>
  <g id="Hojas">
    <path d="M174.808,223.865c-9.663-.358-35.611-27.223-35.611-27.223h-.928v14.29h-.011v.221h-1.968s-25.948,26.865-35.611,27.223c-9.663.358-17.358-13.063-10.021-21.653s14.845-8.59,14.845-8.59h31.362v-14.518h1.403v.006h31.715s7.508,0,14.845,8.59c7.337,8.59-.358,22.011-10.021,21.653Z" fill="#0c0d0b"/>
  </g>
  <g id="Flores">
    <g>
      <path d="M59.414,162.633c.325.029.359.059.338.088l-.012.088-.023.176c-.472,3.633-.967,7.275-1.543,10.894,0,0-.898,5.623-.898,5.623-.663,3.803-.919,7.688-2.598,11.246-.893,1.806-2.355,3.717-2.885,5.623-.339,1.428-.439,2.919.379,4.217,1.302,1.751,3.874,2.866,5.586,4.217.743.627,2.531,1.935,1.655,2.811-.744.724.309,1.874,1.098,1.16.32-.303.334-.809.031-1.129-.258-.232-.306-.487-.257-.734.315-.885,1.068-1.433,1.881-2.109,1.249-.937,2.891-1.874,4.159-2.811,1.045-.79,1.823-1.624,1.96-2.811.558-2.834-1.32-5.358-2.67-7.731-1.143-1.981-1.609-4.154-2.061-6.326-1.17-7.124-2.389-14.634-3.3-21.788,0,0-.046-.351-.046-.351l-.023-.176s-.012-.088-.012-.088c-.021-.029.012-.059.338-.088-.007-.701-1.084-.738-1.098,0h0Z" fill="#0c0d0b"/>
      <path d="M37.689,150.955c3.615,0,6.579,2.773,6.889,6.307h38.185c.804,0,1.457-.654,1.457-1.457v-10.512c-2.577-.304-4.577-2.492-4.577-5.151,0-2.867,2.324-5.19,5.19-5.19s5.19,2.324,5.19,5.19c0,2.659-2,4.847-4.577,5.151v10.512c0,1.48-1.204,2.684-2.684,2.684h-38.185c-.311,3.534-3.274,6.307-6.889,6.307-3.822,0-6.92-3.098-6.92-6.92s3.098-6.92,6.92-6.92Z" fill="#0c0d0b"/>
      <circle cx="59.747" cy="157.443" r="8.218" fill="#0c0d0b"/>
      <circle cx="59.964" cy="157.875" r="3.46" fill="#2a4c8c"/>
      <path d="M21.685,125.22c0-8.958,7.262-16.22,16.22-16.22.695,0,1.378.049,2.051.134,7.004.223,13.973,4.081,17.846,11.678,5.093,10.64,3.523,20.919,3.538,30.337.002.923-1.244,1.213-1.647.383-1.801-3.711-4.037-7.697-5.135-8.795-1.73-1.73-2.317-5.172-12.111-1.73-4.908,1.725-9.019.86-12.159-1.466-5.118-2.728-8.602-8.116-8.602-14.32Z" fill="#0c0d0b"/>
      <circle cx="36.391" cy="124.138" r="8.218" fill="#2a4c8c"/>
    </g>
    <g>
      <path d="M59.414,298.633c.325.029.359.059.338.088l-.012.088-.023.176c-.472,3.633-.967,7.275-1.543,10.894,0,0-.898,5.623-.898,5.623-.663,3.803-.919,7.688-2.598,11.246-.893,1.806-2.355,3.717-2.885,5.623-.339,1.428-.439,2.919.379,4.217,1.302,1.751,3.874,2.866,5.586,4.217.743.627,2.531,1.935,1.655,2.811-.744.724.309,1.874,1.098,1.16.32-.303.334-.809.031-1.129-.258-.232-.306-.487-.257-.734.315-.885,1.068-1.433,1.881-2.109,1.249-.937,2.891-1.874,4.159-2.811,1.045-.79,1.823-1.624,1.96-2.811.558-2.834-1.32-5.358-2.67-7.731-1.143-1.981-1.609-4.154-2.061-6.326-1.17-7.124-2.389-14.634-3.3-21.788,0,0-.046-.351-.046-.351l-.023-.176s-.012-.088-.012-.088c-.021-.029.012-.059.338-.088-.007-.701-1.084-.738-1.098,0h0Z" fill="#0c0d0b"/>
      <path d="M37.689,286.955c3.615,0,6.579,2.773,6.889,6.307h38.185c.804,0,1.457-.654,1.457-1.457v-10.512c-2.577-.304-4.577-2.492-4.577-5.151,0-2.867,2.324-5.19,5.19-5.19s5.19,2.324,5.19,5.19c0,2.659-2,4.847-4.577,5.151v10.512c0,1.48-1.204,2.684-2.684,2.684h-38.185c-.311,3.534-3.274,6.307-6.889,6.307-3.822,0-6.92-3.098-6.92-6.92s3.098-6.92,6.92-6.92Z" fill="#0c0d0b"/>
      <circle cx="59.747" cy="293.443" r="8.218" fill="#0c0d0b"/>
      <circle cx="59.964" cy="293.875" r="3.46" fill="#2a4c8c"/>
      <path d="M21.685,261.22c0-8.958,7.262-16.22,16.22-16.22.695,0,1.378.049,2.051.134,7.004.223,13.973,4.081,17.846,11.678,5.093,10.64,3.523,20.919,3.538,30.337.002.923-1.244,1.213-1.647.383-1.801-3.711-4.037-7.697-5.135-8.795-1.73-1.73-2.317-5.172-12.111-1.73-4.908,1.725-9.019.86-12.159-1.466-5.118-2.728-8.602-8.116-8.602-14.32Z" fill="#0c0d0b"/>
      <circle cx="36.391" cy="260.138" r="8.218" fill="#2a4c8c"/>
    </g>
    <g>
      <path d="M217.295,162.633c-.325.029-.359.059-.338.088l.012.088.023.176c.472,3.633.967,7.275,1.543,10.894,0,0,.898,5.623.898,5.623.663,3.803.919,7.688,2.598,11.246.893,1.806,2.355,3.717,2.885,5.623.339,1.428.439,2.919-.379,4.217-1.302,1.751-3.874,2.866-5.586,4.217-.743.627-2.531,1.935-1.655,2.811.744.724-.309,1.874-1.098,1.16-.32-.303-.334-.809-.031-1.129.258-.232.306-.487.257-.734-.315-.885-1.068-1.433-1.881-2.109-1.249-.937-2.891-1.874-4.159-2.811-1.045-.79-1.823-1.624-1.96-2.811-.558-2.834,1.32-5.358,2.67-7.731,1.143-1.981,1.609-4.154,2.061-6.326,1.17-7.124,2.389-14.634,3.3-21.788,0,0,.046-.351.046-.351l.023-.176s.012-.088.012-.088c.021-.029-.012-.059-.338-.088.007-.701,1.084-.738,1.098,0h0Z" fill="#0c0d0b"/>
      <path d="M239.021,150.955c-3.615,0-6.579,2.773-6.889,6.307h-38.185c-.804,0-1.457-.654-1.457-1.457v-10.512c2.577-.304,4.577-2.492,4.577-5.151,0-2.867-2.324-5.19-5.19-5.19s-5.19,2.324-5.19,5.19c0,2.659,2,4.847,4.577,5.151v10.512c0,1.48,1.204,2.684,2.684,2.684h38.185c.311,3.534,3.274,6.307,6.889,6.307,3.822,0,6.92-3.098,6.92-6.92s-3.098-6.92-6.92-6.92Z" fill="#0c0d0b"/>
      <circle cx="216.962" cy="157.443" r="8.218" fill="#0c0d0b"/>
      <circle cx="216.746" cy="157.875" r="3.46" fill="#2a4c8c"/>
      <path d="M255.024,125.22c0-8.958-7.262-16.22-16.22-16.22-.695,0-1.378.049-2.051.134-7.004.223-13.973,4.081-17.846,11.678-5.093,10.64-3.523,20.919-3.538,30.337-.002.923,1.244,1.213,1.647.383,1.801-3.711,4.037-7.697,5.135-8.795,1.73-1.73,2.317-5.172,12.111-1.73,4.908,1.725,9.019.86,12.159-1.466,5.118-2.728,8.602-8.116,8.602-14.32Z" fill="#0c0d0b"/>
      <path d="M248.536,124.138c0,4.539-3.679,8.218-8.218,8.218s-8.218-3.679-8.218-8.218,3.679-8.218,8.218-8.218,8.218,3.679,8.218,8.218Z" fill="#2a4c8c"/>
    </g>
    <g>
      <path d="M217.295,298.633c-.325.029-.359.059-.338.088l.012.088.023.176c.472,3.633.967,7.275,1.543,10.894,0,0,.898,5.623.898,5.623.663,3.803.919,7.688,2.598,11.246.893,1.806,2.355,3.717,2.885,5.623.339,1.428.439,2.919-.379,4.217-1.302,1.751-3.874,2.866-5.586,4.217-.743.627-2.531,1.935-1.655,2.811.744.724-.309,1.874-1.098,1.16-.32-.303-.334-.809-.031-1.129.258-.232.306-.487.257-.734-.315-.885-1.068-1.433-1.881-2.109-1.249-.937-2.891-1.874-4.159-2.811-1.045-.79-1.823-1.624-1.96-2.811-.558-2.834,1.32-5.358,2.67-7.731,1.143-1.981,1.609-4.154,2.061-6.326,1.17-7.124,2.389-14.634,3.3-21.788,0,0,.046-.351.046-.351l.023-.176s.012-.088.012-.088c.021-.029-.012-.059-.338-.088.007-.701,1.084-.738,1.098,0h0Z" fill="#0c0d0b"/>
      <path d="M239.021,286.955c-3.615,0-6.579,2.773-6.889,6.307h-38.185c-.804,0-1.457-.654-1.457-1.457v-10.512c2.577-.304,4.577-2.492,4.577-5.151,0-2.867-2.324-5.19-5.19-5.19s-5.19,2.324-5.19,5.19c0,2.659,2,4.847,4.577,5.151v10.512c0,1.48,1.204,2.684,2.684,2.684h38.185c.311,3.534,3.274,6.307,6.889,6.307,3.822,0,6.92-3.098,6.92-6.92s-3.098-6.92-6.92-6.92Z" fill="#0c0d0b"/>
      <circle cx="216.962" cy="293.443" r="8.218" fill="#0c0d0b"/>
      <circle cx="216.746" cy="293.875" r="3.46" fill="#2a4c8c"/>
      <path d="M255.024,261.22c0-8.958-7.262-16.22-16.22-16.22-.695,0-1.378.049-2.051.134-7.004.223-13.973,4.081-17.846,11.678-5.093,10.64-3.523,20.919-3.538,30.337-.002.923,1.244,1.213,1.647.383,1.801-3.711,4.037-7.697,5.135-8.795,1.73-1.73,2.317-5.172,12.111-1.73,4.908,1.725,9.019.86,12.159-1.466,5.118-2.728,8.602-8.116,8.602-14.32Z" fill="#0c0d0b"/>
      <path d="M248.536,260.138c0,4.539-3.679,8.218-8.218,8.218s-8.218-3.679-8.218-8.218,3.679-8.218,8.218-8.218,8.218,3.679,8.218,8.218Z" fill="#2a4c8c"/>
    </g>
    <g>
      <g>
        <path d="M158.874,69.64c-5.566-1.903-11.326-2.524-18.033-2.108h-6.083c-6.707-.416-12.466.205-18.033,2.108-10.306,3.523-13.343,16.031-5.734,23.777,3.048,3.104,6.906,3.974,11.042,2.555,4.605-1.581,7.544-4.812,8.022-9.746.235-2.428-.181-4.92-.326-7.382-.26-4.436.243-7.964,5.72-10.595h5.034c5.477,2.631,5.646,6.159,5.386,10.595-.144,2.462-.561,4.955-.326,7.382.478,4.934,3.418,8.165,8.022,9.746,4.135,1.419,7.993.549,11.042-2.555,7.609-7.747,4.572-20.254-5.734-23.777Z" fill="#0c0d0b"/>
        <path d="M137.489,1.897c-27.614,0-50,22.386-50,50,0,6.589,1.287,12.873,3.603,18.634,4.949-12.312,14.654-22.195,26.839-27.384.138,10.859,8.978,19.62,19.869,19.62,10.804,0,19.588-8.622,19.863-19.36,11.897,5.257,21.358,15.019,26.224,27.124,2.316-5.76,3.603-12.045,3.603-18.634,0-27.614-22.386-50-50-50Z" fill="#0c0d0b"/>
      </g>
      <rect x="136.919" y="21.619" width="1.761" height="45.789" fill="#0c0d0b"/>
      <circle cx="137.835" cy="42.889" r="6.832" fill="#2a4c8c"/>
    </g>
  </g>
</svg>