<?xml version="1.0" encoding="UTF-8"?>
<svg id="Planta" xmlns="http://www.w3.org/2000/svg" width="275.651" height="450" viewBox="0 0 275.651 450">
  <g id="Tallo">
    <line x1="138.01" y1="450" x2="138.01" y2="103" fill="#0c0d0b" stroke="#0c0d0b" stroke-miterlimit="10" stroke-width="2.361"/>
  </g>
  <g id="Hojas">
    <path d="M175.854,257.865c-9.663-.358-35.611-27.223-35.611-27.223h-.928v14.29h-.011v.221h-1.968s-25.948,26.865-35.611,27.223c-9.663.358-17.358-13.063-10.021-21.653s14.845-8.59,14.845-8.59h31.362v-14.518h1.403v.006h31.715s7.508,0,14.845,8.59c7.337,8.59-.358,22.011-10.021,21.653Z" fill="#0c0d0b"/>
    <path d="M175.854,311.865c-9.663-.358-35.611-27.223-35.611-27.223h-.928v14.29h-.011v.221h-1.968s-25.948,26.865-35.611,27.223c-9.663.358-17.358-13.063-10.021-21.653s14.845-8.59,14.845-8.59h31.362v-14.518h1.403v.006h31.715s7.508,0,14.845,8.59c7.337,8.59-.358,22.011-10.021,21.653Z" fill="#0c0d0b"/>
    <path d="M175.854,365.865c-9.663-.358-35.611-27.223-35.611-27.223h-.928v14.29h-.011v.221h-1.968s-25.948,26.865-35.611,27.223c-9.663.358-17.358-13.063-10.021-21.653s14.845-8.59,14.845-8.59h31.362v-14.518h1.403v.006h31.715s7.508,0,14.845,8.59c7.337,8.59-.358,22.011-10.021,21.653Z" fill="#0c0d0b"/>
  </g>
  <g id="Flores">
    <g>
      <path d="M139.67,112.266c-.651.059-.718.117-.675.176l.023.176.046.351c.943,7.265,1.934,14.55,3.086,21.788,0,0,1.795,11.246,1.795,11.246,1.327,7.606,1.838,15.377,5.197,22.491,1.785,3.612,4.71,7.434,5.769,11.246.678,2.855.878,5.837-.758,8.434-2.603,3.502-7.748,5.732-11.173,8.434-1.485,1.254-5.063,3.87-3.311,5.623,1.488,1.448-.619,3.747-2.196,2.319-.64-.606-.668-1.617-.062-2.258.516-.464.612-.974.514-1.467-.63-1.77-2.136-2.865-3.762-4.217-2.499-1.874-5.781-3.748-8.318-5.623-2.089-1.58-3.646-3.248-3.919-5.623-1.116-5.667,2.639-10.716,5.339-15.463,2.286-3.962,3.218-8.307,4.122-12.651,2.339-14.248,4.778-29.269,6.6-43.577,0,0,.093-.703.093-.703l.046-.351s.023-.176.023-.176c.042-.059-.025-.117-.675-.176.014-1.402,2.169-1.477,2.196,0h0Z" fill="#0c0d0b"/>
      <path d="M183.121,88.91c-7.23,0-13.157,5.546-13.779,12.615h-76.37c-1.607,0-2.915-1.308-2.915-2.915v-21.024c5.154-.608,9.154-4.984,9.154-10.302,0-5.733-4.648-10.381-10.381-10.381s-10.381,4.648-10.381,10.381c0,5.317,4,9.694,9.154,10.302v21.024c0,2.959,2.408,5.367,5.367,5.367h76.37c.622,7.069,6.549,12.615,13.779,12.615,7.644,0,13.841-6.197,13.841-13.841s-6.197-13.841-13.841-13.841Z" fill="#0c0d0b"/>
      <circle cx="139.004" cy="101.885" r="16.436" fill="#0c0d0b"/>
      <circle cx="138.571" cy="102.75" r="6.92" fill="#2a4c8c"/>
      <path d="M215.128,37.439c0-17.916-14.524-32.439-32.439-32.439-1.39,0-2.757.097-4.101.267-14.007.445-27.947,8.161-35.692,23.357-10.186,21.281-7.045,41.838-7.075,60.675-.003,1.847,2.488,2.427,3.294.766,3.603-7.422,8.073-15.393,10.27-17.59,3.46-3.46,4.633-10.344,24.221-3.461,9.816,3.449,18.038,1.719,24.318-2.933,10.235-5.456,17.204-16.232,17.204-28.641Z" fill="#0c0d0b"/>
      <circle cx="185.717" cy="35.277" r="16.436" fill="#2a4c8c"/>
    </g>
  </g>
</svg>