<?xml version="1.0" encoding="UTF-8"?>
<svg id="Planta" xmlns="http://www.w3.org/2000/svg" width="100" height="100" viewBox="0 0 100 100">
  <g id="Tallo">
    <line x1="50.148" y1="99.733" x2="50.148" y2="26.851" fill="#0c0d0b" stroke="#0c0d0b" stroke-miterlimit="10" stroke-width=".51"/>
  </g>
  <g id="Hojas">
    <path d="M59.84,59.37c-1.091,1.11-2.471,1.422-3.95.914-1.647-.565-2.699-1.722-2.87-3.486-.084-.868.065-1.76.116-2.641.093-1.587.033-2.849-1.927-3.79h-1.801c-1.96.941-2.139,2.203-2.046,3.79.052.881.201,1.772.116,2.641-.171,1.765-1.223,2.921-2.87,3.486-1.479.508-2.86.196-3.95-.914-2.722-2.771-1.635-7.246,2.051-8.506,1.991-.681,4.052-.903,6.451-.754h2.176c2.399-.149,4.46.073,6.451.754,3.687,1.26,4.773,5.735,2.051,8.506Z" fill="#0c0d0b"/>
    <path d="M59.617,80.479c-1.091,1.11-2.471,1.422-3.95.914-1.647-.565-2.699-1.722-2.87-3.486-.084-.868.065-1.76.116-2.641.093-1.587.033-2.849-1.927-3.79h-1.801c-1.96.941-2.139,2.203-2.046,3.79.052.881.201,1.772.116,2.641-.171,1.765-1.223,2.921-2.87,3.486-1.479.508-2.86.196-3.95-.914-2.722-2.771-1.635-7.246,2.051-8.506,1.991-.681,4.052-.903,6.451-.754h2.176c2.399-.149,4.46.073,6.451.754,3.687,1.26,4.773,5.735,2.051,8.506Z" fill="#0c0d0b"/>
  </g>
  <g id="Flores">
    <g>
      <path d="M60.75,13.128c-2.86-1.192-3.916,2.388-4.18,3.557-.047.21-.072.424-.073.64-.004.914-.016,3.827-.015,5.639-.019,0-.037-.003-.055-.003-.798,0-1.444.647-1.444,1.444,0,.458.214.866.547,1.13l-3.649,5.347c-.281.413-.717.456-1.029.36-.313-.097-.647-.378-.647-.877v-2.088c.665-.129,1.167-.714,1.167-1.417s-.502-1.288-1.167-1.417v-3.988c.003-.014.005-.028.007-.042.627-3.666,2.691-6.991,4.054-10.401.435-1.078.798-2.15,1.096-3.25.154-.611.359-1.327.35-1.949-.048-1.706-1.519-3.507-2.971-4.531-1.335-1.058-3.127-1.51-4.748-.63-1.152.627-2.259,1.585-2.965,2.608-.563.868-1.006,1.735-.989,2.6-.004.622.209,1.339.366,1.946.306,1.096.679,2.167,1.123,3.241,1.391,3.399,3.482,6.708,4.138,10.368.052.261.094.523.129.785v3.223c-.597.054-1.089.472-1.253,1.03h-6.879c-.636,0-1.154-.518-1.154-1.154v-1.003c.525-.216.896-.732.896-1.336,0-.647-.425-1.194-1.011-1.378,0-2.603-.016-6.359-.021-7.589-.001-.309-.036-.615-.104-.916-.378-1.675-1.891-6.803-5.987-5.096-3.161,1.317-2.69,3.702-1.97,5.215.364.763.957,1.393,1.688,1.817,1.414.82,4.261,2.853,5.675,6.531-.661.133-1.159.716-1.159,1.416,0,.798.647,1.444,1.444,1.444.047,0,.094-.003.14-.007v.901c0,.862.701,1.563,1.563,1.563h6.819c0,.752.577,1.369,1.312,1.436v2.067c0,.014.001.028.002.043-.212,3.964-.659,7.908-1.636,11.783-.399,1.413.962,2.771,2.38,2.361,1.027-.285,1.629-1.348,1.344-2.376-.916-3.425-1.336-6.873-1.635-10.378-.012-.152-.022-.305-.033-.457.142.131.316.232.515.293.135.042.271.062.405.062.427,0,.827-.208,1.083-.582l3.665-5.371c.168.068.351.107.544.107.798,0,1.444-.647,1.444-1.444,0-.656-.438-1.209-1.037-1.385.92-2.838,3.071-4.381,4.111-4.984.511-.296.925-.735,1.179-1.268.503-1.056.832-2.721-1.375-3.64Z" fill="#0c0d0b"/>
      <circle cx="49.927" cy="26.862" r="1.156" fill="#2a4c8c"/>
      <circle cx="49.927" cy="6.351" r="3.467" fill="#2a4c8c"/>
      <circle cx="49.927" cy="42.605" r="1.156" fill="#2a4c8c"/>
    </g>
  </g>
</svg>