<?xml version="1.0" encoding="UTF-8"?>
<svg id="Planta" xmlns="http://www.w3.org/2000/svg" width="275.651" height="450" viewBox="0 0 275.651 450">
  <g id="Tallo">
    <g>
      <line x1="138.523" y1="451" x2="138.523" y2="83" fill="#0c0d0b" stroke="#0c0d0b" stroke-miterlimit="10" stroke-width="2.432"/>
      <path d="M58.353,226v-78.916c0-13.025,10.559-23.584,23.584-23.584h113.173c13.025,0,23.584,10.559,23.584,23.584v78.916" fill="none" stroke="#0c0d0b" stroke-miterlimit="10" stroke-width="1.417"/>
    </g>
  </g>
  <g id="Hojas">
    <path d="M175.762,378.865c-9.663-.358-35.611-27.223-35.611-27.223h-.928v14.29h-.011v.221h-1.968s-25.948,26.865-35.611,27.223c-9.663.358-17.358-13.063-10.021-21.653s14.845-8.59,14.845-8.59h31.362v-14.518h1.403v.006h31.715s7.508,0,14.845,8.59c7.337,8.59-.358,22.011-10.021,21.653Z" fill="#0c0d0b"/>
    <path d="M175.762,269.865c-9.663-.358-35.611-27.223-35.611-27.223h-.928v14.29h-.011v.221h-1.968s-25.948,26.865-35.611,27.223c-9.663.358-17.358-13.063-10.021-21.653s14.845-8.59,14.845-8.59h31.362v-14.518h1.403v.006h31.715s7.508,0,14.845,8.59c7.337,8.59-.358,22.011-10.021,21.653Z" fill="#0c0d0b"/>
    <path d="M175.762,160.865c-9.663-.358-35.611-27.223-35.611-27.223h-.928v14.29h-.011v.221h-1.968s-25.948,26.865-35.611,27.223c-9.663.358-17.358-13.063-10.021-21.653s14.845-8.59,14.845-8.59h31.362v-14.518h1.403v.006h31.715s7.508,0,14.845,8.59c7.337,8.59-.358,22.011-10.021,21.653Z" fill="#0c0d0b"/>
  </g>
  <g id="Flores">
    <g>
      <g>
        <path d="M68.833,249.453c-2.783-.951-5.663-1.262-9.016-1.054h-3.042c-3.354-.208-6.233.103-9.016,1.054-5.153,1.761-6.671,8.015-2.867,11.889,1.524,1.552,3.453,1.987,5.521,1.277,2.302-.79,3.772-2.406,4.011-4.873.118-1.214-.091-2.46-.163-3.691-.13-2.218.121-3.982,2.86-5.298h2.517c2.739,1.316,2.823,3.08,2.693,5.298-.072,1.231-.28,2.477-.163,3.691.239,2.467,1.709,4.083,4.011,4.873,2.068.71,3.997.275,5.521-1.277,3.804-3.873,2.286-10.127-2.867-11.889Z" fill="#0c0d0b"/>
        <path d="M58.14,215.581c-13.807,0-25,11.193-25,25,0,3.294.643,6.437,1.801,9.317,2.475-6.156,7.327-11.097,13.419-13.692.069,5.429,4.489,9.81,9.935,9.81,5.402,0,9.794-4.311,9.931-9.68,5.949,2.629,10.679,7.51,13.112,13.562,1.158-2.88,1.801-6.022,1.801-9.317,0-13.807-11.193-25-25-25Z" fill="#0c0d0b"/>
      </g>
      <rect x="57.855" y="225.442" width=".88" height="22.895" fill="#0c0d0b"/>
      <circle cx="58.313" cy="236.077" r="3.416" fill="#2a4c8c"/>
    </g>
    <g>
      <g>
        <path d="M229.833,251.453c-2.783-.951-5.663-1.262-9.016-1.054h-3.042c-3.354-.208-6.233.103-9.016,1.054-5.153,1.761-6.671,8.015-2.867,11.889,1.524,1.552,3.453,1.987,5.521,1.277,2.302-.79,3.772-2.406,4.011-4.873.118-1.214-.091-2.46-.163-3.691-.13-2.218.121-3.982,2.86-5.298h2.517c2.739,1.316,2.823,3.08,2.693,5.298-.072,1.231-.28,2.477-.163,3.691.239,2.467,1.709,4.083,4.011,4.873,2.068.71,3.997.275,5.521-1.277,3.804-3.873,2.286-10.127-2.867-11.889Z" fill="#0c0d0b"/>
        <path d="M219.14,217.581c-13.807,0-25,11.193-25,25,0,3.294.643,6.437,1.801,9.317,2.475-6.156,7.327-11.097,13.419-13.692.069,5.429,4.489,9.81,9.935,9.81,5.402,0,9.794-4.311,9.931-9.68,5.949,2.629,10.679,7.51,13.112,13.562,1.158-2.88,1.801-6.022,1.801-9.317,0-13.807-11.193-25-25-25Z" fill="#0c0d0b"/>
      </g>
      <rect x="218.855" y="227.442" width=".88" height="22.895" fill="#0c0d0b"/>
      <circle cx="219.313" cy="238.077" r="3.416" fill="#2a4c8c"/>
    </g>
    <g>
      <path d="M138.368,54.633c.325.029.359.059.338.088l-.012.088-.023.176c-.472,3.633-.967,7.275-1.543,10.894,0,0-.898,5.623-.898,5.623-.663,3.803-.919,7.688-2.598,11.246-.893,1.806-2.355,3.717-2.885,5.623-.339,1.428-.439,2.919.379,4.217,1.302,1.751,3.874,2.866,5.586,4.217.743.627,2.531,1.935,1.655,2.811-.744.724.309,1.874,1.098,1.16.32-.303.334-.809.031-1.129-.258-.232-.306-.487-.257-.734.315-.885,1.068-1.433,1.881-2.109,1.249-.937,2.891-1.874,4.159-2.811,1.045-.79,1.823-1.624,1.96-2.811.558-2.834-1.32-5.358-2.67-7.731-1.143-1.981-1.609-4.154-2.061-6.326-1.17-7.124-2.389-14.634-3.3-21.788,0,0-.046-.351-.046-.351l-.023-.176s-.012-.088-.012-.088c-.021-.029.012-.059.338-.088-.007-.701-1.084-.738-1.098,0h0Z" fill="#0c0d0b"/>
      <path d="M116.643,42.955c3.615,0,6.579,2.773,6.889,6.307h38.185c.804,0,1.457-.654,1.457-1.457v-10.512c-2.577-.304-4.577-2.492-4.577-5.151,0-2.867,2.324-5.19,5.19-5.19s5.19,2.324,5.19,5.19c0,2.659-2,4.847-4.577,5.151v10.512c0,1.48-1.204,2.684-2.684,2.684h-38.185c-.311,3.534-3.274,6.307-6.889,6.307-3.822,0-6.92-3.098-6.92-6.92s3.098-6.92,6.92-6.92Z" fill="#0c0d0b"/>
      <circle cx="138.701" cy="49.443" r="8.218" fill="#0c0d0b"/>
      <circle cx="138.918" cy="49.875" r="3.46" fill="#2a4c8c"/>
      <path d="M100.639,17.22c0-8.958,7.262-16.22,16.22-16.22.695,0,1.378.049,2.051.134,7.004.223,13.973,4.081,17.846,11.678,5.093,10.64,3.523,20.919,3.538,30.337.002.923-1.244,1.213-1.647.383-1.801-3.711-4.037-7.697-5.135-8.795-1.73-1.73-2.317-5.172-12.111-1.73-4.908,1.725-9.019.86-12.159-1.466-5.118-2.728-8.602-8.116-8.602-14.32Z" fill="#0c0d0b"/>
      <circle cx="115.345" cy="16.138" r="8.218" fill="#2a4c8c"/>
    </g>
  </g>
</svg>