<?xml version="1.0" encoding="UTF-8"?>
<svg id="Planta" xmlns="http://www.w3.org/2000/svg" width="100" height="100" viewBox="0 0 100 100">
  <g id="Tallo">
    <g>
      <line x1="49.799" y1="100.955" x2="49.799" y2="19.185" fill="#0c0d0b" stroke="#0c0d0b" stroke-miterlimit="10" stroke-width=".54"/>
      <path d="M31.985,50.96v-17.535c0-2.894,2.346-5.24,5.24-5.24h25.147c2.894,0,5.24,2.346,5.24,5.24v17.535" fill="none" stroke="#0c0d0b" stroke-miterlimit="10" stroke-width=".315"/>
    </g>
  </g>
  <g id="Hojas">
    <path d="M58.073,84.926c-2.147-.08-7.913-6.049-7.913-6.049h-.206v3.175h-.002v.049h-.437s-5.766,5.969-7.913,6.049c-2.147.08-3.857-2.903-2.227-4.811s3.299-1.909,3.299-1.909h6.969v-3.226h.312s.206.001.206.001h6.841s1.668,0,3.299,1.909c1.63,1.909-.08,4.891-2.227,4.811Z" fill="#0c0d0b"/>
    <path d="M58.073,60.707c-2.147-.08-7.913-6.049-7.913-6.049h-.206v3.175h-.002v.049h-.437s-5.766,5.969-7.913,6.049c-2.147.08-3.857-2.903-2.227-4.811s3.299-1.909,3.299-1.909h6.969v-3.226h.312s.206.001.206.001h6.841s1.668,0,3.299,1.909c1.63,1.909-.08,4.891-2.227,4.811Z" fill="#0c0d0b"/>
    <path d="M58.073,36.487c-2.147-.08-7.913-6.049-7.913-6.049h-.206v3.175h-.002v.049h-.437s-5.766,5.969-7.913,6.049c-2.147.08-3.857-2.903-2.227-4.811s3.299-1.909,3.299-1.909h6.969v-3.226h.312s.206.001.206.001h6.841s1.668,0,3.299,1.909c1.63,1.909-.08,4.891-2.227,4.811Z" fill="#0c0d0b"/>
  </g>
  <g id="Flores">
    <g>
      <g>
        <path d="M34.314,56.171c-.618-.211-1.258-.28-2.003-.234h-.676c-.745-.046-1.385.023-2.003.234-1.145.391-1.482,1.781-.637,2.642.339.345.767.441,1.227.284.512-.176.838-.535.891-1.083.026-.27-.02-.547-.036-.82-.029-.493.027-.885.636-1.177h.559c.609.292.627.684.598,1.177-.016.274-.062.55-.036.82.053.548.38.907.891,1.083.459.158.888.061,1.227-.284.845-.861.508-2.25-.637-2.642Z" fill="#0c0d0b"/>
        <path d="M31.938,48.645c-3.068,0-5.555,2.487-5.555,5.555,0,.732.143,1.43.4,2.07.55-1.368,1.628-2.466,2.982-3.042.015,1.206.997,2.18,2.207,2.18,1.2,0,2.176-.958,2.207-2.151,1.322.584,2.373,1.669,2.914,3.013.257-.64.4-1.338.4-2.07,0-3.068-2.487-5.555-5.555-5.555Z" fill="#0c0d0b"/>
      </g>
      <rect x="31.874" y="50.836" width=".196" height="5.087" fill="#0c0d0b"/>
      <circle cx="31.976" cy="53.199" r=".759" fill="#2a4c8c"/>
    </g>
    <g>
      <g>
        <path d="M70.088,56.615c-.618-.211-1.258-.28-2.003-.234h-.676c-.745-.046-1.385.023-2.003.234-1.145.391-1.482,1.781-.637,2.642.339.345.767.441,1.227.284.512-.176.838-.535.891-1.083.026-.27-.02-.547-.036-.82-.029-.493.027-.885.636-1.177h.559c.609.292.627.684.598,1.177-.016.274-.062.55-.036.82.053.548.38.907.891,1.083.459.158.888.061,1.227-.284.845-.861.508-2.25-.637-2.642Z" fill="#0c0d0b"/>
        <path d="M67.712,49.089c-3.068,0-5.555,2.487-5.555,5.555,0,.732.143,1.43.4,2.07.55-1.368,1.628-2.466,2.982-3.042.015,1.206.997,2.18,2.207,2.18,1.2,0,2.176-.958,2.207-2.151,1.322.584,2.373,1.669,2.914,3.013.257-.64.4-1.338.4-2.07,0-3.068-2.487-5.555-5.555-5.555Z" fill="#0c0d0b"/>
      </g>
      <rect x="67.649" y="51.28" width=".196" height="5.087" fill="#0c0d0b"/>
      <circle cx="67.75" cy="53.643" r=".759" fill="#2a4c8c"/>
    </g>
    <g>
      <path d="M49.764,12.882c.072.007.08.013.075.02l-.003.02-.005.039c-.105.807-.215,1.617-.343,2.421,0,0-.199,1.249-.199,1.249-.147.845-.204,1.708-.577,2.499-.198.401-.523.826-.641,1.249-.075.317-.098.649.084.937.289.389.861.637,1.241.937.165.139.562.43.368.625-.165.161.069.416.244.258.071-.067.074-.18.007-.251-.057-.051-.068-.108-.057-.163.07-.197.237-.318.418-.469.278-.208.642-.416.924-.625.232-.176.405-.361.435-.625.124-.63-.293-1.191-.593-1.718-.254-.44-.357-.923-.458-1.406-.26-1.583-.531-3.252-.733-4.841,0,0-.01-.078-.01-.078l-.005-.039s-.003-.02-.003-.02c-.005-.007.003-.013.075-.02-.002-.156-.241-.164-.244,0h0Z" fill="#0c0d0b"/>
      <path d="M44.937,10.287c.803,0,1.462.616,1.531,1.401h8.485c.179,0,.324-.145.324-.324v-2.336c-.573-.068-1.017-.554-1.017-1.145s.516-1.153,1.153-1.153,1.153.516,1.153,1.153-.444,1.077-1.017,1.145v2.336c0,.329-.267.596-.596.596h-8.485c-.069.785-.728,1.401-1.531,1.401-.849,0-1.538-.688-1.538-1.538s.688-1.538,1.538-1.538Z" fill="#0c0d0b"/>
      <circle cx="49.838" cy="11.729" r="1.826" fill="#0c0d0b"/>
      <circle cx="49.886" cy="11.825" r=".769" fill="#2a4c8c"/>
      <path d="M41.381,4.569c0-1.99,1.614-3.604,3.604-3.604.154,0,.306.011.456.03,1.556.049,3.105.907,3.965,2.595,1.132,2.364.783,4.648.786,6.741,0,.205-.276.27-.366.085-.4-.825-.897-1.71-1.141-1.954-.384-.384-.515-1.149-2.691-.384-1.091.383-2.004.191-2.702-.326-1.137-.606-1.911-1.803-1.911-3.182Z" fill="#0c0d0b"/>
      <circle cx="44.649" cy="4.329" r="1.826" fill="#2a4c8c"/>
    </g>
  </g>
</svg>