<?xml version="1.0" encoding="UTF-8"?>
<svg id="Planta" xmlns="http://www.w3.org/2000/svg" width="275.651" height="450" viewBox="0 0 275.651 450">
  <g id="Tallo">
    <line x1="137.964" y1="450" x2="137.964" fill="#0c0d0b" stroke="#0c0d0b" stroke-miterlimit="10" stroke-width="2.689"/>
  </g>
  <g id="Hojas">
    <path d="M157.96,135.401l-19.724-19.724-.144-.144-19.868,19.868c-17.97-6.507-32.829,1.81-29.719,22.105.228,1.56.617,3.226,1.07,4.742,1.481.555,3.118,1.056,4.659,1.389,19.909,4.449,29.231-9.604,24.156-27.827l19.701-19.701,19.7,19.7c-5.073,18.211,4.237,32.279,24.156,27.828,1.541-.333,3.176-.834,4.659-1.389.454-1.515.842-3.183,1.07-4.742,3.11-20.285-11.736-28.615-29.718-22.105Z" fill="#0c0d0b"/>
    <path d="M157.96,199.401l-19.724-19.724-.144-.144-19.868,19.868c-17.97-6.507-32.829,1.81-29.719,22.105.228,1.56.617,3.226,1.07,4.742,1.481.555,3.118,1.056,4.659,1.389,19.909,4.449,29.231-9.604,24.156-27.827l19.701-19.701,19.7,19.7c-5.073,18.211,4.237,32.279,24.156,27.828,1.541-.333,3.176-.834,4.659-1.389.454-1.515.842-3.183,1.07-4.742,3.11-20.285-11.736-28.615-29.718-22.105Z" fill="#0c0d0b"/>
    <path d="M157.96,263.401l-19.724-19.724-.144-.144-19.868,19.868c-17.97-6.507-32.829,1.81-29.719,22.105.228,1.56.617,3.226,1.07,4.742,1.481.555,3.118,1.056,4.659,1.389,19.909,4.449,29.231-9.604,24.156-27.827l19.701-19.701,19.7,19.7c-5.073,18.211,4.237,32.279,24.156,27.828,1.541-.333,3.176-.834,4.659-1.389.454-1.515.842-3.183,1.07-4.742,3.11-20.285-11.736-28.615-29.718-22.105Z" fill="#0c0d0b"/>
    <path d="M157.96,327.401l-19.724-19.724-.144-.144-19.868,19.868c-17.97-6.507-32.829,1.81-29.719,22.105.228,1.56.617,3.226,1.07,4.742,1.481.555,3.118,1.056,4.659,1.389,19.909,4.449,29.231-9.604,24.156-27.827l19.701-19.701,19.7,19.7c-5.073,18.211,4.237,32.279,24.156,27.828,1.541-.333,3.176-.834,4.659-1.389.454-1.515.842-3.183,1.07-4.742,3.11-20.285-11.736-28.615-29.718-22.105Z" fill="#0c0d0b"/>
  </g>
  <g id="Flores">
    <g>
      <g>
        <path d="M159.571,67.64c-5.566-1.903-11.326-2.524-18.033-2.108h-6.083c-6.707-.416-12.466.205-18.033,2.108-10.306,3.523-13.343,16.031-5.734,23.777,3.048,3.104,6.906,3.974,11.042,2.555,4.605-1.581,7.544-4.812,8.022-9.746.235-2.428-.181-4.92-.326-7.382-.26-4.436.243-7.964,5.72-10.595h5.034c5.477,2.631,5.646,6.159,5.386,10.595-.144,2.462-.561,4.955-.326,7.382.478,4.934,3.418,8.165,8.022,9.746,4.135,1.419,7.993.549,11.042-2.555,7.609-7.747,4.572-20.254-5.734-23.777Z" fill="#0c0d0b"/>
        <path d="M138.186-.103c-27.614,0-50,22.386-50,50,0,6.589,1.287,12.873,3.603,18.634,4.949-12.312,14.654-22.195,26.839-27.384.138,10.859,8.978,19.62,19.869,19.62,10.804,0,19.588-8.622,19.863-19.36,11.897,5.257,21.358,15.019,26.224,27.124,2.316-5.76,3.603-12.045,3.603-18.634C188.186,22.283,165.8-.103,138.186-.103Z" fill="#0c0d0b"/>
      </g>
      <rect x="137.616" y="19.619" width="1.761" height="45.789" fill="#0c0d0b"/>
      <circle cx="138.532" cy="40.889" r="6.832" fill="#2a4c8c"/>
      <circle cx="118.532" cy="83.889" r="6.832" fill="#2a4c8c"/>
    </g>
  </g>
</svg>