<svg width="800" height="600" xmlns="http://www.w3.org/2000/svg">

 <g>
  <title>Layer 1</title>
  <path fill-opacity="0" stroke-width="5" stroke="#7f3f00" d="m2.36268,600c0,0 0,-2.67913 0,-5.35826c0,-1.33956 0,-6.69782 0,-8.03738c0,-2.67913 0,-5.35826 0,-8.03738c0,-2.67913 0,-4.01869 0,-5.35826c0,-1.33956 0,-2.67913 0,-4.01869c0,-1.33956 0,-4.01869 0,-6.69782c0,-1.33956 0,-4.01869 0,-5.35826c0,-2.67913 0,-4.01869 0,-5.35826c0,-1.33956 0,-2.67913 0,-2.67913c0,-1.33956 0,-2.67913 0,-4.01869c0,-1.33956 0,-2.67913 0,-5.35826c0,-2.67913 0,-4.01869 0,-6.69782c0,-4.01869 0,-6.69782 0,-9.37695c0,-2.67913 0,-5.35826 0,-9.37695c0,-1.33956 0,-5.35826 0,-9.37695c0,-4.01869 0,-6.69782 0,-9.37695c0,-4.01869 0,-8.03738 0,-10.71651c0,-2.67913 0,-6.69782 0,-8.03738c0,-4.01869 0,-9.37695 0,-14.7352c0,-2.67913 0,-5.35826 0,-9.37695c0,-2.67913 0,-6.69782 0,-9.37695c0,-2.67913 0,-4.01869 0,-6.69782c0,-2.67913 0,-4.01869 0,-6.69782c0,-1.33956 0,-5.35826 0,-6.69782c0,-4.01869 0,-6.69782 0,-9.37695c0,-4.01869 0,-5.35826 0,-9.37695c0,-2.67913 0,-5.35826 0,-9.37695c0,-1.33956 0,-6.69782 0,-10.71651c0,-4.01869 0,-9.37695 0,-13.39564c0,-4.01869 0,-6.69782 0,-9.37695c0,-4.01869 0,-8.03738 0,-12.05607c0,-4.01869 -1.96405,-8.34329 0,-12.05607c0.92588,-1.75021 1.71079,-6.69782 1.71079,-10.71651c0,-4.01869 0.85122,-6.5984 1.71079,-13.39564c0.50575,-3.99915 0,-5.35826 0,-12.05607c0,-4.01869 -0.62708,-8.06751 0,-12.05607c0.86187,-5.4818 1.71079,-10.71651 1.71079,-12.05607c0,-6.69782 0.84422,-9.21428 1.71079,-13.39564c0.54809,-2.64454 -0.78611,-6.76948 0,-9.37695c0.87889,-2.91521 1.71079,-5.35826 1.71079,-9.37695c0,-2.67913 1.71079,-6.69782 1.71079,-8.03738c0,-2.67913 1.71079,-5.35826 1.71079,-8.03738c0,-1.33956 0,-4.01869 0,-5.35826c0,-1.33956 0,-1.33956 0,-4.01869c0,0 0.8319,-2.44302 1.71079,-5.35826c0.78611,-2.60746 0.8319,-3.78259 1.71079,-6.69782c0.78611,-2.60746 0.78491,-3.60803 1.71079,-5.35826c0.6547,-1.23759 0,-2.67913 0,-4.01869c0,0 0.8319,-1.10346 1.71079,-4.01869c0.39308,-1.30373 0.8319,-2.44302 1.71079,-5.35826c0.39308,-1.30373 0.78491,-3.60803 1.71079,-5.35826c0.6547,-1.23759 0.78491,-2.26847 1.71079,-4.01869c0.6547,-1.23759 0,-1.33956 1.71079,-2.67913c0,0 0,-1.33956 0,-1.33956c0,-1.33956 1.71079,-1.33956 1.71079,-1.33956c0,-1.33956 0,-1.33956 1.71079,-1.33956c0,0 -1.20968,-0.39235 0,-1.33956c1.20968,-0.94722 1.71079,0 3.42157,0c0,0 0,0 0,0c1.71079,0 1.71079,0 1.71079,-1.33956c0,0 1.71079,0 1.71079,0c0,0 0,0 0,0c1.71079,0 1.71079,0 1.71079,0l0,0l0,0" id="svg_1" fill="#ffffff"/>
 </g>
</svg>