<?xml version="1.0" encoding="UTF-8"?>
<svg id="a" data-name="Capa 1" xmlns="http://www.w3.org/2000/svg" viewBox="0 0 284.94 243.57">
  <defs>
    <style>
      .b {
        fill: #0fa63c;
      }

      .b, .c, .d {
        stroke-width: 0px;
      }

      .c {
        fill: #5abdb3;
      }

      .d {
        fill: #1d1d1b;
      }
    </style>
  </defs>
  <path class="b" d="m267.33,95.88C242.17,19.87,155.67-15.38,84.33,20.64,17.82,54.22-8.59,133.94,25.01,200.52c7.06,13.99,16.17,26.58,28.35,36.59h88.42l.14-43.06c-.58-.18-1.44-.75-2.31-.79-36.11-1.47-65.05-33.79-60.43-72.01,2.36-19.52,11.85-34.92,28.37-45.39,21.59-13.68,44.41-15.17,67.06-3.06,22.11,11.82,33.31,31.18,33.71,56.14.53,33.79-23.29,60.17-57.35,64.27-1.04.13-1.98.49-2.55.85v43.06h83.15c2.37-2.05,4.74-4.09,6.9-6.34,14.02-14.61,23.6-31.57,29.71-51.09,8.85-28.28,8.26-56.29-.85-83.82Z"/>
  <path class="d" d="m78.29,129.01c0,37.1,30.08,67.18,67.18,67.18V61.83c-37.1,0-67.18,30.08-67.18,67.18Z"/>
  <path class="c" d="m212.65,129.01c0-37.1-30.08-67.18-67.18-67.18v134.36c37.1,0,67.18-30.08,67.18-67.18Z"/>
</svg>