<?xml version="1.0" encoding="UTF-8"?>
<svg id="a" data-name="Capa 1" xmlns="http://www.w3.org/2000/svg" viewBox="0 0 113.36 200.37">
  <defs>
    <style>
      .b {
        fill: #0fa63c;
      }

      .b, .c, .d, .e {
        stroke-width: 0px;
      }

      .c {
        fill: #035949;
      }

      .d {
        fill: #8dc47d;
      }

      .e {
        fill: #1d1d1b;
      }
    </style>
  </defs>
  <path class="e" d="m58.93,177.59h0c-.79-15.16-1.66-125.18-2-170.78-1.08-.03-2.14.59-3.41,2-12.23,13.57-24.11,27.45-33.01,43.47-16.39,29.5-17.57,72.56,7.27,102.86,6.96,8.49,15.54,15.5,25.08,20.75l2.11,17.68h5.51l-1.54-15.98Z"/>
  <path class="b" d="m64.89,172.37c7.33-9.02,16.45-16.42,23.19-26,24.06-34.18,21.89-83.01-5.18-114.96-7.02-8.28-14.92-15.62-22.89-22.93-1.15-1.06-2.13-1.61-3.09-1.64.36,48.65,1.33,170.64,2.15,172.5l5.81-6.96h0Z"/>
  <path class="c" d="m57.21,42.02c-.68-.02-1.36.37-2.16,1.27-7.77,8.62-15.31,17.43-20.96,27.61-10.41,18.73-11.16,46.08,4.61,65.32,4.47,5.46,10,9.96,16.14,13.3.51.28,1.49.83,2.19,1.19l1.54.86c-.52-1.18-1.14-78.65-1.37-109.54Z"/>
  <path class="d" d="m62.27,147.15c4.66-5.73,10.45-10.43,14.73-16.51,15.28-21.7,13.9-52.72-3.29-73-4.46-5.26-9.48-9.92-14.53-14.56-.73-.67-1.35-1.02-1.96-1.04.23,30.9.84,108.36,1.37,109.54l3.69-4.42h0Z"/>
</svg>