<?xml version="1.0" encoding="UTF-8"?>
<svg id="Planta" xmlns="http://www.w3.org/2000/svg" width="100" height="100" viewBox="0 0 100 100">
  <g id="background" data-name="background">
    <ellipse cx="46.173" cy="70.269" rx="8.965" ry="9.072" fill="#2a4c8c" opacity=".33"/>
  </g>
  <g id="root">
    <line x1="45.734" y1="77.561" x2="45.734" y2="99.562" fill="none" stroke="#0c0d0b" stroke-miterlimit="10" stroke-width=".138"/>
    <path d="M45.283,77.561v11.361c0,.974-.767,1.763-1.712,1.763h-1.98c-.946,0-1.712.789-1.712,1.763v1.368c0,.974-.767,1.763-1.712,1.763h-8.559c-.946,0-1.712.789-1.712,1.763v1.181" fill="none" stroke="#0c0d0b" stroke-miterlimit="10" stroke-width=".138"/>
    <path d="M44.787,75.957v13.513c0,1.044-.682,1.89-1.524,1.89h0c-.842,0-1.524.846-1.524,1.89v6.761" fill="none" stroke="#0c0d0b" stroke-miterlimit="10" stroke-width=".135"/>
    <path d="M46.278,77.561v11.361c0,.974.767,1.763,1.712,1.763h1.98c.946,0,1.712.789,1.712,1.763v1.368c0,.974.767,1.763,1.712,1.763h8.559c.946,0,1.712.789,1.712,1.763v1.181" fill="none" stroke="#0c0d0b" stroke-miterlimit="10" stroke-width=".138"/>
    <path d="M46.774,75.957v13.513c0,1.044.682,1.89,1.524,1.89h0c.842,0,1.524.846,1.524,1.89v6.761" fill="none" stroke="#0c0d0b" stroke-miterlimit="10" stroke-width=".135"/>
  </g>
  <g id="seed">
    <g>
      <path d="M46.038,73.195c2.054-.247,3.937-2.619,2.646-5.029-.321-.6-.762-1.135-1.152-1.698-.481-.694-.996-1.367-1.436-2.086-.175-.287-.25-.668-.267-1.012-.039-.782-.012-1.567-.014-2.351,0-.091-.011-.182-.017-.272-.028,0-.055,0-.083-.001-.007.079-.02.158-.02.238,0,.695-.032,1.392.01,2.084.044.737-.184,1.373-.602,1.948-.376.518-.782,1.015-1.19,1.509-.477.578-.962,1.147-1.249,1.853-.695,1.708-.214,3.317,1.271,4.25.528.332,1.107.52,1.746.597.013.591.138,1.181-.363,1.659-.177.169-.31.391-.442.601-.264.422-.369.888-.311,1.381.061.514.301.914.814,1.091.452.156.864.037,1.167-.307.173-.195.31-.469.35-.725.133-.836-.214-1.526-.748-2.145-.13-.151-.291-.324-.318-.505-.051-.338-.015-.688-.015-1.046.082-.013.151-.025.22-.033ZM46.561,76.642c0,.459-.372.83-.83.83s-.83-.372-.83-.83.372-.83.83-.83.83.372.83.83ZM45.731,71.673c-.822,0-1.489-.666-1.489-1.489s.666-1.489,1.489-1.489,1.489.666,1.489,1.489-.666,1.489-1.489,1.489Z" fill="#0c0c0c"/>
      <circle cx="45.731" cy="70.033" r=".83" fill="#294d8c"/>
      <circle cx="45.731" cy="76.642" r=".628" fill="#294d8c"/>
    </g>
  </g>
  <g id="soil">
    <g>
      <path d="M67.361,60.796c-1.79,2.766-4.485,4.669-7.251,5.266-.203.038-.405.088-.608.101-.836-.054-1.244-.949-1.825-1.843-.329-.536-.749-1.248-1.216-1.549-.405-.269-.811-.217-1.216.047-.811.491-1.622,2.355-2.433,3.152-.371.383-.764.538-1.216.502-.405-.006-.811-.067-1.216-.183-1.725-.478-3.253-2.035-4.865-2.793-1.171-.551-2.407-.8-3.649-.797-.837.03-1.646.329-2.433.717-.203.108-.405.18-.608.369-1.224,1.127-1.73,4.516-3.649,2.786-.627-.589-1.23-1.627-1.825-2.264-.333-.381-.834-.728-1.216-1.042-1.134-.884-2.366-1.789-3.559-2.469h38.786Z" fill="#2a4c8c"/>
      <path d="M67.361,60.796c-1.79,2.25-4.485,3.799-7.251,4.285-.203.031-.405.072-.608.083-.836-.044-1.244-.772-1.825-1.5-.329-.436-.749-1.015-1.216-1.26-.405-.219-.811-.177-1.216.038-.811.4-1.622,1.916-2.433,2.565-.371.312-.764.438-1.216.409-.405-.005-.811-.054-1.216-.149-1.725-.389-3.253-1.656-4.865-2.272-1.171-.448-2.407-.651-3.649-.648-.837.025-1.646.268-2.433.583-.203.088-.405.146-.608.3-1.224.917-1.73,3.675-3.649,2.267-.627-.479-1.23-1.324-1.825-1.842-.333-.31-.834-.592-1.216-.848-1.134-.719-2.366-1.455-3.559-2.009h38.786Z" fill="#0c0d0b"/>
    </g>
  </g>
  <g id="stem">
    <path d="M44.174,60.827c.203-6.803.962-13.595,1.253-20.387.304-9.813.157-20.708.189-30.581-.226-10.031,13.212-13.63,18.153-5.042.821,1.47,1.246,3.276,1.11,4.915.181-3.428-1.748-6.752-4.722-8.421-2.939-1.711-6.762-1.378-9.699.149-3.018,1.579-4.671,5.059-4.671,8.4l-.003,10.194c.017,6.796-.042,13.591.192,20.387.292,6.792,1.05,13.584,1.253,20.387,0,0-3.055,0-3.055,0h0Z" fill="#0c0d0b"/>
    <path d="M44.111,61.34c.203-6.804.962-13.595,1.253-20.387.233-6.796.174-13.591.192-20.387l-.003-10.194c0-3.341-1.653-6.821-4.671-8.4-2.937-1.527-6.759-1.859-9.699-.148-2.973,1.67-4.903,4.992-4.721,8.421-.288-3.388,1.704-6.828,4.664-8.52,4.416-2.545,11.064-.977,13.395,3.7.768,1.53,1.225,3.229,1.203,4.946l-.003,10.194c.017,6.796-.042,13.592.192,20.387.292,6.793,1.05,13.584,1.253,20.387,0,0-3.055,0-3.055,0h0Z" fill="#0c0d0b"/>
  </g>
  <g id="leaf">
    <path d="M48.524,19.921l-2.875-2.875-.021-.021-2.896,2.896c-2.62-.949-4.786.264-4.332,3.223.033.227.09.47.156.691.216.081.455.154.679.202,2.902.649,4.261-1.4,3.522-4.057l2.872-2.872,2.872,2.872c-.74,2.655.618,4.706,3.522,4.057.225-.049.463-.122.679-.202.066-.221.123-.464.156-.691.453-2.957-1.711-4.172-4.332-3.223Z" fill="#0c0d0b"/>
    <path d="M48.524,29.251l-2.875-2.875-.021-.021-2.896,2.896c-2.62-.949-4.786.264-4.332,3.223.033.227.09.47.156.691.216.081.455.154.679.202,2.902.649,4.261-1.4,3.522-4.057l2.872-2.872,2.872,2.872c-.74,2.655.618,4.706,3.522,4.057.225-.049.463-.122.679-.202.066-.221.123-.464.156-.691.453-2.957-1.711-4.172-4.332-3.223Z" fill="#0c0d0b"/>
    <path d="M48.524,38.581l-2.875-2.875-.021-.021-2.896,2.896c-2.62-.949-4.786.264-4.332,3.223.033.227.09.47.156.691.216.081.455.154.679.202,2.902.649,4.261-1.4,3.522-4.057l2.872-2.872,2.872,2.872c-.74,2.655.618,4.706,3.522,4.057.225-.049.463-.122.679-.202.066-.221.123-.464.156-.691.453-2.957-1.711-4.172-4.332-3.223Z" fill="#0c0d0b"/>
    <path d="M48.524,47.911l-2.875-2.875-.021-.021-2.896,2.896c-2.62-.949-4.786.264-4.332,3.223.033.227.09.47.156.691.216.081.455.154.679.202,2.902.649,4.261-1.4,3.522-4.057l2.872-2.872,2.872,2.872c-.74,2.655.618,4.706,3.522,4.057.225-.049.463-.122.679-.202.066-.221.123-.464.156-.691.453-2.957-1.711-4.172-4.332-3.223Z" fill="#0c0d0b"/>
  </g>
  <g id="flower">
    <g>
      <path d="M26.894,6.595c2.881,1.381-.08,2.762.87,4.142.394.685,1.876,1.167,2.168,2.071.557,1.033.453,2.06.831,3.107.232.676.854,1.367.977,2.071.168,1.882-2.938,4.346-4.88,5.178-2.242-1.141-3.635-2.287-4.661-4.142-.174-.345-.243-.69-.185-1.036.123-.705.745-1.395.977-2.071.379-1.046.275-2.074.831-3.107.291-.903,1.774-1.388,2.168-2.071.942-1.358-2.022-2.842.904-4.142h0Z" fill="#2a4c8c"/>
      <circle cx="26.808" cy="18.709" r="2.742" fill="#0c0d0b"/>
    </g>
    <g>
      <path d="M64.894,6.595c2.881,1.381-.08,2.762.87,4.142.394.685,1.876,1.167,2.168,2.071.557,1.033.453,2.06.831,3.107.232.676.854,1.367.977,2.071.168,1.882-2.938,4.346-4.88,5.178-2.242-1.141-3.635-2.287-4.661-4.142-.174-.345-.243-.69-.185-1.036.123-.705.745-1.395.977-2.071.379-1.046.275-2.074.831-3.107.291-.903,1.774-1.388,2.168-2.071.942-1.358-2.022-2.842.904-4.142h0Z" fill="#2a4c8c"/>
      <circle cx="64.808" cy="18.709" r="2.742" fill="#0c0d0b"/>
    </g>
  </g>
</svg>