<?xml version="1.0" encoding="UTF-8"?>
<svg id="Planta" xmlns="http://www.w3.org/2000/svg" width="100" height="100" viewBox="0 0 100 100">
  <g id="Fondo-2" data-name="Fondo">
    <ellipse cx="53.173" cy="70.269" rx="8.965" ry="9.072" fill="#2a4c8c" opacity=".33"/>
  </g>
  <g id="Raices">
    <line x1="53.005" y1="77.55" x2="53.005" y2="99.551" fill="none" stroke="#0c0d0b" stroke-miterlimit="10" stroke-width=".138"/>
    <path d="M52.554,77.55v11.361c0,.974-.767,1.763-1.712,1.763h-1.98c-.946,0-1.712.789-1.712,1.763v1.368c0,.974-.767,1.763-1.712,1.763h-8.559c-.946,0-1.712.789-1.712,1.763v1.181" fill="none" stroke="#0c0d0b" stroke-miterlimit="10" stroke-width=".138"/>
    <path d="M52.058,75.947v13.513c0,1.044-.682,1.89-1.524,1.89h0c-.842,0-1.524.846-1.524,1.89v6.761" fill="none" stroke="#0c0d0b" stroke-miterlimit="10" stroke-width=".135"/>
    <path d="M53.549,77.55v11.361c0,.974.767,1.763,1.712,1.763h1.98c.946,0,1.712.789,1.712,1.763v1.368c0,.974.767,1.763,1.712,1.763h8.559c.946,0,1.712.789,1.712,1.763v1.181" fill="none" stroke="#0c0d0b" stroke-miterlimit="10" stroke-width=".138"/>
    <path d="M54.045,75.947v13.513c0,1.044.682,1.89,1.524,1.89h0c.842,0,1.524.846,1.524,1.89v6.761" fill="none" stroke="#0c0d0b" stroke-miterlimit="10" stroke-width=".135"/>
  </g>
  <g id="Semilla">
    <g>
      <path d="M53.309,73.185c2.054-.247,3.937-2.619,2.646-5.029-.321-.6-.762-1.135-1.152-1.698-.481-.694-.996-1.367-1.436-2.086-.175-.287-.25-.668-.267-1.012-.039-.782-.012-1.567-.014-2.351,0-.091-.011-.182-.017-.272-.028,0-.055,0-.083-.001-.007.079-.02.158-.02.238,0,.695-.032,1.392.01,2.084.044.737-.184,1.373-.602,1.948-.376.518-.782,1.015-1.19,1.509-.477.578-.962,1.147-1.249,1.853-.695,1.708-.214,3.317,1.271,4.25.528.332,1.107.52,1.746.597.013.591.138,1.181-.363,1.659-.177.169-.31.391-.442.601-.264.422-.369.888-.311,1.381.061.514.301.914.814,1.091.452.156.864.037,1.167-.307.173-.195.31-.469.35-.725.133-.836-.214-1.526-.748-2.145-.13-.151-.291-.324-.318-.505-.051-.338-.015-.688-.015-1.046.082-.013.151-.025.22-.033ZM53.832,76.631c0,.459-.372.83-.83.83s-.83-.372-.83-.83.372-.83.83-.83.83.372.83.83ZM53.002,71.663c-.822,0-1.489-.666-1.489-1.489s.666-1.489,1.489-1.489,1.489.666,1.489,1.489-.666,1.489-1.489,1.489Z" fill="#0c0c0c"/>
      <circle cx="53.002" cy="70.023" r=".83" fill="#294d8c"/>
      <circle cx="53.002" cy="76.631" r=".628" fill="#294d8c"/>
    </g>
  </g>
  <g id="Suelo">
    <g>
      <path d="M29.601,60.785c1.79,2.766,4.485,4.669,7.251,5.266.203.038.405.088.608.101.836-.054,1.244-.949,1.825-1.843.329-.536.749-1.248,1.216-1.549.405-.269.811-.217,1.216.047.811.491,1.622,2.355,2.433,3.152.371.383.764.538,1.216.502.405-.006.811-.067,1.216-.183,1.725-.478,3.253-2.035,4.865-2.793,1.171-.551,2.407-.8,3.649-.797.837.03,1.646.329,2.433.717.203.108.405.18.608.369,1.224,1.127,1.73,4.516,3.649,2.786.627-.589,1.23-1.627,1.825-2.264.333-.381.834-.728,1.216-1.042,1.134-.884,2.366-1.789,3.559-2.469H29.601Z" fill="#2a4c8c"/>
      <path d="M29.601,60.785c1.79,2.25,4.485,3.799,7.251,4.285.203.031.405.072.608.083.836-.044,1.244-.772,1.825-1.5.329-.436.749-1.015,1.216-1.26.405-.219.811-.177,1.216.038.811.4,1.622,1.916,2.433,2.565.371.312.764.438,1.216.409.405-.005.811-.054,1.216-.149,1.725-.389,3.253-1.656,4.865-2.272,1.171-.448,2.407-.651,3.649-.648.837.025,1.646.268,2.433.583.203.088.405.146.608.3,1.224.917,1.73,3.675,3.649,2.267.627-.479,1.23-1.324,1.825-1.842.333-.31.834-.592,1.216-.848,1.134-.719,2.366-1.455,3.559-2.009H29.601Z" fill="#0c0d0b"/>
    </g>
  </g>
  <g id="Tallo">
    <path d="M51.486,60.827c.203-6.803.962-13.595,1.253-20.387.233-6.796.174-13.592.192-20.387,0,0-.003-10.194-.003-10.194,0-3.341-1.653-6.821-4.671-8.4-2.937-1.527-6.759-1.859-9.699-.148-2.973,1.67-4.903,4.992-4.721,8.421-.288-3.388,1.704-6.828,4.664-8.52,4.416-2.545,11.064-.977,13.395,3.7.768,1.53,1.225,3.229,1.203,4.946,0,0-.003,10.194-.003,10.194.017,6.796-.042,13.592.192,20.387.292,6.793,1.05,13.584,1.253,20.387,0,0-3.055,0-3.055,0h0Z" fill="#0c0d0b"/>
    <g>
      <path d="M64.377,42.313c-.712-2.559-3.055-4.338-5.694-4.333-2.593.005-4.9,1.731-5.643,4.232-.712-2.559-3.055-4.338-5.694-4.333-2.593.005-4.9,1.731-5.643,4.232" fill="none" stroke="#0c0d0b" stroke-miterlimit="10" stroke-width=".207"/>
      <path d="M64.377,23.507c-.712-2.559-3.055-4.338-5.694-4.333-2.593.005-4.9,1.731-5.643,4.232-.712-2.559-3.055-4.338-5.694-4.333-2.593.005-4.9,1.731-5.643,4.232" fill="none" stroke="#0c0d0b" stroke-miterlimit="10" stroke-width=".207"/>
    </g>
  </g>
  <g id="Hojas">
    <path d="M59.379,34.345c-.716.728-1.621.933-2.592.6-1.081-.371-1.771-1.129-1.883-2.287-.055-.57.043-1.155.076-1.733.061-1.041.022-1.869-1.264-2.487h-1.182c-1.286.618-1.404,1.446-1.343,2.487.034.578.132,1.163.076,1.733-.112,1.158-.802,1.917-1.883,2.287-.971.333-1.876.129-2.592-.6-1.786-1.818-1.073-4.754,1.346-5.581,1.306-.447,2.658-.592,4.232-.495h1.428c1.574-.098,2.926.048,4.232.495,2.419.827,3.132,3.763,1.346,5.581Z" fill="#0c0d0b"/>
    <path d="M59.379,50.672c-.716.728-1.621.933-2.592.6-1.081-.371-1.771-1.129-1.883-2.287-.055-.57.043-1.155.076-1.733.061-1.041.022-1.869-1.264-2.487h-1.182c-1.286.618-1.404,1.446-1.343,2.487.034.578.132,1.163.076,1.733-.112,1.158-.802,1.917-1.883,2.287-.971.333-1.876.129-2.592-.6-1.786-1.818-1.073-4.754,1.346-5.581,1.306-.447,2.658-.592,4.232-.495h1.428c1.574-.098,2.926.048,4.232.495,2.419.827,3.132,3.763,1.346,5.581Z" fill="#0c0d0b"/>
    <path d="M59.379,58.691c-.716.728-1.621.933-2.592.6-1.081-.371-1.771-1.129-1.883-2.287-.055-.57.043-1.155.076-1.733.061-1.041.022-1.869-1.264-2.487h-1.182c-1.286.618-1.404,1.446-1.343,2.487.034.578.132,1.163.076,1.733-.112,1.158-.802,1.917-1.883,2.287-.971.333-1.876.129-2.592-.6-1.786-1.818-1.073-4.754,1.346-5.581,1.306-.447,2.658-.592,4.232-.495h1.428c1.574-.098,2.926.048,4.232.495,2.419.827,3.132,3.763,1.346,5.581Z" fill="#0c0d0b"/>
  </g>
  <g id="Flores">
    <g>
      <g>
        <path d="M43.339,26.488c-.406-.139-.826-.184-1.314-.154h-.443c-.489-.03-.909.015-1.314.154-.751.257-.973,1.168-.418,1.733.222.226.503.29.805.186.336-.115.55-.351.585-.71.017-.177-.013-.359-.024-.538-.019-.323.018-.581.417-.772h.367c.399.192.412.449.393.772-.011.179-.041.361-.024.538.035.36.249.595.585.71.301.103.583.04.805-.186.555-.565.333-1.476-.418-1.733Z" fill="#0c0d0b"/>
        <path d="M41.78,21.55c-2.013,0-3.645,1.632-3.645,3.645,0,.48.094.938.263,1.358.361-.897,1.068-1.618,1.956-1.996.01.792.654,1.43,1.448,1.43.788,0,1.428-.628,1.448-1.411.867.383,1.557,1.095,1.912,1.977.169-.42.263-.878.263-1.358,0-2.013-1.632-3.645-3.645-3.645Z" fill="#0c0d0b"/>
      </g>
      <rect x="41.739" y="22.987" width=".128" height="3.338" fill="#0c0d0b"/>
      <circle cx="41.805" cy="24.538" r=".498" fill="#2a4c8c"/>
    </g>
    <g>
      <g>
        <path d="M65.935,26.488c-.406-.139-.826-.184-1.314-.154h-.443c-.489-.03-.909.015-1.314.154-.751.257-.973,1.168-.418,1.733.222.226.503.29.805.186.336-.115.55-.351.585-.71.017-.177-.013-.359-.024-.538-.019-.323.018-.581.417-.772h.367c.399.192.412.449.393.772-.011.179-.041.361-.024.538.035.36.249.595.585.71.301.103.583.04.805-.186.555-.565.333-1.476-.418-1.733Z" fill="#0c0d0b"/>
        <path d="M64.377,21.55c-2.013,0-3.645,1.632-3.645,3.645,0,.48.094.938.263,1.358.361-.897,1.068-1.618,1.956-1.996.01.792.654,1.43,1.448,1.43.788,0,1.428-.628,1.448-1.411.867.383,1.557,1.095,1.912,1.977.169-.42.263-.878.263-1.358,0-2.013-1.632-3.645-3.645-3.645Z" fill="#0c0d0b"/>
      </g>
      <rect x="64.335" y="22.987" width=".128" height="3.338" fill="#0c0d0b"/>
      <circle cx="64.402" cy="24.538" r=".498" fill="#2a4c8c"/>
    </g>
    <g>
      <path d="M64.203,41.534c1.225.587-.034,1.175.37,1.762.168.291.798.496.922.881.237.439.193.876.354,1.321.099.288.363.581.415.881.071.8-1.25,1.848-2.075,2.202-.953-.485-1.546-.973-1.982-1.762-.074-.147-.103-.294-.079-.44.052-.3.317-.593.415-.881.161-.445.117-.882.354-1.321.124-.384.755-.59.922-.881.401-.577-.86-1.209.385-1.762h0Z" fill="#2a4c8c"/>
      <circle cx="64.166" cy="46.686" r="1.166" fill="#0c0d0b"/>
    </g>
    <g>
      <path d="M41.606,41.534c1.225.587-.034,1.175.37,1.762.168.291.798.496.922.881.237.439.193.876.354,1.321.099.288.363.581.415.881.071.8-1.25,1.848-2.075,2.202-.953-.485-1.546-.973-1.982-1.762-.074-.147-.103-.294-.079-.44.052-.3.317-.593.415-.881.161-.445.117-.882.354-1.321.124-.384.755-.59.922-.881.401-.577-.86-1.209.385-1.762h0Z" fill="#2a4c8c"/>
      <circle cx="41.57" cy="46.686" r="1.166" fill="#0c0d0b"/>
    </g>
    <g>
      <path d="M33.894,6.595c2.881,1.381-.08,2.762.87,4.142.394.685,1.876,1.167,2.168,2.071.557,1.033.453,2.06.831,3.107.232.676.854,1.367.977,2.071.168,1.882-2.938,4.346-4.88,5.178-2.242-1.141-3.635-2.287-4.661-4.142-.174-.345-.243-.69-.185-1.036.123-.705.745-1.395.977-2.071.379-1.046.275-2.074.831-3.107.291-.903,1.774-1.388,2.168-2.071.942-1.358-2.022-2.842.904-4.142h0Z" fill="#2a4c8c"/>
      <circle cx="33.808" cy="18.709" r="2.742" fill="#0c0d0b"/>
    </g>
  </g>
</svg>