<?xml version="1.0" encoding="UTF-8"?>
<svg id="Planta" xmlns="http://www.w3.org/2000/svg" width="100" height="100" viewBox="0 0 100 100">
  <g id="background" data-name="background">
    <ellipse cx="54.173" cy="70.269" rx="8.965" ry="9.072" fill="#2a4c8c" opacity=".33"/>
  </g>
  <g id="root">
    <line x1="54.169" y1="77.55" x2="54.169" y2="99.551" fill="none" stroke="#0c0d0b" stroke-miterlimit="10" stroke-width=".138"/>
    <path d="M53.718,77.55v11.361c0,.974-.767,1.763-1.712,1.763h-1.98c-.946,0-1.712.789-1.712,1.763v1.368c0,.974-.767,1.763-1.712,1.763h-8.559c-.946,0-1.712.789-1.712,1.763v1.181" fill="none" stroke="#0c0d0b" stroke-miterlimit="10" stroke-width=".138"/>
    <path d="M53.222,75.947v13.513c0,1.044-.682,1.89-1.524,1.89h0c-.842,0-1.524.846-1.524,1.89v6.761" fill="none" stroke="#0c0d0b" stroke-miterlimit="10" stroke-width=".135"/>
    <path d="M54.714,77.55v11.361c0,.974.767,1.763,1.712,1.763h1.98c.946,0,1.712.789,1.712,1.763v1.368c0,.974.767,1.763,1.712,1.763h8.559c.946,0,1.712.789,1.712,1.763v1.181" fill="none" stroke="#0c0d0b" stroke-miterlimit="10" stroke-width=".138"/>
    <path d="M55.209,75.947v13.513c0,1.044.682,1.89,1.524,1.89h0c.842,0,1.524.846,1.524,1.89v6.761" fill="none" stroke="#0c0d0b" stroke-miterlimit="10" stroke-width=".135"/>
  </g>
  <g id="seed">
    <g>
      <path d="M54.474,73.185c2.054-.247,3.937-2.619,2.646-5.029-.321-.6-.762-1.135-1.152-1.698-.481-.694-.996-1.367-1.436-2.086-.175-.287-.25-.668-.267-1.012-.039-.782-.012-1.567-.014-2.351,0-.091-.011-.182-.017-.272-.028,0-.055,0-.083-.001-.007.079-.02.158-.02.238,0,.695-.032,1.392.01,2.084.044.737-.184,1.373-.602,1.948-.376.518-.782,1.015-1.19,1.509-.477.578-.962,1.147-1.249,1.853-.695,1.708-.214,3.317,1.271,4.25.528.332,1.107.52,1.746.597.013.591.138,1.181-.363,1.659-.177.169-.31.391-.442.601-.264.422-.369.888-.311,1.381.061.514.301.914.814,1.091.452.156.864.037,1.167-.307.173-.195.31-.469.35-.725.133-.836-.214-1.526-.748-2.145-.13-.151-.291-.324-.318-.505-.051-.338-.015-.688-.015-1.046.082-.013.151-.025.22-.033ZM54.996,76.631c0,.459-.372.83-.83.83s-.83-.372-.83-.83.372-.83.83-.83.83.372.83.83ZM54.166,71.663c-.822,0-1.489-.666-1.489-1.489s.666-1.489,1.489-1.489,1.489.666,1.489,1.489-.666,1.489-1.489,1.489Z" fill="#0c0c0c"/>
      <circle cx="54.166" cy="70.023" r=".83" fill="#294d8c"/>
      <circle cx="54.166" cy="76.631" r=".628" fill="#294d8c"/>
    </g>
  </g>
  <g id="soil">
    <g>
      <path d="M30.766,60.785c1.79,2.766,4.485,4.669,7.251,5.266.203.038.405.088.608.101.836-.054,1.244-.949,1.825-1.843.329-.536.749-1.248,1.216-1.549.405-.269.811-.217,1.216.047.811.491,1.622,2.355,2.433,3.152.371.383.764.538,1.216.502.405-.006.811-.067,1.216-.183,1.725-.478,3.253-2.035,4.865-2.793,1.171-.551,2.407-.8,3.649-.797.837.03,1.646.329,2.433.717.203.108.405.18.608.369,1.224,1.127,1.73,4.516,3.649,2.786.627-.589,1.23-1.627,1.825-2.264.333-.381.834-.728,1.216-1.042,1.134-.884,2.366-1.789,3.559-2.469H30.766Z" fill="#2a4c8c"/>
      <path d="M30.766,60.785c1.79,2.25,4.485,3.799,7.251,4.285.203.031.405.072.608.083.836-.044,1.244-.772,1.825-1.5.329-.436.749-1.015,1.216-1.26.405-.219.811-.177,1.216.038.811.4,1.622,1.916,2.433,2.565.371.312.764.438,1.216.409.405-.005.811-.054,1.216-.149,1.725-.389,3.253-1.656,4.865-2.272,1.171-.448,2.407-.651,3.649-.648.837.025,1.646.268,2.433.583.203.088.405.146.608.3,1.224.917,1.73,3.675,3.649,2.267.627-.479,1.23-1.324,1.825-1.842.333-.31.834-.592,1.216-.848,1.134-.719,2.366-1.455,3.559-2.009H30.766Z" fill="#0c0d0b"/>
    </g>
  </g>
  <g id="stem">
    <path d="M52.737,60.827c.203-6.804.962-13.594,1.253-20.387.233-6.796.175-13.591.192-20.387l-.003-10.193c0-3.341-1.653-6.821-4.671-8.4-2.936-1.527-6.759-1.859-9.699-.148-2.973,1.67-4.903,4.992-4.721,8.421-.288-3.388,1.704-6.828,4.664-8.52,4.416-2.545,11.064-.977,13.395,3.7.768,1.53,1.225,3.229,1.203,4.946l-.003,10.194c.017,6.796-.042,13.592.192,20.387.291,6.792,1.05,13.584,1.253,20.387,0,0-3.055,0-3.055,0h0Z" fill="#0c0d0b"/>
    <g>
      <path d="M65.456,42.262c-.712-2.559-3.055-4.338-5.694-4.333-2.593.005-4.9,1.731-5.643,4.232-.712-2.559-3.055-4.338-5.694-4.333-2.593.005-4.9,1.731-5.643,4.232" fill="none" stroke="#0c0d0b" stroke-miterlimit="10" stroke-width=".207"/>
      <path d="M65.456,23.457c-.712-2.559-3.055-4.338-5.694-4.333-2.593.005-4.9,1.731-5.643,4.232-.712-2.559-3.055-4.338-5.694-4.333-2.593.005-4.9,1.731-5.643,4.232" fill="none" stroke="#0c0d0b" stroke-miterlimit="10" stroke-width=".207"/>
    </g>
  </g>
  <g id="leaf">
    <path d="M56.902,28.084l-2.875-2.875-.021-.021-2.896,2.896c-2.62-.949-4.786.264-4.332,3.223.033.227.09.47.156.691.216.081.455.154.679.202,2.902.649,4.261-1.4,3.522-4.057l2.872-2.872,2.872,2.872c-.74,2.655.618,4.706,3.522,4.057.225-.049.463-.122.679-.202.066-.221.123-.464.156-.691.453-2.957-1.711-4.172-4.332-3.223Z" fill="#0c0d0b"/>
    <path d="M56.902,49.514l-2.875-2.875-.021-.021-2.896,2.896c-2.62-.949-4.786.264-4.332,3.223.033.227.09.47.156.691.216.081.455.154.679.202,2.902.649,4.261-1.4,3.522-4.057l2.872-2.872,2.872,2.872c-.74,2.655.618,4.706,3.522,4.057.225-.049.463-.122.679-.202.066-.221.123-.464.156-.691.453-2.957-1.711-4.172-4.332-3.223Z" fill="#0c0d0b"/>
    <path d="M47.243,39.8l.666-1.921.005-.014-1.935-.671c-.145-1.386-1.163-2.096-2.395-1.246-.095.065-.192.143-.277.221.011.115.03.238.057.35.341,1.447,1.56,1.612,2.593.699l1.919.666-.666,1.919c-1.356.246-1.982,1.304-1.057,2.469.071.09.156.182.239.261.114-.018.236-.046.345-.081,1.429-.441,1.504-1.68.505-2.652Z" fill="#0c0d0b"/>
    <path d="M47.243,20.994l.666-1.921.005-.014-1.935-.671c-.145-1.386-1.163-2.096-2.395-1.246-.095.065-.192.143-.277.221.011.115.03.238.057.35.341,1.447,1.56,1.612,2.593.699l1.919.666-.666,1.919c-1.356.246-1.982,1.304-1.057,2.469.071.09.156.182.239.261.114-.018.236-.046.345-.081,1.429-.441,1.504-1.68.505-2.652Z" fill="#0c0d0b"/>
    <path d="M60.16,39.8l-.666-1.921-.005-.014,1.935-.671c.145-1.386,1.163-2.096,2.395-1.246.095.065.192.143.277.221-.011.115-.03.238-.057.35-.341,1.447-1.56,1.612-2.593.699l-1.919.666.666,1.919c1.356.246,1.982,1.304,1.057,2.469-.071.09-.156.182-.239.261-.114-.018-.236-.046-.345-.081-1.429-.441-1.504-1.68-.505-2.652Z" fill="#0c0d0b"/>
    <path d="M60.16,20.994l-.666-1.921-.005-.014,1.935-.671c.145-1.386,1.163-2.096,2.395-1.246.095.065.192.143.277.221-.011.115-.03.238-.057.35-.341,1.447-1.56,1.612-2.593.699l-1.919.666.666,1.919c1.356.246,1.982,1.304,1.057,2.469-.071.09-.156.182-.239.261-.114-.018-.236-.046-.345-.081-1.429-.441-1.504-1.68-.505-2.652Z" fill="#0c0d0b"/>
  </g>
  <g id="flower">
    <g>
      <g>
        <path d="M38.236,14.124c-.811-.277-1.651-.368-2.629-.307h-.887c-.978-.061-1.817.03-2.629.307-1.502.514-1.945,2.337-.836,3.466.444.452,1.007.579,1.61.372.671-.23,1.1-.702,1.169-1.421.034-.354-.026-.717-.047-1.076-.038-.647.035-1.161.834-1.545h.734c.799.384.823.898.785,1.545-.021.359-.082.722-.047,1.076.07.719.498,1.19,1.169,1.421.603.207,1.165.08,1.61-.372,1.109-1.129.666-2.953-.836-3.466Z" fill="#0c0d0b"/>
        <path d="M35.118,4.248c-4.026,0-7.289,3.263-7.289,7.289,0,.961.188,1.877.525,2.716.722-1.795,2.136-3.236,3.913-3.992.02,1.583,1.309,2.86,2.897,2.86,1.575,0,2.856-1.257,2.896-2.822,1.734.766,3.114,2.19,3.823,3.954.338-.84.525-1.756.525-2.716,0-4.026-3.263-7.289-7.289-7.289Z" fill="#0c0d0b"/>
      </g>
      <rect x="35.035" y="7.123" width=".257" height="6.675" fill="#0c0d0b"/>
      <circle cx="35.169" cy="10.224" r=".996" fill="#2a4c8c"/>
      <circle cx="37.939" cy="16.347" r=".996" fill="#2a4c8c"/>
    </g>
    <g>
      <g>
        <path d="M44.404,27.508c-.406-.139-.826-.184-1.314-.154h-.443c-.489-.03-.909.015-1.314.154-.751.257-.973,1.168-.418,1.733.222.226.503.29.805.186.336-.115.55-.351.585-.71.017-.177-.013-.359-.024-.538-.019-.323.018-.581.417-.772h.367c.399.192.412.449.393.772-.011.179-.041.361-.024.538.035.36.249.595.585.71.301.103.583.04.805-.186.555-.565.333-1.476-.418-1.733Z" fill="#0c0d0b"/>
        <path d="M42.845,22.57c-2.013,0-3.645,1.632-3.645,3.645,0,.48.094.938.263,1.358.361-.897,1.068-1.618,1.956-1.996.01.792.654,1.43,1.448,1.43.788,0,1.428-.628,1.448-1.411.867.383,1.557,1.095,1.912,1.977.169-.42.263-.878.263-1.358,0-2.013-1.632-3.645-3.645-3.645Z" fill="#0c0d0b"/>
      </g>
      <rect x="42.803" y="24.008" width=".128" height="3.338" fill="#0c0d0b"/>
      <circle cx="42.87" cy="25.558" r=".498" fill="#2a4c8c"/>
    </g>
    <g>
      <g>
        <path d="M67,27.508c-.406-.139-.826-.184-1.314-.154h-.443c-.489-.03-.909.015-1.314.154-.751.257-.973,1.168-.418,1.733.222.226.503.29.805.186.336-.115.55-.351.585-.71.017-.177-.013-.359-.024-.538-.019-.323.018-.581.417-.772h.367c.399.192.412.449.393.772-.011.179-.041.361-.024.538.035.36.249.595.585.71.301.103.583.04.805-.186.555-.565.333-1.476-.418-1.733Z" fill="#0c0d0b"/>
        <path d="M65.441,22.57c-2.013,0-3.645,1.632-3.645,3.645,0,.48.094.938.263,1.358.361-.897,1.068-1.618,1.956-1.996.01.792.654,1.43,1.448,1.43.788,0,1.428-.628,1.448-1.411.867.383,1.557,1.095,1.912,1.977.169-.42.263-.878.263-1.358,0-2.013-1.632-3.645-3.645-3.645Z" fill="#0c0d0b"/>
      </g>
      <rect x="65.4" y="24.008" width=".128" height="3.338" fill="#0c0d0b"/>
      <circle cx="65.466" cy="25.558" r=".498" fill="#2a4c8c"/>
    </g>
    <g>
      <g>
        <path d="M44.549,47.043c-.406-.139-.826-.184-1.314-.154h-.443c-.489-.03-.909.015-1.314.154-.751.257-.973,1.168-.418,1.733.222.226.503.29.805.186.336-.115.55-.351.585-.71.017-.177-.013-.359-.024-.538-.019-.323.018-.581.417-.772h.367c.399.192.412.449.393.772-.011.179-.041.361-.024.538.035.36.249.595.585.71.301.103.583.04.805-.186.555-.565.333-1.476-.418-1.733Z" fill="#0c0d0b"/>
        <path d="M42.991,42.105c-2.013,0-3.645,1.632-3.645,3.645,0,.48.094.938.263,1.358.361-.897,1.068-1.618,1.956-1.996.01.792.654,1.43,1.448,1.43.788,0,1.428-.628,1.448-1.411.867.383,1.557,1.095,1.912,1.977.169-.42.263-.878.263-1.358,0-2.013-1.632-3.645-3.645-3.645Z" fill="#0c0d0b"/>
      </g>
      <rect x="42.949" y="43.543" width=".128" height="3.338" fill="#0c0d0b"/>
      <circle cx="43.016" cy="45.093" r=".498" fill="#2a4c8c"/>
    </g>
    <g>
      <g>
        <path d="M67.146,47.043c-.406-.139-.826-.184-1.314-.154h-.443c-.489-.03-.909.015-1.314.154-.751.257-.973,1.168-.418,1.733.222.226.503.29.805.186.336-.115.55-.351.585-.71.017-.177-.013-.359-.024-.538-.019-.323.018-.581.417-.772h.367c.399.192.412.449.393.772-.011.179-.041.361-.024.538.035.36.249.595.585.71.301.103.583.04.805-.186.555-.565.333-1.476-.418-1.733Z" fill="#0c0d0b"/>
        <path d="M65.587,42.105c-2.013,0-3.645,1.632-3.645,3.645,0,.48.094.938.263,1.358.361-.897,1.068-1.618,1.956-1.996.01.792.654,1.43,1.448,1.43.788,0,1.428-.628,1.448-1.411.867.383,1.557,1.095,1.912,1.977.169-.42.263-.878.263-1.358,0-2.013-1.632-3.645-3.645-3.645Z" fill="#0c0d0b"/>
      </g>
      <rect x="65.545" y="43.543" width=".128" height="3.338" fill="#0c0d0b"/>
      <circle cx="65.612" cy="45.093" r=".498" fill="#2a4c8c"/>
    </g>
  </g>
</svg>