<?xml version="1.0" encoding="UTF-8"?>
<svg id="Planta" xmlns="http://www.w3.org/2000/svg" width="100" height="100" viewBox="0 0 100 100">
  <g id="background" data-name="background">
    <ellipse cx="46.173" cy="70.269" rx="8.965" ry="9.072" fill="#2a4c8c" opacity=".33"/>
  </g>
  <g id="root">
    <line x1="45.714" y1="77.561" x2="45.714" y2="99.562" fill="none" stroke="#0c0d0b" stroke-miterlimit="10" stroke-width=".138"/>
    <path d="M45.263,77.561v11.361c0,.974-.767,1.763-1.712,1.763h-1.98c-.946,0-1.712.789-1.712,1.763v1.368c0,.974-.767,1.763-1.712,1.763h-8.559c-.946,0-1.712.789-1.712,1.763v1.181" fill="none" stroke="#0c0d0b" stroke-miterlimit="10" stroke-width=".138"/>
    <path d="M44.767,75.957v13.513c0,1.044-.682,1.89-1.524,1.89h0c-.842,0-1.524.846-1.524,1.89v6.761" fill="none" stroke="#0c0d0b" stroke-miterlimit="10" stroke-width=".135"/>
    <path d="M46.258,77.561v11.361c0,.974.767,1.763,1.712,1.763h1.98c.946,0,1.712.789,1.712,1.763v1.368c0,.974.767,1.763,1.712,1.763h8.559c.946,0,1.712.789,1.712,1.763v1.181" fill="none" stroke="#0c0d0b" stroke-miterlimit="10" stroke-width=".138"/>
    <path d="M46.754,75.957v13.513c0,1.044.682,1.89,1.524,1.89h0c.842,0,1.524.846,1.524,1.89v6.761" fill="none" stroke="#0c0d0b" stroke-miterlimit="10" stroke-width=".135"/>
  </g>
  <g id="seed">
    <g>
      <path d="M46.018,73.195c2.054-.247,3.937-2.619,2.646-5.029-.321-.6-.762-1.135-1.152-1.698-.481-.694-.996-1.367-1.436-2.086-.175-.287-.25-.668-.267-1.012-.039-.782-.012-1.567-.014-2.351,0-.091-.011-.182-.017-.272-.028,0-.055,0-.083-.001-.007.079-.02.158-.02.238,0,.695-.032,1.392.01,2.084.044.737-.184,1.373-.602,1.948-.376.518-.782,1.015-1.19,1.509-.477.578-.962,1.147-1.249,1.853-.695,1.708-.214,3.317,1.271,4.25.528.332,1.107.52,1.746.597.013.591.138,1.181-.363,1.659-.177.169-.31.391-.442.601-.264.422-.369.888-.311,1.381.061.514.301.914.814,1.091.452.156.864.037,1.167-.307.173-.195.31-.469.35-.725.133-.836-.214-1.526-.748-2.145-.13-.151-.291-.324-.318-.505-.051-.338-.015-.688-.015-1.046.082-.013.151-.025.22-.033ZM46.541,76.642c0,.459-.372.83-.83.83s-.83-.372-.83-.83.372-.83.83-.83.83.372.83.83ZM45.71,71.673c-.822,0-1.489-.666-1.489-1.489s.666-1.489,1.489-1.489,1.489.666,1.489,1.489-.666,1.489-1.489,1.489Z" fill="#0c0c0c"/>
      <circle cx="45.71" cy="70.033" r=".83" fill="#294d8c"/>
      <circle cx="45.71" cy="76.642" r=".628" fill="#294d8c"/>
    </g>
  </g>
  <g id="soil">
    <g>
      <path d="M67.34,60.796c-1.79,2.766-4.485,4.669-7.251,5.266-.203.038-.405.088-.608.101-.836-.054-1.244-.949-1.825-1.843-.329-.536-.749-1.248-1.216-1.549-.405-.269-.811-.217-1.216.047-.811.491-1.622,2.355-2.433,3.152-.371.383-.764.538-1.216.502-.405-.006-.811-.067-1.216-.183-1.725-.478-3.253-2.035-4.865-2.793-1.171-.551-2.407-.8-3.649-.797-.837.03-1.646.329-2.433.717-.203.108-.405.18-.608.369-1.224,1.127-1.73,4.516-3.649,2.786-.627-.589-1.23-1.627-1.825-2.264-.333-.381-.834-.728-1.216-1.042-1.134-.884-2.366-1.789-3.559-2.469h38.786Z" fill="#2a4c8c"/>
      <path d="M67.34,60.796c-1.79,2.25-4.485,3.799-7.251,4.285-.203.031-.405.072-.608.083-.836-.044-1.244-.772-1.825-1.5-.329-.436-.749-1.015-1.216-1.26-.405-.219-.811-.177-1.216.038-.811.4-1.622,1.916-2.433,2.565-.371.312-.764.438-1.216.409-.405-.005-.811-.054-1.216-.149-1.725-.389-3.253-1.656-4.865-2.272-1.171-.448-2.407-.651-3.649-.648-.837.025-1.646.268-2.433.583-.203.088-.405.146-.608.3-1.224.917-1.73,3.675-3.649,2.267-.627-.479-1.23-1.324-1.825-1.842-.333-.31-.834-.592-1.216-.848-1.134-.719-2.366-1.455-3.559-2.009h38.786Z" fill="#0c0d0b"/>
    </g>
  </g>
  <g id="stem">
    <path d="M44.194,60.827c.203-6.803.962-13.595,1.253-20.387.304-9.813.157-20.708.189-30.581-.226-10.031,13.211-13.63,18.153-5.042.821,1.47,1.246,3.276,1.11,4.915.181-3.428-1.748-6.752-4.722-8.421-2.939-1.711-6.762-1.378-9.699.149-3.018,1.579-4.671,5.059-4.671,8.4l-.003,10.194c.017,6.796-.042,13.591.192,20.387.291,6.792,1.05,13.584,1.253,20.387,0,0-3.055,0-3.055,0h0Z" fill="#0c0d0b"/>
    <path d="M44.111,61.34c.203-6.804.962-13.595,1.253-20.387.233-6.796.174-13.591.192-20.387l-.003-10.194c0-3.341-1.653-6.821-4.671-8.4-2.937-1.527-6.759-1.859-9.699-.148-2.973,1.67-4.903,4.992-4.721,8.421-.288-3.388,1.704-6.828,4.664-8.52,4.416-2.545,11.064-.977,13.395,3.7.768,1.53,1.225,3.229,1.203,4.946l-.003,10.194c.017,6.796-.042,13.592.192,20.387.292,6.793,1.05,13.584,1.253,20.387,0,0-3.055,0-3.055,0h0Z" fill="#0c0d0b"/>
    <path d="M56.793,42.46c-.712-2.559-3.055-4.338-5.694-4.333-2.593.005-4.9,1.731-5.643,4.232-.712-2.559-3.055-4.338-5.694-4.333-2.593.005-4.9,1.731-5.643,4.232" fill="none" stroke="#0c0d0b" stroke-miterlimit="10" stroke-width=".207"/>
    <path d="M56.793,23.654c-.712-2.559-3.055-4.338-5.694-4.333-2.593.005-4.9,1.731-5.643,4.232-.712-2.559-3.055-4.338-5.694-4.333-2.593.005-4.9,1.731-5.643,4.232" fill="none" stroke="#0c0d0b" stroke-miterlimit="10" stroke-width=".207"/>
  </g>
  <g id="leaf">
    <path d="M51.795,34.346c-.716.728-1.621.933-2.592.6-1.081-.371-1.771-1.129-1.883-2.287-.055-.57.043-1.155.076-1.733.061-1.041.022-1.869-1.264-2.487h-1.182c-1.286.618-1.404,1.446-1.343,2.487.034.578.132,1.163.076,1.733-.112,1.158-.802,1.917-1.883,2.287-.971.333-1.876.129-2.592-.6-1.786-1.818-1.073-4.754,1.346-5.581,1.306-.447,2.658-.592,4.232-.495h1.428c1.574-.098,2.926.048,4.232.495,2.419.827,3.132,3.763,1.346,5.581Z" fill="#0c0d0b"/>
    <path d="M51.941,55.193c-.716.728-1.621.933-2.592.6-1.081-.371-1.771-1.129-1.883-2.287-.055-.57.043-1.155.076-1.733.061-1.041.022-1.869-1.264-2.487h-1.182c-1.286.618-1.404,1.446-1.343,2.487.034.578.132,1.163.076,1.733-.112,1.158-.802,1.917-1.883,2.287-.971.333-1.876.129-2.592-.6-1.786-1.818-1.073-4.754,1.346-5.581,1.306-.447,2.658-.592,4.232-.495h1.428c1.574-.098,2.926.048,4.232.495,2.419.827,3.132,3.763,1.346,5.581Z" fill="#0c0d0b"/>
  </g>
  <g id="flower">
    <g>
      <g>
        <path d="M36.046,46.023c-.406-.139-.826-.184-1.314-.154h-.443c-.489-.03-.909.015-1.314.154-.751.257-.973,1.168-.418,1.733.222.226.503.29.805.186.336-.115.55-.351.585-.71.017-.177-.013-.359-.024-.538-.019-.323.018-.581.417-.772h.367c.399.192.412.449.393.772-.011.179-.041.361-.024.538.035.36.249.595.585.71.301.103.583.04.805-.186.555-.565.333-1.476-.418-1.733Z" fill="#0c0d0b"/>
        <path d="M34.488,41.086c-2.013,0-3.645,1.632-3.645,3.645,0,.48.094.938.263,1.358.361-.897,1.068-1.618,1.956-1.996.01.792.654,1.43,1.448,1.43.788,0,1.428-.628,1.448-1.411.867.383,1.557,1.095,1.912,1.977.169-.42.263-.878.263-1.358,0-2.013-1.632-3.645-3.645-3.645Z" fill="#0c0d0b"/>
      </g>
      <rect x="34.446" y="42.523" width=".128" height="3.338" fill="#0c0d0b"/>
      <circle cx="34.513" cy="44.074" r=".498" fill="#2a4c8c"/>
    </g>
    <g>
      <g>
        <path d="M58.643,46.023c-.406-.139-.826-.184-1.314-.154h-.443c-.489-.03-.909.015-1.314.154-.751.257-.973,1.168-.418,1.733.222.226.503.29.805.186.336-.115.55-.351.585-.71.017-.177-.013-.359-.024-.538-.019-.323.018-.581.417-.772h.367c.399.192.412.449.393.772-.011.179-.041.361-.024.538.035.36.249.595.585.71.301.103.583.04.805-.186.555-.565.333-1.476-.418-1.733Z" fill="#0c0d0b"/>
        <path d="M57.084,41.086c-2.013,0-3.645,1.632-3.645,3.645,0,.48.094.938.263,1.358.361-.897,1.068-1.618,1.956-1.996.01.792.654,1.43,1.448,1.43.788,0,1.428-.628,1.448-1.411.867.383,1.557,1.095,1.912,1.977.169-.42.263-.878.263-1.358,0-2.013-1.632-3.645-3.645-3.645Z" fill="#0c0d0b"/>
      </g>
      <rect x="57.042" y="42.523" width=".128" height="3.338" fill="#0c0d0b"/>
      <circle cx="57.109" cy="44.074" r=".498" fill="#2a4c8c"/>
    </g>
    <g>
      <g>
        <path d="M68.023,13.541c-.811-.277-1.651-.368-2.629-.307h-.887c-.978-.061-1.817.03-2.629.307-1.502.514-1.945,2.337-.836,3.466.444.452,1.007.579,1.61.372.671-.23,1.1-.702,1.169-1.421.034-.354-.026-.717-.047-1.076-.038-.647.035-1.161.834-1.545h.734c.799.384.823.898.785,1.545-.021.359-.082.722-.047,1.076.07.719.498,1.19,1.169,1.421.603.207,1.165.08,1.61-.372,1.109-1.129.666-2.953-.836-3.466Z" fill="#0c0d0b"/>
        <path d="M64.905,3.666c-4.026,0-7.289,3.263-7.289,7.289,0,.961.188,1.877.525,2.716.722-1.795,2.136-3.236,3.913-3.992.02,1.583,1.309,2.86,2.897,2.86,1.575,0,2.856-1.257,2.896-2.822,1.734.766,3.114,2.19,3.823,3.954.338-.84.525-1.756.525-2.716,0-4.026-3.263-7.289-7.289-7.289Z" fill="#0c0d0b"/>
      </g>
      <rect x="64.822" y="6.541" width=".257" height="6.675" fill="#0c0d0b"/>
      <circle cx="64.956" cy="9.641" r=".996" fill="#2a4c8c"/>
      <circle cx="62.04" cy="15.91" r=".996" fill="#2a4c8c"/>
    </g>
    <g>
      <g>
        <path d="M30.023,13.541c-.811-.277-1.651-.368-2.629-.307h-.887c-.978-.061-1.817.03-2.629.307-1.502.514-1.945,2.337-.836,3.466.444.452,1.007.579,1.61.372.671-.23,1.1-.702,1.169-1.421.034-.354-.026-.717-.047-1.076-.038-.647.035-1.161.834-1.545h.734c.799.384.823.898.785,1.545-.021.359-.082.722-.047,1.076.07.719.498,1.19,1.169,1.421.603.207,1.165.08,1.61-.372,1.109-1.129.666-2.953-.836-3.466Z" fill="#0c0d0b"/>
        <path d="M26.905,3.666c-4.026,0-7.289,3.263-7.289,7.289,0,.961.188,1.877.525,2.716.722-1.795,2.136-3.236,3.913-3.992.02,1.583,1.309,2.86,2.897,2.86,1.575,0,2.856-1.257,2.896-2.822,1.734.766,3.114,2.19,3.823,3.954.338-.84.525-1.756.525-2.716,0-4.026-3.263-7.289-7.289-7.289Z" fill="#0c0d0b"/>
      </g>
      <rect x="26.822" y="6.541" width=".257" height="6.675" fill="#0c0d0b"/>
      <circle cx="26.956" cy="9.641" r=".996" fill="#2a4c8c"/>
      <circle cx="24.04" cy="15.91" r=".996" fill="#2a4c8c"/>
    </g>
    <g>
      <path d="M34.314,22.874c1.225.587-.034,1.175.37,1.762.168.291.798.496.922.881.237.439.193.876.354,1.321.099.288.363.581.415.881.071.8-1.25,1.848-2.075,2.202-.953-.485-1.546-.973-1.982-1.762-.074-.147-.103-.294-.079-.44.052-.3.317-.593.415-.881.161-.445.117-.882.354-1.321.124-.384.755-.59.922-.881.401-.577-.86-1.209.385-1.762h0Z" fill="#2a4c8c"/>
      <circle cx="34.277" cy="28.026" r="1.166" fill="#0c0d0b"/>
    </g>
    <g>
      <path d="M56.91,22.874c1.225.587-.034,1.175.37,1.762.168.291.798.496.922.881.237.439.193.876.354,1.321.099.288.363.581.415.881.071.8-1.25,1.848-2.075,2.202-.953-.485-1.546-.973-1.982-1.762-.074-.147-.103-.294-.079-.44.052-.3.317-.593.415-.881.161-.445.117-.882.354-1.321.124-.384.755-.59.922-.881.401-.577-.86-1.209.385-1.762h0Z" fill="#2a4c8c"/>
      <circle cx="56.874" cy="28.026" r="1.166" fill="#0c0d0b"/>
    </g>
  </g>
</svg>