<?xml version="1.0" encoding="UTF-8"?>
<svg xmlns="http://www.w3.org/2000/svg" width="100" height="100" viewBox="0 0 100 100">
  <g id="Fondo">
    <circle cx="52.507" cy="71.232" r="9.304" fill="#6a3f8f" opacity=".33"/>
  </g>
  <g id="raices">
    <g>
      <path d="M51.447,77.049v3.858c0,.931-.755,1.686-1.686,1.686h-1.535c-.931,0-1.686.755-1.686,1.686v1.005c0,.931.755,1.686,1.686,1.686h5.188c.931,0,1.686.755,1.686,1.686v5.973" fill="none" stroke="#0c0d0b" stroke-miterlimit="10" stroke-width=".081"/>
      <path d="M55.329,73.869h10.375c.931,0,1.686.755,1.686,1.686v4.687c0,.931-.755,1.686-1.686,1.686h-1.996c-.931,0-1.686.755-1.686,1.686v16.385" fill="none" stroke="#0c0d0b" stroke-miterlimit="10" stroke-width=".081"/>
      <path d="M46.539,69.907c.206.121-5.235.063-8.099.025-.94-.013-1.708.746-1.708,1.686v1.481c0,.931.755,1.686,1.686,1.686h0c.931,0,1.686.755,1.686,1.686v4.771c0,.931-.755,1.686-1.686,1.686h-5.033c-.931,0-1.686.755-1.686,1.686v5.485c0,.931.755,1.686,1.686,1.686h4.72c.931,0,1.686.755,1.686,1.686v6.528" fill="none" stroke="#0c0d0b" stroke-miterlimit="10" stroke-width=".081"/>
      <path d="M40.105,78.891h1.365c1.292,0,2.339,1.047,2.339,2.339v4.503c0,1.292-1.047,2.339-2.339,2.339h-5.65" fill="none" stroke="#0c0d0b" stroke-miterlimit="10" stroke-width=".081"/>
      <path d="M55.045,92.133h-.247c-1.292,0-2.339,1.047-2.339,2.339v1.732c0,1.292,1.047,2.339,2.339,2.339h3.239" fill="none" stroke="#0c0d0b" stroke-miterlimit="10" stroke-width=".081"/>
      <path d="M67.391,77.869h-6.59c-1.292,0-2.339,1.047-2.339,2.339v9.041" fill="none" stroke="#0c0d0b" stroke-miterlimit="10" stroke-width=".081"/>
    </g>
  </g>
  <g id="semilla">
    <g>
      <path d="M60.301,72.522c.019-.002-.768-.171-1.528-.329.005-.057.01-.113.013-.17.76-.116,1.548-.237,1.566-.241.018-.004-.78-.1-1.551-.188,0-.057,0-.114-.002-.171.746-.185,1.519-.378,1.537-.383.018-.006-.786-.028-1.562-.045-.005-.057-.011-.114-.018-.17.726-.253,1.478-.515,1.495-.522.017-.007-.785.044-1.559.098-.01-.056-.022-.112-.033-.168.7-.318,1.424-.648,1.44-.656.017-.009-.777.115-1.543.24-.016-.055-.032-.11-.049-.165.668-.381,1.358-.775,1.374-.785.016-.01-.763.186-1.515.38-.021-.053-.042-.106-.064-.159.63-.44,1.282-.896,1.296-.908.015-.012-.743.255-1.474.517-.025-.051-.051-.102-.078-.153.587-.496,1.195-1.01,1.208-1.023.014-.013-.717.322-1.421.65-.03-.049-.06-.097-.091-.145.54-.548,1.098-1.115,1.11-1.129.012-.014-.685.386-1.355.777-.034-.046-.069-.091-.104-.136.487-.595.991-1.211,1.002-1.226.011-.015-.647.447-1.279.898-.038-.042-.077-.084-.116-.126.431-.637.877-1.297.886-1.313.01-.016-.603.505-1.192,1.011-.042-.039-.084-.077-.127-.114.371-.674.754-1.372.762-1.389.008-.017-.554.558-1.094,1.116-.045-.035-.091-.069-.137-.102.308-.705.626-1.435.632-1.452.006-.018-.501.606-.987,1.211-.048-.03-.097-.06-.146-.09.242-.73.492-1.486.496-1.503.005-.018-.443.648-.872,1.295-.051-.026-.102-.051-.154-.076.174-.749.354-1.524.357-1.542.003-.019-.382.686-.749,1.37-.053-.021-.106-.042-.16-.062.105-.761.213-1.549.214-1.568.001-.019-.318.718-.621,1.433-.055-.016-.11-.032-.165-.047.035-.768.07-1.563.07-1.581,0-.019-.251.745-.488,1.484-.056-.011-.112-.021-.168-.031-.036-.768-.073-1.563-.075-1.581-.002-.019-.181.765-.35,1.523-.057-.006-.113-.011-.17-.016-.106-.762-.216-1.55-.22-1.568-.004-.019-.111.779-.209,1.549-.029,0-.059-.001-.088-.001-.028,0-.055,0-.082.001-.175-.749-.357-1.525-.362-1.542-.005-.018-.039.785-.067,1.561-.057.004-.114.01-.17.015-.243-.73-.495-1.485-.502-1.502-.007-.017.033.785.076,1.56-.056.01-.113.02-.168.031-.309-.704-.628-1.433-.637-1.449-.009-.017.104.779.219,1.546-.055.015-.11.03-.165.046-.372-.673-.756-1.369-.766-1.385-.01-.016.175.765.359,1.519-.054.02-.107.04-.16.062-.432-.636-.878-1.294-.89-1.309-.012-.015.245.746.497,1.48-.052.025-.103.05-.154.076-.488-.594-.993-1.208-1.006-1.222-.013-.014.312.721.63,1.429-.049.029-.098.059-.146.089-.54-.547-1.1-1.113-1.114-1.125-.014-.013.377.69.759,1.366-.046.034-.092.068-.137.102-.588-.495-1.198-1.008-1.213-1.019-.015-.011.438.653.88,1.291-.043.038-.085.076-.127.114-.631-.44-1.285-.895-1.301-.904-.016-.01.496.61.995,1.205-.039.041-.078.083-.116.125-.669-.38-1.361-.773-1.378-.781-.017-.008.55.562,1.101,1.109-.035.045-.07.09-.104.135-.701-.317-1.426-.645-1.443-.652-.018-.007.599.509,1.197,1.004-.031.048-.062.096-.092.145-.727-.252-1.479-.512-1.496-.517-.018-.005.643.452,1.284.89-.027.05-.053.101-.078.153-.746-.184-1.519-.375-1.537-.378-.019-.003.681.391,1.359.768-.022.053-.043.106-.064.159-.76-.115-1.546-.234-1.565-.236-.019-.002.714.327,1.424.641-.017.055-.033.109-.049.164-.767-.045-1.561-.092-1.58-.091-.019,0,.741.261,1.477.508-.012.056-.023.112-.033.168-.768.025-1.564.052-1.582.053-.019.002.762.192,1.518.371-.007.056-.013.113-.018.17-.763.095-1.553.195-1.571.198-.019.004.777.121,1.546.231-.002.057-.002.114-.002.171-.751.165-1.529.336-1.547.341-.018.005.785.05,1.561.088.004.057.008.114.013.17-.733.233-1.492.474-1.509.481-.018.007.785-.022,1.561-.055.009.057.018.113.029.169-.708.299-1.441.608-1.458.617-.017.008.78-.094,1.549-.197.014.056.029.111.044.166-.678.362-1.379.737-1.395.747-.016.01.768-.165,1.524-.338.019.054.039.108.059.161-.642.423-1.306.861-1.321.872-.015.011.75-.234,1.487-.476.024.052.048.103.074.155-.601.48-1.222.977-1.236.989-.014.013.725-.302,1.438-.61.029.049.058.098.088.147-.554.533-1.128,1.084-1.14,1.098-.013.014.695-.367,1.376-.74.033.047.066.093.1.139-.503.581-1.024,1.183-1.035,1.198-.011.015.659-.429,1.303-.863,1.202,1.41,2.992,2.305,4.99,2.305s3.784-.893,4.986-2.3c.679.361,1.382.736,1.399.743.017.008-.565-.546-1.131-1.078.034-.046.068-.092.101-.139.709.298,1.443.606,1.46.612.018.006-.612-.492-1.224-.97.03-.049.059-.098.088-.147.733.232,1.492.471,1.51.476.018.005-.655-.434-1.308-.854.025-.051.05-.103.074-.155.751.164,1.528.333,1.547.335.019.003-.692-.372-1.38-.731.02-.053.04-.107.059-.161.763.094,1.552.191,1.571.192.019.001-.723-.308-1.441-.601.015-.055.03-.11.044-.166.768.024,1.563.049,1.582.048.019,0-.748-.24-1.49-.467.01-.056.02-.112.029-.169.768-.046,1.562-.095,1.58-.097ZM52.248,67.267c-1.156.298-1.74.979-1.704,1.975.034.926.658,1.589,1.701,1.788v2.838c-1.614.017-3.257-1.528-3.301-3.608-.05-2.338,1.771-3.865,3.304-3.886v.892ZM52.397,73.869v-2.838c1.043-.2,1.667-.862,1.701-1.788.036-.997-.548-1.677-1.704-1.975v-.892c1.533.021,3.354,1.548,3.304,3.886-.044,2.08-1.687,3.625-3.301,3.608Z" fill="#0c0c0c"/>
      <circle cx="52.248" cy="69.065" r=".843" fill="#6a3f8f"/>
    </g>
  </g>
  <g id="suelo">
    <g>
      <line x1="36.836" y1="60.758" x2="67.693" y2="60.758" fill="none" stroke="#0c0d0b" stroke-miterlimit="10" stroke-width=".121"/>
      <g>
        <path d="M66.407,61.629l-.36.031c-.018.001-.034-.012-.036-.031-.001-.018.012-.035.031-.036.002,0,.004,0,.006,0l.36.031s.002.001.002.003c0,.001-.001.002-.002.002Z" fill="#0c0d0b"/>
        <path d="M65.323,61.701c-.241.012-.483.022-.724.023-.054,0-.098-.043-.099-.098s.043-.098.098-.099h0c.241.001.483.011.724.023.042.002.073.037.071.079-.002.039-.033.069-.071.071Z" fill="#0c0d0b"/>
        <path d="M63.874,61.735l-.724-.013c-.054,0-.096-.045-.095-.099,0-.052.043-.094.095-.095l.724-.013c.061,0,.11.047.111.108.001.061-.047.111-.108.112h-.004Z" fill="#0c0d0b"/>
        <path d="M62.426,61.683c-.241-.012-.483-.034-.724-.036-.012,0-.021-.01-.021-.021,0-.011.01-.021.021-.021.241-.003.483-.024.724-.036.032-.001.059.023.061.055.001.032-.023.059-.055.06h-.006Z" fill="#0c0d0b"/>
        <path d="M60.978,61.641c-.241.007-.483.042-.724.061-.042.003-.078-.028-.081-.07-.003-.042.028-.078.07-.081.004,0,.008,0,.012,0,.241.019.483.053.724.061.008,0,.015.007.014.015,0,.008-.007.014-.014.014Z" fill="#0c0d0b"/>
        <path d="M59.529,61.699c-.241-.019-.483-.048-.724-.052-.011,0-.021-.01-.021-.021s.01-.021.021-.021c.241-.005.483-.033.724-.052.041-.003.076.027.079.068.003.041-.027.076-.067.079-.004,0-.008,0-.012,0Z" fill="#0c0d0b"/>
        <path d="M58.081,61.683c-.241.018-.483.055-.724.083-.077.009-.146-.046-.155-.124-.009-.077.047-.146.124-.155.01-.001.022,0,.032,0,.241.027.483.064.724.083.031.002.055.03.052.061-.002.028-.025.05-.052.052Z" fill="#0c0d0b"/>
        <path d="M56.633,61.843c-.241.018-.483.024-.724.022-.132,0-.238-.109-.237-.241,0-.131.107-.236.237-.237.241-.002.483.004.724.022.12.009.209.113.201.233-.008.109-.095.193-.201.201Z" fill="#0c0d0b"/>
        <path d="M55.184,61.843c-.241-.01-.483-.029-.724-.051-.092-.009-.159-.09-.151-.181.007-.082.072-.144.151-.151.241-.022.483-.042.724-.052.12-.005.222.088.227.208.005.12-.088.222-.208.227-.006,0-.012,0-.018,0Z" fill="#0c0d0b"/>
        <path d="M53.736,61.695c-.12-.018-.24-.039-.36-.067-.001,0-.002-.002-.002-.003,0,0,0-.002.002-.002.12-.028.24-.049.36-.067.038-.006.074.021.08.059s-.021.074-.059.08c-.007,0-.014,0-.02,0Z" fill="#0c0d0b"/>
      </g>
      <g>
        <path d="M58.407,62.771l-.36.031c-.018.001-.034-.012-.036-.031-.001-.018.012-.035.031-.036.002,0,.004,0,.006,0l.36.031s.002.001.002.003c0,.001-.001.002-.002.002Z" fill="#0c0d0b"/>
        <path d="M57.323,62.844c-.241.012-.483.022-.724.023-.054,0-.098-.044-.099-.098s.043-.098.098-.099h0c.241.001.483.011.724.023.042.002.073.038.071.079-.002.039-.033.069-.071.071Z" fill="#0c0d0b"/>
        <path d="M55.874,62.878l-.724-.013c-.054,0-.096-.045-.095-.099,0-.052.043-.094.095-.095l.724-.012c.061-.001.11.047.111.108.001.06-.047.11-.108.111h-.004Z" fill="#0c0d0b"/>
        <path d="M54.426,62.826c-.241-.012-.483-.034-.724-.036-.012,0-.021-.01-.021-.021,0-.011.01-.021.021-.021.241-.003.483-.024.724-.036.032-.001.059.023.061.055.001.032-.023.059-.055.06-.002,0-.004,0-.006,0Z" fill="#0c0d0b"/>
        <path d="M52.978,62.784c-.241.007-.483.042-.724.061-.042.003-.078-.028-.082-.07-.003-.042.028-.078.07-.081.004,0,.008,0,.012,0,.241.019.483.053.724.061.008,0,.015.007.014.015,0,.008-.007.014-.014.014Z" fill="#0c0d0b"/>
        <path d="M51.529,62.842c-.241-.019-.483-.048-.724-.052-.011,0-.021-.01-.021-.021,0-.011.009-.02.021-.021.241-.005.483-.033.724-.052.041-.003.076.027.079.067.003.041-.027.076-.067.079-.004,0-.008,0-.012,0Z" fill="#0c0d0b"/>
        <path d="M50.081,62.826c-.241.019-.483.055-.724.083-.077.009-.147-.047-.155-.124-.009-.077.047-.146.124-.155.01-.001.021,0,.032,0,.241.027.483.064.724.083.031.002.055.03.052.061-.002.029-.025.05-.052.052Z" fill="#0c0d0b"/>
        <path d="M48.633,62.985c-.241.018-.483.024-.724.022-.132,0-.238-.109-.237-.241,0-.131.107-.236.237-.237.241-.002.483.004.724.022.12.009.209.113.201.233-.008.109-.095.193-.201.201Z" fill="#0c0d0b"/>
        <path d="M47.184,62.986c-.241-.01-.483-.029-.724-.052-.092-.008-.159-.09-.151-.181.007-.082.072-.144.151-.151.241-.022.483-.042.724-.052.12-.005.222.088.227.209.005.12-.088.221-.208.227-.006,0-.012,0-.018,0Z" fill="#0c0d0b"/>
        <path d="M45.736,62.838c-.12-.018-.24-.039-.36-.067-.001,0-.002-.002-.002-.003,0,0,0-.002.002-.002.12-.028.24-.049.36-.067.038-.006.074.021.08.059.006.038-.021.074-.059.08-.007,0-.014,0-.02,0Z" fill="#0c0d0b"/>
      </g>
      <g>
        <path d="M62.819,63.914c-.12.027-.24.048-.36.061-.035.004-.067-.022-.071-.057-.004-.035.022-.067.057-.071.005,0,.009,0,.014,0,.12.013.24.034.36.061.001,0,.002.002.002.003,0,0,0,.002-.002.002Z" fill="#0c0d0b"/>
        <path d="M61.764,64.02c-.232.004-.464-.021-.695-.057-.029-.004-.048-.031-.044-.06.004-.023.022-.04.044-.044.232-.036.463-.061.695-.057.06.001.107.051.106.111,0,.058-.048.105-.106.106Z" fill="#0c0d0b"/>
        <path d="M60.374,63.945c-.116.028-.232.055-.348.054-.116-.002-.232-.031-.348-.052-.02-.004-.032-.022-.029-.042.003-.015.015-.026.029-.029.116-.021.232-.05.348-.052.116,0,.232.027.348.054.018.004.03.023.025.041-.003.013-.013.022-.025.025Z" fill="#0c0d0b"/>
        <path d="M58.984,64.039c-.232.066-.464.128-.695.11-.131-.01-.229-.125-.219-.256.009-.118.104-.21.219-.219.232-.018.463.044.695.11.07.02.111.094.09.164-.013.045-.048.078-.09.091Z" fill="#0c0d0b"/>
        <path d="M57.593,64.051c-.12-.034-.24-.077-.36-.136-.001,0-.002-.002-.001-.004,0,0,0,0,.001-.001.12-.06.24-.103.36-.136.077-.022.156.023.178.1.022.077-.023.157-.1.178-.027.008-.054.007-.079,0Z" fill="#0c0d0b"/>
      </g>
      <g>
        <path d="M46.533,63.914c-.12.027-.24.048-.36.061-.035.004-.067-.022-.071-.057-.004-.035.022-.067.057-.071.004,0,.009,0,.014,0,.12.013.24.034.36.061.001,0,.002.002.002.003,0,0-.001.002-.002.002Z" fill="#0c0d0b"/>
        <path d="M45.478,64.02c-.232.004-.463-.021-.695-.057-.029-.004-.048-.031-.044-.06.003-.023.022-.04.044-.044.232-.036.463-.061.695-.057.06.001.108.051.106.111-.001.058-.048.105-.106.106Z" fill="#0c0d0b"/>
        <path d="M44.088,63.945c-.116.028-.232.055-.348.054-.116-.002-.232-.031-.347-.052-.02-.004-.033-.022-.029-.042.003-.015.015-.026.029-.029.116-.021.232-.05.347-.052.116,0,.232.027.348.054.018.004.03.023.025.041-.003.013-.013.022-.025.025Z" fill="#0c0d0b"/>
        <path d="M42.698,64.039c-.232.066-.463.128-.695.11-.131-.01-.229-.125-.219-.256.009-.118.104-.21.219-.219.232-.018.463.044.695.11.07.02.111.094.091.164-.013.045-.048.078-.091.091Z" fill="#0c0d0b"/>
        <path d="M41.307,64.051c-.12-.034-.24-.077-.36-.136-.001,0-.002-.002-.001-.004,0,0,0,0,.001-.001.12-.06.24-.103.36-.136.077-.022.157.023.178.1.022.077-.023.157-.1.178-.027.008-.054.007-.079,0Z" fill="#0c0d0b"/>
      </g>
      <g>
        <path d="M51.264,61.629l-.36.031c-.018.001-.034-.012-.036-.031-.001-.018.012-.035.031-.036.002,0,.004,0,.006,0l.36.031s.002.001.002.003c0,.001-.001.002-.002.002Z" fill="#0c0d0b"/>
        <path d="M50.18,61.701c-.241.012-.483.022-.724.023-.054,0-.098-.043-.099-.098s.043-.098.098-.099h0c.241.001.483.011.724.023.042.002.073.037.071.079-.002.039-.033.069-.071.071Z" fill="#0c0d0b"/>
        <path d="M48.732,61.735l-.724-.013c-.053,0-.096-.045-.095-.099,0-.052.043-.094.095-.095l.724-.013c.06,0,.11.047.111.108.001.061-.047.111-.108.112h-.004Z" fill="#0c0d0b"/>
        <path d="M47.283,61.683c-.241-.012-.483-.034-.724-.036-.012,0-.021-.01-.021-.021,0-.011.01-.021.021-.021.241-.003.483-.024.724-.036.032-.001.059.023.061.055.001.032-.023.059-.055.06h-.006Z" fill="#0c0d0b"/>
        <path d="M45.835,61.641c-.241.007-.483.042-.724.061-.042.003-.078-.028-.081-.07s.028-.078.07-.081c.004,0,.008,0,.011,0,.241.019.483.053.724.061.008,0,.015.007.014.015,0,.008-.007.014-.014.014Z" fill="#0c0d0b"/>
        <path d="M44.386,61.699c-.241-.019-.483-.048-.724-.052-.011,0-.021-.01-.021-.021s.009-.021.021-.021c.241-.005.483-.033.724-.052.041-.003.076.027.079.068.003.041-.027.076-.067.079-.004,0-.008,0-.012,0Z" fill="#0c0d0b"/>
        <path d="M42.938,61.683c-.241.018-.483.055-.724.083-.077.009-.147-.046-.155-.124-.009-.077.046-.146.124-.155.01-.001.021,0,.032,0,.241.027.483.064.724.083.031.002.055.03.052.061-.002.028-.025.05-.052.052Z" fill="#0c0d0b"/>
        <path d="M41.49,61.843c-.241.018-.483.024-.724.022-.132,0-.238-.109-.237-.241,0-.131.107-.236.237-.237.241-.002.483.004.724.022.12.009.21.113.201.233-.008.109-.095.193-.201.201Z" fill="#0c0d0b"/>
        <path d="M40.041,61.843c-.241-.01-.483-.029-.724-.051-.092-.009-.159-.09-.151-.181.008-.082.073-.144.151-.151.241-.022.483-.042.724-.052.12-.005.222.088.227.208.005.12-.088.222-.209.227-.006,0-.012,0-.018,0Z" fill="#0c0d0b"/>
        <path d="M38.593,61.695c-.12-.018-.24-.039-.36-.067-.001,0-.002-.002-.002-.003,0,0,0-.002.002-.002.12-.028.24-.049.36-.067.039-.006.074.021.08.059s-.021.074-.059.08c-.007,0-.014,0-.021,0Z" fill="#0c0d0b"/>
      </g>
    </g>
  </g>
  <g id="Tallo">
    <path d="M52.248,66.34v-8.152c0-1.645,1.333-2.978,2.978-2.978h2.429c1.014.007,1.842-1.329,1.838-2.923.013-1.488-.742-2.705-1.677-2.71-3.109-.015-9.86-.041-13.113-.01-2.401.024-2.415-5.861-.011-5.855,0,0,5.817,0,5.817,0,4.285-.712-.61-12.413,3.676-13.126,2.534-.215,5.456,1.129,5.57-2.927.158-7.073-7.211.168-7.408-6.3-.003-1.486.003-6.21,0-7.754" fill="none" stroke="#0c0d0b" stroke-miterlimit="10" stroke-width=".217"/>
  </g>
  <g id="Hojas">
    <g>
      <circle cx="44.698" cy="33.976" r=".67" fill="none" stroke="#0c0d0b" stroke-miterlimit="10" stroke-width=".05"/>
      <circle cx="44.698" cy="33.976" r=".425" fill="#6a3f8f"/>
      <circle cx="47.106" cy="33.68" r=".67" fill="none" stroke="#0c0d0b" stroke-miterlimit="10" stroke-width=".05"/>
      <circle cx="47.106" cy="33.68" r=".425" fill="#0c0d0b"/>
      <circle cx="48.323" cy="34.893" r=".67" fill="none" stroke="#0c0d0b" stroke-miterlimit="10" stroke-width=".05"/>
      <circle cx="48.323" cy="34.893" r=".425" fill="#0c0d0b"/>
      <circle cx="49.784" cy="36.349" r=".67" fill="none" stroke="#0c0d0b" stroke-miterlimit="10" stroke-width=".05"/>
      <circle cx="49.784" cy="36.349" r=".425" fill="#0c0d0b"/>
      <circle cx="44.245" cy="36.409" r=".67" fill="none" stroke="#0c0d0b" stroke-miterlimit="10" stroke-width=".05"/>
      <circle cx="44.245" cy="36.409" r=".425" fill="#0c0d0b"/>
      <circle cx="45.462" cy="37.622" r=".67" fill="none" stroke="#0c0d0b" stroke-miterlimit="10" stroke-width=".05"/>
      <circle cx="45.462" cy="37.622" r=".425" fill="#0c0d0b"/>
      <circle cx="46.923" cy="39.078" r=".67" fill="none" stroke="#0c0d0b" stroke-miterlimit="10" stroke-width=".05"/>
      <circle cx="46.923" cy="39.078" r=".425" fill="#8045b2"/>
      <circle cx="59.819" cy="33.976" r=".67" fill="none" stroke="#0c0d0b" stroke-miterlimit="10" stroke-width=".05"/>
      <circle cx="59.819" cy="33.976" r=".425" fill="#0c0d0b"/>
      <circle cx="57.411" cy="33.68" r=".67" fill="none" stroke="#0c0d0b" stroke-miterlimit="10" stroke-width=".05"/>
      <circle cx="57.411" cy="33.68" r=".425" fill="#0c0d0b"/>
      <circle cx="56.194" cy="34.893" r=".67" fill="none" stroke="#0c0d0b" stroke-miterlimit="10" stroke-width=".05"/>
      <circle cx="56.194" cy="34.893" r=".425" fill="#ab6be0"/>
      <circle cx="54.733" cy="36.349" r=".67" fill="none" stroke="#0c0d0b" stroke-miterlimit="10" stroke-width=".05"/>
      <circle cx="54.733" cy="36.349" r=".425" fill="#0c0d0b"/>
      <circle cx="60.272" cy="36.409" r=".67" fill="none" stroke="#0c0d0b" stroke-miterlimit="10" stroke-width=".05"/>
      <circle cx="60.272" cy="36.409" r=".425" fill="#0c0d0b"/>
      <circle cx="59.054" cy="37.622" r=".67" fill="none" stroke="#0c0d0b" stroke-miterlimit="10" stroke-width=".05"/>
      <circle cx="59.054" cy="37.622" r=".425" fill="#0c0d0b"/>
      <circle cx="57.594" cy="39.078" r=".67" fill="none" stroke="#0c0d0b" stroke-miterlimit="10" stroke-width=".05"/>
      <circle cx="57.594" cy="39.078" r=".425" fill="#0c0d0b"/>
      <polygon points="59.588 36.447 59.588 36.387 57.491 36.387 59.366 34.518 59.323 34.475 57.443 36.349 57.443 34.35 57.382 34.35 57.382 36.41 56.226 37.562 56.226 35.563 56.165 35.563 56.165 37.623 54.765 39.018 54.765 37.019 54.704 37.019 54.704 39.078 52.992 40.784 51.507 40.784 49.796 39.078 49.796 37.019 49.735 37.019 49.735 39.018 48.335 37.623 48.335 35.563 48.274 35.563 48.274 37.562 47.118 36.41 47.118 34.35 47.057 34.35 47.057 36.349 45.177 34.475 45.134 34.518 47.009 36.387 44.912 36.387 44.912 36.447 47.069 36.447 48.226 37.6 46.129 37.6 46.129 37.66 48.287 37.66 49.687 39.055 47.59 39.055 47.59 39.116 49.748 39.116 51.491 40.854 51.491 40.905 53.013 40.905 53.013 40.849 54.752 39.116 56.91 39.116 56.91 39.055 54.813 39.055 56.213 37.66 58.371 37.66 58.371 37.6 56.274 37.6 57.43 36.447 59.588 36.447" fill="#0c0d0b"/>
    </g>
    <g>
      <circle cx="67.194" cy="18.952" r=".67" fill="none" stroke="#0c0d0b" stroke-miterlimit="10" stroke-width=".05"/>
      <circle cx="67.194" cy="18.952" r=".425" fill="#0c0d0b"/>
      <circle cx="64.786" cy="18.656" r=".67" fill="none" stroke="#0c0d0b" stroke-miterlimit="10" stroke-width=".05"/>
      <circle cx="64.786" cy="18.656" r=".425" fill="#0c0d0b"/>
      <circle cx="63.569" cy="19.869" r=".67" fill="none" stroke="#0c0d0b" stroke-miterlimit="10" stroke-width=".05"/>
      <circle cx="63.569" cy="19.869" r=".425" fill="#ab6be0"/>
      <circle cx="62.108" cy="21.325" r=".67" fill="none" stroke="#0c0d0b" stroke-miterlimit="10" stroke-width=".05"/>
      <circle cx="62.108" cy="21.325" r=".425" fill="#0c0d0b"/>
      <circle cx="67.647" cy="21.385" r=".67" fill="none" stroke="#0c0d0b" stroke-miterlimit="10" stroke-width=".05"/>
      <circle cx="67.647" cy="21.385" r=".425" fill="#0c0d0b"/>
      <circle cx="66.43" cy="22.598" r=".67" fill="none" stroke="#0c0d0b" stroke-miterlimit="10" stroke-width=".05"/>
      <circle cx="66.43" cy="22.598" r=".425" fill="#0c0d0b"/>
      <circle cx="64.969" cy="24.054" r=".67" fill="none" stroke="#0c0d0b" stroke-miterlimit="10" stroke-width=".05"/>
      <circle cx="64.969" cy="24.054" r=".425" fill="#0c0d0b"/>
      <polygon points="66.963 21.423 66.963 21.363 64.867 21.363 66.741 19.494 66.698 19.451 64.818 21.325 64.818 19.326 64.757 19.326 64.757 21.385 63.601 22.538 63.601 20.539 63.54 20.539 63.54 22.599 62.14 23.994 62.14 21.995 62.079 21.995 62.079 24.054 60.368 25.76 59.584 25.76 59.584 25.881 60.388 25.881 60.388 25.825 62.128 24.092 64.285 24.092 64.285 24.031 62.188 24.031 63.588 22.636 65.746 22.636 65.746 22.576 63.649 22.576 64.806 21.423 66.963 21.423" fill="#0c0d0b"/>
    </g>
    <g>
      <circle cx="46.912" cy="23.732" r=".67" fill="none" stroke="#0c0d0b" stroke-miterlimit="10" stroke-width=".05"/>
      <circle cx="46.912" cy="23.732" r=".425" fill="#0c0d0b"/>
      <circle cx="49.319" cy="23.436" r=".67" fill="none" stroke="#0c0d0b" stroke-miterlimit="10" stroke-width=".05"/>
      <circle cx="49.319" cy="23.436" r=".425" fill="#0c0d0b"/>
      <circle cx="50.537" cy="24.649" r=".67" fill="none" stroke="#0c0d0b" stroke-miterlimit="10" stroke-width=".05"/>
      <circle cx="50.537" cy="24.649" r=".425" fill="#ab6be0"/>
      <circle cx="51.998" cy="26.105" r=".67" fill="none" stroke="#0c0d0b" stroke-miterlimit="10" stroke-width=".05"/>
      <circle cx="51.998" cy="26.105" r=".425" fill="#0c0d0b"/>
      <circle cx="46.459" cy="26.166" r=".67" fill="none" stroke="#0c0d0b" stroke-miterlimit="10" stroke-width=".05"/>
      <circle cx="46.459" cy="26.166" r=".425" fill="#0c0d0b"/>
      <circle cx="47.676" cy="27.379" r=".67" fill="none" stroke="#0c0d0b" stroke-miterlimit="10" stroke-width=".05"/>
      <circle cx="47.676" cy="27.379" r=".425" fill="#0c0d0b"/>
      <circle cx="49.137" cy="28.834" r=".67" fill="none" stroke="#0c0d0b" stroke-miterlimit="10" stroke-width=".05"/>
      <circle cx="49.137" cy="28.834" r=".425" fill="#0c0d0b"/>
      <polygon points="47.142 26.204 47.142 26.143 49.239 26.143 47.364 24.274 47.407 24.232 49.288 26.105 49.288 24.107 49.348 24.107 49.348 26.166 50.505 27.318 50.505 25.32 50.566 25.32 50.566 27.379 51.966 28.774 51.966 26.775 52.027 26.775 52.027 28.835 53.738 30.54 54.522 30.54 54.522 30.662 53.717 30.662 53.717 30.605 51.978 28.872 49.821 28.872 49.821 28.812 51.917 28.812 50.518 27.417 48.36 27.417 48.36 27.356 50.457 27.356 49.3 26.204 47.142 26.204" fill="#0c0d0b"/>
    </g>
    <g>
      <circle cx="67.058" cy="45.722" r=".67" fill="none" stroke="#0c0d0b" stroke-miterlimit="10" stroke-width=".05"/>
      <circle cx="67.058" cy="45.722" r=".425" fill="#0c0d0b"/>
      <circle cx="64.65" cy="45.426" r=".67" fill="none" stroke="#0c0d0b" stroke-miterlimit="10" stroke-width=".05"/>
      <circle cx="64.65" cy="45.426" r=".425" fill="#0c0d0b"/>
      <circle cx="63.433" cy="46.639" r=".67" fill="none" stroke="#0c0d0b" stroke-miterlimit="10" stroke-width=".05"/>
      <circle cx="63.433" cy="46.639" r=".425" fill="#ab6be0"/>
      <circle cx="61.972" cy="48.095" r=".67" fill="none" stroke="#0c0d0b" stroke-miterlimit="10" stroke-width=".05"/>
      <circle cx="61.972" cy="48.095" r=".425" fill="#0c0d0b"/>
      <circle cx="67.511" cy="48.155" r=".67" fill="none" stroke="#0c0d0b" stroke-miterlimit="10" stroke-width=".05"/>
      <circle cx="67.511" cy="48.155" r=".425" fill="#0c0d0b"/>
      <circle cx="66.293" cy="49.369" r=".67" fill="none" stroke="#0c0d0b" stroke-miterlimit="10" stroke-width=".05"/>
      <circle cx="66.293" cy="49.369" r=".425" fill="#0c0d0b"/>
      <circle cx="64.832" cy="50.824" r=".67" fill="none" stroke="#0c0d0b" stroke-miterlimit="10" stroke-width=".05"/>
      <circle cx="64.832" cy="50.824" r=".425" fill="#0c0d0b"/>
      <polygon points="66.827 48.193 66.827 48.133 64.73 48.133 66.605 46.264 66.562 46.221 64.682 48.095 64.682 46.097 64.621 46.097 64.621 48.156 63.464 49.308 63.464 47.31 63.404 47.31 63.404 49.369 62.004 50.764 62.004 48.765 61.943 48.765 61.943 50.824 60.231 52.53 59.448 52.53 59.448 52.651 60.252 52.651 60.252 52.595 61.991 50.862 64.149 50.862 64.149 50.801 62.052 50.801 63.452 49.406 65.61 49.406 65.61 49.346 63.513 49.346 64.669 48.193 66.827 48.193" fill="#0c0d0b"/>
    </g>
    <g>
      <circle cx="57.77" cy="42.717" r=".67" fill="none" stroke="#0c0d0b" stroke-miterlimit="10" stroke-width=".05"/>
      <circle cx="57.77" cy="42.717" r=".425" fill="#0c0d0b"/>
      <circle cx="55.362" cy="42.421" r=".67" fill="none" stroke="#0c0d0b" stroke-miterlimit="10" stroke-width=".05"/>
      <circle cx="55.362" cy="42.421" r=".425" fill="#0c0d0b"/>
      <circle cx="54.145" cy="43.634" r=".67" fill="none" stroke="#0c0d0b" stroke-miterlimit="10" stroke-width=".05"/>
      <circle cx="54.145" cy="43.634" r=".425" fill="#ab6be0"/>
      <circle cx="52.684" cy="45.09" r=".67" fill="none" stroke="#0c0d0b" stroke-miterlimit="10" stroke-width=".05"/>
      <circle cx="52.684" cy="45.09" r=".425" fill="#0c0d0b"/>
      <circle cx="58.223" cy="45.151" r=".67" fill="none" stroke="#0c0d0b" stroke-miterlimit="10" stroke-width=".05"/>
      <circle cx="58.223" cy="45.151" r=".425" fill="#0c0d0b"/>
      <circle cx="57.006" cy="46.364" r=".67" fill="none" stroke="#0c0d0b" stroke-miterlimit="10" stroke-width=".05"/>
      <circle cx="57.006" cy="46.364" r=".425" fill="#0c0d0b"/>
      <circle cx="55.545" cy="47.819" r=".67" fill="none" stroke="#0c0d0b" stroke-miterlimit="10" stroke-width=".05"/>
      <circle cx="55.545" cy="47.819" r=".425" fill="#0c0d0b"/>
      <polygon points="57.539 45.189 57.539 45.128 55.442 45.128 57.317 43.259 57.274 43.217 55.394 45.09 55.394 43.092 55.333 43.092 55.333 45.151 54.177 46.303 54.177 44.305 54.116 44.305 54.116 46.364 52.716 47.759 52.716 45.76 52.655 45.76 52.655 47.82 50.944 49.525 50.16 49.525 50.16 49.647 50.964 49.647 50.964 49.59 52.703 47.857 54.861 47.857 54.861 47.797 52.764 47.797 54.164 46.402 56.322 46.402 56.322 46.341 54.225 46.341 55.381 45.189 57.539 45.189" fill="#0c0d0b"/>
    </g>
    <g>
      <circle cx="37.351" cy="36.844" r=".67" fill="none" stroke="#0c0d0b" stroke-miterlimit="10" stroke-width=".05"/>
      <circle cx="37.351" cy="36.844" r=".425" fill="#0c0d0b"/>
      <circle cx="39.759" cy="36.548" r=".67" fill="none" stroke="#0c0d0b" stroke-miterlimit="10" stroke-width=".05"/>
      <circle cx="39.759" cy="36.548" r=".425" fill="#0c0d0b"/>
      <circle cx="40.976" cy="37.761" r=".67" fill="none" stroke="#0c0d0b" stroke-miterlimit="10" stroke-width=".05"/>
      <circle cx="40.976" cy="37.761" r=".425" fill="#ab6be0"/>
      <circle cx="42.437" cy="39.217" r=".67" fill="none" stroke="#0c0d0b" stroke-miterlimit="10" stroke-width=".05"/>
      <circle cx="42.437" cy="39.217" r=".425" fill="#0c0d0b"/>
      <circle cx="36.898" cy="39.278" r=".67" fill="none" stroke="#0c0d0b" stroke-miterlimit="10" stroke-width=".05"/>
      <circle cx="36.898" cy="39.278" r=".425" fill="#0c0d0b"/>
      <circle cx="38.115" cy="40.491" r=".67" fill="none" stroke="#0c0d0b" stroke-miterlimit="10" stroke-width=".05"/>
      <circle cx="38.115" cy="40.491" r=".425" fill="#0c0d0b"/>
      <circle cx="39.576" cy="41.946" r=".67" fill="none" stroke="#0c0d0b" stroke-miterlimit="10" stroke-width=".05"/>
      <circle cx="39.576" cy="41.946" r=".425" fill="#0c0d0b"/>
      <polygon points="37.582 39.316 37.582 39.255 39.679 39.255 37.804 37.386 37.847 37.344 39.727 39.217 39.727 37.219 39.788 37.219 39.788 39.278 40.944 40.43 40.944 38.432 41.005 38.432 41.005 40.491 42.405 41.886 42.405 39.887 42.466 39.887 42.466 41.946 44.177 43.652 44.961 43.652 44.961 43.773 44.157 43.773 44.157 43.717 42.417 41.984 40.26 41.984 40.26 41.924 42.357 41.924 40.957 40.529 38.799 40.529 38.799 40.468 40.896 40.468 39.739 39.316 37.582 39.316" fill="#0c0d0b"/>
    </g>
    <g>
      <path d="M42.691,56.487c-.013-.866,1.352-.866,1.339,0,.013.866-1.352.866-1.339,0Z" fill="none" stroke="#0c0d0b" stroke-miterlimit="10" stroke-width=".05"/>
      <path d="M42.935,56.487c-.008-.551.86-.551.852,0,.008.551-.86.551-.852,0Z" fill="#0c0d0b"/>
      <path d="M45.099,56.783c-.013-.866,1.352-.866,1.339,0,.013.866-1.352.866-1.339,0Z" fill="none" stroke="#0c0d0b" stroke-miterlimit="10" stroke-width=".05"/>
      <path d="M45.342,56.783c-.008-.551.86-.551.852,0,.008.551-.86.551-.852,0Z" fill="#0c0d0b"/>
      <path d="M46.316,55.569c-.013-.866,1.352-.866,1.339,0,.013.866-1.352.866-1.339,0Z" fill="none" stroke="#0c0d0b" stroke-miterlimit="10" stroke-width=".05"/>
      <path d="M46.56,55.569c-.008-.551.86-.551.852,0,.008.551-.86.551-.852,0Z" fill="#ab6be0"/>
      <path d="M47.777,54.114c-.013-.866,1.352-.866,1.339,0,.013.866-1.352.866-1.339,0Z" fill="none" stroke="#0c0d0b" stroke-miterlimit="10" stroke-width=".05"/>
      <path d="M48.02,54.114c-.008-.551.86-.551.852,0,.008.551-.86.551-.852,0Z" fill="#0c0d0b"/>
      <path d="M42.238,54.053c-.013-.866,1.352-.866,1.339,0,.013.866-1.352.866-1.339,0Z" fill="none" stroke="#0c0d0b" stroke-miterlimit="10" stroke-width=".05"/>
      <path d="M42.482,54.053c-.008-.551.86-.551.852,0,.008.551-.86.551-.852,0Z" fill="#0c0d0b"/>
      <path d="M43.455,52.84c-.013-.866,1.352-.866,1.339,0,.013.866-1.352.866-1.339,0Z" fill="none" stroke="#0c0d0b" stroke-miterlimit="10" stroke-width=".05"/>
      <path d="M43.699,52.84c-.008-.551.86-.551.852,0,.008.551-.86.551-.852,0Z" fill="#0c0d0b"/>
      <path d="M44.916,51.384c-.013-.866,1.352-.866,1.339,0,.013.866-1.352.866-1.339,0Z" fill="none" stroke="#0c0d0b" stroke-miterlimit="10" stroke-width=".05"/>
      <path d="M45.16,51.384c-.008-.551.86-.551.852,0,.008.551-.86.551-.852,0Z" fill="#0c0d0b"/>
      <polygon points="43.591 54.015 43.591 54.076 45.688 54.076 43.813 55.944 43.856 55.987 45.736 54.114 45.736 56.112 45.797 56.112 45.797 54.053 46.954 52.901 46.954 54.899 47.015 54.899 47.015 52.84 48.414 51.445 48.414 53.443 48.475 53.443 48.475 51.384 50.187 49.679 50.971 49.679 50.971 49.557 50.166 49.557 50.166 49.613 48.427 51.346 46.269 51.346 46.269 51.407 48.366 51.407 46.966 52.802 44.809 52.802 44.809 52.863 46.906 52.863 45.749 54.015 43.591 54.015" fill="#0c0d0b"/>
    </g>
    <g>
      <path d="M34.633,53.755c-.013-.866,1.352-.866,1.339,0,.013.866-1.352.866-1.339,0Z" fill="none" stroke="#0c0d0b" stroke-miterlimit="10" stroke-width=".05"/>
      <path d="M34.876,53.755c-.008-.551.86-.551.852,0,.008.551-.86.551-.852,0Z" fill="#0c0d0b"/>
      <path d="M37.04,54.051c-.013-.866,1.352-.866,1.339,0,.013.866-1.352.866-1.339,0Z" fill="none" stroke="#0c0d0b" stroke-miterlimit="10" stroke-width=".05"/>
      <path d="M37.284,54.051c-.008-.551.86-.551.852,0,.008.551-.86.551-.852,0Z" fill="#0c0d0b"/>
      <path d="M38.258,52.838c-.013-.866,1.352-.866,1.339,0,.013.866-1.352.866-1.339,0Z" fill="none" stroke="#0c0d0b" stroke-miterlimit="10" stroke-width=".05"/>
      <path d="M38.501,52.838c-.008-.551.86-.551.852,0,.008.551-.86.551-.852,0Z" fill="#ab6be0"/>
      <path d="M39.718,51.382c-.013-.866,1.352-.866,1.339,0,.013.866-1.352.866-1.339,0Z" fill="none" stroke="#0c0d0b" stroke-miterlimit="10" stroke-width=".05"/>
      <path d="M39.962,51.382c-.008-.551.86-.551.852,0,.008.551-.86.551-.852,0Z" fill="#0c0d0b"/>
      <path d="M34.18,51.321c-.013-.866,1.352-.866,1.339,0,.013.866-1.352.866-1.339,0Z" fill="none" stroke="#0c0d0b" stroke-miterlimit="10" stroke-width=".05"/>
      <path d="M34.423,51.321c-.008-.551.86-.551.852,0,.008.551-.86.551-.852,0Z" fill="#0c0d0b"/>
      <path d="M35.397,50.108c-.013-.866,1.352-.866,1.339,0,.013.866-1.352.866-1.339,0Z" fill="none" stroke="#0c0d0b" stroke-miterlimit="10" stroke-width=".05"/>
      <path d="M35.641,50.108c-.008-.551.86-.551.852,0,.008.551-.86.551-.852,0Z" fill="#0c0d0b"/>
      <path d="M36.858,48.653c-.013-.866,1.352-.866,1.339,0,.013.866-1.352.866-1.339,0Z" fill="none" stroke="#0c0d0b" stroke-miterlimit="10" stroke-width=".05"/>
      <path d="M37.101,48.653c-.008-.551.86-.551.852,0,.008.551-.86.551-.852,0Z" fill="#0c0d0b"/>
      <polygon points="35.533 51.284 35.533 51.344 37.63 51.344 35.755 53.213 35.798 53.256 37.678 51.382 37.678 53.38 37.739 53.38 37.739 51.321 38.895 50.169 38.895 52.167 38.956 52.167 38.956 50.108 40.356 48.713 40.356 50.712 40.417 50.712 40.417 48.653 42.129 46.947 42.912 46.947 42.912 46.826 42.108 46.826 42.108 46.882 40.369 48.615 38.211 48.615 38.211 48.675 40.308 48.675 38.908 50.071 36.75 50.071 36.75 50.131 38.847 50.131 37.691 51.284 35.533 51.284" fill="#0c0d0b"/>
    </g>
    <g>
      <path d="M67.864,35.999c.013-.866-1.352-.866-1.339,0-.013.866,1.352.866,1.339,0Z" fill="none" stroke="#0c0d0b" stroke-miterlimit="10" stroke-width=".05"/>
      <path d="M67.62,35.999c.008-.551-.86-.551-.852,0-.008.551.86.551.852,0Z" fill="#0c0d0b"/>
      <path d="M65.456,36.295c.013-.866-1.352-.866-1.339,0-.013.866,1.352.866,1.339,0Z" fill="none" stroke="#0c0d0b" stroke-miterlimit="10" stroke-width=".05"/>
      <path d="M65.212,36.295c.008-.551-.86-.551-.852,0-.008.551.86.551.852,0Z" fill="#0c0d0b"/>
      <path d="M64.239,35.082c.013-.866-1.352-.866-1.339,0-.013.866,1.352.866,1.339,0Z" fill="none" stroke="#0c0d0b" stroke-miterlimit="10" stroke-width=".05"/>
      <path d="M63.995,35.082c.008-.551-.86-.551-.852,0-.008.551.86.551.852,0Z" fill="#ab6be0"/>
      <path d="M62.778,33.626c.013-.866-1.352-.866-1.339,0-.013.866,1.352.866,1.339,0Z" fill="none" stroke="#0c0d0b" stroke-miterlimit="10" stroke-width=".05"/>
      <path d="M62.534,33.626c.008-.551-.86-.551-.852,0-.008.551.86.551.852,0Z" fill="#0c0d0b"/>
      <path d="M68.317,33.566c.013-.866-1.352-.866-1.339,0-.013.866,1.352.866,1.339,0Z" fill="none" stroke="#0c0d0b" stroke-miterlimit="10" stroke-width=".05"/>
      <path d="M68.073,33.566c.008-.551-.86-.551-.852,0-.008.551.86.551.852,0Z" fill="#0c0d0b"/>
      <path d="M67.099,32.353c.013-.866-1.352-.866-1.339,0-.013.866,1.352.866,1.339,0Z" fill="none" stroke="#0c0d0b" stroke-miterlimit="10" stroke-width=".05"/>
      <path d="M66.856,32.353c.008-.551-.86-.551-.852,0-.008.551.86.551.852,0Z" fill="#0c0d0b"/>
      <path d="M65.638,30.897c.013-.866-1.352-.866-1.339,0-.013.866,1.352.866,1.339,0Z" fill="none" stroke="#0c0d0b" stroke-miterlimit="10" stroke-width=".05"/>
      <path d="M65.395,30.897c.008-.551-.86-.551-.852,0-.008.551.86.551.852,0Z" fill="#0c0d0b"/>
      <polygon points="66.963 33.528 66.963 33.588 64.866 33.588 66.741 35.457 66.698 35.5 64.818 33.626 64.818 35.625 64.757 35.625 64.757 33.566 63.601 32.413 63.601 34.412 63.54 34.412 63.54 32.353 62.14 30.958 62.14 32.956 62.079 32.956 62.079 30.897 60.368 29.191 59.584 29.191 59.584 29.07 60.388 29.07 60.388 29.126 62.128 30.859 64.285 30.859 64.285 30.92 62.188 30.92 63.588 32.315 65.746 32.315 65.746 32.375 63.649 32.375 64.806 33.528 66.963 33.528" fill="#0c0d0b"/>
    </g>
  </g>
  <g id="Flores">
    <g>
      <path d="M59.812,3.96v8.615c0,.648-.559,1.174-1.245,1.174h-1.757V.77h-.121v12.98h-4.228V1.554h-.129v12.196h-5.182c-.754,0-1.367-.579-1.367-1.29V3.96h-.125v8.5c0,.78.669,1.415,1.492,1.415h5.182v4.49h.129v-4.402l3.822,3.824c.06.06.137.091.217.091.04,0,.081-.008.12-.024.118-.049.191-.158.191-.286v-3.694h1.757c.755,0,1.37-.583,1.37-1.299V3.96h-.125ZM56.688,17.569c0,.092-.06.15-.116.173-.056.023-.139.025-.204-.041l-3.824-3.826h4.144v3.694Z" fill="#0c0d0b"/>
      <g>
        <path d="M53.367,7.791c.001.021.002.042.002.063,0,.529-.428.957-.956.957s-.956-.428-.956-.957c0-.021,0-.042.002-.063-.879.019-1.759.064-2.625.183,1.539,1.929,4.274,2.316,6.263.852.329-.247.629-.505.895-.856-.873-.111-1.748-.159-2.625-.179Z" fill="#0c0d0b"/>
        <circle cx="52.413" cy="7.885" r=".525" transform="translate(44.409 60.28) rotate(-89.871)" fill="#0c0d0b"/>
      </g>
      <g>
        <path d="M52.934,2.303c0,.011.001.023.001.034,0,.289-.234.523-.523.523s-.523-.234-.523-.523c0-.012,0-.023.001-.034-.48.01-.961.035-1.435.1.841,1.055,2.336,1.266,3.424.466.18-.135.344-.276.489-.468-.477-.061-.956-.087-1.435-.098Z" fill="#0c0d0b"/>
        <circle cx="52.413" cy="2.354" r=".287" transform="translate(49.94 54.761) rotate(-89.871)" fill="#0c0d0b"/>
      </g>
      <g>
        <path d="M52.934,4.124c0,.011.001.023.001.034,0,.289-.234.523-.523.523s-.523-.234-.523-.523c0-.012,0-.023.001-.034-.48.01-.961.035-1.435.1.841,1.055,2.336,1.266,3.424.466.18-.135.344-.276.489-.468-.477-.061-.956-.087-1.435-.098Z" fill="#0c0d0b"/>
        <circle cx="52.413" cy="4.175" r=".287" transform="translate(48.119 56.578) rotate(-89.871)" fill="#0c0d0b"/>
      </g>
      <g>
        <path d="M52.934,5.945c0,.011.001.023.001.034,0,.289-.234.523-.523.523s-.523-.234-.523-.523c0-.012,0-.023.001-.034-.48.01-.961.035-1.435.1.841,1.055,2.336,1.266,3.424.466.18-.135.344-.276.489-.468-.477-.061-.956-.087-1.435-.098Z" fill="#0c0d0b"/>
        <circle cx="52.413" cy="5.996" r=".287" transform="translate(46.298 58.395) rotate(-89.871)" fill="#0c0d0b"/>
      </g>
      <g>
        <path d="M57.171,2.256c0,.01.001.019.001.029,0,.242-.196.438-.438.438s-.438-.196-.438-.438c0-.01,0-.019.001-.029-.402.009-.805.029-1.201.084.704.883,1.956,1.06,2.866.39.151-.113.288-.231.409-.392-.4-.051-.8-.073-1.201-.082Z" fill="#0c0d0b"/>
        <circle cx="56.735" cy="2.299" r=".24" transform="translate(54.308 59.028) rotate(-89.871)" fill="#0c0d0b"/>
      </g>
      <g>
        <path d="M57.171,3.78c0,.01.001.019.001.029,0,.242-.196.438-.438.438s-.438-.196-.438-.438c0-.01,0-.019.001-.029-.402.009-.805.029-1.201.084.704.883,1.956,1.06,2.866.39.151-.113.288-.231.409-.392-.4-.051-.8-.073-1.201-.082Z" fill="#0c0d0b"/>
        <circle cx="56.735" cy="3.823" r=".24" transform="translate(52.784 60.549) rotate(-89.871)" fill="#0c0d0b"/>
      </g>
      <g>
        <path d="M57.171,5.304c0,.01.001.019.001.029,0,.242-.196.438-.438.438s-.438-.196-.438-.438c0-.01,0-.019.001-.029-.402.009-.805.029-1.201.084.704.883,1.956,1.06,2.866.39.151-.113.288-.231.409-.392-.4-.051-.8-.073-1.201-.082Z" fill="#0c0d0b"/>
        <circle cx="56.735" cy="5.347" r=".24" transform="translate(51.259 62.07) rotate(-89.871)" fill="#0c0d0b"/>
      </g>
      <g>
        <path d="M60.25,5.285c0,.008,0,.016,0,.025,0,.208-.169.377-.377.377s-.377-.169-.377-.377c0-.008,0-.017,0-.025-.346.007-.693.025-1.034.072.607.76,1.684.913,2.468.336.13-.097.248-.199.353-.337-.344-.044-.689-.063-1.034-.071Z" fill="#0c0d0b"/>
        <circle cx="59.874" cy="5.322" r=".207" transform="translate(54.417 65.184) rotate(-89.871)" fill="#0c0d0b"/>
      </g>
      <g>
        <path d="M60.25,6.598c0,.008,0,.016,0,.025,0,.208-.169.377-.377.377s-.377-.169-.377-.377c0-.008,0-.017,0-.025-.346.007-.693.025-1.034.072.607.76,1.684.913,2.468.336.13-.097.248-.199.353-.337-.344-.044-.689-.063-1.034-.071Z" fill="#0c0d0b"/>
        <circle cx="59.874" cy="6.635" r=".207" transform="translate(53.105 66.493) rotate(-89.871)" fill="#0c0d0b"/>
      </g>
      <g>
        <path d="M60.25,7.91c0,.008,0,.016,0,.025,0,.208-.169.377-.377.377s-.377-.169-.377-.377c0-.008,0-.017,0-.025-.346.007-.693.025-1.034.072.607.76,1.684.913,2.468.336.13-.097.248-.199.353-.337-.344-.044-.689-.063-1.034-.071Z" fill="#0c0d0b"/>
        <circle cx="59.874" cy="7.947" r=".207" transform="translate(51.792 67.803) rotate(-89.871)" fill="#0c0d0b"/>
      </g>
      <g>
        <path d="M46.679,9.521c.001.021.002.042.002.063,0,.529-.428.957-.956.957s-.956-.428-.956-.957c0-.021,0-.042.002-.063-.879.019-1.759.064-2.625.183,1.539,1.929,4.274,2.316,6.263.852.329-.247.629-.505.895-.856-.873-.111-1.748-.159-2.625-.179Z" fill="#0c0d0b"/>
        <circle cx="45.724" cy="9.615" r=".525" transform="translate(36.006 55.318) rotate(-89.871)" fill="#0c0d0b"/>
      </g>
      <g>
        <path d="M46.246,4.033c0,.011.001.023.001.034,0,.289-.234.523-.523.523s-.523-.234-.523-.523c0-.012,0-.023.001-.034-.48.01-.961.035-1.435.1.841,1.055,2.336,1.266,3.424.466.18-.135.344-.276.489-.468-.477-.061-.956-.087-1.435-.098Z" fill="#0c0d0b"/>
        <circle cx="45.724" cy="4.084" r=".287" transform="translate(41.537 49.799) rotate(-89.871)" fill="#0c0d0b"/>
      </g>
      <g>
        <path d="M46.246,5.854c0,.011.001.023.001.034,0,.289-.234.523-.523.523s-.523-.234-.523-.523c0-.012,0-.023.001-.034-.48.01-.961.035-1.435.1.841,1.055,2.336,1.266,3.424.466.18-.135.344-.276.489-.468-.477-.061-.956-.087-1.435-.098Z" fill="#0c0d0b"/>
        <circle cx="45.724" cy="5.905" r=".287" transform="translate(39.716 51.616) rotate(-89.871)" fill="#0c0d0b"/>
      </g>
      <g>
        <path d="M46.246,7.675c0,.011.001.023.001.034,0,.289-.234.523-.523.523s-.523-.234-.523-.523c0-.012,0-.023.001-.034-.48.01-.961.035-1.435.1.841,1.055,2.336,1.266,3.424.466.18-.135.344-.276.489-.468-.477-.061-.956-.087-1.435-.098Z" fill="#0c0d0b"/>
        <circle cx="45.724" cy="7.726" r=".287" transform="translate(37.896 53.433) rotate(-89.871)" fill="#0c0d0b"/>
      </g>
      <circle cx="45.724" cy="9.624" r=".41" fill="#6a3f8f"/>
      <circle cx="56.735" cy=".975" r=".592" fill="#6a3f8f"/>
      <g>
        <path d="M52.934.619c0,.011.001.023.001.034,0,.289-.234.523-.523.523s-.523-.234-.523-.523c0-.012,0-.023.001-.034-.48.01-.961.035-1.435.1.841,1.055,2.336,1.266,3.424.466.18-.135.344-.276.489-.468-.477-.061-.956-.087-1.435-.098Z" fill="#0c0d0b"/>
        <circle cx="52.413" cy=".67" r=".287" transform="translate(51.625 53.081) rotate(-89.871)" fill="#0c0d0b"/>
      </g>
      <circle cx="52.428" cy=".592" r=".592" fill="#6a3f8f"/>
      <circle cx="59.874" cy="3.797" r=".592" fill="#6a3f8f"/>
      <circle cx="52.413" cy="13.812" r="1.001" fill="#6a3f8f"/>
    </g>
  </g>
</svg>