<?xml version="1.0" encoding="UTF-8"?>
<svg xmlns="http://www.w3.org/2000/svg" width="100" height="100" viewBox="0 0 100 100">
  <g id="background">
    <circle cx="52.507" cy="71.232" r="9.304" fill="#6a3f8f" opacity=".33"/>
  </g>
  <g id="root">
    <g>
      <path d="M51.771,77.049v3.858c0,.931-.755,1.686-1.686,1.686h-1.535c-.931,0-1.686.755-1.686,1.686v1.005c0,.931.755,1.686,1.686,1.686h5.188c.931,0,1.686.755,1.686,1.686v5.973" fill="none" stroke="#0c0d0b" stroke-miterlimit="10" stroke-width=".081"/>
      <path d="M55.653,73.869h10.375c.931,0,1.686.755,1.686,1.686v4.687c0,.931-.755,1.686-1.686,1.686h-1.996c-.931,0-1.686.755-1.686,1.686v16.385" fill="none" stroke="#0c0d0b" stroke-miterlimit="10" stroke-width=".081"/>
      <path d="M46.864,69.907c.206.121-5.235.063-8.099.025-.94-.013-1.708.746-1.708,1.686v1.481c0,.931.755,1.686,1.686,1.686h0c.931,0,1.686.755,1.686,1.686v4.771c0,.931-.755,1.686-1.686,1.686h-5.033c-.931,0-1.686.755-1.686,1.686v5.485c0,.931.755,1.686,1.686,1.686h4.72c.931,0,1.686.755,1.686,1.686v6.528" fill="none" stroke="#0c0d0b" stroke-miterlimit="10" stroke-width=".081"/>
      <path d="M40.429,78.891h1.365c1.292,0,2.339,1.047,2.339,2.339v4.503c0,1.292-1.047,2.339-2.339,2.339h-5.65" fill="none" stroke="#0c0d0b" stroke-miterlimit="10" stroke-width=".081"/>
      <path d="M55.37,92.133h-.247c-1.292,0-2.339,1.047-2.339,2.339v1.732c0,1.292,1.047,2.339,2.339,2.339h3.239" fill="none" stroke="#0c0d0b" stroke-miterlimit="10" stroke-width=".081"/>
      <path d="M67.715,77.869h-6.59c-1.292,0-2.339,1.047-2.339,2.339v9.041" fill="none" stroke="#0c0d0b" stroke-miterlimit="10" stroke-width=".081"/>
    </g>
  </g>
  <g id="seed">
    <g>
      <path d="M60.625,72.522c.019-.002-.768-.171-1.528-.329.005-.057.01-.113.013-.17.76-.116,1.548-.237,1.566-.241.018-.004-.78-.1-1.551-.188,0-.057,0-.114-.002-.171.746-.185,1.519-.378,1.537-.383.018-.006-.786-.028-1.562-.045-.005-.057-.011-.114-.018-.17.726-.253,1.478-.515,1.495-.522.017-.007-.785.044-1.559.098-.01-.056-.022-.112-.033-.168.7-.318,1.424-.648,1.44-.656.017-.009-.777.115-1.543.24-.016-.055-.032-.11-.049-.165.668-.381,1.358-.775,1.374-.785.016-.01-.763.186-1.515.38-.021-.053-.042-.106-.064-.159.63-.44,1.282-.896,1.296-.908.015-.012-.743.255-1.474.517-.025-.051-.051-.102-.078-.153.587-.496,1.195-1.01,1.208-1.023.014-.013-.717.322-1.421.65-.03-.049-.06-.097-.091-.145.54-.548,1.098-1.115,1.11-1.129.012-.014-.685.386-1.355.777-.034-.046-.069-.091-.104-.136.487-.595.991-1.211,1.002-1.226.011-.015-.647.447-1.279.898-.038-.042-.077-.084-.116-.126.431-.637.877-1.297.886-1.313.01-.016-.603.505-1.192,1.011-.042-.039-.084-.077-.127-.114.371-.674.754-1.372.762-1.389.008-.017-.554.558-1.094,1.116-.045-.035-.091-.069-.137-.102.308-.705.626-1.435.632-1.452.006-.018-.501.606-.987,1.211-.048-.03-.097-.06-.146-.09.242-.73.492-1.486.496-1.503.005-.018-.443.648-.872,1.295-.051-.026-.102-.051-.154-.076.174-.749.354-1.524.357-1.542.003-.019-.382.686-.749,1.37-.053-.021-.106-.042-.16-.062.105-.761.213-1.549.214-1.568.001-.019-.318.718-.621,1.433-.055-.016-.11-.032-.165-.047.035-.768.07-1.563.07-1.581,0-.019-.251.745-.488,1.484-.056-.011-.112-.021-.168-.031-.036-.768-.073-1.563-.075-1.581-.002-.019-.181.765-.35,1.523-.057-.006-.113-.011-.17-.016-.106-.762-.216-1.55-.22-1.568-.004-.019-.111.779-.209,1.549-.029,0-.059-.001-.088-.001-.028,0-.055,0-.082.001-.175-.749-.357-1.525-.362-1.542-.005-.018-.039.785-.067,1.561-.057.004-.114.01-.17.015-.243-.73-.495-1.485-.502-1.502-.007-.017.033.785.076,1.56-.056.01-.113.02-.168.031-.309-.704-.628-1.433-.637-1.449-.009-.017.104.779.219,1.546-.055.015-.11.03-.165.046-.372-.673-.756-1.369-.766-1.385-.01-.016.175.765.359,1.519-.054.02-.107.04-.16.062-.432-.636-.878-1.294-.89-1.309-.012-.015.245.746.497,1.48-.052.025-.103.05-.154.076-.488-.594-.993-1.208-1.006-1.222-.013-.014.312.721.63,1.429-.049.029-.098.059-.146.089-.54-.547-1.1-1.113-1.114-1.125-.014-.013.377.69.759,1.366-.046.034-.092.068-.137.102-.588-.495-1.198-1.008-1.213-1.019-.015-.011.438.653.88,1.291-.043.038-.085.076-.127.114-.631-.44-1.285-.895-1.301-.904-.016-.01.496.61.995,1.205-.039.041-.078.083-.116.125-.669-.38-1.361-.773-1.378-.781-.017-.008.55.562,1.101,1.109-.035.045-.07.09-.104.135-.701-.317-1.426-.645-1.443-.652-.018-.007.599.509,1.197,1.004-.031.048-.062.096-.092.145-.727-.252-1.479-.512-1.496-.517-.018-.005.643.452,1.284.89-.027.05-.053.101-.078.153-.746-.184-1.519-.375-1.537-.378-.019-.003.681.391,1.359.768-.022.053-.043.106-.064.159-.76-.115-1.546-.234-1.565-.236-.019-.002.714.327,1.424.641-.017.055-.033.109-.049.164-.767-.045-1.561-.092-1.58-.091-.019,0,.741.261,1.477.508-.012.056-.023.112-.033.168-.768.025-1.564.052-1.582.053-.019.002.762.192,1.518.371-.007.056-.013.113-.018.17-.763.095-1.553.195-1.571.198-.019.004.777.121,1.546.231-.002.057-.002.114-.002.171-.751.165-1.529.336-1.547.341-.018.005.785.05,1.561.088.004.057.008.114.013.17-.733.233-1.492.474-1.509.481-.018.007.785-.022,1.561-.055.009.057.018.113.029.169-.708.299-1.441.608-1.458.617-.017.008.78-.094,1.549-.197.014.056.029.111.044.166-.678.362-1.379.737-1.395.747-.016.01.768-.165,1.524-.338.019.054.039.108.059.161-.642.423-1.306.861-1.321.872-.015.011.75-.234,1.487-.476.024.052.048.103.074.155-.601.48-1.222.977-1.236.989-.014.013.725-.302,1.438-.61.029.049.058.098.088.147-.554.533-1.128,1.084-1.14,1.098-.013.014.695-.367,1.376-.74.033.047.066.093.1.139-.503.581-1.024,1.183-1.035,1.198-.011.015.659-.429,1.303-.863,1.202,1.41,2.992,2.305,4.99,2.305s3.784-.893,4.986-2.3c.679.361,1.382.736,1.399.743.017.008-.565-.546-1.131-1.078.034-.046.068-.092.101-.139.709.298,1.443.606,1.46.612.018.006-.612-.492-1.224-.97.03-.049.059-.098.088-.147.733.232,1.492.471,1.51.476.018.005-.655-.434-1.308-.854.025-.051.05-.103.074-.155.751.164,1.528.333,1.547.335.019.003-.692-.372-1.38-.731.02-.053.04-.107.059-.161.763.094,1.552.191,1.571.192.019.001-.723-.308-1.441-.601.015-.055.03-.11.044-.166.768.024,1.563.049,1.582.048.019,0-.748-.24-1.49-.467.01-.056.02-.112.029-.169.768-.046,1.562-.095,1.58-.097ZM52.572,67.267c-1.156.298-1.74.979-1.704,1.975.034.926.658,1.589,1.701,1.788v2.838c-1.614.017-3.257-1.528-3.301-3.608-.05-2.338,1.771-3.865,3.304-3.886v.892ZM52.721,73.869v-2.838c1.043-.2,1.667-.862,1.701-1.788.036-.997-.548-1.677-1.704-1.975v-.892c1.533.021,3.354,1.548,3.304,3.886-.044,2.08-1.687,3.625-3.301,3.608Z" fill="#0c0c0c"/>
      <circle cx="52.572" cy="69.065" r=".843" fill="#6a3f8f"/>
    </g>
  </g>
  <g id="soil">
    <g>
      <line x1="37.16" y1="60.758" x2="68.017" y2="60.758" fill="none" stroke="#0c0d0b" stroke-miterlimit="10" stroke-width=".121"/>
      <g>
        <path d="M66.731,61.629l-.36.031c-.018.001-.034-.012-.036-.031-.001-.018.012-.035.031-.036.002,0,.004,0,.006,0l.36.031s.002.001.002.003c0,.001,0,.002-.002.002Z" fill="#0c0d0b"/>
        <path d="M65.647,61.701c-.241.012-.483.022-.724.023-.054,0-.098-.043-.099-.098s.043-.098.098-.099h0c.241.001.483.011.724.023.041.002.073.037.071.079-.002.039-.033.069-.071.071Z" fill="#0c0d0b"/>
        <path d="M64.199,61.735l-.724-.013c-.053,0-.096-.045-.095-.099,0-.052.043-.094.095-.095l.724-.013c.06,0,.11.047.111.108,0,.061-.047.111-.108.112h-.004Z" fill="#0c0d0b"/>
        <path d="M62.75,61.683c-.241-.012-.483-.034-.724-.036-.012,0-.021-.01-.021-.021,0-.011.01-.021.021-.021.241-.003.483-.024.724-.036.032-.001.059.023.061.055.001.032-.023.059-.055.06h-.006Z" fill="#0c0d0b"/>
        <path d="M61.302,61.641c-.241.007-.483.042-.724.061-.042.003-.078-.028-.081-.07s.028-.078.07-.081c.004,0,.008,0,.011,0,.241.019.483.053.724.061.008,0,.014.007.014.015,0,.008-.007.014-.014.014Z" fill="#0c0d0b"/>
        <path d="M59.853,61.699c-.241-.019-.483-.048-.724-.052-.011,0-.021-.01-.021-.021s.009-.021.021-.021c.241-.005.483-.033.724-.052.041-.003.076.027.079.068s-.027.076-.068.079c-.004,0-.008,0-.012,0Z" fill="#0c0d0b"/>
        <path d="M58.405,61.683c-.241.018-.483.055-.724.083-.077.009-.146-.046-.155-.124-.009-.077.047-.146.124-.155.01-.001.021,0,.031,0,.241.027.483.064.724.083.031.002.055.03.052.061-.002.028-.025.05-.052.052Z" fill="#0c0d0b"/>
        <path d="M56.957,61.843c-.241.018-.483.024-.724.022-.132,0-.238-.109-.237-.241,0-.131.107-.236.237-.237.241-.002.483.004.724.022.12.009.21.113.201.233-.008.109-.095.193-.201.201Z" fill="#0c0d0b"/>
        <path d="M55.508,61.843c-.241-.01-.483-.029-.724-.051-.092-.009-.159-.09-.151-.181.008-.082.073-.144.151-.151.241-.022.483-.042.724-.052.12-.005.222.088.227.208.005.12-.088.222-.209.227-.006,0-.012,0-.018,0Z" fill="#0c0d0b"/>
        <path d="M54.06,61.695c-.12-.018-.24-.039-.36-.067-.001,0-.002-.002-.002-.003,0,0,0-.002.002-.002.12-.028.24-.049.36-.067.038-.006.074.021.08.059s-.021.074-.059.08c-.007,0-.014,0-.021,0Z" fill="#0c0d0b"/>
      </g>
      <g>
        <path d="M58.731,62.771l-.36.031c-.018.001-.034-.012-.036-.031-.001-.018.012-.035.031-.036.002,0,.004,0,.006,0l.36.031s.002.001.002.003c0,.001,0,.002-.002.002Z" fill="#0c0d0b"/>
        <path d="M57.647,62.844c-.241.012-.483.022-.724.023-.054,0-.098-.044-.099-.098s.043-.098.098-.099h0c.241.001.483.011.724.023.041.002.073.038.071.079-.002.039-.033.069-.071.071Z" fill="#0c0d0b"/>
        <path d="M56.198,62.878l-.724-.013c-.053,0-.096-.045-.095-.099,0-.052.043-.094.095-.095l.724-.012c.061-.001.111.047.112.108,0,.06-.047.11-.108.111h-.004Z" fill="#0c0d0b"/>
        <path d="M54.75,62.826c-.241-.012-.483-.034-.724-.036-.012,0-.021-.01-.021-.021,0-.011.01-.021.021-.021.241-.003.483-.024.724-.036.032-.001.059.023.061.055.001.032-.023.059-.055.06-.002,0-.004,0-.006,0Z" fill="#0c0d0b"/>
        <path d="M53.302,62.784c-.241.007-.483.042-.724.061-.042.003-.078-.028-.081-.07s.028-.078.07-.081c.004,0,.008,0,.011,0,.241.019.483.053.724.061.008,0,.014.007.014.015,0,.008-.007.014-.014.014Z" fill="#0c0d0b"/>
        <path d="M51.853,62.842c-.241-.019-.483-.048-.724-.052-.011,0-.021-.01-.021-.021,0-.011.009-.02.021-.021.241-.005.483-.033.724-.052.041-.003.076.027.079.067s-.027.076-.068.079c-.004,0-.008,0-.012,0Z" fill="#0c0d0b"/>
        <path d="M50.405,62.826c-.241.019-.483.055-.724.083-.077.009-.146-.047-.155-.124-.009-.077.047-.146.124-.155.01-.001.021,0,.031,0,.241.027.483.064.724.083.031.002.055.03.052.061-.002.029-.025.05-.052.052Z" fill="#0c0d0b"/>
        <path d="M48.957,62.985c-.241.018-.483.024-.724.022-.132,0-.238-.109-.237-.241,0-.131.107-.236.237-.237.241-.002.483.004.724.022.12.009.21.113.201.233-.008.109-.095.193-.201.201Z" fill="#0c0d0b"/>
        <path d="M47.508,62.986c-.241-.01-.483-.029-.724-.052-.092-.008-.159-.09-.151-.181.008-.082.073-.144.151-.151.241-.022.483-.042.724-.052.12-.005.221.088.227.209.005.12-.088.221-.209.227-.006,0-.012,0-.018,0Z" fill="#0c0d0b"/>
        <path d="M46.06,62.838c-.12-.018-.24-.039-.36-.067-.001,0-.002-.002-.002-.003,0,0,0-.002.002-.002.12-.028.24-.049.36-.067.038-.006.074.021.08.059.006.038-.021.074-.059.08-.007,0-.014,0-.021,0Z" fill="#0c0d0b"/>
      </g>
      <g>
        <path d="M63.143,63.914c-.12.027-.24.048-.36.061-.035.004-.067-.022-.071-.057-.004-.035.022-.067.057-.071.004,0,.009,0,.014,0,.12.013.24.034.36.061.001,0,.002.002.002.003,0,0-.001.002-.002.002Z" fill="#0c0d0b"/>
        <path d="M62.088,64.02c-.232.004-.463-.021-.695-.057-.029-.004-.048-.031-.044-.06.004-.023.022-.04.044-.044.232-.036.463-.061.695-.057.06.001.108.051.106.111,0,.058-.048.105-.106.106Z" fill="#0c0d0b"/>
        <path d="M60.698,63.945c-.116.028-.232.055-.347.054-.116-.002-.232-.031-.348-.052-.02-.004-.033-.022-.029-.042.003-.015.015-.026.029-.029.116-.021.232-.05.348-.052.116,0,.232.027.347.054.018.004.03.023.025.041-.003.013-.013.022-.025.025Z" fill="#0c0d0b"/>
        <path d="M59.308,64.039c-.232.066-.463.128-.695.11-.131-.01-.229-.125-.219-.256.009-.118.104-.21.219-.219.232-.018.463.044.695.11.07.02.111.094.091.164-.013.045-.048.078-.091.091Z" fill="#0c0d0b"/>
        <path d="M57.917,64.051c-.12-.034-.24-.077-.36-.136-.001,0-.002-.002-.001-.004,0,0,0,0,.001-.001.12-.06.24-.103.36-.136.077-.022.157.023.178.1.022.077-.023.157-.1.178-.026.008-.054.007-.079,0Z" fill="#0c0d0b"/>
      </g>
      <g>
        <path d="M46.858,63.914c-.12.027-.24.048-.36.061-.035.004-.067-.022-.071-.057-.004-.035.022-.067.057-.071.004,0,.009,0,.013,0,.12.013.24.034.36.061.001,0,.002.002.002.003,0,0,0,.002-.002.002Z" fill="#0c0d0b"/>
        <path d="M45.803,64.02c-.232.004-.463-.021-.695-.057-.028-.004-.048-.031-.043-.06.003-.023.022-.04.043-.044.232-.036.464-.061.695-.057.06.001.107.051.106.111-.001.058-.049.105-.106.106Z" fill="#0c0d0b"/>
        <path d="M44.412,63.945c-.116.028-.232.055-.348.054-.116-.002-.232-.031-.348-.052-.02-.004-.032-.022-.029-.042.003-.015.015-.026.029-.029.116-.021.232-.05.348-.052.116,0,.232.027.348.054.018.004.03.023.025.041-.003.013-.013.022-.025.025Z" fill="#0c0d0b"/>
        <path d="M43.022,64.039c-.232.066-.463.128-.695.11-.131-.01-.229-.125-.219-.256.009-.118.104-.21.219-.219.232-.018.464.044.695.11.07.02.111.094.091.164-.013.045-.049.078-.091.091Z" fill="#0c0d0b"/>
        <path d="M41.632,64.051c-.12-.034-.24-.077-.36-.136-.001,0-.002-.002-.001-.004,0,0,0,0,.001-.001.12-.06.24-.103.36-.136.077-.022.157.023.178.1.022.077-.023.157-.1.178-.027.008-.054.007-.079,0Z" fill="#0c0d0b"/>
      </g>
      <g>
        <path d="M51.588,61.629l-.36.031c-.018.001-.035-.012-.036-.031s.012-.035.031-.036c.002,0,.004,0,.006,0l.36.031s.002.001.002.003c0,.001,0,.002-.002.002Z" fill="#0c0d0b"/>
        <path d="M50.504,61.701c-.241.012-.483.022-.724.023-.054,0-.099-.043-.099-.098s.044-.098.098-.099h0c.241.001.483.011.724.023.041.002.073.037.071.079-.002.039-.033.069-.071.071Z" fill="#0c0d0b"/>
        <path d="M49.056,61.735l-.724-.013c-.053,0-.096-.045-.095-.099,0-.052.043-.094.095-.095l.724-.013c.061,0,.111.047.112.108,0,.061-.047.111-.108.112h-.004Z" fill="#0c0d0b"/>
        <path d="M47.607,61.683c-.241-.012-.483-.034-.724-.036-.012,0-.021-.01-.021-.021,0-.011.01-.021.021-.021.241-.003.483-.024.724-.036.032-.001.059.023.06.055.002.032-.023.059-.055.06h-.006Z" fill="#0c0d0b"/>
        <path d="M46.159,61.641c-.241.007-.483.042-.724.061-.042.003-.078-.028-.081-.07s.028-.078.07-.081c.004,0,.008,0,.011,0,.241.019.483.053.724.061.008,0,.015.007.014.015,0,.008-.007.014-.014.014Z" fill="#0c0d0b"/>
        <path d="M44.711,61.699c-.241-.019-.483-.048-.724-.052-.012,0-.021-.01-.021-.021s.009-.021.021-.021c.241-.005.483-.033.724-.052.041-.003.076.027.079.068s-.027.076-.068.079c-.004,0-.008,0-.012,0Z" fill="#0c0d0b"/>
        <path d="M43.262,61.683c-.241.018-.483.055-.724.083-.077.009-.146-.046-.155-.124-.009-.077.047-.146.124-.155.01-.001.021,0,.031,0,.241.027.483.064.724.083.031.002.055.03.052.061-.002.028-.025.05-.052.052Z" fill="#0c0d0b"/>
        <path d="M41.814,61.843c-.241.018-.483.024-.724.022-.132,0-.238-.109-.237-.241,0-.131.107-.236.237-.237.241-.002.483.004.724.022.12.009.21.113.201.233-.008.109-.095.193-.201.201Z" fill="#0c0d0b"/>
        <path d="M40.366,61.843c-.241-.01-.483-.029-.724-.051-.092-.009-.159-.09-.151-.181.008-.082.072-.144.151-.151.241-.022.483-.042.724-.052.12-.005.221.088.227.208.005.12-.089.222-.209.227-.006,0-.012,0-.018,0Z" fill="#0c0d0b"/>
        <path d="M38.917,61.695c-.12-.018-.24-.039-.36-.067-.001,0-.002-.002-.002-.003,0,0,.001-.002.002-.002.12-.028.24-.049.36-.067.038-.006.074.021.08.059.006.038-.021.074-.059.08-.007,0-.014,0-.021,0Z" fill="#0c0d0b"/>
      </g>
    </g>
  </g>
  <g id="stem">
    <path d="M52.589,66.34v-7.699c0-1.128-.915-2.043-2.043-2.043h-6.497c-.615,0-1.113-.498-1.113-1.113v-1.785c0-.92.746-1.666,1.666-1.666h14.378c.92,0,1.666-.746,1.666-1.666h0c0-.92-.746-1.666-1.666-1.666h-6.546c-.92,0-1.666-.746-1.666-1.666v-13.429c0-.92-.746-1.666-1.666-1.666h-4.997c-.92,0-1.666-.746-1.666-1.666v-.44c0-.92.746-1.666,1.666-1.666h4.943c.92,0,1.666-.746,1.666-1.666V8.41" fill="none" stroke="#0c0d0b" stroke-miterlimit="10" stroke-width=".271"/>
  </g>
  <g id="leaf">
    <g>
      <line x1="38.497" y1="30.056" x2="46.425" y2="30.056" fill="#0c0d0b" stroke="#000" stroke-miterlimit="10" stroke-width=".23"/>
      <path d="M38.54,30.92c-.477,0-.864-.387-.864-.864s.387-.864.864-.864.864.387.864.864-.387.864-.864.864Z" fill="#0c0d0b"/>
      <path d="M46.382,30.92c.477,0,.864-.387.864-.864s-.387-.864-.864-.864-.864.387-.864.864.387.864.864.864Z" fill="#0c0d0b"/>
    </g>
    <g>
      <line x1="46.692" y1="34.227" x2="54.62" y2="34.227" fill="#0c0d0b" stroke="#000" stroke-miterlimit="10" stroke-width=".23"/>
      <path d="M46.735,35.091c-.477,0-.864-.387-.864-.864s.387-.864.864-.864.864.387.864.864-.387.864-.864.864Z" fill="#0c0d0b"/>
      <path d="M54.577,35.091c.477,0,.864-.387.864-.864s-.387-.864-.864-.864-.864.387-.864.864.387.864.864.864Z" fill="#0c0d0b"/>
    </g>
    <g>
      <line x1="46.749" y1="47.1" x2="54.677" y2="47.1" fill="#0c0d0b" stroke="#000" stroke-miterlimit="10" stroke-width=".23"/>
      <path d="M46.792,47.964c-.477,0-.864-.387-.864-.864s.387-.864.864-.864.864.387.864.864-.387.864-.864.864Z" fill="#0c0d0b"/>
      <path d="M54.634,47.964c.477,0,.864-.387.864-.864s-.387-.864-.864-.864-.864.387-.864.864.387.864.864.864Z" fill="#0c0d0b"/>
    </g>
    <g>
      <line x1="56.72" y1="50.451" x2="64.647" y2="50.451" fill="#0c0d0b" stroke="#000" stroke-miterlimit="10" stroke-width=".23"/>
      <path d="M56.763,51.315c-.477,0-.864-.387-.864-.864s.387-.864.864-.864.864.387.864.864-.387.864-.864.864Z" fill="#0c0d0b"/>
      <path d="M64.604,51.315c.477,0,.864-.387.864-.864s-.387-.864-.864-.864-.864.387-.864.864.387.864.864.864Z" fill="#0c0d0b"/>
    </g>
    <g>
      <line x1="38.827" y1="55.305" x2="46.755" y2="55.305" fill="#0c0d0b" stroke="#000" stroke-miterlimit="10" stroke-width=".23"/>
      <path d="M38.87,56.169c-.477,0-.864-.387-.864-.864s.387-.864.864-.864.864.387.864.864-.387.864-.864.864Z" fill="#0c0d0b"/>
      <path d="M46.712,56.169c.477,0,.864-.387.864-.864s-.387-.864-.864-.864-.864.387-.864.864.387.864.864.864Z" fill="#0c0d0b"/>
    </g>
    <g>
      <circle cx="42.467" cy="18.68" r=".736" fill="none" stroke="#0c0d0b" stroke-miterlimit="10" stroke-width=".054"/>
      <circle cx="42.467" cy="18.68" r=".467" fill="#6a3f8f"/>
      <circle cx="45.113" cy="18.355" r=".736" fill="none" stroke="#0c0d0b" stroke-miterlimit="10" stroke-width=".054"/>
      <circle cx="45.113" cy="18.355" r=".467" fill="#0c0d0b"/>
      <circle cx="46.451" cy="19.689" r=".736" fill="none" stroke="#0c0d0b" stroke-miterlimit="10" stroke-width=".054"/>
      <circle cx="46.451" cy="19.689" r=".467" fill="#0c0d0b"/>
      <circle cx="48.057" cy="21.288" r=".736" fill="none" stroke="#0c0d0b" stroke-miterlimit="10" stroke-width=".054"/>
      <circle cx="48.057" cy="21.288" r=".467" fill="#0c0d0b"/>
      <circle cx="41.97" cy="21.355" r=".736" fill="none" stroke="#0c0d0b" stroke-miterlimit="10" stroke-width=".054"/>
      <circle cx="41.97" cy="21.355" r=".467" fill="#0c0d0b"/>
      <circle cx="43.307" cy="22.688" r=".736" fill="none" stroke="#0c0d0b" stroke-miterlimit="10" stroke-width=".054"/>
      <circle cx="43.307" cy="22.688" r=".467" fill="#0c0d0b"/>
      <circle cx="44.913" cy="24.288" r=".736" fill="none" stroke="#0c0d0b" stroke-miterlimit="10" stroke-width=".054"/>
      <circle cx="44.913" cy="24.288" r=".467" fill="#8045b2"/>
      <circle cx="59.085" cy="18.68" r=".736" fill="none" stroke="#0c0d0b" stroke-miterlimit="10" stroke-width=".054"/>
      <circle cx="59.085" cy="18.68" r=".467" fill="#0c0d0b"/>
      <circle cx="56.439" cy="18.355" r=".736" fill="none" stroke="#0c0d0b" stroke-miterlimit="10" stroke-width=".054"/>
      <circle cx="56.439" cy="18.355" r=".467" fill="#0c0d0b"/>
      <circle cx="55.101" cy="19.689" r=".736" fill="none" stroke="#0c0d0b" stroke-miterlimit="10" stroke-width=".054"/>
      <circle cx="55.101" cy="19.689" r=".467" fill="#ab6be0"/>
      <circle cx="53.496" cy="21.288" r=".736" fill="none" stroke="#0c0d0b" stroke-miterlimit="10" stroke-width=".054"/>
      <circle cx="53.496" cy="21.288" r=".467" fill="#0c0d0b"/>
      <circle cx="59.583" cy="21.355" r=".736" fill="none" stroke="#0c0d0b" stroke-miterlimit="10" stroke-width=".054"/>
      <circle cx="59.583" cy="21.355" r=".467" fill="#0c0d0b"/>
      <circle cx="58.245" cy="22.688" r=".736" fill="none" stroke="#0c0d0b" stroke-miterlimit="10" stroke-width=".054"/>
      <circle cx="58.245" cy="22.688" r=".467" fill="#0c0d0b"/>
      <circle cx="56.639" cy="24.288" r=".736" fill="none" stroke="#0c0d0b" stroke-miterlimit="10" stroke-width=".054"/>
      <circle cx="56.639" cy="24.288" r=".467" fill="#0c0d0b"/>
      <polygon points="58.831 21.397 58.831 21.33 56.527 21.33 58.587 19.277 58.54 19.229 56.474 21.289 56.474 19.092 56.407 19.092 56.407 21.355 55.136 22.622 55.136 20.425 55.069 20.425 55.069 22.688 53.531 24.221 53.531 22.025 53.464 22.025 53.464 24.288 51.583 26.163 49.951 26.163 48.07 24.288 48.07 22.025 48.003 22.025 48.003 24.221 46.465 22.688 46.465 20.425 46.398 20.425 46.398 22.622 45.127 21.355 45.127 19.092 45.06 19.092 45.06 21.289 42.994 19.229 42.946 19.277 45.007 21.33 42.702 21.33 42.702 21.397 45.074 21.397 46.345 22.663 44.04 22.663 44.04 22.73 46.412 22.73 47.95 24.263 45.646 24.263 45.646 24.33 48.017 24.33 49.933 26.239 49.933 26.296 51.606 26.296 51.606 26.234 53.517 24.33 55.888 24.33 55.888 24.263 53.584 24.263 55.122 22.73 57.493 22.73 57.493 22.663 55.189 22.663 56.46 21.397 58.831 21.397" fill="#0c0d0b"/>
    </g>
    <g>
      <circle cx="42.467" cy="37.639" r=".736" fill="none" stroke="#0c0d0b" stroke-miterlimit="10" stroke-width=".054"/>
      <circle cx="42.467" cy="37.639" r=".467" fill="#6a3f8f"/>
      <circle cx="45.113" cy="37.314" r=".736" fill="none" stroke="#0c0d0b" stroke-miterlimit="10" stroke-width=".054"/>
      <circle cx="45.113" cy="37.314" r=".467" fill="#0c0d0b"/>
      <circle cx="46.451" cy="38.647" r=".736" fill="none" stroke="#0c0d0b" stroke-miterlimit="10" stroke-width=".054"/>
      <circle cx="46.451" cy="38.647" r=".467" fill="#0c0d0b"/>
      <circle cx="48.057" cy="40.247" r=".736" fill="none" stroke="#0c0d0b" stroke-miterlimit="10" stroke-width=".054"/>
      <circle cx="48.057" cy="40.247" r=".467" fill="#0c0d0b"/>
      <circle cx="41.97" cy="40.314" r=".736" fill="none" stroke="#0c0d0b" stroke-miterlimit="10" stroke-width=".054"/>
      <circle cx="41.97" cy="40.314" r=".467" fill="#0c0d0b"/>
      <circle cx="43.307" cy="41.647" r=".736" fill="none" stroke="#0c0d0b" stroke-miterlimit="10" stroke-width=".054"/>
      <circle cx="43.307" cy="41.647" r=".467" fill="#0c0d0b"/>
      <circle cx="44.913" cy="43.247" r=".736" fill="none" stroke="#0c0d0b" stroke-miterlimit="10" stroke-width=".054"/>
      <circle cx="44.913" cy="43.247" r=".467" fill="#8045b2"/>
      <circle cx="59.085" cy="37.639" r=".736" fill="none" stroke="#0c0d0b" stroke-miterlimit="10" stroke-width=".054"/>
      <circle cx="59.085" cy="37.639" r=".467" fill="#0c0d0b"/>
      <circle cx="56.439" cy="37.314" r=".736" fill="none" stroke="#0c0d0b" stroke-miterlimit="10" stroke-width=".054"/>
      <circle cx="56.439" cy="37.314" r=".467" fill="#0c0d0b"/>
      <circle cx="55.101" cy="38.647" r=".736" fill="none" stroke="#0c0d0b" stroke-miterlimit="10" stroke-width=".054"/>
      <circle cx="55.101" cy="38.647" r=".467" fill="#ab6be0"/>
      <circle cx="53.496" cy="40.247" r=".736" fill="none" stroke="#0c0d0b" stroke-miterlimit="10" stroke-width=".054"/>
      <circle cx="53.496" cy="40.247" r=".467" fill="#0c0d0b"/>
      <circle cx="59.583" cy="40.314" r=".736" fill="none" stroke="#0c0d0b" stroke-miterlimit="10" stroke-width=".054"/>
      <circle cx="59.583" cy="40.314" r=".467" fill="#0c0d0b"/>
      <circle cx="58.245" cy="41.647" r=".736" fill="none" stroke="#0c0d0b" stroke-miterlimit="10" stroke-width=".054"/>
      <circle cx="58.245" cy="41.647" r=".467" fill="#0c0d0b"/>
      <circle cx="56.639" cy="43.247" r=".736" fill="none" stroke="#0c0d0b" stroke-miterlimit="10" stroke-width=".054"/>
      <circle cx="56.639" cy="43.247" r=".467" fill="#0c0d0b"/>
      <polygon points="58.831 40.355 58.831 40.289 56.527 40.289 58.587 38.235 58.54 38.188 56.474 40.247 56.474 38.051 56.407 38.051 56.407 40.314 55.136 41.58 55.136 39.384 55.069 39.384 55.069 41.647 53.531 43.18 53.531 40.984 53.464 40.984 53.464 43.247 51.583 45.121 49.951 45.121 48.07 43.247 48.07 40.984 48.003 40.984 48.003 43.18 46.465 41.647 46.465 39.384 46.398 39.384 46.398 41.58 45.127 40.314 45.127 38.051 45.06 38.051 45.06 40.247 42.994 38.188 42.946 38.235 45.007 40.289 42.702 40.289 42.702 40.355 45.074 40.355 46.345 41.622 44.04 41.622 44.04 41.688 46.412 41.688 47.95 43.222 45.646 43.222 45.646 43.288 48.017 43.288 49.933 45.198 49.933 45.255 51.606 45.255 51.606 45.193 53.517 43.288 55.888 43.288 55.888 43.222 53.584 43.222 55.122 41.688 57.493 41.688 57.493 41.622 55.189 41.622 56.46 40.355 58.831 40.355" fill="#0c0d0b"/>
    </g>
  </g>
  <g id="flower">
    <g>
      <path d="M58.172,3.96v8.615c0,.648-.559,1.174-1.245,1.174h-1.757V.77h-.121v12.98h-4.228V1.554h-.129v12.196h-5.182c-.754,0-1.367-.579-1.367-1.29V3.96h-.125v8.5c0,.78.669,1.415,1.492,1.415h5.182v4.49h.129v-4.402l3.822,3.824c.06.06.137.091.217.091.04,0,.081-.008.12-.024.118-.049.191-.158.191-.286v-3.694h1.757c.755,0,1.37-.583,1.37-1.299V3.96h-.125ZM55.048,17.569c0,.092-.06.15-.116.173-.056.023-.139.025-.204-.041l-3.824-3.826h4.144v3.694Z" fill="#0c0d0b"/>
      <g>
        <path d="M51.727,7.791c.001.021.002.042.002.063,0,.529-.428.957-.956.957s-.956-.428-.956-.957c0-.021,0-.042.002-.063-.879.019-1.759.064-2.625.183,1.539,1.929,4.274,2.316,6.263.852.329-.247.629-.505.895-.856-.873-.111-1.748-.159-2.625-.179Z" fill="#0c0d0b"/>
        <circle cx="50.773" cy="7.885" r=".525" transform="translate(42.773 58.64) rotate(-89.871)" fill="#0c0d0b"/>
      </g>
      <g>
        <path d="M51.294,2.303c0,.011.001.023.001.034,0,.289-.234.523-.523.523s-.523-.234-.523-.523c0-.012,0-.023.001-.034-.48.01-.961.035-1.435.1.841,1.055,2.336,1.266,3.424.466.18-.135.344-.276.489-.468-.477-.061-.956-.087-1.435-.098Z" fill="#0c0d0b"/>
        <circle cx="50.773" cy="2.354" r=".287" transform="translate(48.304 53.121) rotate(-89.871)" fill="#0c0d0b"/>
      </g>
      <g>
        <path d="M51.294,4.124c0,.011.001.023.001.034,0,.289-.234.523-.523.523s-.523-.234-.523-.523c0-.012,0-.023.001-.034-.48.01-.961.035-1.435.1.841,1.055,2.336,1.266,3.424.466.18-.135.344-.276.489-.468-.477-.061-.956-.087-1.435-.098Z" fill="#0c0d0b"/>
        <circle cx="50.773" cy="4.175" r=".287" transform="translate(46.483 54.938) rotate(-89.871)" fill="#0c0d0b"/>
      </g>
      <g>
        <path d="M51.294,5.945c0,.011.001.023.001.034,0,.289-.234.523-.523.523s-.523-.234-.523-.523c0-.012,0-.023.001-.034-.48.01-.961.035-1.435.1.841,1.055,2.336,1.266,3.424.466.18-.135.344-.276.489-.468-.477-.061-.956-.087-1.435-.098Z" fill="#0c0d0b"/>
        <circle cx="50.773" cy="5.996" r=".287" transform="translate(44.662 56.755) rotate(-89.871)" fill="#0c0d0b"/>
      </g>
      <g>
        <path d="M55.531,2.256c0,.01.001.019.001.029,0,.242-.196.438-.438.438s-.438-.196-.438-.438c0-.01,0-.019.001-.029-.402.009-.805.029-1.201.084.704.883,1.956,1.06,2.866.39.151-.113.288-.231.409-.392-.4-.051-.8-.073-1.201-.082Z" fill="#0c0d0b"/>
        <circle cx="55.095" cy="2.299" r=".24" transform="translate(52.672 57.388) rotate(-89.871)" fill="#0c0d0b"/>
      </g>
      <g>
        <path d="M55.531,3.78c0,.01.001.019.001.029,0,.242-.196.438-.438.438s-.438-.196-.438-.438c0-.01,0-.019.001-.029-.402.009-.805.029-1.201.084.704.883,1.956,1.06,2.866.39.151-.113.288-.231.409-.392-.4-.051-.8-.073-1.201-.082Z" fill="#0c0d0b"/>
        <circle cx="55.095" cy="3.823" r=".24" transform="translate(51.148 58.909) rotate(-89.871)" fill="#0c0d0b"/>
      </g>
      <g>
        <path d="M55.531,5.304c0,.01.001.019.001.029,0,.242-.196.438-.438.438s-.438-.196-.438-.438c0-.01,0-.019.001-.029-.402.009-.805.029-1.201.084.704.883,1.956,1.06,2.866.39.151-.113.288-.231.409-.392-.4-.051-.8-.073-1.201-.082Z" fill="#0c0d0b"/>
        <circle cx="55.095" cy="5.347" r=".24" transform="translate(49.623 60.43) rotate(-89.871)" fill="#0c0d0b"/>
      </g>
      <g>
        <path d="M58.61,5.285c0,.008,0,.016,0,.025,0,.208-.169.377-.377.377s-.377-.169-.377-.377c0-.008,0-.017,0-.025-.346.007-.693.025-1.034.072.607.76,1.684.913,2.468.336.13-.097.248-.199.353-.337-.344-.044-.689-.063-1.034-.071Z" fill="#0c0d0b"/>
        <circle cx="58.234" cy="5.322" r=".207" transform="translate(52.781 63.544) rotate(-89.871)" fill="#0c0d0b"/>
      </g>
      <g>
        <path d="M58.61,6.598c0,.008,0,.016,0,.025,0,.208-.169.377-.377.377s-.377-.169-.377-.377c0-.008,0-.017,0-.025-.346.007-.693.025-1.034.072.607.76,1.684.913,2.468.336.13-.097.248-.199.353-.337-.344-.044-.689-.063-1.034-.071Z" fill="#0c0d0b"/>
        <circle cx="58.234" cy="6.635" r=".207" transform="translate(51.468 64.853) rotate(-89.871)" fill="#0c0d0b"/>
      </g>
      <g>
        <path d="M58.61,7.91c0,.008,0,.016,0,.025,0,.208-.169.377-.377.377s-.377-.169-.377-.377c0-.008,0-.017,0-.025-.346.007-.693.025-1.034.072.607.76,1.684.913,2.468.336.13-.097.248-.199.353-.337-.344-.044-.689-.063-1.034-.071Z" fill="#0c0d0b"/>
        <circle cx="58.234" cy="7.947" r=".207" transform="translate(50.156 66.163) rotate(-89.871)" fill="#0c0d0b"/>
      </g>
      <g>
        <path d="M45.039,9.521c.001.021.002.042.002.063,0,.529-.428.957-.956.957s-.956-.428-.956-.957c0-.021,0-.042.002-.063-.879.019-1.759.064-2.625.183,1.539,1.929,4.274,2.316,6.263.852.329-.247.629-.505.895-.856-.873-.111-1.748-.159-2.625-.179Z" fill="#0c0d0b"/>
        <circle cx="44.084" cy="9.615" r=".525" transform="translate(34.37 53.678) rotate(-89.871)" fill="#0c0d0b"/>
      </g>
      <g>
        <path d="M44.606,4.033c0,.011.001.023.001.034,0,.289-.234.523-.523.523s-.523-.234-.523-.523c0-.012,0-.023.001-.034-.48.01-.961.035-1.435.1.841,1.055,2.336,1.266,3.424.466.18-.135.344-.276.489-.468-.477-.061-.956-.087-1.435-.098Z" fill="#0c0d0b"/>
        <circle cx="44.085" cy="4.084" r=".287" transform="translate(39.901 48.159) rotate(-89.871)" fill="#0c0d0b"/>
      </g>
      <g>
        <path d="M44.606,5.854c0,.011.001.023.001.034,0,.289-.234.523-.523.523s-.523-.234-.523-.523c0-.012,0-.023.001-.034-.48.01-.961.035-1.435.1.841,1.055,2.336,1.266,3.424.466.18-.135.344-.276.489-.468-.477-.061-.956-.087-1.435-.098Z" fill="#0c0d0b"/>
        <circle cx="44.085" cy="5.905" r=".287" transform="translate(38.08 49.976) rotate(-89.871)" fill="#0c0d0b"/>
      </g>
      <g>
        <path d="M44.606,7.675c0,.011.001.023.001.034,0,.289-.234.523-.523.523s-.523-.234-.523-.523c0-.012,0-.023.001-.034-.48.01-.961.035-1.435.1.841,1.055,2.336,1.266,3.424.466.18-.135.344-.276.489-.468-.477-.061-.956-.087-1.435-.098Z" fill="#0c0d0b"/>
        <circle cx="44.085" cy="7.726" r=".287" transform="translate(36.259 51.793) rotate(-89.871)" fill="#0c0d0b"/>
      </g>
      <circle cx="44.084" cy="9.624" r=".41" fill="#6a3f8f"/>
      <circle cx="55.095" cy=".975" r=".592" fill="#6a3f8f"/>
      <g>
        <path d="M51.294.619c0,.011.001.023.001.034,0,.289-.234.523-.523.523s-.523-.234-.523-.523c0-.012,0-.023.001-.034-.48.01-.961.035-1.435.1.841,1.055,2.336,1.266,3.424.466.18-.135.344-.276.489-.468-.477-.061-.956-.087-1.435-.098Z" fill="#0c0d0b"/>
        <circle cx="50.773" cy=".67" r=".287" transform="translate(49.988 51.441) rotate(-89.871)" fill="#0c0d0b"/>
      </g>
      <circle cx="50.788" cy=".592" r=".592" fill="#6a3f8f"/>
      <circle cx="58.234" cy="3.797" r=".592" fill="#6a3f8f"/>
      <circle cx="50.773" cy="13.812" r="1.001" fill="#6a3f8f"/>
    </g>
  </g>
</svg>