<?xml version="1.0" encoding="UTF-8"?>
<svg xmlns="http://www.w3.org/2000/svg" width="100" height="100" viewBox="0 0 100 100">
  <g id="background">
    <circle cx="52.507" cy="71.232" r="9.304" fill="#6a3f8f" opacity=".33"/>
  </g>
  <g id="root">
    <g>
      <path d="M51.771,77.049v3.858c0,.931-.755,1.686-1.686,1.686h-1.535c-.931,0-1.686.755-1.686,1.686v1.005c0,.931.755,1.686,1.686,1.686h5.188c.931,0,1.686.755,1.686,1.686v5.973" fill="none" stroke="#0c0d0b" stroke-miterlimit="10" stroke-width=".081"/>
      <path d="M55.653,73.869h10.375c.931,0,1.686.755,1.686,1.686v4.687c0,.931-.755,1.686-1.686,1.686h-1.996c-.931,0-1.686.755-1.686,1.686v16.385" fill="none" stroke="#0c0d0b" stroke-miterlimit="10" stroke-width=".081"/>
      <path d="M46.864,69.907c.206.121-5.235.063-8.099.025-.94-.013-1.708.746-1.708,1.686v1.481c0,.931.755,1.686,1.686,1.686h0c.931,0,1.686.755,1.686,1.686v4.771c0,.931-.755,1.686-1.686,1.686h-5.033c-.931,0-1.686.755-1.686,1.686v5.485c0,.931.755,1.686,1.686,1.686h4.72c.931,0,1.686.755,1.686,1.686v6.528" fill="none" stroke="#0c0d0b" stroke-miterlimit="10" stroke-width=".081"/>
      <path d="M40.429,78.891h1.365c1.292,0,2.339,1.047,2.339,2.339v4.503c0,1.292-1.047,2.339-2.339,2.339h-5.65" fill="none" stroke="#0c0d0b" stroke-miterlimit="10" stroke-width=".081"/>
      <path d="M55.37,92.133h-.247c-1.292,0-2.339,1.047-2.339,2.339v1.732c0,1.292,1.047,2.339,2.339,2.339h3.239" fill="none" stroke="#0c0d0b" stroke-miterlimit="10" stroke-width=".081"/>
      <path d="M67.715,77.869h-6.59c-1.292,0-2.339,1.047-2.339,2.339v9.041" fill="none" stroke="#0c0d0b" stroke-miterlimit="10" stroke-width=".081"/>
    </g>
  </g>
  <g id="seed">
    <g>
      <path d="M60.625,72.522c.019-.002-.768-.171-1.528-.329.005-.057.01-.113.013-.17.76-.116,1.548-.237,1.566-.241.018-.004-.78-.1-1.551-.188,0-.057,0-.114-.002-.171.746-.185,1.519-.378,1.537-.383.018-.006-.786-.028-1.562-.045-.005-.057-.011-.114-.018-.17.726-.253,1.478-.515,1.495-.522.017-.007-.785.044-1.559.098-.01-.056-.022-.112-.033-.168.7-.318,1.424-.648,1.44-.656.017-.009-.777.115-1.543.24-.016-.055-.032-.11-.049-.165.668-.381,1.358-.775,1.374-.785.016-.01-.763.186-1.515.38-.021-.053-.042-.106-.064-.159.63-.44,1.282-.896,1.296-.908.015-.012-.743.255-1.474.517-.025-.051-.051-.102-.078-.153.587-.496,1.195-1.01,1.208-1.023.014-.013-.717.322-1.421.65-.03-.049-.06-.097-.091-.145.54-.548,1.098-1.115,1.11-1.129.012-.014-.685.386-1.355.777-.034-.046-.069-.091-.104-.136.487-.595.991-1.211,1.002-1.226.011-.015-.647.447-1.279.898-.038-.042-.077-.084-.116-.126.431-.637.877-1.297.886-1.313.01-.016-.603.505-1.192,1.011-.042-.039-.084-.077-.127-.114.371-.674.754-1.372.762-1.389.008-.017-.554.558-1.094,1.116-.045-.035-.091-.069-.137-.102.308-.705.626-1.435.632-1.452.006-.018-.501.606-.987,1.211-.048-.03-.097-.06-.146-.09.242-.73.492-1.486.496-1.503.005-.018-.443.648-.872,1.295-.051-.026-.102-.051-.154-.076.174-.749.354-1.524.357-1.542.003-.019-.382.686-.749,1.37-.053-.021-.106-.042-.16-.062.105-.761.213-1.549.214-1.568.001-.019-.318.718-.621,1.433-.055-.016-.11-.032-.165-.047.035-.768.07-1.563.07-1.581,0-.019-.251.745-.488,1.484-.056-.011-.112-.021-.168-.031-.036-.768-.073-1.563-.075-1.581-.002-.019-.181.765-.35,1.523-.057-.006-.113-.011-.17-.016-.106-.762-.216-1.55-.22-1.568-.004-.019-.111.779-.209,1.549-.029,0-.059-.001-.088-.001-.028,0-.055,0-.082.001-.175-.749-.357-1.525-.362-1.542-.005-.018-.039.785-.067,1.561-.057.004-.114.01-.17.015-.243-.73-.495-1.485-.502-1.502-.007-.017.033.785.076,1.56-.056.01-.113.02-.168.031-.309-.704-.628-1.433-.637-1.449-.009-.017.104.779.219,1.546-.055.015-.11.03-.165.046-.372-.673-.756-1.369-.766-1.385-.01-.016.175.765.359,1.519-.054.02-.107.04-.16.062-.432-.636-.878-1.294-.89-1.309-.012-.015.245.746.497,1.48-.052.025-.103.05-.154.076-.488-.594-.993-1.208-1.006-1.222-.013-.014.312.721.63,1.429-.049.029-.098.059-.146.089-.54-.547-1.1-1.113-1.114-1.125-.014-.013.377.69.759,1.366-.046.034-.092.068-.137.102-.588-.495-1.198-1.008-1.213-1.019-.015-.011.438.653.88,1.291-.043.038-.085.076-.127.114-.631-.44-1.285-.895-1.301-.904-.016-.01.496.61.995,1.205-.039.041-.078.083-.116.125-.669-.38-1.361-.773-1.378-.781-.017-.008.55.562,1.101,1.109-.035.045-.07.09-.104.135-.701-.317-1.426-.645-1.443-.652-.018-.007.599.509,1.197,1.004-.031.048-.062.096-.092.145-.727-.252-1.479-.512-1.496-.517-.018-.005.643.452,1.284.89-.027.05-.053.101-.078.153-.746-.184-1.519-.375-1.537-.378-.019-.003.681.391,1.359.768-.022.053-.043.106-.064.159-.76-.115-1.546-.234-1.565-.236-.019-.002.714.327,1.424.641-.017.055-.033.109-.049.164-.767-.045-1.561-.092-1.58-.091-.019,0,.741.261,1.477.508-.012.056-.023.112-.033.168-.768.025-1.564.052-1.582.053-.019.002.762.192,1.518.371-.007.056-.013.113-.018.17-.763.095-1.553.195-1.571.198-.019.004.777.121,1.546.231-.002.057-.002.114-.002.171-.751.165-1.529.336-1.547.341-.018.005.785.05,1.561.088.004.057.008.114.013.17-.733.233-1.492.474-1.509.481-.018.007.785-.022,1.561-.055.009.057.018.113.029.169-.708.299-1.441.608-1.458.617-.017.008.78-.094,1.549-.197.014.056.029.111.044.166-.678.362-1.379.737-1.395.747-.016.01.768-.165,1.524-.338.019.054.039.108.059.161-.642.423-1.306.861-1.321.872-.015.011.75-.234,1.487-.476.024.052.048.103.074.155-.601.48-1.222.977-1.236.989-.014.013.725-.302,1.438-.61.029.049.058.098.088.147-.554.533-1.128,1.084-1.14,1.098-.013.014.695-.367,1.376-.74.033.047.066.093.1.139-.503.581-1.024,1.183-1.035,1.198-.011.015.659-.429,1.303-.863,1.202,1.41,2.992,2.305,4.99,2.305s3.784-.893,4.986-2.3c.679.361,1.382.736,1.399.743.017.008-.565-.546-1.131-1.078.034-.046.068-.092.101-.139.709.298,1.443.606,1.46.612.018.006-.612-.492-1.224-.97.03-.049.059-.098.088-.147.733.232,1.492.471,1.51.476.018.005-.655-.434-1.308-.854.025-.051.05-.103.074-.155.751.164,1.528.333,1.547.335.019.003-.692-.372-1.38-.731.02-.053.04-.107.059-.161.763.094,1.552.191,1.571.192.019.001-.723-.308-1.441-.601.015-.055.03-.11.044-.166.768.024,1.563.049,1.582.048.019,0-.748-.24-1.49-.467.01-.056.02-.112.029-.169.768-.046,1.562-.095,1.58-.097ZM52.572,67.267c-1.156.298-1.74.979-1.704,1.975.034.926.658,1.589,1.701,1.788v2.838c-1.614.017-3.257-1.528-3.301-3.608-.05-2.338,1.771-3.865,3.304-3.886v.892ZM52.721,73.869v-2.838c1.043-.2,1.667-.862,1.701-1.788.036-.997-.548-1.677-1.704-1.975v-.892c1.533.021,3.354,1.548,3.304,3.886-.044,2.08-1.687,3.625-3.301,3.608Z" fill="#0c0c0c"/>
      <circle cx="52.572" cy="69.065" r=".843" fill="#6a3f8f"/>
    </g>
  </g>
  <g id="soil">
    <g>
      <line x1="37.16" y1="60.758" x2="68.017" y2="60.758" fill="none" stroke="#0c0d0b" stroke-miterlimit="10" stroke-width=".121"/>
      <g>
        <path d="M66.731,61.629l-.36.031c-.018.001-.035-.012-.036-.031s.012-.035.031-.036c.002,0,.004,0,.006,0l.36.031s.002.001.002.003c0,.001-.001.002-.002.002Z" fill="#0c0d0b"/>
        <path d="M65.647,61.701c-.241.012-.483.022-.724.023-.054,0-.098-.043-.099-.098s.044-.098.098-.099h0c.241.001.483.011.724.023.041.002.073.037.071.079-.002.039-.033.069-.071.071Z" fill="#0c0d0b"/>
        <path d="M64.199,61.735l-.724-.013c-.054,0-.096-.045-.095-.099,0-.052.043-.094.095-.095l.724-.013c.061,0,.11.047.111.108.001.061-.047.111-.108.112h-.004Z" fill="#0c0d0b"/>
        <path d="M62.75,61.683c-.241-.012-.483-.034-.724-.036-.012,0-.021-.01-.021-.021,0-.011.009-.021.021-.021.241-.003.483-.024.724-.036.032-.001.059.023.06.055.002.032-.023.059-.055.06h-.006Z" fill="#0c0d0b"/>
        <path d="M61.302,61.641c-.241.007-.483.042-.724.061-.042.003-.078-.028-.081-.07-.003-.042.028-.078.07-.081.004,0,.008,0,.012,0,.241.019.483.053.724.061.008,0,.015.007.014.015,0,.008-.007.014-.014.014Z" fill="#0c0d0b"/>
        <path d="M59.853,61.699c-.241-.019-.483-.048-.724-.052-.012,0-.021-.01-.021-.021s.009-.021.021-.021c.241-.005.483-.033.724-.052.041-.003.076.027.079.068.003.041-.027.076-.068.079-.004,0-.008,0-.012,0Z" fill="#0c0d0b"/>
        <path d="M58.405,61.683c-.241.018-.483.055-.724.083-.077.009-.147-.046-.155-.124-.009-.077.047-.146.124-.155.01-.001.021,0,.032,0,.241.027.483.064.724.083.031.002.055.03.052.061-.002.028-.025.05-.052.052Z" fill="#0c0d0b"/>
        <path d="M56.957,61.843c-.241.018-.483.024-.724.022-.132,0-.238-.109-.237-.241,0-.131.107-.236.237-.237.241-.002.483.004.724.022.12.009.21.113.201.233-.008.109-.095.193-.201.201Z" fill="#0c0d0b"/>
        <path d="M55.508,61.843c-.241-.01-.483-.029-.724-.051-.092-.009-.159-.09-.151-.181.007-.082.072-.144.151-.151.241-.022.483-.042.724-.052.12-.005.222.088.227.208.005.12-.089.222-.209.227-.006,0-.012,0-.018,0Z" fill="#0c0d0b"/>
        <path d="M54.06,61.695c-.12-.018-.24-.039-.36-.067-.001,0-.002-.002-.002-.003,0,0,.001-.002.002-.002.12-.028.24-.049.36-.067.038-.006.074.021.08.059s-.021.074-.059.08c-.007,0-.014,0-.02,0Z" fill="#0c0d0b"/>
      </g>
      <g>
        <path d="M58.731,62.771l-.36.031c-.018.001-.035-.012-.036-.031s.012-.035.031-.036c.002,0,.004,0,.006,0l.36.031s.002.001.002.003c0,.001-.001.002-.002.002Z" fill="#0c0d0b"/>
        <path d="M57.647,62.844c-.241.012-.483.022-.724.023-.054,0-.098-.044-.099-.098s.044-.098.098-.099h0c.241.001.483.011.724.023.041.002.073.038.071.079-.002.039-.033.069-.071.071Z" fill="#0c0d0b"/>
        <path d="M56.199,62.878l-.724-.013c-.054,0-.096-.045-.095-.099,0-.052.043-.094.095-.095l.724-.012c.061-.001.11.047.111.108.001.06-.047.11-.108.111h-.004Z" fill="#0c0d0b"/>
        <path d="M54.75,62.826c-.241-.012-.483-.034-.724-.036-.012,0-.021-.01-.021-.021,0-.011.009-.021.021-.021.241-.003.483-.024.724-.036.032-.001.059.023.06.055.002.032-.023.059-.055.06-.002,0-.004,0-.006,0Z" fill="#0c0d0b"/>
        <path d="M53.302,62.784c-.241.007-.483.042-.724.061-.042.003-.078-.028-.081-.07-.003-.042.028-.078.07-.081.004,0,.008,0,.012,0,.241.019.483.053.724.061.008,0,.015.007.014.015,0,.008-.007.014-.014.014Z" fill="#0c0d0b"/>
        <path d="M51.853,62.842c-.241-.019-.483-.048-.724-.052-.012,0-.021-.01-.021-.021,0-.011.009-.02.021-.021.241-.005.483-.033.724-.052.041-.003.076.027.079.067s-.027.076-.068.079c-.004,0-.008,0-.012,0Z" fill="#0c0d0b"/>
        <path d="M50.405,62.826c-.241.019-.483.055-.724.083-.077.009-.147-.047-.155-.124-.009-.077.047-.146.124-.155.01-.001.021,0,.032,0,.241.027.483.064.724.083.031.002.055.03.052.061-.002.029-.025.05-.052.052Z" fill="#0c0d0b"/>
        <path d="M48.957,62.985c-.241.018-.483.024-.724.022-.132,0-.238-.109-.237-.241,0-.131.107-.236.237-.237.241-.002.483.004.724.022.12.009.21.113.201.233-.008.109-.095.193-.201.201Z" fill="#0c0d0b"/>
        <path d="M47.508,62.986c-.241-.01-.483-.029-.724-.052-.092-.008-.159-.09-.151-.181.007-.082.072-.144.151-.151.241-.022.483-.042.724-.052.12-.005.222.088.227.209.005.12-.089.221-.209.227-.006,0-.012,0-.018,0Z" fill="#0c0d0b"/>
        <path d="M46.06,62.838c-.12-.018-.24-.039-.36-.067-.001,0-.002-.002-.002-.003,0,0,.001-.002.002-.002.12-.028.24-.049.36-.067.038-.006.074.021.08.059.006.038-.021.074-.059.08-.007,0-.014,0-.02,0Z" fill="#0c0d0b"/>
      </g>
      <g>
        <path d="M63.143,63.914c-.12.027-.24.048-.36.061-.035.004-.067-.022-.071-.057-.004-.035.022-.067.057-.071.005,0,.009,0,.014,0,.12.013.24.034.36.061.001,0,.002.002.002.003,0,0,0,.002-.002.002Z" fill="#0c0d0b"/>
        <path d="M62.088,64.02c-.232.004-.464-.021-.695-.057-.029-.004-.048-.031-.044-.06.004-.023.022-.04.044-.044.232-.036.463-.061.695-.057.06.001.107.051.106.111-.001.058-.048.105-.106.106Z" fill="#0c0d0b"/>
        <path d="M60.698,63.945c-.116.028-.232.055-.348.054-.116-.002-.232-.031-.348-.052-.02-.004-.033-.022-.029-.042.003-.015.015-.026.029-.029.116-.021.232-.05.348-.052.116,0,.232.027.348.054.018.004.03.023.025.041-.003.013-.013.022-.025.025Z" fill="#0c0d0b"/>
        <path d="M59.308,64.039c-.232.066-.464.128-.695.11-.131-.01-.229-.125-.219-.256.009-.118.104-.21.219-.219.232-.018.463.044.695.11.07.02.111.094.09.164-.013.045-.048.078-.09.091Z" fill="#0c0d0b"/>
        <path d="M57.917,64.051c-.12-.034-.24-.077-.36-.136-.001,0-.002-.002-.001-.004,0,0,0,0,.001-.001.12-.06.24-.103.36-.136.077-.022.157.023.179.1.022.077-.023.157-.1.178-.027.008-.054.007-.079,0Z" fill="#0c0d0b"/>
      </g>
      <g>
        <path d="M46.858,63.914c-.12.027-.24.048-.36.061-.035.004-.067-.022-.071-.057-.004-.035.022-.067.057-.071.005,0,.009,0,.014,0,.12.013.24.034.36.061.001,0,.002.002.002.003,0,0-.001.002-.002.002Z" fill="#0c0d0b"/>
        <path d="M45.803,64.02c-.232.004-.464-.021-.695-.057-.028-.004-.048-.031-.044-.06.004-.023.022-.04.044-.044.232-.036.464-.061.695-.057.06.001.108.051.106.111-.001.058-.048.105-.106.106Z" fill="#0c0d0b"/>
        <path d="M44.412,63.945c-.116.028-.232.055-.348.054-.116-.002-.232-.031-.348-.052-.02-.004-.033-.022-.029-.042.003-.015.015-.026.029-.029.116-.021.232-.05.348-.052.116,0,.232.027.348.054.018.004.03.023.025.041-.003.013-.013.022-.025.025Z" fill="#0c0d0b"/>
        <path d="M43.022,64.039c-.232.066-.464.128-.695.11-.131-.01-.229-.125-.219-.256.009-.118.104-.21.219-.219.232-.018.463.044.695.11.07.02.111.094.09.164-.013.045-.048.078-.09.091Z" fill="#0c0d0b"/>
        <path d="M41.632,64.051c-.12-.034-.24-.077-.36-.136-.001,0-.002-.002-.001-.004,0,0,0,0,.001-.001.12-.06.24-.103.36-.136.077-.022.157.023.178.1.022.077-.023.157-.1.178-.027.008-.054.007-.079,0Z" fill="#0c0d0b"/>
      </g>
      <g>
        <path d="M51.588,61.629l-.36.031c-.018.001-.035-.012-.036-.031s.012-.035.03-.036c.002,0,.004,0,.006,0l.36.031s.002.001.002.003c0,.001-.001.002-.002.002Z" fill="#0c0d0b"/>
        <path d="M50.504,61.701c-.241.012-.483.022-.724.023-.054,0-.098-.043-.099-.098s.043-.098.098-.099h0c.241.001.483.011.724.023.041.002.073.037.071.079-.002.039-.033.069-.071.071Z" fill="#0c0d0b"/>
        <path d="M49.056,61.735l-.724-.013c-.053,0-.096-.045-.095-.099,0-.052.043-.094.095-.095l.724-.013c.06,0,.11.047.111.108,0,.061-.047.111-.108.112h-.004Z" fill="#0c0d0b"/>
        <path d="M47.607,61.683c-.241-.012-.483-.034-.724-.036-.012,0-.021-.01-.021-.021,0-.011.01-.021.021-.021.241-.003.483-.024.724-.036.032-.001.059.023.06.055.002.032-.023.059-.055.06h-.006Z" fill="#0c0d0b"/>
        <path d="M46.159,61.641c-.241.007-.483.042-.724.061-.042.003-.078-.028-.081-.07s.028-.078.07-.081c.004,0,.008,0,.012,0,.241.019.483.053.724.061.008,0,.015.007.014.015,0,.008-.007.014-.014.014Z" fill="#0c0d0b"/>
        <path d="M44.711,61.699c-.241-.019-.483-.048-.724-.052-.011,0-.021-.01-.021-.021,0-.011.009-.021.021-.021.241-.005.483-.033.724-.052.041-.003.076.027.079.068.003.041-.027.076-.068.079-.004,0-.008,0-.012,0Z" fill="#0c0d0b"/>
        <path d="M43.262,61.683c-.241.018-.483.055-.724.083-.077.009-.147-.046-.155-.124-.009-.077.047-.146.124-.155.01-.001.022,0,.032,0,.241.027.483.064.724.083.031.002.055.03.052.061-.002.028-.025.05-.052.052Z" fill="#0c0d0b"/>
        <path d="M41.814,61.843c-.241.018-.483.024-.724.022-.132,0-.238-.109-.237-.241,0-.131.107-.236.237-.237.241-.002.483.004.724.022.12.009.21.113.201.233-.008.109-.095.193-.201.201Z" fill="#0c0d0b"/>
        <path d="M40.366,61.843c-.241-.01-.483-.029-.724-.051-.092-.009-.159-.09-.151-.181.007-.082.072-.144.151-.151.241-.022.483-.042.724-.052.12-.005.222.088.227.208.005.12-.088.222-.209.227-.006,0-.012,0-.018,0Z" fill="#0c0d0b"/>
        <path d="M38.917,61.695c-.12-.018-.24-.039-.36-.067-.001,0-.002-.002-.002-.003,0,0,0-.002.002-.002.12-.028.24-.049.36-.067.038-.006.074.021.08.059s-.021.074-.059.08c-.007,0-.014,0-.021,0Z" fill="#0c0d0b"/>
      </g>
    </g>
    <g>
      <line x1="37.16" y1="60.758" x2="68.017" y2="60.758" fill="none" stroke="#0c0d0b" stroke-miterlimit="10" stroke-width=".121"/>
      <g>
        <path d="M66.731,61.629l-.36.031c-.018.001-.035-.012-.036-.031s.012-.035.031-.036c.002,0,.004,0,.006,0l.36.031s.002.001.002.003c0,.001-.001.002-.002.002Z" fill="#0c0d0b"/>
        <path d="M65.647,61.701c-.241.012-.483.022-.724.023-.054,0-.098-.043-.099-.098s.044-.098.098-.099h0c.241.001.483.011.724.023.041.002.073.037.071.079-.002.039-.033.069-.071.071Z" fill="#0c0d0b"/>
        <path d="M64.199,61.735l-.724-.013c-.054,0-.096-.045-.095-.099,0-.052.043-.094.095-.095l.724-.013c.061,0,.11.047.111.108.001.061-.047.111-.108.112h-.004Z" fill="#0c0d0b"/>
        <path d="M62.75,61.683c-.241-.012-.483-.034-.724-.036-.012,0-.021-.01-.021-.021,0-.011.009-.021.021-.021.241-.003.483-.024.724-.036.032-.001.059.023.06.055.002.032-.023.059-.055.06h-.006Z" fill="#0c0d0b"/>
        <path d="M61.302,61.641c-.241.007-.483.042-.724.061-.042.003-.078-.028-.081-.07-.003-.042.028-.078.07-.081.004,0,.008,0,.012,0,.241.019.483.053.724.061.008,0,.015.007.014.015,0,.008-.007.014-.014.014Z" fill="#0c0d0b"/>
        <path d="M59.853,61.699c-.241-.019-.483-.048-.724-.052-.012,0-.021-.01-.021-.021s.009-.021.021-.021c.241-.005.483-.033.724-.052.041-.003.076.027.079.068.003.041-.027.076-.068.079-.004,0-.008,0-.012,0Z" fill="#0c0d0b"/>
        <path d="M58.405,61.683c-.241.018-.483.055-.724.083-.077.009-.147-.046-.155-.124-.009-.077.047-.146.124-.155.01-.001.021,0,.032,0,.241.027.483.064.724.083.031.002.055.03.052.061-.002.028-.025.05-.052.052Z" fill="#0c0d0b"/>
        <path d="M56.957,61.843c-.241.018-.483.024-.724.022-.132,0-.238-.109-.237-.241,0-.131.107-.236.237-.237.241-.002.483.004.724.022.12.009.21.113.201.233-.008.109-.095.193-.201.201Z" fill="#0c0d0b"/>
        <path d="M55.508,61.843c-.241-.01-.483-.029-.724-.051-.092-.009-.159-.09-.151-.181.007-.082.072-.144.151-.151.241-.022.483-.042.724-.052.12-.005.222.088.227.208.005.12-.089.222-.209.227-.006,0-.012,0-.018,0Z" fill="#0c0d0b"/>
        <path d="M54.06,61.695c-.12-.018-.24-.039-.36-.067-.001,0-.002-.002-.002-.003,0,0,.001-.002.002-.002.12-.028.24-.049.36-.067.038-.006.074.021.08.059s-.021.074-.059.08c-.007,0-.014,0-.02,0Z" fill="#0c0d0b"/>
      </g>
      <g>
        <path d="M58.731,62.771l-.36.031c-.018.001-.035-.012-.036-.031s.012-.035.031-.036c.002,0,.004,0,.006,0l.36.031s.002.001.002.003c0,.001-.001.002-.002.002Z" fill="#0c0d0b"/>
        <path d="M57.647,62.844c-.241.012-.483.022-.724.023-.054,0-.098-.044-.099-.098s.044-.098.098-.099h0c.241.001.483.011.724.023.041.002.073.038.071.079-.002.039-.033.069-.071.071Z" fill="#0c0d0b"/>
        <path d="M56.199,62.878l-.724-.013c-.054,0-.096-.045-.095-.099,0-.052.043-.094.095-.095l.724-.012c.061-.001.11.047.111.108.001.06-.047.11-.108.111h-.004Z" fill="#0c0d0b"/>
        <path d="M54.75,62.826c-.241-.012-.483-.034-.724-.036-.012,0-.021-.01-.021-.021,0-.011.009-.021.021-.021.241-.003.483-.024.724-.036.032-.001.059.023.06.055.002.032-.023.059-.055.06-.002,0-.004,0-.006,0Z" fill="#0c0d0b"/>
        <path d="M53.302,62.784c-.241.007-.483.042-.724.061-.042.003-.078-.028-.081-.07-.003-.042.028-.078.07-.081.004,0,.008,0,.012,0,.241.019.483.053.724.061.008,0,.015.007.014.015,0,.008-.007.014-.014.014Z" fill="#0c0d0b"/>
        <path d="M51.853,62.842c-.241-.019-.483-.048-.724-.052-.012,0-.021-.01-.021-.021,0-.011.009-.02.021-.021.241-.005.483-.033.724-.052.041-.003.076.027.079.067s-.027.076-.068.079c-.004,0-.008,0-.012,0Z" fill="#0c0d0b"/>
        <path d="M50.405,62.826c-.241.019-.483.055-.724.083-.077.009-.147-.047-.155-.124-.009-.077.047-.146.124-.155.01-.001.021,0,.032,0,.241.027.483.064.724.083.031.002.055.03.052.061-.002.029-.025.05-.052.052Z" fill="#0c0d0b"/>
        <path d="M48.957,62.985c-.241.018-.483.024-.724.022-.132,0-.238-.109-.237-.241,0-.131.107-.236.237-.237.241-.002.483.004.724.022.12.009.21.113.201.233-.008.109-.095.193-.201.201Z" fill="#0c0d0b"/>
        <path d="M47.508,62.986c-.241-.01-.483-.029-.724-.052-.092-.008-.159-.09-.151-.181.007-.082.072-.144.151-.151.241-.022.483-.042.724-.052.12-.005.222.088.227.209.005.12-.089.221-.209.227-.006,0-.012,0-.018,0Z" fill="#0c0d0b"/>
        <path d="M46.06,62.838c-.12-.018-.24-.039-.36-.067-.001,0-.002-.002-.002-.003,0,0,.001-.002.002-.002.12-.028.24-.049.36-.067.038-.006.074.021.08.059.006.038-.021.074-.059.08-.007,0-.014,0-.02,0Z" fill="#0c0d0b"/>
      </g>
      <g>
        <path d="M63.143,63.914c-.12.027-.24.048-.36.061-.035.004-.067-.022-.071-.057-.004-.035.022-.067.057-.071.005,0,.009,0,.014,0,.12.013.24.034.36.061.001,0,.002.002.002.003,0,0,0,.002-.002.002Z" fill="#0c0d0b"/>
        <path d="M62.088,64.02c-.232.004-.464-.021-.695-.057-.029-.004-.048-.031-.044-.06.004-.023.022-.04.044-.044.232-.036.463-.061.695-.057.06.001.107.051.106.111-.001.058-.048.105-.106.106Z" fill="#0c0d0b"/>
        <path d="M60.698,63.945c-.116.028-.232.055-.348.054-.116-.002-.232-.031-.348-.052-.02-.004-.033-.022-.029-.042.003-.015.015-.026.029-.029.116-.021.232-.05.348-.052.116,0,.232.027.348.054.018.004.03.023.025.041-.003.013-.013.022-.025.025Z" fill="#0c0d0b"/>
        <path d="M59.308,64.039c-.232.066-.464.128-.695.11-.131-.01-.229-.125-.219-.256.009-.118.104-.21.219-.219.232-.018.463.044.695.11.07.02.111.094.09.164-.013.045-.048.078-.09.091Z" fill="#0c0d0b"/>
        <path d="M57.917,64.051c-.12-.034-.24-.077-.36-.136-.001,0-.002-.002-.001-.004,0,0,0,0,.001-.001.12-.06.24-.103.36-.136.077-.022.157.023.179.1.022.077-.023.157-.1.178-.027.008-.054.007-.079,0Z" fill="#0c0d0b"/>
      </g>
      <g>
        <path d="M46.858,63.914c-.12.027-.24.048-.36.061-.035.004-.067-.022-.071-.057-.004-.035.022-.067.057-.071.005,0,.009,0,.014,0,.12.013.24.034.36.061.001,0,.002.002.002.003,0,0-.001.002-.002.002Z" fill="#0c0d0b"/>
        <path d="M45.803,64.02c-.232.004-.464-.021-.695-.057-.028-.004-.048-.031-.044-.06.004-.023.022-.04.044-.044.232-.036.464-.061.695-.057.06.001.108.051.106.111-.001.058-.048.105-.106.106Z" fill="#0c0d0b"/>
        <path d="M44.412,63.945c-.116.028-.232.055-.348.054-.116-.002-.232-.031-.348-.052-.02-.004-.033-.022-.029-.042.003-.015.015-.026.029-.029.116-.021.232-.05.348-.052.116,0,.232.027.348.054.018.004.03.023.025.041-.003.013-.013.022-.025.025Z" fill="#0c0d0b"/>
        <path d="M43.022,64.039c-.232.066-.464.128-.695.11-.131-.01-.229-.125-.219-.256.009-.118.104-.21.219-.219.232-.018.463.044.695.11.07.02.111.094.09.164-.013.045-.048.078-.09.091Z" fill="#0c0d0b"/>
        <path d="M41.632,64.051c-.12-.034-.24-.077-.36-.136-.001,0-.002-.002-.001-.004,0,0,0,0,.001-.001.12-.06.24-.103.36-.136.077-.022.157.023.178.1.022.077-.023.157-.1.178-.027.008-.054.007-.079,0Z" fill="#0c0d0b"/>
      </g>
      <g>
        <path d="M51.588,61.629l-.36.031c-.018.001-.035-.012-.036-.031s.012-.035.03-.036c.002,0,.004,0,.006,0l.36.031s.002.001.002.003c0,.001-.001.002-.002.002Z" fill="#0c0d0b"/>
        <path d="M50.504,61.701c-.241.012-.483.022-.724.023-.054,0-.098-.043-.099-.098s.043-.098.098-.099h0c.241.001.483.011.724.023.041.002.073.037.071.079-.002.039-.033.069-.071.071Z" fill="#0c0d0b"/>
        <path d="M49.056,61.735l-.724-.013c-.053,0-.096-.045-.095-.099,0-.052.043-.094.095-.095l.724-.013c.06,0,.11.047.111.108,0,.061-.047.111-.108.112h-.004Z" fill="#0c0d0b"/>
        <path d="M47.607,61.683c-.241-.012-.483-.034-.724-.036-.012,0-.021-.01-.021-.021,0-.011.01-.021.021-.021.241-.003.483-.024.724-.036.032-.001.059.023.06.055.002.032-.023.059-.055.06h-.006Z" fill="#0c0d0b"/>
        <path d="M46.159,61.641c-.241.007-.483.042-.724.061-.042.003-.078-.028-.081-.07s.028-.078.07-.081c.004,0,.008,0,.012,0,.241.019.483.053.724.061.008,0,.015.007.014.015,0,.008-.007.014-.014.014Z" fill="#0c0d0b"/>
        <path d="M44.711,61.699c-.241-.019-.483-.048-.724-.052-.011,0-.021-.01-.021-.021,0-.011.009-.021.021-.021.241-.005.483-.033.724-.052.041-.003.076.027.079.068.003.041-.027.076-.068.079-.004,0-.008,0-.012,0Z" fill="#0c0d0b"/>
        <path d="M43.262,61.683c-.241.018-.483.055-.724.083-.077.009-.147-.046-.155-.124-.009-.077.047-.146.124-.155.01-.001.022,0,.032,0,.241.027.483.064.724.083.031.002.055.03.052.061-.002.028-.025.05-.052.052Z" fill="#0c0d0b"/>
        <path d="M41.814,61.843c-.241.018-.483.024-.724.022-.132,0-.238-.109-.237-.241,0-.131.107-.236.237-.237.241-.002.483.004.724.022.12.009.21.113.201.233-.008.109-.095.193-.201.201Z" fill="#0c0d0b"/>
        <path d="M40.366,61.843c-.241-.01-.483-.029-.724-.051-.092-.009-.159-.09-.151-.181.007-.082.072-.144.151-.151.241-.022.483-.042.724-.052.12-.005.222.088.227.208.005.12-.088.222-.209.227-.006,0-.012,0-.018,0Z" fill="#0c0d0b"/>
        <path d="M38.917,61.695c-.12-.018-.24-.039-.36-.067-.001,0-.002-.002-.002-.003,0,0,0-.002.002-.002.12-.028.24-.049.36-.067.038-.006.074.021.08.059s-.021.074-.059.08c-.007,0-.014,0-.021,0Z" fill="#0c0d0b"/>
      </g>
    </g>
  </g>
  <g id="stem">
    <path d="M43.572,35.424v11.865c0,.464.428.84.956.84h8.572c.254,0,.497.089.676.246l4.258,3.742c.602.529,1.632.154,1.632-.594v-20.325" fill="none" stroke="#0c0d0b" stroke-linejoin="round" stroke-width=".186"/>
    <path d="M52.572,65.34v-9.752c0-1.037-.841-1.878-1.878-1.878h-4.034c-1.041,0-1.885-.844-1.885-1.885h0c0-1.041.844-1.885,1.885-1.885h3.075c1.041,0,1.885-.844,1.885-1.885v-11.143c0-1.041.844-1.885,1.885-1.885h.566c1.041,0,1.885-.844,1.885-1.885v-.06c0-1.041-.844-1.885-1.885-1.885h-.566c-1.041,0-1.885-.844-1.885-1.885V12.274" fill="none" stroke="#0c0d0b" stroke-miterlimit="10" stroke-width=".348"/>
  </g>
  <g id="leaf">
    <g>
      <line x1="56.009" y1="38.724" x2="63.125" y2="38.724" fill="#0c0d0b" stroke="#000" stroke-miterlimit="10" stroke-width=".206"/>
      <g>
        <path d="M56.048,39.5c-.428,0-.775-.347-.775-.775s.347-.775.775-.775.775.347.775.775-.347.775-.775.775Z" fill="#0c0d0b"/>
        <path d="M63.086,39.5c.428,0,.775-.347.775-.775s-.347-.775-.775-.775-.775.347-.775.775.347.775.775.775Z" fill="#0c0d0b"/>
      </g>
    </g>
    <g>
      <line x1="56.009" y1="36.539" x2="63.125" y2="36.539" fill="#0c0d0b" stroke="#000" stroke-miterlimit="10" stroke-width=".206"/>
      <g>
        <path d="M56.048,37.314c-.428,0-.775-.347-.775-.775s.347-.775.775-.775.775.347.775.775-.347.775-.775.775Z" fill="#0c0d0b"/>
        <path d="M63.086,37.314c.428,0,.775-.347.775-.775s-.347-.775-.775-.775-.775.347-.775.775.347.775.775.775Z" fill="#0c0d0b"/>
      </g>
    </g>
    <g>
      <line x1="40.029" y1="46.646" x2="47.145" y2="46.646" fill="#0c0d0b" stroke="#000" stroke-miterlimit="10" stroke-width=".206"/>
      <g>
        <path d="M40.068,47.422c-.428,0-.775-.347-.775-.775s.347-.775.775-.775.775.347.775.775-.347.775-.775.775Z" fill="#0c0d0b"/>
        <path d="M47.106,47.422c.428,0,.775-.347.775-.775s-.347-.775-.775-.775-.775.347-.775.775.347.775.775.775Z" fill="#0c0d0b"/>
      </g>
    </g>
    <g>
      <line x1="40.029" y1="44.461" x2="47.145" y2="44.461" fill="#0c0d0b" stroke="#000" stroke-miterlimit="10" stroke-width=".206"/>
      <g>
        <path d="M40.068,45.236c-.428,0-.775-.347-.775-.775s.347-.775.775-.775.775.347.775.775-.347.775-.775.775Z" fill="#0c0d0b"/>
        <path d="M47.106,45.236c.428,0,.775-.347.775-.775s-.347-.775-.775-.775-.775.347-.775.775.347.775.775.775Z" fill="#0c0d0b"/>
      </g>
    </g>
    <g>
      <line x1="48.103" y1="21.242" x2="55.218" y2="21.242" fill="#0c0d0b" stroke="#000" stroke-miterlimit="10" stroke-width=".206"/>
      <g>
        <path d="M48.141,22.017c-.428,0-.775-.347-.775-.775s.347-.775.775-.775.775.347.775.775-.347.775-.775.775Z" fill="#0c0d0b"/>
        <path d="M55.179,22.017c.428,0,.775-.347.775-.775s-.347-.775-.775-.775-.775.347-.775.775.347.775.775.775Z" fill="#0c0d0b"/>
      </g>
    </g>
    <g>
      <line x1="48.103" y1="18.1" x2="55.218" y2="18.1" fill="#0c0d0b" stroke="#000" stroke-miterlimit="10" stroke-width=".206"/>
      <g>
        <path d="M48.141,18.876c-.428,0-.775-.347-.775-.775s.347-.775.775-.775.775.347.775.775-.347.775-.775.775Z" fill="#0c0d0b"/>
        <path d="M55.179,18.876c.428,0,.775-.347.775-.775s-.347-.775-.775-.775-.775.347-.775.775.347.775.775.775Z" fill="#0c0d0b"/>
      </g>
    </g>
    <g>
      <circle cx="46.545" cy="24.807" r=".469" fill="none" stroke="#0c0d0b" stroke-miterlimit="10" stroke-width=".035"/>
      <circle cx="46.545" cy="24.807" r=".298" fill="#6a3f8f"/>
      <circle cx="48.235" cy="24.599" r=".469" fill="none" stroke="#0c0d0b" stroke-miterlimit="10" stroke-width=".035"/>
      <circle cx="48.235" cy="24.599" r=".298" fill="#0c0d0b"/>
      <circle cx="49.089" cy="25.45" r=".469" fill="none" stroke="#0c0d0b" stroke-miterlimit="10" stroke-width=".035"/>
      <circle cx="49.089" cy="25.45" r=".298" fill="#0c0d0b"/>
      <circle cx="50.114" cy="26.472" r=".469" fill="none" stroke="#0c0d0b" stroke-miterlimit="10" stroke-width=".035"/>
      <circle cx="50.114" cy="26.472" r=".298" fill="#0c0d0b"/>
      <circle cx="46.227" cy="26.514" r=".469" fill="none" stroke="#0c0d0b" stroke-miterlimit="10" stroke-width=".035"/>
      <circle cx="46.227" cy="26.514" r=".298" fill="#0c0d0b"/>
      <circle cx="47.081" cy="27.365" r=".469" fill="none" stroke="#0c0d0b" stroke-miterlimit="10" stroke-width=".035"/>
      <circle cx="47.081" cy="27.365" r=".298" fill="#0c0d0b"/>
      <circle cx="48.106" cy="28.387" r=".469" fill="none" stroke="#0c0d0b" stroke-miterlimit="10" stroke-width=".035"/>
      <circle cx="48.106" cy="28.387" r=".298" fill="#8045b2"/>
      <circle cx="57.158" cy="24.807" r=".469" fill="none" stroke="#0c0d0b" stroke-miterlimit="10" stroke-width=".035"/>
      <circle cx="57.158" cy="24.807" r=".298" fill="#0c0d0b"/>
      <circle cx="55.468" cy="24.599" r=".469" fill="none" stroke="#0c0d0b" stroke-miterlimit="10" stroke-width=".035"/>
      <circle cx="55.468" cy="24.599" r=".298" fill="#0c0d0b"/>
      <circle cx="54.614" cy="25.45" r=".469" fill="none" stroke="#0c0d0b" stroke-miterlimit="10" stroke-width=".035"/>
      <circle cx="54.614" cy="25.45" r=".298" fill="#ab6be0"/>
      <circle cx="53.588" cy="26.472" r=".469" fill="none" stroke="#0c0d0b" stroke-miterlimit="10" stroke-width=".035"/>
      <circle cx="53.588" cy="26.472" r=".298" fill="#0c0d0b"/>
      <circle cx="57.476" cy="26.514" r=".469" fill="none" stroke="#0c0d0b" stroke-miterlimit="10" stroke-width=".035"/>
      <circle cx="57.476" cy="26.514" r=".298" fill="#0c0d0b"/>
      <circle cx="56.622" cy="27.365" r=".469" fill="none" stroke="#0c0d0b" stroke-miterlimit="10" stroke-width=".035"/>
      <circle cx="56.622" cy="27.365" r=".298" fill="#0c0d0b"/>
      <circle cx="55.596" cy="28.387" r=".469" fill="none" stroke="#0c0d0b" stroke-miterlimit="10" stroke-width=".035"/>
      <circle cx="55.596" cy="28.387" r=".298" fill="#0c0d0b"/>
      <polygon points="56.996 26.541 56.996 26.498 55.524 26.498 56.84 25.187 56.81 25.157 55.49 26.472 55.49 25.07 55.448 25.07 55.448 26.514 54.636 27.323 54.636 25.921 54.593 25.921 54.593 27.365 53.611 28.344 53.611 26.942 53.568 26.942 53.568 28.387 52.367 29.583 51.324 29.583 50.123 28.387 50.123 26.942 50.08 26.942 50.08 28.344 49.097 27.365 49.097 25.921 49.055 25.921 49.055 27.323 48.243 26.514 48.243 25.07 48.2 25.07 48.2 26.472 46.881 25.157 46.85 25.187 48.167 26.498 46.695 26.498 46.695 26.541 48.209 26.541 49.021 27.349 47.549 27.349 47.549 27.392 49.064 27.392 50.046 28.371 48.574 28.371 48.574 28.413 50.089 28.413 51.313 29.632 51.313 29.668 52.381 29.668 52.381 29.629 53.602 28.413 55.116 28.413 55.116 28.371 53.645 28.371 54.627 27.392 56.142 27.392 56.142 27.349 54.67 27.349 55.482 26.541 56.996 26.541" fill="#0c0d0b"/>
    </g>
    <g>
      <circle cx="54.33" cy="42.016" r=".469" fill="none" stroke="#0c0d0b" stroke-miterlimit="10" stroke-width=".035"/>
      <circle cx="54.33" cy="42.016" r=".298" fill="#6a3f8f"/>
      <circle cx="56.02" cy="41.809" r=".469" fill="none" stroke="#0c0d0b" stroke-miterlimit="10" stroke-width=".035"/>
      <circle cx="56.02" cy="41.809" r=".298" fill="#0c0d0b"/>
      <circle cx="56.874" cy="42.66" r=".469" fill="none" stroke="#0c0d0b" stroke-miterlimit="10" stroke-width=".035"/>
      <circle cx="56.874" cy="42.66" r=".298" fill="#0c0d0b"/>
      <circle cx="57.9" cy="43.681" r=".469" fill="none" stroke="#0c0d0b" stroke-miterlimit="10" stroke-width=".035"/>
      <circle cx="57.9" cy="43.681" r=".298" fill="#0c0d0b"/>
      <circle cx="54.012" cy="43.724" r=".469" fill="none" stroke="#0c0d0b" stroke-miterlimit="10" stroke-width=".035"/>
      <circle cx="54.012" cy="43.724" r=".298" fill="#0c0d0b"/>
      <circle cx="54.866" cy="44.575" r=".469" fill="none" stroke="#0c0d0b" stroke-miterlimit="10" stroke-width=".035"/>
      <circle cx="54.866" cy="44.575" r=".298" fill="#0c0d0b"/>
      <circle cx="55.892" cy="45.596" r=".469" fill="none" stroke="#0c0d0b" stroke-miterlimit="10" stroke-width=".035"/>
      <circle cx="55.892" cy="45.596" r=".298" fill="#8045b2"/>
      <circle cx="64.943" cy="42.016" r=".469" fill="none" stroke="#0c0d0b" stroke-miterlimit="10" stroke-width=".035"/>
      <circle cx="64.943" cy="42.016" r=".298" fill="#0c0d0b"/>
      <circle cx="63.253" cy="41.809" r=".469" fill="none" stroke="#0c0d0b" stroke-miterlimit="10" stroke-width=".035"/>
      <circle cx="63.253" cy="41.809" r=".298" fill="#0c0d0b"/>
      <circle cx="62.399" cy="42.66" r=".469" fill="none" stroke="#0c0d0b" stroke-miterlimit="10" stroke-width=".035"/>
      <circle cx="62.399" cy="42.66" r=".298" fill="#ab6be0"/>
      <circle cx="61.374" cy="43.681" r=".469" fill="none" stroke="#0c0d0b" stroke-miterlimit="10" stroke-width=".035"/>
      <circle cx="61.374" cy="43.681" r=".298" fill="#0c0d0b"/>
      <circle cx="65.261" cy="43.724" r=".469" fill="none" stroke="#0c0d0b" stroke-miterlimit="10" stroke-width=".035"/>
      <circle cx="65.261" cy="43.724" r=".298" fill="#0c0d0b"/>
      <circle cx="64.407" cy="44.575" r=".469" fill="none" stroke="#0c0d0b" stroke-miterlimit="10" stroke-width=".035"/>
      <path d="M64.706,44.575c0,.165-.134.298-.299.298s-.299-.133-.299-.298.134-.298.299-.298.299.133.299.298Z" fill="#0c0d0b"/>
      <circle cx="63.381" cy="45.596" r=".469" fill="none" stroke="#0c0d0b" stroke-miterlimit="10" stroke-width=".035"/>
      <circle cx="63.381" cy="45.596" r=".298" fill="#0c0d0b"/>
      <polygon points="64.781 43.75 64.781 43.708 63.309 43.708 64.626 42.397 64.595 42.367 63.276 43.681 63.276 42.279 63.233 42.279 63.233 43.724 62.421 44.532 62.421 43.13 62.378 43.13 62.378 44.575 61.396 45.554 61.396 44.151 61.353 44.151 61.353 45.596 60.152 46.793 59.109 46.793 57.908 45.596 57.908 44.151 57.865 44.151 57.865 45.554 56.883 44.575 56.883 43.13 56.84 43.13 56.84 44.532 56.028 43.724 56.028 42.279 55.986 42.279 55.986 43.681 54.666 42.367 54.636 42.397 55.952 43.708 54.48 43.708 54.48 43.75 55.994 43.75 56.806 44.559 55.334 44.559 55.334 44.601 56.849 44.601 57.831 45.58 56.36 45.58 56.36 45.623 57.874 45.623 59.098 46.842 59.098 46.878 60.166 46.878 60.166 46.838 61.387 45.623 62.902 45.623 62.902 45.58 61.43 45.58 62.412 44.601 63.927 44.601 63.927 44.559 62.455 44.559 63.267 43.75 64.781 43.75" fill="#0c0d0b"/>
    </g>
    <g>
      <circle cx="38.201" cy="38.795" r=".469" fill="none" stroke="#0c0d0b" stroke-miterlimit="10" stroke-width=".035"/>
      <circle cx="38.201" cy="38.795" r=".298" fill="#6a3f8f"/>
      <circle cx="39.891" cy="38.588" r=".469" fill="none" stroke="#0c0d0b" stroke-miterlimit="10" stroke-width=".035"/>
      <circle cx="39.891" cy="38.588" r=".298" fill="#0c0d0b"/>
      <circle cx="40.746" cy="39.439" r=".469" fill="none" stroke="#0c0d0b" stroke-miterlimit="10" stroke-width=".035"/>
      <circle cx="40.746" cy="39.439" r=".298" fill="#0c0d0b"/>
      <circle cx="41.771" cy="40.46" r=".469" fill="none" stroke="#0c0d0b" stroke-miterlimit="10" stroke-width=".035"/>
      <circle cx="41.771" cy="40.46" r=".298" fill="#0c0d0b"/>
      <circle cx="37.883" cy="40.502" r=".469" fill="none" stroke="#0c0d0b" stroke-miterlimit="10" stroke-width=".035"/>
      <circle cx="37.883" cy="40.502" r=".298" fill="#0c0d0b"/>
      <circle cx="38.738" cy="41.354" r=".469" fill="none" stroke="#0c0d0b" stroke-miterlimit="10" stroke-width=".035"/>
      <circle cx="38.738" cy="41.354" r=".298" fill="#0c0d0b"/>
      <circle cx="39.763" cy="42.375" r=".469" fill="none" stroke="#0c0d0b" stroke-miterlimit="10" stroke-width=".035"/>
      <circle cx="39.763" cy="42.375" r=".298" fill="#8045b2"/>
      <circle cx="48.815" cy="38.795" r=".469" fill="none" stroke="#0c0d0b" stroke-miterlimit="10" stroke-width=".035"/>
      <circle cx="48.815" cy="38.795" r=".298" fill="#0c0d0b"/>
      <circle cx="47.125" cy="38.588" r=".469" fill="none" stroke="#0c0d0b" stroke-miterlimit="10" stroke-width=".035"/>
      <circle cx="47.125" cy="38.588" r=".298" fill="#0c0d0b"/>
      <circle cx="46.27" cy="39.439" r=".469" fill="none" stroke="#0c0d0b" stroke-miterlimit="10" stroke-width=".035"/>
      <circle cx="46.27" cy="39.439" r=".298" fill="#ab6be0"/>
      <circle cx="45.245" cy="40.46" r=".469" fill="none" stroke="#0c0d0b" stroke-miterlimit="10" stroke-width=".035"/>
      <circle cx="45.245" cy="40.46" r=".298" fill="#0c0d0b"/>
      <circle cx="49.133" cy="40.502" r=".469" fill="none" stroke="#0c0d0b" stroke-miterlimit="10" stroke-width=".035"/>
      <circle cx="49.133" cy="40.502" r=".298" fill="#0c0d0b"/>
      <circle cx="48.278" cy="41.354" r=".469" fill="none" stroke="#0c0d0b" stroke-miterlimit="10" stroke-width=".035"/>
      <path d="M48.577,41.354c0,.165-.134.298-.299.298s-.299-.133-.299-.298.134-.298.299-.298.299.133.299.298Z" fill="#0c0d0b"/>
      <circle cx="47.253" cy="42.375" r=".469" fill="none" stroke="#0c0d0b" stroke-miterlimit="10" stroke-width=".035"/>
      <circle cx="47.253" cy="42.375" r=".298" fill="#0c0d0b"/>
      <polygon points="48.653 40.529 48.653 40.487 47.181 40.487 48.497 39.176 48.467 39.146 47.147 40.46 47.147 39.058 47.104 39.058 47.104 40.503 46.293 41.311 46.293 39.909 46.25 39.909 46.25 41.354 45.267 42.332 45.267 40.93 45.225 40.93 45.225 42.375 44.023 43.572 42.981 43.572 41.78 42.375 41.78 40.93 41.737 40.93 41.737 42.332 40.754 41.354 40.754 39.909 40.712 39.909 40.712 41.311 39.9 40.503 39.9 39.058 39.857 39.058 39.857 40.46 38.537 39.146 38.507 39.176 39.823 40.487 38.351 40.487 38.351 40.529 39.866 40.529 40.678 41.338 39.206 41.338 39.206 41.38 40.72 41.38 41.703 42.359 40.231 42.359 40.231 42.401 41.746 42.401 42.97 43.621 42.97 43.657 44.038 43.657 44.038 43.617 45.259 42.401 46.773 42.401 46.773 42.359 45.301 42.359 46.284 41.38 47.798 41.38 47.798 41.338 46.327 41.338 47.138 40.529 48.653 40.529" fill="#0c0d0b"/>
    </g>
    <circle cx="59.567" cy="33.16" r="2.454" fill="#8045b2"/>
    <circle cx="43.468" cy="35.067" r="2.454" fill="#8045b2"/>
  </g>
  <g id="flower">
    <g>
      <line x1="51.718" y1="16.984" x2="51.718" y2="2.741" fill="none" stroke="#0c0d0b" stroke-miterlimit="10" stroke-width=".192"/>
      <g>
        <path d="M54.434,3.405c-.279-.131-.558-.178-.838.052-.261.202-.536.619-.838.753-.071.027-.144.05-.218.07h-1.95c-.074-.02-.147-.042-.218-.07-.302-.134-.577-.551-.838-.753-.279-.229-.558-.182-.838-.052-.382.211-.608.503-.838.971.229.468.456.76.838.971.279.131.558.178.838-.052.261-.202.536-.619.838-.753.071-.027.144-.05.218-.07h1.95c.074.02.147.043.218.07.302.134.577.551.838.753.279.229.558.182.838.052.382-.21.608-.503.838-.971-.23-.468-.456-.76-.838-.971Z" fill="#0c0d0b"/>
        <circle cx="49.012" cy="4.376" r=".406" fill="#6a3f8f"/>
        <circle cx="54.019" cy="4.376" r=".406" fill="#6a3f8f"/>
      </g>
      <g>
        <path d="M52.141,6.632c-.279-.131-.558-.178-.838.052-.261.202-.536.619-.838.753-.071.027-.144.05-.218.07h-1.95c-.074-.02-.147-.042-.218-.07-.302-.134-.577-.551-.838-.753-.279-.229-.558-.182-.838-.052-.382.211-.608.503-.838.971.229.468.456.76.838.971.279.131.558.178.838-.052.261-.202.536-.619.838-.753.071-.027.144-.05.218-.07h1.95c.074.02.147.043.218.07.302.134.577.551.838.753.279.229.558.182.838.052.382-.21.608-.503.838-.971-.23-.468-.456-.76-.838-.971Z" fill="#0c0d0b"/>
        <circle cx="46.719" cy="7.603" r=".406" fill="#6a3f8f"/>
        <circle cx="51.726" cy="7.603" r=".406" fill="#6a3f8f"/>
      </g>
      <g>
        <path d="M54.604,9.18c-.279-.131-.558-.178-.838.052-.261.202-.536.619-.838.753-.071.027-.144.05-.218.07h-1.95c-.074-.02-.147-.042-.218-.07-.302-.134-.577-.551-.838-.753-.279-.229-.558-.182-.838-.052-.382.211-.608.503-.838.971.229.468.456.76.838.971.279.131.558.178.838-.052.261-.202.536-.619.838-.753.071-.027.144-.05.218-.07h1.95c.074.02.147.043.218.07.302.134.577.551.838.753.279.229.558.182.838.052.382-.21.608-.503.838-.971-.23-.468-.456-.76-.838-.971Z" fill="#0c0d0b"/>
        <circle cx="49.181" cy="10.15" r=".406" fill="#6a3f8f"/>
        <circle cx="54.189" cy="10.15" r=".406" fill="#6a3f8f"/>
      </g>
      <g>
        <path d="M57.067,11.303c-.279-.131-.558-.178-.838.052-.261.202-.536.619-.838.753-.071.027-.144.05-.218.07h-1.95c-.074-.02-.147-.042-.218-.07-.302-.134-.577-.551-.838-.753-.279-.229-.558-.182-.838-.052-.382.211-.608.503-.838.971.229.468.456.76.838.971.279.131.558.178.838-.052.261-.202.536-.619.838-.753.071-.027.144-.05.218-.07h1.95c.074.02.147.043.218.07.302.134.577.551.838.753.279.229.558.182.838.052.382-.21.608-.503.838-.971-.23-.468-.456-.76-.838-.971Z" fill="#0c0d0b"/>
        <circle cx="51.644" cy="12.274" r=".406" fill="#6a3f8f"/>
        <circle cx="56.652" cy="12.274" r=".406" fill="#6a3f8f"/>
      </g>
      <g>
        <path d="M54.604,13.935c-.279-.131-.558-.178-.838.052-.261.202-.536.619-.838.753-.071.027-.144.05-.218.07h-1.95c-.074-.02-.147-.042-.218-.07-.302-.134-.577-.551-.838-.753-.279-.229-.558-.182-.838-.052-.382.211-.608.503-.838.971.229.468.456.76.838.971.279.131.558.178.838-.052.261-.202.536-.619.838-.753.071-.027.144-.05.218-.07h1.95c.074.02.147.043.218.07.302.134.577.551.838.753.279.229.558.182.838.052.382-.21.608-.503.838-.971-.23-.468-.456-.76-.838-.971Z" fill="#0c0d0b"/>
        <circle cx="49.181" cy="14.906" r=".406" fill="#6a3f8f"/>
        <circle cx="54.189" cy="14.906" r=".406" fill="#6a3f8f"/>
      </g>
      <path d="M51.718,0c-.841,0-1.523.682-1.523,1.523s.682,1.523,1.523,1.523,1.523-.682,1.523-1.523-.682-1.523-1.523-1.523ZM51.718,2.538c-.561,0-1.015-.454-1.015-1.015s.454-1.015,1.015-1.015,1.015.454,1.015,1.015-.454,1.015-1.015,1.015Z" fill="#0c0d0b"/>
      <circle cx="51.718" cy="1.523" r=".474" fill="#8045b2"/>
    </g>
  </g>
</svg>