<?xml version="1.0" encoding="UTF-8"?>
<svg xmlns="http://www.w3.org/2000/svg" width="100" height="100" viewBox="0 0 100 100">
  <g id="background">
    <circle cx="50.101" cy="80.234" r="9.894" fill="#cb1e1a" opacity=".33"/>
  </g>
  <g id="root">
    <g>
      <path d="M50,88.966v3.787c0,.82-.509,1.553-1.278,1.838-1.61.597-4.361,1.912-5.984,2.526-.823.311-1.751.102-2.36-.532l-4.409-4.586c-.918-.955-2.506-.708-3.091.48l-3.471,7.049" fill="none" stroke="#0c0d0b" stroke-miterlimit="10" stroke-width=".207"/>
      <path d="M28.969,93.834c.102,0,2.572,2.367,4.041,3.784.529.51,1.401.354,1.721-.308l2.172-4.494c.451-.934,1.832-.756,2.031.262.397,2.029.936,4.513,1.225,5.828.116.526.601.885,1.137.843,1.346-.106,3.886-.308,5.852-.467.992-.08,1.356-1.347.557-1.942l-4.141-3.085c-.715-.533-.512-1.654.344-1.902l4.671-1.355c.461-.134.779-.556.779-1.037v-1.389" fill="none" stroke="#0c0d0b" stroke-miterlimit="10" stroke-width=".207"/>
      <path d="M50,89.113v3.787c0,.82.509,1.553,1.278,1.838,1.61.597,4.361,1.912,5.984,2.526.823.311,1.751.102,2.36-.532l4.409-4.586c.918-.955,2.506-.708,3.091.48l3.471,7.049" fill="none" stroke="#0c0d0b" stroke-miterlimit="10" stroke-width=".207"/>
      <path d="M71.031,93.98c-.102,0-2.572,2.367-4.041,3.784-.529.51-1.401.354-1.721-.308l-2.172-4.494c-.451-.934-1.832-.756-2.031.262-.397,2.029-.936,4.513-1.225,5.828-.116.526-.601.885-1.137.843-1.346-.106-3.886-.308-5.852-.467-.992-.08-1.356-1.347-.557-1.942l4.141-3.085c.715-.533.512-1.654-.344-1.902l-4.671-1.355c-.461-.134-.779-.556-.779-1.037v-1.389" fill="none" stroke="#0c0d0b" stroke-miterlimit="10" stroke-width=".207"/>
      <path d="M50,92.666l-9.804-4.314c-.626-.275-.894-1.015-.596-1.631.127-.262.255-.544.373-.812.262-.595-.183-1.26-.833-1.246-1.2.026-2.927.063-4.077.088-.692.015-1.253-.554-1.228-1.246l.064-1.801c.021-.586.461-1.071,1.042-1.149l.994-.134" fill="none" stroke="#0c0d0b" stroke-miterlimit="10" stroke-width=".207"/>
      <path d="M50.045,92.666l9.804-4.314c.626-.275.894-1.015.596-1.631-.127-.262-.255-.544-.373-.812-.262-.595.183-1.26.833-1.246,1.2.026,2.927.063,4.077.088.692.015,1.253-.554,1.228-1.246l-.064-1.801c-.021-.586-.461-1.071-1.042-1.149l-.994-.134" fill="none" stroke="#0c0d0b" stroke-miterlimit="10" stroke-width=".207"/>
      <path d="M30.575,82.443h9.712c.9,0,1.629.729,1.629,1.629v10.925c0,.238.052.473.153.689l.669,1.432" fill="none" stroke="#0c0d0b" stroke-miterlimit="10" stroke-width=".207"/>
      <path d="M68.881,82.443h-9.712c-.9,0-1.629.729-1.629,1.629v10.925c0,.238-.052.473-.153.689l-.669,1.432" fill="none" stroke="#0c0d0b" stroke-miterlimit="10" stroke-width=".207"/>
    </g>
  </g>
  <g id="seed">
    <g>
      <circle cx="50" cy="80.421" r=".644" fill="#cb1f1b"/>
      <circle cx="50" cy="85.091" r=".644" fill="#e20613"/>
      <path d="M55.733,76.978c-.491-1.491-1.315-2.823-2.174-4.128-.12-.182-.246-.36-.376-.535-.128-.171-.264-.335-.397-.503.579,1.049,1.167,2.076,1.667,3.145,1.041,2.221,1.379,4.555.887,6.97-.402,1.975-1.217,3.757-2.761,5.118-.481.424-1.053.743-1.584,1.11-.02-.033-.039-.065-.058-.098,1.246-1.386,1.798-3.071,2.1-4.865.348-2.069-.127-4.028-.8-5.961-.517-1.486-1.088-2.956-1.527-4.465-.307-1.054-.43-2.162-.637-3.251v9.401c.733.038,1.316.642,1.316,1.385s-.583,1.347-1.316,1.385v1.859c.733.038,1.316.642,1.316,1.385s-.583,1.347-1.316,1.385v2.184c-.041,0-.082,0-.123,0v-2.183c-.743-.027-1.338-.636-1.338-1.386s.595-1.359,1.338-1.386v-1.856c-.743-.027-1.338-.636-1.338-1.386s.595-1.359,1.338-1.386v-10.525c-.034,0-.067-.001-.101-.002-.008.093-.012.187-.025.279-.222,1.544-.354,3.109-.696,4.626-.275,1.22-.794,2.387-1.223,3.571-.519,1.432-1.009,2.878-1.094,4.407-.133,2.385.649,4.524,1.911,6.511.111.174.256.327.385.49-.024.023-.049.046-.073.069-.56-.438-1.176-.821-1.671-1.323-2.362-2.401-3.191-5.337-2.838-8.628.231-2.157,1.159-4.066,2.274-5.894.048-.078.09-.16.135-.24-.458.491-.854,1.017-1.2,1.574-1.151,1.854-1.925,3.847-2.074,6.041-.153,2.254.366,4.356,1.596,6.26.864,1.337,2.035,2.316,3.615,2.665.562.124,1.11.098,1.103.882.041-.235.082-.471.122-.705.049-.017.087-.04.126-.041,1.827-.065,3.173-1.01,4.194-2.42,2.123-2.931,2.432-6.149,1.318-9.533Z" fill="#0c0c0c"/>
    </g>
  </g>
  <g id="soil">
    <line x1="31.512" y1="67.384" x2="67.807" y2="67.384" fill="none" stroke="#0c0d0b" stroke-miterlimit="10" stroke-width="3.312"/>
    <line x1="31.512" y1="67.384" x2="67.807" y2="67.384" fill="none" stroke="#333" stroke-miterlimit="10" stroke-width="1.242"/>
  </g>
  <g id="stem">
    <g>
      <line x1="50.027" y1="65.544" x2="50.027" y2="4.215" fill="none" stroke="#0c0d0b" stroke-linecap="round" stroke-miterlimit="10" stroke-width=".828"/>
      <g>
        <polygon points="50.027 64.223 48.884 63.952 50.027 63.681 50.027 64.223 50.027 64.223" fill="#0c0d0b"/>
        <polygon points="50.027 65.694 51.171 65.423 50.027 65.152 50.027 65.694 50.027 65.694" fill="#0c0d0b"/>
      </g>
      <g>
        <polygon points="50.027 61.989 48.884 61.718 50.027 61.447 50.027 61.989 50.027 61.989" fill="#0c0d0b"/>
        <polygon points="50.027 63.461 51.171 63.19 50.027 62.919 50.027 63.461 50.027 63.461" fill="#0c0d0b"/>
      </g>
      <g>
        <polygon points="50.027 59.727 48.884 59.456 50.027 59.185 50.027 59.727 50.027 59.727" fill="#0c0d0b"/>
        <polygon points="50.027 61.199 51.171 60.928 50.027 60.657 50.027 61.199 50.027 61.199" fill="#0c0d0b"/>
      </g>
      <g>
        <polygon points="50.027 57.483 48.884 57.212 50.027 56.941 50.027 57.483 50.027 57.483" fill="#0c0d0b"/>
        <polygon points="50.027 58.955 51.171 58.684 50.027 58.413 50.027 58.955 50.027 58.955" fill="#0c0d0b"/>
      </g>
      <g>
        <polygon points="50.027 55.234 48.884 54.963 50.027 54.692 50.027 55.234 50.027 55.234" fill="#0c0d0b"/>
        <polygon points="50.027 56.706 51.171 56.435 50.027 56.164 50.027 56.706 50.027 56.706" fill="#0c0d0b"/>
      </g>
      <g>
        <polygon points="50.027 52.98 48.884 52.709 50.027 52.438 50.027 52.98 50.027 52.98" fill="#0c0d0b"/>
        <polygon points="50.027 54.452 51.171 54.181 50.027 53.91 50.027 54.452 50.027 54.452" fill="#0c0d0b"/>
      </g>
      <g>
        <polygon points="50.027 50.786 48.884 50.515 50.027 50.244 50.027 50.786 50.027 50.786" fill="#0c0d0b"/>
        <polygon points="50.027 52.258 51.171 51.987 50.027 51.716 50.027 52.258 50.027 52.258" fill="#0c0d0b"/>
      </g>
      <g>
        <polygon points="50.027 48.562 48.884 48.291 50.027 48.02 50.027 48.562 50.027 48.562" fill="#0c0d0b"/>
        <polygon points="50.027 50.034 51.171 49.763 50.027 49.492 50.027 50.034 50.027 50.034" fill="#0c0d0b"/>
      </g>
      <g>
        <polygon points="50.027 46.32 48.884 46.049 50.027 45.778 50.027 46.32 50.027 46.32" fill="#0c0d0b"/>
        <polygon points="50.027 47.792 51.171 47.521 50.027 47.25 50.027 47.792 50.027 47.792" fill="#0c0d0b"/>
      </g>
      <g>
        <polygon points="50.027 44.069 48.884 43.798 50.027 43.527 50.027 44.069 50.027 44.069" fill="#0c0d0b"/>
        <polygon points="50.027 45.541 51.171 45.27 50.027 44.999 50.027 45.541 50.027 45.541" fill="#0c0d0b"/>
      </g>
      <g>
        <polygon points="50.027 41.818 48.884 41.547 50.027 41.276 50.027 41.818 50.027 41.818" fill="#0c0d0b"/>
        <polygon points="50.027 43.29 51.171 43.019 50.027 42.748 50.027 43.29 50.027 43.29" fill="#0c0d0b"/>
      </g>
      <g>
        <polygon points="50.027 39.594 48.884 39.323 50.027 39.052 50.027 39.594 50.027 39.594" fill="#0c0d0b"/>
        <polygon points="50.027 41.066 51.171 40.795 50.027 40.524 50.027 41.066 50.027 41.066" fill="#0c0d0b"/>
      </g>
      <g>
        <polygon points="50.027 37.35 48.884 37.079 50.027 36.808 50.027 37.35 50.027 37.35" fill="#0c0d0b"/>
        <polygon points="50.027 38.822 51.171 38.551 50.027 38.28 50.027 38.822 50.027 38.822" fill="#0c0d0b"/>
      </g>
      <g>
        <polygon points="50.027 35.049 48.884 34.778 50.027 34.507 50.027 35.049 50.027 35.049" fill="#0c0d0b"/>
        <polygon points="50.027 36.521 51.171 36.25 50.027 35.979 50.027 36.521 50.027 36.521" fill="#0c0d0b"/>
      </g>
      <g>
        <polygon points="50.027 32.852 48.884 32.581 50.027 32.31 50.027 32.852 50.027 32.852" fill="#0c0d0b"/>
        <polygon points="50.027 34.324 51.171 34.053 50.027 33.782 50.027 34.324 50.027 34.324" fill="#0c0d0b"/>
      </g>
      <g>
        <polygon points="50.027 30.631 48.884 30.36 50.027 30.089 50.027 30.631 50.027 30.631" fill="#0c0d0b"/>
        <polygon points="50.027 32.103 51.171 31.832 50.027 31.561 50.027 32.103 50.027 32.103" fill="#0c0d0b"/>
      </g>
      <g>
        <polygon points="50.027 28.412 48.884 28.141 50.027 27.87 50.027 28.412 50.027 28.412" fill="#0c0d0b"/>
        <polygon points="50.027 29.884 51.171 29.613 50.027 29.342 50.027 29.884 50.027 29.884" fill="#0c0d0b"/>
      </g>
      <g>
        <polygon points="50.027 26.112 48.884 25.841 50.027 25.57 50.027 26.112 50.027 26.112" fill="#0c0d0b"/>
        <polygon points="50.027 27.584 51.171 27.313 50.027 27.042 50.027 27.584 50.027 27.584" fill="#0c0d0b"/>
      </g>
      <g>
        <polygon points="50.027 23.86 48.884 23.589 50.027 23.318 50.027 23.86 50.027 23.86" fill="#0c0d0b"/>
        <polygon points="50.027 25.332 51.171 25.061 50.027 24.79 50.027 25.332 50.027 25.332" fill="#0c0d0b"/>
      </g>
      <g>
        <polygon points="50.027 21.612 48.884 21.341 50.027 21.07 50.027 21.612 50.027 21.612" fill="#0c0d0b"/>
        <polygon points="50.027 23.083 51.171 22.812 50.027 22.541 50.027 23.083 50.027 23.083" fill="#0c0d0b"/>
      </g>
      <g>
        <polygon points="50.027 19.375 48.884 19.104 50.027 18.833 50.027 19.375 50.027 19.375" fill="#0c0d0b"/>
        <polygon points="50.027 20.847 51.171 20.576 50.027 20.305 50.027 20.847 50.027 20.847" fill="#0c0d0b"/>
      </g>
      <g>
        <polygon points="50.027 17.163 48.884 16.892 50.027 16.621 50.027 17.163 50.027 17.163" fill="#0c0d0b"/>
        <polygon points="50.027 18.635 51.171 18.364 50.027 18.093 50.027 18.635 50.027 18.635" fill="#0c0d0b"/>
      </g>
      <g>
        <polygon points="50.027 14.962 48.884 14.691 50.027 14.42 50.027 14.962 50.027 14.962" fill="#0c0d0b"/>
        <polygon points="50.027 16.434 51.171 16.163 50.027 15.892 50.027 16.434 50.027 16.434" fill="#0c0d0b"/>
      </g>
      <g>
        <polygon points="50.027 12.659 48.884 12.388 50.027 12.117 50.027 12.659 50.027 12.659" fill="#0c0d0b"/>
        <polygon points="50.027 14.131 51.171 13.86 50.027 13.589 50.027 14.131 50.027 14.131" fill="#0c0d0b"/>
      </g>
      <g>
        <polygon points="50.027 10.432 48.884 10.161 50.027 9.89 50.027 10.432 50.027 10.432" fill="#0c0d0b"/>
        <polygon points="50.027 11.903 51.171 11.632 50.027 11.361 50.027 11.903 50.027 11.903" fill="#0c0d0b"/>
      </g>
      <g>
        <polygon points="50.027 8.184 48.884 7.913 50.027 7.642 50.027 8.184 50.027 8.184" fill="#0c0d0b"/>
        <polygon points="50.027 9.656 51.171 9.385 50.027 9.114 50.027 9.656 50.027 9.656" fill="#0c0d0b"/>
      </g>
      <g>
        <polygon points="50.027 5.947 48.884 5.676 50.027 5.405 50.027 5.947 50.027 5.947" fill="#0c0d0b"/>
        <polygon points="50.027 7.419 51.171 7.148 50.027 6.877 50.027 7.419 50.027 7.419" fill="#0c0d0b"/>
      </g>
      <g>
        <polygon points="50.027 3.75 48.884 3.479 50.027 3.208 50.027 3.75 50.027 3.75" fill="#0c0d0b"/>
        <polygon points="50.027 5.222 51.171 4.951 50.027 4.68 50.027 5.222 50.027 5.222" fill="#0c0d0b"/>
      </g>
    </g>
    <g>
      <polyline points="35.923 8.303 35.923 19.251 42.23 19.251 42.23 30.339 57.71 30.339 57.71 19.321 64.132 19.321 64.132 8.303" fill="none" stroke="#0c0d0b" stroke-linecap="round" stroke-miterlimit="10" stroke-width=".828"/>
      <g>
        <polygon points="35.929 9.45 34.885 9.189 35.935 8.954 35.929 9.45 35.929 9.45" fill="#0c0d0b"/>
        <polygon points="35.911 10.797 36.961 10.563 35.917 10.301 35.911 10.797 35.911 10.797" fill="#0c0d0b"/>
      </g>
      <g>
        <polygon points="35.929 12.075 34.885 11.813 35.935 11.579 35.929 12.075 35.929 12.075" fill="#0c0d0b"/>
        <polygon points="35.911 13.422 36.961 13.188 35.917 12.926 35.911 13.422 35.911 13.422" fill="#0c0d0b"/>
      </g>
      <g>
        <polygon points="35.929 14.699 34.885 14.438 35.935 14.203 35.929 14.699 35.929 14.699" fill="#0c0d0b"/>
        <polygon points="35.911 16.046 36.961 15.812 35.917 15.55 35.911 16.046 35.911 16.046" fill="#0c0d0b"/>
      </g>
      <g>
        <polygon points="35.929 17.328 34.885 17.067 35.935 16.832 35.929 17.328 35.929 17.328" fill="#0c0d0b"/>
        <polygon points="35.911 18.676 36.961 18.441 35.917 18.18 35.911 18.676 35.911 18.676" fill="#0c0d0b"/>
      </g>
      <g>
        <polygon points="36.607 19.245 36.346 20.289 36.111 19.239 36.607 19.245 36.607 19.245" fill="#0c0d0b"/>
        <polygon points="37.954 19.263 37.72 18.212 37.458 19.256 37.954 19.263 37.954 19.263" fill="#0c0d0b"/>
      </g>
      <g>
        <polygon points="39.218 19.245 38.956 20.289 38.721 19.239 39.218 19.245 39.218 19.245" fill="#0c0d0b"/>
        <polygon points="40.565 19.263 40.33 18.212 40.069 19.256 40.565 19.263 40.565 19.263" fill="#0c0d0b"/>
      </g>
      <g>
        <polygon points="42.235 18.825 41.192 18.564 42.242 18.329 42.235 18.825 42.235 18.825" fill="#0c0d0b"/>
        <polygon points="42.218 20.173 43.268 19.938 42.224 19.677 42.218 20.173 42.218 20.173" fill="#0c0d0b"/>
      </g>
      <g>
        <polygon points="42.235 21.475 41.192 21.214 42.242 20.979 42.235 21.475 42.235 21.475" fill="#0c0d0b"/>
        <polygon points="42.218 22.822 43.268 22.588 42.224 22.326 42.218 22.822 42.218 22.822" fill="#0c0d0b"/>
      </g>
      <g>
        <polygon points="42.235 24.064 41.192 23.802 42.242 23.568 42.235 24.064 42.235 24.064" fill="#0c0d0b"/>
        <polygon points="42.218 25.411 43.268 25.177 42.224 24.915 42.218 25.411 42.218 25.411" fill="#0c0d0b"/>
      </g>
      <g>
        <polygon points="42.235 26.727 41.192 26.465 42.242 26.231 42.235 26.727 42.235 26.727" fill="#0c0d0b"/>
        <polygon points="42.218 28.074 43.268 27.84 42.224 27.578 42.218 28.074 42.218 28.074" fill="#0c0d0b"/>
      </g>
      <g>
        <polygon points="42.235 29.358 41.192 29.096 42.242 28.862 42.235 29.358 42.235 29.358" fill="#0c0d0b"/>
        <polygon points="42.218 30.705 43.268 30.471 42.224 30.209 42.218 30.705 42.218 30.705" fill="#0c0d0b"/>
      </g>
      <g>
        <polygon points="43.819 30.334 43.558 31.377 43.323 30.327 43.819 30.334 43.819 30.334" fill="#0c0d0b"/>
        <polygon points="45.167 30.351 44.932 29.301 44.671 30.345 45.167 30.351 45.167 30.351" fill="#0c0d0b"/>
      </g>
      <g>
        <polygon points="46.454 30.334 46.192 31.377 45.958 30.327 46.454 30.334 46.454 30.334" fill="#0c0d0b"/>
        <polygon points="47.801 30.351 47.567 29.301 47.305 30.345 47.801 30.351 47.801 30.351" fill="#0c0d0b"/>
      </g>
      <g>
        <polygon points="49.104 30.334 48.843 31.377 48.608 30.327 49.104 30.334 49.104 30.334" fill="#0c0d0b"/>
        <polygon points="50.452 30.351 50.217 29.301 49.956 30.345 50.452 30.351 50.452 30.351" fill="#0c0d0b"/>
      </g>
      <g>
        <polygon points="51.708 30.334 51.446 31.377 51.212 30.327 51.708 30.334 51.708 30.334" fill="#0c0d0b"/>
        <polygon points="53.055 30.351 52.821 29.301 52.559 30.345 53.055 30.351 53.055 30.351" fill="#0c0d0b"/>
      </g>
      <g>
        <polygon points="54.316 30.334 54.054 31.377 53.82 30.327 54.316 30.334 54.316 30.334" fill="#0c0d0b"/>
        <polygon points="55.663 30.351 55.429 29.301 55.167 30.345 55.663 30.351 55.663 30.351" fill="#0c0d0b"/>
      </g>
      <g>
        <polygon points="56.983 30.334 56.721 31.377 56.487 30.327 56.983 30.334 56.983 30.334" fill="#0c0d0b"/>
        <polygon points="58.33 30.351 58.096 29.301 57.834 30.345 58.33 30.351 58.33 30.351" fill="#0c0d0b"/>
      </g>
      <g>
        <polygon points="57.705 28.494 58.749 28.756 57.698 28.99 57.705 28.494 57.705 28.494" fill="#0c0d0b"/>
        <polygon points="57.722 27.147 56.672 27.382 57.716 27.643 57.722 27.147 57.722 27.147" fill="#0c0d0b"/>
      </g>
      <g>
        <polygon points="57.705 25.855 58.749 26.116 57.698 26.351 57.705 25.855 57.705 25.855" fill="#0c0d0b"/>
        <polygon points="57.722 24.507 56.672 24.742 57.716 25.003 57.722 24.507 57.722 24.507" fill="#0c0d0b"/>
      </g>
      <g>
        <polygon points="57.705 23.248 58.749 23.51 57.698 23.744 57.705 23.248 57.705 23.248" fill="#0c0d0b"/>
        <polygon points="57.722 21.901 56.672 22.135 57.716 22.397 57.722 21.901 57.722 21.901" fill="#0c0d0b"/>
      </g>
      <g>
        <polygon points="57.705 20.614 58.749 20.876 57.698 21.11 57.705 20.614 57.705 20.614" fill="#0c0d0b"/>
        <polygon points="57.722 19.267 56.672 19.501 57.716 19.763 57.722 19.267 57.722 19.267" fill="#0c0d0b"/>
      </g>
      <g>
        <polygon points="59.008 19.316 58.747 20.359 58.512 19.309 59.008 19.316 59.008 19.316" fill="#0c0d0b"/>
        <polygon points="60.356 19.333 60.121 18.283 59.86 19.327 60.356 19.333 60.356 19.333" fill="#0c0d0b"/>
      </g>
      <g>
        <polygon points="61.636 19.316 61.374 20.359 61.14 19.309 61.636 19.316 61.636 19.316" fill="#0c0d0b"/>
        <polygon points="62.983 19.333 62.749 18.283 62.487 19.327 62.983 19.333 62.983 19.333" fill="#0c0d0b"/>
      </g>
      <g>
        <polygon points="64.126 19.226 65.17 19.487 64.12 19.722 64.126 19.226 64.126 19.226" fill="#0c0d0b"/>
        <polygon points="64.144 17.878 63.094 18.113 64.137 18.374 64.144 17.878 64.144 17.878" fill="#0c0d0b"/>
      </g>
      <g>
        <polygon points="64.126 16.593 65.17 16.854 64.12 17.089 64.126 16.593 64.126 16.593" fill="#0c0d0b"/>
        <polygon points="64.144 15.245 63.094 15.48 64.137 15.741 64.144 15.245 64.144 15.245" fill="#0c0d0b"/>
      </g>
      <g>
        <polygon points="64.126 13.929 65.17 14.191 64.12 14.425 64.126 13.929 64.126 13.929" fill="#0c0d0b"/>
        <polygon points="64.144 12.582 63.094 12.817 64.137 13.078 64.144 12.582 64.144 12.582" fill="#0c0d0b"/>
      </g>
      <g>
        <polygon points="64.126 11.341 65.17 11.603 64.12 11.837 64.126 11.341 64.126 11.341" fill="#0c0d0b"/>
        <polygon points="64.144 9.994 63.094 10.228 64.137 10.49 64.144 9.994 64.144 9.994" fill="#0c0d0b"/>
      </g>
      <g>
        <polygon points="64.126 8.729 65.17 8.991 64.12 9.225 64.126 8.729 64.126 8.729" fill="#0c0d0b"/>
        <polygon points="64.144 7.382 63.094 7.616 64.137 7.878 64.144 7.382 64.144 7.382" fill="#0c0d0b"/>
      </g>
    </g>
    <g>
      <polyline points="36.728 36.87 36.728 40.896 50.071 53.964 63.327 40.707 63.327 36.87" fill="none" stroke="#0c0d0b" stroke-linecap="round" stroke-miterlimit="10" stroke-width=".828"/>
      <g>
        <polygon points="36.706 37.297 37.743 37.601 36.679 37.795 36.706 37.297 36.706 37.297" fill="#0c0d0b"/>
        <polygon points="36.776 35.946 35.713 36.139 36.75 36.443 36.776 35.946 36.776 35.946" fill="#0c0d0b"/>
      </g>
      <g>
        <polygon points="36.706 38.455 37.743 38.759 36.679 38.953 36.706 38.455 36.706 38.455" fill="#0c0d0b"/>
        <polygon points="36.776 37.104 35.713 37.298 36.75 37.602 36.776 37.104 36.776 37.104" fill="#0c0d0b"/>
      </g>
      <g>
        <polygon points="36.706 39.666 37.743 39.97 36.679 40.164 36.706 39.666 36.706 39.666" fill="#0c0d0b"/>
        <polygon points="36.776 38.315 35.713 38.508 36.75 38.812 36.776 38.315 36.776 38.315" fill="#0c0d0b"/>
      </g>
      <g>
        <polygon points="36.706 40.787 37.743 41.091 36.679 41.284 36.706 40.787 36.706 40.787" fill="#0c0d0b"/>
        <polygon points="36.776 39.435 35.713 39.629 36.75 39.933 36.776 39.435 36.776 39.435" fill="#0c0d0b"/>
      </g>
      <g>
        <polygon points="37.436 41.62 38.378 41.092 37.773 41.987 37.436 41.62 37.436 41.62" fill="#0c0d0b"/>
        <polygon points="36.52 40.624 35.914 41.519 36.857 40.991 36.52 40.624 36.52 40.624" fill="#0c0d0b"/>
      </g>
      <g>
        <polygon points="38.274 42.442 39.217 41.913 38.611 42.808 38.274 42.442 38.274 42.442" fill="#0c0d0b"/>
        <polygon points="37.358 41.445 36.753 42.341 37.695 41.812 37.358 41.445 37.358 41.445" fill="#0c0d0b"/>
      </g>
      <g>
        <polygon points="39.116 43.267 40.059 42.738 39.454 43.633 39.116 43.267 39.116 43.267" fill="#0c0d0b"/>
        <polygon points="38.201 42.27 37.595 43.166 38.538 42.637 38.201 42.27 38.201 42.27" fill="#0c0d0b"/>
      </g>
      <g>
        <polygon points="39.944 44.078 40.887 43.549 40.282 44.444 39.944 44.078 39.944 44.078" fill="#0c0d0b"/>
        <polygon points="39.028 43.081 38.423 43.976 39.366 43.448 39.028 43.081 39.028 43.081" fill="#0c0d0b"/>
      </g>
      <g>
        <polygon points="40.768 44.884 41.711 44.355 41.105 45.251 40.768 44.884 40.768 44.884" fill="#0c0d0b"/>
        <polygon points="39.852 43.888 39.246 44.783 40.189 44.254 39.852 43.888 39.852 43.888" fill="#0c0d0b"/>
      </g>
      <g>
        <polygon points="41.601 45.7 42.544 45.172 41.938 46.067 41.601 45.7 41.601 45.7" fill="#0c0d0b"/>
        <polygon points="40.685 44.704 40.079 45.599 41.022 45.071 40.685 44.704 40.685 44.704" fill="#0c0d0b"/>
      </g>
      <g>
        <polygon points="42.449 46.53 43.392 46.002 42.786 46.897 42.449 46.53 42.449 46.53" fill="#0c0d0b"/>
        <polygon points="41.533 45.534 40.927 46.429 41.87 45.901 41.533 45.534 41.533 45.534" fill="#0c0d0b"/>
      </g>
      <g>
        <polygon points="43.285 47.35 44.228 46.821 43.623 47.716 43.285 47.35 43.285 47.35" fill="#0c0d0b"/>
        <polygon points="42.369 46.353 41.764 47.249 42.707 46.72 42.369 46.353 42.369 46.353" fill="#0c0d0b"/>
      </g>
      <g>
        <polygon points="44.078 48.126 45.021 47.597 44.415 48.492 44.078 48.126 44.078 48.126" fill="#0c0d0b"/>
        <polygon points="43.162 47.129 42.556 48.025 43.499 47.496 43.162 47.129 43.162 47.129" fill="#0c0d0b"/>
      </g>
      <g>
        <polygon points="44.913 48.944 45.856 48.416 45.25 49.311 44.913 48.944 44.913 48.944" fill="#0c0d0b"/>
        <polygon points="43.997 47.948 43.392 48.843 44.335 48.315 43.997 47.948 43.997 47.948" fill="#0c0d0b"/>
      </g>
      <g>
        <polygon points="45.762 49.775 46.704 49.246 46.099 50.142 45.762 49.775 45.762 49.775" fill="#0c0d0b"/>
        <polygon points="44.846 48.778 44.24 49.674 45.183 49.145 44.846 48.778 44.846 48.778" fill="#0c0d0b"/>
      </g>
      <g>
        <polygon points="46.595 50.591 47.538 50.063 46.932 50.958 46.595 50.591 46.595 50.591" fill="#0c0d0b"/>
        <polygon points="45.679 49.595 45.073 50.49 46.016 49.961 45.679 49.595 45.679 49.595" fill="#0c0d0b"/>
      </g>
      <g>
        <polygon points="47.418 51.398 48.361 50.869 47.756 51.764 47.418 51.398 47.418 51.398" fill="#0c0d0b"/>
        <polygon points="46.503 50.401 45.897 51.296 46.84 50.768 46.503 50.401 46.503 50.401" fill="#0c0d0b"/>
      </g>
      <g>
        <polygon points="48.246 52.208 49.188 51.679 48.583 52.574 48.246 52.208 48.246 52.208" fill="#0c0d0b"/>
        <polygon points="47.33 51.211 46.724 52.107 47.667 51.578 47.33 51.211 47.33 51.211" fill="#0c0d0b"/>
      </g>
      <g>
        <polygon points="49.088 53.032 50.031 52.504 49.425 53.399 49.088 53.032 49.088 53.032" fill="#0c0d0b"/>
        <polygon points="48.172 52.036 47.566 52.931 48.509 52.403 48.172 52.036 48.172 52.036" fill="#0c0d0b"/>
      </g>
      <g>
        <polygon points="49.926 53.853 50.869 53.325 50.263 54.22 49.926 53.853 49.926 53.853" fill="#0c0d0b"/>
        <polygon points="49.01 52.857 48.404 53.752 49.347 53.224 49.01 52.857 49.01 52.857" fill="#0c0d0b"/>
      </g>
      <g>
        <polygon points="50.727 53.339 50.209 52.39 51.097 53.005 50.727 53.339 50.727 53.339" fill="#0c0d0b"/>
        <polygon points="49.721 54.244 50.61 54.859 50.092 53.911 49.721 54.244 49.721 54.244" fill="#0c0d0b"/>
      </g>
      <g>
        <polygon points="51.559 52.506 51.041 51.558 51.93 52.173 51.559 52.506 51.559 52.506" fill="#0c0d0b"/>
        <polygon points="50.554 53.412 51.443 54.027 50.924 53.078 50.554 53.412 50.554 53.412" fill="#0c0d0b"/>
      </g>
      <g>
        <polygon points="52.394 51.672 51.875 50.723 52.764 51.338 52.394 51.672 52.394 51.672" fill="#0c0d0b"/>
        <polygon points="51.388 52.577 52.277 53.192 51.759 52.244 51.388 52.577 51.388 52.577" fill="#0c0d0b"/>
      </g>
      <g>
        <polygon points="53.241 50.824 52.723 49.876 53.612 50.491 53.241 50.824 53.241 50.824" fill="#0c0d0b"/>
        <polygon points="52.236 51.73 53.124 52.345 52.606 51.396 52.236 51.73 52.236 51.73" fill="#0c0d0b"/>
      </g>
      <g>
        <polygon points="54.032 50.034 53.513 49.086 54.402 49.701 54.032 50.034 54.032 50.034" fill="#0c0d0b"/>
        <polygon points="53.026 50.94 53.915 51.555 53.396 50.606 53.026 50.94 53.026 50.94" fill="#0c0d0b"/>
      </g>
      <g>
        <polygon points="54.856 49.21 54.337 48.262 55.226 48.877 54.856 49.21 54.856 49.21" fill="#0c0d0b"/>
        <polygon points="53.85 50.115 54.739 50.73 54.22 49.782 53.85 50.115 53.85 50.115" fill="#0c0d0b"/>
      </g>
      <g>
        <polygon points="55.691 48.374 55.173 47.426 56.062 48.041 55.691 48.374 55.691 48.374" fill="#0c0d0b"/>
        <polygon points="54.686 49.28 55.574 49.895 55.056 48.947 54.686 49.28 54.686 49.28" fill="#0c0d0b"/>
      </g>
      <g>
        <polygon points="56.526 47.54 56.007 46.592 56.896 47.207 56.526 47.54 56.526 47.54" fill="#0c0d0b"/>
        <polygon points="55.52 48.446 56.409 49.06 55.89 48.112 55.52 48.446 55.52 48.446" fill="#0c0d0b"/>
      </g>
      <g>
        <polygon points="57.311 46.755 56.792 45.807 57.681 46.422 57.311 46.755 57.311 46.755" fill="#0c0d0b"/>
        <polygon points="56.305 47.661 57.194 48.275 56.675 47.327 56.305 47.661 56.305 47.661" fill="#0c0d0b"/>
      </g>
      <g>
        <polygon points="58.131 45.935 57.612 44.987 58.501 45.601 58.131 45.935 58.131 45.935" fill="#0c0d0b"/>
        <polygon points="57.125 46.84 58.014 47.455 57.495 46.507 57.125 46.84 57.125 46.84" fill="#0c0d0b"/>
      </g>
      <g>
        <polygon points="58.974 45.092 58.455 44.144 59.344 44.759 58.974 45.092 58.974 45.092" fill="#0c0d0b"/>
        <polygon points="57.968 45.997 58.857 46.612 58.338 45.664 57.968 45.997 57.968 45.997" fill="#0c0d0b"/>
      </g>
      <g>
        <polygon points="59.799 44.267 59.28 43.318 60.169 43.933 59.799 44.267 59.799 44.267" fill="#0c0d0b"/>
        <polygon points="58.793 45.172 59.682 45.787 59.164 44.839 58.793 45.172 58.793 45.172" fill="#0c0d0b"/>
      </g>
      <g>
        <polygon points="60.616 43.45 60.098 42.501 60.986 43.116 60.616 43.45 60.616 43.45" fill="#0c0d0b"/>
        <polygon points="59.61 44.355 60.499 44.97 59.981 44.022 59.61 44.355 59.61 44.355" fill="#0c0d0b"/>
      </g>
      <g>
        <polygon points="61.429 42.636 60.911 41.688 61.8 42.303 61.429 42.636 61.429 42.636" fill="#0c0d0b"/>
        <polygon points="60.424 43.542 61.313 44.157 60.794 43.208 60.424 43.542 60.424 43.542" fill="#0c0d0b"/>
      </g>
      <g>
        <polygon points="62.262 41.804 61.743 40.856 62.632 41.471 62.262 41.804 62.262 41.804" fill="#0c0d0b"/>
        <polygon points="61.256 42.71 62.145 43.325 61.626 42.376 61.256 42.71 61.256 42.71" fill="#0c0d0b"/>
      </g>
      <g>
        <polygon points="63.108 40.957 62.59 40.009 63.479 40.624 63.108 40.957 63.108 40.957" fill="#0c0d0b"/>
        <polygon points="62.103 41.863 62.992 42.478 62.473 41.529 62.103 41.863 62.103 41.863" fill="#0c0d0b"/>
      </g>
      <g>
        <polygon points="63.349 39.952 62.312 39.648 63.375 39.455 63.349 39.952 63.349 39.952" fill="#0c0d0b"/>
        <polygon points="63.278 41.304 64.342 41.11 63.305 40.806 63.278 41.304 63.278 41.304" fill="#0c0d0b"/>
      </g>
      <g>
        <polygon points="63.349 38.765 62.312 38.461 63.375 38.267 63.349 38.765 63.349 38.765" fill="#0c0d0b"/>
        <polygon points="63.278 40.116 64.342 39.922 63.305 39.618 63.278 40.116 63.278 40.116" fill="#0c0d0b"/>
      </g>
      <g>
        <polygon points="63.349 37.602 62.312 37.298 63.375 37.104 63.349 37.602 63.349 37.602" fill="#0c0d0b"/>
        <polygon points="63.278 38.953 64.342 38.76 63.305 38.456 63.278 38.953 63.278 38.953" fill="#0c0d0b"/>
      </g>
      <g>
        <polygon points="63.349 36.443 62.312 36.139 63.375 35.946 63.349 36.443 63.349 36.443" fill="#0c0d0b"/>
        <polygon points="63.278 37.795 64.342 37.601 63.305 37.297 63.278 37.795 63.278 37.795" fill="#0c0d0b"/>
      </g>
    </g>
  </g>
  <g id="leaf">
    <path d="M69.194,10.386c-1.006-.134-2.049.079-2.924.575,0,0-.045.026-.045.026-.115.065-.194.157-.256.281-.083.167-.122.367-.153.564-.032.21-.057.451-.1.655-.047.221-.119.442-.288.581l-1.325.758-1.301-.744c-.181-.138-.256-.367-.305-.595-.043-.204-.068-.445-.1-.655-.03-.196-.07-.396-.153-.564-.062-.124-.141-.216-.256-.281,0,0-.045-.026-.045-.026-.875-.496-1.918-.709-2.924-.575-.217.03-.439.072-.65.143.044.218.118.431.201.634.387.938,1.093,1.735,1.96,2.245,0,0,.045.026.045.026.114.067.233.089.371.081.186-.012.379-.078.564-.15.198-.077.419-.177.617-.241.204-.066.42-.113.617-.052l1.357.777h0s0,0,0,0l1.348-.771c.201-.069.423-.021.632.047.198.065.419.164.617.241.185.072.378.138.564.15.138.008.258-.014.371-.081,0,0,.045-.026.045-.026.868-.51,1.573-1.306,1.96-2.245.083-.203.157-.416.201-.634-.211-.071-.433-.113-.65-.143Z" fill="#0c0d0b"/>
    <path d="M69.194,14.746c-1.006-.134-2.049.079-2.924.575,0,0-.045.026-.045.026-.115.065-.194.157-.256.281-.083.167-.122.367-.153.564-.032.21-.057.451-.1.655-.047.221-.119.442-.288.581l-1.325.758-1.301-.744c-.181-.138-.256-.367-.305-.595-.043-.204-.068-.445-.1-.655-.03-.196-.07-.396-.153-.564-.062-.124-.141-.216-.256-.281,0,0-.045-.026-.045-.026-.875-.496-1.918-.709-2.924-.575-.217.03-.439.072-.65.143.044.218.118.431.201.634.387.938,1.093,1.735,1.96,2.245,0,0,.045.026.045.026.114.067.233.089.371.081.186-.012.379-.078.564-.15.198-.077.419-.177.617-.241.204-.066.42-.113.617-.052l1.357.777h0s0,0,0,0l1.348-.771c.201-.069.423-.021.632.047.198.065.419.164.617.241.185.072.378.138.564.15.138.008.258-.014.371-.081,0,0,.045-.026.045-.026.868-.51,1.573-1.306,1.96-2.245.083-.203.157-.416.201-.634-.211-.071-.433-.113-.65-.143Z" fill="#0c0d0b"/>
    <path d="M40.98,10.386c-1.006-.134-2.049.079-2.924.575,0,0-.045.026-.045.026-.115.065-.194.157-.256.281-.083.167-.122.367-.153.564-.032.21-.057.451-.1.655-.047.221-.119.442-.288.581l-1.325.758-1.301-.744c-.181-.138-.256-.367-.305-.595-.043-.204-.068-.445-.1-.655-.03-.196-.07-.396-.153-.564-.062-.124-.141-.216-.256-.281,0,0-.045-.026-.045-.026-.875-.496-1.918-.709-2.924-.575-.217.03-.439.072-.65.143.044.218.118.431.201.634.387.938,1.093,1.735,1.96,2.245,0,0,.045.026.045.026.114.067.233.089.371.081.186-.012.379-.078.564-.15.198-.077.419-.177.617-.241.204-.066.42-.113.617-.052l1.357.777h0s0,0,0,0l1.348-.771c.201-.069.423-.021.632.047.198.065.419.164.617.241.185.072.378.138.564.15.138.008.258-.014.371-.081,0,0,.045-.026.045-.026.868-.51,1.573-1.306,1.96-2.245.083-.203.157-.416.201-.634-.211-.071-.433-.113-.65-.143Z" fill="#0c0d0b"/>
    <path d="M40.98,14.746c-1.006-.134-2.049.079-2.924.575,0,0-.045.026-.045.026-.115.065-.194.157-.256.281-.083.167-.122.367-.153.564-.032.21-.057.451-.1.655-.047.221-.119.442-.288.581l-1.325.758-1.301-.744c-.181-.138-.256-.367-.305-.595-.043-.204-.068-.445-.1-.655-.03-.196-.07-.396-.153-.564-.062-.124-.141-.216-.256-.281,0,0-.045-.026-.045-.026-.875-.496-1.918-.709-2.924-.575-.217.03-.439.072-.65.143.044.218.118.431.201.634.387.938,1.093,1.735,1.96,2.245,0,0,.045.026.045.026.114.067.233.089.371.081.186-.012.379-.078.564-.15.198-.077.419-.177.617-.241.204-.066.42-.113.617-.052l1.357.777h0s0,0,0,0l1.348-.771c.201-.069.423-.021.632.047.198.065.419.164.617.241.185.072.378.138.564.15.138.008.258-.014.371-.081,0,0,.045-.026.045-.026.868-.51,1.573-1.306,1.96-2.245.083-.203.157-.416.201-.634-.211-.071-.433-.113-.65-.143Z" fill="#0c0d0b"/>
    <path d="M54.972,14.287c-1.006-.134-2.049.079-2.924.575,0,0-.045.026-.045.026-.115.065-.194.157-.256.281-.083.167-.122.367-.153.564-.032.21-.057.451-.1.655-.047.221-.119.442-.288.581l-1.325.758-1.301-.744c-.181-.138-.256-.367-.305-.595-.043-.204-.068-.445-.1-.655-.03-.196-.07-.396-.153-.564-.062-.124-.141-.216-.256-.281,0,0-.045-.026-.045-.026-.875-.496-1.918-.709-2.924-.575-.217.03-.439.072-.65.143.044.218.118.431.201.634.387.938,1.093,1.735,1.96,2.245,0,0,.045.026.045.026.114.067.233.089.371.081.186-.012.379-.078.564-.15.198-.077.419-.177.617-.241.204-.066.42-.113.617-.052l1.357.777h0s0,0,0,0l1.348-.771c.201-.069.423-.021.632.047.198.065.419.164.617.241.185.072.378.138.564.15.138.008.258-.014.371-.081,0,0,.045-.026.045-.026.868-.51,1.573-1.306,1.96-2.245.083-.203.157-.416.201-.634-.211-.071-.433-.113-.65-.143Z" fill="#0c0d0b"/>
    <path d="M54.972,18.647c-1.006-.134-2.049.079-2.924.575,0,0-.045.026-.045.026-.115.065-.194.157-.256.281-.083.167-.122.367-.153.564-.032.21-.057.451-.1.655-.047.221-.119.442-.288.581l-1.325.758-1.301-.744c-.181-.138-.256-.367-.305-.595-.043-.204-.068-.445-.1-.655-.03-.196-.07-.396-.153-.564-.062-.124-.141-.216-.256-.281,0,0-.045-.026-.045-.026-.875-.496-1.918-.709-2.924-.575-.217.03-.439.072-.65.143.044.218.118.431.201.634.387.938,1.093,1.735,1.96,2.245,0,0,.045.026.045.026.114.067.233.089.371.081.186-.012.379-.078.564-.15.198-.077.419-.177.617-.241.204-.066.42-.113.617-.052l1.357.777h0s0,0,0,0l1.348-.771c.201-.069.423-.021.632.047.198.065.419.164.617.241.185.072.378.138.564.15.138.008.258-.014.371-.081,0,0,.045-.026.045-.026.868-.51,1.573-1.306,1.96-2.245.083-.203.157-.416.201-.634-.211-.071-.433-.113-.65-.143Z" fill="#0c0d0b"/>
    <path d="M46.241,26.355c-.805-.107-1.639.063-2.339.46,0,0-.036.02-.036.02-.092.052-.155.126-.205.225-.066.134-.098.294-.122.451-.026.168-.045.361-.08.524-.038.177-.096.354-.23.465l-1.06.607-1.04-.595c-.145-.11-.205-.293-.244-.476-.035-.163-.054-.356-.08-.524-.024-.157-.056-.317-.122-.451-.05-.099-.113-.173-.205-.225,0,0-.036-.02-.036-.02-.7-.397-1.534-.568-2.339-.46-.174.024-.351.058-.52.114.035.174.095.345.161.508.309.751.874,1.388,1.568,1.796,0,0,.036.021.036.021.091.054.187.071.297.065.149-.009.303-.062.451-.12.158-.062.335-.141.494-.193.163-.053.336-.09.493-.041l1.086.621h0s0,0,0,0l1.078-.617c.161-.055.338-.017.506.037.158.052.335.131.494.193.148.058.302.11.451.12.111.006.206-.011.297-.065,0,0,.036-.021.036-.021.694-.408,1.259-1.045,1.568-1.796.066-.163.126-.333.161-.508-.169-.057-.346-.09-.52-.114Z" fill="#0c0d0b"/>
    <path d="M46.241,23.143c-.805-.107-1.639.063-2.339.46,0,0-.036.02-.036.02-.092.052-.155.126-.205.225-.066.134-.098.294-.122.451-.026.168-.045.361-.08.524-.038.177-.096.354-.23.465l-1.06.607-1.04-.595c-.145-.11-.205-.293-.244-.476-.035-.163-.054-.356-.08-.524-.024-.157-.056-.317-.122-.451-.05-.099-.113-.173-.205-.225,0,0-.036-.02-.036-.02-.7-.397-1.534-.568-2.339-.46-.174.024-.351.058-.52.114.035.174.095.345.161.508.309.751.874,1.388,1.568,1.796,0,0,.036.021.036.021.091.054.187.071.297.065.149-.009.303-.062.451-.12.158-.062.335-.141.494-.193.163-.053.336-.09.493-.041l1.086.621h0s0,0,0,0l1.078-.617c.161-.055.338-.017.506.037.158.052.335.131.494.193.148.058.302.11.451.12.111.006.206-.011.297-.065,0,0,.036-.021.036-.021.694-.408,1.259-1.045,1.568-1.796.066-.163.126-.333.161-.508-.169-.057-.346-.09-.52-.114Z" fill="#0c0d0b"/>
    <path d="M61.783,26.355c-.805-.107-1.639.063-2.339.46,0,0-.036.02-.036.02-.092.052-.155.126-.205.225-.066.134-.098.294-.122.451-.026.168-.045.361-.08.524-.038.177-.096.354-.23.465l-1.06.607-1.04-.595c-.145-.11-.205-.293-.244-.476-.035-.163-.054-.356-.08-.524-.024-.157-.056-.317-.122-.451-.05-.099-.113-.173-.205-.225,0,0-.036-.02-.036-.02-.7-.397-1.534-.568-2.339-.46-.174.024-.351.058-.52.114.035.174.095.345.161.508.309.751.874,1.388,1.568,1.796,0,0,.036.021.036.021.091.054.187.071.297.065.149-.009.303-.062.451-.12.158-.062.335-.141.494-.193.163-.053.336-.09.493-.041l1.086.621h0s0,0,0,0l1.078-.617c.161-.055.338-.017.506.037.158.052.335.131.494.193.148.058.302.11.451.12.111.006.206-.011.297-.065,0,0,.036-.021.036-.021.694-.408,1.259-1.045,1.568-1.796.066-.163.126-.333.161-.508-.169-.057-.346-.09-.52-.114Z" fill="#0c0d0b"/>
    <path d="M61.783,23.143c-.805-.107-1.639.063-2.339.46,0,0-.036.02-.036.02-.092.052-.155.126-.205.225-.066.134-.098.294-.122.451-.026.168-.045.361-.08.524-.038.177-.096.354-.23.465l-1.06.607-1.04-.595c-.145-.11-.205-.293-.244-.476-.035-.163-.054-.356-.08-.524-.024-.157-.056-.317-.122-.451-.05-.099-.113-.173-.205-.225,0,0-.036-.02-.036-.02-.7-.397-1.534-.568-2.339-.46-.174.024-.351.058-.52.114.035.174.095.345.161.508.309.751.874,1.388,1.568,1.796,0,0,.036.021.036.021.091.054.187.071.297.065.149-.009.303-.062.451-.12.158-.062.335-.141.494-.193.163-.053.336-.09.493-.041l1.086.621h0s0,0,0,0l1.078-.617c.161-.055.338-.017.506.037.158.052.335.131.494.193.148.058.302.11.451.12.111.006.206-.011.297-.065,0,0,.036-.021.036-.021.694-.408,1.259-1.045,1.568-1.796.066-.163.126-.333.161-.508-.169-.057-.346-.09-.52-.114Z" fill="#0c0d0b"/>
    <path d="M54.972,33.792c-1.006-.134-2.049.079-2.924.575,0,0-.045.026-.045.026-.115.065-.194.157-.256.281-.083.167-.122.367-.153.564-.032.21-.057.451-.1.655-.047.221-.119.442-.288.581l-1.325.758-1.301-.744c-.181-.138-.256-.367-.305-.595-.043-.204-.068-.445-.1-.655-.03-.196-.07-.396-.153-.564-.062-.124-.141-.216-.256-.281,0,0-.045-.026-.045-.026-.875-.496-1.918-.709-2.924-.575-.217.03-.439.072-.65.143.044.218.118.431.201.634.387.938,1.093,1.735,1.96,2.245,0,0,.045.026.045.026.114.067.233.089.371.081.186-.012.379-.078.564-.15.198-.077.419-.177.617-.241.204-.066.42-.113.617-.052l1.357.777h0s0,0,0,0l1.348-.771c.201-.069.423-.021.632.047.198.065.419.164.617.241.185.072.378.138.564.15.138.008.258-.014.371-.081,0,0,.045-.026.045-.026.868-.51,1.573-1.306,1.96-2.245.083-.203.157-.416.201-.634-.211-.071-.433-.113-.65-.143Z" fill="#0c0d0b"/>
    <path d="M54.972,57.083c-1.006-.134-2.049.079-2.924.575,0,0-.045.026-.045.026-.115.065-.194.157-.256.281-.083.167-.122.367-.153.564-.032.21-.057.451-.1.655-.047.221-.119.442-.288.581l-1.325.758-1.301-.744c-.181-.138-.256-.367-.305-.595-.043-.204-.068-.445-.1-.655-.03-.196-.07-.396-.153-.564-.062-.124-.141-.216-.256-.281,0,0-.045-.026-.045-.026-.875-.496-1.918-.709-2.924-.575-.217.03-.439.072-.65.143.044.218.118.431.201.634.387.938,1.093,1.735,1.96,2.245,0,0,.045.026.045.026.114.067.233.089.371.081.186-.012.379-.078.564-.15.198-.077.419-.177.617-.241.204-.066.42-.113.617-.052l1.357.777h0s0,0,0,0l1.348-.771c.201-.069.423-.021.632.047.198.065.419.164.617.241.185.072.378.138.564.15.138.008.258-.014.371-.081,0,0,.045-.026.045-.026.868-.51,1.573-1.306,1.96-2.245.083-.203.157-.416.201-.634-.211-.071-.433-.113-.65-.143Z" fill="#0c0d0b"/>
    <path d="M42.368,39.187c-.806.617-1.393,1.504-1.661,2.474,0,0-.014.05-.014.05-.035.127-.026.248.018.38.06.177.173.346.291.506.126.171.279.359.393.534.123.19.228.397.207.614l-.401,1.473-1.446.393c-.225.031-.441-.078-.637-.205-.175-.114-.362-.267-.534-.393-.16-.118-.329-.231-.506-.291-.131-.044-.252-.053-.38-.018,0,0-.05.014-.05.014-.97.268-1.858.855-2.474,1.661-.133.175-.26.362-.359.561.185.123.389.221.591.306.937.39,1.999.454,2.973.201,0,0,.05-.013.05-.013.128-.033.228-.102.32-.205.124-.14.213-.323.293-.505.085-.195.172-.421.266-.607.098-.191.217-.377.399-.473l1.509-.41h0s.001,0,.001,0l.408-1.499c.093-.191.284-.314.48-.414.186-.094.412-.181.607-.266.182-.08.365-.17.505-.293.103-.092.172-.192.205-.32,0,0,.013-.05.013-.05.253-.974.189-2.036-.201-2.973-.085-.202-.183-.406-.306-.591-.199.099-.386.226-.561.359Z" fill="#0c0d0b"/>
    <path d="M47.302,44.006c-.806.617-1.393,1.504-1.661,2.474,0,0-.014.05-.014.05-.035.127-.026.248.018.38.06.177.173.346.291.506.126.171.279.359.393.534.123.19.228.397.207.614l-.401,1.473-1.446.393c-.225.031-.441-.078-.637-.205-.175-.114-.362-.267-.534-.393-.16-.118-.329-.231-.506-.291-.131-.044-.252-.053-.38-.018,0,0-.05.014-.05.014-.97.268-1.858.855-2.474,1.661-.133.175-.26.362-.359.561.185.123.389.221.591.306.937.39,1.999.454,2.973.201,0,0,.05-.013.05-.013.128-.033.228-.102.32-.205.124-.14.213-.323.293-.505.085-.195.172-.421.266-.607.098-.191.217-.377.399-.473l1.509-.41h0s.001,0,.001,0l.408-1.499c.093-.191.284-.314.48-.414.186-.094.412-.181.607-.266.182-.08.365-.17.505-.293.103-.092.172-.192.205-.32,0,0,.013-.05.013-.05.253-.974.189-2.036-.201-2.973-.085-.202-.183-.406-.306-.591-.199.099-.386.226-.561.359Z" fill="#0c0d0b"/>
    <path d="M57.618,39.187c.806.617,1.393,1.504,1.661,2.474,0,0,.014.05.014.05.035.127.026.248-.018.38-.06.177-.173.346-.291.506-.126.171-.279.359-.393.534-.123.19-.228.397-.207.614l.401,1.473,1.446.393c.225.031.441-.078.637-.205.175-.114.362-.267.534-.393.16-.118.329-.231.506-.291.131-.044.252-.053.38-.018,0,0,.05.014.05.014.97.268,1.858.855,2.474,1.661.133.175.26.362.359.561-.185.123-.389.221-.591.306-.937.39-1.999.454-2.973.201,0,0-.05-.013-.05-.013-.128-.033-.228-.102-.32-.205-.124-.14-.213-.323-.293-.505-.085-.195-.172-.421-.266-.607-.098-.191-.217-.377-.399-.473l-1.509-.41h0s-.001,0-.001,0l-.408-1.499c-.093-.191-.284-.314-.48-.414-.186-.094-.412-.181-.607-.266-.182-.08-.365-.17-.505-.293-.103-.092-.172-.192-.205-.32,0,0-.013-.05-.013-.05-.253-.974-.189-2.036.201-2.973.085-.202.183-.406.306-.591.199.099.386.226.561.359Z" fill="#0c0d0b"/>
    <path d="M52.684,44.006c.806.617,1.393,1.504,1.661,2.474,0,0,.014.05.014.05.035.127.026.248-.018.38-.06.177-.173.346-.291.506-.126.171-.279.359-.393.534-.123.19-.228.397-.207.614l.401,1.473,1.446.393c.225.031.441-.078.637-.205.175-.114.362-.267.534-.393.16-.118.329-.231.506-.291.131-.044.252-.053.38-.018,0,0,.05.014.05.014.97.268,1.858.855,2.474,1.661.133.175.26.362.359.561-.185.123-.389.221-.591.306-.937.39-1.999.454-2.973.201,0,0-.05-.013-.05-.013-.128-.033-.228-.102-.32-.205-.124-.14-.213-.323-.293-.505-.085-.195-.172-.421-.266-.607-.098-.191-.217-.377-.399-.473l-1.509-.41h0s-.001,0-.001,0l-.408-1.499c-.093-.191-.284-.314-.48-.414-.186-.094-.412-.181-.607-.266-.182-.08-.365-.17-.505-.293-.103-.092-.172-.192-.205-.32,0,0-.013-.05-.013-.05-.253-.974-.189-2.036.201-2.973.085-.202.183-.406.306-.591.199.099.386.226.561.359Z" fill="#0c0d0b"/>
  </g>
  <g id="flower">
    <g>
      <g>
        <ellipse cx="49.963" cy="1.04" rx="1.487" ry="1.041" fill="#0c0d0b"/>
        <path d="M53.803,7.953c-1.188-.547-2.634.196-3.342,1.209-.151.184-.288.473-.371.537v-1.133c.325-.927,1.354-1.337,2.406-1.705.72-.235,2.374-.693,2.089-1.667-.558-.814-1.894-.717-2.682-.204-.882.554-1.395,1.426-1.813,2.064v-1.477c.341-.823,1.209-1.231,2.376-1.645.494-.178.901-.163,1.151-.447,1.249-2.259-1.464-3.552-3.102-.17-.089.2-.326.627-.425.906v-1.713h-.255v2.23c-.258-.67-.712-2.201-1.445-2.482-1.244-.28-.909,1.181-.448,1.809.336.531.886,1.034,1.311,1.398.427.327.585.706.582,1.252-.006.17-.003.357,0,.549v.527c-.005.176-.016.346-.042.497-.039.067-.221-.07-.26-.123-.568-.928-1.164-2.336-1.89-3.251-.663-1-2.369-.217-1.641.948.429.765,1.239,1.178,1.927,1.745.477.467,1.58.952,1.907,1.603v.609c-.174.116-.538-.073-.774-.216-1.102-.725-5.878-4.048-5.525-.864.468,1.927,2.361,2.476,4.032,2.332,1.969-.042,4.352.086,5.88-.055,1.743-.503,2.207-2.236.355-3.06Z" fill="#0c0d0b"/>
      </g>
      <circle cx="49.963" cy="1.146" r=".467" fill="#cb1e1a"/>
    </g>
    <g>
      <g>
        <polygon points="65.28 33.832 63.377 35.735 63.377 35.145 63.377 35.139 63.377 28.711 63.345 28.711 63.345 35.107 61.445 33.207 61.423 33.23 63.345 35.152 63.345 38.59 63.348 38.59 63.348 39.215 63.38 39.215 63.38 35.776 65.302 33.854 65.28 33.832" fill="#0c0d0b"/>
        <circle cx="61.422" cy="33.166" r=".549" fill="#0c0d0b"/>
        <circle cx="63.361" cy="28.711" r=".686" fill="#0c0d0b"/>
        <circle cx="64.292" cy="30.883" r=".686" fill="#0c0d0b"/>
        <g>
          <circle cx="65.09" cy="34.106" r=".366" fill="#0c0d0b"/>
          <circle cx="65.228" cy="33.205" r=".366" fill="#0c0d0b"/>
          <circle cx="66.143" cy="34.086" r=".549" fill="#0c0d0b"/>
          <circle cx="66.42" cy="32.689" r=".686" fill="#0c0d0b"/>
        </g>
        <g>
          <circle cx="63.328" cy="36.776" r=".366" fill="#0c0d0b"/>
          <circle cx="63.466" cy="35.875" r=".366" fill="#0c0d0b"/>
          <circle cx="64.381" cy="36.756" r=".549" fill="#0c0d0b"/>
          <circle cx="64.658" cy="35.36" r=".686" fill="#0c0d0b"/>
        </g>
        <g>
          <circle cx="63.006" cy="33.818" r=".366" fill="#0c0d0b"/>
          <circle cx="63.145" cy="32.917" r=".366" fill="#0c0d0b"/>
          <circle cx="64.059" cy="33.797" r=".549" fill="#0c0d0b"/>
          <circle cx="64.336" cy="32.401" r=".686" fill="#0c0d0b"/>
        </g>
        <g>
          <circle cx="62.795" cy="30.859" r=".366" fill="#0c0d0b"/>
          <circle cx="62.656" cy="29.958" r=".366" fill="#0c0d0b"/>
          <circle cx="61.742" cy="30.839" r=".549" fill="#0c0d0b"/>
          <circle cx="61.465" cy="29.442" r=".686" fill="#0c0d0b"/>
        </g>
        <circle cx="62.562" cy="36.145" r=".366" fill="#0c0d0b"/>
        <circle cx="62.423" cy="35.244" r=".366" fill="#0c0d0b"/>
        <circle cx="62.292" cy="32.141" r=".366" fill="#0c0d0b"/>
        <circle cx="64.242" cy="29.592" r=".366" fill="#0c0d0b"/>
        <circle cx="65.594" cy="31.72" r=".366" fill="#0c0d0b"/>
        <circle cx="64.043" cy="38.003" r=".366" fill="#0c0d0b"/>
        <circle cx="63.322" cy="39.133" r=".366" fill="#0c0d0b"/>
        <circle cx="62.68" cy="37.637" r=".366" fill="#0c0d0b"/>
        <circle cx="62.059" cy="37.05" r=".366" fill="#0c0d0b"/>
        <circle cx="60.962" cy="32.141" r=".366" fill="#0c0d0b"/>
        <circle cx="61.509" cy="36.125" r=".549" fill="#0c0d0b"/>
        <circle cx="61.232" cy="34.728" r=".686" fill="#0c0d0b"/>
      </g>
      <circle cx="63.367" cy="28.714" r=".459" fill="#cb1e1a"/>
      <circle cx="61.474" cy="29.46" r=".459" fill="#cb1e1a"/>
      <circle cx="64.285" cy="30.894" r=".459" fill="#cb1e1a"/>
      <circle cx="61.244" cy="34.737" r=".459" fill="#cb1e1a"/>
      <circle cx="64.686" cy="35.368" r=".459" fill="#cb1e1a"/>
    </g>
    <g>
      <g>
        <polygon points="38.724 33.832 36.821 35.735 36.821 35.145 36.821 35.139 36.821 28.711 36.789 28.711 36.789 35.107 34.889 33.207 34.867 33.23 36.789 35.152 36.789 38.59 36.792 38.59 36.792 39.215 36.824 39.215 36.824 35.776 38.746 33.854 38.724 33.832" fill="#0c0d0b"/>
        <circle cx="34.866" cy="33.166" r=".549" fill="#0c0d0b"/>
        <circle cx="36.805" cy="28.711" r=".686" fill="#0c0d0b"/>
        <circle cx="37.736" cy="30.883" r=".686" fill="#0c0d0b"/>
        <g>
          <circle cx="38.534" cy="34.106" r=".366" fill="#0c0d0b"/>
          <circle cx="38.672" cy="33.205" r=".366" fill="#0c0d0b"/>
          <circle cx="39.587" cy="34.086" r=".549" fill="#0c0d0b"/>
          <circle cx="39.864" cy="32.689" r=".686" fill="#0c0d0b"/>
        </g>
        <g>
          <circle cx="36.772" cy="36.776" r=".366" fill="#0c0d0b"/>
          <circle cx="36.91" cy="35.875" r=".366" fill="#0c0d0b"/>
          <circle cx="37.825" cy="36.756" r=".549" fill="#0c0d0b"/>
          <circle cx="38.102" cy="35.36" r=".686" fill="#0c0d0b"/>
        </g>
        <g>
          <circle cx="36.45" cy="33.818" r=".366" fill="#0c0d0b"/>
          <circle cx="36.589" cy="32.917" r=".366" fill="#0c0d0b"/>
          <circle cx="37.503" cy="33.797" r=".549" fill="#0c0d0b"/>
          <circle cx="37.78" cy="32.401" r=".686" fill="#0c0d0b"/>
        </g>
        <g>
          <circle cx="36.239" cy="30.859" r=".366" fill="#0c0d0b"/>
          <circle cx="36.1" cy="29.958" r=".366" fill="#0c0d0b"/>
          <circle cx="35.186" cy="30.839" r=".549" fill="#0c0d0b"/>
          <circle cx="34.909" cy="29.442" r=".686" fill="#0c0d0b"/>
        </g>
        <circle cx="36.006" cy="36.145" r=".366" fill="#0c0d0b"/>
        <circle cx="35.867" cy="35.244" r=".366" fill="#0c0d0b"/>
        <circle cx="35.736" cy="32.141" r=".366" fill="#0c0d0b"/>
        <circle cx="37.686" cy="29.592" r=".366" fill="#0c0d0b"/>
        <circle cx="39.038" cy="31.72" r=".366" fill="#0c0d0b"/>
        <circle cx="37.487" cy="38.003" r=".366" fill="#0c0d0b"/>
        <circle cx="36.766" cy="39.133" r=".366" fill="#0c0d0b"/>
        <circle cx="36.124" cy="37.637" r=".366" fill="#0c0d0b"/>
        <circle cx="35.503" cy="37.05" r=".366" fill="#0c0d0b"/>
        <circle cx="34.406" cy="32.141" r=".366" fill="#0c0d0b"/>
        <circle cx="34.953" cy="36.125" r=".549" fill="#0c0d0b"/>
        <circle cx="34.676" cy="34.728" r=".686" fill="#0c0d0b"/>
      </g>
      <circle cx="36.811" cy="28.714" r=".459" fill="#cb1e1a"/>
      <circle cx="34.918" cy="29.46" r=".459" fill="#cb1e1a"/>
      <circle cx="37.729" cy="30.894" r=".459" fill="#cb1e1a"/>
      <circle cx="34.688" cy="34.737" r=".459" fill="#cb1e1a"/>
      <circle cx="38.13" cy="35.368" r=".459" fill="#cb1e1a"/>
    </g>
    <circle cx="35.893" cy="8.082" r="1.721" fill="#e53320"/>
    <circle cx="64.107" cy="8.082" r="1.721" fill="#e53320"/>
  </g>
</svg>