<?xml version="1.0" encoding="UTF-8"?>
<svg xmlns="http://www.w3.org/2000/svg" width="100" height="100" viewBox="0 0 100 100">
  <g id="Fondo">
    <circle cx="50.101" cy="80.234" r="9.894" fill="#cb1e1a" opacity=".33"/>
  </g>
  <g id="raices">
    <g>
      <path d="M50,88.966v3.787c0,.82-.509,1.553-1.278,1.838-1.61.597-4.361,1.912-5.984,2.526-.823.311-1.751.102-2.36-.532l-4.409-4.586c-.918-.955-2.506-.708-3.091.48l-3.471,7.049" fill="none" stroke="#0c0d0b" stroke-miterlimit="10" stroke-width=".207"/>
      <path d="M28.969,93.834c.102,0,2.572,2.367,4.041,3.784.529.51,1.401.354,1.721-.308l2.172-4.494c.451-.934,1.832-.756,2.031.262.397,2.029.936,4.513,1.225,5.828.116.526.601.885,1.137.843,1.346-.106,3.886-.308,5.852-.467.992-.08,1.356-1.347.557-1.942l-4.141-3.085c-.715-.533-.512-1.654.344-1.902l4.671-1.355c.461-.134.779-.556.779-1.037v-1.389" fill="none" stroke="#0c0d0b" stroke-miterlimit="10" stroke-width=".207"/>
      <path d="M50,89.113v3.787c0,.82.509,1.553,1.278,1.838,1.61.597,4.361,1.912,5.984,2.526.823.311,1.751.102,2.36-.532l4.409-4.586c.918-.955,2.506-.708,3.091.48l3.471,7.049" fill="none" stroke="#0c0d0b" stroke-miterlimit="10" stroke-width=".207"/>
      <path d="M71.031,93.98c-.102,0-2.572,2.367-4.041,3.784-.529.51-1.401.354-1.721-.308l-2.172-4.494c-.451-.934-1.832-.756-2.031.262-.397,2.029-.936,4.513-1.225,5.828-.116.526-.601.885-1.137.843-1.346-.106-3.886-.308-5.852-.467-.992-.08-1.356-1.347-.557-1.942l4.141-3.085c.715-.533.512-1.654-.344-1.902l-4.671-1.355c-.461-.134-.779-.556-.779-1.037v-1.389" fill="none" stroke="#0c0d0b" stroke-miterlimit="10" stroke-width=".207"/>
      <path d="M50,92.666l-9.804-4.314c-.626-.275-.894-1.015-.596-1.631.127-.262.255-.544.373-.812.262-.595-.183-1.26-.833-1.246-1.2.026-2.927.063-4.077.088-.692.015-1.253-.554-1.228-1.246l.064-1.801c.021-.586.461-1.071,1.042-1.149l.994-.134" fill="none" stroke="#0c0d0b" stroke-miterlimit="10" stroke-width=".207"/>
      <path d="M50.045,92.666l9.804-4.314c.626-.275.894-1.015.596-1.631-.127-.262-.255-.544-.373-.812-.262-.595.183-1.26.833-1.246,1.2.026,2.927.063,4.077.088.692.015,1.253-.554,1.228-1.246l-.064-1.801c-.021-.586-.461-1.071-1.042-1.149l-.994-.134" fill="none" stroke="#0c0d0b" stroke-miterlimit="10" stroke-width=".207"/>
      <path d="M30.575,82.443h9.712c.9,0,1.629.729,1.629,1.629v10.925c0,.238.052.473.153.689l.669,1.432" fill="none" stroke="#0c0d0b" stroke-miterlimit="10" stroke-width=".207"/>
      <path d="M68.881,82.443h-9.712c-.9,0-1.629.729-1.629,1.629v10.925c0,.238-.052.473-.153.689l-.669,1.432" fill="none" stroke="#0c0d0b" stroke-miterlimit="10" stroke-width=".207"/>
    </g>
  </g>
  <g id="semilla">
    <g>
      <circle cx="50" cy="80.421" r=".644" fill="#cb1f1b"/>
      <circle cx="50" cy="85.091" r=".644" fill="#e20613"/>
      <path d="M55.733,76.978c-.491-1.491-1.315-2.823-2.174-4.128-.12-.182-.246-.36-.376-.535-.128-.171-.264-.335-.397-.503.579,1.049,1.167,2.076,1.667,3.145,1.041,2.221,1.379,4.555.887,6.97-.402,1.975-1.217,3.757-2.761,5.118-.481.424-1.053.743-1.584,1.11-.02-.033-.039-.065-.058-.098,1.246-1.386,1.798-3.071,2.1-4.865.348-2.069-.127-4.028-.8-5.961-.517-1.486-1.088-2.956-1.527-4.465-.307-1.054-.43-2.162-.637-3.251v9.401c.733.038,1.316.642,1.316,1.385s-.583,1.347-1.316,1.385v1.859c.733.038,1.316.642,1.316,1.385s-.583,1.347-1.316,1.385v2.184c-.041,0-.082,0-.123,0v-2.183c-.743-.027-1.338-.636-1.338-1.386s.595-1.359,1.338-1.386v-1.856c-.743-.027-1.338-.636-1.338-1.386s.595-1.359,1.338-1.386v-10.525c-.034,0-.067-.001-.101-.002-.008.093-.012.187-.025.279-.222,1.544-.354,3.109-.696,4.626-.275,1.22-.794,2.387-1.223,3.571-.519,1.432-1.009,2.878-1.094,4.407-.133,2.385.649,4.524,1.911,6.511.111.174.256.327.385.49-.024.023-.049.046-.073.069-.56-.438-1.176-.821-1.671-1.323-2.362-2.401-3.191-5.337-2.838-8.628.231-2.157,1.159-4.066,2.274-5.894.048-.078.09-.16.135-.24-.458.491-.854,1.017-1.2,1.574-1.151,1.854-1.925,3.847-2.074,6.041-.153,2.254.366,4.356,1.596,6.26.864,1.337,2.035,2.316,3.615,2.665.562.124,1.11.098,1.103.882.041-.235.082-.471.122-.705.049-.017.087-.04.126-.041,1.827-.065,3.173-1.01,4.194-2.42,2.123-2.931,2.432-6.149,1.318-9.533Z" fill="#0c0c0c"/>
    </g>
  </g>
  <g id="suelo">
    <line x1="31.512" y1="67.384" x2="67.807" y2="67.384" fill="none" stroke="#0c0d0b" stroke-miterlimit="10" stroke-width="3.312"/>
    <line x1="31.512" y1="67.384" x2="67.807" y2="67.384" fill="none" stroke="#333" stroke-miterlimit="10" stroke-width="1.242"/>
  </g>
  <g id="Tallo">
    <g>
      <line x1="48.937" y1="65.72" x2="48.937" y2="1.136" fill="none" stroke="#0c0d0b" stroke-linecap="round" stroke-miterlimit="10" stroke-width=".828"/>
      <g>
        <polygon points="48.937 64.328 47.732 64.043 48.937 63.757 48.937 64.328 48.937 64.328" fill="#0c0d0b"/>
        <polygon points="48.937 65.878 50.141 65.593 48.937 65.307 48.937 65.878 48.937 65.878" fill="#0c0d0b"/>
      </g>
      <g>
        <polygon points="48.937 61.976 47.732 61.69 48.937 61.405 48.937 61.976 48.937 61.976" fill="#0c0d0b"/>
        <polygon points="48.937 63.526 50.141 63.24 48.937 62.955 48.937 63.526 48.937 63.526" fill="#0c0d0b"/>
      </g>
      <g>
        <polygon points="48.937 59.594 47.732 59.309 48.937 59.023 48.937 59.594 48.937 59.594" fill="#0c0d0b"/>
        <polygon points="48.937 61.144 50.141 60.859 48.937 60.573 48.937 61.144 48.937 61.144" fill="#0c0d0b"/>
      </g>
      <g>
        <polygon points="48.937 57.23 47.732 56.945 48.937 56.66 48.937 57.23 48.937 57.23" fill="#0c0d0b"/>
        <polygon points="48.937 58.78 50.141 58.495 48.937 58.21 48.937 58.78 48.937 58.78" fill="#0c0d0b"/>
      </g>
      <g>
        <polygon points="48.937 54.863 47.732 54.577 48.937 54.292 48.937 54.863 48.937 54.863" fill="#0c0d0b"/>
        <polygon points="48.937 56.413 50.141 56.127 48.937 55.842 48.937 56.413 48.937 56.413" fill="#0c0d0b"/>
      </g>
      <g>
        <polygon points="48.937 52.489 47.732 52.203 48.937 51.918 48.937 52.489 48.937 52.489" fill="#0c0d0b"/>
        <polygon points="48.937 54.039 50.141 53.753 48.937 53.468 48.937 54.039 48.937 54.039" fill="#0c0d0b"/>
      </g>
      <g>
        <polygon points="48.937 50.178 47.732 49.893 48.937 49.608 48.937 50.178 48.937 50.178" fill="#0c0d0b"/>
        <polygon points="48.937 51.728 50.141 51.443 48.937 51.158 48.937 51.728 48.937 51.728" fill="#0c0d0b"/>
      </g>
      <g>
        <polygon points="48.937 47.837 47.732 47.551 48.937 47.266 48.937 47.837 48.937 47.837" fill="#0c0d0b"/>
        <polygon points="48.937 49.387 50.141 49.101 48.937 48.816 48.937 49.387 48.937 49.387" fill="#0c0d0b"/>
      </g>
      <g>
        <polygon points="48.937 45.475 47.732 45.19 48.937 44.905 48.937 45.475 48.937 45.475" fill="#0c0d0b"/>
        <polygon points="48.937 47.025 50.141 46.74 48.937 46.455 48.937 47.025 48.937 47.025" fill="#0c0d0b"/>
      </g>
      <g>
        <polygon points="48.937 43.105 47.732 42.82 48.937 42.535 48.937 43.105 48.937 43.105" fill="#0c0d0b"/>
        <polygon points="48.937 44.655 50.141 44.37 48.937 44.085 48.937 44.655 48.937 44.655" fill="#0c0d0b"/>
      </g>
      <g>
        <polygon points="48.937 40.734 47.732 40.449 48.937 40.164 48.937 40.734 48.937 40.734" fill="#0c0d0b"/>
        <polygon points="48.937 42.284 50.141 41.999 48.937 41.714 48.937 42.284 48.937 42.284" fill="#0c0d0b"/>
      </g>
      <g>
        <polygon points="48.937 38.393 47.732 38.107 48.937 37.822 48.937 38.393 48.937 38.393" fill="#0c0d0b"/>
        <polygon points="48.937 39.943 50.141 39.657 48.937 39.372 48.937 39.943 48.937 39.943" fill="#0c0d0b"/>
      </g>
      <g>
        <polygon points="48.937 36.029 47.732 35.744 48.937 35.459 48.937 36.029 48.937 36.029" fill="#0c0d0b"/>
        <polygon points="48.937 37.58 50.141 37.294 48.937 37.009 48.937 37.58 48.937 37.58" fill="#0c0d0b"/>
      </g>
      <g>
        <polygon points="48.937 33.606 47.732 33.321 48.937 33.035 48.937 33.606 48.937 33.606" fill="#0c0d0b"/>
        <polygon points="48.937 35.156 50.141 34.871 48.937 34.585 48.937 35.156 48.937 35.156" fill="#0c0d0b"/>
      </g>
      <g>
        <polygon points="48.937 31.293 47.732 31.007 48.937 30.722 48.937 31.293 48.937 31.293" fill="#0c0d0b"/>
        <polygon points="48.937 32.843 50.141 32.557 48.937 32.272 48.937 32.843 48.937 32.843" fill="#0c0d0b"/>
      </g>
      <g>
        <polygon points="48.937 28.954 47.732 28.669 48.937 28.384 48.937 28.954 48.937 28.954" fill="#0c0d0b"/>
        <polygon points="48.937 30.504 50.141 30.219 48.937 29.934 48.937 30.504 48.937 30.504" fill="#0c0d0b"/>
      </g>
      <g>
        <polygon points="48.937 26.618 47.732 26.332 48.937 26.047 48.937 26.618 48.937 26.618" fill="#0c0d0b"/>
        <polygon points="48.937 28.168 50.141 27.882 48.937 27.597 48.937 28.168 48.937 28.168" fill="#0c0d0b"/>
      </g>
      <g>
        <polygon points="48.937 24.195 47.732 23.909 48.937 23.624 48.937 24.195 48.937 24.195" fill="#0c0d0b"/>
        <polygon points="48.937 25.745 50.141 25.459 48.937 25.174 48.937 25.745 48.937 25.745" fill="#0c0d0b"/>
      </g>
      <g>
        <polygon points="48.937 21.824 47.732 21.538 48.937 21.253 48.937 21.824 48.937 21.824" fill="#0c0d0b"/>
        <polygon points="48.937 23.374 50.141 23.088 48.937 22.803 48.937 23.374 48.937 23.374" fill="#0c0d0b"/>
      </g>
      <g>
        <polygon points="48.937 19.456 47.732 19.17 48.937 18.885 48.937 19.456 48.937 19.456" fill="#0c0d0b"/>
        <polygon points="48.937 21.006 50.141 20.72 48.937 20.435 48.937 21.006 48.937 21.006" fill="#0c0d0b"/>
      </g>
      <g>
        <polygon points="48.937 17.101 47.732 16.815 48.937 16.53 48.937 17.101 48.937 17.101" fill="#0c0d0b"/>
        <polygon points="48.937 18.651 50.141 18.365 48.937 18.08 48.937 18.651 48.937 18.651" fill="#0c0d0b"/>
      </g>
      <g>
        <polygon points="48.937 14.772 47.732 14.486 48.937 14.201 48.937 14.772 48.937 14.772" fill="#0c0d0b"/>
        <polygon points="48.937 16.322 50.141 16.036 48.937 15.751 48.937 16.322 48.937 16.322" fill="#0c0d0b"/>
      </g>
      <g>
        <polygon points="48.937 12.453 47.732 12.168 48.937 11.882 48.937 12.453 48.937 12.453" fill="#0c0d0b"/>
        <polygon points="48.937 14.003 50.141 13.718 48.937 13.432 48.937 14.003 48.937 14.003" fill="#0c0d0b"/>
      </g>
      <g>
        <polygon points="48.937 10.028 47.732 9.743 48.937 9.457 48.937 10.028 48.937 10.028" fill="#0c0d0b"/>
        <polygon points="48.937 11.578 50.141 11.293 48.937 11.007 48.937 11.578 48.937 11.578" fill="#0c0d0b"/>
      </g>
      <g>
        <polygon points="48.937 7.683 47.732 7.397 48.937 7.112 48.937 7.683 48.937 7.683" fill="#0c0d0b"/>
        <polygon points="48.937 9.233 50.141 8.947 48.937 8.662 48.937 9.233 48.937 9.233" fill="#0c0d0b"/>
      </g>
      <g>
        <polygon points="48.937 5.315 47.732 5.03 48.937 4.745 48.937 5.315 48.937 5.315" fill="#0c0d0b"/>
        <polygon points="48.937 6.865 50.141 6.58 48.937 6.295 48.937 6.865 48.937 6.865" fill="#0c0d0b"/>
      </g>
      <g>
        <polygon points="48.937 2.96 47.732 2.675 48.937 2.389 48.937 2.96 48.937 2.96" fill="#0c0d0b"/>
        <polygon points="48.937 4.51 50.141 4.225 48.937 3.939 48.937 4.51 48.937 4.51" fill="#0c0d0b"/>
      </g>
      <g>
        <polygon points="48.937 .647 47.732 .361 48.937 .076 48.937 .647 48.937 .647" fill="#0c0d0b"/>
        <polygon points="48.937 2.197 50.141 1.911 48.937 1.626 48.937 2.197 48.937 2.197" fill="#0c0d0b"/>
      </g>
    </g>
  </g>
  <g id="Hojas">
    <path d="M55.304,23.953c-.026-.126-.061-.251-.108-.372-.02-.056-.049-.119-.073-.173-.099-.207-.211-.385-.365-.574-.132-.155-.265-.293-.435-.424-.04.008-.122.027-.162.036-.328.079-.671.176-.977.273-.025.007-.072.023-.097.031-.089.029-.179.06-.266.092-.048.018-.101.038-.148.056-.302.124-.552.242-.76.452-.081.083-.145.18-.205.279-.212.345-.322.728-.456,1.123-.058.176-.125.359-.195.53-.063.149-.134.3-.212.442-.369.683-.976,1.214-1.747,1.372-.068.014-.137.027-.206.04-.069-.012-.137-.025-.206-.04-.77-.158-1.377-.688-1.747-1.372-.078-.141-.149-.293-.212-.442-.07-.171-.137-.355-.195-.53-.134-.395-.244-.778-.456-1.123-.06-.099-.124-.196-.205-.279-.208-.21-.457-.328-.76-.452-.047-.019-.1-.039-.148-.056-.087-.032-.177-.063-.266-.092-.024-.008-.071-.024-.097-.031-.306-.098-.649-.194-.977-.273-.04-.009-.122-.028-.162-.036-.17.131-.304.269-.435.424-.155.189-.267.367-.365.574-.024.054-.053.118-.073.173-.047.121-.083.246-.108.372-.106.512-.025,1.051.225,1.509.07.128.153.248.242.363.109.14.23.274.36.395.749.699,1.691.951,2.694.967.517.011,1.062-.036,1.571-.048.281-.006.563-.002.842.022.046.004.092.008.14.013.22,0,.45,0,.674,0,.049-.005.097-.01.144-.014.279-.024.561-.028.842-.022.51.011,1.054.059,1.571.048,1.004-.016,1.945-.267,2.694-.967.13-.121.251-.255.36-.395.089-.115.172-.235.242-.363.25-.458.331-.996.225-1.509Z" fill="#0c0d0b"/>
    <path d="M55.304,30.799c-.026-.126-.061-.251-.108-.372-.02-.056-.049-.119-.073-.173-.099-.207-.211-.385-.365-.574-.132-.155-.265-.293-.435-.424-.04.008-.122.027-.162.036-.328.079-.671.176-.977.273-.025.007-.072.023-.097.031-.089.029-.179.06-.266.092-.048.018-.101.038-.148.056-.302.124-.552.242-.76.452-.081.083-.145.18-.205.279-.212.345-.322.728-.456,1.123-.058.176-.125.359-.195.53-.063.149-.134.3-.212.442-.369.683-.976,1.214-1.747,1.372-.068.014-.137.027-.206.04-.069-.012-.137-.025-.206-.04-.77-.158-1.377-.688-1.747-1.372-.078-.141-.149-.293-.212-.442-.07-.171-.137-.355-.195-.53-.134-.395-.244-.778-.456-1.123-.06-.099-.124-.196-.205-.279-.208-.21-.457-.328-.76-.452-.047-.019-.1-.039-.148-.056-.087-.032-.177-.063-.266-.092-.024-.008-.071-.024-.097-.031-.306-.098-.649-.194-.977-.273-.04-.009-.122-.028-.162-.036-.17.131-.304.269-.435.424-.155.189-.267.367-.365.574-.024.054-.053.118-.073.173-.047.121-.083.246-.108.372-.106.512-.025,1.051.225,1.509.07.128.153.248.242.363.109.14.23.274.36.395.749.699,1.691.951,2.694.967.517.011,1.062-.036,1.571-.048.281-.006.563-.002.842.022.046.004.092.008.14.013.22,0,.45,0,.674,0,.049-.005.097-.01.144-.014.279-.024.561-.028.842-.022.51.011,1.054.059,1.571.048,1.004-.016,1.945-.267,2.694-.967.13-.121.251-.255.36-.395.089-.115.172-.235.242-.363.25-.458.331-.996.225-1.509Z" fill="#0c0d0b"/>
    <path d="M55.304,37.644c-.026-.126-.061-.251-.108-.372-.02-.056-.049-.119-.073-.173-.099-.207-.211-.385-.365-.574-.132-.155-.265-.293-.435-.424-.04.008-.122.027-.162.036-.328.079-.671.176-.977.273-.025.007-.072.023-.097.031-.089.029-.179.06-.266.092-.048.018-.101.038-.148.056-.302.124-.552.242-.76.452-.081.083-.145.18-.205.279-.212.345-.322.728-.456,1.123-.058.176-.125.359-.195.53-.063.149-.134.3-.212.442-.369.683-.976,1.214-1.747,1.372-.068.014-.137.027-.206.04-.069-.012-.137-.025-.206-.04-.77-.158-1.377-.688-1.747-1.372-.078-.141-.149-.293-.212-.442-.07-.171-.137-.355-.195-.53-.134-.395-.244-.778-.456-1.123-.06-.099-.124-.196-.205-.279-.208-.21-.457-.328-.76-.452-.047-.019-.1-.039-.148-.056-.087-.032-.177-.063-.266-.092-.024-.008-.071-.024-.097-.031-.306-.098-.649-.194-.977-.273-.04-.009-.122-.028-.162-.036-.17.131-.304.269-.435.424-.155.189-.267.367-.365.574-.024.054-.053.118-.073.173-.047.121-.083.246-.108.372-.106.512-.025,1.051.225,1.509.07.128.153.248.242.363.109.14.23.274.36.395.749.699,1.691.951,2.694.967.517.011,1.062-.036,1.571-.048.281-.006.563-.002.842.022.046.004.092.008.14.013.22,0,.45,0,.674,0,.049-.005.097-.01.144-.014.279-.024.561-.028.842-.022.51.011,1.054.059,1.571.048,1.004-.016,1.945-.267,2.694-.967.13-.121.251-.255.36-.395.089-.115.172-.235.242-.363.25-.458.331-.996.225-1.509Z" fill="#0c0d0b"/>
    <path d="M55.304,44.49c-.026-.126-.061-.251-.108-.372-.02-.056-.049-.119-.073-.173-.099-.207-.211-.385-.365-.574-.132-.155-.265-.293-.435-.424-.04.008-.122.027-.162.036-.328.079-.671.176-.977.273-.025.007-.072.023-.097.031-.089.029-.179.06-.266.092-.048.018-.101.038-.148.056-.302.124-.552.242-.76.452-.081.083-.145.18-.205.279-.212.345-.322.728-.456,1.123-.058.176-.125.359-.195.53-.063.149-.134.3-.212.442-.369.683-.976,1.214-1.747,1.372-.068.014-.137.027-.206.04-.069-.012-.137-.025-.206-.04-.77-.158-1.377-.688-1.747-1.372-.078-.141-.149-.293-.212-.442-.07-.171-.137-.355-.195-.53-.134-.395-.244-.778-.456-1.123-.06-.099-.124-.196-.205-.279-.208-.21-.457-.328-.76-.452-.047-.019-.1-.039-.148-.056-.087-.032-.177-.063-.266-.092-.024-.008-.071-.024-.097-.031-.306-.098-.649-.194-.977-.273-.04-.009-.122-.028-.162-.036-.17.131-.304.269-.435.424-.155.189-.267.367-.365.574-.024.054-.053.118-.073.173-.047.121-.083.246-.108.372-.106.512-.025,1.051.225,1.509.07.128.153.248.242.363.109.14.23.274.36.395.749.699,1.691.951,2.694.967.517.011,1.062-.036,1.571-.048.281-.006.563-.002.842.022.046.004.092.008.14.013.22,0,.45,0,.674,0,.049-.005.097-.01.144-.014.279-.024.561-.028.842-.022.51.011,1.054.059,1.571.048,1.004-.016,1.945-.267,2.694-.967.13-.121.251-.255.36-.395.089-.115.172-.235.242-.363.25-.458.331-.996.225-1.509Z" fill="#0c0d0b"/>
    <path d="M55.304,51.336c-.026-.126-.061-.251-.108-.372-.02-.056-.049-.119-.073-.173-.099-.207-.211-.385-.365-.574-.132-.155-.265-.293-.435-.424-.04.008-.122.027-.162.036-.328.079-.671.176-.977.273-.025.007-.072.023-.097.031-.089.029-.179.06-.266.092-.048.018-.101.038-.148.056-.302.124-.552.242-.76.452-.081.083-.145.18-.205.279-.212.345-.322.728-.456,1.123-.058.176-.125.359-.195.53-.063.149-.134.3-.212.442-.369.683-.976,1.214-1.747,1.372-.068.014-.137.027-.206.04-.069-.012-.137-.025-.206-.04-.77-.158-1.377-.688-1.747-1.372-.078-.141-.149-.293-.212-.442-.07-.171-.137-.355-.195-.53-.134-.395-.244-.778-.456-1.123-.06-.099-.124-.196-.205-.279-.208-.21-.457-.328-.76-.452-.047-.019-.1-.039-.148-.056-.087-.032-.177-.063-.266-.092-.024-.008-.071-.024-.097-.031-.306-.098-.649-.194-.977-.273-.04-.009-.122-.028-.162-.036-.17.131-.304.269-.435.424-.155.189-.267.367-.365.574-.024.054-.053.118-.073.173-.047.121-.083.246-.108.372-.106.512-.025,1.051.225,1.509.07.128.153.248.242.363.109.14.23.274.36.395.749.699,1.691.951,2.694.967.517.011,1.062-.036,1.571-.048.281-.006.563-.002.842.022.046.004.092.008.14.013.22,0,.45,0,.674,0,.049-.005.097-.01.144-.014.279-.024.561-.028.842-.022.51.011,1.054.059,1.571.048,1.004-.016,1.945-.267,2.694-.967.13-.121.251-.255.36-.395.089-.115.172-.235.242-.363.25-.458.331-.996.225-1.509Z" fill="#0c0d0b"/>
    <path d="M55.304,58.182c-.026-.126-.061-.251-.108-.372-.02-.056-.049-.119-.073-.173-.099-.207-.211-.385-.365-.574-.132-.155-.265-.293-.435-.424-.04.008-.122.027-.162.036-.328.079-.671.176-.977.273-.025.007-.072.023-.097.031-.089.029-.179.06-.266.092-.048.018-.101.038-.148.056-.302.124-.552.242-.76.452-.081.083-.145.18-.205.279-.212.345-.322.728-.456,1.123-.058.176-.125.359-.195.53-.063.149-.134.3-.212.442-.369.683-.976,1.214-1.747,1.372-.068.014-.137.027-.206.04-.069-.012-.137-.025-.206-.04-.77-.158-1.377-.688-1.747-1.372-.078-.141-.149-.293-.212-.442-.07-.171-.137-.355-.195-.53-.134-.395-.244-.778-.456-1.123-.06-.099-.124-.196-.205-.279-.208-.21-.457-.328-.76-.452-.047-.019-.1-.039-.148-.056-.087-.032-.177-.063-.266-.092-.024-.008-.071-.024-.097-.031-.306-.098-.649-.194-.977-.273-.04-.009-.122-.028-.162-.036-.17.131-.304.269-.435.424-.155.189-.267.367-.365.574-.024.054-.053.118-.073.173-.047.121-.083.246-.108.372-.106.512-.025,1.051.225,1.509.07.128.153.248.242.363.109.14.23.274.36.395.749.699,1.691.951,2.694.967.517.011,1.062-.036,1.571-.048.281-.006.563-.002.842.022.046.004.092.008.14.013.22,0,.45,0,.674,0,.049-.005.097-.01.144-.014.279-.024.561-.028.842-.022.51.011,1.054.059,1.571.048,1.004-.016,1.945-.267,2.694-.967.13-.121.251-.255.36-.395.089-.115.172-.235.242-.363.25-.458.331-.996.225-1.509Z" fill="#0c0d0b"/>
  </g>
  <g id="Flores">
    <g>
      <g>
        <polygon points="53.456 13.073 49.172 17.357 49.172 16.029 49.172 16.015 49.172 1.542 49.102 1.542 49.102 15.944 44.824 11.666 44.774 11.716 49.102 16.044 49.102 23.786 49.108 23.786 49.108 25.193 49.178 25.193 49.178 17.451 53.506 13.123 53.456 13.073" fill="#0c0d0b"/>
        <circle cx="44.771" cy="11.573" r="1.235" fill="#0c0d0b"/>
        <circle cx="49.137" cy="1.542" r="1.544" fill="#0c0d0b"/>
        <circle cx="51.233" cy="6.433" r="1.544" fill="#0c0d0b"/>
        <g>
          <circle cx="53.029" cy="13.689" r=".823" fill="#0c0d0b"/>
          <circle cx="53.341" cy="11.66" r=".823" fill="#0c0d0b"/>
          <circle cx="55.4" cy="13.644" r="1.235" fill="#0c0d0b"/>
          <circle cx="56.023" cy="10.5" r="1.544" fill="#0c0d0b"/>
        </g>
        <g>
          <circle cx="49.062" cy="19.702" r=".823" fill="#0c0d0b"/>
          <circle cx="49.374" cy="17.673" r=".823" fill="#0c0d0b"/>
          <circle cx="51.432" cy="19.657" r="1.235" fill="#0c0d0b"/>
          <circle cx="52.056" cy="16.513" r="1.544" fill="#0c0d0b"/>
        </g>
        <g>
          <circle cx="48.338" cy="13.04" r=".823" fill="#0c0d0b"/>
          <circle cx="48.65" cy="11.011" r=".823" fill="#0c0d0b"/>
          <circle cx="50.709" cy="12.995" r="1.235" fill="#0c0d0b"/>
          <circle cx="51.333" cy="9.851" r="1.544" fill="#0c0d0b"/>
        </g>
        <g>
          <circle cx="47.861" cy="6.378" r=".823" fill="#0c0d0b"/>
          <circle cx="47.549" cy="4.349" r=".823" fill="#0c0d0b"/>
          <circle cx="45.491" cy="6.333" r="1.235" fill="#0c0d0b"/>
          <circle cx="44.867" cy="3.189" r="1.544" fill="#0c0d0b"/>
        </g>
        <circle cx="47.337" cy="18.28" r=".823" fill="#0c0d0b"/>
        <circle cx="47.025" cy="16.251" r=".823" fill="#0c0d0b"/>
        <circle cx="46.729" cy="9.265" r=".823" fill="#0c0d0b"/>
        <circle cx="51.121" cy="3.526" r=".823" fill="#0c0d0b"/>
        <circle cx="54.165" cy="8.317" r=".823" fill="#0c0d0b"/>
        <circle cx="50.671" cy="22.464" r=".823" fill="#0c0d0b"/>
        <circle cx="49.05" cy="25.009" r=".823" fill="#0c0d0b"/>
        <circle cx="47.602" cy="21.64" r=".823" fill="#0c0d0b"/>
        <circle cx="46.205" cy="20.318" r=".823" fill="#0c0d0b"/>
        <circle cx="43.735" cy="9.265" r=".823" fill="#0c0d0b"/>
        <circle cx="44.967" cy="18.235" r="1.235" fill="#0c0d0b"/>
        <circle cx="44.343" cy="15.091" r="1.544" fill="#0c0d0b"/>
      </g>
      <circle cx="49.15" cy="1.549" r="1.033" fill="#cb1e1a"/>
      <circle cx="44.887" cy="3.228" r="1.033" fill="#cb1e1a"/>
      <circle cx="51.217" cy="6.457" r="1.033" fill="#cb1e1a"/>
      <circle cx="44.371" cy="15.111" r="1.033" fill="#cb1e1a"/>
      <circle cx="52.121" cy="16.532" r="1.033" fill="#cb1e1a"/>
    </g>
  </g>
</svg>