<?xml version="1.0" encoding="UTF-8"?>
<svg xmlns="http://www.w3.org/2000/svg" width="100" height="100" viewBox="0 0 100 100">
  <g id="Fondo">
    <circle cx="50.101" cy="80.234" r="9.894" fill="#cb1e1a" opacity=".33"/>
  </g>
  <g id="raices">
    <g>
      <path d="M50,88.966v3.787c0,.82-.509,1.553-1.278,1.838-1.61.597-4.361,1.912-5.984,2.526-.823.311-1.751.102-2.36-.532l-4.409-4.586c-.918-.955-2.506-.708-3.091.48l-3.471,7.049" fill="none" stroke="#0c0d0b" stroke-miterlimit="10" stroke-width=".207"/>
      <path d="M28.969,93.834c.102,0,2.572,2.367,4.041,3.784.529.51,1.401.354,1.721-.308l2.172-4.494c.451-.934,1.832-.756,2.031.262.397,2.029.936,4.513,1.225,5.828.116.526.601.885,1.137.843,1.346-.106,3.886-.308,5.852-.467.992-.08,1.356-1.347.557-1.942l-4.141-3.085c-.715-.533-.512-1.654.344-1.902l4.671-1.355c.461-.134.779-.556.779-1.037v-1.389" fill="none" stroke="#0c0d0b" stroke-miterlimit="10" stroke-width=".207"/>
      <path d="M50,89.113v3.787c0,.82.509,1.553,1.278,1.838,1.61.597,4.361,1.912,5.984,2.526.823.311,1.751.102,2.36-.532l4.409-4.586c.918-.955,2.506-.708,3.091.48l3.471,7.049" fill="none" stroke="#0c0d0b" stroke-miterlimit="10" stroke-width=".207"/>
      <path d="M71.031,93.98c-.102,0-2.572,2.367-4.041,3.784-.529.51-1.401.354-1.721-.308l-2.172-4.494c-.451-.934-1.832-.756-2.031.262-.397,2.029-.936,4.513-1.225,5.828-.116.526-.601.885-1.137.843-1.346-.106-3.886-.308-5.852-.467-.992-.08-1.356-1.347-.557-1.942l4.141-3.085c.715-.533.512-1.654-.344-1.902l-4.671-1.355c-.461-.134-.779-.556-.779-1.037v-1.389" fill="none" stroke="#0c0d0b" stroke-miterlimit="10" stroke-width=".207"/>
      <path d="M50,92.666l-9.804-4.314c-.626-.275-.894-1.015-.596-1.631.127-.262.255-.544.373-.812.262-.595-.183-1.26-.833-1.246-1.2.026-2.927.063-4.077.088-.692.015-1.253-.554-1.228-1.246l.064-1.801c.021-.586.461-1.071,1.042-1.149l.994-.134" fill="none" stroke="#0c0d0b" stroke-miterlimit="10" stroke-width=".207"/>
      <path d="M50.045,92.666l9.804-4.314c.626-.275.894-1.015.596-1.631-.127-.262-.255-.544-.373-.812-.262-.595.183-1.26.833-1.246,1.2.026,2.927.063,4.077.088.692.015,1.253-.554,1.228-1.246l-.064-1.801c-.021-.586-.461-1.071-1.042-1.149l-.994-.134" fill="none" stroke="#0c0d0b" stroke-miterlimit="10" stroke-width=".207"/>
      <path d="M30.575,82.443h9.712c.9,0,1.629.729,1.629,1.629v10.925c0,.238.052.473.153.689l.669,1.432" fill="none" stroke="#0c0d0b" stroke-miterlimit="10" stroke-width=".207"/>
      <path d="M68.881,82.443h-9.712c-.9,0-1.629.729-1.629,1.629v10.925c0,.238-.052.473-.153.689l-.669,1.432" fill="none" stroke="#0c0d0b" stroke-miterlimit="10" stroke-width=".207"/>
    </g>
  </g>
  <g id="semilla">
    <g>
      <circle cx="50.101" cy="80.421" r=".644" fill="#cb1f1b"/>
      <circle cx="50.101" cy="85.091" r=".644" fill="#e20613"/>
      <path d="M55.834,76.978c-.491-1.491-1.315-2.823-2.174-4.128-.12-.182-.246-.36-.376-.535-.128-.171-.264-.335-.397-.503.579,1.049,1.167,2.076,1.667,3.145,1.041,2.221,1.379,4.555.887,6.97-.402,1.975-1.217,3.757-2.761,5.118-.481.424-1.053.743-1.584,1.11-.02-.033-.039-.065-.058-.098,1.246-1.386,1.798-3.071,2.1-4.865.348-2.069-.127-4.028-.8-5.961-.517-1.486-1.088-2.956-1.527-4.465-.307-1.054-.43-2.162-.637-3.251v9.401c.733.038,1.316.642,1.316,1.385s-.583,1.347-1.316,1.385v1.859c.733.038,1.316.642,1.316,1.385s-.583,1.347-1.316,1.385v2.184c-.041,0-.082,0-.123,0v-2.183c-.743-.027-1.338-.636-1.338-1.386s.595-1.359,1.338-1.386v-1.856c-.743-.027-1.338-.636-1.338-1.386s.595-1.359,1.338-1.386v-10.525c-.034,0-.067-.001-.101-.002-.008.093-.012.187-.025.279-.222,1.544-.354,3.109-.696,4.626-.275,1.22-.794,2.387-1.223,3.571-.519,1.432-1.009,2.878-1.094,4.407-.133,2.385.649,4.524,1.911,6.511.111.174.256.327.385.49-.024.023-.049.046-.073.069-.56-.438-1.176-.821-1.671-1.323-2.362-2.401-3.191-5.337-2.838-8.628.231-2.157,1.159-4.066,2.274-5.894.048-.078.09-.16.135-.24-.458.491-.854,1.017-1.2,1.574-1.151,1.854-1.925,3.847-2.074,6.041-.153,2.254.366,4.356,1.596,6.26.864,1.337,2.035,2.316,3.615,2.665.562.124,1.11.098,1.103.882.041-.235.082-.471.122-.705.049-.017.087-.04.126-.041,1.827-.065,3.173-1.01,4.194-2.42,2.123-2.931,2.432-6.149,1.318-9.533Z" fill="#0c0c0c"/>
    </g>
  </g>
  <g id="suelo">
    <line x1="31.512" y1="67.384" x2="67.807" y2="67.384" fill="none" stroke="#0c0d0b" stroke-miterlimit="10" stroke-width="3.312"/>
    <line x1="31.512" y1="67.384" x2="67.807" y2="67.384" fill="none" stroke="#333" stroke-miterlimit="10" stroke-width="1.242"/>
  </g>
  <g id="Tallo">
    <g>
      <line x1="49.952" y1="65.72" x2="49.952" y2="3.441" fill="none" stroke="#0c0d0b" stroke-linecap="round" stroke-miterlimit="10" stroke-width=".828"/>
      <g>
        <polygon points="49.952 64.378 48.79 64.102 49.952 63.827 49.952 64.378 49.952 64.378" fill="#0c0d0b"/>
        <polygon points="49.952 65.872 51.114 65.597 49.952 65.322 49.952 65.872 49.952 65.872" fill="#0c0d0b"/>
      </g>
      <g>
        <polygon points="49.952 62.109 48.79 61.834 49.952 61.559 49.952 62.109 49.952 62.109" fill="#0c0d0b"/>
        <polygon points="49.952 63.604 51.114 63.329 49.952 63.054 49.952 63.604 49.952 63.604" fill="#0c0d0b"/>
      </g>
      <g>
        <polygon points="49.952 59.813 48.79 59.537 49.952 59.262 49.952 59.813 49.952 59.813" fill="#0c0d0b"/>
        <polygon points="49.952 61.307 51.114 61.032 49.952 60.757 49.952 61.307 49.952 61.307" fill="#0c0d0b"/>
      </g>
      <g>
        <polygon points="49.952 57.533 48.79 57.258 49.952 56.983 49.952 57.533 49.952 57.533" fill="#0c0d0b"/>
        <polygon points="49.952 59.028 51.114 58.753 49.952 58.478 49.952 59.028 49.952 59.028" fill="#0c0d0b"/>
      </g>
      <g>
        <polygon points="49.952 55.25 48.79 54.975 49.952 54.7 49.952 55.25 49.952 55.25" fill="#0c0d0b"/>
        <polygon points="49.952 56.745 51.114 56.47 49.952 56.194 49.952 56.745 49.952 56.745" fill="#0c0d0b"/>
      </g>
      <g>
        <polygon points="49.952 52.961 48.79 52.685 49.952 52.41 49.952 52.961 49.952 52.961" fill="#0c0d0b"/>
        <polygon points="49.952 54.455 51.114 54.18 49.952 53.905 49.952 54.455 49.952 54.455" fill="#0c0d0b"/>
      </g>
      <g>
        <polygon points="49.952 50.733 48.79 50.458 49.952 50.182 49.952 50.733 49.952 50.733" fill="#0c0d0b"/>
        <polygon points="49.952 52.227 51.114 51.952 49.952 51.677 49.952 52.227 49.952 52.227" fill="#0c0d0b"/>
      </g>
      <g>
        <polygon points="49.952 48.475 48.79 48.2 49.952 47.925 49.952 48.475 49.952 48.475" fill="#0c0d0b"/>
        <polygon points="49.952 49.97 51.114 49.694 49.952 49.419 49.952 49.97 49.952 49.97" fill="#0c0d0b"/>
      </g>
      <g>
        <polygon points="49.952 46.198 48.79 45.923 49.952 45.647 49.952 46.198 49.952 46.198" fill="#0c0d0b"/>
        <polygon points="49.952 47.692 51.114 47.417 49.952 47.142 49.952 47.692 49.952 47.692" fill="#0c0d0b"/>
      </g>
      <g>
        <polygon points="49.952 43.912 48.79 43.637 49.952 43.362 49.952 43.912 49.952 43.912" fill="#0c0d0b"/>
        <polygon points="49.952 45.407 51.114 45.132 49.952 44.857 49.952 45.407 49.952 45.407" fill="#0c0d0b"/>
      </g>
      <g>
        <polygon points="49.952 41.626 48.79 41.351 49.952 41.076 49.952 41.626 49.952 41.626" fill="#0c0d0b"/>
        <polygon points="49.952 43.121 51.114 42.845 49.952 42.57 49.952 43.121 49.952 43.121" fill="#0c0d0b"/>
      </g>
      <g>
        <polygon points="49.952 39.368 48.79 39.092 49.952 38.817 49.952 39.368 49.952 39.368" fill="#0c0d0b"/>
        <polygon points="49.952 40.862 51.114 40.587 49.952 40.312 49.952 40.862 49.952 40.862" fill="#0c0d0b"/>
      </g>
      <g>
        <polygon points="49.952 37.089 48.79 36.814 49.952 36.538 49.952 37.089 49.952 37.089" fill="#0c0d0b"/>
        <polygon points="49.952 38.584 51.114 38.308 49.952 38.033 49.952 38.584 49.952 38.584" fill="#0c0d0b"/>
      </g>
      <g>
        <polygon points="49.952 34.752 48.79 34.477 49.952 34.201 49.952 34.752 49.952 34.752" fill="#0c0d0b"/>
        <polygon points="49.952 36.246 51.114 35.971 49.952 35.696 49.952 36.246 49.952 36.246" fill="#0c0d0b"/>
      </g>
      <g>
        <polygon points="49.952 32.521 48.79 32.246 49.952 31.971 49.952 32.521 49.952 32.521" fill="#0c0d0b"/>
        <polygon points="49.952 34.016 51.114 33.741 49.952 33.465 49.952 34.016 49.952 34.016" fill="#0c0d0b"/>
      </g>
      <g>
        <polygon points="49.952 30.266 48.79 29.991 49.952 29.716 49.952 30.266 49.952 30.266" fill="#0c0d0b"/>
        <polygon points="49.952 31.761 51.114 31.486 49.952 31.21 49.952 31.761 49.952 31.761" fill="#0c0d0b"/>
      </g>
      <g>
        <polygon points="49.952 28.013 48.79 27.737 49.952 27.462 49.952 28.013 49.952 28.013" fill="#0c0d0b"/>
        <polygon points="49.952 29.507 51.114 29.232 49.952 28.957 49.952 29.507 49.952 29.507" fill="#0c0d0b"/>
      </g>
      <g>
        <polygon points="49.952 25.676 48.79 25.401 49.952 25.126 49.952 25.676 49.952 25.676" fill="#0c0d0b"/>
        <polygon points="49.952 27.171 51.114 26.896 49.952 26.621 49.952 27.171 49.952 27.171" fill="#0c0d0b"/>
      </g>
      <g>
        <polygon points="49.952 23.39 48.79 23.114 49.952 22.839 49.952 23.39 49.952 23.39" fill="#0c0d0b"/>
        <polygon points="49.952 24.884 51.114 24.609 49.952 24.334 49.952 24.884 49.952 24.884" fill="#0c0d0b"/>
      </g>
      <g>
        <polygon points="49.952 21.106 48.79 20.831 49.952 20.556 49.952 21.106 49.952 21.106" fill="#0c0d0b"/>
        <polygon points="49.952 22.601 51.114 22.326 49.952 22.051 49.952 22.601 49.952 22.601" fill="#0c0d0b"/>
      </g>
      <g>
        <polygon points="49.952 18.835 48.79 18.56 49.952 18.285 49.952 18.835 49.952 18.835" fill="#0c0d0b"/>
        <polygon points="49.952 20.33 51.114 20.055 49.952 19.78 49.952 20.33 49.952 20.33" fill="#0c0d0b"/>
      </g>
      <g>
        <polygon points="49.952 16.589 48.79 16.314 49.952 16.039 49.952 16.589 49.952 16.589" fill="#0c0d0b"/>
        <polygon points="49.952 18.084 51.114 17.809 49.952 17.534 49.952 18.084 49.952 18.084" fill="#0c0d0b"/>
      </g>
      <g>
        <polygon points="49.952 14.354 48.79 14.078 49.952 13.803 49.952 14.354 49.952 14.354" fill="#0c0d0b"/>
        <polygon points="49.952 15.848 51.114 15.573 49.952 15.298 49.952 15.848 49.952 15.848" fill="#0c0d0b"/>
      </g>
      <g>
        <polygon points="49.952 12.015 48.79 11.74 49.952 11.465 49.952 12.015 49.952 12.015" fill="#0c0d0b"/>
        <polygon points="49.952 13.51 51.114 13.235 49.952 12.959 49.952 13.51 49.952 13.51" fill="#0c0d0b"/>
      </g>
      <g>
        <polygon points="49.952 9.753 48.79 9.478 49.952 9.203 49.952 9.753 49.952 9.753" fill="#0c0d0b"/>
        <polygon points="49.952 11.248 51.114 10.973 49.952 10.698 49.952 11.248 49.952 11.248" fill="#0c0d0b"/>
      </g>
      <g>
        <polygon points="49.952 7.471 48.79 7.195 49.952 6.92 49.952 7.471 49.952 7.471" fill="#0c0d0b"/>
        <polygon points="49.952 8.965 51.114 8.69 49.952 8.415 49.952 8.965 49.952 8.965" fill="#0c0d0b"/>
      </g>
      <g>
        <polygon points="49.952 5.199 48.79 4.924 49.952 4.649 49.952 5.199 49.952 5.199" fill="#0c0d0b"/>
        <polygon points="49.952 6.694 51.114 6.419 49.952 6.144 49.952 6.694 49.952 6.694" fill="#0c0d0b"/>
      </g>
      <g>
        <polygon points="49.952 2.968 48.79 2.693 49.952 2.418 49.952 2.968 49.952 2.968" fill="#0c0d0b"/>
        <polygon points="49.952 4.463 51.114 4.188 49.952 3.913 49.952 4.463 49.952 4.463" fill="#0c0d0b"/>
      </g>
    </g>
    <g>
      <path d="M39.475,45.535v7.324c0,1.167.946,2.113,2.113,2.113h17.002c1.167,0,2.113-.946,2.113-2.113v-7.324" fill="none" stroke="#0c0d0b" stroke-linecap="round" stroke-miterlimit="10" stroke-width=".828"/>
      <g>
        <polygon points="39.486 46.86 38.331 46.558 39.498 46.31 39.486 46.86 39.486 46.86" fill="#0c0d0b"/>
        <polygon points="39.452 48.354 40.62 48.106 39.464 47.804 39.452 48.354 39.452 48.354" fill="#0c0d0b"/>
      </g>
      <g>
        <polygon points="39.486 48.853 38.331 48.551 39.498 48.303 39.486 48.853 39.486 48.853" fill="#0c0d0b"/>
        <polygon points="39.452 50.347 40.62 50.098 39.464 49.797 39.452 50.347 39.452 50.347" fill="#0c0d0b"/>
      </g>
      <g>
        <polygon points="39.486 50.931 38.331 50.629 39.498 50.38 39.486 50.931 39.486 50.931" fill="#0c0d0b"/>
        <polygon points="39.452 52.425 40.62 52.176 39.464 51.875 39.452 52.425 39.452 52.425" fill="#0c0d0b"/>
      </g>
      <g>
        <polygon points="39.436 52.968 38.242 52.987 39.301 52.435 39.436 52.968 39.436 52.968" fill="#0c0d0b"/>
        <polygon points="39.804 54.417 40.862 53.864 39.668 53.884 39.804 54.417 39.804 54.417" fill="#0c0d0b"/>
      </g>
      <g>
        <polygon points="40.416 54.667 39.733 55.645 39.904 54.464 40.416 54.667 40.416 54.667" fill="#0c0d0b"/>
        <polygon points="41.806 55.217 41.978 54.035 41.294 55.014 41.806 55.217 41.806 55.217" fill="#0c0d0b"/>
      </g>
      <g>
        <polygon points="42.369 54.96 42.067 56.115 41.819 54.948 42.369 54.96 42.369 54.96" fill="#0c0d0b"/>
        <polygon points="43.863 54.994 43.614 53.827 43.313 54.982 43.863 54.994 43.863 54.994" fill="#0c0d0b"/>
      </g>
      <g>
        <polygon points="44.387 54.96 44.086 56.115 43.837 54.948 44.387 54.96 44.387 54.96" fill="#0c0d0b"/>
        <polygon points="45.882 54.994 45.633 53.827 45.331 54.982 45.882 54.994 45.882 54.994" fill="#0c0d0b"/>
      </g>
      <g>
        <polygon points="46.453 54.96 46.151 56.115 45.903 54.948 46.453 54.96 46.453 54.96" fill="#0c0d0b"/>
        <polygon points="47.947 54.994 47.698 53.827 47.397 54.982 47.947 54.994 47.947 54.994" fill="#0c0d0b"/>
      </g>
      <g>
        <polygon points="48.519 54.96 48.218 56.115 47.969 54.948 48.519 54.96 48.519 54.96" fill="#0c0d0b"/>
        <polygon points="50.013 54.994 49.765 53.827 49.463 54.982 50.013 54.994 50.013 54.994" fill="#0c0d0b"/>
      </g>
      <g>
        <polygon points="50.488 54.96 50.187 56.115 49.938 54.948 50.488 54.96 50.488 54.96" fill="#0c0d0b"/>
        <polygon points="51.983 54.994 51.734 53.827 51.433 54.982 51.983 54.994 51.983 54.994" fill="#0c0d0b"/>
      </g>
      <g>
        <polygon points="52.555 54.96 52.253 56.115 52.004 54.948 52.555 54.96 52.555 54.96" fill="#0c0d0b"/>
        <polygon points="54.049 54.994 53.8 53.827 53.499 54.982 54.049 54.994 54.049 54.994" fill="#0c0d0b"/>
      </g>
      <g>
        <polygon points="54.566 54.96 54.264 56.115 54.016 54.948 54.566 54.96 54.566 54.96" fill="#0c0d0b"/>
        <polygon points="56.06 54.994 55.811 53.827 55.51 54.982 56.06 54.994 56.06 54.994" fill="#0c0d0b"/>
      </g>
      <g>
        <polygon points="56.623 54.96 56.322 56.115 56.073 54.948 56.623 54.96 56.623 54.96" fill="#0c0d0b"/>
        <polygon points="58.118 54.994 57.869 53.827 57.567 54.982 58.118 54.994 58.118 54.994" fill="#0c0d0b"/>
      </g>
      <g>
        <polygon points="58.647 55.012 58.637 56.206 58.11 55.134 58.647 55.012 58.647 55.012" fill="#0c0d0b"/>
        <polygon points="60.104 54.68 59.578 53.608 59.568 54.802 60.104 54.68 60.104 54.68" fill="#0c0d0b"/>
      </g>
      <g>
        <polygon points="60.369 54.073 61.331 54.78 60.154 54.58 60.369 54.073 60.369 54.073" fill="#0c0d0b"/>
        <polygon points="60.953 52.697 59.776 52.497 60.738 53.204 60.953 52.697 60.953 52.697" fill="#0c0d0b"/>
      </g>
      <g>
        <polygon points="60.692 52.086 61.847 52.388 60.679 52.636 60.692 52.086 60.692 52.086" fill="#0c0d0b"/>
        <polygon points="60.726 50.592 59.558 50.841 60.713 51.142 60.726 50.592 60.726 50.592" fill="#0c0d0b"/>
      </g>
      <g>
        <polygon points="60.692 50.048 61.847 50.349 60.679 50.598 60.692 50.048 60.692 50.048" fill="#0c0d0b"/>
        <polygon points="60.726 48.554 59.558 48.802 60.713 49.104 60.726 48.554 60.726 48.554" fill="#0c0d0b"/>
      </g>
      <g>
        <polygon points="60.692 48.028 61.847 48.33 60.679 48.578 60.692 48.028 60.692 48.028" fill="#0c0d0b"/>
        <polygon points="60.726 46.534 59.558 46.782 60.713 47.084 60.726 46.534 60.726 46.534" fill="#0c0d0b"/>
      </g>
      <g>
        <polygon points="60.692 46.007 61.847 46.308 60.679 46.557 60.692 46.007 60.692 46.007" fill="#0c0d0b"/>
        <polygon points="60.726 44.512 59.558 44.761 60.713 45.063 60.726 44.512 60.726 44.512" fill="#0c0d0b"/>
      </g>
    </g>
    <g>
      <path d="M37.268,22.424v7.711c0,.728.59,1.319,1.319,1.319h22.812c.83,0,1.503-.673,1.503-1.503v-7.527" fill="none" stroke="#0c0d0b" stroke-linecap="round" stroke-miterlimit="10" stroke-width=".828"/>
      <g>
        <polygon points="37.274 26.242 38.104 26.423 37.281 26.634 37.274 26.242 37.274 26.242" fill="#0c0d0b"/>
        <polygon points="37.255 25.179 36.433 25.389 37.262 25.57 37.255 25.179 37.255 25.179" fill="#0c0d0b"/>
      </g>
      <g>
        <polygon points="37.274 24.599 38.104 24.78 37.281 24.99 37.274 24.599 37.274 24.599" fill="#0c0d0b"/>
        <polygon points="37.255 23.536 36.433 23.746 37.262 23.927 37.255 23.536 37.255 23.536" fill="#0c0d0b"/>
      </g>
      <g>
        <polygon points="37.274 27.858 38.104 28.039 37.281 28.25 37.274 27.858 37.274 27.858" fill="#0c0d0b"/>
        <polygon points="37.255 26.795 36.433 27.006 37.262 27.187 37.255 26.795 37.255 26.795" fill="#0c0d0b"/>
      </g>
      <g>
        <polygon points="37.274 29.496 38.104 29.677 37.281 29.887 37.274 29.496 37.274 29.496" fill="#0c0d0b"/>
        <polygon points="37.255 28.433 36.433 28.643 37.262 28.824 37.255 28.433 37.255 28.433" fill="#0c0d0b"/>
      </g>
      <g>
        <polygon points="37.584 31.047 38.402 30.817 37.774 31.389 37.584 31.047 37.584 31.047" fill="#0c0d0b"/>
        <polygon points="37.069 30.116 36.441 30.688 37.259 30.459 37.069 30.116 37.069 30.116" fill="#0c0d0b"/>
      </g>
      <g>
        <polygon points="39.064 31.448 39.245 30.618 39.455 31.441 39.064 31.448 39.064 31.448" fill="#0c0d0b"/>
        <polygon points="38.001 31.467 38.211 32.29 38.392 31.46 38.001 31.467 38.001 31.467" fill="#0c0d0b"/>
      </g>
      <g>
        <polygon points="40.688 31.448 40.869 30.618 41.08 31.441 40.688 31.448 40.688 31.448" fill="#0c0d0b"/>
        <polygon points="39.625 31.467 39.836 32.29 40.017 31.46 39.625 31.467 39.625 31.467" fill="#0c0d0b"/>
      </g>
      <g>
        <polygon points="42.352 31.448 42.533 30.618 42.744 31.441 42.352 31.448 42.352 31.448" fill="#0c0d0b"/>
        <polygon points="41.289 31.467 41.499 32.29 41.68 31.46 41.289 31.467 41.289 31.467" fill="#0c0d0b"/>
      </g>
      <g>
        <polygon points="43.981 31.448 44.162 30.618 44.372 31.441 43.981 31.448 43.981 31.448" fill="#0c0d0b"/>
        <polygon points="42.917 31.467 43.128 32.29 43.309 31.46 42.917 31.467 42.917 31.467" fill="#0c0d0b"/>
      </g>
      <g>
        <polygon points="45.597 31.448 45.778 30.618 45.989 31.441 45.597 31.448 45.597 31.448" fill="#0c0d0b"/>
        <polygon points="44.534 31.467 44.744 32.29 44.925 31.46 44.534 31.467 44.534 31.467" fill="#0c0d0b"/>
      </g>
      <g>
        <polygon points="47.231 31.448 47.412 30.618 47.623 31.441 47.231 31.448 47.231 31.448" fill="#0c0d0b"/>
        <polygon points="46.168 31.467 46.379 32.29 46.56 31.46 46.168 31.467 46.168 31.467" fill="#0c0d0b"/>
      </g>
      <g>
        <polygon points="48.903 31.448 49.084 30.618 49.295 31.441 48.903 31.448 48.903 31.448" fill="#0c0d0b"/>
        <polygon points="47.84 31.467 48.051 32.29 48.232 31.46 47.84 31.467 47.84 31.467" fill="#0c0d0b"/>
      </g>
      <g>
        <polygon points="50.451 31.448 50.632 30.618 50.843 31.441 50.451 31.448 50.451 31.448" fill="#0c0d0b"/>
        <polygon points="49.388 31.467 49.598 32.29 49.779 31.46 49.388 31.467 49.388 31.467" fill="#0c0d0b"/>
      </g>
      <g>
        <polygon points="52.084 31.448 52.265 30.618 52.475 31.441 52.084 31.448 52.084 31.448" fill="#0c0d0b"/>
        <polygon points="51.021 31.467 51.231 32.29 51.412 31.46 51.021 31.467 51.021 31.467" fill="#0c0d0b"/>
      </g>
      <g>
        <polygon points="53.752 31.448 53.933 30.618 54.143 31.441 53.752 31.448 53.752 31.448" fill="#0c0d0b"/>
        <polygon points="52.689 31.467 52.899 32.29 53.08 31.46 52.689 31.467 52.689 31.467" fill="#0c0d0b"/>
      </g>
      <g>
        <polygon points="55.385 31.448 55.566 30.618 55.776 31.441 55.385 31.448 55.385 31.448" fill="#0c0d0b"/>
        <polygon points="54.321 31.467 54.532 32.29 54.713 31.46 54.321 31.467 54.321 31.467" fill="#0c0d0b"/>
      </g>
      <g>
        <polygon points="56.989 31.448 57.17 30.618 57.38 31.441 56.989 31.448 56.989 31.448" fill="#0c0d0b"/>
        <polygon points="55.926 31.467 56.136 32.29 56.317 31.46 55.926 31.467 55.926 31.467" fill="#0c0d0b"/>
      </g>
      <g>
        <polygon points="58.65 31.448 58.831 30.618 59.041 31.441 58.65 31.448 58.65 31.448" fill="#0c0d0b"/>
        <polygon points="57.587 31.467 57.797 32.29 57.978 31.46 57.587 31.467 57.587 31.467" fill="#0c0d0b"/>
      </g>
      <g>
        <polygon points="60.268 31.448 60.449 30.618 60.659 31.441 60.268 31.448 60.268 31.448" fill="#0c0d0b"/>
        <polygon points="59.204 31.467 59.415 32.29 59.596 31.46 59.204 31.467 59.204 31.467" fill="#0c0d0b"/>
      </g>
      <g>
        <polygon points="61.874 31.411 61.977 30.568 62.263 31.367 61.874 31.411 61.874 31.411" fill="#0c0d0b"/>
        <polygon points="60.817 31.528 61.102 32.327 61.206 31.484 60.817 31.528 60.817 31.528" fill="#0c0d0b"/>
      </g>
      <g>
        <polygon points="62.908 30.235 62.217 29.74 63.056 29.873 62.908 30.235 62.908 30.235" fill="#0c0d0b"/>
        <polygon points="62.504 31.219 63.343 31.351 62.652 30.856 62.504 31.219 62.504 31.219" fill="#0c0d0b"/>
      </g>
      <g>
        <polygon points="62.896 28.601 62.066 28.42 62.889 28.209 62.896 28.601 62.896 28.601" fill="#0c0d0b"/>
        <polygon points="62.915 29.664 63.738 29.454 62.908 29.273 62.915 29.664 62.915 29.664" fill="#0c0d0b"/>
      </g>
      <g>
        <polygon points="62.896 26.968 62.066 26.787 62.889 26.577 62.896 26.968 62.896 26.968" fill="#0c0d0b"/>
        <polygon points="62.915 28.031 63.738 27.821 62.908 27.64 62.915 28.031 62.915 28.031" fill="#0c0d0b"/>
      </g>
      <g>
        <polygon points="62.896 25.352 62.066 25.171 62.889 24.96 62.896 25.352 62.896 25.352" fill="#0c0d0b"/>
        <polygon points="62.915 26.415 63.738 26.204 62.908 26.023 62.915 26.415 62.915 26.415" fill="#0c0d0b"/>
      </g>
      <g>
        <polygon points="62.896 23.73 62.066 23.548 62.889 23.338 62.896 23.73 62.896 23.73" fill="#0c0d0b"/>
        <polygon points="62.915 24.793 63.738 24.582 62.908 24.401 62.915 24.793 62.915 24.793" fill="#0c0d0b"/>
      </g>
      <g>
        <polygon points="62.896 22.088 62.066 21.907 62.889 21.697 62.896 22.088 62.896 22.088" fill="#0c0d0b"/>
        <polygon points="62.915 23.151 63.738 22.941 62.908 22.76 62.915 23.151 62.915 23.151" fill="#0c0d0b"/>
      </g>
    </g>
  </g>
  <g id="Hojas">
    <path d="M55.431,10.076c-1.092-.146-2.224.086-3.174.624,0,0-.049.028-.049.028-.125.071-.21.171-.278.305-.09.182-.133.398-.166.612-.035.228-.061.49-.108.711-.051.24-.13.48-.312.631l-1.438.823-1.412-.808c-.196-.15-.278-.398-.332-.646-.047-.221-.073-.483-.108-.711-.033-.213-.076-.43-.166-.612-.067-.134-.153-.235-.278-.305,0,0-.049-.028-.049-.028-.95-.539-2.082-.77-3.174-.624-.236.032-.477.078-.706.155.048.237.129.468.219.689.42,1.019,1.186,1.883,2.128,2.437,0,0,.048.028.048.028.124.073.253.097.403.088.202-.013.412-.084.613-.162.215-.084.455-.192.67-.262.222-.072.456-.123.669-.056l1.473.843h0s0,0,0,0l1.463-.837c.218-.075.459-.023.687.051.215.07.455.178.67.262.201.078.41.15.613.162.15.009.28-.015.403-.088,0,0,.048-.028.048-.028.942-.554,1.708-1.418,2.128-2.437.09-.221.171-.452.219-.689-.229-.077-.47-.123-.706-.155Z" fill="#0c0d0b"/>
    <path d="M55.431,14.934c-1.092-.146-2.224.086-3.174.624,0,0-.049.028-.049.028-.125.071-.21.171-.278.305-.09.182-.133.398-.166.612-.035.228-.061.49-.108.711-.051.24-.13.48-.312.631l-1.438.823-1.412-.808c-.196-.15-.278-.398-.332-.646-.047-.221-.073-.483-.108-.711-.033-.213-.076-.43-.166-.612-.067-.134-.153-.235-.278-.305,0,0-.049-.028-.049-.028-.95-.539-2.082-.77-3.174-.624-.236.032-.477.078-.706.155.048.237.129.468.219.689.42,1.019,1.186,1.883,2.128,2.437,0,0,.048.028.048.028.124.073.253.097.403.088.202-.013.412-.084.613-.162.215-.084.455-.192.67-.262.222-.072.456-.123.669-.056l1.473.843h0s0,0,0,0l1.463-.837c.218-.075.459-.023.687.051.215.07.455.178.67.262.201.078.41.15.613.162.15.009.28-.015.403-.088,0,0,.048-.028.048-.028.942-.554,1.708-1.418,2.128-2.437.09-.221.171-.452.219-.689-.229-.077-.47-.123-.706-.155Z" fill="#0c0d0b"/>
    <path d="M55.431,19.791c-1.092-.146-2.224.086-3.174.624,0,0-.049.028-.049.028-.125.071-.21.171-.278.305-.09.182-.133.398-.166.612-.035.228-.061.49-.108.711-.051.24-.13.48-.312.631l-1.438.823-1.412-.808c-.196-.15-.278-.398-.332-.646-.047-.221-.073-.483-.108-.711-.033-.213-.076-.43-.166-.612-.067-.134-.153-.235-.278-.305,0,0-.049-.028-.049-.028-.95-.539-2.082-.77-3.174-.624-.236.032-.477.078-.706.155.048.237.129.468.219.689.42,1.019,1.186,1.883,2.128,2.437,0,0,.048.028.048.028.124.073.253.097.403.088.202-.013.412-.084.613-.162.215-.084.455-.192.67-.262.222-.072.456-.123.669-.056l1.473.843h0s0,0,0,0l1.463-.837c.218-.075.459-.023.687.051.215.07.455.178.67.262.201.078.41.15.613.162.15.009.28-.015.403-.088,0,0,.048-.028.048-.028.942-.554,1.708-1.418,2.128-2.437.09-.221.171-.452.219-.689-.229-.077-.47-.123-.706-.155Z" fill="#0c0d0b"/>
    <path d="M55.431,24.649c-1.092-.146-2.224.086-3.174.624,0,0-.049.028-.049.028-.125.071-.21.171-.278.305-.09.182-.133.398-.166.612-.035.228-.061.49-.108.711-.051.24-.13.48-.312.631l-1.438.823-1.412-.808c-.196-.15-.278-.398-.332-.646-.047-.221-.073-.483-.108-.711-.033-.213-.076-.43-.166-.612-.067-.134-.153-.235-.278-.305,0,0-.049-.028-.049-.028-.95-.539-2.082-.77-3.174-.624-.236.032-.477.078-.706.155.048.237.129.468.219.689.42,1.019,1.186,1.883,2.128,2.437,0,0,.048.028.048.028.124.073.253.097.403.088.202-.013.412-.084.613-.162.215-.084.455-.192.67-.262.222-.072.456-.123.669-.056l1.473.843h0s0,0,0,0l1.463-.837c.218-.075.459-.023.687.051.215.07.455.178.67.262.201.078.41.15.613.162.15.009.28-.015.403-.088,0,0,.048-.028.048-.028.942-.554,1.708-1.418,2.128-2.437.09-.221.171-.452.219-.689-.229-.077-.47-.123-.706-.155Z" fill="#0c0d0b"/>
    <path d="M67.222,27.3c-.874-.117-1.779.068-2.54.5,0,0-.039.022-.039.022-.1.056-.168.137-.222.244-.072.145-.106.319-.133.489-.028.183-.049.392-.087.569-.041.192-.104.384-.25.505l-1.151.658-1.13-.646c-.157-.12-.223-.318-.265-.517-.037-.177-.059-.386-.087-.569-.026-.171-.06-.344-.133-.489-.054-.107-.122-.188-.222-.244,0,0-.039-.022-.039-.022-.76-.431-1.666-.616-2.54-.5-.189.026-.381.063-.565.124.038.189.103.374.175.551.336.815.949,1.507,1.702,1.95,0,0,.039.023.039.023.099.058.203.078.323.07.162-.01.329-.067.49-.13.172-.067.364-.153.536-.21.177-.057.365-.098.536-.045l1.179.674h0s0,0,0,0l1.171-.67c.174-.06.367-.018.549.04.172.056.364.142.536.21.161.063.328.12.49.13.12.007.224-.012.323-.07,0,0,.039-.023.039-.023.753-.443,1.366-1.135,1.702-1.95.072-.177.136-.362.175-.551-.183-.061-.376-.098-.565-.124Z" fill="#0c0d0b"/>
    <path d="M41.614,27.3c-.874-.117-1.779.068-2.54.5,0,0-.039.022-.039.022-.1.056-.168.137-.222.244-.072.145-.106.319-.133.489-.028.183-.049.392-.087.569-.041.192-.104.384-.25.505l-1.151.658-1.13-.646c-.157-.12-.223-.318-.265-.517-.037-.177-.059-.386-.087-.569-.026-.171-.06-.344-.133-.489-.054-.107-.122-.188-.222-.244,0,0-.039-.022-.039-.022-.76-.431-1.666-.616-2.54-.5-.189.026-.381.063-.565.124.038.189.103.374.175.551.336.815.949,1.507,1.702,1.95,0,0,.039.023.039.023.099.058.203.078.323.07.162-.01.329-.067.49-.13.172-.067.364-.153.536-.21.177-.057.365-.098.536-.045l1.179.674h0s0,0,0,0l1.171-.67c.174-.06.367-.018.549.04.172.056.364.142.536.21.161.063.328.12.49.13.12.007.224-.012.323-.07,0,0,.039-.023.039-.023.753-.443,1.366-1.135,1.702-1.95.072-.177.136-.362.175-.551-.183-.061-.376-.098-.565-.124Z" fill="#0c0d0b"/>
    <path d="M55.431,34.863c-1.092-.146-2.224.086-3.174.624,0,0-.049.028-.049.028-.125.071-.21.171-.278.305-.09.182-.133.398-.166.612-.035.228-.061.49-.108.711-.051.24-.13.48-.312.631l-1.438.823-1.412-.808c-.196-.15-.278-.398-.332-.646-.047-.221-.073-.483-.108-.711-.033-.213-.076-.43-.166-.612-.067-.134-.153-.235-.278-.305,0,0-.049-.028-.049-.028-.95-.539-2.082-.77-3.174-.624-.236.032-.477.078-.706.155.048.237.129.468.219.689.42,1.019,1.186,1.883,2.128,2.437,0,0,.048.028.048.028.124.073.253.097.403.088.202-.013.412-.084.613-.162.215-.084.455-.192.67-.262.222-.072.456-.123.669-.056l1.473.843h0s0,0,0,0l1.463-.837c.218-.075.459-.023.687.051.215.07.455.178.67.262.201.078.41.15.613.162.15.009.28-.015.403-.088,0,0,.048-.028.048-.028.942-.554,1.708-1.418,2.128-2.437.09-.221.171-.452.219-.689-.229-.077-.47-.123-.706-.155Z" fill="#0c0d0b"/>
    <path d="M55.431,39.721c-1.092-.146-2.224.086-3.174.624,0,0-.049.028-.049.028-.125.071-.21.171-.278.305-.09.182-.133.398-.166.612-.035.228-.061.49-.108.711-.051.24-.13.48-.312.631l-1.438.823-1.412-.808c-.196-.15-.278-.398-.332-.646-.047-.221-.073-.483-.108-.711-.033-.213-.076-.43-.166-.612-.067-.134-.153-.235-.278-.305,0,0-.049-.028-.049-.028-.95-.539-2.082-.77-3.174-.624-.236.032-.477.078-.706.155.048.237.129.468.219.689.42,1.019,1.186,1.883,2.128,2.437,0,0,.048.028.048.028.124.073.253.097.403.088.202-.013.412-.084.613-.162.215-.084.455-.192.67-.262.222-.072.456-.123.669-.056l1.473.843h0s0,0,0,0l1.463-.837c.218-.075.459-.023.687.051.215.07.455.178.67.262.201.078.41.15.613.162.15.009.28-.015.403-.088,0,0,.048-.028.048-.028.942-.554,1.708-1.418,2.128-2.437.09-.221.171-.452.219-.689-.229-.077-.47-.123-.706-.155Z" fill="#0c0d0b"/>
    <path d="M55.431,44.579c-1.092-.146-2.224.086-3.174.624,0,0-.049.028-.049.028-.125.071-.21.171-.278.305-.09.182-.133.398-.166.612-.035.228-.061.49-.108.711-.051.24-.13.48-.312.631l-1.438.823-1.412-.808c-.196-.15-.278-.398-.332-.646-.047-.221-.073-.483-.108-.711-.033-.213-.076-.43-.166-.612-.067-.134-.153-.235-.278-.305,0,0-.049-.028-.049-.028-.95-.539-2.082-.77-3.174-.624-.236.032-.477.078-.706.155.048.237.129.468.219.689.42,1.019,1.186,1.883,2.128,2.437,0,0,.048.028.048.028.124.073.253.097.403.088.202-.013.412-.084.613-.162.215-.084.455-.192.67-.262.222-.072.456-.123.669-.056l1.473.843h0s0,0,0,0l1.463-.837c.218-.075.459-.023.687.051.215.07.455.178.67.262.201.078.41.15.613.162.15.009.28-.015.403-.088,0,0,.048-.028.048-.028.942-.554,1.708-1.418,2.128-2.437.09-.221.171-.452.219-.689-.229-.077-.47-.123-.706-.155Z" fill="#0c0d0b"/>
    <g>
      <path d="M42.18,49.574c.152,0,.274-.123.274-.274s-.123-.274-.274-.274-.274.123-.274.274.123.274.274.274Z"/>
      <path d="M43.643,48.587c.152,0,.274-.123.274-.274s-.123-.274-.274-.274-.274.123-.274.274.123.274.274.274Z"/>
      <circle cx="43.735" cy="49.849" r=".274"/>
      <path d="M42.107,51.111c.152,0,.274-.123.274-.274s-.123-.274-.274-.274-.274.123-.274.274.123.274.274.274Z"/>
      <path d="M45.564,49.574c-.033,0-.062.014-.082.037l-1.491-.426.4-.336c.04.037.102.04.145.004.047-.039.053-.108.014-.155-.039-.047-.108-.053-.155-.014-.036.03-.048.078-.033.12l-1.192,1c.005-.017.01-.034.015-.051.068-.25.111-.491.132-.738.041-.478-.013-.876-.057-1.195-.02-.147-.038-.278-.045-.399.008-.004.016-.009.023-.015.047-.039.053-.108.014-.155-.039-.047-.108-.053-.155-.014s-.053.108-.014.155c.021.025.05.038.08.039.007.12.025.25.045.395.043.317.097.711.057,1.183-.021.243-.064.482-.131.729-.007.027-.015.053-.023.08l-.8-1.152.243-.98s.007,0,.01,0c.152,0,.274-.123.274-.274s-.123-.274-.274-.274-.274.123-.274.274c0,.13.091.239.213.267l-.23.93-.267-.385c.03-.044.047-.097.047-.154,0-.152-.123-.274-.274-.274s-.274.123-.274.274.123.274.274.274c.075,0,.143-.03.193-.079l.285.41h0s0,.001,0,.001l.837,1.204c-.07.227-.16.46-.269.694-.284.609-.902.976-1.5,1.197v-1.563c.017-.004.034-.011.049-.023.047-.039.053-.108.014-.155-.039-.047-.108-.053-.155-.014s-.053.108-.014.155c.015.018.034.029.054.035v1.584c-.165.059-.328.106-.481.145-.391.098-.762.15-1.037.177-.016-.157-.147-.28-.308-.28s-.292.123-.308.28c-.276-.027-.647-.079-1.037-.177-.153-.039-.316-.086-.481-.145v-1.584c.02-.006.04-.018.054-.035.039-.047.033-.116-.014-.155s-.116-.033-.155.014c-.039.047-.033.116.014.155.015.012.031.02.049.023v1.563c-.598-.22-1.216-.588-1.5-1.197-.109-.234-.199-.467-.269-.694l.837-1.204h0s0-.001,0-.001l.285-.41c.05.049.118.079.193.079.152,0,.274-.123.274-.274s-.123-.274-.274-.274-.274.123-.274.274c0,.057.017.11.047.154l-.267.385-.23-.93c.122-.028.213-.137.213-.267,0-.152-.123-.274-.274-.274s-.274.123-.274.274.123.274.274.274c.003,0,.007,0,.01,0l.243.98-.8,1.152c-.008-.027-.016-.054-.023-.08-.067-.247-.11-.485-.131-.729-.041-.473.013-.867.057-1.183.02-.145.038-.275.045-.395.03-.001.059-.014.08-.039.039-.047.033-.116-.014-.155s-.116-.033-.155.014c-.039.047-.033.116.014.155.007.006.015.011.023.015-.007.12-.025.252-.045.399-.044.319-.098.716-.057,1.195.021.247.064.488.132.738.005.017.01.034.015.051l-1.192-1c.015-.042.003-.09-.033-.12-.047-.039-.116-.033-.155.014-.039.047-.033.116.014.155.043.036.106.033.145-.004l.4.336-1.491.426c-.02-.023-.049-.037-.082-.037-.061,0-.11.049-.11.11s.049.11.11.11.11-.049.11-.11c0-.009-.001-.017-.003-.026l1.514-.433.799.67c.071.231.162.467.273.704.38.814,1.334,1.204,2.068,1.389.395.099.77.151,1.048.178.011.162.144.291.309.291s.299-.129.309-.291c.278-.027.653-.079,1.048-.178.734-.185,1.689-.576,2.068-1.389.111-.238.202-.474.273-.704l.799-.67,1.514.433c-.002.008-.003.017-.003.026,0,.061.049.11.11.11s.11-.049.11-.11-.049-.11-.11-.11Z"/>
      <path d="M36.985,49.3c0-.152-.123-.274-.274-.274s-.274.123-.274.274.123.274.274.274.274-.123.274-.274Z"/>
      <path d="M35.248,48.587c.152,0,.274-.123.274-.274s-.123-.274-.274-.274-.274.123-.274.274.123.274.274.274Z"/>
      <circle cx="35.156" cy="49.849" r=".274"/>
      <path d="M36.784,51.111c.152,0,.274-.123.274-.274s-.123-.274-.274-.274-.274.123-.274.274.123.274.274.274Z"/>
    </g>
    <g>
      <path d="M63.479,49.325c.152,0,.274-.123.274-.274s-.123-.274-.274-.274-.274.123-.274.274.123.274.274.274Z"/>
      <path d="M64.943,48.337c.152,0,.274-.123.274-.274s-.123-.274-.274-.274-.274.123-.274.274.123.274.274.274Z"/>
      <circle cx="65.034" cy="49.599" r=".274"/>
      <path d="M63.406,50.862c.152,0,.274-.123.274-.274s-.123-.274-.274-.274-.274.123-.274.274.123.274.274.274Z"/>
      <path d="M66.863,49.325c-.033,0-.062.014-.082.037l-1.491-.426.4-.336c.04.037.102.04.145.004.047-.039.053-.108.014-.155-.039-.047-.108-.053-.155-.014-.036.03-.048.078-.033.12l-1.192,1c.005-.017.01-.034.015-.051.068-.25.111-.491.132-.738.041-.478-.013-.876-.057-1.195-.02-.147-.038-.278-.045-.399.008-.004.016-.009.023-.015.047-.039.053-.108.014-.155-.039-.047-.108-.053-.155-.014s-.053.108-.014.155c.021.025.05.038.08.039.007.12.025.25.045.395.043.317.097.711.057,1.183-.021.243-.064.482-.131.729-.007.027-.015.053-.023.08l-.8-1.152.243-.98s.007,0,.01,0c.152,0,.274-.123.274-.274s-.123-.274-.274-.274-.274.123-.274.274c0,.13.091.239.213.267l-.23.93-.267-.385c.03-.044.047-.097.047-.154,0-.152-.123-.274-.274-.274s-.274.123-.274.274.123.274.274.274c.075,0,.143-.03.193-.079l.285.41h0s0,.001,0,.001l.837,1.204c-.07.227-.16.46-.269.694-.284.609-.902.976-1.5,1.197v-1.563c.017-.004.034-.011.049-.023.047-.039.053-.108.014-.155-.039-.047-.108-.053-.155-.014s-.053.108-.014.155c.015.018.034.029.054.035v1.584c-.165.059-.328.106-.481.145-.391.098-.762.15-1.037.177-.016-.157-.147-.28-.308-.28s-.292.123-.308.28c-.276-.027-.647-.079-1.037-.177-.153-.039-.316-.086-.481-.145v-1.584c.02-.006.04-.018.054-.035.039-.047.033-.116-.014-.155s-.116-.033-.155.014c-.039.047-.033.116.014.155.015.012.031.02.049.023v1.563c-.598-.22-1.216-.588-1.5-1.197-.109-.234-.199-.467-.269-.694l.837-1.204h0s0-.001,0-.001l.285-.41c.05.049.118.079.193.079.152,0,.274-.123.274-.274s-.123-.274-.274-.274-.274.123-.274.274c0,.057.017.11.047.154l-.267.385-.23-.93c.122-.028.213-.137.213-.267,0-.152-.123-.274-.274-.274s-.274.123-.274.274.123.274.274.274c.003,0,.007,0,.01,0l.243.98-.8,1.152c-.008-.027-.016-.054-.023-.08-.067-.247-.11-.485-.131-.729-.041-.473.013-.867.057-1.183.02-.145.038-.275.045-.395.03-.001.059-.014.08-.039.039-.047.033-.116-.014-.155s-.116-.033-.155.014c-.039.047-.033.116.014.155.007.006.015.011.023.015-.007.12-.025.252-.045.399-.044.319-.098.716-.057,1.195.021.247.064.488.132.738.005.017.01.034.015.051l-1.192-1c.015-.042.003-.09-.033-.12-.047-.039-.116-.033-.155.014-.039.047-.033.116.014.155.043.036.106.033.145-.004l.4.336-1.491.426c-.02-.023-.049-.037-.082-.037-.061,0-.11.049-.11.11s.049.11.11.11.11-.049.11-.11c0-.009-.001-.017-.003-.026l1.514-.433.799.67c.071.231.162.467.273.704.38.814,1.334,1.204,2.068,1.389.395.099.77.151,1.048.178.011.162.144.291.309.291s.299-.129.309-.291c.278-.027.653-.079,1.048-.178.734-.185,1.689-.576,2.068-1.389.111-.238.202-.474.273-.704l.799-.67,1.514.433c-.002.008-.003.017-.003.026,0,.061.049.11.11.11s.11-.049.11-.11-.049-.11-.11-.11Z"/>
      <path d="M58.285,49.051c0-.152-.123-.274-.274-.274s-.274.123-.274.274.123.274.274.274.274-.123.274-.274Z"/>
      <path d="M56.547,48.337c.152,0,.274-.123.274-.274s-.123-.274-.274-.274-.274.123-.274.274.123.274.274.274Z"/>
      <circle cx="56.456" cy="49.599" r=".274"/>
      <path d="M58.084,50.862c.152,0,.274-.123.274-.274s-.123-.274-.274-.274-.274.123-.274.274.123.274.274.274Z"/>
    </g>
  </g>
  <g id="Flores">
    <g>
      <g>
        <polygon points="41.919 42.601 39.497 45.023 39.497 44.273 39.497 44.265 39.497 36.083 39.457 36.083 39.457 44.225 37.039 41.806 37.011 41.835 39.457 44.281 39.457 48.658 39.461 48.658 39.461 49.453 39.501 49.453 39.501 45.076 41.948 42.63 41.919 42.601" fill="#0c0d0b"/>
        <circle cx="37.009" cy="41.753" r=".698" fill="#0c0d0b"/>
        <circle cx="39.477" cy="36.083" r=".873" fill="#0c0d0b"/>
        <circle cx="40.662" cy="38.848" r=".873" fill="#0c0d0b"/>
        <g>
          <circle cx="41.678" cy="42.95" r=".465" fill="#0c0d0b"/>
          <circle cx="41.854" cy="41.803" r=".465" fill="#0c0d0b"/>
          <circle cx="43.018" cy="42.924" r=".698" fill="#0c0d0b"/>
          <circle cx="43.371" cy="41.147" r=".873" fill="#0c0d0b"/>
        </g>
        <g>
          <circle cx="39.435" cy="46.349" r=".465" fill="#0c0d0b"/>
          <circle cx="39.611" cy="45.202" r=".465" fill="#0c0d0b"/>
          <circle cx="40.775" cy="46.324" r=".698" fill="#0c0d0b"/>
          <circle cx="41.128" cy="44.546" r=".873" fill="#0c0d0b"/>
        </g>
        <g>
          <circle cx="39.026" cy="42.583" r=".465" fill="#0c0d0b"/>
          <circle cx="39.202" cy="41.436" r=".465" fill="#0c0d0b"/>
          <circle cx="40.366" cy="42.557" r=".698" fill="#0c0d0b"/>
          <circle cx="40.719" cy="40.78" r=".873" fill="#0c0d0b"/>
        </g>
        <g>
          <circle cx="38.756" cy="38.817" r=".465" fill="#0c0d0b"/>
          <circle cx="38.58" cy="37.67" r=".465" fill="#0c0d0b"/>
          <circle cx="37.416" cy="38.791" r=".698" fill="#0c0d0b"/>
          <circle cx="37.063" cy="37.014" r=".873" fill="#0c0d0b"/>
        </g>
        <circle cx="38.46" cy="45.545" r=".465" fill="#0c0d0b"/>
        <circle cx="38.284" cy="44.398" r=".465" fill="#0c0d0b"/>
        <circle cx="38.116" cy="40.449" r=".465" fill="#0c0d0b"/>
        <circle cx="40.599" cy="37.204" r=".465" fill="#0c0d0b"/>
        <circle cx="42.32" cy="39.913" r=".465" fill="#0c0d0b"/>
        <circle cx="40.345" cy="47.911" r=".465" fill="#0c0d0b"/>
        <circle cx="39.428" cy="49.349" r=".465" fill="#0c0d0b"/>
        <circle cx="38.61" cy="47.445" r=".465" fill="#0c0d0b"/>
        <circle cx="37.82" cy="46.697" r=".465" fill="#0c0d0b"/>
        <circle cx="36.424" cy="40.449" r=".465" fill="#0c0d0b"/>
        <circle cx="37.12" cy="45.52" r=".698" fill="#0c0d0b"/>
        <circle cx="36.767" cy="43.742" r=".873" fill="#0c0d0b"/>
      </g>
      <circle cx="39.485" cy="36.086" r=".584" fill="#cb1e1a"/>
      <circle cx="37.075" cy="37.036" r=".584" fill="#cb1e1a"/>
      <circle cx="40.653" cy="38.861" r=".584" fill="#cb1e1a"/>
      <circle cx="36.783" cy="43.754" r=".584" fill="#cb1e1a"/>
      <circle cx="41.164" cy="44.557" r=".584" fill="#cb1e1a"/>
    </g>
    <g>
      <g>
        <polygon points="63.096 42.601 60.674 45.023 60.674 44.273 60.674 44.265 60.674 36.083 60.634 36.083 60.634 44.225 58.216 41.806 58.188 41.835 60.634 44.281 60.634 48.658 60.638 48.658 60.638 49.453 60.678 49.453 60.678 45.076 63.125 42.63 63.096 42.601" fill="#0c0d0b"/>
        <circle cx="58.186" cy="41.753" r=".698" fill="#0c0d0b"/>
        <circle cx="60.654" cy="36.083" r=".873" fill="#0c0d0b"/>
        <circle cx="61.839" cy="38.848" r=".873" fill="#0c0d0b"/>
        <g>
          <circle cx="62.855" cy="42.95" r=".465" fill="#0c0d0b"/>
          <circle cx="63.031" cy="41.803" r=".465" fill="#0c0d0b"/>
          <circle cx="64.195" cy="42.924" r=".698" fill="#0c0d0b"/>
          <circle cx="64.548" cy="41.147" r=".873" fill="#0c0d0b"/>
        </g>
        <g>
          <circle cx="60.612" cy="46.349" r=".465" fill="#0c0d0b"/>
          <circle cx="60.788" cy="45.202" r=".465" fill="#0c0d0b"/>
          <circle cx="61.952" cy="46.324" r=".698" fill="#0c0d0b"/>
          <circle cx="62.305" cy="44.546" r=".873" fill="#0c0d0b"/>
        </g>
        <g>
          <circle cx="60.203" cy="42.583" r=".465" fill="#0c0d0b"/>
          <circle cx="60.379" cy="41.436" r=".465" fill="#0c0d0b"/>
          <circle cx="61.543" cy="42.557" r=".698" fill="#0c0d0b"/>
          <circle cx="61.896" cy="40.78" r=".873" fill="#0c0d0b"/>
        </g>
        <g>
          <circle cx="59.933" cy="38.817" r=".465" fill="#0c0d0b"/>
          <circle cx="59.757" cy="37.67" r=".465" fill="#0c0d0b"/>
          <circle cx="58.593" cy="38.791" r=".698" fill="#0c0d0b"/>
          <circle cx="58.24" cy="37.014" r=".873" fill="#0c0d0b"/>
        </g>
        <circle cx="59.637" cy="45.545" r=".465" fill="#0c0d0b"/>
        <circle cx="59.461" cy="44.398" r=".465" fill="#0c0d0b"/>
        <circle cx="59.293" cy="40.449" r=".465" fill="#0c0d0b"/>
        <circle cx="61.776" cy="37.204" r=".465" fill="#0c0d0b"/>
        <circle cx="63.497" cy="39.913" r=".465" fill="#0c0d0b"/>
        <circle cx="61.522" cy="47.911" r=".465" fill="#0c0d0b"/>
        <circle cx="60.605" cy="49.349" r=".465" fill="#0c0d0b"/>
        <circle cx="59.787" cy="47.445" r=".465" fill="#0c0d0b"/>
        <circle cx="58.997" cy="46.697" r=".465" fill="#0c0d0b"/>
        <circle cx="57.6" cy="40.449" r=".465" fill="#0c0d0b"/>
        <circle cx="58.297" cy="45.52" r=".698" fill="#0c0d0b"/>
        <circle cx="57.944" cy="43.742" r=".873" fill="#0c0d0b"/>
      </g>
      <circle cx="60.662" cy="36.086" r=".584" fill="#cb1e1a"/>
      <circle cx="58.252" cy="37.036" r=".584" fill="#cb1e1a"/>
      <circle cx="61.83" cy="38.861" r=".584" fill="#cb1e1a"/>
      <circle cx="57.96" cy="43.754" r=".584" fill="#cb1e1a"/>
      <circle cx="62.341" cy="44.557" r=".584" fill="#cb1e1a"/>
    </g>
    <g>
      <g>
        <polygon points="39.442 21.623 37.377 23.689 37.377 23.049 37.377 23.042 37.377 16.064 37.343 16.064 37.343 23.008 35.28 20.945 35.256 20.969 37.343 23.056 37.343 26.789 37.346 26.789 37.346 27.467 37.38 27.467 37.38 23.734 39.466 21.647 39.442 21.623" fill="#0c0d0b"/>
        <circle cx="35.254" cy="20.9" r=".596" fill="#0c0d0b"/>
        <circle cx="37.36" cy="16.064" r=".744" fill="#0c0d0b"/>
        <circle cx="38.37" cy="18.422" r=".744" fill="#0c0d0b"/>
        <g>
          <circle cx="39.236" cy="21.92" r=".397" fill="#0c0d0b"/>
          <circle cx="39.387" cy="20.942" r=".397" fill="#0c0d0b"/>
          <circle cx="40.379" cy="21.898" r=".596" fill="#0c0d0b"/>
          <circle cx="40.68" cy="20.383" r=".744" fill="#0c0d0b"/>
        </g>
        <g>
          <circle cx="37.323" cy="24.82" r=".397" fill="#0c0d0b"/>
          <circle cx="37.474" cy="23.841" r=".397" fill="#0c0d0b"/>
          <circle cx="38.466" cy="24.798" r=".596" fill="#0c0d0b"/>
          <circle cx="38.767" cy="23.282" r=".744" fill="#0c0d0b"/>
        </g>
        <g>
          <circle cx="36.975" cy="21.608" r=".397" fill="#0c0d0b"/>
          <circle cx="37.125" cy="20.629" r=".397" fill="#0c0d0b"/>
          <circle cx="38.118" cy="21.586" r=".596" fill="#0c0d0b"/>
          <circle cx="38.418" cy="20.07" r=".744" fill="#0c0d0b"/>
        </g>
        <g>
          <circle cx="36.745" cy="18.395" r=".397" fill="#0c0d0b"/>
          <circle cx="36.594" cy="17.417" r=".397" fill="#0c0d0b"/>
          <circle cx="35.602" cy="18.374" r=".596" fill="#0c0d0b"/>
          <circle cx="35.301" cy="16.858" r=".744" fill="#0c0d0b"/>
        </g>
        <circle cx="36.492" cy="24.134" r=".397" fill="#0c0d0b"/>
        <circle cx="36.341" cy="23.156" r=".397" fill="#0c0d0b"/>
        <circle cx="36.199" cy="19.787" r=".397" fill="#0c0d0b"/>
        <circle cx="38.316" cy="17.02" r=".397" fill="#0c0d0b"/>
        <circle cx="39.784" cy="19.33" r=".397" fill="#0c0d0b"/>
        <circle cx="38.099" cy="26.151" r=".397" fill="#0c0d0b"/>
        <circle cx="37.318" cy="27.378" r=".397" fill="#0c0d0b"/>
        <circle cx="36.62" cy="25.754" r=".397" fill="#0c0d0b"/>
        <circle cx="35.946" cy="25.117" r=".397" fill="#0c0d0b"/>
        <circle cx="34.755" cy="19.787" r=".397" fill="#0c0d0b"/>
        <circle cx="35.349" cy="24.112" r=".596" fill="#0c0d0b"/>
        <circle cx="35.048" cy="22.596" r=".744" fill="#0c0d0b"/>
      </g>
      <circle cx="37.366" cy="16.067" r=".498" fill="#cb1e1a"/>
      <circle cx="35.311" cy="16.876" r=".498" fill="#cb1e1a"/>
      <circle cx="38.362" cy="18.433" r=".498" fill="#cb1e1a"/>
      <circle cx="35.062" cy="22.606" r=".498" fill="#cb1e1a"/>
      <circle cx="38.798" cy="23.291" r=".498" fill="#cb1e1a"/>
    </g>
    <g>
      <g>
        <polygon points="52.131 6.302 50.066 8.368 50.066 7.728 50.066 7.721 50.066 .743 50.031 .743 50.031 7.687 47.969 5.624 47.945 5.648 50.031 7.735 50.031 11.468 50.034 11.468 50.034 12.146 50.069 12.146 50.069 8.413 52.155 6.327 52.131 6.302" fill="#0c0d0b"/>
        <circle cx="47.943" cy="5.579" r=".596" fill="#0c0d0b"/>
        <circle cx="50.049" cy=".743" r=".744" fill="#0c0d0b"/>
        <circle cx="51.059" cy="3.101" r=".744" fill="#0c0d0b"/>
        <g>
          <circle cx="51.925" cy="6.6" r=".397" fill="#0c0d0b"/>
          <circle cx="52.076" cy="5.621" r=".397" fill="#0c0d0b"/>
          <circle cx="53.068" cy="6.578" r=".596" fill="#0c0d0b"/>
          <circle cx="53.369" cy="5.062" r=".744" fill="#0c0d0b"/>
        </g>
        <g>
          <circle cx="50.012" cy="9.499" r=".397" fill="#0c0d0b"/>
          <circle cx="50.163" cy="8.521" r=".397" fill="#0c0d0b"/>
          <circle cx="51.155" cy="9.477" r=".596" fill="#0c0d0b"/>
          <circle cx="51.456" cy="7.961" r=".744" fill="#0c0d0b"/>
        </g>
        <g>
          <circle cx="49.663" cy="6.287" r=".397" fill="#0c0d0b"/>
          <circle cx="49.814" cy="5.309" r=".397" fill="#0c0d0b"/>
          <circle cx="50.806" cy="6.265" r=".596" fill="#0c0d0b"/>
          <circle cx="51.107" cy="4.749" r=".744" fill="#0c0d0b"/>
        </g>
        <g>
          <circle cx="49.433" cy="3.075" r=".397" fill="#0c0d0b"/>
          <circle cx="49.283" cy="2.096" r=".397" fill="#0c0d0b"/>
          <circle cx="48.29" cy="3.053" r=".596" fill="#0c0d0b"/>
          <circle cx="47.99" cy="1.537" r=".744" fill="#0c0d0b"/>
        </g>
        <circle cx="49.181" cy="8.813" r=".397" fill="#0c0d0b"/>
        <circle cx="49.03" cy="7.835" r=".397" fill="#0c0d0b"/>
        <circle cx="48.888" cy="4.466" r=".397" fill="#0c0d0b"/>
        <circle cx="51.005" cy="1.699" r=".397" fill="#0c0d0b"/>
        <circle cx="52.473" cy="4.009" r=".397" fill="#0c0d0b"/>
        <circle cx="50.788" cy="10.83" r=".397" fill="#0c0d0b"/>
        <circle cx="50.006" cy="12.058" r=".397" fill="#0c0d0b"/>
        <circle cx="49.309" cy="10.433" r=".397" fill="#0c0d0b"/>
        <circle cx="48.635" cy="9.796" r=".397" fill="#0c0d0b"/>
        <circle cx="47.444" cy="4.466" r=".397" fill="#0c0d0b"/>
        <circle cx="48.038" cy="8.791" r=".596" fill="#0c0d0b"/>
        <circle cx="47.737" cy="7.275" r=".744" fill="#0c0d0b"/>
      </g>
      <circle cx="50.055" cy=".746" r=".498" fill="#cb1e1a"/>
      <circle cx="48" cy="1.556" r=".498" fill="#cb1e1a"/>
      <circle cx="51.051" cy="3.113" r=".498" fill="#cb1e1a"/>
      <circle cx="47.75" cy="7.285" r=".498" fill="#cb1e1a"/>
      <circle cx="51.487" cy="7.97" r=".498" fill="#cb1e1a"/>
    </g>
    <g>
      <g>
        <polygon points="64.901 21.623 62.835 23.689 62.835 23.049 62.835 23.042 62.835 16.064 62.801 16.064 62.801 23.008 60.739 20.945 60.715 20.969 62.801 23.056 62.801 26.789 62.804 26.789 62.804 27.467 62.838 27.467 62.838 23.734 64.925 21.647 64.901 21.623" fill="#0c0d0b"/>
        <circle cx="60.713" cy="20.9" r=".596" fill="#0c0d0b"/>
        <circle cx="62.818" cy="16.064" r=".744" fill="#0c0d0b"/>
        <circle cx="63.829" cy="18.422" r=".744" fill="#0c0d0b"/>
        <g>
          <circle cx="64.695" cy="21.92" r=".397" fill="#0c0d0b"/>
          <circle cx="64.845" cy="20.942" r=".397" fill="#0c0d0b"/>
          <circle cx="65.838" cy="21.898" r=".596" fill="#0c0d0b"/>
          <circle cx="66.139" cy="20.383" r=".744" fill="#0c0d0b"/>
        </g>
        <g>
          <circle cx="62.782" cy="24.82" r=".397" fill="#0c0d0b"/>
          <circle cx="62.933" cy="23.841" r=".397" fill="#0c0d0b"/>
          <circle cx="63.925" cy="24.798" r=".596" fill="#0c0d0b"/>
          <circle cx="64.226" cy="23.282" r=".744" fill="#0c0d0b"/>
        </g>
        <g>
          <circle cx="62.433" cy="21.608" r=".397" fill="#0c0d0b"/>
          <circle cx="62.584" cy="20.629" r=".397" fill="#0c0d0b"/>
          <circle cx="63.576" cy="21.586" r=".596" fill="#0c0d0b"/>
          <circle cx="63.877" cy="20.07" r=".744" fill="#0c0d0b"/>
        </g>
        <g>
          <circle cx="62.203" cy="18.395" r=".397" fill="#0c0d0b"/>
          <circle cx="62.053" cy="17.417" r=".397" fill="#0c0d0b"/>
          <circle cx="61.06" cy="18.374" r=".596" fill="#0c0d0b"/>
          <circle cx="60.759" cy="16.858" r=".744" fill="#0c0d0b"/>
        </g>
        <circle cx="61.951" cy="24.134" r=".397" fill="#0c0d0b"/>
        <circle cx="61.8" cy="23.156" r=".397" fill="#0c0d0b"/>
        <circle cx="61.657" cy="19.787" r=".397" fill="#0c0d0b"/>
        <circle cx="63.775" cy="17.02" r=".397" fill="#0c0d0b"/>
        <circle cx="65.242" cy="19.33" r=".397" fill="#0c0d0b"/>
        <circle cx="63.558" cy="26.151" r=".397" fill="#0c0d0b"/>
        <circle cx="62.776" cy="27.378" r=".397" fill="#0c0d0b"/>
        <circle cx="62.078" cy="25.754" r=".397" fill="#0c0d0b"/>
        <circle cx="61.405" cy="25.117" r=".397" fill="#0c0d0b"/>
        <circle cx="60.214" cy="19.787" r=".397" fill="#0c0d0b"/>
        <circle cx="60.808" cy="24.112" r=".596" fill="#0c0d0b"/>
        <circle cx="60.507" cy="22.596" r=".744" fill="#0c0d0b"/>
      </g>
      <circle cx="62.825" cy="16.067" r=".498" fill="#cb1e1a"/>
      <circle cx="60.769" cy="16.876" r=".498" fill="#cb1e1a"/>
      <circle cx="63.821" cy="18.433" r=".498" fill="#cb1e1a"/>
      <circle cx="60.52" cy="22.606" r=".498" fill="#cb1e1a"/>
      <circle cx="64.257" cy="23.291" r=".498" fill="#cb1e1a"/>
    </g>
  </g>
</svg>