<?xml version="1.0" encoding="UTF-8"?>
<svg xmlns="http://www.w3.org/2000/svg" width="100" height="100" viewBox="0 0 100 100">
  <g id="Fondo">
    <circle cx="50.101" cy="80.234" r="9.894" fill="#cb1e1a" opacity=".33"/>
  </g>
  <g id="raices">
    <g>
      <path d="M50,88.966v3.787c0,.82-.509,1.553-1.278,1.838-1.61.597-4.361,1.912-5.984,2.526-.823.311-1.751.102-2.36-.532l-4.409-4.586c-.918-.955-2.506-.708-3.091.48l-3.471,7.049" fill="none" stroke="#0c0d0b" stroke-miterlimit="10" stroke-width=".207"/>
      <path d="M28.969,93.834c.102,0,2.572,2.367,4.041,3.784.529.51,1.401.354,1.721-.308l2.172-4.494c.451-.934,1.832-.756,2.031.262.397,2.029.936,4.513,1.225,5.828.116.526.601.885,1.137.843,1.346-.106,3.886-.308,5.852-.467.992-.08,1.356-1.347.557-1.942l-4.141-3.085c-.715-.533-.512-1.654.344-1.902l4.671-1.355c.461-.134.779-.556.779-1.037v-1.389" fill="none" stroke="#0c0d0b" stroke-miterlimit="10" stroke-width=".207"/>
      <path d="M50,89.113v3.787c0,.82.509,1.553,1.278,1.838,1.61.597,4.361,1.912,5.984,2.526.823.311,1.751.102,2.36-.532l4.409-4.586c.918-.955,2.506-.708,3.091.48l3.471,7.049" fill="none" stroke="#0c0d0b" stroke-miterlimit="10" stroke-width=".207"/>
      <path d="M71.031,93.98c-.102,0-2.572,2.367-4.041,3.784-.529.51-1.401.354-1.721-.308l-2.172-4.494c-.451-.934-1.832-.756-2.031.262-.397,2.029-.936,4.513-1.225,5.828-.116.526-.601.885-1.137.843-1.346-.106-3.886-.308-5.852-.467-.992-.08-1.356-1.347-.557-1.942l4.141-3.085c.715-.533.512-1.654-.344-1.902l-4.671-1.355c-.461-.134-.779-.556-.779-1.037v-1.389" fill="none" stroke="#0c0d0b" stroke-miterlimit="10" stroke-width=".207"/>
      <path d="M50,92.666l-9.804-4.314c-.626-.275-.894-1.015-.596-1.631.127-.262.255-.544.373-.812.262-.595-.183-1.26-.833-1.246-1.2.026-2.927.063-4.077.088-.692.015-1.253-.554-1.228-1.246l.064-1.801c.021-.586.461-1.071,1.042-1.149l.994-.134" fill="none" stroke="#0c0d0b" stroke-miterlimit="10" stroke-width=".207"/>
      <path d="M50.045,92.666l9.804-4.314c.626-.275.894-1.015.596-1.631-.127-.262-.255-.544-.373-.812-.262-.595.183-1.26.833-1.246,1.2.026,2.927.063,4.077.088.692.015,1.253-.554,1.228-1.246l-.064-1.801c-.021-.586-.461-1.071-1.042-1.149l-.994-.134" fill="none" stroke="#0c0d0b" stroke-miterlimit="10" stroke-width=".207"/>
      <path d="M30.575,82.443h9.712c.9,0,1.629.729,1.629,1.629v10.925c0,.238.052.473.153.689l.669,1.432" fill="none" stroke="#0c0d0b" stroke-miterlimit="10" stroke-width=".207"/>
      <path d="M68.881,82.443h-9.712c-.9,0-1.629.729-1.629,1.629v10.925c0,.238-.052.473-.153.689l-.669,1.432" fill="none" stroke="#0c0d0b" stroke-miterlimit="10" stroke-width=".207"/>
    </g>
  </g>
  <g id="semilla">
    <g>
      <circle cx="50" cy="80.421" r=".644" fill="#cb1f1b"/>
      <circle cx="50" cy="85.091" r=".644" fill="#e20613"/>
      <path d="M55.733,76.978c-.491-1.491-1.315-2.823-2.174-4.128-.12-.182-.246-.36-.376-.535-.128-.171-.264-.335-.397-.503.579,1.049,1.167,2.076,1.667,3.145,1.041,2.221,1.379,4.555.887,6.97-.402,1.975-1.217,3.757-2.761,5.118-.481.424-1.053.743-1.584,1.11-.02-.033-.039-.065-.058-.098,1.246-1.386,1.798-3.071,2.1-4.865.348-2.069-.127-4.028-.8-5.961-.517-1.486-1.088-2.956-1.527-4.465-.307-1.054-.43-2.162-.637-3.251v9.401c.733.038,1.316.642,1.316,1.385s-.583,1.347-1.316,1.385v1.859c.733.038,1.316.642,1.316,1.385s-.583,1.347-1.316,1.385v2.184c-.041,0-.082,0-.123,0v-2.183c-.743-.027-1.338-.636-1.338-1.386s.595-1.359,1.338-1.386v-1.856c-.743-.027-1.338-.636-1.338-1.386s.595-1.359,1.338-1.386v-10.525c-.034,0-.067-.001-.101-.002-.008.093-.012.187-.025.279-.222,1.544-.354,3.109-.696,4.626-.275,1.22-.794,2.387-1.223,3.571-.519,1.432-1.009,2.878-1.094,4.407-.133,2.385.649,4.524,1.911,6.511.111.174.256.327.385.49-.024.023-.049.046-.073.069-.56-.438-1.176-.821-1.671-1.323-2.362-2.401-3.191-5.337-2.838-8.628.231-2.157,1.159-4.066,2.274-5.894.048-.078.09-.16.135-.24-.458.491-.854,1.017-1.2,1.574-1.151,1.854-1.925,3.847-2.074,6.041-.153,2.254.366,4.356,1.596,6.26.864,1.337,2.035,2.316,3.615,2.665.562.124,1.11.098,1.103.882.041-.235.082-.471.122-.705.049-.017.087-.04.126-.041,1.827-.065,3.173-1.01,4.194-2.42,2.123-2.931,2.432-6.149,1.318-9.533Z" fill="#0c0c0c"/>
    </g>
  </g>
  <g id="suelo">
    <line x1="31.512" y1="67.384" x2="67.807" y2="67.384" fill="none" stroke="#0c0d0b" stroke-miterlimit="10" stroke-width="3.312"/>
    <line x1="31.512" y1="67.384" x2="67.807" y2="67.384" fill="none" stroke="#333" stroke-miterlimit="10" stroke-width="1.242"/>
  </g>
  <g id="Tallo">
    <g>
      <line x1="50.836" y1="66.884" x2="50.836" y2="2.678" fill="none" stroke="#0c0d0b" stroke-linecap="round" stroke-miterlimit="10" stroke-width=".828"/>
      <g>
        <polygon points="50.836 65.5 49.638 65.216 50.836 64.932 50.836 65.5 50.836 65.5" fill="#0c0d0b"/>
        <polygon points="50.836 67.041 52.033 66.757 50.836 66.473 50.836 67.041 50.836 67.041" fill="#0c0d0b"/>
      </g>
      <g>
        <polygon points="50.836 63.161 49.638 62.878 50.836 62.594 50.836 63.161 50.836 63.161" fill="#0c0d0b"/>
        <polygon points="50.836 64.702 52.033 64.418 50.836 64.135 50.836 64.702 50.836 64.702" fill="#0c0d0b"/>
      </g>
      <g>
        <polygon points="50.836 60.793 49.638 60.51 50.836 60.226 50.836 60.793 50.836 60.793" fill="#0c0d0b"/>
        <polygon points="50.836 62.334 52.033 62.051 50.836 61.767 50.836 62.334 50.836 62.334" fill="#0c0d0b"/>
      </g>
      <g>
        <polygon points="50.836 58.444 49.638 58.16 50.836 57.876 50.836 58.444 50.836 58.444" fill="#0c0d0b"/>
        <polygon points="50.836 59.985 52.033 59.701 50.836 59.417 50.836 59.985 50.836 59.985" fill="#0c0d0b"/>
      </g>
      <g>
        <polygon points="50.836 56.09 49.638 55.806 50.836 55.522 50.836 56.09 50.836 56.09" fill="#0c0d0b"/>
        <polygon points="50.836 57.631 52.033 57.347 50.836 57.063 50.836 57.631 50.836 57.631" fill="#0c0d0b"/>
      </g>
      <g>
        <polygon points="50.836 53.73 49.638 53.446 50.836 53.162 50.836 53.73 50.836 53.73" fill="#0c0d0b"/>
        <polygon points="50.836 55.271 52.033 54.987 50.836 54.703 50.836 55.271 50.836 55.271" fill="#0c0d0b"/>
      </g>
      <g>
        <polygon points="50.836 51.433 49.638 51.149 50.836 50.865 50.836 51.433 50.836 51.433" fill="#0c0d0b"/>
        <polygon points="50.836 52.974 52.033 52.69 50.836 52.406 50.836 52.974 50.836 52.974" fill="#0c0d0b"/>
      </g>
      <g>
        <polygon points="50.836 49.105 49.638 48.821 50.836 48.538 50.836 49.105 50.836 49.105" fill="#0c0d0b"/>
        <polygon points="50.836 50.646 52.033 50.362 50.836 50.079 50.836 50.646 50.836 50.646" fill="#0c0d0b"/>
      </g>
      <g>
        <polygon points="50.836 46.758 49.638 46.474 50.836 46.19 50.836 46.758 50.836 46.758" fill="#0c0d0b"/>
        <polygon points="50.836 48.298 52.033 48.015 50.836 47.731 50.836 48.298 50.836 48.298" fill="#0c0d0b"/>
      </g>
      <g>
        <polygon points="50.836 44.401 49.638 44.118 50.836 43.834 50.836 44.401 50.836 44.401" fill="#0c0d0b"/>
        <polygon points="50.836 45.942 52.033 45.659 50.836 45.375 50.836 45.942 50.836 45.942" fill="#0c0d0b"/>
      </g>
      <g>
        <polygon points="50.836 42.044 49.638 41.761 50.836 41.477 50.836 42.044 50.836 42.044" fill="#0c0d0b"/>
        <polygon points="50.836 43.585 52.033 43.302 50.836 43.018 50.836 43.585 50.836 43.585" fill="#0c0d0b"/>
      </g>
      <g>
        <polygon points="50.836 39.716 49.638 39.433 50.836 39.149 50.836 39.716 50.836 39.716" fill="#0c0d0b"/>
        <polygon points="50.836 41.257 52.033 40.974 50.836 40.69 50.836 41.257 50.836 41.257" fill="#0c0d0b"/>
      </g>
      <g>
        <polygon points="50.836 37.367 49.638 37.083 50.836 36.8 50.836 37.367 50.836 37.367" fill="#0c0d0b"/>
        <polygon points="50.836 38.908 52.033 38.624 50.836 38.341 50.836 38.908 50.836 38.908" fill="#0c0d0b"/>
      </g>
      <g>
        <polygon points="50.836 34.958 49.638 34.674 50.836 34.39 50.836 34.958 50.836 34.958" fill="#0c0d0b"/>
        <polygon points="50.836 36.499 52.033 36.215 50.836 35.931 50.836 36.499 50.836 36.499" fill="#0c0d0b"/>
      </g>
      <g>
        <polygon points="50.836 32.658 49.638 32.374 50.836 32.091 50.836 32.658 50.836 32.658" fill="#0c0d0b"/>
        <polygon points="50.836 34.199 52.033 33.915 50.836 33.632 50.836 34.199 50.836 34.199" fill="#0c0d0b"/>
      </g>
      <g>
        <polygon points="50.836 30.333 49.638 30.05 50.836 29.766 50.836 30.333 50.836 30.333" fill="#0c0d0b"/>
        <polygon points="50.836 31.874 52.033 31.591 50.836 31.307 50.836 31.874 50.836 31.874" fill="#0c0d0b"/>
      </g>
      <g>
        <polygon points="50.836 28.01 49.638 27.727 50.836 27.443 50.836 28.01 50.836 28.01" fill="#0c0d0b"/>
        <polygon points="50.836 29.551 52.033 29.267 50.836 28.984 50.836 29.551 50.836 29.551" fill="#0c0d0b"/>
      </g>
      <g>
        <polygon points="50.836 25.602 49.638 25.318 50.836 25.034 50.836 25.602 50.836 25.602" fill="#0c0d0b"/>
        <polygon points="50.836 27.143 52.033 26.859 50.836 26.575 50.836 27.143 50.836 27.143" fill="#0c0d0b"/>
      </g>
      <g>
        <polygon points="50.836 23.244 49.638 22.961 50.836 22.677 50.836 23.244 50.836 23.244" fill="#0c0d0b"/>
        <polygon points="50.836 24.785 52.033 24.502 50.836 24.218 50.836 24.785 50.836 24.785" fill="#0c0d0b"/>
      </g>
      <g>
        <polygon points="50.836 20.891 49.638 20.607 50.836 20.323 50.836 20.891 50.836 20.891" fill="#0c0d0b"/>
        <polygon points="50.836 22.431 52.033 22.148 50.836 21.864 50.836 22.431 50.836 22.431" fill="#0c0d0b"/>
      </g>
      <g>
        <polygon points="50.836 18.549 49.638 18.266 50.836 17.982 50.836 18.549 50.836 18.549" fill="#0c0d0b"/>
        <polygon points="50.836 20.09 52.033 19.807 50.836 19.523 50.836 20.09 50.836 20.09" fill="#0c0d0b"/>
      </g>
      <g>
        <polygon points="50.836 16.234 49.638 15.95 50.836 15.666 50.836 16.234 50.836 16.234" fill="#0c0d0b"/>
        <polygon points="50.836 17.775 52.033 17.491 50.836 17.207 50.836 17.775 50.836 17.775" fill="#0c0d0b"/>
      </g>
      <g>
        <polygon points="50.836 13.929 49.638 13.645 50.836 13.361 50.836 13.929 50.836 13.929" fill="#0c0d0b"/>
        <polygon points="50.836 15.47 52.033 15.186 50.836 14.902 50.836 15.47 50.836 15.47" fill="#0c0d0b"/>
      </g>
      <g>
        <polygon points="50.836 11.518 49.638 11.234 50.836 10.951 50.836 11.518 50.836 11.518" fill="#0c0d0b"/>
        <polygon points="50.836 13.059 52.033 12.775 50.836 12.492 50.836 13.059 50.836 13.059" fill="#0c0d0b"/>
      </g>
      <g>
        <polygon points="50.836 9.186 49.638 8.903 50.836 8.619 50.836 9.186 50.836 9.186" fill="#0c0d0b"/>
        <polygon points="50.836 10.727 52.033 10.443 50.836 10.16 50.836 10.727 50.836 10.727" fill="#0c0d0b"/>
      </g>
      <g>
        <polygon points="50.836 6.833 49.638 6.549 50.836 6.266 50.836 6.833 50.836 6.833" fill="#0c0d0b"/>
        <polygon points="50.836 8.374 52.033 8.09 50.836 7.807 50.836 8.374 50.836 8.374" fill="#0c0d0b"/>
      </g>
      <g>
        <polygon points="50.836 4.491 49.638 4.208 50.836 3.924 50.836 4.491 50.836 4.491" fill="#0c0d0b"/>
        <polygon points="50.836 6.032 52.033 5.749 50.836 5.465 50.836 6.032 50.836 6.032" fill="#0c0d0b"/>
      </g>
      <g>
        <polygon points="50.836 2.192 49.638 1.908 50.836 1.624 50.836 2.192 50.836 2.192" fill="#0c0d0b"/>
        <polygon points="50.836 3.733 52.033 3.449 50.836 3.165 50.836 3.733 50.836 3.733" fill="#0c0d0b"/>
      </g>
    </g>
  </g>
  <g id="Hojas">
    <path d="M57.164,26.577c-.026-.126-.061-.251-.108-.372-.02-.056-.049-.119-.073-.173-.099-.207-.211-.385-.365-.574-.132-.155-.265-.293-.435-.424-.04.008-.122.027-.162.036-.328.079-.671.176-.977.273-.025.007-.072.023-.097.031-.089.029-.179.06-.266.092-.048.018-.101.038-.148.056-.302.124-.552.242-.76.452-.081.083-.145.18-.205.279-.212.345-.322.728-.456,1.123-.058.176-.125.359-.195.53-.063.149-.134.3-.212.442-.369.683-.976,1.214-1.747,1.372-.068.014-.137.027-.206.04-.069-.012-.137-.025-.206-.04-.77-.158-1.377-.688-1.747-1.372-.078-.141-.149-.293-.212-.442-.07-.171-.137-.355-.195-.53-.134-.395-.244-.778-.456-1.123-.06-.099-.124-.196-.205-.279-.208-.21-.457-.328-.76-.452-.047-.019-.1-.039-.148-.056-.087-.032-.177-.063-.266-.092-.024-.008-.071-.024-.097-.031-.306-.098-.649-.194-.977-.273-.04-.009-.122-.028-.162-.036-.17.131-.304.269-.435.424-.155.189-.267.367-.365.574-.024.054-.053.118-.073.173-.047.121-.083.246-.108.372-.106.512-.025,1.051.225,1.509.07.128.153.248.242.363.109.14.23.274.36.395.749.699,1.691.951,2.694.967.517.011,1.062-.036,1.571-.048.281-.006.563-.002.842.022.046.004.092.008.14.013.22,0,.45,0,.674,0,.049-.005.097-.01.144-.014.279-.024.561-.028.842-.022.51.011,1.054.059,1.571.048,1.004-.016,1.945-.267,2.694-.967.13-.121.251-.255.36-.395.089-.115.172-.235.242-.363.25-.458.331-.996.225-1.509Z" fill="#0c0d0b"/>
    <path d="M57.164,19.274c-.026-.126-.061-.251-.108-.372-.02-.056-.049-.119-.073-.173-.099-.207-.211-.385-.365-.574-.132-.155-.265-.293-.435-.424-.04.008-.122.027-.162.036-.328.079-.671.176-.977.273-.025.007-.072.023-.097.031-.089.029-.179.06-.266.092-.048.018-.101.038-.148.056-.302.124-.552.242-.76.452-.081.083-.145.18-.205.279-.212.345-.322.728-.456,1.123-.058.176-.125.359-.195.53-.063.149-.134.3-.212.442-.369.683-.976,1.214-1.747,1.372-.068.014-.137.027-.206.04-.069-.012-.137-.025-.206-.04-.77-.158-1.377-.688-1.747-1.372-.078-.141-.149-.293-.212-.442-.07-.171-.137-.355-.195-.53-.134-.395-.244-.778-.456-1.123-.06-.099-.124-.196-.205-.279-.208-.21-.457-.328-.76-.452-.047-.019-.1-.039-.148-.056-.087-.032-.177-.063-.266-.092-.024-.008-.071-.024-.097-.031-.306-.098-.649-.194-.977-.273-.04-.009-.122-.028-.162-.036-.17.131-.304.269-.435.424-.155.189-.267.367-.365.574-.024.054-.053.118-.073.173-.047.121-.083.246-.108.372-.106.512-.025,1.051.225,1.509.07.128.153.248.242.363.109.14.23.274.36.395.749.699,1.691.951,2.694.967.517.011,1.062-.036,1.571-.048.281-.006.563-.002.842.022.046.004.092.008.14.013.22,0,.45,0,.674,0,.049-.005.097-.01.144-.014.279-.024.561-.028.842-.022.51.011,1.054.059,1.571.048,1.004-.016,1.945-.267,2.694-.967.13-.121.251-.255.36-.395.089-.115.172-.235.242-.363.25-.458.331-.996.225-1.509Z" fill="#0c0d0b"/>
    <path d="M57.164,33.423c-.026-.126-.061-.251-.108-.372-.02-.056-.049-.119-.073-.173-.099-.207-.211-.385-.365-.574-.132-.155-.265-.293-.435-.424-.04.008-.122.027-.162.036-.328.079-.671.176-.977.273-.025.007-.072.023-.097.031-.089.029-.179.06-.266.092-.048.018-.101.038-.148.056-.302.124-.552.242-.76.452-.081.083-.145.18-.205.279-.212.345-.322.728-.456,1.123-.058.176-.125.359-.195.53-.063.149-.134.3-.212.442-.369.683-.976,1.214-1.747,1.372-.068.014-.137.027-.206.04-.069-.012-.137-.025-.206-.04-.77-.158-1.377-.688-1.747-1.372-.078-.141-.149-.293-.212-.442-.07-.171-.137-.355-.195-.53-.134-.395-.244-.778-.456-1.123-.06-.099-.124-.196-.205-.279-.208-.21-.457-.328-.76-.452-.047-.019-.1-.039-.148-.056-.087-.032-.177-.063-.266-.092-.024-.008-.071-.024-.097-.031-.306-.098-.649-.194-.977-.273-.04-.009-.122-.028-.162-.036-.17.131-.304.269-.435.424-.155.189-.267.367-.365.574-.024.054-.053.118-.073.173-.047.121-.083.246-.108.372-.106.512-.025,1.051.225,1.509.07.128.153.248.242.363.109.14.23.274.36.395.749.699,1.691.951,2.694.967.517.011,1.062-.036,1.571-.048.281-.006.563-.002.842.022.046.004.092.008.14.013.22,0,.45,0,.674,0,.049-.005.097-.01.144-.014.279-.024.561-.028.842-.022.51.011,1.054.059,1.571.048,1.004-.016,1.945-.267,2.694-.967.13-.121.251-.255.36-.395.089-.115.172-.235.242-.363.25-.458.331-.996.225-1.509Z" fill="#0c0d0b"/>
    <path d="M57.164,40.268c-.026-.126-.061-.251-.108-.372-.02-.056-.049-.119-.073-.173-.099-.207-.211-.385-.365-.574-.132-.155-.265-.293-.435-.424-.04.008-.122.027-.162.036-.328.079-.671.176-.977.273-.025.007-.072.023-.097.031-.089.029-.179.06-.266.092-.048.018-.101.038-.148.056-.302.124-.552.242-.76.452-.081.083-.145.18-.205.279-.212.345-.322.728-.456,1.123-.058.176-.125.359-.195.53-.063.149-.134.3-.212.442-.369.683-.976,1.214-1.747,1.372-.068.014-.137.027-.206.04-.069-.012-.137-.025-.206-.04-.77-.158-1.377-.688-1.747-1.372-.078-.141-.149-.293-.212-.442-.07-.171-.137-.355-.195-.53-.134-.395-.244-.778-.456-1.123-.06-.099-.124-.196-.205-.279-.208-.21-.457-.328-.76-.452-.047-.019-.1-.039-.148-.056-.087-.032-.177-.063-.266-.092-.024-.008-.071-.024-.097-.031-.306-.098-.649-.194-.977-.273-.04-.009-.122-.028-.162-.036-.17.131-.304.269-.435.424-.155.189-.267.367-.365.574-.024.054-.053.118-.073.173-.047.121-.083.246-.108.372-.106.512-.025,1.051.225,1.509.07.128.153.248.242.363.109.14.23.274.36.395.749.699,1.691.951,2.694.967.517.011,1.062-.036,1.571-.048.281-.006.563-.002.842.022.046.004.092.008.14.013.22,0,.45,0,.674,0,.049-.005.097-.01.144-.014.279-.024.561-.028.842-.022.51.011,1.054.059,1.571.048,1.004-.016,1.945-.267,2.694-.967.13-.121.251-.255.36-.395.089-.115.172-.235.242-.363.25-.458.331-.996.225-1.509Z" fill="#0c0d0b"/>
    <path d="M57.164,47.114c-.026-.126-.061-.251-.108-.372-.02-.056-.049-.119-.073-.173-.099-.207-.211-.385-.365-.574-.132-.155-.265-.293-.435-.424-.04.008-.122.027-.162.036-.328.079-.671.176-.977.273-.025.007-.072.023-.097.031-.089.029-.179.06-.266.092-.048.018-.101.038-.148.056-.302.124-.552.242-.76.452-.081.083-.145.18-.205.279-.212.345-.322.728-.456,1.123-.058.176-.125.359-.195.53-.063.149-.134.3-.212.442-.369.683-.976,1.214-1.747,1.372-.068.014-.137.027-.206.04-.069-.012-.137-.025-.206-.04-.77-.158-1.377-.688-1.747-1.372-.078-.141-.149-.293-.212-.442-.07-.171-.137-.355-.195-.53-.134-.395-.244-.778-.456-1.123-.06-.099-.124-.196-.205-.279-.208-.21-.457-.328-.76-.452-.047-.019-.1-.039-.148-.056-.087-.032-.177-.063-.266-.092-.024-.008-.071-.024-.097-.031-.306-.098-.649-.194-.977-.273-.04-.009-.122-.028-.162-.036-.17.131-.304.269-.435.424-.155.189-.267.367-.365.574-.024.054-.053.118-.073.173-.047.121-.083.246-.108.372-.106.512-.025,1.051.225,1.509.07.128.153.248.242.363.109.14.23.274.36.395.749.699,1.691.951,2.694.967.517.011,1.062-.036,1.571-.048.281-.006.563-.002.842.022.046.004.092.008.14.013.22,0,.45,0,.674,0,.049-.005.097-.01.144-.014.279-.024.561-.028.842-.022.51.011,1.054.059,1.571.048,1.004-.016,1.945-.267,2.694-.967.13-.121.251-.255.36-.395.089-.115.172-.235.242-.363.25-.458.331-.996.225-1.509Z" fill="#0c0d0b"/>
    <path d="M57.164,53.96c-.026-.126-.061-.251-.108-.372-.02-.056-.049-.119-.073-.173-.099-.207-.211-.385-.365-.574-.132-.155-.265-.293-.435-.424-.04.008-.122.027-.162.036-.328.079-.671.176-.977.273-.025.007-.072.023-.097.031-.089.029-.179.06-.266.092-.048.018-.101.038-.148.056-.302.124-.552.242-.76.452-.081.083-.145.18-.205.279-.212.345-.322.728-.456,1.123-.058.176-.125.359-.195.53-.063.149-.134.3-.212.442-.369.683-.976,1.214-1.747,1.372-.068.014-.137.027-.206.04-.069-.012-.137-.025-.206-.04-.77-.158-1.377-.688-1.747-1.372-.078-.141-.149-.293-.212-.442-.07-.171-.137-.355-.195-.53-.134-.395-.244-.778-.456-1.123-.06-.099-.124-.196-.205-.279-.208-.21-.457-.328-.76-.452-.047-.019-.1-.039-.148-.056-.087-.032-.177-.063-.266-.092-.024-.008-.071-.024-.097-.031-.306-.098-.649-.194-.977-.273-.04-.009-.122-.028-.162-.036-.17.131-.304.269-.435.424-.155.189-.267.367-.365.574-.024.054-.053.118-.073.173-.047.121-.083.246-.108.372-.106.512-.025,1.051.225,1.509.07.128.153.248.242.363.109.14.23.274.36.395.749.699,1.691.951,2.694.967.517.011,1.062-.036,1.571-.048.281-.006.563-.002.842.022.046.004.092.008.14.013.22,0,.45,0,.674,0,.049-.005.097-.01.144-.014.279-.024.561-.028.842-.022.51.011,1.054.059,1.571.048,1.004-.016,1.945-.267,2.694-.967.13-.121.251-.255.36-.395.089-.115.172-.235.242-.363.25-.458.331-.996.225-1.509Z" fill="#0c0d0b"/>
    <path d="M57.164,60.806c-.026-.126-.061-.251-.108-.372-.02-.056-.049-.119-.073-.173-.099-.207-.211-.385-.365-.574-.132-.155-.265-.293-.435-.424-.04.008-.122.027-.162.036-.328.079-.671.176-.977.273-.025.007-.072.023-.097.031-.089.029-.179.06-.266.092-.048.018-.101.038-.148.056-.302.124-.552.242-.76.452-.081.083-.145.18-.205.279-.212.345-.322.728-.456,1.123-.058.176-.125.359-.195.53-.063.149-.134.3-.212.442-.369.683-.976,1.214-1.747,1.372-.068.014-.137.027-.206.04-.069-.012-.137-.025-.206-.04-.77-.158-1.377-.688-1.747-1.372-.078-.141-.149-.293-.212-.442-.07-.171-.137-.355-.195-.53-.134-.395-.244-.778-.456-1.123-.06-.099-.124-.196-.205-.279-.208-.21-.457-.328-.76-.452-.047-.019-.1-.039-.148-.056-.087-.032-.177-.063-.266-.092-.024-.008-.071-.024-.097-.031-.306-.098-.649-.194-.977-.273-.04-.009-.122-.028-.162-.036-.17.131-.304.269-.435.424-.155.189-.267.367-.365.574-.024.054-.053.118-.073.173-.047.121-.083.246-.108.372-.106.512-.025,1.051.225,1.509.07.128.153.248.242.363.109.14.23.274.36.395.749.699,1.691.951,2.694.967.517.011,1.062-.036,1.571-.048.281-.006.563-.002.842.022.046.004.092.008.14.013.22,0,.45,0,.674,0,.049-.005.097-.01.144-.014.279-.024.561-.028.842-.022.51.011,1.054.059,1.571.048,1.004-.016,1.945-.267,2.694-.967.13-.121.251-.255.36-.395.089-.115.172-.235.242-.363.25-.458.331-.996.225-1.509Z" fill="#0c0d0b"/>
  </g>
  <g id="Flores">
    <g>
      <g>
        <ellipse cx="50.807" cy="1.294" rx="1.85" ry="1.295" fill="#0c0d0b"/>
        <path d="M55.584,9.891c-1.478-.68-3.276.244-4.156,1.503-.188.229-.359.588-.462.668v-1.409c.404-1.153,1.684-1.663,2.993-2.121.895-.292,2.953-.862,2.598-2.073-.694-1.013-2.356-.892-3.336-.254-1.097.689-1.735,1.774-2.255,2.567v-1.837c.424-1.023,1.504-1.531,2.955-2.046.615-.222,1.12-.203,1.432-.556,1.553-2.81-1.821-4.418-3.859-.211-.111.249-.405.78-.529,1.126v-2.131h-.317v2.774c-.32-.833-.886-2.738-1.797-3.087-1.547-.349-1.13,1.469-.558,2.25.418.661,1.102,1.286,1.631,1.739.531.406.727.878.724,1.557-.007.211-.003.444,0,.683v.655c-.006.219-.02.43-.053.618-.048.084-.275-.087-.323-.153-.707-1.154-1.448-2.905-2.35-4.043-.825-1.244-2.946-.27-2.041,1.179.534.952,1.541,1.465,2.396,2.171.594.58,1.965,1.184,2.371,1.993v.757c-.217.144-.669-.09-.962-.268-1.37-.902-7.311-5.034-6.872-1.075.582,2.397,2.936,3.08,5.015,2.9,2.448-.052,5.413.107,7.313-.068,2.168-.625,2.745-2.781.442-3.806Z" fill="#0c0d0b"/>
      </g>
      <circle cx="50.807" cy="1.426" r=".581" fill="#cb1e1a"/>
    </g>
  </g>
</svg>