<?xml version="1.0" encoding="UTF-8"?>
<svg xmlns="http://www.w3.org/2000/svg" width="100" height="100" viewBox="0 0 100 100">
  <g id="Fondo">
    <ellipse cx="50" cy="75.858" rx="9" ry="7.983" fill="#e9a000" opacity=".33"/>
  </g>
  <g id="Raices">
    <g>
      <path d="M56.365,72.549h4.358c.624,0,1.13.506,1.13,1.13v1.379c0,.624.506,1.13,1.13,1.13h.959c.624,0,1.13.506,1.13,1.13v1.638c0,.624.506,1.13,1.13,1.13h1.112" fill="none" stroke="#0c0d0b" stroke-miterlimit="10" stroke-width=".202"/>
      <path d="M56.792,77.642h3.566c.511,0,.925.414.925.925v1.128c0,.511.414.925.925.925h.785c.511,0,.925.414.925.925v1.34c0,.511.414.925.925.925h.91" fill="none" stroke="#0c0d0b" stroke-miterlimit="10" stroke-width=".165"/>
      <path d="M56.934,75.136h3.339c.478,0,.866.388.866.866v1.056c0,.478.388.866.866.866h.735c.478,0,.866.388.866.866v1.255c0,.478.388.866.866.866h.852" fill="none" stroke="#0c0d0b" stroke-miterlimit="10" stroke-width=".154"/>
      <path d="M51.175,83.001v1.917c0,.434.352.785.785.785h1.132c.434,0,.785.352.785.785v1.042c0,.434.352.785.785.785h5.572c.434,0,.785.352.785.785v2.29" fill="none" stroke="#0c0d0b" stroke-miterlimit="10" stroke-width=".165"/>
      <path d="M53.735,82.005h3.277c.389,0,.705.316.705.705v1.148c0,.389.316.705.705.705h2.321c.178,0,.349.067.48.188l3.32,3.084" fill="none" stroke="#0c0d0b" stroke-miterlimit="10" stroke-width=".165"/>
      <path d="M55.742,80.085h1.81c.287,0,.562.114.765.317l1.494,1.494c.203.203.478.317.765.317h1.034c.598,0,1.082.484,1.082,1.082v.065c0,.287.114.562.317.765l1.768,1.768" fill="none" stroke="#0c0d0b" stroke-miterlimit="10" stroke-width=".165"/>
    </g>
    <g>
      <path d="M43.639,72.549h-4.358c-.624,0-1.13.506-1.13,1.13v1.379c0,.624-.506,1.13-1.13,1.13h-.959c-.624,0-1.13.506-1.13,1.13v1.638c0,.624-.506,1.13-1.13,1.13h-1.112" fill="none" stroke="#0c0d0b" stroke-miterlimit="10" stroke-width=".202"/>
      <path d="M43.212,77.642h-3.566c-.511,0-.925.414-.925.925v1.128c0,.511-.414.925-.925.925h-.785c-.511,0-.925.414-.925.925v1.34c0,.511-.414.925-.925.925h-.91" fill="none" stroke="#0c0d0b" stroke-miterlimit="10" stroke-width=".165"/>
      <path d="M43.07,75.136h-3.339c-.478,0-.866.388-.866.866v1.056c0,.478-.388.866-.866.866h-.735c-.478,0-.866.388-.866.866v1.255c0,.478-.388.866-.866.866h-.852" fill="none" stroke="#0c0d0b" stroke-miterlimit="10" stroke-width=".154"/>
      <path d="M48.829,83.001v1.917c0,.434-.352.785-.785.785h-1.132c-.434,0-.785.352-.785.785v1.042c0,.434-.352.785-.785.785h-5.572c-.434,0-.785.352-.785.785v2.29" fill="none" stroke="#0c0d0b" stroke-miterlimit="10" stroke-width=".165"/>
      <path d="M46.269,82.005h-3.277c-.389,0-.705.316-.705.705v1.148c0,.389-.316.705-.705.705h-2.321c-.178,0-.349.067-.48.188l-3.32,3.084" fill="none" stroke="#0c0d0b" stroke-miterlimit="10" stroke-width=".165"/>
      <path d="M44.262,80.085h-1.81c-.287,0-.562.114-.765.317l-1.494,1.494c-.203.203-.478.317-.765.317h-1.034c-.598,0-1.082.484-1.082,1.082v.065c0,.287-.114.562-.317.765l-1.768,1.768" fill="none" stroke="#0c0d0b" stroke-miterlimit="10" stroke-width=".165"/>
    </g>
    <path d="M49.627,81.929c-.012-.047-.007,3.172-.003,4.982.001.663.539,1.199,1.202,1.199h0c.664,0,1.202.538,1.202,1.202v.877c0,.664-.538,1.202-1.202,1.202h-6.555c-.664,0-1.202.538-1.202,1.202v.703c0,.672.549,1.213,1.221,1.202,2.041-.033,5.924-.083,5.909.022-.02.142,0,4.519,0,4.519" fill="none" stroke="#0c0d0b" stroke-miterlimit="10" stroke-width=".165"/>
  </g>
  <g id="Semilla">
    <g>
      <path d="M51.25,73.176c.695,1.564.372,2.985-.59,4.319-.093.129-.208.245-.324.355-.099.093-.188.144-.274.143-.086,0-.175-.05-.274-.143-.116-.109-.231-.226-.324-.355-.962-1.334-1.285-2.756-.59-4.319-.513.848-.547,1.77-.358,2.713.133.663.448,1.251.831,1.802.3.431.658.746.688,1.281.002.036.004.194.027.226.023-.032.025-.19.027-.226.03-.535.388-.85.688-1.281.383-.551.698-1.139.831-1.802.19-.944.155-1.865-.358-2.713Z" fill="#0c0c0c"/>
      <circle cx="50.062" cy="73.275" r=".435" fill="#f29100"/>
      <circle cx="50.062" cy="74.609" r=".435" fill="#f8b133"/>
      <circle cx="50.062" cy="75.942" r=".435" fill="#f3980f"/>
      <g>
        <g id="_Repetición_radial_" data-name="&amp;lt;Repetición radial&amp;gt;">
          <circle cx="51.758" cy="81.312" r=".313" fill="#0c0c0c"/>
        </g>
        <g id="_Repetición_radial_-2" data-name="&amp;lt;Repetición radial&amp;gt;">
          <circle cx="49.646" cy="81.617" r=".313" fill="#0c0c0c"/>
        </g>
        <g id="_Repetición_radial_-3" data-name="&amp;lt;Repetición radial&amp;gt;">
          <circle cx="47.566" cy="81.137" r=".313" fill="#0c0c0c"/>
        </g>
        <g id="_Repetición_radial_-4" data-name="&amp;lt;Repetición radial&amp;gt;">
          <circle cx="45.8" cy="79.937" r=".313" fill="#0c0c0c"/>
        </g>
        <g id="_Repetición_radial_-5" data-name="&amp;lt;Repetición radial&amp;gt;">
          <circle cx="44.586" cy="78.184" r=".313" fill="#0c0c0c"/>
        </g>
        <g id="_Repetición_radial_-6" data-name="&amp;lt;Repetición radial&amp;gt;">
          <circle cx="44.088" cy="76.107" r=".313" fill="#0c0c0c"/>
        </g>
        <g id="_Repetición_radial_-7" data-name="&amp;lt;Repetición radial&amp;gt;">
          <circle cx="44.373" cy="73.993" r=".313" fill="#0c0c0c"/>
        </g>
        <g id="_Repetición_radial_-8" data-name="&amp;lt;Repetición radial&amp;gt;">
          <circle cx="45.403" cy="72.124" r=".313" fill="#0c0c0c"/>
        </g>
        <g id="_Repetición_radial_-9" data-name="&amp;lt;Repetición radial&amp;gt;">
          <circle cx="47.039" cy="70.753" r=".313" fill="#0c0c0c"/>
        </g>
        <g id="_Repetición_radial_-10" data-name="&amp;lt;Repetición radial&amp;gt;">
          <circle cx="49.059" cy="70.066" r=".313" fill="#0c0c0c"/>
        </g>
        <g id="_Repetición_radial_-11" data-name="&amp;lt;Repetición radial&amp;gt;">
          <circle cx="51.192" cy="70.154" r=".313" fill="#0c0c0c"/>
        </g>
        <g id="_Repetición_radial_-12" data-name="&amp;lt;Repetición radial&amp;gt;">
          <circle cx="53.148" cy="71.008" r=".313" fill="#0c0c0c"/>
        </g>
        <g id="_Repetición_radial_-13" data-name="&amp;lt;Repetición radial&amp;gt;">
          <circle cx="54.663" cy="72.51" r=".313" fill="#0c0c0c"/>
        </g>
        <g id="_Repetición_radial_-14" data-name="&amp;lt;Repetición radial&amp;gt;">
          <circle cx="55.535" cy="74.458" r=".313" fill="#0c0c0c"/>
        </g>
        <g id="_Repetición_radial_-15" data-name="&amp;lt;Repetición radial&amp;gt;">
          <circle cx="55.643" cy="76.59" r=".313" fill="#0c0c0c"/>
        </g>
        <g id="_Repetición_radial_-16" data-name="&amp;lt;Repetición radial&amp;gt;">
          <circle cx="54.975" cy="78.616" r=".313" fill="#0c0c0c"/>
        </g>
        <g id="_Repetición_radial_-17" data-name="&amp;lt;Repetición radial&amp;gt;">
          <circle cx="53.619" cy="80.264" r=".313" fill="#0c0c0c"/>
        </g>
      </g>
      <g>
        <g id="_Repetición_radial_-18" data-name="&amp;lt;Repetición radial&amp;gt;">
          <circle cx="52.076" cy="80.002" r=".25" fill="#0c0c0c"/>
        </g>
        <g id="_Repetición_radial_-19" data-name="&amp;lt;Repetición radial&amp;gt;">
          <circle cx="50.451" cy="80.515" r=".25" fill="#0c0c0c"/>
        </g>
        <g id="_Repetición_radial_-20" data-name="&amp;lt;Repetición radial&amp;gt;">
          <circle cx="48.749" cy="80.408" r=".25" fill="#0c0c0c"/>
        </g>
        <g id="_Repetición_radial_-21" data-name="&amp;lt;Repetición radial&amp;gt;">
          <circle cx="47.202" cy="79.694" r=".25" fill="#0c0c0c"/>
        </g>
        <g id="_Repetición_radial_-22" data-name="&amp;lt;Repetición radial&amp;gt;">
          <circle cx="46.018" cy="78.468" r=".25" fill="#0c0c0c"/>
        </g>
        <g id="_Repetición_radial_-23" data-name="&amp;lt;Repetición radial&amp;gt;">
          <circle cx="45.356" cy="76.897" r=".25" fill="#0c0c0c"/>
        </g>
        <g id="_Repetición_radial_-24" data-name="&amp;lt;Repetición radial&amp;gt;">
          <circle cx="45.306" cy="75.193" r=".25" fill="#0c0c0c"/>
        </g>
        <g id="_Repetición_radial_-25" data-name="&amp;lt;Repetición radial&amp;gt;">
          <circle cx="45.876" cy="73.587" r=".25" fill="#0c0c0c"/>
        </g>
        <g id="_Repetición_radial_-26" data-name="&amp;lt;Repetición radial&amp;gt;">
          <circle cx="46.986" cy="72.295" r=".25" fill="#0c0c0c"/>
        </g>
        <g id="_Repetición_radial_-27" data-name="&amp;lt;Repetición radial&amp;gt;">
          <circle cx="48.489" cy="71.491" r=".25" fill="#0c0c0c"/>
        </g>
        <g id="_Repetición_radial_-28" data-name="&amp;lt;Repetición radial&amp;gt;">
          <circle cx="50.181" cy="71.284" r=".25" fill="#0c0c0c"/>
        </g>
        <g id="_Repetición_radial_-29" data-name="&amp;lt;Repetición radial&amp;gt;">
          <circle cx="51.833" cy="71.703" r=".25" fill="#0c0c0c"/>
        </g>
        <g id="_Repetición_radial_-30" data-name="&amp;lt;Repetición radial&amp;gt;">
          <circle cx="53.222" cy="72.689" r=".25" fill="#0c0c0c"/>
        </g>
        <g id="_Repetición_radial_-31" data-name="&amp;lt;Repetición radial&amp;gt;">
          <circle cx="54.161" cy="74.112" r=".25" fill="#0c0c0c"/>
        </g>
        <g id="_Repetición_radial_-32" data-name="&amp;lt;Repetición radial&amp;gt;">
          <circle cx="54.523" cy="75.777" r=".25" fill="#0c0c0c"/>
        </g>
        <g id="_Repetición_radial_-33" data-name="&amp;lt;Repetición radial&amp;gt;">
          <circle cx="54.26" cy="77.461" r=".25" fill="#0c0c0c"/>
        </g>
        <g id="_Repetición_radial_-34" data-name="&amp;lt;Repetición radial&amp;gt;">
          <circle cx="53.406" cy="78.935" r=".25" fill="#0c0c0c"/>
        </g>
      </g>
      <g>
        <g id="_Repetición_radial_-35" data-name="&amp;lt;Repetición radial&amp;gt;">
          <circle cx="53.675" cy="81.916" r=".387" fill="#0c0c0c"/>
        </g>
        <g id="_Repetición_radial_-36" data-name="&amp;lt;Repetición radial&amp;gt;">
          <circle cx="51.215" cy="82.873" r=".387" fill="#0c0c0c"/>
        </g>
        <g id="_Repetición_radial_-37" data-name="&amp;lt;Repetición radial&amp;gt;">
          <circle cx="48.575" cy="82.875" r=".387" fill="#0c0c0c"/>
        </g>
        <g id="_Repetición_radial_-38" data-name="&amp;lt;Repetición radial&amp;gt;">
          <circle cx="46.113" cy="81.923" r=".387" fill="#0c0c0c"/>
        </g>
        <g id="_Repetición_radial_-39" data-name="&amp;lt;Repetición radial&amp;gt;">
          <circle cx="44.161" cy="80.148" r=".387" fill="#0c0c0c"/>
        </g>
        <g id="_Repetición_radial_-40" data-name="&amp;lt;Repetición radial&amp;gt;">
          <circle cx="42.982" cy="77.785" r=".387" fill="#0c0c0c"/>
        </g>
        <g id="_Repetición_radial_-41" data-name="&amp;lt;Repetición radial&amp;gt;">
          <circle cx="42.736" cy="75.158" r=".387" fill="#0c0c0c"/>
        </g>
        <g id="_Repetición_radial_-42" data-name="&amp;lt;Repetición radial&amp;gt;">
          <circle cx="43.455" cy="72.619" r=".387" fill="#0c0c0c"/>
        </g>
        <g id="_Repetición_radial_-43" data-name="&amp;lt;Repetición radial&amp;gt;">
          <circle cx="45.043" cy="70.511" r=".387" fill="#0c0c0c"/>
        </g>
        <g id="_Repetición_radial_-44" data-name="&amp;lt;Repetición radial&amp;gt;">
          <circle cx="47.286" cy="69.119" r=".387" fill="#0c0c0c"/>
        </g>
        <g id="_Repetición_radial_-45" data-name="&amp;lt;Repetición radial&amp;gt;">
          <circle cx="49.88" cy="68.631" r=".387" fill="#0c0c0c"/>
        </g>
        <g id="_Repetición_radial_-46" data-name="&amp;lt;Repetición radial&amp;gt;">
          <circle cx="52.475" cy="69.114" r=".387" fill="#0c0c0c"/>
        </g>
        <g id="_Repetición_radial_-47" data-name="&amp;lt;Repetición radial&amp;gt;">
          <circle cx="54.72" cy="70.501" r=".387" fill="#0c0c0c"/>
        </g>
        <g id="_Repetición_radial_-48" data-name="&amp;lt;Repetición radial&amp;gt;">
          <circle cx="56.313" cy="72.605" r=".387" fill="#0c0c0c"/>
        </g>
        <g id="_Repetición_radial_-49" data-name="&amp;lt;Repetición radial&amp;gt;">
          <circle cx="57.039" cy="75.143" r=".387" fill="#0c0c0c"/>
        </g>
        <g id="_Repetición_radial_-50" data-name="&amp;lt;Repetición radial&amp;gt;">
          <circle cx="56.798" cy="77.771" r=".387" fill="#0c0c0c"/>
        </g>
        <g id="_Repetición_radial_-51" data-name="&amp;lt;Repetición radial&amp;gt;">
          <circle cx="55.625" cy="80.135" r=".387" fill="#0c0c0c"/>
        </g>
      </g>
    </g>
  </g>
  <g id="Suelo">
    <line x1="33.116" y1="67.216" x2="66.959" y2="67.216" fill="none" stroke="#0c0d0b" stroke-miterlimit="10" stroke-width="2.015"/>
    <line x1="33.187" y1="67.359" x2="67.03" y2="67.359" fill="none" stroke="#e9a000" stroke-dasharray=".403 .202" stroke-miterlimit="10" stroke-width=".403"/>
  </g>
  <g id="tallos">
    <line x1="49.896" y1="66.853" x2="49.896" y2="9.105" fill="none" stroke="#0c0d0b" stroke-miterlimit="10" stroke-width=".403"/>
  </g>
  <g id="Hojas">
    <path d="M50.263,43.544h-8.388s.607,2.666,2.96,3.842c2.352,1.176,4.818.239,4.818.239h.615s2.465.938,4.818-.239c2.352-1.176,2.96-3.842,2.96-3.842h-7.781ZM50.006,43.706h-.092c.015-.001.031-.004.046-.004s.031.003.046.004ZM49.934,47.384h.052c-.009,0-.017.003-.026.003s-.017-.002-.026-.003Z" fill="#0c0d0b"/>
    <path d="M50.263,49.266h-8.388s.607,2.666,2.96,3.842c2.352,1.176,4.818.239,4.818.239h.615s2.465.938,4.818-.239c2.352-1.176,2.96-3.842,2.96-3.842h-7.781ZM50.006,49.428h-.092c.015-.001.031-.004.046-.004s.031.003.046.004ZM49.934,53.106h.052c-.009,0-.017.003-.026.003s-.017-.002-.026-.003Z" fill="#0c0d0b"/>
    <path d="M49.851,58.325c0-.163-1.058-6.349-11.558-2.198,0,0,2.523,3.581,5.535,5.372,2.108,1.254,4.215,1.178,5.29,1.02l.562-.067h.285c.48.126,3.175.673,5.909-.953,3.012-1.791,5.535-5.372,5.535-5.372-10.5-4.151-11.558,2.035-11.558,2.198Z" fill="#0c0d0b"/>
    <path d="M50.186,26.946h-6.243s.452,1.984,2.203,2.86c1.751.875,3.586.178,3.586.178h.458s1.835.698,3.586-.178c1.751-.875,2.203-2.86,2.203-2.86h-5.791ZM49.994,27.066h-.069c.011-.001.023-.003.034-.003s.023.002.034.003ZM49.941,29.804h.039c-.007,0-.013.002-.019.002s-.013-.002-.019-.002Z" fill="#0c0d0b"/>
    <path d="M50.186,32.668h-6.243s.452,1.984,2.203,2.86c1.751.875,3.586.178,3.586.178h.458s1.835.698,3.586-.178c1.751-.875,2.203-2.86,2.203-2.86h-5.791ZM49.994,32.788h-.069c.011-.001.023-.003.034-.003s.023.002.034.003ZM49.941,35.526h.039c-.007,0-.013.002-.019.002s-.013-.002-.019-.002Z" fill="#0c0d0b"/>
    <path d="M50.186,38.39h-6.243s.452,1.984,2.203,2.86c1.751.875,3.586.178,3.586.178h.458s1.835.698,3.586-.178c1.751-.875,2.203-2.86,2.203-2.86h-5.791ZM49.994,38.51h-.069c.011-.001.023-.003.034-.003s.023.002.034.003ZM49.941,41.248h.039c-.007,0-.013.002-.019.002s-.013-.002-.019-.002Z" fill="#0c0d0b"/>
  </g>
  <g id="Flores">
    <g>
      <path d="M49.739,5.802c0-.132-.857-5.142-9.362-1.78,0,0,2.044,2.901,4.483,4.351,2.113,1.256,4.225.864,4.752.737v10.408c-.409.031-.731.372-.731.788,0,.398.294.726.677.782-.541,2.737-2.959,4.808-5.852,4.808-3.279,0-5.949-2.659-5.966-5.934h1.182c.263,2.41,2.304,4.285,4.783,4.285,2.658,0,4.813-2.155,4.813-4.813s-2.155-4.813-4.813-4.813-4.813,2.155-4.813,4.813c0,.156.008.31.023.461h-1.241v.033c0,3.326,2.706,6.032,6.032,6.032,2.928,0,5.374-2.097,5.918-4.867.016,0,.032.002.048.002.437,0,.791-.354.791-.791,0-.394-.288-.719-.665-.78v-10.432c.389.102,2.603.596,4.818-.721,2.439-1.45,4.483-4.351,4.483-4.351-8.505-3.362-9.362,1.648-9.362,1.78Z" fill="#0c0d0b"/>
      <path d="M43.626,20.895c-.719-.005-1.284-.577-1.274-1.29.01-.718.588-1.287,1.301-1.281.709.006,1.289.595,1.283,1.303-.006.706-.592,1.274-1.31,1.269Z" fill="#f5df31"/>
    </g>
  </g>
</svg>