<?xml version="1.0" encoding="UTF-8"?>
<svg xmlns="http://www.w3.org/2000/svg" width="100" height="100" viewBox="0 0 100 100">
  <g id="background">
    <ellipse cx="50.5" cy="74.858" rx="9.5" ry="7.983" fill="#e9a000" opacity=".33"/>
  </g>
  <g id="root">
    <g>
      <path d="M56.861,71.549h4.358c.624,0,1.13.506,1.13,1.13v1.379c0,.624.506,1.13,1.13,1.13h.959c.624,0,1.13.506,1.13,1.13v1.638c0,.624.506,1.13,1.13,1.13h1.112" fill="none" stroke="#0c0d0b" stroke-miterlimit="10" stroke-width=".202"/>
      <path d="M57.288,76.642h3.566c.511,0,.925.414.925.925v1.128c0,.511.414.925.925.925h.785c.511,0,.925.414.925.925v1.34c0,.511.414.925.925.925h.91" fill="none" stroke="#0c0d0b" stroke-miterlimit="10" stroke-width=".165"/>
      <path d="M57.43,74.136h3.339c.478,0,.866.388.866.866v1.056c0,.478.388.866.866.866h.735c.478,0,.866.388.866.866v1.255c0,.478.388.866.866.866h.852" fill="none" stroke="#0c0d0b" stroke-miterlimit="10" stroke-width=".154"/>
      <path d="M51.671,82.001v1.917c0,.434.352.785.785.785h1.132c.434,0,.785.352.785.785v1.042c0,.434.352.785.785.785h5.572c.434,0,.785.352.785.785v2.29" fill="none" stroke="#0c0d0b" stroke-miterlimit="10" stroke-width=".165"/>
      <path d="M54.231,81.005h3.277c.389,0,.705.316.705.705v1.148c0,.389.316.705.705.705h2.321c.178,0,.349.067.48.188l3.32,3.084" fill="none" stroke="#0c0d0b" stroke-miterlimit="10" stroke-width=".165"/>
      <path d="M56.238,79.085h1.81c.287,0,.562.114.765.317l1.494,1.494c.203.203.478.317.765.317h1.034c.598,0,1.082.484,1.082,1.082v.065c0,.287.114.562.317.765l1.768,1.768" fill="none" stroke="#0c0d0b" stroke-miterlimit="10" stroke-width=".165"/>
    </g>
    <g>
      <path d="M44.135,71.549h-4.358c-.624,0-1.13.506-1.13,1.13v1.379c0,.624-.506,1.13-1.13,1.13h-.959c-.624,0-1.13.506-1.13,1.13v1.638c0,.624-.506,1.13-1.13,1.13h-1.112" fill="none" stroke="#0c0d0b" stroke-miterlimit="10" stroke-width=".202"/>
      <path d="M43.708,76.642h-3.566c-.511,0-.925.414-.925.925v1.128c0,.511-.414.925-.925.925h-.785c-.511,0-.925.414-.925.925v1.34c0,.511-.414.925-.925.925h-.91" fill="none" stroke="#0c0d0b" stroke-miterlimit="10" stroke-width=".165"/>
      <path d="M43.566,74.136h-3.339c-.478,0-.866.388-.866.866v1.056c0,.478-.388.866-.866.866h-.735c-.478,0-.866.388-.866.866v1.255c0,.478-.388.866-.866.866h-.852" fill="none" stroke="#0c0d0b" stroke-miterlimit="10" stroke-width=".154"/>
      <path d="M49.325,82.001v1.917c0,.434-.352.785-.785.785h-1.132c-.434,0-.785.352-.785.785v1.042c0,.434-.352.785-.785.785h-5.572c-.434,0-.785.352-.785.785v2.29" fill="none" stroke="#0c0d0b" stroke-miterlimit="10" stroke-width=".165"/>
      <path d="M46.765,81.005h-3.277c-.389,0-.705.316-.705.705v1.148c0,.389-.316.705-.705.705h-2.321c-.178,0-.349.067-.48.188l-3.32,3.084" fill="none" stroke="#0c0d0b" stroke-miterlimit="10" stroke-width=".165"/>
      <path d="M44.758,79.085h-1.81c-.287,0-.562.114-.765.317l-1.494,1.494c-.203.203-.478.317-.765.317h-1.034c-.598,0-1.082.484-1.082,1.082v.065c0,.287-.114.562-.317.765l-1.768,1.768" fill="none" stroke="#0c0d0b" stroke-miterlimit="10" stroke-width=".165"/>
    </g>
    <path d="M50.123,80.929c-.012-.047-.007,3.172-.003,4.982.001.663.539,1.199,1.202,1.199h0c.664,0,1.202.538,1.202,1.202v.877c0,.664-.538,1.202-1.202,1.202h-6.555c-.664,0-1.202.538-1.202,1.202v.703c0,.672.549,1.213,1.221,1.202,2.041-.033,5.924-.083,5.909.022-.02.142,0,4.519,0,4.519" fill="none" stroke="#0c0d0b" stroke-miterlimit="10" stroke-width=".165"/>
  </g>
  <g id="seed">
    <g>
      <path d="M51.746,72.176c.695,1.564.372,2.985-.59,4.319-.093.129-.208.245-.324.355-.099.093-.188.144-.274.143-.086,0-.175-.05-.274-.143-.116-.109-.231-.226-.324-.355-.962-1.334-1.285-2.756-.59-4.319-.513.848-.547,1.77-.358,2.713.133.663.448,1.251.831,1.802.3.431.658.746.688,1.281.002.036.004.194.027.226.023-.032.025-.19.027-.226.03-.535.388-.85.688-1.281.383-.551.698-1.139.831-1.802.19-.944.155-1.865-.358-2.713Z" fill="#0c0c0c"/>
      <circle cx="50.558" cy="72.275" r=".435" fill="#f29100"/>
      <circle cx="50.558" cy="73.609" r=".435" fill="#f8b133"/>
      <circle cx="50.558" cy="74.942" r=".435" fill="#f3980f"/>
      <g>
        <g id="_Repetición_radial_" data-name="&amp;lt;Repetición radial&amp;gt;">
          <circle cx="52.254" cy="80.311" r=".313" fill="#0c0c0c"/>
        </g>
        <g id="_Repetición_radial_-2" data-name="&amp;lt;Repetición radial&amp;gt;">
          <circle cx="50.142" cy="80.616" r=".313" fill="#0c0c0c"/>
        </g>
        <g id="_Repetición_radial_-3" data-name="&amp;lt;Repetición radial&amp;gt;">
          <circle cx="48.062" cy="80.136" r=".313" fill="#0c0c0c"/>
        </g>
        <g id="_Repetición_radial_-4" data-name="&amp;lt;Repetición radial&amp;gt;">
          <circle cx="46.296" cy="78.939" r=".313" fill="#0c0c0c"/>
        </g>
        <g id="_Repetición_radial_-5" data-name="&amp;lt;Repetición radial&amp;gt;">
          <circle cx="45.082" cy="77.182" r=".313" fill="#0c0c0c"/>
        </g>
        <g id="_Repetición_radial_-6" data-name="&amp;lt;Repetición radial&amp;gt;">
          <circle cx="44.584" cy="75.108" r=".313" fill="#0c0c0c"/>
        </g>
        <g id="_Repetición_radial_-7" data-name="&amp;lt;Repetición radial&amp;gt;">
          <circle cx="44.869" cy="72.993" r=".313" fill="#0c0c0c"/>
        </g>
        <g id="_Repetición_radial_-8" data-name="&amp;lt;Repetición radial&amp;gt;">
          <circle cx="45.899" cy="71.124" r=".313" fill="#0c0c0c"/>
        </g>
        <g id="_Repetición_radial_-9" data-name="&amp;lt;Repetición radial&amp;gt;">
          <circle cx="47.535" cy="69.753" r=".313" fill="#0c0c0c"/>
        </g>
        <g id="_Repetición_radial_-10" data-name="&amp;lt;Repetición radial&amp;gt;">
          <circle cx="49.555" cy="69.066" r=".313" fill="#0c0c0c"/>
        </g>
        <g id="_Repetición_radial_-11" data-name="&amp;lt;Repetición radial&amp;gt;">
          <circle cx="51.688" cy="69.154" r=".313" fill="#0c0c0c"/>
        </g>
        <g id="_Repetición_radial_-12" data-name="&amp;lt;Repetición radial&amp;gt;">
          <circle cx="53.644" cy="70.008" r=".313" fill="#0c0c0c"/>
        </g>
        <g id="_Repetición_radial_-13" data-name="&amp;lt;Repetición radial&amp;gt;">
          <circle cx="55.16" cy="71.51" r=".313" fill="#0c0c0c"/>
        </g>
        <g id="_Repetición_radial_-14" data-name="&amp;lt;Repetición radial&amp;gt;">
          <circle cx="56.03" cy="73.458" r=".313" fill="#0c0c0c"/>
        </g>
        <g id="_Repetición_radial_-15" data-name="&amp;lt;Repetición radial&amp;gt;">
          <circle cx="56.14" cy="75.589" r=".313" fill="#0c0c0c"/>
        </g>
        <g id="_Repetición_radial_-16" data-name="&amp;lt;Repetición radial&amp;gt;">
          <circle cx="55.47" cy="77.616" r=".313" fill="#0c0c0c"/>
        </g>
        <g id="_Repetición_radial_-17" data-name="&amp;lt;Repetición radial&amp;gt;">
          <circle cx="54.115" cy="79.264" r=".313" fill="#0c0c0c"/>
        </g>
      </g>
      <g>
        <g id="_Repetición_radial_-18" data-name="&amp;lt;Repetición radial&amp;gt;">
          <circle cx="52.571" cy="79.001" r=".25" fill="#0c0c0c"/>
        </g>
        <g id="_Repetición_radial_-19" data-name="&amp;lt;Repetición radial&amp;gt;">
          <circle cx="50.947" cy="79.516" r=".25" fill="#0c0c0c"/>
        </g>
        <g id="_Repetición_radial_-20" data-name="&amp;lt;Repetición radial&amp;gt;">
          <circle cx="49.246" cy="79.407" r=".25" fill="#0c0c0c"/>
        </g>
        <g id="_Repetición_radial_-21" data-name="&amp;lt;Repetición radial&amp;gt;">
          <circle cx="47.698" cy="78.693" r=".25" fill="#0c0c0c"/>
        </g>
        <g id="_Repetición_radial_-22" data-name="&amp;lt;Repetición radial&amp;gt;">
          <circle cx="46.514" cy="77.467" r=".25" fill="#0c0c0c"/>
        </g>
        <g id="_Repetición_radial_-23" data-name="&amp;lt;Repetición radial&amp;gt;">
          <circle cx="45.852" cy="75.896" r=".25" fill="#0c0c0c"/>
        </g>
        <g id="_Repetición_radial_-24" data-name="&amp;lt;Repetición radial&amp;gt;">
          <circle cx="45.802" cy="74.194" r=".25" fill="#0c0c0c"/>
        </g>
        <g id="_Repetición_radial_-25" data-name="&amp;lt;Repetición radial&amp;gt;">
          <circle cx="46.371" cy="72.587" r=".25" fill="#0c0c0c"/>
        </g>
        <g id="_Repetición_radial_-26" data-name="&amp;lt;Repetición radial&amp;gt;">
          <circle cx="47.482" cy="71.295" r=".25" fill="#0c0c0c"/>
        </g>
        <g id="_Repetición_radial_-27" data-name="&amp;lt;Repetición radial&amp;gt;">
          <circle cx="48.985" cy="70.491" r=".25" fill="#0c0c0c"/>
        </g>
        <g id="_Repetición_radial_-28" data-name="&amp;lt;Repetición radial&amp;gt;">
          <circle cx="50.677" cy="70.284" r=".25" fill="#0c0c0c"/>
        </g>
        <g id="_Repetición_radial_-29" data-name="&amp;lt;Repetición radial&amp;gt;">
          <circle cx="52.329" cy="70.703" r=".25" fill="#0c0c0c"/>
        </g>
        <g id="_Repetición_radial_-30" data-name="&amp;lt;Repetición radial&amp;gt;">
          <circle cx="53.718" cy="71.689" r=".25" fill="#0c0c0c"/>
        </g>
        <g id="_Repetición_radial_-31" data-name="&amp;lt;Repetición radial&amp;gt;">
          <circle cx="54.656" cy="73.112" r=".25" fill="#0c0c0c"/>
        </g>
        <g id="_Repetición_radial_-32" data-name="&amp;lt;Repetición radial&amp;gt;">
          <circle cx="55.019" cy="74.777" r=".25" fill="#0c0c0c"/>
        </g>
        <g id="_Repetición_radial_-33" data-name="&amp;lt;Repetición radial&amp;gt;">
          <circle cx="54.755" cy="76.461" r=".25" fill="#0c0c0c"/>
        </g>
        <g id="_Repetición_radial_-34" data-name="&amp;lt;Repetición radial&amp;gt;">
          <circle cx="53.902" cy="77.935" r=".25" fill="#0c0c0c"/>
        </g>
      </g>
      <g>
        <g id="_Repetición_radial_-35" data-name="&amp;lt;Repetición radial&amp;gt;">
          <circle cx="54.171" cy="80.915" r=".387" fill="#0c0c0c"/>
        </g>
        <g id="_Repetición_radial_-36" data-name="&amp;lt;Repetición radial&amp;gt;">
          <circle cx="51.711" cy="81.872" r=".387" fill="#0c0c0c"/>
        </g>
        <g id="_Repetición_radial_-37" data-name="&amp;lt;Repetición radial&amp;gt;">
          <circle cx="49.072" cy="81.874" r=".387" fill="#0c0c0c"/>
        </g>
        <g id="_Repetición_radial_-38" data-name="&amp;lt;Repetición radial&amp;gt;">
          <circle cx="46.609" cy="80.924" r=".387" fill="#0c0c0c"/>
        </g>
        <g id="_Repetición_radial_-39" data-name="&amp;lt;Repetición radial&amp;gt;">
          <circle cx="44.657" cy="79.147" r=".387" fill="#0c0c0c"/>
        </g>
        <g id="_Repetición_radial_-40" data-name="&amp;lt;Repetición radial&amp;gt;">
          <circle cx="43.478" cy="76.786" r=".387" fill="#0c0c0c"/>
        </g>
        <g id="_Repetición_radial_-41" data-name="&amp;lt;Repetición radial&amp;gt;">
          <circle cx="43.232" cy="74.158" r=".387" fill="#0c0c0c"/>
        </g>
        <g id="_Repetición_radial_-42" data-name="&amp;lt;Repetición radial&amp;gt;">
          <circle cx="43.951" cy="71.619" r=".387" fill="#0c0c0c"/>
        </g>
        <g id="_Repetición_radial_-43" data-name="&amp;lt;Repetición radial&amp;gt;">
          <circle cx="45.54" cy="69.511" r=".387" fill="#0c0c0c"/>
        </g>
        <g id="_Repetición_radial_-44" data-name="&amp;lt;Repetición radial&amp;gt;">
          <circle cx="47.782" cy="68.119" r=".387" fill="#0c0c0c"/>
        </g>
        <g id="_Repetición_radial_-45" data-name="&amp;lt;Repetición radial&amp;gt;">
          <circle cx="50.376" cy="67.631" r=".387" fill="#0c0c0c"/>
        </g>
        <g id="_Repetición_radial_-46" data-name="&amp;lt;Repetición radial&amp;gt;">
          <circle cx="52.971" cy="68.114" r=".387" fill="#0c0c0c"/>
        </g>
        <g id="_Repetición_radial_-47" data-name="&amp;lt;Repetición radial&amp;gt;">
          <circle cx="55.217" cy="69.501" r=".387" fill="#0c0c0c"/>
        </g>
        <g id="_Repetición_radial_-48" data-name="&amp;lt;Repetición radial&amp;gt;">
          <circle cx="56.809" cy="71.605" r=".387" fill="#0c0c0c"/>
        </g>
        <g id="_Repetición_radial_-49" data-name="&amp;lt;Repetición radial&amp;gt;">
          <circle cx="57.535" cy="74.143" r=".387" fill="#0c0c0c"/>
        </g>
        <g id="_Repetición_radial_-50" data-name="&amp;lt;Repetición radial&amp;gt;">
          <circle cx="57.293" cy="76.771" r=".387" fill="#0c0c0c"/>
        </g>
        <g id="_Repetición_radial_-51" data-name="&amp;lt;Repetición radial&amp;gt;">
          <circle cx="56.121" cy="79.135" r=".387" fill="#0c0c0c"/>
        </g>
      </g>
    </g>
  </g>
  <g id="soil">
    <line x1="33.612" y1="66.216" x2="67.455" y2="66.216" fill="none" stroke="#0c0d0b" stroke-miterlimit="10" stroke-width="2.015"/>
    <line x1="33.683" y1="66.359" x2="67.526" y2="66.359" fill="none" stroke="#e9a000" stroke-dasharray=".403 .202" stroke-miterlimit="10" stroke-width=".403"/>
  </g>
  <g id="stem">
    <g>
      <line x1="50.776" y1="65.504" x2="50.776" y2="6.206" fill="none" stroke="#0c0d0b" stroke-miterlimit="10" stroke-width=".403"/>
      <path d="M40.314,19.714h4.458c.623,0,1.128.505,1.128,1.128v3.594c0,.623.505,1.128,1.128,1.128h7.597c.623,0,1.128-.505,1.128-1.128v-6.621c0-.623.505-1.128,1.128-1.128h4.356" fill="none" stroke="#0c0d0b" stroke-linejoin="round" stroke-width=".403"/>
      <path d="M37.699,39.454h5.572c.778,0,1.41-.631,1.41-1.41v-4.493c0-.778.631-1.41,1.41-1.41h9.496c.778,0,1.41.631,1.41,1.41v8.276c0,.778.631,1.41,1.41,1.41h5.445" fill="none" stroke="#0c0d0b" stroke-linejoin="round" stroke-width=".403"/>
    </g>
  </g>
  <g id="leaf">
    <path d="M52.973,27.361c-1.715.548-1.986,1.839-1.986,1.839h-.439s-.271-1.291-1.986-1.839-4.165.391-4.165.391c.931,2.543,3.599,2.66,3.599,2.66h5.544s2.668-.117,3.599-2.66c0,0-2.45-.939-4.165-.391Z" fill="#0c0d0b"/>
    <path d="M52.658,41.853c-1.47.469-1.702,1.576-1.702,1.576h-.376s-.232-1.107-1.702-1.576-3.57.335-3.57.335c.798,2.18,3.085,2.28,3.085,2.28h4.752s2.287-.101,3.085-2.28c0,0-2.1-.805-3.57-.335Z" fill="#0c0d0b"/>
    <path d="M50.954,18.272h-4.919s.356,1.564,1.736,2.253c1.38.69,2.825.14,2.825.14h.361s1.446.55,2.825-.14c1.38-.69,1.736-2.253,1.736-2.253h-4.563ZM50.803,18.366h-.054c.009,0,.018-.003.027-.003s.018.002.027.003ZM50.761,20.524h.031c-.005,0-.01.001-.015.001s-.01-.001-.015-.001Z" fill="#0c0d0b"/>
    <path d="M57.234,34.187h-4.919s.356,1.564,1.736,2.253c1.38.69,2.825.14,2.825.14h.361s1.446.55,2.825-.14c1.38-.69,1.736-2.253,1.736-2.253h-4.563ZM57.083,34.281h-.054c.009,0,.018-.003.027-.003s.018.002.027.003ZM57.04,36.439h.031c-.005,0-.01.001-.015.001s-.01-.001-.015-.001Z" fill="#0c0d0b"/>
    <path d="M55.952,21.564h-4.721s.342,1.501,1.666,2.163c1.324.662,2.712.134,2.712.134h.346s1.388.528,2.712-.134c1.324-.662,1.666-2.163,1.666-2.163h-4.38ZM55.807,21.655h-.052c.009,0,.017-.003.026-.003s.017.002.026.003ZM55.767,23.725h.029s-.01.001-.015.001-.01-.001-.015-.001Z" fill="#0c0d0b"/>
    <path d="M46.214,21.564h-4.721s.342,1.501,1.666,2.163c1.324.662,2.712.134,2.712.134h.346s1.388.528,2.712-.134c1.324-.662,1.666-2.163,1.666-2.163h-4.38ZM46.069,21.655h-.052c.009,0,.017-.003.026-.003s.017.002.026.003ZM46.029,23.725h.029s-.01.001-.015.001-.01-.001-.015-.001Z" fill="#0c0d0b"/>
    <path d="M45.22,34.187h-4.919s.356,1.564,1.736,2.253c1.38.69,2.825.14,2.825.14h.361s1.446.55,2.825-.14c1.38-.69,1.736-2.253,1.736-2.253h-4.563ZM45.069,34.281h-.054c.009,0,.018-.003.027-.003s.018.002.027.003ZM45.027,36.439h.031c-.005,0-.01.001-.015.001s-.01-.001-.015-.001Z" fill="#0c0d0b"/>
    <path d="M50.954,37.499h-4.919s.356,1.564,1.736,2.253c1.38.69,2.825.14,2.825.14h.361s1.446.55,2.825-.14c1.38-.69,1.736-2.253,1.736-2.253h-4.563ZM50.803,37.594h-.054c.009,0,.018-.003.027-.003s.018.002.027.003ZM50.761,39.751h.031c-.005,0-.01.001-.015.001s-.01-.001-.015-.001Z" fill="#0c0d0b"/>
    <path d="M50.826,47.81c0-.123-.8-4.798-8.735-1.661,0,0,1.907,2.707,4.183,4.06,1.593.947,3.185.89,3.998.771l.425-.05h.216c.363.095,2.4.508,4.466-.72,2.276-1.353,4.183-4.06,4.183-4.06-7.935-3.137-8.735,1.538-8.735,1.661Z" fill="#0c0d0b"/>
  </g>
  <g id="flower">
    <g>
      <path d="M50.84,4.37c0-.078-.507-3.039-5.533-1.052,0,0,1.208,1.714,2.649,2.572,1.249.742,2.497.511,2.808.436v6.151c-.241.018-.432.22-.432.466,0,.235.174.429.4.462-.32,1.618-1.749,2.842-3.459,2.842-1.938,0-3.515-1.571-3.526-3.507h.699c.155,1.424,1.361,2.533,2.827,2.533,1.571,0,2.844-1.273,2.844-2.844s-1.273-2.844-2.844-2.844-2.844,1.273-2.844,2.844c0,.092.005.183.013.273h-.734v.019c0,1.966,1.599,3.565,3.565,3.565,1.73,0,3.176-1.239,3.498-2.877.009,0,.019.001.029.001.258,0,.468-.209.468-.468,0-.233-.17-.425-.393-.461v-6.165c.23.06,1.539.352,2.847-.426,1.442-.857,2.649-2.572,2.649-2.572-5.026-1.987-5.533.974-5.533,1.052Z" fill="#0c0d0b"/>
      <path d="M47.227,13.289c-.425-.003-.759-.341-.753-.762.006-.424.347-.761.769-.757.419.004.762.352.758.77-.004.417-.35.753-.774.75Z" fill="#f5df31"/>
    </g>
    <path d="M60.015,16.639c.005-.667.536-1.192,1.197-1.183.666.009,1.195.546,1.189,1.207-.005.658-.553,1.197-1.209,1.191-.656-.006-1.182-.549-1.178-1.216Z" fill="#e9a000"/>
    <path d="M39.083,20.006c.005-.667.536-1.192,1.197-1.183.666.009,1.195.546,1.189,1.207-.005.658-.553,1.197-1.209,1.191-.656-.006-1.182-.549-1.178-1.216Z" fill="#e9a000"/>
    <path d="M36.99,39.482c.005-.667.536-1.192,1.197-1.183.666.009,1.195.546,1.189,1.207-.005.658-.553,1.197-1.209,1.191-.656-.006-1.182-.549-1.178-1.216Z" fill="#e9a000"/>
    <path d="M62.563,43.214c.005-.667.536-1.192,1.197-1.183.666.009,1.195.546,1.189,1.207-.005.658-.553,1.197-1.209,1.191-.656-.006-1.182-.549-1.178-1.216Z" fill="#e9a000"/>
  </g>
</svg>