<?xml version="1.0" encoding="UTF-8"?>
<svg xmlns="http://www.w3.org/2000/svg" width="100" height="100" viewBox="0 0 100 100">
  <g id="tallos">
    <g>
      <line x1="49.696" y1="99.121" x2="49.696" y2="6.462" fill="none" stroke="#0c0d0b" stroke-miterlimit="10" stroke-width=".46"/>
      <path d="M33.349,27.57h6.966c.973,0,1.762.789,1.762,1.762v5.616c0,.973.789,1.762,1.762,1.762h11.871c.973,0,1.762-.789,1.762-1.762v-10.346c0-.973.789-1.762,1.762-1.762h6.807" fill="none" stroke="#0c0d0b" stroke-linejoin="round" stroke-width=".202"/>
      <path d="M29.263,58.415h8.707c1.216,0,2.203-.986,2.203-2.203v-7.021c0-1.216.986-2.203,2.203-2.203h14.838c1.216,0,2.203.986,2.203,2.203v12.932c0,1.216.986,2.203,2.203,2.203h8.508" fill="none" stroke="#0c0d0b" stroke-linejoin="round" stroke-width=".252"/>
    </g>
  </g>
  <g id="Hojas">
    <path d="M49.786,69.656c0-.162-1.055-6.332-11.527-2.192,0,0,2.516,3.572,5.52,5.358,2.102,1.25,4.203,1.175,5.275,1.017l.561-.067h.284c.479.126,3.166.671,5.893-.951,3.004-1.786,5.52-5.358,5.52-5.358-10.472-4.14-11.527,2.029-11.527,2.192Z" fill="#0c0d0b"/>
    <path d="M53.13,39.527c-2.68.658-3.103,2.21-3.103,2.21h-.686s-.423-1.552-3.103-2.21c-2.68-.658-6.509.47-6.509.47,1.455,3.056,5.623,3.198,5.623,3.198h8.663s4.168-.141,5.623-3.198c0,0-3.829-1.129-6.509-.47Z" fill="#0c0d0b"/>
    <path d="M52.638,61.39c-2.297.564-2.66,1.894-2.66,1.894h-.588s-.362-1.33-2.66-1.894c-2.297-.564-5.579.403-5.579.403,1.247,2.62,4.82,2.741,4.82,2.741h7.425s3.573-.121,4.82-2.741c0,0-3.282-.967-5.579-.403Z" fill="#0c0d0b"/>
    <path d="M49.975,26.329h-7.687s.556,1.879,2.712,2.709c2.156.829,4.415.168,4.415.168h.563s2.259.661,4.415-.168c2.156-.829,2.712-2.709,2.712-2.709h-7.131ZM49.739,26.443h-.084c.014,0,.028-.003.042-.003s.028.002.042.003ZM49.673,29.036h.048c-.008,0-.016.002-.024.002s-.016-.001-.024-.002Z" fill="#0c0d0b"/>
    <path d="M59.787,52.638h-7.687s.556,1.879,2.712,2.709c2.156.829,4.415.168,4.415.168h.563s2.259.661,4.415-.168c2.156-.829,2.712-2.709,2.712-2.709h-7.131ZM59.551,52.751h-.084c.014,0,.028-.003.042-.003s.028.002.042.003ZM59.485,55.344h.048c-.008,0-.016.002-.024.002s-.016-.001-.024-.002Z" fill="#0c0d0b"/>
    <path d="M57.785,31.654h-7.377s.534,1.804,2.603,2.599c2.069.796,4.237.161,4.237.161h.541s2.168.634,4.237-.161c2.069-.796,2.603-2.599,2.603-2.599h-6.843ZM57.559,31.763h-.081c.014,0,.027-.003.041-.003s.027.002.041.003ZM57.495,34.252h.046c-.008,0-.015.002-.023.002s-.015-.001-.023-.002Z" fill="#0c0d0b"/>
    <path d="M42.569,31.654h-7.377s.534,1.804,2.603,2.599c2.069.796,4.237.161,4.237.161h.541s2.168.634,4.237-.161c2.069-.796,2.603-2.599,2.603-2.599h-6.843ZM42.342,31.763h-.081c.014,0,.027-.003.041-.003s.027.002.041.003ZM42.279,34.252h.046c-.008,0-.015.002-.023.002s-.015-.001-.023-.002Z" fill="#0c0d0b"/>
    <path d="M41.016,52.638h-7.687s.556,1.879,2.712,2.709c2.156.829,4.415.168,4.415.168h.563s2.259.661,4.415-.168c2.156-.829,2.712-2.709,2.712-2.709h-7.131ZM40.78,52.751h-.084c.014,0,.028-.003.042-.003s.028.002.042.003ZM40.714,55.344h.048c-.008,0-.016.002-.024.002s-.016-.001-.024-.002Z" fill="#0c0d0b"/>
    <path d="M49.975,56.619h-7.687s.556,1.879,2.712,2.709c2.156.829,4.415.168,4.415.168h.563s2.259.661,4.415-.168c2.156-.829,2.712-2.709,2.712-2.709h-7.131ZM49.739,56.733h-.084c.014,0,.028-.003.042-.003s.028.002.042.003ZM49.673,59.326h.048c-.008,0-.016.002-.024.002s-.016-.001-.024-.002Z" fill="#0c0d0b"/>
  </g>
  <g id="Flores">
    <g>
      <path d="M49.797,3.593c0-.122-.791-4.749-8.645-1.644,0,0,1.887,2.679,4.14,4.018,1.951,1.16,3.901.798,4.389.681v9.611c-.377.029-.675.343-.675.728,0,.368.272.671.625.722-.499,2.528-2.732,4.44-5.404,4.44-3.028,0-5.493-2.455-5.51-5.479h1.092c.243,2.225,2.127,3.957,4.417,3.957,2.455,0,4.444-1.99,4.444-4.444s-1.99-4.444-4.444-4.444-4.444,1.99-4.444,4.444c0,.144.007.286.021.426h-1.146v.03c0,3.072,2.499,5.571,5.571,5.571,2.704,0,4.963-1.936,5.465-4.495.015,0,.03.002.045.002.403,0,.731-.327.731-.731,0-.364-.266-.664-.614-.72V6.633c.359.094,2.404.551,4.449-.665,2.253-1.339,4.14-4.018,4.14-4.018-7.854-3.105-8.645,1.522-8.645,1.644Z" fill="#0c0d0b"/>
      <path d="M44.152,17.531c-.664-.005-1.186-.533-1.177-1.191.009-.663.543-1.189,1.201-1.183.654.005,1.191.55,1.185,1.203-.006.652-.546,1.176-1.209,1.171Z" fill="#f5df31"/>
    </g>
    <path d="M64.134,22.765c.007-1.042.837-1.862,1.871-1.848,1.041.014,1.867.852,1.858,1.887-.009,1.028-.864,1.87-1.889,1.861-1.025-.009-1.847-.858-1.84-1.9Z" fill="#e9a000"/>
    <path d="M31.426,28.027c.007-1.042.837-1.862,1.871-1.848,1.041.014,1.867.852,1.858,1.887-.009,1.028-.864,1.87-1.889,1.861-1.025-.009-1.847-.858-1.84-1.9Z" fill="#e9a000"/>
    <path d="M28.155,58.46c.007-1.042.837-1.862,1.871-1.848,1.041.014,1.867.852,1.858,1.887-.009,1.028-.864,1.87-1.889,1.861-1.025-.009-1.847-.858-1.84-1.9Z" fill="#e9a000"/>
    <path d="M68.116,64.29c.007-1.042.837-1.862,1.871-1.848,1.041.014,1.867.852,1.858,1.887-.009,1.028-.864,1.87-1.889,1.861-1.025-.009-1.847-.858-1.84-1.9Z" fill="#e9a000"/>
  </g>
</svg>