<?xml version="1.0" encoding="UTF-8"?>
<svg xmlns="http://www.w3.org/2000/svg" width="100" height="100" viewBox="0 0 100 100">
  <g id="tallos">
    <g>
      <line x1="49.691" y1="99.995" x2="49.691" y2="5.688" fill="none" stroke="#0c0d0b" stroke-miterlimit="10" stroke-width=".468"/>
      <path d="M33.053,27.171h7.09c.99,0,1.793.803,1.793,1.793v5.716c0,.99.803,1.793,1.793,1.793h12.082c.99,0,1.793-.803,1.793-1.793v-10.53c0-.99.803-1.793,1.793-1.793h6.928" fill="none" stroke="#0c0d0b" stroke-linejoin="round" stroke-width=".205"/>
      <path d="M28.894,58.565h8.862c1.238,0,2.242-1.004,2.242-2.242v-7.146c0-1.238,1.004-2.242,2.242-2.242h15.102c1.238,0,2.242,1.004,2.242,2.242v13.162c0,1.238,1.004,2.242,2.242,2.242h8.66" fill="none" stroke="#0c0d0b" stroke-linejoin="round" stroke-width=".256"/>
    </g>
  </g>
  <g id="Hojas">
    <path d="M53.186,40.019c-2.728.67-3.158,2.249-3.158,2.249h-.698s-.43-1.579-3.158-2.249-6.625.479-6.625.479c1.481,3.111,5.723,3.254,5.723,3.254h8.817s4.243-.144,5.723-3.254c0,0-3.897-1.149-6.625-.479Z" fill="#0c0d0b"/>
    <path d="M52.96,24.188c-2.728.67-3.158,2.249-3.158,2.249h-.698s-.43-1.579-3.158-2.249c-2.728-.67-6.625.479-6.625.479,1.481,3.111,5.723,3.254,5.723,3.254h8.817s4.243-.144,5.723-3.254c0,0-3.897-1.149-6.625-.479Z" fill="#0c0d0b"/>
    <path d="M49.556,82.462c0-.165-1.074-6.444-11.732-2.231,0,0,2.561,3.635,5.618,5.453,2.14,1.272,4.278,1.196,5.369,1.035l.571-.068h.289c.488.128,3.223.683,5.998-.967,3.057-1.818,5.618-5.453,5.618-5.453-10.658-4.214-11.732,2.066-11.732,2.231Z" fill="#0c0d0b"/>
    <path d="M49.748,60.356h-7.824s.566,1.913,2.76,2.757c2.194.844,4.494.171,4.494.171h.573s2.299.673,4.494-.171c2.194-.844,2.76-2.757,2.76-2.757h-7.257ZM49.508,60.471h-.086c.014,0,.028-.003.043-.003s.029.002.043.003ZM49.441,63.111h.049c-.008,0-.016.002-.024.002s-.016-.001-.024-.002Z" fill="#0c0d0b"/>
    <path d="M51.331,70.307h-7.824s.566,1.913,2.76,2.757c2.194.844,4.494.171,4.494.171h.573s2.299.673,4.494-.171c2.194-.844,2.76-2.757,2.76-2.757h-7.257ZM51.091,70.422h-.086c.014,0,.028-.003.043-.003s.029.002.043.003ZM51.024,73.061h.049c-.008,0-.016.002-.024.002s-.016-.001-.024-.002Z" fill="#0c0d0b"/>
    <path d="M59.961,52.685h-7.824s.566,1.913,2.76,2.757c2.194.844,4.494.171,4.494.171h.573s2.299.673,4.494-.171c2.194-.844,2.76-2.757,2.76-2.757h-7.257ZM59.721,52.8h-.086c.014,0,.028-.003.043-.003s.029.002.043.003ZM59.654,55.439h.049c-.008,0-.016.002-.024.002s-.016-.001-.024-.002Z" fill="#0c0d0b"/>
    <path d="M40.856,52.685h-7.824s.566,1.913,2.76,2.757c2.194.844,4.494.171,4.494.171h.573s2.299.673,4.494-.171c2.194-.844,2.76-2.757,2.76-2.757h-7.257ZM40.616,52.8h-.086c.014,0,.028-.003.043-.003s.029.002.043.003ZM40.549,55.439h.049c-.008,0-.016.002-.024.002s-.016-.001-.024-.002Z" fill="#0c0d0b"/>
  </g>
  <g id="Flores">
    <g>
      <path d="M49.793,2.767c0-.124-.806-4.833-8.799-1.673,0,0,1.921,2.726,4.214,4.09,1.986,1.181,3.971.813,4.467.693v9.782c-.384.029-.687.349-.687.741,0,.374.277.683.636.735-.508,2.573-2.781,4.519-5.501,4.519-3.082,0-5.591-2.499-5.608-5.577h1.111c.247,2.265,2.165,4.028,4.496,4.028,2.498,0,4.523-2.025,4.523-4.523s-2.025-4.523-4.523-4.523-4.523,2.025-4.523,4.523c0,.146.008.291.021.434h-1.167v.031c0,3.126,2.543,5.67,5.67,5.67,2.752,0,5.051-1.971,5.563-4.575.015,0,.03.002.045.002.411,0,.744-.333.744-.744,0-.37-.271-.676-.625-.733V5.861c.366.096,2.447.56,4.529-.677,2.293-1.363,4.214-4.09,4.214-4.09-7.994-3.16-8.799,1.549-8.799,1.673Z" fill="#0c0d0b"/>
      <path d="M44.048,16.953c-.675-.005-1.207-.542-1.198-1.212.009-.675.552-1.21,1.223-1.204.666.006,1.212.56,1.206,1.224-.006.664-.556,1.197-1.231,1.192Z" fill="#f5df31"/>
    </g>
    <path d="M64.385,22.281c.007-1.061.852-1.895,1.904-1.881,1.06.014,1.9.868,1.891,1.92-.009,1.046-.879,1.903-1.923,1.894-1.043-.009-1.88-.874-1.873-1.933Z" fill="#e9a000"/>
    <path d="M31.095,27.636c.007-1.061.852-1.895,1.904-1.881,1.06.014,1.9.868,1.891,1.92-.009,1.046-.879,1.903-1.923,1.894-1.043-.009-1.88-.874-1.873-1.933Z" fill="#e9a000"/>
    <path d="M27.766,58.61c.007-1.061.852-1.895,1.904-1.881,1.06.014,1.9.868,1.891,1.92-.009,1.046-.879,1.903-1.923,1.894-1.043-.009-1.88-.874-1.873-1.933Z" fill="#e9a000"/>
    <path d="M68.438,64.544c.007-1.061.852-1.895,1.904-1.881,1.06.014,1.9.868,1.891,1.92-.009,1.046-.879,1.903-1.923,1.894-1.043-.009-1.88-.874-1.873-1.933Z" fill="#e9a000"/>
  </g>
</svg>