<?xml version="1.0" encoding="UTF-8"?>
<svg xmlns="http://www.w3.org/2000/svg" width="100" height="100" viewBox="0 0 100 100">
  <g id="tallos">
    <g>
      <line x1="50.011" y1="99.995" x2="50.011" y2="8.563" fill="none" stroke="#0c0d0b" stroke-miterlimit="10" stroke-width=".454"/>
      <path d="M45.311,29.191v6.873c0,.96-.778,1.739-1.739,1.739h-5.542c-.96,0-1.739.778-1.739,1.739v11.713c0,.96.778,1.739,1.739,1.739h10.209c.96,0,1.739.778,1.739,1.739v6.717" fill="none" stroke="#0c0d0b" stroke-linejoin="round" stroke-width=".199"/>
      <path d="M54.709,29.191v6.873c0,.96.778,1.739,1.739,1.739h5.542c.96,0,1.739.778,1.739,1.739v11.713c0,.96-.778,1.739-1.739,1.739h-10.209c-.96,0-1.739.778-1.739,1.739v6.717" fill="none" stroke="#0c0d0b" stroke-linejoin="round" stroke-width=".199"/>
    </g>
  </g>
  <g id="Hojas">
    <path d="M49.96,71.622c0-.16-1.041-6.248-11.374-2.163,0,0,2.483,3.524,5.447,5.287,2.075,1.234,4.148,1.159,5.205,1.004l.554-.066h.281c.473.124,3.125.662,5.815-.938,2.964-1.762,5.447-5.287,5.447-5.287-10.333-4.085-11.374,2.003-11.374,2.163Z" fill="#0c0d0b"/>
    <path d="M53.4,60.808c-2.645.65-3.062,2.181-3.062,2.181h-.677s-.417-1.531-3.062-2.181-6.423.464-6.423.464c1.436,3.016,5.549,3.155,5.549,3.155h8.548s4.113-.139,5.549-3.155c0,0-3.778-1.114-6.423-.464Z" fill="#0c0d0b"/>
    <path d="M53.4,21.727c-2.645.65-3.062,2.181-3.062,2.181h-.677s-.417-1.531-3.062-2.181-6.423.464-6.423.464c1.436,3.016,5.549,3.155,5.549,3.155h8.548s4.113-.139,5.549-3.155c0,0-3.778-1.114-6.423-.464Z" fill="#0c0d0b"/>
    <path d="M39.648,48.122c-2.645.65-3.062,2.181-3.062,2.181h-.677s-.417-1.531-3.062-2.181-6.423.464-6.423.464c1.436,3.016,5.549,3.155,5.549,3.155h8.548s4.113-.139,5.549-3.155c0,0-3.778-1.114-6.423-.464Z" fill="#0c0d0b"/>
    <path d="M39.648,40.825c-2.645.65-3.062,2.181-3.062,2.181h-.677s-.417-1.531-3.062-2.181-6.423.464-6.423.464c1.436,3.016,5.549,3.155,5.549,3.155h8.548s4.113-.139,5.549-3.155c0,0-3.778-1.114-6.423-.464Z" fill="#0c0d0b"/>
    <path d="M67.152,48.122c-2.645.65-3.062,2.181-3.062,2.181h-.677s-.417-1.531-3.062-2.181-6.423.464-6.423.464c1.436,3.016,5.549,3.155,5.549,3.155h8.548s4.113-.139,5.549-3.155c0,0-3.778-1.114-6.423-.464Z" fill="#0c0d0b"/>
    <path d="M67.152,40.825c-2.645.65-3.062,2.181-3.062,2.181h-.677s-.417-1.531-3.062-2.181-6.423.464-6.423.464c1.436,3.016,5.549,3.155,5.549,3.155h8.548s4.113-.139,5.549-3.155c0,0-3.778-1.114-6.423-.464Z" fill="#0c0d0b"/>
  </g>
  <g id="Flores">
    <g>
      <path d="M57.281,10.518h-.275c-.078,3.627-3.053,6.553-6.698,6.553-3.694,0-6.7-3.006-6.7-6.7,0-3.648,2.931-6.625,6.562-6.699v1.182c-2.984.074-5.381,2.514-5.381,5.516,0,3.048,2.471,5.52,5.52,5.52s5.52-2.471,5.52-5.52c0-3.002-2.397-5.442-5.381-5.516v-1.461h-.138c-3.847,0-6.977,3.13-6.977,6.977s3.13,6.977,6.977,6.977c3.798,0,6.895-3.051,6.973-6.83Z" fill="#0c0d0b"/>
      <g>
        <g>
          <path d="M64.046,3.675c-1.269-1.827-3.246-3.16-5.613-3.553-3.21-.533-6.298.8-8.158,3.205v10.036h-10.664c-.134-.82-.859-1.461-1.727-1.468-.973-.008-1.762.759-1.775,1.726-.013.96.758,1.731,1.739,1.737.98.007,1.778-.757,1.787-1.709,0-.003,0-.006,0-.009h23.05s0-.277,0-.277h-12.185s13.547-9.688,13.547-9.688Z" fill="#0c0c0c"/>
          <path d="M35.981,13.617c.007-1.029.826-1.837,1.846-1.824,1.027.014,1.842.841,1.834,1.862-.008,1.014-.852,1.845-1.864,1.836-1.011-.009-1.823-.847-1.816-1.874Z" fill="#e9a000"/>
        </g>
        <path d="M53.41,5.783c.007-1.029.826-1.837,1.846-1.824,1.027.014,1.842.841,1.834,1.862-.008,1.014-.852,1.845-1.864,1.836-1.011-.009-1.823-.847-1.816-1.874Z" fill="#e9a000"/>
      </g>
    </g>
    <path d="M43.349,29.843c.007-1.029.826-1.837,1.846-1.824,1.027.014,1.842.841,1.834,1.862-.008,1.014-.852,1.845-1.864,1.836-1.011-.009-1.823-.847-1.816-1.874Z" fill="#e9a000"/>
    <path d="M52.892,29.843c.007-1.029.826-1.837,1.846-1.824,1.027.014,1.842.841,1.834,1.862-.008,1.014-.852,1.845-1.864,1.836-1.011-.009-1.823-.847-1.816-1.874Z" fill="#e9a000"/>
  </g>
</svg>