<?xml version="1.0" encoding="UTF-8"?>
<svg xmlns="http://www.w3.org/2000/svg" width="100" height="100" viewBox="0 0 100 100">
  <g id="tallos">
    <line x1="50.554" y1="96.576" x2="50.554" y2="3.735" fill="none" stroke="#0c0d0b" stroke-miterlimit="10" stroke-width=".526"/>
  </g>
  <g id="Hojas">
    <path d="M50.485,86.834c0-.212-1.378-8.267-15.051-2.862,0,0,3.286,4.664,7.207,6.996,2.745,1.632,5.488,1.534,6.888,1.328l.732-.087h.371c.626.164,4.135.876,7.695-1.241,3.922-2.332,7.207-6.996,7.207-6.996-13.673-5.406-15.051,2.65-15.051,2.862Z" fill="#0c0d0b"/>
    <path d="M55.038,73.824c-3.499.86-4.051,2.886-4.051,2.886h-.896s-.552-2.026-4.051-2.886-8.499.614-8.499.614c1.9,3.991,7.342,4.175,7.342,4.175h11.311s5.443-.184,7.342-4.175c0,0-4.999-1.474-8.499-.614Z" fill="#0c0d0b"/>
    <path d="M54.908,66.805c-3.499.86-4.051,2.886-4.051,2.886h-.896s-.552-2.026-4.051-2.886-8.499.614-8.499.614c1.9,3.991,7.342,4.175,7.342,4.175h11.311s5.443-.184,7.342-4.175c0,0-4.999-1.474-8.499-.614Z" fill="#0c0d0b"/>
    <path d="M55.038,58.876c-3.499.86-4.051,2.886-4.051,2.886h-.896s-.552-2.026-4.051-2.886-8.499.614-8.499.614c1.9,3.991,7.342,4.175,7.342,4.175h11.311s5.443-.184,7.342-4.175c0,0-4.999-1.474-8.499-.614Z" fill="#0c0d0b"/>
    <path d="M55.038,51.207c-3.499.86-4.051,2.886-4.051,2.886h-.896s-.552-2.026-4.051-2.886-8.499.614-8.499.614c1.9,3.991,7.342,4.175,7.342,4.175h11.311s5.443-.184,7.342-4.175c0,0-4.999-1.474-8.499-.614Z" fill="#0c0d0b"/>
    <path d="M55.038,42.369c-3.499.86-4.051,2.886-4.051,2.886h-.896s-.552-2.026-4.051-2.886-8.499.614-8.499.614c1.9,3.991,7.342,4.175,7.342,4.175h11.311s5.443-.184,7.342-4.175c0,0-4.999-1.474-8.499-.614Z" fill="#0c0d0b"/>
  </g>
  <g id="Flores">
    <path d="M59.616,14.335h-.364c-.103,4.799-4.04,8.672-8.863,8.672-4.889,0-8.866-3.977-8.866-8.866,0-4.827,3.878-8.766,8.683-8.864v1.565c-3.949.098-7.121,3.327-7.121,7.299,0,4.034,3.27,7.304,7.304,7.304s7.304-3.27,7.304-7.304c0-3.972-3.172-7.202-7.121-7.299v-1.933h-.183c-5.091,0-9.232,4.141-9.232,9.232s4.141,9.232,9.232,9.232c5.026,0,9.123-4.037,9.227-9.038Z" fill="#0c0d0b"/>
    <g>
      <g>
        <path d="M68.568,5.28c-1.679-2.418-4.295-4.182-7.428-4.702-4.247-.705-8.334,1.058-10.795,4.241v13.281h-14.111c-.177-1.085-1.137-1.934-2.285-1.943-1.288-.011-2.332,1.004-2.349,2.283-.017,1.271,1.003,2.29,2.301,2.299,1.296.009,2.353-1.002,2.365-2.261,0-.004,0-.008,0-.012h30.5s0-.366,0-.366h-16.123s17.925-12.82,17.925-12.82Z" fill="#0c0c0c"/>
        <path d="M31.432,18.436c.01-1.361,1.093-2.431,2.443-2.413,1.359.018,2.438,1.113,2.426,2.464-.011,1.342-1.128,2.442-2.467,2.43-1.338-.012-2.412-1.121-2.402-2.48Z" fill="#e9a000"/>
      </g>
      <path d="M54.494,8.07c.01-1.361,1.093-2.431,2.443-2.413,1.359.018,2.438,1.113,2.426,2.464-.011,1.342-1.128,2.442-2.467,2.43-1.338-.012-2.412-1.121-2.402-2.48Z" fill="#e9a000"/>
    </g>
  </g>
</svg>