<?xml version="1.0" encoding="UTF-8"?>
<svg xmlns="http://www.w3.org/2000/svg" width="218.867" height="450" viewBox="0 0 218.867 450">
  <g id="tallos">
    <g>
      <line x1="109.484" y1="437.556" x2="109.484" y2="36.459" fill="none" stroke="#0c0d0b" stroke-miterlimit="10" stroke-width="1.992"/>
      <path d="M88.862,126.95v30.152c0,4.213-3.415,7.628-7.628,7.628h-24.312c-4.213,0-7.628,3.415-7.628,7.628v51.385c0,4.213,3.415,7.628,7.628,7.628h44.784c4.213,0,7.628,3.415,7.628,7.628v29.465" fill="none" stroke="#0c0d0b" stroke-linejoin="round" stroke-width=".872"/>
      <path d="M130.093,126.95v30.152c0,4.213,3.415,7.628,7.628,7.628h24.312c4.213,0,7.628,3.415,7.628,7.628v51.385c0,4.213-3.415,7.628-7.628,7.628h-44.784c-4.213,0-7.628,3.415-7.628,7.628v29.465" fill="none" stroke="#0c0d0b" stroke-linejoin="round" stroke-width=".872"/>
    </g>
  </g>
  <g id="Hojas">
    <path d="M124.35,265.647c-11.601,2.85-13.432,9.567-13.432,9.567h-2.969s-1.83-6.717-13.432-9.567c-11.601-2.85-28.175,2.036-28.175,2.036,6.298,13.231,24.342,13.841,24.342,13.841h37.498s18.044-.611,24.342-13.841c0,0-16.573-4.885-28.175-2.036Z" fill="#0c0d0b"/>
    <path d="M124.35,289.693c-11.601,2.85-13.432,9.567-13.432,9.567h-2.969s-1.83-6.717-13.432-9.567c-11.601-2.85-28.175,2.036-28.175,2.036,6.298,13.231,24.342,13.841,24.342,13.841h37.498s18.044-.611,24.342-13.841c0,0-16.573-4.885-28.175-2.036Z" fill="#0c0d0b"/>
    <path d="M124.35,242.332c-11.601,2.85-13.432,9.567-13.432,9.567h-2.969s-1.83-6.717-13.432-9.567c-11.601-2.85-28.175,2.036-28.175,2.036,6.298,13.231,24.342,13.841,24.342,13.841h37.498s18.044-.611,24.342-13.841c0,0-16.573-4.885-28.175-2.036Z" fill="#0c0d0b"/>
    <path d="M64.022,190.492c-11.601,2.85-13.432,9.567-13.432,9.567h-2.969s-1.83-6.717-13.432-9.567c-11.601-2.85-28.175,2.036-28.175,2.036,6.298,13.231,24.342,13.841,24.342,13.841h37.498s18.044-.611,24.342-13.841c0,0-16.573-4.885-28.175-2.036Z" fill="#0c0d0b"/>
    <path d="M184.677,190.492c-11.601,2.85-13.432,9.567-13.432,9.567h-2.969s-1.83-6.717-13.432-9.567c-11.601-2.85-28.175,2.036-28.175,2.036,6.298,13.231,24.342,13.841,24.342,13.841h37.498s18.044-.611,24.342-13.841c0,0-16.573-4.885-28.175-2.036Z" fill="#0c0d0b"/>
    <path d="M110.921,105.53h-33.275s2.408,8.135,11.74,11.725c9.332,3.589,19.111.728,19.111.728h2.439s9.78,2.861,19.111-.728c9.332-3.589,11.74-11.725,11.74-11.725h-30.867ZM109.9,106.022h-.365c.061-.004.121-.014.183-.014s.122.009.183.014ZM109.614,117.247h.207c-.035.001-.068.008-.103.008s-.069-.006-.103-.008Z" fill="#0c0d0b"/>
    <path d="M111.062,326.258h-49.912s3.612,12.203,17.61,17.587c13.998,5.384,28.667,1.092,28.667,1.092h3.658s14.67,4.292,28.667-1.092c13.998-5.384,17.61-17.587,17.61-17.587h-46.3ZM109.53,326.996h-.548c.091-.006.182-.02.274-.02s.183.014.274.02ZM109.101,343.833h.31c-.052.002-.103.012-.155.012s-.103-.009-.155-.012Z" fill="#0c0d0b"/>
  </g>
  <g id="Flores">
    <g>
      <path d="M109.998,24.04c0-.527-3.426-20.556-37.423-7.116,0,0,8.17,11.596,17.921,17.394,8.446,5.022,16.888,3.456,18.997,2.946v41.605c-1.633.124-2.921,1.485-2.921,3.15,0,1.591,1.176,2.904,2.706,3.126-2.162,10.942-11.828,19.221-23.395,19.221-13.107,0-23.779-10.628-23.85-23.719h4.726c1.05,9.633,9.209,17.13,19.121,17.13,10.625,0,19.239-8.613,19.239-19.239s-8.613-19.239-19.239-19.239-19.239,8.613-19.239,19.239c0,.623.032,1.237.09,1.845h-4.962v.132c0,13.297,10.818,24.114,24.114,24.114,11.703,0,21.483-8.382,23.659-19.457.064.004.128.01.193.01,1.747,0,3.163-1.416,3.163-3.163,0-1.574-1.151-2.876-2.657-3.118v-41.702c1.555.408,10.407,2.383,19.26-2.881,9.751-5.798,17.921-17.394,17.921-17.394-33.997-13.441-37.423,6.589-37.423,7.116Z" fill="#0c0d0b"/>
      <path d="M85.561,84.373c-2.873-.02-5.132-2.307-5.094-5.157.038-2.869,2.349-5.145,5.2-5.121,2.833.024,5.154,2.38,5.129,5.207-.025,2.824-2.366,5.091-5.235,5.071Z" fill="#f5df31"/>
    </g>
    <path d="M80.258,129.808c.032-4.512,3.623-8.061,8.1-8.001,4.506.06,8.081,3.69,8.044,8.168-.037,4.45-3.739,8.096-8.179,8.056-4.435-.039-7.996-3.716-7.965-8.223Z" fill="#e9a000"/>
    <path d="M122.118,129.808c.032-4.512,3.623-8.061,8.1-8.001,4.506.06,8.081,3.69,8.044,8.168-.037,4.45-3.739,8.096-8.179,8.056-4.435-.039-7.996-3.716-7.965-8.223Z" fill="#e9a000"/>
  </g>
</svg>