<?xml version="1.0" encoding="UTF-8"?>
<svg xmlns="http://www.w3.org/2000/svg" width="152.133" height="450" viewBox="0 0 152.133 450">
  <g id="tallos">
    <line x1="85.952" y1="449.924" x2="85.952" y2="43.818" fill="none" stroke="#0c0d0b" stroke-miterlimit="10" stroke-width="2.302"/>
  </g>
  <g id="Hojas">
    <path d="M86.297,380.898c0-.927-6.027-36.163-65.835-12.518,0,0,14.373,20.4,31.527,30.6,12.008,7.14,24.008,6.71,30.129,5.809l3.204-.38h1.624c2.736.719,18.085,3.831,33.66-5.429,17.154-10.2,31.527-30.6,31.527-30.6-59.808-23.645-65.835,11.591-65.835,12.518Z" fill="#0c0d0b"/>
    <path d="M88.189,164.304h-43.903s3.177,10.734,15.49,15.47c12.312,4.736,25.216.961,25.216.961h3.218s12.904,3.775,25.216-.961c12.313-4.736,15.49-15.47,15.49-15.47h-40.726ZM86.842,164.953h-.482c.08-.006.16-.018.241-.018s.161.012.241.018ZM86.464,179.763h.273c-.046.002-.09.01-.136.01s-.091-.008-.136-.01Z" fill="#0c0d0b"/>
    <path d="M88.189,206.133h-43.903s3.177,10.734,15.49,15.47c12.312,4.736,25.216.961,25.216.961h3.218s12.904,3.775,25.216-.961c12.313-4.736,15.49-15.47,15.49-15.47h-40.726ZM86.842,206.782h-.482c.08-.006.16-.018.241-.018s.161.012.241.018ZM86.464,221.592h.273c-.046.002-.09.01-.136.01s-.091-.008-.136-.01Z" fill="#0c0d0b"/>
    <path d="M88.189,246.337h-43.903s3.177,10.734,15.49,15.47c12.312,4.736,25.216.961,25.216.961h3.218s12.904,3.775,25.216-.961c12.313-4.736,15.49-15.47,15.49-15.47h-40.726ZM86.842,246.987h-.482c.08-.006.16-.018.241-.018s.161.012.241.018ZM86.464,261.797h.273c-.046.002-.09.01-.136.01s-.091-.008-.136-.01Z" fill="#0c0d0b"/>
    <path d="M88.735,289.159H29.746s4.269,14.422,20.812,20.785c16.543,6.363,33.881,1.291,33.881,1.291h4.323s17.338,5.072,33.881-1.291c16.543-6.363,20.812-20.785,20.812-20.785h-54.72ZM86.925,290.032h-.648c.108-.008.215-.024.324-.024s.216.017.324.024ZM86.418,309.931h.366c-.061.002-.121.014-.183.014s-.122-.011-.183-.014Z" fill="#0c0d0b"/>
    <path d="M88.735,320.429H29.746s4.269,14.422,20.812,20.785c16.543,6.363,33.881,1.291,33.881,1.291h4.323s17.338,5.072,33.881-1.291c16.543-6.363,20.812-20.785,20.812-20.785h-54.72ZM86.925,321.302h-.648c.108-.008.215-.024.324-.024s.216.017.324.024ZM86.418,341.201h.366c-.061.002-.121.014-.183.014s-.122-.011-.183-.014Z" fill="#0c0d0b"/>
  </g>
  <g id="Flores">
    <g>
      <path d="M84.846,20.591c0-.927-6.027-36.163-65.835-12.518,0,0,14.373,20.4,31.527,30.6,14.859,8.835,29.709,6.079,33.42,5.183v73.192c-2.873.218-5.138,2.613-5.138,5.542,0,2.799,2.069,5.108,4.76,5.499-3.803,19.25-20.808,33.813-41.157,33.813C19.364,161.902.59,143.205.464,120.176h8.313c1.848,16.946,16.201,30.136,33.639,30.136,18.692,0,33.845-15.153,33.845-33.845s-15.153-33.845-33.845-33.845-33.845,15.153-33.845,33.845c0,1.095.057,2.177.158,3.245H0v.232C0,143.335,19.031,162.366,42.422,162.366c20.589,0,37.793-14.745,41.621-34.23.113.007.225.017.34.017,3.073,0,5.564-2.491,5.564-5.564,0-2.769-2.026-5.06-4.675-5.486V43.74c2.736.719,18.309,4.193,33.883-5.067,17.154-10.2,31.527-30.6,31.527-30.6-59.808-23.645-65.835,11.591-65.835,12.518Z" fill="#0c0d0b"/>
      <path d="M41.857,126.731c-5.054-.035-9.028-4.058-8.961-9.072.067-5.047,4.133-9.051,9.148-9.009,4.984.042,9.067,4.187,9.023,9.16-.044,4.968-4.162,8.956-9.21,8.921Z" fill="#f5df31"/>
    </g>
  </g>
</svg>