<?xml version="1.0" encoding="UTF-8"?>
<svg xmlns="http://www.w3.org/2000/svg" width="215.04" height="456.038" viewBox="0 0 215.04 456.038">
  <g id="tallos">
    <g>
      <line x1="107.57" y1="444.244" x2="107.57" y2="43.147" fill="none" stroke="#0c0d0b" stroke-miterlimit="10" stroke-width="1.992"/>
      <path d="M86.948,133.638v30.152c0,4.213-3.415,7.628-7.628,7.628h-24.312c-4.213,0-7.628,3.415-7.628,7.628v51.385c0,4.213,3.415,7.628,7.628,7.628h44.784c4.213,0,7.628,3.415,7.628,7.628v29.465" fill="none" stroke="#0c0d0b" stroke-linejoin="round" stroke-width=".872"/>
      <path d="M128.179,133.638v30.152c0,4.213,3.415,7.628,7.628,7.628h24.312c4.213,0,7.628,3.415,7.628,7.628v51.385c0,4.213-3.415,7.628-7.628,7.628h-44.784c-4.213,0-7.628,3.415-7.628,7.628v29.465" fill="none" stroke="#0c0d0b" stroke-linejoin="round" stroke-width=".872"/>
    </g>
  </g>
  <g id="Hojas">
    <path d="M122.436,100.894c-11.601,2.85-13.432,9.567-13.432,9.567h-2.969s-1.83-6.717-13.432-9.567c-11.601-2.85-28.175,2.036-28.175,2.036,6.298,13.231,24.342,13.841,24.342,13.841h37.498s18.044-.611,24.342-13.841c0,0-16.573-4.885-28.175-2.036Z" fill="#0c0d0b"/>
    <path d="M62.109,192.64c-11.601,2.85-13.432,9.567-13.432,9.567h-2.969s-1.83-6.717-13.432-9.567c-11.601-2.85-28.175,2.036-28.175,2.036,6.298,13.231,24.342,13.841,24.342,13.841h37.498s18.044-.611,24.342-13.841c0,0-16.573-4.885-28.175-2.036Z" fill="#0c0d0b"/>
    <path d="M182.763,192.64c-11.601,2.85-13.432,9.567-13.432,9.567h-2.969s-1.83-6.717-13.432-9.567c-11.601-2.85-28.175,2.036-28.175,2.036,6.298,13.231,24.342,13.841,24.342,13.841h37.498s18.044-.611,24.342-13.841c0,0-16.573-4.885-28.175-2.036Z" fill="#0c0d0b"/>
    <path d="M107.074,319.583c0-.703-4.568-27.408-49.897-9.488,0,0,10.893,15.461,23.895,23.192,9.101,5.412,18.196,5.085,22.835,4.403l2.428-.288h1.231c2.074.545,13.707,2.904,25.511-4.115,13.001-7.731,23.895-23.192,23.895-23.192-45.329-17.921-49.897,8.785-49.897,9.488Z" fill="#0c0d0b"/>
    <path d="M119.42,283.801c-9.944,2.443-11.513,8.2-11.513,8.2h-2.545s-1.569-5.758-11.513-8.2-24.15,1.745-24.15,1.745c5.398,11.341,20.864,11.864,20.864,11.864h32.141s15.466-.523,20.864-11.864c0,0-14.206-4.187-24.15-1.745Z" fill="#0c0d0b"/>
    <path d="M107.892,263.151h-33.275s2.408,8.135,11.74,11.725c9.332,3.589,19.111.728,19.111.728h2.439s9.78,2.861,19.111-.728c9.332-3.589,11.74-11.725,11.74-11.725h-30.867ZM106.871,263.643h-.365c.061-.004.121-.014.183-.014s.122.009.183.014ZM106.585,274.868h.207c-.035.001-.068.008-.103.008s-.069-.006-.103-.008Z" fill="#0c0d0b"/>
  </g>
  <g id="Flores">
    <g>
      <path d="M139.459,51.723h-1.206c-.343,15.911-13.392,28.749-29.384,28.749-16.207,0-29.392-13.185-29.392-29.392,0-16.004,12.857-29.061,28.785-29.386v5.187c-13.091.323-23.606,11.029-23.606,24.198,0,13.373,10.841,24.214,24.214,24.214s24.214-10.841,24.214-24.214c0-13.169-10.515-23.875-23.606-24.198v-6.408h-.607c-16.877,0-30.607,13.73-30.607,30.607s13.73,30.607,30.607,30.607c16.661,0,30.246-13.384,30.59-29.964Z" fill="#0c0d0b"/>
      <g>
        <g>
          <path d="M169.139,21.703c-5.566-8.016-14.238-13.863-24.626-15.588-14.08-2.338-27.628,3.507-35.787,14.06v44.028h-46.781c-.586-3.597-3.768-6.41-7.576-6.442-4.269-.035-7.73,3.329-7.787,7.57-.057,4.212,3.326,7.592,7.628,7.622,4.297.03,7.802-3.321,7.84-7.495,0-.013-.002-.027-.002-.04h101.116s0-1.215,0-1.215h-53.453s59.426-42.5,59.426-42.5Z" fill="#0c0c0c"/>
          <path d="M46.022,65.319c.032-4.512,3.623-8.061,8.1-8.001,4.506.06,8.081,3.69,8.044,8.168-.037,4.45-3.739,8.096-8.179,8.056-4.435-.039-7.996-3.716-7.965-8.223Z" fill="#e9a000"/>
        </g>
        <path d="M122.481,30.951c.032-4.512,3.623-8.061,8.1-8.001,4.506.06,8.081,3.69,8.044,8.168-.037,4.45-3.739,8.096-8.179,8.056-4.435-.039-7.996-3.716-7.965-8.223Z" fill="#e9a000"/>
      </g>
    </g>
    <path d="M78.345,136.496c.032-4.512,3.623-8.061,8.1-8.001,4.506.06,8.081,3.69,8.044,8.168-.037,4.45-3.739,8.096-8.179,8.056-4.435-.039-7.996-3.716-7.965-8.223Z" fill="#e9a000"/>
    <path d="M120.205,136.496c.032-4.512,3.623-8.061,8.1-8.001,4.506.06,8.081,3.69,8.044,8.168-.037,4.45-3.739,8.096-8.179,8.056-4.435-.039-7.996-3.716-7.965-8.223Z" fill="#e9a000"/>
  </g>
</svg>