<?xml version="1.0" encoding="UTF-8"?>
<svg xmlns="http://www.w3.org/2000/svg" width="212.193" height="450" viewBox="0 0 212.193 450">
  <g id="tallos">
    <g>
      <line x1="106.146" y1="442.124" x2="106.146" y2="44.904" fill="none" stroke="#0c0d0b" stroke-miterlimit="10" stroke-width="1.973"/>
      <path d="M85.724,134.521v29.861c0,4.172-3.382,7.554-7.554,7.554h-24.077c-4.172,0-7.554,3.382-7.554,7.554v50.888c0,4.172,3.382,7.554,7.554,7.554h44.351c4.172,0,7.554,3.382,7.554,7.554v29.18" fill="none" stroke="#0c0d0b" stroke-linejoin="round" stroke-width=".864"/>
      <path d="M126.556,134.521v29.861c0,4.172,3.382,7.554,7.554,7.554h24.077c4.172,0,7.554,3.382,7.554,7.554v50.888c0,4.172-3.382,7.554-7.554,7.554h-44.351c-4.172,0-7.554,3.382-7.554,7.554v29.18" fill="none" stroke="#0c0d0b" stroke-linejoin="round" stroke-width=".864"/>
    </g>
  </g>
  <g id="Hojas">
    <path d="M120.868,102.093c-11.489,2.822-13.302,9.474-13.302,9.474h-2.94s-1.812-6.652-13.302-9.474c-11.489-2.822-27.903,2.016-27.903,2.016,6.237,13.103,24.106,13.708,24.106,13.708h37.136s17.869-.605,24.106-13.708c0,0-16.413-4.838-27.903-2.016Z" fill="#0c0d0b"/>
    <path d="M61.124,192.952c-11.489,2.822-13.302,9.474-13.302,9.474h-2.94s-1.812-6.652-13.302-9.474-27.903,2.016-27.903,2.016c6.237,13.103,24.106,13.708,24.106,13.708h37.136s17.869-.605,24.106-13.708c0,0-16.413-4.838-27.903-2.016Z" fill="#0c0d0b"/>
    <path d="M180.613,192.952c-11.489,2.822-13.302,9.474-13.302,9.474h-2.94s-1.812-6.652-13.302-9.474-27.903,2.016-27.903,2.016c6.237,13.103,24.106,13.708,24.106,13.708h37.136s17.869-.605,24.106-13.708c0,0-16.413-4.838-27.903-2.016Z" fill="#0c0d0b"/>
    <path d="M105.655,318.668c0-.696-4.524-27.144-49.415-9.396,0,0,10.788,15.312,23.664,22.968,9.013,5.359,18.02,5.036,22.615,4.36l2.405-.285h1.219c2.054.539,13.574,2.876,25.264-4.075,12.876-7.656,23.664-22.968,23.664-22.968-44.891-17.748-49.415,8.7-49.415,9.396Z" fill="#0c0d0b"/>
    <path d="M117.882,283.232c-9.848,2.419-11.401,8.121-11.401,8.121h-2.52s-1.553-5.702-11.401-8.121c-9.848-2.419-23.916,1.728-23.916,1.728,5.346,11.231,20.663,11.749,20.663,11.749h31.831s15.317-.518,20.663-11.749c0,0-14.068-4.147-23.916-1.728Z" fill="#0c0d0b"/>
    <path d="M106.465,262.782h-32.953s2.385,8.057,11.626,11.611c9.242,3.554,18.927.721,18.927.721h2.415s9.685,2.833,18.927-.721c9.242-3.554,11.626-11.611,11.626-11.611h-30.568ZM105.454,263.269h-.362c.06-.004.12-.013.181-.013s.121.009.181.013ZM105.17,274.385h.205c-.034.001-.068.008-.102.008s-.068-.006-.102-.008Z" fill="#0c0d0b"/>
  </g>
  <g id="Flores">
    <g>
      <path d="M137.726,53.397h-1.194c-.34,15.758-13.263,28.471-29.1,28.471-16.05,0-29.108-13.058-29.108-29.108,0-15.849,12.733-28.78,28.507-29.102v5.137c-12.965.32-23.378,10.923-23.378,23.964,0,13.244,10.736,23.98,23.98,23.98s23.98-10.736,23.98-23.98c0-13.042-10.413-23.644-23.378-23.964v-6.346h-.601c-16.714,0-30.311,13.597-30.311,30.311s13.597,30.311,30.311,30.311c16.5,0,29.953-13.255,30.295-29.674Z" fill="#0c0d0b"/>
      <g>
        <g>
          <path d="M167.12,23.667c-5.512-7.938-14.1-13.729-24.387-15.437-13.944-2.316-27.361,3.474-35.441,13.924v43.603h-46.329c-.58-3.563-3.731-6.349-7.503-6.38-4.228-.035-7.655,3.297-7.712,7.496-.056,4.171,3.294,7.519,7.555,7.548,4.256.029,7.727-3.289,7.764-7.423,0-.013-.002-.026-.002-.04h100.139s0-1.203,0-1.203h-52.936s58.852-42.09,58.852-42.09Z" fill="#0c0c0c"/>
          <path d="M45.193,66.862c.031-4.469,3.588-7.983,8.021-7.924,4.463.059,8.003,3.654,7.966,8.089-.037,4.407-3.703,8.017-8.1,7.978-4.393-.039-7.919-3.68-7.888-8.143Z" fill="#e9a000"/>
        </g>
        <path d="M120.913,32.826c.031-4.469,3.588-7.983,8.021-7.924,4.463.059,8.003,3.654,7.966,8.089-.037,4.407-3.703,8.017-8.1,7.978-4.393-.039-7.919-3.68-7.888-8.143Z" fill="#e9a000"/>
      </g>
    </g>
    <path d="M77.203,137.351c.031-4.469,3.588-7.983,8.021-7.924,4.463.059,8.003,3.654,7.966,8.089-.037,4.407-3.703,8.017-8.1,7.978-4.393-.039-7.919-3.68-7.888-8.143Z" fill="#e9a000"/>
    <path d="M118.659,137.351c.031-4.469,3.588-7.983,8.021-7.924,4.463.059,8.003,3.654,7.966,8.089-.037,4.407-3.703,8.017-8.1,7.978-4.393-.039-7.919-3.68-7.888-8.143Z" fill="#e9a000"/>
  </g>
</svg>