<?xml version="1.0" encoding="UTF-8"?>
<svg xmlns="http://www.w3.org/2000/svg" width="100" height="100" viewBox="0 0 100 100">
  <g id="tallos">
    <line x1="52.197" y1="96.995" x2="52.197" y2="6.758" fill="none" stroke="#0c0d0b" stroke-miterlimit="10" stroke-width=".512"/>
  </g>
  <g id="Hojas">
    <path d="M52.273,84.657c0-.206-1.339-8.035-14.629-2.781,0,0,3.194,4.533,7.005,6.799,2.668,1.587,5.334,1.491,6.695,1.291l.712-.084h.361c.608.16,4.019.851,7.479-1.206,3.812-2.266,7.005-6.799,7.005-6.799-13.289-5.254-14.629,2.575-14.629,2.781Z" fill="#0c0d0b"/>
    <path d="M52.694,36.53h-9.755s.706,2.385,3.442,3.437c2.736,1.052,5.603.213,5.603.213h.715s2.867.839,5.603-.213c2.736-1.052,3.442-3.437,3.442-3.437h-9.049ZM52.394,36.675h-.107c.018-.001.035-.004.054-.004s.036.003.054.004ZM52.31,39.965h.061c-.01,0-.02.002-.03.002s-.02-.002-.03-.002Z" fill="#0c0d0b"/>
    <path d="M52.694,45.825h-9.755s.706,2.385,3.442,3.437c2.736,1.052,5.603.213,5.603.213h.715s2.867.839,5.603-.213c2.736-1.052,3.442-3.437,3.442-3.437h-9.049ZM52.394,45.969h-.107c.018-.001.035-.004.054-.004s.036.003.054.004ZM52.31,49.26h.061c-.01,0-.02.002-.03.002s-.02-.002-.03-.002Z" fill="#0c0d0b"/>
    <path d="M52.694,54.758h-9.755s.706,2.385,3.442,3.437c2.736,1.052,5.603.213,5.603.213h.715s2.867.839,5.603-.213c2.736-1.052,3.442-3.437,3.442-3.437h-9.049ZM52.394,54.902h-.107c.018-.001.035-.004.054-.004s.036.003.054.004ZM52.31,58.193h.061c-.01,0-.02.002-.03.002s-.02-.002-.03-.002Z" fill="#0c0d0b"/>
    <path d="M52.815,64.273h-13.107s.949,3.205,4.625,4.618c3.676,1.414,7.528.287,7.528.287h.961s3.852,1.127,7.528-.287c3.676-1.414,4.625-4.618,4.625-4.618h-12.159ZM52.413,64.467h-.144c.024-.002.048-.005.072-.005s.048.004.072.005ZM52.3,68.889h.081c-.014,0-.027.003-.041.003s-.027-.002-.041-.003Z" fill="#0c0d0b"/>
    <path d="M52.815,71.221h-13.107s.949,3.205,4.625,4.618c3.676,1.414,7.528.287,7.528.287h.961s3.852,1.127,7.528-.287c3.676-1.414,4.625-4.618,4.625-4.618h-12.159ZM52.413,71.415h-.144c.024-.002.048-.005.072-.005s.048.004.072.005ZM52.3,75.837h.081c-.014,0-.027.003-.041.003s-.027-.002-.041-.003Z" fill="#0c0d0b"/>
  </g>
  <g id="Flores">
    <g>
      <path d="M51.951,4.597c0-.206-1.339-8.035-14.629-2.782,0,0,3.194,4.533,7.005,6.799,3.302,1.963,6.601,1.351,7.426,1.152v16.263c-.638.048-1.142.581-1.142,1.231,0,.622.46,1.135,1.058,1.222-.845,4.277-4.623,7.513-9.145,7.513-5.124,0-9.295-4.155-9.323-9.272h1.847c.411,3.765,3.6,6.696,7.475,6.696,4.153,0,7.52-3.367,7.52-7.52s-3.367-7.52-7.52-7.52-7.52,3.367-7.52,7.52c0,.243.013.484.035.721h-1.94v.052c0,5.198,4.229,9.426,9.426,9.426,4.575,0,8.398-3.276,9.248-7.606.025.002.05.004.075.004.683,0,1.236-.553,1.236-1.236,0-.615-.45-1.124-1.039-1.219V9.741c.608.16,4.068.932,7.529-1.126,3.812-2.266,7.005-6.799,7.005-6.799-13.289-5.254-14.629,2.575-14.629,2.782Z" fill="#0c0d0b"/>
      <path d="M42.399,28.182c-1.123-.008-2.006-.902-1.991-2.016.015-1.121.918-2.011,2.033-2.002,1.107.009,2.015.93,2.005,2.035-.01,1.104-.925,1.99-2.046,1.982Z" fill="#f5df31"/>
    </g>
  </g>
</svg>