<?xml version="1.0" encoding="UTF-8"?>
<svg xmlns="http://www.w3.org/2000/svg" width="100" height="100" viewBox="0 0 100 100">
  <g id="tallos">
    <g>
      <line x1="50.011" y1="98.733" x2="50.011" y2="9.609" fill="none" stroke="#0c0d0b" stroke-miterlimit="10" stroke-width=".443"/>
      <path d="M45.429,29.716v6.7c0,.936-.759,1.695-1.695,1.695h-5.402c-.936,0-1.695.759-1.695,1.695v11.418c0,.936.759,1.695,1.695,1.695h9.951c.936,0,1.695.759,1.695,1.695v6.547" fill="none" stroke="#0c0d0b" stroke-linejoin="round" stroke-width=".194"/>
      <path d="M54.591,29.716v6.7c0,.936.759,1.695,1.695,1.695h5.402c.936,0,1.695.759,1.695,1.695v11.418c0,.936-.759,1.695-1.695,1.695h-9.951c-.936,0-1.695.759-1.695,1.695v6.547" fill="none" stroke="#0c0d0b" stroke-linejoin="round" stroke-width=".194"/>
    </g>
  </g>
  <g id="Hojas">
    <path d="M53.314,22.441c-2.578.633-2.984,2.126-2.984,2.126h-.66s-.407-1.493-2.984-2.126-6.26.452-6.26.452c1.399,2.94,5.409,3.076,5.409,3.076h8.332s4.009-.136,5.409-3.076c0,0-3.683-1.085-6.26-.452Z" fill="#0c0d0b"/>
    <path d="M39.91,42.826c-2.578.633-2.984,2.126-2.984,2.126h-.66s-.407-1.493-2.984-2.126c-2.578-.633-6.26.452-6.26.452,1.399,2.94,5.409,3.076,5.409,3.076h8.332s4.009-.136,5.409-3.076c0,0-3.683-1.085-6.26-.452Z" fill="#0c0d0b"/>
    <path d="M66.719,42.826c-2.578.633-2.984,2.126-2.984,2.126h-.66s-.407-1.493-2.984-2.126c-2.578-.633-6.26.452-6.26.452,1.399,2.94,5.409,3.076,5.409,3.076h8.332s4.009-.136,5.409-3.076c0,0-3.683-1.085-6.26-.452Z" fill="#0c0d0b"/>
    <path d="M49.901,71.033c0-.156-1.015-6.09-11.087-2.108,0,0,2.42,3.435,5.309,5.153,2.022,1.202,4.043,1.13,5.074.978l.54-.064h.274c.461.121,3.046.645,5.669-.914,2.889-1.718,5.309-5.153,5.309-5.153-10.072-3.982-11.087,1.952-11.087,2.108Z" fill="#0c0d0b"/>
    <path d="M52.644,63.082c-2.21.543-2.558,1.822-2.558,1.822h-.566s-.349-1.279-2.558-1.822-5.366.388-5.366.388c1.199,2.52,4.636,2.636,4.636,2.636h7.142s3.437-.116,4.636-2.636c0,0-3.157-.93-5.366-.388Z" fill="#0c0d0b"/>
    <path d="M50.083,58.494h-7.394s.535,1.808,2.609,2.605c2.074.798,4.247.162,4.247.162h.542s2.173.636,4.247-.162c2.074-.798,2.609-2.605,2.609-2.605h-6.859ZM49.856,58.604h-.081c.014,0,.027-.003.041-.003s.027.002.041.003ZM49.792,61.098h.046c-.008,0-.015.002-.023.002s-.015-.001-.023-.002Z" fill="#0c0d0b"/>
  </g>
  <g id="Flores">
    <g>
      <path d="M57.097,11.515h-.268c-.076,3.535-2.976,6.388-6.529,6.388-3.601,0-6.531-2.93-6.531-6.531,0-3.556,2.857-6.457,6.396-6.53v1.153c-2.909.072-5.245,2.451-5.245,5.377,0,2.971,2.409,5.38,5.38,5.38s5.38-2.409,5.38-5.38c0-2.926-2.336-5.305-5.245-5.377v-1.424h-.135c-3.75,0-6.801,3.051-6.801,6.801s3.051,6.801,6.801,6.801c3.702,0,6.721-2.974,6.797-6.658Z" fill="#0c0d0b"/>
      <g>
        <g>
          <path d="M63.692,4.844c-1.237-1.781-3.164-3.08-5.472-3.464-3.129-.52-6.139.779-7.952,3.124v9.783h-10.395c-.13-.799-.837-1.424-1.683-1.431-.949-.008-1.718.74-1.73,1.682-.013.936.739,1.687,1.695,1.694.955.007,1.734-.738,1.742-1.665,0-.003,0-.006,0-.009h22.468s0-.27,0-.27h-11.877s13.205-9.444,13.205-9.444Z" fill="#0c0c0c"/>
          <path d="M36.335,14.536c.007-1.003.805-1.791,1.8-1.778,1.001.013,1.796.82,1.787,1.815-.008.989-.831,1.799-1.817,1.79-.986-.009-1.777-.826-1.77-1.827Z" fill="#e9a000"/>
        </g>
        <path d="M53.324,6.899c.007-1.003.805-1.791,1.8-1.778,1.001.013,1.796.82,1.787,1.815-.008.989-.831,1.799-1.817,1.79-.986-.009-1.777-.826-1.77-1.827Z" fill="#e9a000"/>
      </g>
    </g>
    <path d="M43.517,30.351c.007-1.003.805-1.791,1.8-1.778,1.001.013,1.796.82,1.787,1.815-.008.989-.831,1.799-1.817,1.79-.986-.009-1.777-.826-1.77-1.827Z" fill="#e9a000"/>
    <path d="M52.819,30.351c.007-1.003.805-1.791,1.8-1.778,1.001.013,1.796.82,1.787,1.815-.008.989-.831,1.799-1.817,1.79-.986-.009-1.777-.826-1.77-1.827Z" fill="#e9a000"/>
  </g>
</svg>