<?xml version="1.0" encoding="UTF-8"?>
<svg xmlns="http://www.w3.org/2000/svg" width="100" height="100" viewBox="0 0 100 100">
  <g id="tallos">
    <g>
      <line x1="46.003" y1="99.995" x2="46.003" y2="5.668" fill="none" stroke="#0c0d0b" stroke-miterlimit="10" stroke-width=".468"/>
      <path d="M29.361,27.156h7.091c.991,0,1.794.803,1.794,1.794v5.718c0,.991.803,1.794,1.794,1.794h12.084c.991,0,1.794-.803,1.794-1.794v-10.532c0-.991.803-1.794,1.794-1.794h6.929" fill="none" stroke="#0c0d0b" stroke-linejoin="round" stroke-width=".205"/>
      <path d="M25.201,58.556h8.864c1.238,0,2.242-1.004,2.242-2.242v-7.147c0-1.238,1.004-2.242,2.242-2.242h15.106c1.238,0,2.242,1.004,2.242,2.242v13.165c0,1.238,1.004,2.242,2.242,2.242h8.662" fill="none" stroke="#0c0d0b" stroke-linejoin="round" stroke-width=".256"/>
    </g>
  </g>
  <g id="Hojas">
    <path d="M45.868,82.458c0-.165-1.074-6.446-11.735-2.231,0,0,2.562,3.636,5.619,5.454,2.14,1.273,4.279,1.196,5.37,1.035l.571-.068h.29c.488.128,3.224.683,6-.968,3.058-1.818,5.619-5.454,5.619-5.454-10.66-4.215-11.735,2.066-11.735,2.231Z" fill="#0c0d0b"/>
    <path d="M46.06,60.347h-7.825s.566,1.913,2.761,2.757c2.195.844,4.495.171,4.495.171h.574s2.3.673,4.495-.171c2.195-.844,2.761-2.757,2.761-2.757h-7.259ZM45.82,60.463h-.086c.014,0,.028-.003.043-.003s.029.002.043.003ZM45.753,63.103h.049c-.008,0-.016.002-.024.002s-.016-.001-.024-.002Z" fill="#0c0d0b"/>
    <path d="M46.286,66.455h-7.825s.566,1.913,2.761,2.757c2.195.844,4.495.171,4.495.171h.574s2.3.673,4.495-.171c2.195-.844,2.761-2.757,2.761-2.757h-7.259ZM46.046,66.571h-.086c.014,0,.028-.003.043-.003s.029.002.043.003ZM45.979,69.21h.049c-.008,0-.016.002-.024.002s-.016-.001-.024-.002Z" fill="#0c0d0b"/>
    <path d="M46.428,71.767h-11.738s.849,2.87,4.141,4.136c3.292,1.266,6.742.257,6.742.257h.86s3.45,1.009,6.742-.257c3.292-1.266,4.141-4.136,4.141-4.136h-10.889ZM46.068,71.94h-.129c.022-.001.043-.005.064-.005s.043.003.064.005ZM45.967,75.9h.073c-.012,0-.024.003-.036.003s-.024-.002-.036-.003Z" fill="#0c0d0b"/>
    <path d="M49.499,37.292c-2.728.67-3.159,2.25-3.159,2.25h-.698s-.43-1.58-3.159-2.25c-2.728-.67-6.626.479-6.626.479,1.481,3.112,5.725,3.255,5.725,3.255h8.819s4.243-.144,5.725-3.255c0,0-3.898-1.149-6.626-.479Z" fill="#0c0d0b"/>
    <path d="M49.499,42.268c-2.728.67-3.159,2.25-3.159,2.25h-.698s-.43-1.58-3.159-2.25c-2.728-.67-6.626.479-6.626.479,1.481,3.112,5.725,3.255,5.725,3.255h8.819s4.243-.144,5.725-3.255c0,0-3.898-1.149-6.626-.479Z" fill="#0c0d0b"/>
    <path d="M46.286,25.892h-7.825s.566,1.913,2.761,2.757c2.195.844,4.495.171,4.495.171h.574s2.3.673,4.495-.171c2.195-.844,2.761-2.757,2.761-2.757h-7.259ZM46.046,26.008h-.086c.014,0,.028-.003.043-.003s.029.002.043.003ZM45.979,28.648h.049c-.008,0-.016.002-.024.002s-.016-.001-.024-.002Z" fill="#0c0d0b"/>
    <path d="M56.275,52.675h-7.825s.566,1.913,2.761,2.757c2.195.844,4.495.171,4.495.171h.574s2.3.673,4.495-.171c2.195-.844,2.761-2.757,2.761-2.757h-7.259ZM56.035,52.79h-.086c.014,0,.028-.003.043-.003s.029.002.043.003ZM55.968,55.43h.049c-.008,0-.016.002-.024.002s-.016-.001-.024-.002Z" fill="#0c0d0b"/>
    <path d="M37.166,52.675h-7.825s.566,1.913,2.761,2.757c2.195.844,4.495.171,4.495.171h.574s2.3.673,4.495-.171c2.195-.844,2.761-2.757,2.761-2.757h-7.259ZM36.926,52.79h-.086c.014,0,.028-.003.043-.003s.029.002.043.003ZM36.858,55.43h.049c-.008,0-.016.002-.024.002s-.016-.001-.024-.002Z" fill="#0c0d0b"/>
  </g>
  <g id="Flores">
    <g>
      <path d="M52.805,10.851h-.284c-.081,3.742-3.149,6.761-6.91,6.761-3.811,0-6.912-3.101-6.912-6.912,0-3.764,3.024-6.834,6.769-6.911v1.22c-3.079.076-5.552,2.594-5.552,5.691,0,3.145,2.549,5.694,5.694,5.694s5.694-2.549,5.694-5.694c0-3.097-2.473-5.615-5.552-5.691v-1.507h-.143c-3.969,0-7.198,3.229-7.198,7.198s3.229,7.198,7.198,7.198c3.918,0,7.113-3.148,7.194-7.047Z" fill="#0c0d0b"/>
      <g>
        <g>
          <path d="M59.785,3.791c-1.309-1.885-3.348-3.26-5.791-3.666-3.311-.55-6.497.825-8.416,3.307v10.354h-11.002c-.138-.846-.886-1.508-1.782-1.515-1.004-.008-1.818.783-1.831,1.78-.013.991.782,1.785,1.794,1.792,1.011.007,1.835-.781,1.844-1.763,0-.003,0-.006,0-.009h23.78s0-.286,0-.286h-12.571s13.976-9.995,13.976-9.995Z" fill="#0c0c0c"/>
          <path d="M30.831,14.049c.007-1.061.852-1.896,1.905-1.882,1.06.014,1.901.868,1.892,1.921-.009,1.046-.879,1.904-1.923,1.895-1.043-.009-1.881-.874-1.873-1.934Z" fill="#e9a000"/>
        </g>
        <path d="M48.812,5.966c.007-1.061.852-1.896,1.905-1.882,1.06.014,1.901.868,1.892,1.921-.009,1.046-.879,1.904-1.923,1.895-1.043-.009-1.881-.874-1.873-1.934Z" fill="#e9a000"/>
      </g>
    </g>
    <path d="M60.7,22.264c.007-1.061.852-1.896,1.905-1.882,1.06.014,1.901.868,1.892,1.921-.009,1.046-.879,1.904-1.923,1.895-1.043-.009-1.881-.874-1.873-1.934Z" fill="#e9a000"/>
    <path d="M27.403,27.621c.007-1.061.852-1.896,1.905-1.882,1.06.014,1.901.868,1.892,1.921-.009,1.046-.879,1.904-1.923,1.895-1.043-.009-1.881-.874-1.873-1.934Z" fill="#e9a000"/>
    <path d="M24.073,58.601c.007-1.061.852-1.896,1.905-1.882,1.06.014,1.901.868,1.892,1.921-.009,1.046-.879,1.904-1.923,1.895-1.043-.009-1.881-.874-1.873-1.934Z" fill="#e9a000"/>
    <path d="M64.754,64.537c.007-1.061.852-1.896,1.905-1.882,1.06.014,1.901.868,1.892,1.921-.009,1.046-.879,1.904-1.923,1.895-1.043-.009-1.881-.874-1.873-1.934Z" fill="#e9a000"/>
  </g>
</svg>