<?xml version="1.0" encoding="UTF-8"?>
<svg xmlns="http://www.w3.org/2000/svg" width="168.543" height="450" viewBox="0 0 168.543 450">
  <g id="tallos">
    <line x1="86.765" y1="448.116" x2="86.765" y2="30.287" fill="none" stroke="#0c0d0b" stroke-miterlimit="10" stroke-width="2.369"/>
  </g>
  <g id="Hojas">
    <path d="M86.456,390.769c0-.954-6.201-37.207-67.736-12.879,0,0,14.787,20.989,32.437,31.483,12.355,7.346,24.701,6.904,30.999,5.977l3.296-.391h1.671c2.815.739,18.607,3.942,34.631-5.586,17.65-10.494,32.437-31.483,32.437-31.483-61.535-24.328-67.736,11.925-67.736,12.879Z" fill="#0c0d0b"/>
    <path d="M106.945,332.217c-15.749,3.868-18.233,12.987-18.233,12.987h-4.031s-2.484-9.119-18.233-12.987c-15.749-3.868-38.247,2.763-38.247,2.763,8.549,17.961,33.044,18.79,33.044,18.79h50.904s24.495-.829,33.044-18.79c0,0-22.498-6.632-38.247-2.763Z" fill="#0c0d0b"/>
    <path d="M106.36,300.63c-15.749,3.868-18.233,12.987-18.233,12.987h-4.031s-2.484-9.119-18.233-12.987c-15.749-3.868-38.247,2.763-38.247,2.763,8.549,17.961,33.044,18.79,33.044,18.79h50.904s24.495-.829,33.044-18.79c0,0-22.498-6.632-38.247-2.763Z" fill="#0c0d0b"/>
    <path d="M106.945,264.947c-15.749,3.868-18.233,12.987-18.233,12.987h-4.031s-2.484-9.119-18.233-12.987c-15.749-3.868-38.247,2.763-38.247,2.763,8.549,17.961,33.044,18.79,33.044,18.79h50.904s24.495-.829,33.044-18.79c0,0-22.498-6.632-38.247-2.763Z" fill="#0c0d0b"/>
    <path d="M106.945,230.434c-15.749,3.868-18.233,12.987-18.233,12.987h-4.031s-2.484-9.119-18.233-12.987c-15.749-3.868-38.247,2.763-38.247,2.763,8.549,17.961,33.044,18.79,33.044,18.79h50.904s24.495-.829,33.044-18.79c0,0-22.498-6.632-38.247-2.763Z" fill="#0c0d0b"/>
    <path d="M106.945,190.657c-15.749,3.868-18.233,12.987-18.233,12.987h-4.031s-2.484-9.119-18.233-12.987c-15.749-3.868-38.247,2.763-38.247,2.763,8.549,17.961,33.044,18.79,33.044,18.79h50.904s24.495-.829,33.044-18.79c0,0-22.498-6.632-38.247-2.763Z" fill="#0c0d0b"/>
  </g>
  <g id="Flores">
    <path d="M127.546,64.492h-1.637c-.466,21.6-18.18,39.027-39.889,39.027-22.001,0-39.9-17.899-39.9-39.899,0-21.725,17.453-39.451,39.075-39.891v7.042c-17.772.439-32.046,14.972-32.046,32.849,0,18.154,14.716,32.87,32.87,32.87s32.87-14.716,32.87-32.87c0-17.877-14.274-32.41-32.046-32.849v-8.699h-.824c-22.91,0-41.548,18.639-41.548,41.549s18.638,41.549,41.548,41.549c22.617,0,41.059-18.169,41.526-40.676Z" fill="#0c0d0b"/>
    <g>
      <g>
        <path d="M167.837,23.739c-7.556-10.882-19.328-18.819-33.429-21.161-19.114-3.174-37.505,4.761-48.58,19.087v59.768H22.323c-.795-4.884-5.115-8.702-10.285-8.745-5.795-.048-10.493,4.519-10.571,10.276-.077,5.718,4.515,10.306,10.355,10.347,5.833.04,10.591-4.509,10.642-10.175,0-.018-.002-.036-.002-.054h137.266s0-1.649,0-1.649h-72.562s80.672-57.694,80.672-57.694Z" fill="#0c0c0c"/>
        <path d="M.706,82.948c.043-6.125,4.919-10.942,10.995-10.862,6.117.081,10.97,5.009,10.92,11.087-.05,6.04-5.075,10.99-11.103,10.936-6.021-.053-10.855-5.044-10.812-11.162Z" fill="#e9a000"/>
      </g>
      <path d="M104.498,36.294c.043-6.125,4.919-10.942,10.995-10.862,6.117.081,10.97,5.009,10.92,11.087-.05,6.04-5.075,10.99-11.103,10.936-6.021-.053-10.855-5.044-10.812-11.162Z" fill="#e9a000"/>
    </g>
  </g>
</svg>