<?xml version="1.0" encoding="UTF-8"?>
<svg xmlns="http://www.w3.org/2000/svg" width="212.193" height="450" viewBox="0 0 212.193 450">
  <g id="tallos">
    <g>
      <line x1="106.148" y1="449.924" x2="106.148" y2="38.44" fill="none" stroke="#0c0d0b" stroke-miterlimit="10" stroke-width="2.044"/>
      <path d="M84.992,131.274v30.933c0,4.322-3.503,7.825-7.825,7.825h-24.942c-4.322,0-7.825,3.503-7.825,7.825v52.716c0,4.322,3.503,7.825,7.825,7.825h45.944c4.322,0,7.825,3.503,7.825,7.825v30.228" fill="none" stroke="#0c0d0b" stroke-linejoin="round" stroke-width=".895"/>
      <path d="M127.291,131.274v30.933c0,4.322,3.503,7.825,7.825,7.825h24.942c4.322,0,7.825,3.503,7.825,7.825v52.716c0,4.322-3.503,7.825-7.825,7.825h-45.944c-4.322,0-7.825,3.503-7.825,7.825v30.228" fill="none" stroke="#0c0d0b" stroke-linejoin="round" stroke-width=".895"/>
    </g>
  </g>
  <g id="Hojas">
    <path d="M105.915,322.232c0-.721-4.686-28.118-51.19-9.733,0,0,11.175,15.862,24.513,23.792,9.337,5.552,18.667,5.217,23.427,4.517l2.491-.295h1.263c2.128.559,14.062,2.979,26.172-4.221,13.338-7.931,24.513-23.792,24.513-23.792-46.503-18.385-51.19,9.012-51.19,9.733Z" fill="#0c0d0b"/>
    <path d="M121.399,273.562c-11.902,2.924-13.779,9.815-13.779,9.815h-3.046s-1.877-6.891-13.779-9.815c-11.902-2.924-28.904,2.088-28.904,2.088,6.461,13.573,24.972,14.2,24.972,14.2h38.469s18.511-.626,24.972-14.2c0,0-17.003-5.012-28.904-2.088Z" fill="#0c0d0b"/>
    <path d="M121.399,97.682c-11.902,2.924-13.779,9.815-13.779,9.815h-3.046s-1.877-6.891-13.779-9.815c-11.902-2.924-28.904,2.088-28.904,2.088,6.461,13.573,24.972,14.2,24.972,14.2h38.469s18.511-.626,24.972-14.2c0,0-17.003-5.012-28.904-2.088Z" fill="#0c0d0b"/>
    <path d="M59.509,216.472c-11.902,2.924-13.779,9.815-13.779,9.815h-3.046s-1.877-6.891-13.779-9.815-28.904,2.088-28.904,2.088c6.461,13.573,24.972,14.2,24.972,14.2h38.469s18.511-.626,24.972-14.2c0,0-17.003-5.012-28.904-2.088Z" fill="#0c0d0b"/>
    <path d="M59.509,183.633c-11.902,2.924-13.779,9.815-13.779,9.815h-3.046s-1.877-6.891-13.779-9.815c-11.902-2.924-28.904,2.088-28.904,2.088,6.461,13.573,24.972,14.2,24.972,14.2h38.469s18.511-.626,24.972-14.2c0,0-17.003-5.012-28.904-2.088Z" fill="#0c0d0b"/>
    <path d="M183.288,216.472c-11.902,2.924-13.779,9.815-13.779,9.815h-3.046s-1.877-6.891-13.779-9.815-28.904,2.088-28.904,2.088c6.461,13.573,24.972,14.2,24.972,14.2h38.469s18.511-.626,24.972-14.2c0,0-17.003-5.012-28.904-2.088Z" fill="#0c0d0b"/>
    <path d="M183.288,183.633c-11.902,2.924-13.779,9.815-13.779,9.815h-3.046s-1.877-6.891-13.779-9.815c-11.902-2.924-28.904,2.088-28.904,2.088,6.461,13.573,24.972,14.2,24.972,14.2h38.469s18.511-.626,24.972-14.2c0,0-17.003-5.012-28.904-2.088Z" fill="#0c0d0b"/>
  </g>
  <g id="Flores">
    <g>
      <path d="M138.862,47.238h-1.237c-.352,16.323-13.739,29.493-30.145,29.493-16.626,0-30.153-13.527-30.153-30.153,0-16.418,13.19-29.814,29.53-30.147v5.322c-13.43.332-24.218,11.315-24.218,24.825,0,13.719,11.122,24.841,24.841,24.841s24.841-11.122,24.841-24.841c0-13.51-10.787-24.493-24.218-24.825v-6.574h-.623c-17.314,0-31.399,14.086-31.399,31.399s14.085,31.399,31.399,31.399c17.093,0,31.029-13.73,31.382-30.74Z" fill="#0c0d0b"/>
      <g>
        <g>
          <path d="M169.311,16.44c-5.71-8.224-14.607-14.222-25.263-15.992-14.445-2.399-28.344,3.598-36.713,14.424v45.168h-47.992c-.601-3.691-3.865-6.576-7.772-6.609-4.38-.036-7.93,3.415-7.989,7.766-.058,4.321,3.412,7.789,7.826,7.819,4.408.03,8.004-3.407,8.043-7.689,0-.014-.002-.027-.002-.041h103.735s0-1.246,0-1.246h-54.837s60.965-43.601,60.965-43.601Z" fill="#0c0c0c"/>
          <path d="M43.006,61.186c.032-4.629,3.717-8.269,8.309-8.208,4.623.061,8.291,3.785,8.252,8.379-.038,4.565-3.836,8.305-8.391,8.265-4.55-.04-8.203-3.812-8.171-8.436Z" fill="#e9a000"/>
        </g>
        <path d="M121.445,25.928c.032-4.629,3.717-8.269,8.309-8.208,4.623.061,8.291,3.785,8.252,8.379-.038,4.565-3.836,8.305-8.391,8.265-4.55-.04-8.203-3.812-8.171-8.436Z" fill="#e9a000"/>
      </g>
    </g>
    <path d="M76.166,134.206c.032-4.629,3.717-8.269,8.309-8.208,4.623.061,8.291,3.785,8.252,8.379-.038,4.565-3.836,8.305-8.391,8.265-4.55-.04-8.203-3.812-8.171-8.436Z" fill="#e9a000"/>
    <path d="M119.11,134.206c.032-4.629,3.717-8.269,8.309-8.208,4.623.061,8.291,3.785,8.252,8.379-.038,4.565-3.836,8.305-8.391,8.265-4.55-.04-8.203-3.812-8.171-8.436Z" fill="#e9a000"/>
  </g>
</svg>