<?xml version="1.0" encoding="UTF-8"?>
<svg xmlns="http://www.w3.org/2000/svg" width="196.624" height="442.132" viewBox="0 0 196.624 442.132">
  <g id="tallos">
    <g>
      <line x1="96.945" y1="445.99" x2="96.945" y2="28.985" fill="none" stroke="#0c0d0b" stroke-miterlimit="10" stroke-width="2.071"/>
      <path d="M23.375,123.98h31.348c4.38,0,7.93,3.55,7.93,7.93v25.277c0,4.38,3.55,7.93,7.93,7.93h53.423c4.38,0,7.93-3.55,7.93-7.93v-46.56c0-4.38,3.55-7.93,7.93-7.93h30.633" fill="none" stroke="#0c0d0b" stroke-linejoin="round" stroke-width=".907"/>
      <path d="M4.985,262.796h39.185c5.475,0,9.913-4.438,9.913-9.913v-31.596c0-5.475,4.438-9.913,9.913-9.913h66.779c5.475,0,9.913,4.438,9.913,9.913v58.2c0,5.475,4.438,9.913,9.913,9.913h38.291" fill="none" stroke="#0c0d0b" stroke-linejoin="round" stroke-width="1.134"/>
    </g>
  </g>
  <g id="Hojas">
    <path d="M97.349,313.384c0-.731-4.749-28.496-51.876-9.864,0,0,11.325,16.074,24.842,24.112,9.462,5.626,18.917,5.287,23.741,4.577l2.524-.299h1.28c2.156.566,14.251,3.019,26.523-4.278,13.517-8.037,24.842-24.112,24.842-24.112-47.127-18.632-51.876,9.133-51.876,9.864Z" fill="#0c0d0b"/>
    <path d="M112.4,177.79c-12.062,2.963-13.964,9.946-13.964,9.946h-3.087s-1.903-6.984-13.964-9.946c-12.062-2.963-29.292,2.116-29.292,2.116,6.548,13.756,25.307,14.39,25.307,14.39h38.986s18.759-.635,25.307-14.39c0,0-17.231-5.079-29.292-2.116Z" fill="#0c0d0b"/>
    <path d="M110.185,276.183c-10.338,2.539-11.969,8.525-11.969,8.525h-2.646s-1.631-5.986-11.969-8.525c-10.338-2.539-25.108,1.814-25.108,1.814,5.612,11.79,21.692,12.335,21.692,12.335h33.416s16.08-.544,21.692-12.335c0,0-14.769-4.353-25.108-1.814Z" fill="#0c0d0b"/>
    <path d="M98.199,118.394h-34.594s2.504,8.458,12.205,12.19c9.702,3.732,19.869.757,19.869.757h2.535s10.168,2.975,19.869-.757c9.702-3.731,12.205-12.19,12.205-12.19h-32.091ZM97.138,118.906h-.38c.063-.004.126-.014.19-.014s.127.01.19.014ZM96.84,130.576h.215c-.036.001-.071.008-.107.008s-.071-.007-.107-.008Z" fill="#0c0d0b"/>
    <path d="M142.359,236.794h-34.594s2.504,8.458,12.205,12.19c9.702,3.732,19.869.757,19.869.757h2.535s10.168,2.975,19.869-.757c9.702-3.731,12.205-12.19,12.205-12.19h-32.091ZM141.298,237.306h-.38c.063-.004.126-.014.19-.014s.127.01.19.014ZM141,248.976h.215c-.036.001-.071.008-.107.008s-.071-.007-.107-.008Z" fill="#0c0d0b"/>
    <path d="M133.349,142.358h-33.201s2.403,8.117,11.714,11.699c9.311,3.581,19.069.726,19.069.726h2.433s9.758,2.855,19.069-.726c9.311-3.581,11.714-11.699,11.714-11.699h-30.799ZM132.33,142.849h-.365c.061-.004.121-.014.182-.014s.121.009.182.014ZM132.044,154.049h.206c-.035.001-.068.008-.103.008s-.069-.006-.103-.008Z" fill="#0c0d0b"/>
    <path d="M64.869,142.358H31.668s2.403,8.117,11.714,11.699c9.311,3.581,19.069.726,19.069.726h2.433s9.758,2.855,19.069-.726c9.311-3.581,11.714-11.699,11.714-11.699h-30.799ZM63.85,142.849h-.365c.061-.004.121-.014.182-.014s.121.009.182.014ZM63.564,154.049h.206c-.035.001-.068.008-.103.008s-.069-.006-.103-.008Z" fill="#0c0d0b"/>
    <path d="M57.879,236.794H23.285s2.504,8.458,12.205,12.19c9.702,3.732,19.869.757,19.869.757h2.535s10.168,2.975,19.869-.757c9.702-3.731,12.205-12.19,12.205-12.19h-32.091ZM56.818,237.306h-.38c.063-.004.126-.014.19-.014s.127.01.19.014ZM56.52,248.976h.215c-.036.001-.071.008-.107.008s-.071-.007-.107-.008Z" fill="#0c0d0b"/>
    <path d="M98.199,254.714h-34.594s2.504,8.458,12.205,12.19c9.702,3.732,19.869.757,19.869.757h2.535s10.168,2.975,19.869-.757c9.702-3.731,12.205-12.19,12.205-12.19h-32.091ZM97.138,255.226h-.38c.063-.004.126-.014.19-.014s.127.01.19.014ZM96.84,266.896h.215c-.036.001-.071.008-.107.008s-.071-.007-.107-.008Z" fill="#0c0d0b"/>
  </g>
  <g id="Flores">
    <g>
      <path d="M97.399,16.072c0-.548-3.562-21.372-38.907-7.398,0,0,8.494,12.056,18.632,18.084,8.781,5.221,17.558,3.593,19.75,3.063v43.255c-1.698.129-3.037,1.544-3.037,3.275,0,1.654,1.223,3.019,2.813,3.25-2.247,11.376-12.297,19.983-24.323,19.983-13.627,0-24.722-11.05-24.796-24.66h4.913c1.092,10.015,9.574,17.81,19.88,17.81,11.047,0,20.002-8.955,20.002-20.002s-8.955-20.002-20.002-20.002-20.002,8.955-20.002,20.002c0,.647.033,1.286.094,1.918h-5.159v.137c0,13.824,11.247,25.071,25.071,25.071,12.168,0,22.335-8.714,24.597-20.229.067.004.133.01.201.01,1.816,0,3.288-1.472,3.288-3.288,0-1.637-1.197-2.99-2.763-3.242V29.753c1.617.425,10.82,2.478,20.024-2.995,10.138-6.028,18.632-18.084,18.632-18.084-35.345-13.974-38.907,6.85-38.907,7.398Z" fill="#0c0d0b"/>
      <path d="M71.993,78.798c-2.987-.021-5.335-2.398-5.296-5.361.04-2.983,2.442-5.349,5.406-5.324,2.945.025,5.359,2.475,5.333,5.414-.026,2.936-2.459,5.293-5.443,5.272Z" fill="#f5df31"/>
    </g>
    <path d="M161.92,102.356c.033-4.691,3.767-8.38,8.421-8.318,4.685.062,8.402,3.836,8.363,8.491-.039,4.626-3.887,8.417-8.503,8.376-4.611-.041-8.314-3.863-8.281-8.549Z" fill="#e9a000"/>
    <path d="M14.72,126.036c.033-4.691,3.767-8.38,8.421-8.318,4.685.062,8.402,3.836,8.363,8.491-.039,4.626-3.887,8.417-8.503,8.376-4.611-.041-8.314-3.863-8.281-8.549Z" fill="#e9a000"/>
    <path d="M0,262.996c.033-4.691,3.767-8.38,8.421-8.318,4.685.062,8.402,3.836,8.363,8.491-.039,4.626-3.887,8.417-8.503,8.376-4.611-.041-8.314-3.863-8.281-8.549Z" fill="#e9a000"/>
    <path d="M179.84,289.236c.033-4.691,3.767-8.38,8.421-8.318,4.685.062,8.402,3.836,8.363,8.491-.039,4.626-3.887,8.417-8.503,8.376-4.611-.041-8.314-3.863-8.281-8.549Z" fill="#e9a000"/>
  </g>
</svg>