<?xml version="1.0" encoding="UTF-8"?>
<svg xmlns="http://www.w3.org/2000/svg" width="200.123" height="450" viewBox="0 0 200.123 450">
  <g id="tallos">
    <g>
      <line x1="98.67" y1="449.924" x2="98.67" y2="25.498" fill="none" stroke="#0c0d0b" stroke-miterlimit="10" stroke-width="2.108"/>
      <path d="M23.791,122.184h31.906c4.458,0,8.071,3.614,8.071,8.071v25.726c0,4.458,3.614,8.071,8.071,8.071h54.374c4.458,0,8.071-3.614,8.071-8.071v-47.389c0-4.458,3.614-8.071,8.071-8.071h31.178" fill="none" stroke="#0c0d0b" stroke-linejoin="round" stroke-width=".923"/>
      <path d="M5.074,263.47h39.882c5.572,0,10.089-4.517,10.089-10.089v-32.158c0-5.572,4.517-10.089,10.089-10.089h67.967c5.572,0,10.089,4.517,10.089,10.089v59.236c0,5.572,4.517,10.089,10.089,10.089h38.973" fill="none" stroke="#0c0d0b" stroke-linejoin="round" stroke-width="1.154"/>
    </g>
  </g>
  <g id="Hojas">
    <path d="M114.4,180.005c-12.276,3.015-14.213,10.123-14.213,10.123h-3.142s-1.937-7.108-14.213-10.123c-12.276-3.015-29.814,2.154-29.814,2.154,6.664,14,25.758,14.646,25.758,14.646h39.679s19.093-.646,25.758-14.646c0,0-17.537-5.169-29.814-2.154Z" fill="#0c0d0b"/>
    <path d="M113.383,108.759c-12.276,3.015-14.213,10.123-14.213,10.123h-3.142s-1.937-7.108-14.213-10.123c-12.276-3.015-29.814,2.154-29.814,2.154,6.664,14,25.758,14.646,25.758,14.646h39.679s19.093-.646,25.758-14.646c0,0-17.537-5.169-29.814-2.154Z" fill="#0c0d0b"/>
    <path d="M98.063,371.018c0-.744-4.834-29.003-52.8-10.039,0,0,11.527,16.36,25.284,24.541,9.631,5.726,19.254,5.381,24.164,4.659l2.569-.305h1.303c2.195.576,14.504,3.073,26.995-4.354,13.758-8.18,25.284-24.541,25.284-24.541-47.966-18.963-52.8,9.296-52.8,10.039Z" fill="#0c0d0b"/>
    <path d="M98.929,271.529h-35.21s2.548,8.609,12.423,12.406c9.875,3.798,20.223.77,20.223.77h2.58s10.349,3.028,20.223-.77c9.875-3.798,12.423-12.406,12.423-12.406h-32.662ZM97.848,272.05h-.387c.065-.004.128-.014.193-.014s.129.01.193.014ZM97.546,283.928h.219c-.037.001-.072.008-.109.008s-.073-.007-.109-.008Z" fill="#0c0d0b"/>
    <path d="M106.054,316.312h-35.21s2.548,8.609,12.423,12.406c9.875,3.798,20.223.77,20.223.77h2.58s10.349,3.028,20.223-.77c9.875-3.798,12.423-12.406,12.423-12.406h-32.662ZM104.973,316.833h-.387c.065-.004.128-.014.193-.014s.129.01.193.014ZM104.67,328.711h.219c-.037.001-.072.008-.109.008s-.073-.007-.109-.008Z" fill="#0c0d0b"/>
    <path d="M144.893,237.006h-35.21s2.548,8.609,12.423,12.406c9.875,3.798,20.223.77,20.223.77h2.58s10.349,3.028,20.223-.77c9.875-3.798,12.423-12.406,12.423-12.406h-32.662ZM143.812,237.526h-.387c.065-.004.128-.014.193-.014s.129.01.193.014ZM143.509,249.404h.219c-.037.001-.072.008-.109.008s-.073-.007-.109-.008Z" fill="#0c0d0b"/>
    <path d="M58.909,237.006H23.699s2.548,8.609,12.423,12.406c9.875,3.798,20.223.77,20.223.77h2.58s10.349,3.028,20.223-.77c9.875-3.798,12.423-12.406,12.423-12.406h-32.662ZM57.829,237.526h-.387c.065-.004.128-.014.193-.014s.129.01.193.014ZM57.526,249.404h.219c-.037.001-.072.008-.109.008s-.073-.007-.109-.008Z" fill="#0c0d0b"/>
  </g>
  <g id="Flores">
    <g>
      <path d="M99.132,12.355c0-.558-3.625-21.752-39.6-7.53,0,0,8.645,12.27,18.963,18.406,8.938,5.314,17.87,3.657,20.102,3.118v44.024c-1.728.131-3.091,1.572-3.091,3.334,0,1.684,1.244,3.073,2.863,3.308-2.287,11.579-12.516,20.339-24.756,20.339-13.87,0-25.162-11.246-25.237-25.098h5c1.112,10.193,9.745,18.127,20.234,18.127,11.243,0,20.358-9.114,20.358-20.358s-9.114-20.358-20.358-20.358-20.358,9.114-20.358,20.358c0,.659.034,1.309.095,1.952h-5.251v.139c0,14.07,11.447,25.517,25.517,25.517,12.384,0,22.732-8.869,25.035-20.589.068.004.135.01.204.01,1.848,0,3.346-1.498,3.346-3.346,0-1.666-1.218-3.043-2.812-3.3V26.279c1.646.432,11.013,2.522,20.381-3.048,10.318-6.135,18.963-18.406,18.963-18.406-35.974-14.222-39.6,6.972-39.6,7.53Z" fill="#0c0d0b"/>
      <path d="M73.275,76.198c-3.04-.021-5.43-2.441-5.39-5.457.04-3.036,2.486-5.444,5.502-5.419,2.998.025,5.454,2.519,5.427,5.51-.027,2.988-2.503,5.387-5.54,5.366Z" fill="#f5df31"/>
    </g>
    <path d="M164.802,100.175c.033-4.775,3.834-8.529,8.571-8.466,4.768.063,8.551,3.904,8.512,8.643-.039,4.708-3.956,8.567-8.654,8.525-4.693-.042-8.461-3.932-8.428-8.701Z" fill="#e9a000"/>
    <path d="M14.982,124.276c.033-4.775,3.834-8.529,8.571-8.466,4.768.063,8.551,3.904,8.512,8.643-.039,4.708-3.956,8.567-8.654,8.525-4.693-.042-8.461-3.932-8.428-8.701Z" fill="#e9a000"/>
    <path d="M0,263.673c.033-4.775,3.834-8.529,8.571-8.466,4.768.063,8.551,3.904,8.512,8.643-.039,4.708-3.956,8.567-8.654,8.525-4.693-.042-8.461-3.932-8.428-8.701Z" fill="#e9a000"/>
    <path d="M183.041,290.38c.033-4.775,3.834-8.529,8.571-8.466,4.768.063,8.551,3.904,8.512,8.643-.039,4.708-3.956,8.567-8.654,8.525-4.693-.042-8.461-3.932-8.428-8.701Z" fill="#e9a000"/>
  </g>
</svg>