<?xml version="1.0" encoding="UTF-8"?>
<svg xmlns="http://www.w3.org/2000/svg" width="200.166" height="450" viewBox="0 0 200.166 450">
  <g id="tallos">
    <g>
      <line x1="98.691" y1="449.924" x2="98.691" y2="25.408" fill="none" stroke="#0c0d0b" stroke-miterlimit="10" stroke-width="2.108"/>
      <path d="M23.797,122.114h31.913c4.459,0,8.073,3.614,8.073,8.073v25.732c0,4.459,3.614,8.073,8.073,8.073h54.385c4.459,0,8.073-3.614,8.073-8.073v-47.399c0-4.459,3.614-8.073,8.073-8.073h31.185" fill="none" stroke="#0c0d0b" stroke-linejoin="round" stroke-width=".923"/>
      <path d="M5.075,263.43h39.891c5.573,0,10.091-4.518,10.091-10.091v-32.165c0-5.573,4.518-10.091,10.091-10.091h67.982c5.573,0,10.091,4.518,10.091,10.091v59.248c0,5.573,4.518,10.091,10.091,10.091h38.981" fill="none" stroke="#0c0d0b" stroke-linejoin="round" stroke-width="1.154"/>
    </g>
  </g>
  <g id="Hojas">
    <path d="M98.084,371.002c0-.744-4.835-29.009-52.811-10.041,0,0,11.529,16.364,25.29,24.546,9.633,5.728,19.258,5.382,24.169,4.66l2.57-.305h1.303c2.195.576,14.507,3.073,27.001-4.355,13.761-8.182,25.29-24.546,25.29-24.546-47.976-18.967-52.811,9.298-52.811,10.041Z" fill="#0c0d0b"/>
    <path d="M98.95,271.491h-35.217s2.549,8.61,12.425,12.409c9.877,3.799,20.227.771,20.227.771h2.581s10.351,3.028,20.227-.771c9.877-3.799,12.425-12.409,12.425-12.409h-32.669ZM97.869,272.012h-.387c.065-.004.128-.014.193-.014s.129.01.193.014ZM97.566,283.892h.219c-.037.001-.072.008-.109.008s-.073-.007-.109-.008Z" fill="#0c0d0b"/>
    <path d="M99.968,298.978h-35.217s2.549,8.61,12.425,12.409c9.877,3.799,20.227.771,20.227.771h2.581s10.351,3.028,20.227-.771c9.877-3.799,12.425-12.409,12.425-12.409h-32.669ZM98.887,299.499h-.387c.065-.004.128-.014.193-.014s.129.01.193.014ZM98.584,311.379h.219c-.037.001-.072.008-.109.008s-.073-.007-.109-.008Z" fill="#0c0d0b"/>
    <path d="M100.605,322.883h-52.826s3.823,12.916,18.638,18.614c14.815,5.698,30.341,1.156,30.341,1.156h3.872s15.526,4.542,30.341-1.156c14.815-5.698,18.638-18.614,18.638-18.614h-49.003ZM98.984,323.664h-.58c.097-.007.192-.022.29-.022s.193.015.29.022ZM98.53,341.485h.328c-.055.002-.109.012-.164.012s-.109-.01-.164-.012Z" fill="#0c0d0b"/>
    <path d="M114.425,167.731c-12.279,3.016-14.216,10.125-14.216,10.125h-3.143s-1.937-7.109-14.216-10.125c-12.279-3.016-29.82,2.154-29.82,2.154,6.666,14.003,25.763,14.65,25.763,14.65h39.688s19.097-.646,25.763-14.65c0,0-17.541-5.17-29.82-2.154Z" fill="#0c0d0b"/>
    <path d="M114.425,190.127c-12.279,3.016-14.216,10.125-14.216,10.125h-3.143s-1.937-7.109-14.216-10.125c-12.279-3.016-29.82,2.154-29.82,2.154,6.666,14.003,25.763,14.65,25.763,14.65h39.688s19.097-.646,25.763-14.65c0,0-17.541-5.17-29.82-2.154Z" fill="#0c0d0b"/>
    <path d="M99.968,116.428h-35.217s2.549,8.61,12.425,12.409c9.877,3.799,20.227.771,20.227.771h2.581s10.351,3.028,20.227-.771c9.877-3.799,12.425-12.409,12.425-12.409h-32.669ZM98.887,116.949h-.387c.065-.004.128-.014.193-.014s.129.01.193.014ZM98.584,128.829h.219c-.037.001-.072.008-.109.008s-.073-.007-.109-.008Z" fill="#0c0d0b"/>
    <path d="M144.923,236.96h-35.217s2.549,8.61,12.425,12.409c9.877,3.799,20.227.771,20.227.771h2.581s10.351,3.028,20.227-.771c9.877-3.799,12.425-12.409,12.425-12.409h-32.669ZM143.843,237.481h-.387c.065-.004.128-.014.193-.014s.129.01.193.014ZM143.54,249.361h.219c-.037.001-.072.008-.109.008s-.073-.007-.109-.008Z" fill="#0c0d0b"/>
    <path d="M58.922,236.96H23.704s2.549,8.61,12.425,12.409c9.877,3.799,20.227.771,20.227.771h2.581s10.351,3.028,20.227-.771c9.877-3.799,12.425-12.409,12.425-12.409h-32.669ZM57.841,237.481h-.387c.065-.004.128-.014.193-.014s.129.01.193.014ZM57.538,249.361h.219c-.037.001-.072.008-.109.008s-.073-.007-.109-.008Z" fill="#0c0d0b"/>
  </g>
  <g id="Flores">
    <g>
      <path d="M129.306,48.737h-1.277c-.363,16.84-14.174,30.428-31.1,30.428-17.153,0-31.108-13.955-31.108-31.108,0-16.938,13.608-30.758,30.465-31.102v5.49c-13.856.342-24.985,11.673-24.985,25.611,0,14.154,11.474,25.627,25.627,25.627s25.627-11.474,25.627-25.627c0-13.938-11.129-25.269-24.985-25.611v-6.783h-.643c-17.862,0-32.394,14.532-32.394,32.394s14.532,32.394,32.394,32.394c17.634,0,32.012-14.165,32.376-31.713Z" fill="#0c0d0b"/>
      <g>
        <g>
          <path d="M160.719,16.964c-5.891-8.484-15.069-14.673-26.063-16.498-14.903-2.475-29.241,3.712-37.876,14.881v46.599h-49.512c-.62-3.807-3.988-6.785-8.019-6.818-4.518-.037-8.181,3.523-8.242,8.012-.06,4.458,3.52,8.036,8.074,8.067,4.548.031,8.258-3.515,8.297-7.933,0-.014-.002-.028-.002-.042h107.02s0-1.285,0-1.285h-56.574s62.896-44.982,62.896-44.982Z" fill="#0c0c0c"/>
          <path d="M30.414,63.126c.033-4.776,3.835-8.531,8.572-8.468,4.769.063,8.553,3.905,8.514,8.644-.039,4.709-3.957,8.568-8.656,8.527-4.694-.042-8.463-3.933-8.43-8.703Z" fill="#e9a000"/>
        </g>
        <path d="M111.336,26.752c.033-4.776,3.835-8.531,8.572-8.468,4.769.063,8.553,3.905,8.514,8.644-.039,4.709-3.957,8.568-8.656,8.527-4.694-.042-8.463-3.933-8.43-8.703Z" fill="#e9a000"/>
      </g>
    </g>
    <path d="M164.837,100.1c.033-4.776,3.835-8.531,8.572-8.468,4.769.063,8.553,3.905,8.514,8.644-.039,4.709-3.957,8.568-8.656,8.527-4.694-.042-8.463-3.933-8.43-8.703Z" fill="#e9a000"/>
    <path d="M14.985,124.207c.033-4.776,3.835-8.531,8.572-8.468,4.769.063,8.553,3.905,8.514,8.644-.039,4.709-3.957,8.568-8.656,8.527-4.694-.042-8.463-3.933-8.43-8.703Z" fill="#e9a000"/>
    <path d="M0,263.634c.033-4.776,3.835-8.531,8.572-8.468,4.769.063,8.553,3.905,8.514,8.644-.039,4.709-3.957,8.568-8.656,8.527-4.694-.042-8.463-3.933-8.43-8.703Z" fill="#e9a000"/>
    <path d="M183.08,290.346c.033-4.776,3.835-8.531,8.572-8.468,4.769.063,8.553,3.905,8.514,8.644-.039,4.709-3.957,8.568-8.656,8.527-4.694-.042-8.463-3.933-8.43-8.703Z" fill="#e9a000"/>
  </g>
</svg>