<?xml version="1.0" encoding="UTF-8"?>
<svg id="a" data-name="Capa 1" xmlns="http://www.w3.org/2000/svg" viewBox="0 0 202.39 339.87">
  <defs>
    <style>
      .b {
        fill: #7ac08d;
      }

      .b, .c, .d {
        stroke-width: 0px;
      }

      .c {
        fill: #158236;
      }

      .d {
        fill: #142a19;
      }
    </style>
  </defs>
  <path class="b" d="m184.24,156.01c5.06-29.16.58-56.37-15.94-81.24-3.7-5.57-7.86-10.69-12.39-15.44-6.8-7.13-14.43-13.41-22.65-19.07-14.18-9.77-26.48-20.95-30.4-40.25-4.17,17.58-14.3,28.75-28.12,37.06-3.85,2.32-7.54,4.91-11.22,7.49-10.89,7.65-19.95,17.15-26.97,27.85-16.1,24.54-21.4,55.39-13.04,84.75.95,3.35.5,5.94-1.24,8.89-.04.06-.07.13-.11.19,13.27,32.37,44.4,55.11,80.71,55.17h0s.02,0,.04,0c.53,0,1.04-.05,1.55-.13v.11c36.87-.61,68.2-24.6,80.59-58.18-.86-2.25-1.17-4.96-.79-7.19Z"/>
  <path class="d" d="m174.02,147.8c-46.98-58.21-63.66-85.22-71.94-118.98-.58-2.36-.89-9.7-.89-9.7,0,0-.58,8.7-.89,9.7-10.17,33.24-24.96,60.77-71.94,118.98-46.98,58.21-21.45,123.06-21.45,123.06,0,0,10.64,45.37,68.11,64.07,4.55,1.44,11.96,3.52,20.01,4.75,3.67.56,14.32-.05,25.93-2.84,63.08-17.28,74.5-65.98,74.5-65.98,0,0,25.53-64.85-21.45-123.06Z"/>
  <circle class="b" cx="102.9" cy="241.25" r="80.43"/>
  <circle class="c" cx="101.2" cy="241.25" r="49.02"/>
</svg>