<?xml version="1.0" encoding="UTF-8"?>
<svg id="a" data-name="Capa 1" xmlns="http://www.w3.org/2000/svg" viewBox="0 0 264.07 296.55">
  <defs>
    <style>
      .b {
        fill: #50ad5b;
      }

      .b, .c, .d, .e {
        stroke-width: 0px;
      }

      .c {
        fill: #71b961;
      }

      .d {
        fill: #060808;
      }

      .e {
        fill: #142a19;
      }
    </style>
  </defs>
  <path class="e" d="m55.95,125.05c0,42.02,34.07,76.09,76.09,76.09V48.96c-42.02,0-76.09,34.07-76.09,76.09Z"/>
  <path class="d" d="m208.12,125.05c0-42.02-34.07-76.09-76.09-76.09v152.18c42.02,0,76.09-34.07,76.09-76.09Z"/>
  <path class="b" d="m257.53,89.43C232.37,13.42,145.87-21.83,74.53,14.19,8.02,47.77-18.39,127.49,15.21,194.07c7.06,13.99,16.17,26.58,28.35,36.59h87.53s7.53.01,7.53.01c0,0,10.65-44.64,0-43.06-2.04.3-.45.14-6.51.15-.04,0,0-.16,0-.16-.58-.18-1.44-.75-2.31-.79-36.11-1.47-65.05-33.79-60.43-72.01,2.36-19.52,11.85-34.92,28.37-45.39,21.59-13.68,44.41-15.17,67.06-3.06,22.11,11.82,33.31,31.18,33.71,56.14.53,33.79-23.29,60.17-57.35,64.27-1.04.13-1.98.49-2.55.85v43.06h83.15c2.37-2.05,4.74-4.09,6.9-6.34,14.02-14.61,23.6-31.57,29.71-51.09,8.85-28.28,8.26-56.29-.85-83.82Z"/>
  <path class="c" d="m228.75,226.07c-32.03,0-64.05.01-96.08.02-32.03,0-64.05-.02-96.08-.02-4.88,0-4.89.11-2.89,4.78,11.94,27.84,32.9,46.33,60.54,57.45,12.27,4.94,25.13,7.89,38.43,8.24,13.3-.34,26.16-3.3,38.43-8.24,27.64-11.12,48.6-29.61,60.54-57.45,2-4.67,1.99-4.78-2.89-4.78Z"/>
</svg>