<?xml version="1.0" encoding="UTF-8"?>
<svg id="a" data-name="Capa 1" xmlns="http://www.w3.org/2000/svg" viewBox="0 0 124.27 252.32">
  <defs>
    <style>
      .b {
        fill: #6cb758;
      }

      .b, .c {
        stroke-width: 0px;
      }

      .c {
        fill: #142a19;
      }
    </style>
  </defs>
  <path class="c" d="m62.21.64v-.64c-.14.11-.27.21-.4.32-.14-.11-.27-.21-.4-.32v.64c-134.33,106.14-7.68,242.28.89,251.22v.47s.08-.08.23-.23c.15.15.23.23.23.23v-.47c8.51-8.98,134.39-145.84-.54-251.22Z"/>
  <path class="b" d="m62.57,199.93s80.98-89.81-.43-147.1h0s0,0,0,0c0,0,0,0,0,0h0c-81.09,57.76.41,147.11.41,147.11"/>
</svg>