<?xml version="1.0" encoding="UTF-8"?>
<svg xmlns="http://www.w3.org/2000/svg" width="100" height="100" xmlns:xlink="http://www.w3.org/1999/xlink" viewBox="0 0 100 100">
  <defs>
    <clipPath id="clippath">
      <rect x="33.539" y="68.826" width="33.604" height="2.547" fill="none"/>
    </clipPath>
  </defs>
  <g id="background">
    <circle cx="49.915" cy="83.171" r="8.831" fill="#ba7171" opacity=".33"/>
  </g>
  <g id="root">
    <g>
      <g>
        <g>
          <path d="M51.757,78.09c0-.082,1.639-.076,3.146-.052,1.371.021,2.47,1.138,2.47,2.509v19.453" fill="none" stroke="#0c0d0b" stroke-miterlimit="10" stroke-width=".129"/>
          <path d="M50.037,75.808c0-.1,4.004-.068,6.732-.035,1.374.017,2.478,1.135,2.478,2.509v19.435" fill="none" stroke="#0c0d0b" stroke-miterlimit="10" stroke-width=".166"/>
          <path d="M59.252,83.069h1.039c.935,0,1.693.758,1.693,1.693v9.685" fill="none" stroke="#0c0d0b" stroke-miterlimit="10" stroke-width=".166"/>
          <path d="M57.419,88.623h-1.039c-.935,0-1.693.758-1.693,1.693v9.685" fill="none" stroke="#0c0d0b" stroke-miterlimit="10" stroke-width=".166"/>
        </g>
        <g>
          <path d="M48.198,78.09c0-.082-1.639-.076-3.146-.052-1.371.021-2.47,1.138-2.47,2.509v19.453" fill="none" stroke="#0c0d0b" stroke-miterlimit="10" stroke-width=".129"/>
          <path d="M49.918,75.808c0-.1-4.004-.068-6.732-.035-1.374.017-2.478,1.135-2.478,2.509v19.435" fill="none" stroke="#0c0d0b" stroke-miterlimit="10" stroke-width=".166"/>
          <path d="M42.581,88.623h1.039c.935,0,1.693.758,1.693,1.693v9.685" fill="none" stroke="#0c0d0b" stroke-miterlimit="10" stroke-width=".166"/>
          <path d="M40.748,83.069h-1.039c-.935,0-1.693.758-1.693,1.693v9.685" fill="none" stroke="#0c0d0b" stroke-miterlimit="10" stroke-width=".166"/>
        </g>
      </g>
      <line x1="50.037" y1="78.926" x2="50.037" y2="68.505" fill="none" stroke="#0c0d0b" stroke-miterlimit="10" stroke-width=".131"/>
    </g>
  </g>
  <g id="seed">
    <g>
      <path d="M51.762,77.382c-.056-.048-1.295-.597-1.567-.825-.144-.114-.169-.228-.16-.341-.027-1.187-.037-2.571-.015-3.753.02-.227-.084-.455.282-.682.648-.414.044-1.394-.618-.997-.368.216-.364.782,0,.997.367.227.263.455.282.682.003.664.022,1.387.013,2.047l-.022,1.365c-.028.237.081.498-.166.682-.29.28-1.122.468-1.535.818-2.394.743-4.132,2.974-4.132,5.612,0,2.691,1.812,4.955,4.281,5.65.44.281,1.128.456,1.386.705.247.185.138.445.166.682l.022,1.365c.009.66-.011,1.383-.013,2.047-.02.227.084.455-.282.682-.364.215-.368.781,0,.997.663.397,1.266-.583.618-.997-.367-.227-.263-.455-.282-.682-.022-1.182-.013-2.566.015-3.753-.009-.114.017-.227.16-.341.272-.227,1.358-.692,1.367-.697,2.485-.685,4.313-2.955,4.313-5.658,0-2.631-1.729-4.857-4.113-5.605ZM50.489,86.005c-2.09.32-3.863-1.454-3.543-3.543.199-1.302,1.264-2.366,2.566-2.566,2.09-.32,3.863,1.454,3.543,3.543-.199,1.302-1.264,2.366-2.566,2.566Z" fill="#0c0d0b"/>
      <circle cx="50" cy="82.95" r="1.855" fill="#ba7171"/>
    </g>
  </g>
  <g id="soil">
    <g>
      <line x1="32.541" y1="68.505" x2="67.536" y2="68.505" fill="none" stroke="#0c0d0b" stroke-miterlimit="10" stroke-width="1.417"/>
      <g clip-path="url(#clippath)">
        <g>
          <circle cx="34.383" cy="69.07" r=".24" fill="#0c0d0b" stroke="#0c0d0b" stroke-miterlimit="10" stroke-width=".041"/>
          <circle cx="35.707" cy="69.07" r=".24" fill="#0c0d0b" stroke="#0c0d0b" stroke-miterlimit="10" stroke-width=".041"/>
          <circle cx="37.03" cy="69.07" r=".24" fill="#0c0d0b" stroke="#0c0d0b" stroke-miterlimit="10" stroke-width=".041"/>
          <circle cx="38.354" cy="69.07" r=".24" fill="#0c0d0b" stroke="#0c0d0b" stroke-miterlimit="10" stroke-width=".041"/>
          <circle cx="39.677" cy="69.07" r=".24" fill="#0c0d0b" stroke="#0c0d0b" stroke-miterlimit="10" stroke-width=".041"/>
          <circle cx="41.001" cy="69.07" r=".24" fill="#0c0d0b" stroke="#0c0d0b" stroke-miterlimit="10" stroke-width=".041"/>
          <circle cx="42.324" cy="69.07" r=".24" fill="#0c0d0b" stroke="#0c0d0b" stroke-miterlimit="10" stroke-width=".041"/>
          <circle cx="43.647" cy="69.07" r=".24" fill="#0c0d0b" stroke="#0c0d0b" stroke-miterlimit="10" stroke-width=".041"/>
          <circle cx="44.971" cy="69.07" r=".24" fill="#0c0d0b" stroke="#0c0d0b" stroke-miterlimit="10" stroke-width=".041"/>
          <circle cx="46.294" cy="69.07" r=".24" fill="#0c0d0b" stroke="#0c0d0b" stroke-miterlimit="10" stroke-width=".041"/>
          <circle cx="47.618" cy="69.07" r=".24" fill="#0c0d0b" stroke="#0c0d0b" stroke-miterlimit="10" stroke-width=".041"/>
          <circle cx="48.941" cy="69.07" r=".24" fill="#0c0d0b" stroke="#0c0d0b" stroke-miterlimit="10" stroke-width=".041"/>
          <circle cx="50.265" cy="69.07" r=".24" fill="#0c0d0b" stroke="#0c0d0b" stroke-miterlimit="10" stroke-width=".041"/>
          <circle cx="51.588" cy="69.07" r=".24" fill="#0c0d0b" stroke="#0c0d0b" stroke-miterlimit="10" stroke-width=".041"/>
          <circle cx="52.911" cy="69.07" r=".24" fill="#0c0d0b" stroke="#0c0d0b" stroke-miterlimit="10" stroke-width=".041"/>
          <circle cx="54.235" cy="69.07" r=".24" fill="#0c0d0b" stroke="#0c0d0b" stroke-miterlimit="10" stroke-width=".041"/>
          <circle cx="55.558" cy="69.07" r=".24" fill="#0c0d0b" stroke="#0c0d0b" stroke-miterlimit="10" stroke-width=".041"/>
          <circle cx="56.882" cy="69.07" r=".24" fill="#0c0d0b" stroke="#0c0d0b" stroke-miterlimit="10" stroke-width=".041"/>
          <circle cx="58.205" cy="69.07" r=".24" fill="#0c0d0b" stroke="#0c0d0b" stroke-miterlimit="10" stroke-width=".041"/>
          <circle cx="59.529" cy="69.07" r=".24" fill="#0c0d0b" stroke="#0c0d0b" stroke-miterlimit="10" stroke-width=".041"/>
          <circle cx="60.852" cy="69.07" r=".24" fill="#0c0d0b" stroke="#0c0d0b" stroke-miterlimit="10" stroke-width=".041"/>
          <circle cx="62.175" cy="69.07" r=".24" fill="#0c0d0b" stroke="#0c0d0b" stroke-miterlimit="10" stroke-width=".041"/>
          <circle cx="63.499" cy="69.07" r=".24" fill="#0c0d0b" stroke="#0c0d0b" stroke-miterlimit="10" stroke-width=".041"/>
          <circle cx="64.822" cy="69.07" r=".24" fill="#0c0d0b" stroke="#0c0d0b" stroke-miterlimit="10" stroke-width=".041"/>
          <circle cx="66.146" cy="69.07" r=".24" fill="#0c0d0b" stroke="#0c0d0b" stroke-miterlimit="10" stroke-width=".041"/>
          <circle cx="33.722" cy="70.07" r=".24" fill="#0c0d0b" stroke="#0c0d0b" stroke-miterlimit="10" stroke-width=".041"/>
          <circle cx="35.045" cy="70.07" r=".24" fill="#0c0d0b" stroke="#0c0d0b" stroke-miterlimit="10" stroke-width=".041"/>
          <circle cx="36.369" cy="70.07" r=".24" fill="#0c0d0b" stroke="#0c0d0b" stroke-miterlimit="10" stroke-width=".041"/>
          <circle cx="37.692" cy="70.07" r=".24" fill="#0c0d0b" stroke="#0c0d0b" stroke-miterlimit="10" stroke-width=".041"/>
          <circle cx="39.015" cy="70.07" r=".24" fill="#0c0d0b" stroke="#0c0d0b" stroke-miterlimit="10" stroke-width=".041"/>
          <circle cx="40.339" cy="70.07" r=".24" fill="#0c0d0b" stroke="#0c0d0b" stroke-miterlimit="10" stroke-width=".041"/>
          <circle cx="41.662" cy="70.07" r=".24" fill="#0c0d0b" stroke="#0c0d0b" stroke-miterlimit="10" stroke-width=".041"/>
          <circle cx="42.986" cy="70.07" r=".24" fill="#0c0d0b" stroke="#0c0d0b" stroke-miterlimit="10" stroke-width=".041"/>
          <circle cx="44.309" cy="70.07" r=".24" fill="#0c0d0b" stroke="#0c0d0b" stroke-miterlimit="10" stroke-width=".041"/>
          <circle cx="45.633" cy="70.07" r=".24" fill="#0c0d0b" stroke="#0c0d0b" stroke-miterlimit="10" stroke-width=".041"/>
          <circle cx="46.956" cy="70.07" r=".24" fill="#0c0d0b" stroke="#0c0d0b" stroke-miterlimit="10" stroke-width=".041"/>
          <circle cx="48.279" cy="70.07" r=".24" fill="#0c0d0b" stroke="#0c0d0b" stroke-miterlimit="10" stroke-width=".041"/>
          <circle cx="49.603" cy="70.07" r=".24" fill="#0c0d0b" stroke="#0c0d0b" stroke-miterlimit="10" stroke-width=".041"/>
          <circle cx="50.926" cy="70.07" r=".24" fill="#0c0d0b" stroke="#0c0d0b" stroke-miterlimit="10" stroke-width=".041"/>
          <circle cx="52.25" cy="70.07" r=".24" fill="#0c0d0b" stroke="#0c0d0b" stroke-miterlimit="10" stroke-width=".041"/>
          <circle cx="53.573" cy="70.07" r=".24" fill="#0c0d0b" stroke="#0c0d0b" stroke-miterlimit="10" stroke-width=".041"/>
          <circle cx="54.897" cy="70.07" r=".24" fill="#0c0d0b" stroke="#0c0d0b" stroke-miterlimit="10" stroke-width=".041"/>
          <circle cx="56.22" cy="70.07" r=".24" fill="#0c0d0b" stroke="#0c0d0b" stroke-miterlimit="10" stroke-width=".041"/>
          <circle cx="57.543" cy="70.07" r=".24" fill="#0c0d0b" stroke="#0c0d0b" stroke-miterlimit="10" stroke-width=".041"/>
          <circle cx="58.867" cy="70.07" r=".24" fill="#0c0d0b" stroke="#0c0d0b" stroke-miterlimit="10" stroke-width=".041"/>
          <circle cx="60.19" cy="70.07" r=".24" fill="#0c0d0b" stroke="#0c0d0b" stroke-miterlimit="10" stroke-width=".041"/>
          <circle cx="61.514" cy="70.07" r=".24" fill="#0c0d0b" stroke="#0c0d0b" stroke-miterlimit="10" stroke-width=".041"/>
          <circle cx="62.837" cy="70.07" r=".24" fill="#0c0d0b" stroke="#0c0d0b" stroke-miterlimit="10" stroke-width=".041"/>
          <circle cx="64.161" cy="70.07" r=".24" fill="#0c0d0b" stroke="#0c0d0b" stroke-miterlimit="10" stroke-width=".041"/>
          <circle cx="65.484" cy="70.07" r=".24" fill="#0c0d0b" stroke="#0c0d0b" stroke-miterlimit="10" stroke-width=".041"/>
          <circle cx="66.807" cy="70.07" r=".24" fill="#0c0d0b" stroke="#0c0d0b" stroke-miterlimit="10" stroke-width=".041"/>
          <circle cx="34.383" cy="71.07" r=".24" fill="#0c0d0b" stroke="#0c0d0b" stroke-miterlimit="10" stroke-width=".041"/>
          <circle cx="35.707" cy="71.07" r=".24" fill="#0c0d0b" stroke="#0c0d0b" stroke-miterlimit="10" stroke-width=".041"/>
          <circle cx="37.03" cy="71.07" r=".24" fill="#0c0d0b" stroke="#0c0d0b" stroke-miterlimit="10" stroke-width=".041"/>
          <circle cx="38.354" cy="71.07" r=".24" fill="#0c0d0b" stroke="#0c0d0b" stroke-miterlimit="10" stroke-width=".041"/>
          <circle cx="39.677" cy="71.07" r=".24" fill="#0c0d0b" stroke="#0c0d0b" stroke-miterlimit="10" stroke-width=".041"/>
          <circle cx="41.001" cy="71.07" r=".24" fill="#0c0d0b" stroke="#0c0d0b" stroke-miterlimit="10" stroke-width=".041"/>
          <circle cx="42.324" cy="71.07" r=".24" fill="#0c0d0b" stroke="#0c0d0b" stroke-miterlimit="10" stroke-width=".041"/>
          <circle cx="43.647" cy="71.07" r=".24" fill="#0c0d0b" stroke="#0c0d0b" stroke-miterlimit="10" stroke-width=".041"/>
          <circle cx="44.971" cy="71.07" r=".24" fill="#0c0d0b" stroke="#0c0d0b" stroke-miterlimit="10" stroke-width=".041"/>
          <circle cx="46.294" cy="71.07" r=".24" fill="#0c0d0b" stroke="#0c0d0b" stroke-miterlimit="10" stroke-width=".041"/>
          <circle cx="47.618" cy="71.07" r=".24" fill="#0c0d0b" stroke="#0c0d0b" stroke-miterlimit="10" stroke-width=".041"/>
          <circle cx="48.941" cy="71.07" r=".24" fill="#0c0d0b" stroke="#0c0d0b" stroke-miterlimit="10" stroke-width=".041"/>
          <circle cx="50.265" cy="71.07" r=".24" fill="#0c0d0b" stroke="#0c0d0b" stroke-miterlimit="10" stroke-width=".041"/>
          <circle cx="51.588" cy="71.07" r=".24" fill="#0c0d0b" stroke="#0c0d0b" stroke-miterlimit="10" stroke-width=".041"/>
          <circle cx="52.911" cy="71.07" r=".24" fill="#0c0d0b" stroke="#0c0d0b" stroke-miterlimit="10" stroke-width=".041"/>
          <circle cx="54.235" cy="71.07" r=".24" fill="#0c0d0b" stroke="#0c0d0b" stroke-miterlimit="10" stroke-width=".041"/>
          <circle cx="55.558" cy="71.07" r=".24" fill="#0c0d0b" stroke="#0c0d0b" stroke-miterlimit="10" stroke-width=".041"/>
          <circle cx="56.882" cy="71.07" r=".24" fill="#0c0d0b" stroke="#0c0d0b" stroke-miterlimit="10" stroke-width=".041"/>
          <circle cx="58.205" cy="71.07" r=".24" fill="#0c0d0b" stroke="#0c0d0b" stroke-miterlimit="10" stroke-width=".041"/>
          <circle cx="59.529" cy="71.07" r=".24" fill="#0c0d0b" stroke="#0c0d0b" stroke-miterlimit="10" stroke-width=".041"/>
          <circle cx="60.852" cy="71.07" r=".24" fill="#0c0d0b" stroke="#0c0d0b" stroke-miterlimit="10" stroke-width=".041"/>
          <circle cx="62.175" cy="71.07" r=".24" fill="#0c0d0b" stroke="#0c0d0b" stroke-miterlimit="10" stroke-width=".041"/>
          <circle cx="63.499" cy="71.07" r=".24" fill="#0c0d0b" stroke="#0c0d0b" stroke-miterlimit="10" stroke-width=".041"/>
          <circle cx="64.822" cy="71.07" r=".24" fill="#0c0d0b" stroke="#0c0d0b" stroke-miterlimit="10" stroke-width=".041"/>
          <circle cx="66.146" cy="71.07" r=".24" fill="#0c0d0b" stroke="#0c0d0b" stroke-miterlimit="10" stroke-width=".041"/>
        </g>
      </g>
    </g>
  </g>
  <g id="stem">
    <path d="M49.605,6.72v61.774s-5.24-29.772-8.288-33.741c-3.048-3.969-4.569-5.837-4.569-5.837" fill="none" stroke="#0c0d0b" stroke-miterlimit="10" stroke-width=".129"/>
    <path d="M65.518,18.59c-.094,0-2.698,1.943-4.666,3.422-1.402,1.053-2.35,2.582-2.657,4.286l-7.601,42.176V6.818" fill="none" stroke="#0c0d0b" stroke-miterlimit="10" stroke-width=".129"/>
    <path d="M41.158,16.168c.049,0,1.403,1.032,2.427,1.817.729.56,1.222,1.372,1.382,2.277l3.953,22.402.761,25.906" fill="none" stroke="#0c0d0b" stroke-miterlimit="10" stroke-width=".129"/>
  </g>
  <g id="leaf">
    <path d="M48.693,57.074c-.362.061-.603.386-.539.728.011.061.032.118.059.17-.189.131-.436.367-.463.717-.152-.32-.47-.461-.695-.523.007-.058.005-.119-.006-.179-.064-.341-.408-.569-.77-.508s-.603.386-.539.728.408.569.77.508c.277-.046.483-.248.536-.493.261.073.647.259.72.721l.068.366h.002s.056-.01.056-.01h.002s-.068-.367-.068-.367c-.099-.458.197-.758.416-.911.139.213.405.336.682.289.362-.061.603-.386.539-.728s-.408-.569-.77-.508Z" fill="#0c0d0b"/>
    <path d="M47.29,50.419c-.36.066-.596.396-.527.736.012.061.034.117.062.169-.187.134-.43.374-.451.724-.157-.317-.478-.454-.704-.512.006-.058.003-.119-.009-.179-.07-.34-.418-.562-.779-.496s-.596.396-.527.736.418.562.779.496c.276-.051.478-.256.527-.502.262.069.652.248.733.709l.075.365h.002s.056-.011.056-.011h.002s-.075-.366-.075-.366c-.107-.456.184-.761.4-.918.142.211.411.329.687.278.36-.066.596-.396.527-.736s-.418-.562-.779-.496Z" fill="#0c0d0b"/>
    <path d="M45.73,43.786c-.358.076-.584.412-.505.75.014.06.037.116.067.168-.183.139-.419.386-.429.736-.167-.313-.491-.441-.719-.493.004-.059,0-.119-.014-.179-.08-.338-.435-.551-.793-.475s-.584.412-.505.75.435.551.793.475c.274-.058.471-.268.512-.515.264.062.659.231.753.689l.085.363h.002s.055-.012.055-.012h.002s-.085-.364-.085-.364c-.12-.453.161-.765.373-.928.148.207.421.318.695.26.358-.076.584-.412.505-.75s-.435-.551-.793-.475Z" fill="#0c0d0b"/>
    <path d="M43.818,37.193c-.352.101-.551.452-.446.783.019.059.046.113.08.162-.171.152-.388.414-.372.764-.19-.3-.524-.405-.755-.441,0-.059-.009-.118-.028-.177-.105-.332-.476-.519-.827-.418s-.551.452-.446.783.476.519.827.418c.269-.077.449-.301.471-.55.268.043.675.183.804.634l.113.356h.002s.054-.016.054-.016h.002s-.113-.357-.113-.357c-.155-.443.102-.774.3-.951.164.196.444.287.713.21.352-.101.551-.452.446-.783s-.476-.519-.827-.418Z" fill="#0c0d0b"/>
    <path d="M40.041,31.127c-.295.207-.358.6-.14.878.039.05.084.092.134.127-.107.197-.218.513-.077.837-.287-.222-.639-.214-.869-.174-.021-.055-.051-.108-.09-.158-.218-.278-.634-.336-.929-.129s-.358.6-.14.878.634.336.929.129c.226-.158.315-.426.247-.667.268-.045.702-.042.985.34l.234.299h.002s.046-.033.046-.033h.002s-.234-.3-.234-.3c-.304-.368-.181-.76-.057-.99.225.132.521.129.747-.03.295-.207.358-.6.14-.878s-.634-.336-.929-.129Z" fill="#0c0d0b"/>
    <path d="M42.893,16.604c-.127.143-.113.361.03.488.025.023.053.041.083.054-.032.118-.052.299.057.459-.172-.089-.35-.047-.462-.001-.017-.027-.038-.053-.064-.075-.143-.127-.361-.113-.488.03s-.113.361.03.488.361.113.488-.03c.097-.109.112-.263.049-.386.131-.053.352-.098.541.078l.153.136h0s.02-.023.02-.023h0s-.153-.137-.153-.137c-.197-.166-.179-.39-.143-.527.129.047.28.014.377-.096.127-.143.113-.361-.03-.488s-.361-.113-.488.03Z" fill="#0c0d0b"/>
    <path d="M45.737,20.732c-.19.019-.328.189-.309.379.003.034.012.066.024.096-.103.065-.241.185-.269.376-.066-.182-.225-.271-.34-.314.006-.032.008-.065.004-.099-.019-.19-.189-.328-.379-.309s-.328.189-.309.379.189.328.379.309c.145-.015.26-.118.298-.25.132.05.325.167.345.423l.021.204h.001s.029-.003.029-.003h.001s-.021-.204-.021-.204c-.033-.255.132-.409.252-.485.063.122.197.2.342.185.19-.019.328-.189.309-.379s-.189-.328-.379-.309Z" fill="#0c0d0b"/>
    <path d="M46.558,25.385c-.19.019-.328.189-.309.379.003.034.012.066.024.096-.103.065-.241.185-.269.376-.066-.182-.225-.271-.34-.314.006-.032.008-.065.004-.099-.019-.19-.189-.328-.379-.309s-.328.189-.309.379.189.328.379.309c.145-.015.26-.118.298-.25.132.05.325.167.345.423l.021.204h.001s.029-.003.029-.003h.001s-.021-.204-.021-.204c-.033-.255.132-.409.252-.485.063.122.197.2.342.185.19-.019.328-.189.309-.379s-.189-.328-.379-.309Z" fill="#0c0d0b"/>
    <path d="M47.377,30.03c-.19.019-.328.189-.309.379.003.034.012.066.024.096-.103.065-.241.185-.269.376-.066-.182-.225-.271-.34-.314.006-.032.008-.065.004-.099-.019-.19-.189-.328-.379-.309s-.328.189-.309.379.189.328.379.309c.145-.015.26-.118.298-.25.132.05.325.167.345.423l.021.204h.001s.029-.003.029-.003h.001s-.021-.204-.021-.204c-.033-.255.132-.409.252-.485.063.122.197.2.342.185.19-.019.328-.189.309-.379s-.189-.328-.379-.309Z" fill="#0c0d0b"/>
    <path d="M48.198,34.679c-.19.019-.328.189-.309.379.003.034.012.066.024.096-.103.065-.241.185-.269.376-.066-.182-.225-.271-.34-.314.006-.032.008-.065.004-.099-.019-.19-.189-.328-.379-.309s-.328.189-.309.379.189.328.379.309c.145-.015.26-.118.298-.25.132.05.325.167.345.423l.021.204h.001s.029-.003.029-.003h.001s-.021-.204-.021-.204c-.033-.255.132-.409.252-.485.063.122.197.2.342.185.19-.019.328-.189.309-.379s-.189-.328-.379-.309Z" fill="#0c0d0b"/>
    <path d="M59.532,25.719c-.357-.061-.701.181-.769.539-.012.064-.015.127-.009.188-.223.067-.54.217-.695.554-.021-.367-.263-.612-.447-.748.028-.055.049-.115.061-.179.068-.358-.166-.698-.522-.759s-.701.181-.769.539.166.698.522.759c.273.046.538-.084.679-.308.214.159.502.471.397.952l-.073.385h.002s.055.01.055.01h.002s.073-.385.073-.385c.079-.485.464-.683.723-.761.049.257.25.467.522.513.357.061.701-.181.769-.539s-.166-.698-.522-.759Z" fill="#0c0d0b"/>
    <path d="M58.924,29.167c-.361-.063-.707.173-.773.527-.012.063-.014.126-.007.186-.225.064-.544.211-.698.543-.024-.363-.27-.608-.458-.744.028-.055.049-.114.061-.177.066-.354-.173-.692-.534-.755s-.707.173-.773.527.173.692.534.755c.276.048.544-.079.684-.3.217.159.511.47.409.945l-.071.38h.002s.056.01.056.01h.002s.071-.38.071-.38c.076-.48.464-.672.725-.748.051.254.256.463.532.511.361.063.707-.173.773-.527s-.173-.692-.534-.755Z" fill="#0c0d0b"/>
    <path d="M57.872,35.009c-.361-.063-.707.172-.773.526-.012.063-.014.125-.007.186-.225.064-.544.21-.698.542-.025-.363-.271-.608-.459-.744.028-.054.049-.114.06-.177.066-.354-.174-.692-.535-.755s-.707.172-.773.526.174.692.535.755c.276.048.544-.078.683-.299.218.159.512.471.411.945l-.07.38h.002s.056.01.056.01h.002s.07-.38.07-.38c.076-.479.463-.671.724-.747.052.254.257.464.533.512.361.063.707-.172.773-.526s-.174-.692-.535-.755Z" fill="#0c0d0b"/>
    <path d="M56.818,40.853c-.361-.063-.707.172-.773.526-.012.063-.014.125-.007.186-.225.064-.544.21-.698.542-.025-.363-.271-.608-.459-.744.028-.054.049-.114.06-.177.066-.354-.174-.692-.535-.755s-.707.172-.773.526.174.692.535.755c.276.048.544-.078.683-.299.218.159.512.471.411.945l-.07.38h.002s.056.01.056.01h.002s.07-.38.07-.38c.076-.479.463-.671.724-.747.052.254.257.464.533.512.361.063.707-.172.773-.526s-.174-.692-.535-.755Z" fill="#0c0d0b"/>
    <path d="M55.764,46.702c-.361-.063-.707.172-.773.526-.012.063-.014.125-.007.186-.225.064-.544.21-.698.542-.025-.363-.271-.608-.459-.744.028-.054.049-.114.06-.177.066-.354-.174-.692-.535-.755s-.707.172-.773.526.174.692.535.755c.276.048.544-.078.683-.299.218.159.512.471.411.945l-.07.38h.002s.056.01.056.01h.002s.07-.38.07-.38c.076-.479.463-.671.724-.747.052.254.257.464.533.512.361.063.707-.172.773-.526s-.174-.692-.535-.755Z" fill="#0c0d0b"/>
    <path d="M54.711,52.543c-.361-.063-.707.172-.773.526-.012.063-.014.125-.007.186-.225.064-.544.21-.698.542-.025-.363-.271-.608-.459-.744.028-.054.049-.114.06-.177.066-.354-.174-.692-.535-.755s-.707.172-.773.526.174.692.535.755c.276.048.544-.078.683-.299.218.159.512.471.411.945l-.07.38h.002s.056.01.056.01h.002s.07-.38.07-.38c.076-.479.463-.671.724-.747.052.254.257.464.533.512.361.063.707-.172.773-.526s-.174-.692-.535-.755Z" fill="#0c0d0b"/>
  </g>
  <g id="flower">
    <g>
      <path d="M50.131,14.913c3.938,0,7.13-3.192,7.13-7.13h-14.26c0,3.938,3.192,7.13,7.13,7.13Z" fill="#0c0d0b"/>
      <circle cx="50.131" cy="7.783" r="3.016" fill="#e17a74"/>
      <path d="M60.407,3.141C60.407,1.413,59.006.012,57.278.012s-3.129,1.401-3.129,3.129,1.401,3.129,3.129,3.129c.578,0,1.119-.157,1.583-.43.374,2.836-.43,5.701-2.224,7.794-.245-.198-.604-.187-.836.037-.24.232-.257.607-.048.86-.004.004-.008.007-.012.011-.297.261-.608.499-.931.715-.035-.048-.076-.092-.125-.131-.276-.215-.674-.165-.889.11-.149.191-.171.442-.078.649-.358.174-.726.325-1.102.453-.075-.197-.247-.352-.469-.396-.343-.068-.676.155-.744.498-.015.076-.016.152-.004.224-.389.078-.783.133-1.18.164-.013-.11-.055-.217-.128-.311-.214-.276-.612-.326-.888-.112-.145.112-.227.275-.242.444-.396-.018-.792-.058-1.186-.122.002-.017.003-.034.004-.052.011-.35-.264-.641-.614-.652-.286-.009-.532.173-.619.43-.38-.109-.756-.24-1.125-.393.09-.246.021-.533-.193-.708-.271-.221-.67-.181-.891.09-.018.022-.034.045-.048.069-.344-.193-.679-.408-1.004-.643.096-.143.134-.325.089-.506-.085-.339-.428-.546-.767-.461-.339.085-.546.428-.461.767.085.339.428.546.767.461.13-.032.241-.103.323-.197.327.237.666.454,1.015.651-.115.255-.05.564.176.75.271.221.67.181.891-.09.027-.033.051-.069.07-.105.372.155.751.288,1.137.4-.006.032-.01.065-.011.099-.011.35.264.641.614.652.302.009.56-.194.632-.475.397.064.797.106,1.2.123.006.125.049.249.132.356.214.276.612.326.888.112.158-.123.242-.305.244-.491.404-.032.803-.088,1.195-.167.066.216.246.39.483.437.343.068.676-.155.744-.498.018-.092.015-.183-.005-.269.383-.13.755-.285,1.116-.461.039.063.088.12.15.168.276.215.674.165.889-.11.159-.204.173-.475.058-.689.329-.22.644-.461.942-.723.005-.004.01-.009.015-.013.244.228.627.227.87-.007.251-.242.259-.641.019-.892.981-1.14,1.683-2.516,2.052-4.043.306-1.264.367-2.569.19-3.855.881-.554,1.466-1.533,1.466-2.65Z" fill="#0c0d0b"/>
      <circle cx="57.26" cy="3.121" r="1.92" fill="#ffc1b3"/>
    </g>
    <circle cx="36.719" cy="29.386" r="1.507" fill="#e17a74"/>
    <circle cx="62.281" cy="20.865" r="1.507" fill="#e17a74"/>
    <circle cx="40.222" cy="15.773" r="1.514" fill="#e17a74"/>
    <circle cx="66.084" cy="18.127" r="1.507" fill="#e17a74"/>
  </g>
</svg>