<?xml version="1.0" encoding="UTF-8"?>
<svg xmlns="http://www.w3.org/2000/svg" width="100" height="100" xmlns:xlink="http://www.w3.org/1999/xlink" viewBox="0 0 100 100">
  <defs>
    <clipPath id="clippath">
      <rect x="33.539" y="68.826" width="33.604" height="2.547" fill="none"/>
    </clipPath>
  </defs>
  <g id="background">
    <circle cx="49.915" cy="83.171" r="8.831" fill="#ba7171" opacity=".33"/>
  </g>
  <g id="root">
    <g>
      <g>
        <g>
          <path d="M51.757,78.09c0-.082,1.639-.076,3.146-.052,1.371.021,2.47,1.138,2.47,2.509v19.453" fill="none" stroke="#0c0d0b" stroke-miterlimit="10" stroke-width=".129"/>
          <path d="M50.037,75.808c0-.1,4.004-.068,6.732-.035,1.374.017,2.478,1.135,2.478,2.509v19.435" fill="none" stroke="#0c0d0b" stroke-miterlimit="10" stroke-width=".166"/>
          <path d="M59.252,83.069h1.039c.935,0,1.693.758,1.693,1.693v9.685" fill="none" stroke="#0c0d0b" stroke-miterlimit="10" stroke-width=".166"/>
          <path d="M57.419,88.623h-1.039c-.935,0-1.693.758-1.693,1.693v9.685" fill="none" stroke="#0c0d0b" stroke-miterlimit="10" stroke-width=".166"/>
        </g>
        <g>
          <path d="M48.198,78.09c0-.082-1.639-.076-3.146-.052-1.371.021-2.47,1.138-2.47,2.509v19.453" fill="none" stroke="#0c0d0b" stroke-miterlimit="10" stroke-width=".129"/>
          <path d="M49.918,75.808c0-.1-4.004-.068-6.732-.035-1.374.017-2.478,1.135-2.478,2.509v19.435" fill="none" stroke="#0c0d0b" stroke-miterlimit="10" stroke-width=".166"/>
          <path d="M42.581,88.623h1.039c.935,0,1.693.758,1.693,1.693v9.685" fill="none" stroke="#0c0d0b" stroke-miterlimit="10" stroke-width=".166"/>
          <path d="M40.748,83.069h-1.039c-.935,0-1.693.758-1.693,1.693v9.685" fill="none" stroke="#0c0d0b" stroke-miterlimit="10" stroke-width=".166"/>
        </g>
      </g>
      <line x1="50.037" y1="78.926" x2="50.037" y2="68.505" fill="none" stroke="#0c0d0b" stroke-miterlimit="10" stroke-width=".131"/>
    </g>
  </g>
  <g id="seed">
    <g>
      <path d="M51.762,77.382c-.056-.048-1.295-.597-1.567-.825-.144-.114-.169-.228-.16-.341-.027-1.187-.037-2.571-.015-3.753.02-.227-.084-.455.282-.682.648-.414.044-1.394-.618-.997-.368.216-.364.782,0,.997.367.227.263.455.282.682.003.664.022,1.387.013,2.047l-.022,1.365c-.028.237.081.498-.166.682-.29.28-1.122.468-1.535.818-2.394.743-4.132,2.974-4.132,5.612,0,2.691,1.812,4.955,4.281,5.65.44.281,1.128.456,1.386.705.247.185.138.445.166.682l.022,1.365c.009.66-.011,1.383-.013,2.047-.02.227.084.455-.282.682-.364.215-.368.781,0,.997.663.397,1.266-.583.618-.997-.367-.227-.263-.455-.282-.682-.022-1.182-.013-2.566.015-3.753-.009-.114.017-.227.16-.341.272-.227,1.358-.692,1.367-.697,2.485-.685,4.313-2.955,4.313-5.658,0-2.631-1.729-4.857-4.113-5.605ZM50.489,86.005c-2.09.32-3.863-1.454-3.543-3.543.199-1.302,1.264-2.366,2.566-2.566,2.09-.32,3.863,1.454,3.543,3.543-.199,1.302-1.264,2.366-2.566,2.566Z" fill="#0c0d0b"/>
      <circle cx="50" cy="82.95" r="1.855" fill="#ba7171"/>
    </g>
  </g>
  <g id="soil">
    <g>
      <line x1="32.541" y1="68.505" x2="67.536" y2="68.505" fill="none" stroke="#0c0d0b" stroke-miterlimit="10" stroke-width="1.417"/>
      <g clip-path="url(#clippath)">
        <g>
          <circle cx="34.383" cy="69.07" r=".24" fill="#0c0d0b" stroke="#0c0d0b" stroke-miterlimit="10" stroke-width=".041"/>
          <circle cx="35.707" cy="69.07" r=".24" fill="#0c0d0b" stroke="#0c0d0b" stroke-miterlimit="10" stroke-width=".041"/>
          <circle cx="37.03" cy="69.07" r=".24" fill="#0c0d0b" stroke="#0c0d0b" stroke-miterlimit="10" stroke-width=".041"/>
          <circle cx="38.354" cy="69.07" r=".24" fill="#0c0d0b" stroke="#0c0d0b" stroke-miterlimit="10" stroke-width=".041"/>
          <circle cx="39.677" cy="69.07" r=".24" fill="#0c0d0b" stroke="#0c0d0b" stroke-miterlimit="10" stroke-width=".041"/>
          <circle cx="41.001" cy="69.07" r=".24" fill="#0c0d0b" stroke="#0c0d0b" stroke-miterlimit="10" stroke-width=".041"/>
          <circle cx="42.324" cy="69.07" r=".24" fill="#0c0d0b" stroke="#0c0d0b" stroke-miterlimit="10" stroke-width=".041"/>
          <circle cx="43.647" cy="69.07" r=".24" fill="#0c0d0b" stroke="#0c0d0b" stroke-miterlimit="10" stroke-width=".041"/>
          <circle cx="44.971" cy="69.07" r=".24" fill="#0c0d0b" stroke="#0c0d0b" stroke-miterlimit="10" stroke-width=".041"/>
          <circle cx="46.294" cy="69.07" r=".24" fill="#0c0d0b" stroke="#0c0d0b" stroke-miterlimit="10" stroke-width=".041"/>
          <circle cx="47.618" cy="69.07" r=".24" fill="#0c0d0b" stroke="#0c0d0b" stroke-miterlimit="10" stroke-width=".041"/>
          <circle cx="48.941" cy="69.07" r=".24" fill="#0c0d0b" stroke="#0c0d0b" stroke-miterlimit="10" stroke-width=".041"/>
          <circle cx="50.265" cy="69.07" r=".24" fill="#0c0d0b" stroke="#0c0d0b" stroke-miterlimit="10" stroke-width=".041"/>
          <circle cx="51.588" cy="69.07" r=".24" fill="#0c0d0b" stroke="#0c0d0b" stroke-miterlimit="10" stroke-width=".041"/>
          <circle cx="52.911" cy="69.07" r=".24" fill="#0c0d0b" stroke="#0c0d0b" stroke-miterlimit="10" stroke-width=".041"/>
          <circle cx="54.235" cy="69.07" r=".24" fill="#0c0d0b" stroke="#0c0d0b" stroke-miterlimit="10" stroke-width=".041"/>
          <circle cx="55.558" cy="69.07" r=".24" fill="#0c0d0b" stroke="#0c0d0b" stroke-miterlimit="10" stroke-width=".041"/>
          <circle cx="56.882" cy="69.07" r=".24" fill="#0c0d0b" stroke="#0c0d0b" stroke-miterlimit="10" stroke-width=".041"/>
          <circle cx="58.205" cy="69.07" r=".24" fill="#0c0d0b" stroke="#0c0d0b" stroke-miterlimit="10" stroke-width=".041"/>
          <circle cx="59.529" cy="69.07" r=".24" fill="#0c0d0b" stroke="#0c0d0b" stroke-miterlimit="10" stroke-width=".041"/>
          <circle cx="60.852" cy="69.07" r=".24" fill="#0c0d0b" stroke="#0c0d0b" stroke-miterlimit="10" stroke-width=".041"/>
          <circle cx="62.175" cy="69.07" r=".24" fill="#0c0d0b" stroke="#0c0d0b" stroke-miterlimit="10" stroke-width=".041"/>
          <circle cx="63.499" cy="69.07" r=".24" fill="#0c0d0b" stroke="#0c0d0b" stroke-miterlimit="10" stroke-width=".041"/>
          <circle cx="64.822" cy="69.07" r=".24" fill="#0c0d0b" stroke="#0c0d0b" stroke-miterlimit="10" stroke-width=".041"/>
          <circle cx="66.146" cy="69.07" r=".24" fill="#0c0d0b" stroke="#0c0d0b" stroke-miterlimit="10" stroke-width=".041"/>
          <circle cx="33.722" cy="70.07" r=".24" fill="#0c0d0b" stroke="#0c0d0b" stroke-miterlimit="10" stroke-width=".041"/>
          <circle cx="35.045" cy="70.07" r=".24" fill="#0c0d0b" stroke="#0c0d0b" stroke-miterlimit="10" stroke-width=".041"/>
          <circle cx="36.369" cy="70.07" r=".24" fill="#0c0d0b" stroke="#0c0d0b" stroke-miterlimit="10" stroke-width=".041"/>
          <circle cx="37.692" cy="70.07" r=".24" fill="#0c0d0b" stroke="#0c0d0b" stroke-miterlimit="10" stroke-width=".041"/>
          <circle cx="39.015" cy="70.07" r=".24" fill="#0c0d0b" stroke="#0c0d0b" stroke-miterlimit="10" stroke-width=".041"/>
          <circle cx="40.339" cy="70.07" r=".24" fill="#0c0d0b" stroke="#0c0d0b" stroke-miterlimit="10" stroke-width=".041"/>
          <circle cx="41.662" cy="70.07" r=".24" fill="#0c0d0b" stroke="#0c0d0b" stroke-miterlimit="10" stroke-width=".041"/>
          <circle cx="42.986" cy="70.07" r=".24" fill="#0c0d0b" stroke="#0c0d0b" stroke-miterlimit="10" stroke-width=".041"/>
          <circle cx="44.309" cy="70.07" r=".24" fill="#0c0d0b" stroke="#0c0d0b" stroke-miterlimit="10" stroke-width=".041"/>
          <circle cx="45.633" cy="70.07" r=".24" fill="#0c0d0b" stroke="#0c0d0b" stroke-miterlimit="10" stroke-width=".041"/>
          <circle cx="46.956" cy="70.07" r=".24" fill="#0c0d0b" stroke="#0c0d0b" stroke-miterlimit="10" stroke-width=".041"/>
          <circle cx="48.279" cy="70.07" r=".24" fill="#0c0d0b" stroke="#0c0d0b" stroke-miterlimit="10" stroke-width=".041"/>
          <circle cx="49.603" cy="70.07" r=".24" fill="#0c0d0b" stroke="#0c0d0b" stroke-miterlimit="10" stroke-width=".041"/>
          <circle cx="50.926" cy="70.07" r=".24" fill="#0c0d0b" stroke="#0c0d0b" stroke-miterlimit="10" stroke-width=".041"/>
          <circle cx="52.25" cy="70.07" r=".24" fill="#0c0d0b" stroke="#0c0d0b" stroke-miterlimit="10" stroke-width=".041"/>
          <circle cx="53.573" cy="70.07" r=".24" fill="#0c0d0b" stroke="#0c0d0b" stroke-miterlimit="10" stroke-width=".041"/>
          <circle cx="54.897" cy="70.07" r=".24" fill="#0c0d0b" stroke="#0c0d0b" stroke-miterlimit="10" stroke-width=".041"/>
          <circle cx="56.22" cy="70.07" r=".24" fill="#0c0d0b" stroke="#0c0d0b" stroke-miterlimit="10" stroke-width=".041"/>
          <circle cx="57.543" cy="70.07" r=".24" fill="#0c0d0b" stroke="#0c0d0b" stroke-miterlimit="10" stroke-width=".041"/>
          <circle cx="58.867" cy="70.07" r=".24" fill="#0c0d0b" stroke="#0c0d0b" stroke-miterlimit="10" stroke-width=".041"/>
          <circle cx="60.19" cy="70.07" r=".24" fill="#0c0d0b" stroke="#0c0d0b" stroke-miterlimit="10" stroke-width=".041"/>
          <circle cx="61.514" cy="70.07" r=".24" fill="#0c0d0b" stroke="#0c0d0b" stroke-miterlimit="10" stroke-width=".041"/>
          <circle cx="62.837" cy="70.07" r=".24" fill="#0c0d0b" stroke="#0c0d0b" stroke-miterlimit="10" stroke-width=".041"/>
          <circle cx="64.161" cy="70.07" r=".24" fill="#0c0d0b" stroke="#0c0d0b" stroke-miterlimit="10" stroke-width=".041"/>
          <circle cx="65.484" cy="70.07" r=".24" fill="#0c0d0b" stroke="#0c0d0b" stroke-miterlimit="10" stroke-width=".041"/>
          <circle cx="66.807" cy="70.07" r=".24" fill="#0c0d0b" stroke="#0c0d0b" stroke-miterlimit="10" stroke-width=".041"/>
          <circle cx="34.383" cy="71.07" r=".24" fill="#0c0d0b" stroke="#0c0d0b" stroke-miterlimit="10" stroke-width=".041"/>
          <circle cx="35.707" cy="71.07" r=".24" fill="#0c0d0b" stroke="#0c0d0b" stroke-miterlimit="10" stroke-width=".041"/>
          <circle cx="37.03" cy="71.07" r=".24" fill="#0c0d0b" stroke="#0c0d0b" stroke-miterlimit="10" stroke-width=".041"/>
          <circle cx="38.354" cy="71.07" r=".24" fill="#0c0d0b" stroke="#0c0d0b" stroke-miterlimit="10" stroke-width=".041"/>
          <circle cx="39.677" cy="71.07" r=".24" fill="#0c0d0b" stroke="#0c0d0b" stroke-miterlimit="10" stroke-width=".041"/>
          <circle cx="41.001" cy="71.07" r=".24" fill="#0c0d0b" stroke="#0c0d0b" stroke-miterlimit="10" stroke-width=".041"/>
          <circle cx="42.324" cy="71.07" r=".24" fill="#0c0d0b" stroke="#0c0d0b" stroke-miterlimit="10" stroke-width=".041"/>
          <circle cx="43.647" cy="71.07" r=".24" fill="#0c0d0b" stroke="#0c0d0b" stroke-miterlimit="10" stroke-width=".041"/>
          <circle cx="44.971" cy="71.07" r=".24" fill="#0c0d0b" stroke="#0c0d0b" stroke-miterlimit="10" stroke-width=".041"/>
          <circle cx="46.294" cy="71.07" r=".24" fill="#0c0d0b" stroke="#0c0d0b" stroke-miterlimit="10" stroke-width=".041"/>
          <circle cx="47.618" cy="71.07" r=".24" fill="#0c0d0b" stroke="#0c0d0b" stroke-miterlimit="10" stroke-width=".041"/>
          <circle cx="48.941" cy="71.07" r=".24" fill="#0c0d0b" stroke="#0c0d0b" stroke-miterlimit="10" stroke-width=".041"/>
          <circle cx="50.265" cy="71.07" r=".24" fill="#0c0d0b" stroke="#0c0d0b" stroke-miterlimit="10" stroke-width=".041"/>
          <circle cx="51.588" cy="71.07" r=".24" fill="#0c0d0b" stroke="#0c0d0b" stroke-miterlimit="10" stroke-width=".041"/>
          <circle cx="52.911" cy="71.07" r=".24" fill="#0c0d0b" stroke="#0c0d0b" stroke-miterlimit="10" stroke-width=".041"/>
          <circle cx="54.235" cy="71.07" r=".24" fill="#0c0d0b" stroke="#0c0d0b" stroke-miterlimit="10" stroke-width=".041"/>
          <circle cx="55.558" cy="71.07" r=".24" fill="#0c0d0b" stroke="#0c0d0b" stroke-miterlimit="10" stroke-width=".041"/>
          <circle cx="56.882" cy="71.07" r=".24" fill="#0c0d0b" stroke="#0c0d0b" stroke-miterlimit="10" stroke-width=".041"/>
          <circle cx="58.205" cy="71.07" r=".24" fill="#0c0d0b" stroke="#0c0d0b" stroke-miterlimit="10" stroke-width=".041"/>
          <circle cx="59.529" cy="71.07" r=".24" fill="#0c0d0b" stroke="#0c0d0b" stroke-miterlimit="10" stroke-width=".041"/>
          <circle cx="60.852" cy="71.07" r=".24" fill="#0c0d0b" stroke="#0c0d0b" stroke-miterlimit="10" stroke-width=".041"/>
          <circle cx="62.175" cy="71.07" r=".24" fill="#0c0d0b" stroke="#0c0d0b" stroke-miterlimit="10" stroke-width=".041"/>
          <circle cx="63.499" cy="71.07" r=".24" fill="#0c0d0b" stroke="#0c0d0b" stroke-miterlimit="10" stroke-width=".041"/>
          <circle cx="64.822" cy="71.07" r=".24" fill="#0c0d0b" stroke="#0c0d0b" stroke-miterlimit="10" stroke-width=".041"/>
          <circle cx="66.146" cy="71.07" r=".24" fill="#0c0d0b" stroke="#0c0d0b" stroke-miterlimit="10" stroke-width=".041"/>
        </g>
      </g>
    </g>
  </g>
  <g id="stem">
    <path d="M38.122,11.229c.102,0,5.584,7.736,7.903,11.014.668.944,1.109,2.03,1.29,3.172.264,1.664,1.843,10.195,1.843,10.195l1.029,32.89" fill="none" stroke="#0c0d0b" stroke-miterlimit="10" stroke-width=".129"/>
    <path d="M50.08,6.01v61.735l-7.179-32.684c-.593-2.701-2.192-5.074-4.473-6.638l-2.999-2.678" fill="none" stroke="#0c0d0b" stroke-miterlimit="10" stroke-width=".129"/>
    <path d="M50.024,6.044l-.076,62.456,5.599-33.563c.437-2.599,1.615-4.883,3.295-6.388l2.974-3.717" fill="none" stroke="#0c0d0b" stroke-miterlimit="10" stroke-width=".129"/>
  </g>
  <g id="leaf">
    <g>
      <path d="M41.651,14.538c-.246.175-.304.515-.129.761l.479.674c.146.206.408.28.634.196l-.124,1.151.35.494-1.271-.295c.243-.175.3-.514.126-.759l-.479-.674c-.175-.246-.515-.304-.761-.129s-.304.515-.129.761l.479.674c.165.232.477.296.718.157l1.344.312.499.702.036-.026-.872-1.228.125-1.158c.029-.014.058-.03.086-.05.246-.175.304-.515.129-.761l-.479-.674c-.175-.246-.515-.304-.761-.129Z"/>
      <circle cx="42.228" cy="15.35" r=".204" fill="#ffc1b3"/>
      <circle cx="41.03" cy="16.7" r=".204" fill="#ffc1b3"/>
    </g>
    <g>
      <path d="M46.138,19.516c-.281.111-.418.428-.308.708l.303.769c.092.235.329.369.569.342l-.396,1.088.222.563-1.163-.591c.278-.112.414-.427.304-.707l-.303-.769c-.111-.281-.428-.418-.708-.308s-.418.428-.308.708l.303.769c.104.264.392.402.66.324l1.23.625.316.801.042-.016-.552-1.401.399-1.094c.032-.006.064-.015.095-.028.281-.111.418-.428.308-.708l-.303-.769c-.111-.281-.428-.418-.708-.308Z"/>
      <circle cx="46.504" cy="20.442" r=".204" fill="#ffc1b3"/>
      <circle cx="45.018" cy="21.466" r=".204" fill="#ffc1b3"/>
    </g>
    <g>
      <path d="M48.244,25.665c-.297.054-.493.338-.439.635l.148.813c.045.248.251.426.491.446l-.6.99.108.596-1.026-.806c.295-.056.489-.339.436-.634l-.148-.813c-.054-.297-.338-.493-.635-.439s-.493.338-.439.635l.148.813c.051.28.306.47.584.446l1.085.853.154.847.044-.008-.27-1.481.604-.996c.032,0,.065-.003.099-.009.297-.054.493-.338.439-.635l-.148-.813c-.054-.297-.338-.493-.635-.439Z"/>
      <circle cx="48.423" cy="26.645" r=".204" fill="#ffc1b3"/>
      <circle cx="46.766" cy="27.36" r=".204" fill="#ffc1b3"/>
    </g>
    <g>
      <path d="M48.566,54.73c-.3.035-.514.306-.479.606l.096.821c.029.25.224.441.462.477l-.662.95.07.601-.972-.87c.298-.037.51-.307.475-.605l-.096-.821c-.035-.3-.306-.514-.606-.479s-.514.306-.479.606l.096.821c.033.282.276.489.554.483l1.029.92.1.855.044-.005-.174-1.495.666-.955c.032.002.065.001.099-.002.3-.035.514-.306.479-.606l-.096-.821c-.035-.3-.306-.514-.606-.479Z"/>
      <circle cx="48.682" cy="55.719" r=".204" fill="#ffc1b3"/>
      <circle cx="46.983" cy="56.328" r=".204" fill="#ffc1b3"/>
    </g>
    <g>
      <path d="M46.985,47.534c-.3.035-.514.306-.479.606l.096.821c.029.25.224.441.462.477l-.662.95.07.601-.972-.87c.298-.037.51-.307.475-.605l-.096-.821c-.035-.3-.306-.514-.606-.479s-.514.306-.479.606l.096.821c.033.282.276.489.554.483l1.029.92.1.855.044-.005-.174-1.495.666-.955c.032.002.065.001.099-.002.3-.035.514-.306.479-.606l-.096-.821c-.035-.3-.306-.514-.606-.479Z"/>
      <circle cx="47.101" cy="48.524" r=".204" fill="#ffc1b3"/>
      <circle cx="45.403" cy="49.132" r=".204" fill="#ffc1b3"/>
    </g>
    <g>
      <path d="M45.405,40.339c-.3.035-.514.306-.479.606l.096.821c.029.25.224.441.462.477l-.662.95.07.601-.972-.87c.298-.037.51-.307.475-.605l-.096-.821c-.035-.3-.306-.514-.606-.479s-.514.306-.479.606l.096.821c.033.282.276.489.554.483l1.029.92.1.855.044-.005-.174-1.495.666-.955c.032.002.065.001.099-.002.3-.035.514-.306.479-.606l-.096-.821c-.035-.3-.306-.514-.606-.479Z"/>
      <circle cx="45.521" cy="41.329" r=".204" fill="#ffc1b3"/>
      <circle cx="43.822" cy="41.937" r=".204" fill="#ffc1b3"/>
    </g>
    <g>
      <path d="M43.825,33.148c-.3.035-.514.306-.479.606l.096.821c.029.25.224.441.462.477l-.662.95.07.601-.972-.87c.298-.037.51-.307.475-.605l-.096-.821c-.035-.3-.306-.514-.606-.479s-.514.306-.479.606l.096.821c.033.282.276.489.554.483l1.029.92.1.855.044-.005-.174-1.495.666-.955c.032.002.065.001.099-.002.3-.035.514-.306.479-.606l-.096-.821c-.035-.3-.306-.514-.606-.479Z"/>
      <circle cx="43.941" cy="34.138" r=".204" fill="#ffc1b3"/>
      <circle cx="42.243" cy="34.746" r=".204" fill="#ffc1b3"/>
    </g>
    <g>
      <path d="M39.326,26.607c-.255.161-.332.498-.171.753l.44.7c.134.213.392.302.622.231l-.188,1.142.322.512-1.252-.366c.253-.161.328-.497.168-.751l-.44-.7c-.161-.255-.498-.332-.753-.171s-.332.498-.171.753l.44.7c.151.241.46.322.708.196l1.325.387.459.729.038-.024-.802-1.274.189-1.149c.03-.012.06-.027.088-.045.255-.161.332-.498.171-.753l-.44-.7c-.161-.255-.498-.332-.753-.171Z"/>
      <circle cx="39.857" cy="27.45" r=".204" fill="#ffc1b3"/>
      <circle cx="38.586" cy="28.731" r=".204" fill="#ffc1b3"/>
    </g>
    <g>
      <path d="M53.952,54.346c-.284-.101-.596.048-.697.333l-.276.779c-.084.238.006.495.205.631l-1.013.561-.202.571-.49-1.209c.283.098.593-.051.693-.334l.276-.779c.101-.284-.048-.596-.333-.697s-.596.048-.697.333l-.276.779c-.095.268.032.561.285.677l.519,1.279-.287.812.042.015.502-1.419,1.018-.564c.028.016.058.03.09.041.284.101.596-.048.697-.333l.276-.779c.101-.284-.048-.596-.333-.697Z"/>
      <circle cx="53.621" cy="55.285" r=".204" fill="#ffc1b3"/>
      <circle cx="51.828" cy="55.084" r=".204" fill="#ffc1b3"/>
    </g>
    <g>
      <path d="M55.438,45.438c-.284-.101-.596.048-.697.333l-.276.779c-.084.238.006.495.205.631l-1.013.561-.202.571-.49-1.209c.283.098.593-.051.693-.334l.276-.779c.101-.284-.048-.596-.333-.697s-.596.048-.697.333l-.276.779c-.095.268.032.561.285.677l.519,1.279-.287.812.042.015.502-1.419,1.018-.564c.028.016.058.03.09.041.284.101.596-.048.697-.333l.276-.779c.101-.284-.048-.596-.333-.697Z"/>
      <circle cx="55.107" cy="46.378" r=".204" fill="#ffc1b3"/>
      <circle cx="53.314" cy="46.176" r=".204" fill="#ffc1b3"/>
    </g>
    <g>
      <path d="M56.923,36.539c-.284-.101-.596.048-.697.333l-.276.779c-.084.238.006.495.205.631l-1.013.561-.202.571-.49-1.209c.283.098.593-.051.693-.334l.276-.779c.101-.284-.048-.596-.333-.697s-.596.048-.697.333l-.276.779c-.095.268.032.561.285.677l.519,1.279-.287.812.042.015.502-1.419,1.018-.564c.028.016.058.03.09.041.284.101.596-.048.697-.333l.276-.779c.101-.284-.048-.596-.333-.697Z"/>
      <circle cx="56.591" cy="37.479" r=".204" fill="#ffc1b3"/>
      <circle cx="54.798" cy="37.277" r=".204" fill="#ffc1b3"/>
    </g>
    <g>
      <path d="M59.889,28.584c-.243-.178-.585-.126-.763.118l-.489.667c-.149.203-.137.476.014.664l-1.131.245-.358.488-.12-1.299c.243.176.583.122.76-.12l.489-.667c.178-.243.126-.585-.118-.763s-.585-.126-.763.118l-.489.667c-.168.229-.131.546.078.731l.127,1.374-.509.694.036.026.89-1.214,1.138-.246c.022.024.047.046.074.066.243.178.585.126.763-.118l.489-.667c.178-.243.126-.585-.118-.763Z"/>
      <circle cx="59.3" cy="29.388" r=".204" fill="#ffc1b3"/>
      <circle cx="57.642" cy="28.677" r=".204" fill="#ffc1b3"/>
    </g>
  </g>
  <g id="flower">
    <g>
      <path d="M50.261,12.234c3.212,0,5.815-2.604,5.815-5.815h-11.63c0,3.212,2.604,5.815,5.815,5.815Z" fill="#0c0d0b"/>
      <circle cx="50.261" cy="6.419" r="2.46" fill="#e17a74"/>
      <path d="M58.643,2.633c0-1.41-1.143-2.552-2.552-2.552s-2.552,1.143-2.552,2.552,1.143,2.552,2.552,2.552c.471,0,.913-.128,1.291-.351.305,2.313-.351,4.65-1.814,6.357-.2-.161-.493-.153-.682.03-.196.189-.21.495-.039.701-.003.003-.007.006-.01.009-.242.213-.496.407-.759.583-.028-.039-.062-.075-.102-.107-.225-.175-.55-.135-.725.09-.122.156-.139.36-.064.529-.292.142-.592.265-.899.369-.061-.161-.201-.287-.382-.323-.28-.055-.552.127-.607.406-.012.062-.013.124-.003.183-.317.063-.639.108-.963.134-.011-.089-.045-.177-.104-.254-.175-.225-.499-.266-.725-.091-.118.092-.185.224-.197.362-.323-.014-.646-.048-.967-.099.002-.014.003-.028.003-.042.009-.285-.215-.523-.501-.532-.233-.007-.434.141-.505.351-.31-.089-.617-.196-.918-.321.074-.201.017-.435-.158-.578-.221-.181-.546-.148-.727.073-.015.018-.027.037-.039.056-.28-.158-.554-.333-.819-.525.078-.117.109-.265.072-.413-.069-.277-.349-.445-.626-.376-.277.069-.445.349-.376.626.069.277.349.445.626.376.106-.026.196-.084.263-.161.267.193.543.37.828.531-.094.208-.041.46.144.611.221.181.546.148.727-.073.022-.027.041-.056.057-.086.303.126.613.235.927.326-.005.026-.008.053-.009.081-.009.285.215.523.501.532.246.007.457-.159.516-.387.323.052.65.086.979.101.005.102.04.203.108.29.175.225.499.266.725.091.129-.1.197-.249.199-.4.33-.026.655-.072.974-.136.054.176.2.318.394.356.28.055.552-.127.607-.406.015-.075.013-.149-.004-.219.312-.106.616-.232.91-.376.031.051.072.098.122.137.225.175.55.135.725-.09.13-.166.141-.387.047-.562.268-.18.525-.376.768-.59.004-.004.008-.007.012-.011.199.186.511.186.71-.006.205-.197.211-.522.016-.728.8-.93,1.373-2.052,1.674-3.297.249-1.031.299-2.095.155-3.145.718-.452,1.196-1.251,1.196-2.162Z" fill="#0c0d0b"/>
      <circle cx="56.077" cy="2.617" r="1.566" fill="#ffc1b3"/>
    </g>
    <g>
      <path d="M63.881,25.496c2.819,0,5.103-2.285,5.103-5.103h-10.207c0,2.819,2.285,5.103,5.103,5.103Z" fill="#0c0d0b"/>
      <circle cx="63.881" cy="20.393" r="2.159" fill="#e17a74"/>
      <path d="M71.237,17.07c0-1.237-1.003-2.24-2.24-2.24s-2.24,1.003-2.24,2.24,1.003,2.24,2.24,2.24c.414,0,.801-.113,1.133-.308.268,2.03-.308,4.081-1.592,5.579-.175-.142-.432-.134-.599.026-.172.166-.184.435-.034.615-.003.003-.006.005-.009.008-.212.186-.435.357-.666.512-.025-.034-.055-.066-.09-.094-.197-.154-.482-.118-.636.079-.107.137-.122.316-.056.464-.256.125-.52.233-.789.324-.054-.141-.177-.252-.335-.283-.246-.049-.484.111-.533.357-.011.054-.011.108-.003.16-.278.056-.561.095-.845.117-.01-.079-.039-.156-.091-.223-.153-.198-.438-.234-.636-.08-.104.08-.162.197-.173.318-.283-.013-.567-.042-.849-.087.001-.012.002-.025.003-.037.008-.25-.189-.459-.439-.467-.204-.006-.381.124-.443.308-.272-.078-.541-.172-.805-.281.065-.176.015-.381-.138-.507-.194-.158-.479-.13-.638.064-.013.016-.024.032-.034.049-.246-.138-.486-.292-.719-.46.069-.103.096-.233.063-.362-.06-.243-.306-.391-.549-.33-.243.06-.391.306-.33.549.06.243.306.391.549.33.093-.023.172-.074.231-.141.234.169.477.325.727.466-.082.182-.036.404.126.537.194.158.479.13.638-.064.02-.024.036-.049.05-.075.266.111.538.206.814.286-.004.023-.007.047-.008.071-.008.25.189.459.439.467.216.007.401-.139.453-.34.284.046.571.076.859.088.005.089.035.179.094.255.153.198.438.234.636.08.113-.088.173-.218.175-.351.289-.023.575-.063.855-.12.047.155.176.279.346.313.246.049.484-.111.533-.357.013-.066.011-.131-.004-.192.274-.093.541-.204.799-.33.028.045.063.086.107.12.197.154.482.118.636-.079.114-.146.124-.34.041-.493.235-.158.461-.33.674-.517.003-.003.007-.006.01-.009.175.163.449.163.623-.005.18-.173.185-.458.014-.639.703-.816,1.205-1.801,1.469-2.894.219-.905.263-1.839.136-2.76.63-.396,1.05-1.098,1.05-1.897Z" fill="#0c0d0b"/>
      <circle cx="68.984" cy="17.056" r="1.374" fill="#ffc1b3"/>
    </g>
    <circle cx="38.037" cy="11.578" r="1.281" fill="#e17a74"/>
    <circle cx="35.398" cy="26.047" r="1.281" fill="#e17a74"/>
  </g>
</svg>