<?xml version="1.0" encoding="UTF-8"?>
<svg xmlns="http://www.w3.org/2000/svg" width="100" height="100" xmlns:xlink="http://www.w3.org/1999/xlink" viewBox="0 0 100 100">
  <defs>
    <clipPath id="clippath">
      <rect x="33.539" y="68.826" width="33.604" height="2.547" fill="none"/>
    </clipPath>
  </defs>
  <g id="Fondo">
    <circle cx="49.915" cy="83.171" r="8.831" fill="#ba7171" opacity=".33"/>
  </g>
  <g id="Raices">
    <g>
      <g>
        <g>
          <path d="M51.757,78.09c0-.082,1.639-.076,3.146-.052,1.371.021,2.47,1.138,2.47,2.509v19.453" fill="none" stroke="#0c0d0b" stroke-miterlimit="10" stroke-width=".129"/>
          <path d="M50.037,75.808c0-.1,4.004-.068,6.732-.035,1.374.017,2.478,1.135,2.478,2.509v19.435" fill="none" stroke="#0c0d0b" stroke-miterlimit="10" stroke-width=".166"/>
          <path d="M59.252,83.069h1.039c.935,0,1.693.758,1.693,1.693v9.685" fill="none" stroke="#0c0d0b" stroke-miterlimit="10" stroke-width=".166"/>
          <path d="M57.419,88.623h-1.039c-.935,0-1.693.758-1.693,1.693v9.685" fill="none" stroke="#0c0d0b" stroke-miterlimit="10" stroke-width=".166"/>
        </g>
        <g>
          <path d="M48.198,78.09c0-.082-1.639-.076-3.146-.052-1.371.021-2.47,1.138-2.47,2.509v19.453" fill="none" stroke="#0c0d0b" stroke-miterlimit="10" stroke-width=".129"/>
          <path d="M49.918,75.808c0-.1-4.004-.068-6.732-.035-1.374.017-2.478,1.135-2.478,2.509v19.435" fill="none" stroke="#0c0d0b" stroke-miterlimit="10" stroke-width=".166"/>
          <path d="M42.581,88.623h1.039c.935,0,1.693.758,1.693,1.693v9.685" fill="none" stroke="#0c0d0b" stroke-miterlimit="10" stroke-width=".166"/>
          <path d="M40.748,83.069h-1.039c-.935,0-1.693.758-1.693,1.693v9.685" fill="none" stroke="#0c0d0b" stroke-miterlimit="10" stroke-width=".166"/>
        </g>
      </g>
      <line x1="50.037" y1="78.926" x2="50.037" y2="68.505" fill="none" stroke="#0c0d0b" stroke-miterlimit="10" stroke-width=".131"/>
    </g>
  </g>
  <g id="semilla">
    <g>
      <path d="M51.762,77.382c-.056-.048-1.295-.597-1.567-.825-.144-.114-.169-.228-.16-.341-.027-1.187-.037-2.571-.015-3.753.02-.227-.084-.455.282-.682.648-.414.044-1.394-.618-.997-.368.216-.364.782,0,.997.367.227.263.455.282.682.003.664.022,1.387.013,2.047l-.022,1.365c-.028.237.081.498-.166.682-.29.28-1.122.468-1.535.818-2.394.743-4.132,2.974-4.132,5.612,0,2.691,1.812,4.955,4.281,5.65.44.281,1.128.456,1.386.705.247.185.138.445.166.682l.022,1.365c.009.66-.011,1.383-.013,2.047-.02.227.084.455-.282.682-.364.215-.368.781,0,.997.663.397,1.266-.583.618-.997-.367-.227-.263-.455-.282-.682-.022-1.182-.013-2.566.015-3.753-.009-.114.017-.227.16-.341.272-.227,1.358-.692,1.367-.697,2.485-.685,4.313-2.955,4.313-5.658,0-2.631-1.729-4.857-4.113-5.605ZM50.489,86.005c-2.09.32-3.863-1.454-3.543-3.543.199-1.302,1.264-2.366,2.566-2.566,2.09-.32,3.863,1.454,3.543,3.543-.199,1.302-1.264,2.366-2.566,2.566Z" fill="#0c0d0b"/>
      <circle cx="50" cy="82.95" r="1.855" fill="#ba7171"/>
    </g>
  </g>
  <g id="suelo">
    <g>
      <line x1="32.541" y1="68.505" x2="67.536" y2="68.505" fill="none" stroke="#0c0d0b" stroke-miterlimit="10" stroke-width="1.417"/>
      <g clip-path="url(#clippath)">
        <g>
          <circle cx="34.383" cy="69.07" r=".24" fill="#0c0d0b" stroke="#0c0d0b" stroke-miterlimit="10" stroke-width=".041"/>
          <circle cx="35.707" cy="69.07" r=".24" fill="#0c0d0b" stroke="#0c0d0b" stroke-miterlimit="10" stroke-width=".041"/>
          <circle cx="37.03" cy="69.07" r=".24" fill="#0c0d0b" stroke="#0c0d0b" stroke-miterlimit="10" stroke-width=".041"/>
          <circle cx="38.354" cy="69.07" r=".24" fill="#0c0d0b" stroke="#0c0d0b" stroke-miterlimit="10" stroke-width=".041"/>
          <circle cx="39.677" cy="69.07" r=".24" fill="#0c0d0b" stroke="#0c0d0b" stroke-miterlimit="10" stroke-width=".041"/>
          <circle cx="41.001" cy="69.07" r=".24" fill="#0c0d0b" stroke="#0c0d0b" stroke-miterlimit="10" stroke-width=".041"/>
          <circle cx="42.324" cy="69.07" r=".24" fill="#0c0d0b" stroke="#0c0d0b" stroke-miterlimit="10" stroke-width=".041"/>
          <circle cx="43.647" cy="69.07" r=".24" fill="#0c0d0b" stroke="#0c0d0b" stroke-miterlimit="10" stroke-width=".041"/>
          <circle cx="44.971" cy="69.07" r=".24" fill="#0c0d0b" stroke="#0c0d0b" stroke-miterlimit="10" stroke-width=".041"/>
          <circle cx="46.294" cy="69.07" r=".24" fill="#0c0d0b" stroke="#0c0d0b" stroke-miterlimit="10" stroke-width=".041"/>
          <circle cx="47.618" cy="69.07" r=".24" fill="#0c0d0b" stroke="#0c0d0b" stroke-miterlimit="10" stroke-width=".041"/>
          <circle cx="48.941" cy="69.07" r=".24" fill="#0c0d0b" stroke="#0c0d0b" stroke-miterlimit="10" stroke-width=".041"/>
          <circle cx="50.265" cy="69.07" r=".24" fill="#0c0d0b" stroke="#0c0d0b" stroke-miterlimit="10" stroke-width=".041"/>
          <circle cx="51.588" cy="69.07" r=".24" fill="#0c0d0b" stroke="#0c0d0b" stroke-miterlimit="10" stroke-width=".041"/>
          <circle cx="52.911" cy="69.07" r=".24" fill="#0c0d0b" stroke="#0c0d0b" stroke-miterlimit="10" stroke-width=".041"/>
          <circle cx="54.235" cy="69.07" r=".24" fill="#0c0d0b" stroke="#0c0d0b" stroke-miterlimit="10" stroke-width=".041"/>
          <circle cx="55.558" cy="69.07" r=".24" fill="#0c0d0b" stroke="#0c0d0b" stroke-miterlimit="10" stroke-width=".041"/>
          <circle cx="56.882" cy="69.07" r=".24" fill="#0c0d0b" stroke="#0c0d0b" stroke-miterlimit="10" stroke-width=".041"/>
          <circle cx="58.205" cy="69.07" r=".24" fill="#0c0d0b" stroke="#0c0d0b" stroke-miterlimit="10" stroke-width=".041"/>
          <circle cx="59.529" cy="69.07" r=".24" fill="#0c0d0b" stroke="#0c0d0b" stroke-miterlimit="10" stroke-width=".041"/>
          <circle cx="60.852" cy="69.07" r=".24" fill="#0c0d0b" stroke="#0c0d0b" stroke-miterlimit="10" stroke-width=".041"/>
          <circle cx="62.175" cy="69.07" r=".24" fill="#0c0d0b" stroke="#0c0d0b" stroke-miterlimit="10" stroke-width=".041"/>
          <circle cx="63.499" cy="69.07" r=".24" fill="#0c0d0b" stroke="#0c0d0b" stroke-miterlimit="10" stroke-width=".041"/>
          <circle cx="64.822" cy="69.07" r=".24" fill="#0c0d0b" stroke="#0c0d0b" stroke-miterlimit="10" stroke-width=".041"/>
          <circle cx="66.146" cy="69.07" r=".24" fill="#0c0d0b" stroke="#0c0d0b" stroke-miterlimit="10" stroke-width=".041"/>
          <circle cx="33.722" cy="70.07" r=".24" fill="#0c0d0b" stroke="#0c0d0b" stroke-miterlimit="10" stroke-width=".041"/>
          <circle cx="35.045" cy="70.07" r=".24" fill="#0c0d0b" stroke="#0c0d0b" stroke-miterlimit="10" stroke-width=".041"/>
          <circle cx="36.369" cy="70.07" r=".24" fill="#0c0d0b" stroke="#0c0d0b" stroke-miterlimit="10" stroke-width=".041"/>
          <circle cx="37.692" cy="70.07" r=".24" fill="#0c0d0b" stroke="#0c0d0b" stroke-miterlimit="10" stroke-width=".041"/>
          <circle cx="39.015" cy="70.07" r=".24" fill="#0c0d0b" stroke="#0c0d0b" stroke-miterlimit="10" stroke-width=".041"/>
          <circle cx="40.339" cy="70.07" r=".24" fill="#0c0d0b" stroke="#0c0d0b" stroke-miterlimit="10" stroke-width=".041"/>
          <circle cx="41.662" cy="70.07" r=".24" fill="#0c0d0b" stroke="#0c0d0b" stroke-miterlimit="10" stroke-width=".041"/>
          <circle cx="42.986" cy="70.07" r=".24" fill="#0c0d0b" stroke="#0c0d0b" stroke-miterlimit="10" stroke-width=".041"/>
          <circle cx="44.309" cy="70.07" r=".24" fill="#0c0d0b" stroke="#0c0d0b" stroke-miterlimit="10" stroke-width=".041"/>
          <circle cx="45.633" cy="70.07" r=".24" fill="#0c0d0b" stroke="#0c0d0b" stroke-miterlimit="10" stroke-width=".041"/>
          <circle cx="46.956" cy="70.07" r=".24" fill="#0c0d0b" stroke="#0c0d0b" stroke-miterlimit="10" stroke-width=".041"/>
          <circle cx="48.279" cy="70.07" r=".24" fill="#0c0d0b" stroke="#0c0d0b" stroke-miterlimit="10" stroke-width=".041"/>
          <circle cx="49.603" cy="70.07" r=".24" fill="#0c0d0b" stroke="#0c0d0b" stroke-miterlimit="10" stroke-width=".041"/>
          <circle cx="50.926" cy="70.07" r=".24" fill="#0c0d0b" stroke="#0c0d0b" stroke-miterlimit="10" stroke-width=".041"/>
          <circle cx="52.25" cy="70.07" r=".24" fill="#0c0d0b" stroke="#0c0d0b" stroke-miterlimit="10" stroke-width=".041"/>
          <circle cx="53.573" cy="70.07" r=".24" fill="#0c0d0b" stroke="#0c0d0b" stroke-miterlimit="10" stroke-width=".041"/>
          <circle cx="54.897" cy="70.07" r=".24" fill="#0c0d0b" stroke="#0c0d0b" stroke-miterlimit="10" stroke-width=".041"/>
          <circle cx="56.22" cy="70.07" r=".24" fill="#0c0d0b" stroke="#0c0d0b" stroke-miterlimit="10" stroke-width=".041"/>
          <circle cx="57.543" cy="70.07" r=".24" fill="#0c0d0b" stroke="#0c0d0b" stroke-miterlimit="10" stroke-width=".041"/>
          <circle cx="58.867" cy="70.07" r=".24" fill="#0c0d0b" stroke="#0c0d0b" stroke-miterlimit="10" stroke-width=".041"/>
          <circle cx="60.19" cy="70.07" r=".24" fill="#0c0d0b" stroke="#0c0d0b" stroke-miterlimit="10" stroke-width=".041"/>
          <circle cx="61.514" cy="70.07" r=".24" fill="#0c0d0b" stroke="#0c0d0b" stroke-miterlimit="10" stroke-width=".041"/>
          <circle cx="62.837" cy="70.07" r=".24" fill="#0c0d0b" stroke="#0c0d0b" stroke-miterlimit="10" stroke-width=".041"/>
          <circle cx="64.161" cy="70.07" r=".24" fill="#0c0d0b" stroke="#0c0d0b" stroke-miterlimit="10" stroke-width=".041"/>
          <circle cx="65.484" cy="70.07" r=".24" fill="#0c0d0b" stroke="#0c0d0b" stroke-miterlimit="10" stroke-width=".041"/>
          <circle cx="66.807" cy="70.07" r=".24" fill="#0c0d0b" stroke="#0c0d0b" stroke-miterlimit="10" stroke-width=".041"/>
          <circle cx="34.383" cy="71.07" r=".24" fill="#0c0d0b" stroke="#0c0d0b" stroke-miterlimit="10" stroke-width=".041"/>
          <circle cx="35.707" cy="71.07" r=".24" fill="#0c0d0b" stroke="#0c0d0b" stroke-miterlimit="10" stroke-width=".041"/>
          <circle cx="37.03" cy="71.07" r=".24" fill="#0c0d0b" stroke="#0c0d0b" stroke-miterlimit="10" stroke-width=".041"/>
          <circle cx="38.354" cy="71.07" r=".24" fill="#0c0d0b" stroke="#0c0d0b" stroke-miterlimit="10" stroke-width=".041"/>
          <circle cx="39.677" cy="71.07" r=".24" fill="#0c0d0b" stroke="#0c0d0b" stroke-miterlimit="10" stroke-width=".041"/>
          <circle cx="41.001" cy="71.07" r=".24" fill="#0c0d0b" stroke="#0c0d0b" stroke-miterlimit="10" stroke-width=".041"/>
          <circle cx="42.324" cy="71.07" r=".24" fill="#0c0d0b" stroke="#0c0d0b" stroke-miterlimit="10" stroke-width=".041"/>
          <circle cx="43.647" cy="71.07" r=".24" fill="#0c0d0b" stroke="#0c0d0b" stroke-miterlimit="10" stroke-width=".041"/>
          <circle cx="44.971" cy="71.07" r=".24" fill="#0c0d0b" stroke="#0c0d0b" stroke-miterlimit="10" stroke-width=".041"/>
          <circle cx="46.294" cy="71.07" r=".24" fill="#0c0d0b" stroke="#0c0d0b" stroke-miterlimit="10" stroke-width=".041"/>
          <circle cx="47.618" cy="71.07" r=".24" fill="#0c0d0b" stroke="#0c0d0b" stroke-miterlimit="10" stroke-width=".041"/>
          <circle cx="48.941" cy="71.07" r=".24" fill="#0c0d0b" stroke="#0c0d0b" stroke-miterlimit="10" stroke-width=".041"/>
          <circle cx="50.265" cy="71.07" r=".24" fill="#0c0d0b" stroke="#0c0d0b" stroke-miterlimit="10" stroke-width=".041"/>
          <circle cx="51.588" cy="71.07" r=".24" fill="#0c0d0b" stroke="#0c0d0b" stroke-miterlimit="10" stroke-width=".041"/>
          <circle cx="52.911" cy="71.07" r=".24" fill="#0c0d0b" stroke="#0c0d0b" stroke-miterlimit="10" stroke-width=".041"/>
          <circle cx="54.235" cy="71.07" r=".24" fill="#0c0d0b" stroke="#0c0d0b" stroke-miterlimit="10" stroke-width=".041"/>
          <circle cx="55.558" cy="71.07" r=".24" fill="#0c0d0b" stroke="#0c0d0b" stroke-miterlimit="10" stroke-width=".041"/>
          <circle cx="56.882" cy="71.07" r=".24" fill="#0c0d0b" stroke="#0c0d0b" stroke-miterlimit="10" stroke-width=".041"/>
          <circle cx="58.205" cy="71.07" r=".24" fill="#0c0d0b" stroke="#0c0d0b" stroke-miterlimit="10" stroke-width=".041"/>
          <circle cx="59.529" cy="71.07" r=".24" fill="#0c0d0b" stroke="#0c0d0b" stroke-miterlimit="10" stroke-width=".041"/>
          <circle cx="60.852" cy="71.07" r=".24" fill="#0c0d0b" stroke="#0c0d0b" stroke-miterlimit="10" stroke-width=".041"/>
          <circle cx="62.175" cy="71.07" r=".24" fill="#0c0d0b" stroke="#0c0d0b" stroke-miterlimit="10" stroke-width=".041"/>
          <circle cx="63.499" cy="71.07" r=".24" fill="#0c0d0b" stroke="#0c0d0b" stroke-miterlimit="10" stroke-width=".041"/>
          <circle cx="64.822" cy="71.07" r=".24" fill="#0c0d0b" stroke="#0c0d0b" stroke-miterlimit="10" stroke-width=".041"/>
          <circle cx="66.146" cy="71.07" r=".24" fill="#0c0d0b" stroke="#0c0d0b" stroke-miterlimit="10" stroke-width=".041"/>
        </g>
      </g>
    </g>
  </g>
  <g id="Tallo">
    <path d="M35.221,17.462c.094,0,2.698,1.984,4.666,3.495,1.402,1.076,2.35,2.637,2.657,4.378l7.601,43.075" fill="none" stroke="#0c0d0b" stroke-miterlimit="10" stroke-width=".129"/>
    <path d="M65.222,17.505c-.094,0-2.698,1.984-4.666,3.495-1.402,1.076-2.35,2.637-2.657,4.378l-7.601,43.075V5.482" fill="none" stroke="#0c0d0b" stroke-miterlimit="10" stroke-width=".129"/>
    <path d="M37.242,6.352l6.902,9.329c1.489,2.012,2.49,4.342,2.925,6.807l1.824,10.336c.395,2.241,3.652,2.116,3.875-.148l1.994-20.25" fill="none" stroke="#0c0d0b" stroke-miterlimit="10" stroke-width=".129"/>
  </g>
  <g id="Hojas">
    <path d="M64.305,19.631c-.233-.284-.651-.326-.935-.093-.051.041-.093.089-.128.14-.213-.097-.552-.19-.889-.032.221-.298.197-.649.144-.878.057-.024.112-.057.163-.098.284-.233.326-.651.093-.935s-.651-.326-.935-.093-.326.651-.093.935c.178.217.465.293.717.212.06.266.077.699-.314,1.002l-.305.25v.002s.037.044.037.044v.002s.306-.25.306-.25c.375-.324.796-.221,1.044-.11-.129.231-.112.528.066.745.233.284.651.326.935.093s.326-.651.093-.935Z" fill="#0c0d0b"/>
    <path d="M60.076,23c-.335-.15-.728,0-.878.336-.027.06-.044.121-.052.183-.234.009-.579.078-.809.37.064-.366-.116-.668-.265-.849.04-.047.075-.101.101-.161.15-.335,0-.728-.336-.878s-.728,0-.878.336,0,.728.336.878c.257.114.547.053.736-.132.173.211.383.59.169,1.037l-.161.36h.002s.052.024.052.024h.002s.161-.359.161-.359c.19-.457.612-.554.884-.566-.012.265.137.522.393.636.335.15.728,0,.878-.336s0-.728-.336-.878Z" fill="#0c0d0b"/>
    <path d="M58.577,28.359c-.364-.051-.699.203-.75.566-.009.065-.008.129,0,.19-.222.074-.535.235-.675.579-.04-.369-.296-.61-.49-.742.026-.057.044-.118.053-.183.051-.364-.203-.699-.566-.75s-.699.203-.75.566.203.699.566.75c.278.039.54-.101.67-.331.224.154.531.461.45.949l-.054.39h.002s.056.008.056.008h.002s.054-.39.054-.39c.056-.492.435-.702.693-.79.062.257.276.463.554.502.364.051.699-.203.75-.566s-.203-.699-.566-.75Z" fill="#0c0d0b"/>
    <path d="M57.546,34.203c-.364-.051-.7.203-.75.566-.009.065-.008.129,0,.19-.222.074-.535.235-.675.579-.04-.369-.296-.61-.49-.742.026-.057.044-.118.053-.183.051-.364-.203-.7-.566-.75s-.7.203-.75.566.203.7.566.75c.278.039.54-.1.671-.331.224.154.531.461.449.949l-.055.39h.002s.056.008.056.008h.002s.055-.39.055-.39c.056-.492.435-.702.693-.789.062.257.276.463.554.502.364.051.7-.203.75-.566s-.203-.7-.566-.75Z" fill="#0c0d0b"/>
    <path d="M56.579,40.156c-.359-.078-.713.149-.791.508-.014.064-.018.128-.014.19-.227.057-.551.194-.717.526-.012-.371-.249-.631-.432-.777.03-.055.053-.114.067-.178.078-.359-.149-.713-.508-.791s-.713.149-.791.508.149.713.508.791c.274.06.546-.059.694-.279.212.171.495.5.376.98l-.084.385h.002s.056.013.056.013h.002s.084-.385.084-.385c.093-.486.487-.667.751-.735.043.261.24.483.514.543.359.078.713-.149.791-.508s-.149-.713-.508-.791Z" fill="#0c0d0b"/>
    <path d="M55.527,45.978c-.36-.07-.709.166-.779.526-.012.064-.015.128-.009.19-.226.062-.547.207-.704.543-.021-.371-.264-.625-.45-.767.029-.055.05-.115.062-.179.07-.36-.166-.709-.526-.779s-.709.166-.779.526.166.709.526.779c.276.053.545-.072.687-.295.216.166.506.488.399.971l-.075.387h.002s.056.011.056.011h.002s.075-.387.075-.387c.081-.488.471-.679.733-.752.049.26.251.477.527.531.36.07.709-.166.779-.526s-.166-.709-.526-.779Z" fill="#0c0d0b"/>
    <path d="M40.24,9.014c-.199.147-.241.428-.094.628.026.035.057.066.09.091-.072.141-.147.366-.051.598-.194-.159-.431-.154-.587-.126-.014-.039-.035-.078-.061-.113-.147-.199-.428-.241-.628-.094s-.241.428-.094.628.428.241.628.094c.152-.113.213-.304.167-.477.181-.032.474-.029.665.245l.158.214h.001s.031-.024.031-.024h.001s-.158-.215-.158-.215c-.206-.263-.123-.544-.039-.708.152.095.352.093.504-.02.199-.147.241-.428.094-.628s-.428-.241-.628-.094Z" fill="#0c0d0b"/>
    <path d="M43.906,13.967c-.199.147-.241.428-.094.628.026.035.057.066.09.091-.072.141-.147.366-.051.598-.194-.159-.431-.154-.587-.126-.014-.039-.035-.078-.061-.113-.147-.199-.428-.241-.628-.094s-.241.428-.094.628.428.241.628.094c.152-.113.213-.304.167-.477.181-.032.474-.029.665.245l.158.214h.001s.031-.024.031-.024h.001s-.158-.215-.158-.215c-.206-.263-.123-.544-.039-.708.152.095.352.093.504-.02.199-.147.241-.428.094-.628s-.428-.241-.628-.094Z" fill="#0c0d0b"/>
    <path d="M47.137,19.49c-.236.074-.368.326-.293.563.013.042.032.081.056.116-.114.109-.258.298-.243.549-.131-.213-.358-.286-.514-.31,0-.042-.007-.085-.021-.127-.074-.236-.326-.368-.563-.293s-.368.326-.293.563.326.368.563.293c.181-.057.3-.218.313-.396.181.029.457.127.549.448l.08.254h.001s.037-.012.037-.012h.001s-.08-.254-.08-.254c-.109-.316.061-.554.193-.682.113.139.303.202.483.145.236-.074.368-.326.293-.563s-.326-.368-.563-.293Z" fill="#0c0d0b"/>
    <path d="M49.531,31.675c-.244.043-.407.276-.364.52.008.043.021.084.04.122-.127.094-.295.262-.313.512-.103-.229-.317-.33-.469-.374.005-.042.004-.085-.004-.128-.043-.244-.276-.407-.52-.364s-.407.276-.364.52.276.407.52.364c.187-.033.326-.177.362-.352.176.052.437.185.486.516l.046.262h.001s.038-.007.038-.007h.001s-.046-.262-.046-.262c-.067-.327.133-.542.28-.651.094.152.274.24.46.207.244-.043.407-.276.364-.52s-.276-.407-.52-.364Z" fill="#0c0d0b"/>
    <path d="M51.894,33.116c.247.024.466-.156.49-.403.004-.044.002-.087-.006-.128.148-.056.354-.173.439-.409.037.248.217.403.351.487-.016.039-.026.081-.031.125-.024.247.156.466.403.49s.466-.156.49-.403-.156-.466-.403-.49c-.189-.019-.362.083-.443.242-.155-.098-.371-.296-.329-.628l.026-.265h-.001s-.038-.004-.038-.004h-.001s-.026.265-.026.265c-.024.333-.274.486-.446.551-.049-.172-.199-.305-.387-.324-.247-.024-.466.156-.49.403s.156.466.403.49Z" fill="#0c0d0b"/>
    <path d="M52.45,27.468c.247.024.466-.156.49-.403.004-.044.002-.087-.006-.128.148-.056.354-.173.439-.409.037.248.217.403.351.487-.016.039-.026.081-.031.125-.024.247.156.466.403.49s.466-.156.49-.403-.156-.466-.403-.49c-.189-.019-.362.083-.443.242-.155-.098-.371-.296-.329-.628l.026-.265h-.001s-.038-.004-.038-.004h-.001s-.026.265-.026.265c-.024.333-.274.486-.446.551-.049-.172-.199-.305-.387-.324-.247-.024-.466.156-.49.403s.156.466.403.49Z" fill="#0c0d0b"/>
    <path d="M53.053,21.348c.247.024.466-.156.49-.403.004-.044.002-.087-.006-.128.148-.056.354-.173.439-.409.037.248.217.403.351.487-.016.039-.026.081-.031.125-.024.247.156.466.403.49s.466-.156.49-.403-.156-.466-.403-.49c-.189-.019-.362.083-.443.242-.155-.098-.371-.296-.329-.628l.026-.265h-.001s-.038-.004-.038-.004h-.001s-.026.265-.026.265c-.024.333-.274.486-.446.551-.049-.172-.199-.305-.387-.324-.247-.024-.466.156-.49.403s.156.466.403.49Z" fill="#0c0d0b"/>
    <path d="M53.656,15.219c.247.024.466-.156.49-.403.004-.044.002-.087-.006-.128.148-.056.354-.173.439-.409.037.248.217.403.351.487-.016.039-.026.081-.031.125-.024.247.156.466.403.49s.466-.156.49-.403-.156-.466-.403-.49c-.189-.019-.362.083-.443.242-.155-.098-.371-.296-.329-.628l.026-.265h-.001s-.038-.004-.038-.004h-.001s-.026.265-.026.265c-.024.333-.274.486-.446.551-.049-.172-.199-.305-.387-.324-.247-.024-.466.156-.49.403s.156.466.403.49Z" fill="#0c0d0b"/>
    <path d="M41.826,20.684c-.322.175-.442.579-.266.902.031.057.07.108.114.152-.135.192-.29.507-.198.867-.252-.273-.601-.314-.835-.305-.013-.061-.035-.121-.066-.178-.175-.322-.579-.442-.902-.266s-.442.579-.266.902.579.442.902.266c.247-.134.374-.402.342-.665.272-.009.701.054.926.495l.188.346h.002s.05-.028.05-.028h.002s-.188-.347-.188-.347c-.248-.428-.069-.823.087-1.047.203.17.497.208.744.074.322-.175.442-.579.266-.902s-.579-.442-.902-.266Z" fill="#0c0d0b"/>
    <path d="M44.838,31.277c-.361.064-.603.409-.539.77.011.064.032.125.059.181-.189.139-.436.389-.463.759-.152-.339-.47-.489-.695-.555.007-.062.005-.126-.006-.19-.064-.361-.409-.603-.77-.539s-.603.409-.539.77.409.603.77.539c.277-.049.483-.262.536-.522.261.078.647.274.721.764l.069.388h.002s.056-.01.056-.01h.002s-.069-.389-.069-.389c-.099-.485.197-.802.415-.965.139.226.405.356.682.307.362-.064.603-.409.539-.77s-.409-.603-.77-.539Z" fill="#0c0d0b"/>
    <path d="M46.688,41.763c-.361.064-.603.409-.539.77.011.064.032.125.059.181-.189.139-.436.389-.463.759-.152-.339-.47-.489-.695-.555.007-.062.005-.126-.006-.19-.064-.361-.409-.603-.77-.539s-.603.409-.539.77.409.603.77.539c.277-.049.483-.262.536-.522.261.078.647.274.721.764l.069.388h.002s.056-.01.056-.01h.002s-.069-.389-.069-.389c-.099-.485.197-.802.415-.965.139.226.405.356.682.307.362-.064.603-.409.539-.77s-.409-.603-.77-.539Z" fill="#0c0d0b"/>
    <path d="M48.561,52.377c-.361.064-.603.409-.539.77.011.064.032.125.059.181-.189.139-.436.389-.463.759-.152-.339-.47-.489-.695-.555.007-.062.005-.126-.006-.19-.064-.361-.409-.603-.77-.539s-.603.409-.539.77.409.603.77.539c.277-.049.483-.262.536-.522.261.078.647.274.721.764l.069.388h.002s.056-.01.056-.01h.002s-.069-.389-.069-.389c-.099-.485.197-.802.415-.965.139.226.405.356.682.307.362-.064.603-.409.539-.77s-.409-.603-.77-.539Z" fill="#0c0d0b"/>
  </g>
  <g id="Flores">
    <g>
      <g>
        <path d="M56.617,1.875c0-1.036-.84-1.875-1.875-1.875s-1.875.84-1.875,1.875.84,1.875,1.875,1.875c.346,0,.67-.094.949-.258.224,1.7-.258,3.416-1.333,4.671-.147-.118-.362-.112-.501.022-.144.139-.154.364-.028.515-.002.002-.005.004-.007.007-.178.156-.364.299-.558.429-.021-.029-.046-.055-.075-.078-.165-.129-.404-.099-.533.066-.089.115-.102.265-.047.389-.215.105-.435.195-.66.271-.045-.118-.148-.211-.281-.237-.206-.041-.405.093-.446.299-.009.046-.009.091-.002.134-.233.047-.469.08-.707.098-.008-.066-.033-.13-.077-.186-.129-.166-.367-.196-.532-.067-.087.067-.136.165-.145.266-.237-.011-.475-.035-.711-.073.001-.01.002-.021.002-.031.006-.209-.158-.384-.368-.391-.171-.005-.319.104-.371.258-.228-.065-.453-.144-.674-.236.054-.148.013-.319-.116-.424-.162-.133-.401-.109-.534.054-.011.013-.02.027-.029.041-.206-.116-.407-.245-.602-.385.058-.086.08-.195.053-.303-.051-.203-.257-.327-.46-.277-.203.051-.327.257-.276.46.051.203.257.327.46.277.078-.019.144-.062.193-.118.196.142.399.272.608.39-.069.153-.03.338.106.449.162.133.401.109.534-.054.016-.02.03-.041.042-.063.223.093.45.173.681.24-.004.019-.006.039-.007.06-.006.209.158.384.368.391.181.005.336-.116.379-.285.238.038.478.063.719.074.004.075.03.149.079.213.129.166.367.196.532.067.095-.073.145-.183.147-.294.242-.019.481-.053.716-.1.04.13.147.234.289.262.206.041.405-.093.446-.299.011-.055.009-.11-.003-.161.229-.078.453-.171.669-.276.023.038.053.072.09.101.165.129.404.099.533-.066.095-.122.104-.284.035-.413.197-.132.386-.276.564-.433.003-.003.006-.005.009-.008.146.136.376.136.521-.004.15-.145.155-.384.011-.535.588-.683,1.009-1.508,1.23-2.423.183-.758.22-1.54.114-2.311.528-.332.879-.919.879-1.588Z" fill="#ff9b85"/>
        <circle cx="50.079" cy="4.41" r="3.953" fill="#0c0d0b"/>
      </g>
      <circle cx="46.871" cy="5.656" r="1.424" fill="#ffc1b3"/>
    </g>
    <g>
      <g>
        <path d="M41.306,3.006c0-.736-.596-1.332-1.332-1.332s-1.332.596-1.332,1.332.596,1.332,1.332,1.332c.246,0,.476-.067.674-.183.159,1.207-.183,2.427-.947,3.318-.104-.084-.257-.08-.356.016-.102.099-.11.258-.02.366-.002.002-.003.003-.005.005-.126.111-.259.212-.396.304-.015-.021-.032-.039-.053-.056-.117-.091-.287-.07-.378.047-.063.081-.073.188-.033.276-.152.074-.309.138-.469.193-.032-.084-.105-.15-.2-.168-.146-.029-.288.066-.317.212-.006.032-.007.065-.002.095-.166.033-.333.056-.502.07-.006-.047-.023-.093-.054-.132-.091-.118-.261-.139-.378-.048-.062.048-.096.117-.103.189-.168-.008-.337-.025-.505-.052,0-.007.001-.015.002-.022.005-.149-.112-.273-.261-.278-.122-.004-.227.074-.264.183-.162-.046-.322-.102-.479-.167.038-.105.009-.227-.082-.301-.115-.094-.285-.077-.379.038-.008.009-.014.019-.02.029-.146-.082-.289-.174-.427-.274.041-.061.057-.138.038-.215-.036-.144-.182-.232-.327-.196-.144.036-.232.182-.196.327.036.144.182.232.327.196.055-.014.102-.044.137-.084.139.101.283.193.432.277-.049.108-.021.24.075.319.115.094.285.077.379-.038.012-.014.022-.029.03-.045.158.066.32.123.484.17-.003.014-.004.028-.005.042-.005.149.112.273.261.278.128.004.238-.083.269-.202.169.027.339.045.511.053.003.053.021.106.056.151.091.118.261.139.378.048.067-.052.103-.13.104-.209.172-.014.342-.037.509-.071.028.092.105.166.206.186.146.029.288-.066.317-.212.008-.039.007-.078-.002-.114.163-.056.322-.121.475-.196.016.027.038.051.064.072.117.091.287.07.378-.047.068-.087.074-.202.025-.293.14-.094.274-.196.401-.308.002-.002.004-.004.006-.006.104.097.267.097.37-.003.107-.103.11-.273.008-.38.418-.485.716-1.071.874-1.721.13-.538.156-1.094.081-1.641.375-.236.624-.653.624-1.128Z" fill="#ff9b85"/>
        <circle cx="36.662" cy="4.806" r="2.808" fill="#0c0d0b"/>
      </g>
      <circle cx="34.383" cy="5.691" r="1.012" fill="#ffc1b3"/>
    </g>
    <circle cx="54.768" cy="12.204" r="1.507" fill="#e17a74"/>
    <circle cx="65.57" cy="16.921" r="1.507" fill="#e17a74"/>
    <circle cx="34.292" cy="17.335" r="1.507" fill="#e17a74"/>
  </g>
</svg>