<?xml version="1.0" encoding="UTF-8"?>
<svg xmlns="http://www.w3.org/2000/svg" width="100" height="100" xmlns:xlink="http://www.w3.org/1999/xlink" viewBox="0 0 100 100">
  <defs>
    <clipPath id="clippath">
      <rect x="33.539" y="68.826" width="33.604" height="2.547" fill="none"/>
    </clipPath>
  </defs>
  <g id="background">
    <circle cx="49.915" cy="83.171" r="8.831" fill="#ba7171" opacity=".33"/>
  </g>
  <g id="root">
    <g>
      <g>
        <g>
          <path d="M51.757,78.09c0-.082,1.639-.076,3.146-.052,1.371.021,2.47,1.138,2.47,2.509v19.453" fill="none" stroke="#0c0d0b" stroke-miterlimit="10" stroke-width=".129"/>
          <path d="M50.037,75.808c0-.1,4.004-.068,6.732-.035,1.374.017,2.478,1.135,2.478,2.509v19.435" fill="none" stroke="#0c0d0b" stroke-miterlimit="10" stroke-width=".166"/>
          <path d="M59.252,83.069h1.039c.935,0,1.693.758,1.693,1.693v9.685" fill="none" stroke="#0c0d0b" stroke-miterlimit="10" stroke-width=".166"/>
          <path d="M57.419,88.623h-1.039c-.935,0-1.693.758-1.693,1.693v9.685" fill="none" stroke="#0c0d0b" stroke-miterlimit="10" stroke-width=".166"/>
        </g>
        <g>
          <path d="M48.198,78.09c0-.082-1.639-.076-3.146-.052-1.371.021-2.47,1.138-2.47,2.509v19.453" fill="none" stroke="#0c0d0b" stroke-miterlimit="10" stroke-width=".129"/>
          <path d="M49.918,75.808c0-.1-4.004-.068-6.732-.035-1.374.017-2.478,1.135-2.478,2.509v19.435" fill="none" stroke="#0c0d0b" stroke-miterlimit="10" stroke-width=".166"/>
          <path d="M42.581,88.623h1.039c.935,0,1.693.758,1.693,1.693v9.685" fill="none" stroke="#0c0d0b" stroke-miterlimit="10" stroke-width=".166"/>
          <path d="M40.748,83.069h-1.039c-.935,0-1.693.758-1.693,1.693v9.685" fill="none" stroke="#0c0d0b" stroke-miterlimit="10" stroke-width=".166"/>
        </g>
      </g>
      <line x1="50.037" y1="78.926" x2="50.037" y2="68.505" fill="none" stroke="#0c0d0b" stroke-miterlimit="10" stroke-width=".131"/>
    </g>
  </g>
  <g id="seed">
    <g>
      <path d="M51.762,77.382c-.056-.048-1.295-.597-1.567-.825-.144-.114-.169-.228-.16-.341-.027-1.187-.037-2.571-.015-3.753.02-.227-.084-.455.282-.682.648-.414.044-1.394-.618-.997-.368.216-.364.782,0,.997.367.227.263.455.282.682.003.664.022,1.387.013,2.047l-.022,1.365c-.028.237.081.498-.166.682-.29.28-1.122.468-1.535.818-2.394.743-4.132,2.974-4.132,5.612,0,2.691,1.812,4.955,4.281,5.65.44.281,1.128.456,1.386.705.247.185.138.445.166.682l.022,1.365c.009.66-.011,1.383-.013,2.047-.02.227.084.455-.282.682-.364.215-.368.781,0,.997.663.397,1.266-.583.618-.997-.367-.227-.263-.455-.282-.682-.022-1.182-.013-2.566.015-3.753-.009-.114.017-.227.16-.341.272-.227,1.358-.692,1.367-.697,2.485-.685,4.313-2.955,4.313-5.658,0-2.631-1.729-4.857-4.113-5.605ZM50.489,86.005c-2.09.32-3.863-1.454-3.543-3.543.199-1.302,1.264-2.366,2.566-2.566,2.09-.32,3.863,1.454,3.543,3.543-.199,1.302-1.264,2.366-2.566,2.566Z" fill="#0c0d0b"/>
      <circle cx="50" cy="82.95" r="1.855" fill="#ba7171"/>
    </g>
  </g>
  <g id="soil">
    <g>
      <line x1="32.541" y1="68.505" x2="67.536" y2="68.505" fill="none" stroke="#0c0d0b" stroke-miterlimit="10" stroke-width="1.417"/>
      <g clip-path="url(#clippath)">
        <g>
          <circle cx="34.383" cy="69.07" r=".24" fill="#0c0d0b" stroke="#0c0d0b" stroke-miterlimit="10" stroke-width=".041"/>
          <circle cx="35.707" cy="69.07" r=".24" fill="#0c0d0b" stroke="#0c0d0b" stroke-miterlimit="10" stroke-width=".041"/>
          <circle cx="37.03" cy="69.07" r=".24" fill="#0c0d0b" stroke="#0c0d0b" stroke-miterlimit="10" stroke-width=".041"/>
          <circle cx="38.354" cy="69.07" r=".24" fill="#0c0d0b" stroke="#0c0d0b" stroke-miterlimit="10" stroke-width=".041"/>
          <circle cx="39.677" cy="69.07" r=".24" fill="#0c0d0b" stroke="#0c0d0b" stroke-miterlimit="10" stroke-width=".041"/>
          <circle cx="41.001" cy="69.07" r=".24" fill="#0c0d0b" stroke="#0c0d0b" stroke-miterlimit="10" stroke-width=".041"/>
          <circle cx="42.324" cy="69.07" r=".24" fill="#0c0d0b" stroke="#0c0d0b" stroke-miterlimit="10" stroke-width=".041"/>
          <circle cx="43.647" cy="69.07" r=".24" fill="#0c0d0b" stroke="#0c0d0b" stroke-miterlimit="10" stroke-width=".041"/>
          <circle cx="44.971" cy="69.07" r=".24" fill="#0c0d0b" stroke="#0c0d0b" stroke-miterlimit="10" stroke-width=".041"/>
          <circle cx="46.294" cy="69.07" r=".24" fill="#0c0d0b" stroke="#0c0d0b" stroke-miterlimit="10" stroke-width=".041"/>
          <circle cx="47.618" cy="69.07" r=".24" fill="#0c0d0b" stroke="#0c0d0b" stroke-miterlimit="10" stroke-width=".041"/>
          <circle cx="48.941" cy="69.07" r=".24" fill="#0c0d0b" stroke="#0c0d0b" stroke-miterlimit="10" stroke-width=".041"/>
          <circle cx="50.265" cy="69.07" r=".24" fill="#0c0d0b" stroke="#0c0d0b" stroke-miterlimit="10" stroke-width=".041"/>
          <circle cx="51.588" cy="69.07" r=".24" fill="#0c0d0b" stroke="#0c0d0b" stroke-miterlimit="10" stroke-width=".041"/>
          <circle cx="52.911" cy="69.07" r=".24" fill="#0c0d0b" stroke="#0c0d0b" stroke-miterlimit="10" stroke-width=".041"/>
          <circle cx="54.235" cy="69.07" r=".24" fill="#0c0d0b" stroke="#0c0d0b" stroke-miterlimit="10" stroke-width=".041"/>
          <circle cx="55.558" cy="69.07" r=".24" fill="#0c0d0b" stroke="#0c0d0b" stroke-miterlimit="10" stroke-width=".041"/>
          <circle cx="56.882" cy="69.07" r=".24" fill="#0c0d0b" stroke="#0c0d0b" stroke-miterlimit="10" stroke-width=".041"/>
          <circle cx="58.205" cy="69.07" r=".24" fill="#0c0d0b" stroke="#0c0d0b" stroke-miterlimit="10" stroke-width=".041"/>
          <circle cx="59.529" cy="69.07" r=".24" fill="#0c0d0b" stroke="#0c0d0b" stroke-miterlimit="10" stroke-width=".041"/>
          <circle cx="60.852" cy="69.07" r=".24" fill="#0c0d0b" stroke="#0c0d0b" stroke-miterlimit="10" stroke-width=".041"/>
          <circle cx="62.175" cy="69.07" r=".24" fill="#0c0d0b" stroke="#0c0d0b" stroke-miterlimit="10" stroke-width=".041"/>
          <circle cx="63.499" cy="69.07" r=".24" fill="#0c0d0b" stroke="#0c0d0b" stroke-miterlimit="10" stroke-width=".041"/>
          <circle cx="64.822" cy="69.07" r=".24" fill="#0c0d0b" stroke="#0c0d0b" stroke-miterlimit="10" stroke-width=".041"/>
          <circle cx="66.146" cy="69.07" r=".24" fill="#0c0d0b" stroke="#0c0d0b" stroke-miterlimit="10" stroke-width=".041"/>
          <circle cx="33.722" cy="70.07" r=".24" fill="#0c0d0b" stroke="#0c0d0b" stroke-miterlimit="10" stroke-width=".041"/>
          <circle cx="35.045" cy="70.07" r=".24" fill="#0c0d0b" stroke="#0c0d0b" stroke-miterlimit="10" stroke-width=".041"/>
          <circle cx="36.369" cy="70.07" r=".24" fill="#0c0d0b" stroke="#0c0d0b" stroke-miterlimit="10" stroke-width=".041"/>
          <circle cx="37.692" cy="70.07" r=".24" fill="#0c0d0b" stroke="#0c0d0b" stroke-miterlimit="10" stroke-width=".041"/>
          <circle cx="39.015" cy="70.07" r=".24" fill="#0c0d0b" stroke="#0c0d0b" stroke-miterlimit="10" stroke-width=".041"/>
          <circle cx="40.339" cy="70.07" r=".24" fill="#0c0d0b" stroke="#0c0d0b" stroke-miterlimit="10" stroke-width=".041"/>
          <circle cx="41.662" cy="70.07" r=".24" fill="#0c0d0b" stroke="#0c0d0b" stroke-miterlimit="10" stroke-width=".041"/>
          <circle cx="42.986" cy="70.07" r=".24" fill="#0c0d0b" stroke="#0c0d0b" stroke-miterlimit="10" stroke-width=".041"/>
          <circle cx="44.309" cy="70.07" r=".24" fill="#0c0d0b" stroke="#0c0d0b" stroke-miterlimit="10" stroke-width=".041"/>
          <circle cx="45.633" cy="70.07" r=".24" fill="#0c0d0b" stroke="#0c0d0b" stroke-miterlimit="10" stroke-width=".041"/>
          <circle cx="46.956" cy="70.07" r=".24" fill="#0c0d0b" stroke="#0c0d0b" stroke-miterlimit="10" stroke-width=".041"/>
          <circle cx="48.279" cy="70.07" r=".24" fill="#0c0d0b" stroke="#0c0d0b" stroke-miterlimit="10" stroke-width=".041"/>
          <circle cx="49.603" cy="70.07" r=".24" fill="#0c0d0b" stroke="#0c0d0b" stroke-miterlimit="10" stroke-width=".041"/>
          <circle cx="50.926" cy="70.07" r=".24" fill="#0c0d0b" stroke="#0c0d0b" stroke-miterlimit="10" stroke-width=".041"/>
          <circle cx="52.25" cy="70.07" r=".24" fill="#0c0d0b" stroke="#0c0d0b" stroke-miterlimit="10" stroke-width=".041"/>
          <circle cx="53.573" cy="70.07" r=".24" fill="#0c0d0b" stroke="#0c0d0b" stroke-miterlimit="10" stroke-width=".041"/>
          <circle cx="54.897" cy="70.07" r=".24" fill="#0c0d0b" stroke="#0c0d0b" stroke-miterlimit="10" stroke-width=".041"/>
          <circle cx="56.22" cy="70.07" r=".24" fill="#0c0d0b" stroke="#0c0d0b" stroke-miterlimit="10" stroke-width=".041"/>
          <circle cx="57.543" cy="70.07" r=".24" fill="#0c0d0b" stroke="#0c0d0b" stroke-miterlimit="10" stroke-width=".041"/>
          <circle cx="58.867" cy="70.07" r=".24" fill="#0c0d0b" stroke="#0c0d0b" stroke-miterlimit="10" stroke-width=".041"/>
          <circle cx="60.19" cy="70.07" r=".24" fill="#0c0d0b" stroke="#0c0d0b" stroke-miterlimit="10" stroke-width=".041"/>
          <circle cx="61.514" cy="70.07" r=".24" fill="#0c0d0b" stroke="#0c0d0b" stroke-miterlimit="10" stroke-width=".041"/>
          <circle cx="62.837" cy="70.07" r=".24" fill="#0c0d0b" stroke="#0c0d0b" stroke-miterlimit="10" stroke-width=".041"/>
          <circle cx="64.161" cy="70.07" r=".24" fill="#0c0d0b" stroke="#0c0d0b" stroke-miterlimit="10" stroke-width=".041"/>
          <circle cx="65.484" cy="70.07" r=".24" fill="#0c0d0b" stroke="#0c0d0b" stroke-miterlimit="10" stroke-width=".041"/>
          <circle cx="66.807" cy="70.07" r=".24" fill="#0c0d0b" stroke="#0c0d0b" stroke-miterlimit="10" stroke-width=".041"/>
          <circle cx="34.383" cy="71.07" r=".24" fill="#0c0d0b" stroke="#0c0d0b" stroke-miterlimit="10" stroke-width=".041"/>
          <circle cx="35.707" cy="71.07" r=".24" fill="#0c0d0b" stroke="#0c0d0b" stroke-miterlimit="10" stroke-width=".041"/>
          <circle cx="37.03" cy="71.07" r=".24" fill="#0c0d0b" stroke="#0c0d0b" stroke-miterlimit="10" stroke-width=".041"/>
          <circle cx="38.354" cy="71.07" r=".24" fill="#0c0d0b" stroke="#0c0d0b" stroke-miterlimit="10" stroke-width=".041"/>
          <circle cx="39.677" cy="71.07" r=".24" fill="#0c0d0b" stroke="#0c0d0b" stroke-miterlimit="10" stroke-width=".041"/>
          <circle cx="41.001" cy="71.07" r=".24" fill="#0c0d0b" stroke="#0c0d0b" stroke-miterlimit="10" stroke-width=".041"/>
          <circle cx="42.324" cy="71.07" r=".24" fill="#0c0d0b" stroke="#0c0d0b" stroke-miterlimit="10" stroke-width=".041"/>
          <circle cx="43.647" cy="71.07" r=".24" fill="#0c0d0b" stroke="#0c0d0b" stroke-miterlimit="10" stroke-width=".041"/>
          <circle cx="44.971" cy="71.07" r=".24" fill="#0c0d0b" stroke="#0c0d0b" stroke-miterlimit="10" stroke-width=".041"/>
          <circle cx="46.294" cy="71.07" r=".24" fill="#0c0d0b" stroke="#0c0d0b" stroke-miterlimit="10" stroke-width=".041"/>
          <circle cx="47.618" cy="71.07" r=".24" fill="#0c0d0b" stroke="#0c0d0b" stroke-miterlimit="10" stroke-width=".041"/>
          <circle cx="48.941" cy="71.07" r=".24" fill="#0c0d0b" stroke="#0c0d0b" stroke-miterlimit="10" stroke-width=".041"/>
          <circle cx="50.265" cy="71.07" r=".24" fill="#0c0d0b" stroke="#0c0d0b" stroke-miterlimit="10" stroke-width=".041"/>
          <circle cx="51.588" cy="71.07" r=".24" fill="#0c0d0b" stroke="#0c0d0b" stroke-miterlimit="10" stroke-width=".041"/>
          <circle cx="52.911" cy="71.07" r=".24" fill="#0c0d0b" stroke="#0c0d0b" stroke-miterlimit="10" stroke-width=".041"/>
          <circle cx="54.235" cy="71.07" r=".24" fill="#0c0d0b" stroke="#0c0d0b" stroke-miterlimit="10" stroke-width=".041"/>
          <circle cx="55.558" cy="71.07" r=".24" fill="#0c0d0b" stroke="#0c0d0b" stroke-miterlimit="10" stroke-width=".041"/>
          <circle cx="56.882" cy="71.07" r=".24" fill="#0c0d0b" stroke="#0c0d0b" stroke-miterlimit="10" stroke-width=".041"/>
          <circle cx="58.205" cy="71.07" r=".24" fill="#0c0d0b" stroke="#0c0d0b" stroke-miterlimit="10" stroke-width=".041"/>
          <circle cx="59.529" cy="71.07" r=".24" fill="#0c0d0b" stroke="#0c0d0b" stroke-miterlimit="10" stroke-width=".041"/>
          <circle cx="60.852" cy="71.07" r=".24" fill="#0c0d0b" stroke="#0c0d0b" stroke-miterlimit="10" stroke-width=".041"/>
          <circle cx="62.175" cy="71.07" r=".24" fill="#0c0d0b" stroke="#0c0d0b" stroke-miterlimit="10" stroke-width=".041"/>
          <circle cx="63.499" cy="71.07" r=".24" fill="#0c0d0b" stroke="#0c0d0b" stroke-miterlimit="10" stroke-width=".041"/>
          <circle cx="64.822" cy="71.07" r=".24" fill="#0c0d0b" stroke="#0c0d0b" stroke-miterlimit="10" stroke-width=".041"/>
          <circle cx="66.146" cy="71.07" r=".24" fill="#0c0d0b" stroke="#0c0d0b" stroke-miterlimit="10" stroke-width=".041"/>
        </g>
      </g>
    </g>
  </g>
  <g id="stem">
    <path d="M49.608,7.54v60.586l-6.018-32.075c-.497-2.65-1.838-4.98-3.749-6.514l-4.026-4.008" fill="none" stroke="#0c0d0b" stroke-miterlimit="10" stroke-width=".121"/>
    <path d="M50.584,7.256v60.633s6.073-36.114,6.073-36.114c.481-2.858,1.776-5.369,3.623-7.024l7.134-6.392" fill="none" stroke="#0c0d0b" stroke-miterlimit="10" stroke-width=".121"/>
    <path d="M37.521,13.015c.112,0,6.141,8.507,8.691,12.112.735,1.038,1.22,2.232,1.419,3.488.587,3.702,1.847,11.487,2.026,11.211" fill="none" stroke="#0c0d0b" stroke-miterlimit="10" stroke-width=".121"/>
    <path d="M62.657,13.015c-.112,0-6.141,8.507-8.691,12.112-.735,1.038-1.22,2.232-1.419,3.488-.587,3.702-1.847,11.487-2.026,11.211" fill="none" stroke="#0c0d0b" stroke-miterlimit="10" stroke-width=".121"/>
  </g>
  <g id="leaf">
    <g>
      <path d="M42.583,18.313c-.271.192-.334.567-.143.837l.526.742c.16.226.449.308.697.216l-.138,1.265.385.543-1.397-.326c.268-.193.33-.565.139-.835l-.526-.742c-.192-.271-.567-.334-.837-.143s-.334.567-.143.837l.526.742c.181.255.524.326.79.173l1.478.345.548.773.04-.028-.957-1.351.139-1.273c.032-.015.064-.033.094-.055.271-.192.334-.567.143-.837l-.526-.742c-.192-.271-.567-.334-.837-.143Z"/>
      <circle cx="43.217" cy="19.207" r=".224" fill="#ffc1b3"/>
      <circle cx="41.899" cy="20.69" r=".224" fill="#ffc1b3"/>
    </g>
    <g>
      <path d="M47.218,23.008c-.321.084-.513.412-.429.733l.23.879c.07.268.311.446.576.449l-.576,1.135.168.644-1.192-.798c.318-.086.509-.412.425-.732l-.23-.879c-.084-.321-.412-.513-.733-.429s-.513.412-.429.733l.23.879c.079.302.375.49.677.441l1.261.845.239.916.048-.012-.418-1.602.579-1.142c.036-.003.071-.008.107-.018.321-.084.513-.412.429-.733l-.23-.879c-.084-.321-.412-.513-.733-.429Z"/>
      <circle cx="47.496" cy="24.069" r=".224" fill="#ffc1b3"/>
      <circle cx="45.739" cy="24.99" r=".224" fill="#ffc1b3"/>
    </g>
    <g>
      <path d="M48.639,28.852c-.327.055-.548.364-.494.691l.149.897c.046.274.269.473.533.499l-.676,1.079.109.657-1.115-.903c.325-.056.544-.364.489-.69l-.149-.897c-.055-.327-.364-.548-.691-.494s-.548.364-.494.691l.149.897c.051.308.329.522.635.5l1.18.955.156.934.048-.008-.272-1.633.68-1.085c.036,0,.072-.002.108-.008.327-.055.548-.364.494-.691l-.149-.897c-.055-.327-.364-.548-.691-.494Z"/>
      <circle cx="48.819" cy="29.932" r=".224" fill="#ffc1b3"/>
      <circle cx="46.987" cy="30.692" r=".224" fill="#ffc1b3"/>
    </g>
    <g>
      <path d="M48.943,56.748c-.33.028-.575.319-.547.649l.077.906c.024.276.231.493.491.54l-.76,1.021.057.663-1.039-.989c.328-.03.571-.32.543-.649l-.077-.906c-.028-.33-.319-.575-.649-.547s-.575.319-.547.649l.077.906c.027.311.287.547.593.549l1.1,1.046.081.943.049-.004-.141-1.65.764-1.027c.036.003.072.004.109,0,.33-.028.575-.319.547-.649l-.077-.906c-.028-.33-.319-.575-.649-.547Z"/>
      <circle cx="49.037" cy="57.84" r=".224" fill="#ffc1b3"/>
      <circle cx="47.149" cy="58.451" r=".224" fill="#ffc1b3"/>
    </g>
    <g>
      <path d="M47.543,49.286c-.33.028-.575.319-.547.649l.077.906c.024.276.231.493.491.54l-.76,1.021.057.663-1.039-.989c.328-.03.571-.32.543-.649l-.077-.906c-.028-.33-.319-.575-.649-.547s-.575.319-.547.649l.077.906c.027.311.287.547.593.549l1.1,1.046.081.943.049-.004-.141-1.65.764-1.027c.036.003.072.004.109,0,.33-.028.575-.319.547-.649l-.077-.906c-.028-.33-.319-.575-.649-.547Z"/>
      <circle cx="47.637" cy="50.378" r=".224" fill="#ffc1b3"/>
      <circle cx="45.749" cy="50.989" r=".224" fill="#ffc1b3"/>
    </g>
    <g>
      <path d="M46.143,41.826c-.33.028-.575.319-.547.649l.077.906c.024.276.231.493.491.54l-.76,1.021.057.663-1.039-.989c.328-.03.571-.32.543-.649l-.077-.906c-.028-.33-.319-.575-.649-.547s-.575.319-.547.649l.077.906c.027.311.287.547.593.549l1.1,1.046.081.943.049-.004-.141-1.65.764-1.027c.036.003.072.004.109,0,.33-.028.575-.319.547-.649l-.077-.906c-.028-.33-.319-.575-.649-.547Z"/>
      <circle cx="46.237" cy="42.917" r=".224" fill="#ffc1b3"/>
      <circle cx="44.35" cy="43.528" r=".224" fill="#ffc1b3"/>
    </g>
    <g>
      <path d="M44.742,34.357c-.33.028-.575.319-.547.649l.077.906c.024.276.231.493.491.54l-.76,1.021.057.663-1.039-.989c.328-.03.571-.32.543-.649l-.077-.906c-.028-.33-.319-.575-.649-.547s-.575.319-.547.649l.077.906c.027.311.287.547.593.549l1.1,1.046.081.943.049-.004-.141-1.65.764-1.027c.036.003.072.004.109,0,.33-.028.575-.319.547-.649l-.077-.906c-.028-.33-.319-.575-.649-.547Z"/>
      <circle cx="44.836" cy="35.448" r=".224" fill="#ffc1b3"/>
      <circle cx="42.948" cy="36.059" r=".224" fill="#ffc1b3"/>
    </g>
    <g>
      <path d="M40.715,27.287c-.296.15-.414.512-.264.807l.412.81c.126.247.399.37.658.316l-.321,1.232.301.593-1.334-.527c.293-.151.409-.511.26-.805l-.412-.81c-.15-.296-.512-.414-.807-.264s-.414.512-.264.807l.412.81c.142.279.471.399.756.287l1.412.557.429.844.044-.022-.75-1.476.323-1.239c.034-.01.068-.023.101-.04.296-.15.414-.512.264-.807l-.412-.81c-.15-.296-.512-.414-.807-.264Z"/>
      <circle cx="41.211" cy="28.264" r=".224" fill="#ffc1b3"/>
      <circle cx="39.691" cy="29.538" r=".224" fill="#ffc1b3"/>
    </g>
    <g>
      <path d="M34.509,22.191c-.256.21-.293.589-.083.845l.577.702c.176.214.469.275.711.166l-.048,1.272.422.514-1.417-.226c.253-.211.289-.587.08-.842l-.577-.702c-.21-.256-.589-.293-.845-.083s-.293.589-.083.845l.577.702c.198.242.546.288.8.117l1.499.239.601.732.038-.031-1.051-1.279.048-1.279c.031-.017.061-.038.09-.061.256-.21.293-.589.083-.845l-.577-.702c-.21-.256-.589-.293-.845-.083Z"/>
      <circle cx="35.205" cy="23.038" r=".224" fill="#ffc1b3"/>
      <circle cx="33.996" cy="24.61" r=".224" fill="#ffc1b3"/>
    </g>
    <g>
      <path d="M57.24,39.055c-.313-.111-.656.052-.767.365l-.304.857c-.093.261.006.544.224.695l-1.114.615-.223.627-.537-1.33c.311.108.652-.055.763-.366l.304-.857c.111-.313-.052-.656-.365-.767s-.656.052-.767.365l-.304.857c-.105.295.035.616.313.745l.568,1.407-.317.892.046.016.554-1.56,1.121-.619c.031.018.064.033.099.046.313.111.656-.052.767-.365l.304-.857c.111-.313-.052-.656-.365-.767Z"/>
      <circle cx="56.874" cy="40.088" r=".224" fill="#ffc1b3"/>
      <circle cx="54.903" cy="39.864" r=".224" fill="#ffc1b3"/>
    </g>
    <g>
      <path d="M58.638,30.739c-.313-.111-.656.052-.767.365l-.304.857c-.093.261.006.544.224.695l-1.114.615-.223.627-.537-1.33c.311.108.652-.055.763-.366l.304-.857c.111-.313-.052-.656-.365-.767s-.656.052-.767.365l-.304.857c-.105.295.035.616.313.745l.568,1.407-.317.892.046.016.554-1.56,1.121-.619c.031.018.064.033.099.046.313.111.656-.052.767-.365l.304-.857c.111-.313-.052-.656-.365-.767Z"/>
      <circle cx="58.272" cy="31.772" r=".224" fill="#ffc1b3"/>
      <circle cx="56.301" cy="31.547" r=".224" fill="#ffc1b3"/>
    </g>
    <g>
      <path d="M62.434,24.043c-.244-.225-.623-.21-.849.034l-.617.668c-.188.204-.208.503-.068.727l-1.267.127-.452.489.03-1.434c.244.222.621.206.845-.036l.617-.668c.225-.244.21-.623-.034-.849s-.623-.21-.849.034l-.617.668c-.212.23-.211.58-.006.808l-.032,1.517-.643.696.036.033,1.123-1.216,1.274-.128c.021.029.046.056.073.081.244.225.623.21.849-.034l.617-.668c.225-.244.21-.623-.034-.849Z"/>
      <circle cx="61.69" cy="24.848" r=".224" fill="#ffc1b3"/>
      <circle cx="59.967" cy="23.865" r=".224" fill="#ffc1b3"/>
    </g>
  </g>
  <g id="flower">
    <g>
      <g>
        <path d="M55.434,7.125c0-.968-.785-1.753-1.753-1.753s-1.753.785-1.753,1.753.785,1.753,1.753,1.753c.324,0,.627-.088.887-.241.21,1.589-.241,3.193-1.246,4.365-.137-.111-.338-.105-.468.021-.135.13-.144.34-.027.482-.002.002-.005.004-.007.006-.166.146-.341.279-.521.401-.019-.027-.043-.052-.07-.073-.155-.12-.377-.093-.498.062-.084.107-.096.247-.044.363-.2.098-.407.182-.617.254-.042-.11-.138-.197-.263-.222-.192-.038-.379.087-.417.279-.008.043-.009.085-.002.125-.218.044-.439.074-.661.092-.007-.061-.031-.122-.072-.174-.12-.155-.343-.183-.498-.063-.081.063-.127.154-.135.249-.222-.01-.444-.033-.664-.068.001-.01.002-.019.002-.029.006-.196-.148-.359-.344-.365-.16-.005-.298.097-.347.241-.213-.061-.423-.135-.63-.22.051-.138.012-.298-.108-.397-.152-.124-.375-.102-.499.05-.01.012-.019.025-.027.038-.193-.108-.38-.229-.562-.36.054-.08.075-.182.05-.283-.047-.19-.24-.306-.43-.258-.19.047-.306.24-.258.43.047.19.24.306.43.258.073-.018.135-.058.181-.11.183.133.373.254.569.365-.064.143-.028.316.099.42.152.124.375.102.499-.05.015-.019.028-.039.039-.059.208.087.421.162.637.224-.003.018-.006.037-.006.056-.006.196.148.359.344.365.169.005.314-.109.354-.266.222.036.447.059.672.069.004.07.028.14.074.199.12.155.343.183.498.063.088-.069.135-.171.137-.275.226-.018.45-.049.669-.094.037.121.138.218.27.245.192.038.379-.087.417-.279.01-.051.009-.102-.003-.15.214-.073.423-.159.625-.258.022.035.049.067.084.094.155.12.377.093.498-.062.089-.114.097-.266.032-.386.184-.123.36-.258.527-.405.003-.002.005-.005.008-.007.137.128.351.127.487-.004.141-.135.145-.359.011-.5.55-.638.943-1.409,1.149-2.264.171-.708.206-1.439.106-2.159.493-.31.821-.859.821-1.484Z" fill="#ff9b85"/>
        <circle cx="49.324" cy="9.494" r="3.695" fill="#0c0d0b"/>
      </g>
      <circle cx="46.325" cy="10.659" r="1.331" fill="#ffc1b3"/>
    </g>
    <g>
      <g>
        <path d="M42.404,11.879c0-.688-.557-1.245-1.245-1.245s-1.245.557-1.245,1.245.557,1.245,1.245,1.245c.23,0,.445-.063.63-.171.149,1.128-.171,2.268-.885,3.101-.097-.079-.24-.075-.333.015-.096.092-.102.242-.019.342-.002.001-.003.003-.005.004-.118.104-.242.198-.37.285-.014-.019-.03-.037-.05-.052-.11-.085-.268-.066-.354.044-.059.076-.068.176-.031.258-.142.069-.289.129-.438.18-.03-.078-.098-.14-.186-.157-.136-.027-.269.062-.296.198-.006.03-.006.06-.002.089-.155.031-.312.053-.47.065-.005-.044-.022-.086-.051-.124-.085-.11-.244-.13-.353-.045-.058.045-.09.109-.096.177-.157-.007-.315-.023-.472-.048,0-.007.001-.014.002-.021.004-.139-.105-.255-.244-.259-.114-.003-.212.069-.246.171-.151-.043-.301-.096-.448-.156.036-.098.008-.212-.077-.282-.108-.088-.266-.072-.354.036-.007.009-.013.018-.019.027-.137-.077-.27-.162-.399-.256.038-.057.053-.129.035-.201-.034-.135-.17-.217-.305-.184-.135.034-.217.17-.184.305.034.135.17.217.305.184.052-.013.096-.041.128-.078.13.094.265.181.404.259-.046.101-.02.224.07.298.108.088.266.072.354-.036.011-.013.02-.027.028-.042.148.062.299.115.452.159-.002.013-.004.026-.004.04-.004.139.105.255.244.259.12.004.223-.077.252-.189.158.025.317.042.477.049.003.05.02.099.052.142.085.11.244.13.353.045.063-.049.096-.121.097-.195.161-.013.319-.035.475-.066.026.086.098.155.192.174.136.027.269-.062.296-.198.007-.037.006-.073-.002-.107.152-.052.301-.113.444-.183.015.025.035.048.06.067.11.085.268.066.354-.044.063-.081.069-.189.023-.274.131-.088.256-.183.375-.288.002-.002.004-.003.006-.005.097.091.249.09.346-.003.1-.096.103-.255.008-.355.39-.453.67-1.001.816-1.608.122-.503.146-1.022.075-1.534.35-.22.583-.61.583-1.054Z" fill="#ff9b85"/>
        <circle cx="38.063" cy="13.561" r="2.624" fill="#0c0d0b"/>
      </g>
      <circle cx="35.934" cy="14.389" r=".945" fill="#ffc1b3"/>
    </g>
    <circle cx="60.421" cy="15.912" r="1.409" fill="#e17a74"/>
    <circle cx="63.664" cy="21.614" r="1.409" fill="#e17a74"/>
    <circle cx="62.416" cy="12.93" r="1.409" fill="#e17a74"/>
    <circle cx="66.508" cy="18.912" r="1.409" fill="#e17a74"/>
  </g>
</svg>